<svg width="58" height="58" viewBox="0 0 58 58" fill="none" xmlns="http://www.w3.org/2000/svg">
<ellipse cx="29" cy="28.6207" rx="29" ry="28.6207" fill="#ECF8F0"/>
<g clip-path="url(#clip0_2517_652)">
<path d="M35.1445 27.2891C31.3643 27.2891 28.2891 30.3643 28.2891 34.1445C28.2891 37.9247 31.3643 41 35.1445 41C38.9247 41 42 37.9247 42 34.1445C42 30.3643 38.9247 27.2891 35.1445 27.2891ZM38.1914 34.9062H35.1445C34.7236 34.9062 34.3828 34.5655 34.3828 34.1445V31.0977C34.3828 30.6767 34.7236 30.3359 35.1445 30.3359C35.5655 30.3359 35.9062 30.6767 35.9062 31.0977V33.3828H38.1914C38.6124 33.3828 38.9531 33.7236 38.9531 34.1445C38.9531 34.5655 38.6124 34.9062 38.1914 34.9062ZM40.4258 17.3359C40.4258 16.9093 40.0907 16.5742 39.6641 16.5742H35.8555V18.8594C35.8555 19.2858 35.5204 19.6211 35.0938 19.6211C34.6671 19.6211 34.332 19.2858 34.332 18.8594V16.5742H31.2852V18.8594C31.2852 19.2858 30.9501 19.6211 30.5234 19.6211C30.0968 19.6211 29.7617 19.2858 29.7617 18.8594V16.5742H26.7148V18.8594C26.7148 19.2858 26.3798 19.6211 25.9531 19.6211C25.5265 19.6211 25.1914 19.2858 25.1914 18.8594V16.5742H22.1445V18.8594C22.1445 19.2858 21.8095 19.6211 21.3828 19.6211C20.9561 19.6211 20.6211 19.2858 20.6211 18.8594V16.5742H16.7617C16.3351 16.5742 16 16.9093 16 17.3359V21.1445H40.4258V17.3359Z" fill="#11AF00"/>
<path d="M27.4766 30.2852H27.6595C27.9376 29.7448 28.2514 29.2261 28.6354 28.7617H27.4766C27.0556 28.7617 26.7148 28.421 26.7148 28C26.7148 27.579 27.0556 27.2383 27.4766 27.2383H29C29.3121 27.2383 29.5784 27.4265 29.6962 27.6949C31.1557 26.4621 33.0381 25.7148 35.0938 25.7148H33.5703C33.1493 25.7148 32.8086 25.3741 32.8086 24.9531C32.8086 24.5321 33.1493 24.1914 33.5703 24.1914H35.0938C35.5147 24.1914 35.8555 24.5321 35.8555 24.9531C35.8555 25.3741 35.5147 25.7148 35.0938 25.7148C37.1176 25.7148 38.9761 26.4364 40.4258 27.6354V22.668H16V37.1406C16 37.5616 16.3407 37.9023 16.7617 37.9023H27.6398C27.0528 36.7582 26.7148 35.4657 26.7148 34.0938C26.7148 33.2553 26.8652 32.4563 27.0955 31.6919C26.872 31.5593 26.7148 31.326 26.7148 31.0469C26.7148 30.6259 27.0556 30.2852 27.4766 30.2852ZM27.4766 24.1914H29C29.421 24.1914 29.7617 24.5321 29.7617 24.9531C29.7617 25.3741 29.421 25.7148 29 25.7148H27.4766C27.0556 25.7148 26.7148 25.3741 26.7148 24.9531C26.7148 24.5321 27.0556 24.1914 27.4766 24.1914ZM22.9062 34.8555H21.3828C20.9618 34.8555 20.6211 34.5147 20.6211 34.0938C20.6211 33.6728 20.9618 33.332 21.3828 33.332H22.9062C23.3272 33.332 23.668 33.6728 23.668 34.0938C23.668 34.5147 23.3272 34.8555 22.9062 34.8555ZM22.9062 31.8086H21.3828C20.9618 31.8086 20.6211 31.4679 20.6211 31.0469C20.6211 30.6259 20.9618 30.2852 21.3828 30.2852H22.9062C23.3272 30.2852 23.668 30.6259 23.668 31.0469C23.668 31.4679 23.3272 31.8086 22.9062 31.8086ZM22.9062 28.7617H21.3828C20.9618 28.7617 20.6211 28.421 20.6211 28C20.6211 27.579 20.9618 27.2383 21.3828 27.2383H22.9062C23.3272 27.2383 23.668 27.579 23.668 28C23.668 28.421 23.3272 28.7617 22.9062 28.7617ZM22.9062 25.7148H21.3828C20.9618 25.7148 20.6211 25.3741 20.6211 24.9531C20.6211 24.5321 20.9618 24.1914 21.3828 24.1914H22.9062C23.3272 24.1914 23.668 24.5321 23.668 24.9531C23.668 25.3741 23.3272 25.7148 22.9062 25.7148ZM22.1445 15.7617C22.1445 15.3351 21.8095 15 21.3828 15C20.9561 15 20.6211 15.3351 20.6211 15.7617V16.5742H22.1445V15.7617ZM26.7148 15.7617C26.7148 15.3351 26.3798 15 25.9531 15C25.5265 15 25.1914 15.3351 25.1914 15.7617V16.5742H26.7148V15.7617ZM31.2852 15.7617C31.2852 15.3351 30.9501 15 30.5234 15C30.0968 15 29.7617 15.3351 29.7617 15.7617V16.5742H31.2852V15.7617ZM35.8555 15.7617C35.8555 15.3351 35.5204 15 35.0938 15C34.6671 15 34.332 15.3351 34.332 15.7617V16.5742H35.8555V15.7617Z" fill="#11AF00"/>
</g>
<defs>
<clipPath id="clip0_2517_652">
<rect width="26" height="26" fill="white" transform="translate(16 15)"/>
</clipPath>
</defs>
</svg>
