<svg width="58" height="58" viewBox="0 0 58 58" fill="none" xmlns="http://www.w3.org/2000/svg">
<ellipse cx="29" cy="28.6207" rx="29" ry="28.6207" fill="#F4F5F9"/>
<g clip-path="url(#clip0_2517_647)">
<path d="M21.888 17.4323C23.3881 17.4323 24.6041 16.2162 24.6041 14.7161C24.6041 13.2161 23.3881 12 21.888 12C20.3879 12 19.1719 13.2161 19.1719 14.7161C19.1719 16.2162 20.3879 17.4323 21.888 17.4323Z" fill="#5E5FDC"/>
<path d="M21.4388 18.2192C21.4088 18.2192 21.3792 18.2258 21.352 18.2386C21.3249 18.2513 21.3009 18.2699 21.2817 18.2929C21.2625 18.316 21.2486 18.3429 21.241 18.372C21.2334 18.401 21.2323 18.4313 21.2378 18.4608L21.4051 19.3673C21.4138 19.4143 21.4386 19.4567 21.4754 19.4873C21.5121 19.5178 21.5584 19.5346 21.6061 19.5345H22.2878C22.3355 19.5345 22.3818 19.5178 22.4185 19.4873C22.4553 19.4567 22.4801 19.4142 22.4888 19.3673L22.6561 18.4608C22.6616 18.4313 22.6605 18.401 22.6529 18.372C22.6453 18.3429 22.6314 18.316 22.6122 18.2929C22.5931 18.2699 22.569 18.2513 22.5419 18.2386C22.5147 18.2258 22.4851 18.2192 22.4551 18.2192H21.4388Z" fill="#5E5FDC"/>
<path d="M40.8453 21.8774L41.6933 19.9653C41.8052 19.713 41.6204 19.429 41.3444 19.429H39.4827V18.6331C39.4827 18.5266 39.4404 18.4245 39.3651 18.3492C39.2898 18.2739 39.1877 18.2316 39.0812 18.2316H34.5779L34.6754 17.5192C34.7234 17.1684 34.478 16.845 34.1272 16.797C33.7762 16.7488 33.453 16.9944 33.4049 17.3452L30.4295 39.0683L29.2265 39.9045L29.831 32.854C29.8553 32.5701 29.8021 32.285 29.6769 32.029C29.5518 31.773 29.3595 31.5558 29.1205 31.4007L25.4098 28.9919V20.8401H25.4797C25.7507 20.8401 25.9809 21.0577 25.9836 21.3157V25.9909C25.9836 26.2214 26.0444 26.4478 26.1598 26.6473C26.2753 26.8468 26.4413 27.0124 26.6411 27.1272C26.841 27.242 27.0676 27.3021 27.2981 27.3014C27.5286 27.3007 27.7548 27.2392 27.9539 27.1231L31.5618 25.0201L31.9891 21.8373C31.8314 21.8631 31.6798 21.9176 31.5418 21.9981L28.6044 23.7103V21.305C28.5959 19.6035 27.1941 18.2193 25.4797 18.2193H23.8007C23.7282 18.6132 23.3066 20.7188 22.4684 21.3792L22.5928 20.7884C22.5974 20.7664 22.5976 20.7437 22.5932 20.7216L22.4282 19.8824C22.4207 19.8443 22.4002 19.81 22.3702 19.7853C22.3402 19.7606 22.3026 19.7471 22.2637 19.7471H21.6306C21.5918 19.7471 21.5542 19.7606 21.5242 19.7853C21.4942 19.81 21.4737 19.8443 21.4662 19.8824L21.3011 20.7216C21.2968 20.7437 21.2969 20.7664 21.3016 20.7884L21.4259 21.3792C20.5878 20.7188 20.1661 18.6132 20.0936 18.2193H18.3981C16.6837 18.2193 15.282 19.6035 15.2734 21.305V30.2618C15.2734 30.9723 15.826 31.5776 16.5361 31.6028C17.2816 31.6293 17.8943 31.0328 17.8943 30.2932V21.3163C17.8967 21.058 18.169 20.8401 18.4402 20.8401C18.4143 39.3626 18.4458 34.1786 18.4402 43.3486C18.4402 44.2111 19.1486 44.9115 20.009 44.921C20.8837 44.9307 21.5993 44.188 21.5993 43.3133V30.7783H22.4614C22.6873 31.0128 22.5246 30.8511 26.6169 33.5251L26.0475 40.166C25.9924 40.8093 26.3312 41.3883 26.8562 41.6778L23.9655 43.8406C23.4698 44.2115 23.7321 45 24.3513 45H37.5994C38.2186 45 38.4809 44.2115 37.9852 43.8406C36.7558 42.9221 31.7111 39.1609 31.7111 39.1609L33.9071 23.1284H39.4827L37.0342 24.3258H41.3443C41.6203 24.3258 41.8051 24.0417 41.6932 23.7894L40.8453 21.8774Z" fill="#5E5FDC"/>
</g>
<defs>
<clipPath id="clip0_2517_647">
<rect width="33" height="33" fill="white" transform="translate(12 12)"/>
</clipPath>
</defs>
</svg>
