<svg width="58" height="58" viewBox="0 0 58 58" fill="none" xmlns="http://www.w3.org/2000/svg">
<ellipse cx="29" cy="28.6207" rx="29" ry="28.6207" fill="#ECF8FF"/>
<path d="M42.0996 21.7324H14.9004C13.3011 21.7324 12 23.0335 12 24.6328V32.3672C12 33.9666 13.3011 35.2676 14.9004 35.2676H42.0996C43.6989 35.2676 45 33.9666 45 32.3672V24.6328C45 23.0335 43.6989 21.7324 42.0996 21.7324ZM42.9644 26.9988L41.0308 30.866C40.6746 31.5766 39.6575 31.5766 39.3012 30.866L38.2324 28.7285L37.1637 30.866C36.7996 31.5922 35.4395 31.5513 35.2842 30.5665L33.5815 27.1603C33.4701 27.0235 33.4066 26.8517 33.386 26.6683C33.3741 26.78 33.3496 26.8924 33.2964 26.9988L31.3628 30.866C31.0065 31.5766 29.9894 31.5766 29.6332 30.866L28.5645 28.7285L27.3668 30.866C27.0382 31.5213 25.9657 31.5213 25.6371 30.866C25.4889 30.5697 23.6531 26.9792 23.6174 26.6808C23.5931 26.8891 23.5144 27.079 23.3872 27.2235C23.2187 27.5604 21.6452 30.8232 21.3816 31.0676C20.8383 31.6483 20.1061 31.4042 19.8363 30.866L18.7676 28.7285L17.6988 30.866C17.3425 31.5766 16.3254 31.5766 15.9692 30.866L14.0356 26.9988C13.4642 25.8563 15.1921 24.9924 15.7652 26.134L16.834 28.2715L17.9027 26.134C18.2511 25.4373 19.285 25.444 19.6324 26.134L20.7012 28.2715L21.7699 26.134C22.1998 25.2743 23.5712 25.5138 23.615 26.5367C23.6496 25.5109 24.992 25.2551 25.4332 26.134L26.502 28.2715L27.5707 26.134C27.8993 25.4788 29.1007 25.4788 29.4293 26.134L30.498 28.2715L31.5668 26.134C32.0062 25.2587 33.3402 25.5066 33.3838 26.5278C33.4251 25.461 34.8046 25.2831 35.2301 26.134L36.2988 28.2715L37.3676 26.134C37.6962 25.4788 38.7687 25.4788 39.0973 26.134L40.166 28.2715L41.2348 26.134C41.8079 24.9924 43.5358 25.8563 42.9644 26.9988ZM23.6068 19.7989H27.4688V16.0706C26.0041 16.4808 24.6469 17.8207 23.6068 19.7989ZM29.5312 14.0564V14.1109C31.9693 14.5439 34.112 16.6022 35.5354 19.7989H40.1028C37.5901 16.4742 33.7343 14.3459 29.5312 14.0564ZM16.8972 19.7989H21.4646C22.888 16.6022 25.0307 14.5439 27.4688 14.1109V14.0563C23.2657 14.3459 19.4099 16.4742 16.8972 19.7989ZM29.5312 16.0706V19.7989H33.3932C32.3531 17.8207 30.9959 16.4808 29.5312 16.0706ZM23.6068 37.2012C24.6469 39.1794 26.0041 40.5192 27.4688 40.9295V37.2012H23.6068ZM29.5312 37.2012V40.9295C30.9959 40.5192 32.3531 39.1794 33.3932 37.2012H29.5312ZM35.5354 37.2013C34.112 40.3978 31.9693 42.4561 29.5312 42.8892V42.9437C33.7343 42.6542 37.5901 40.5259 40.1028 37.2013H35.5354ZM21.4646 37.2012H16.8972C19.4098 40.5259 23.2656 42.6542 27.4688 42.9436V42.8891C25.0307 42.4561 22.888 40.3978 21.4646 37.2012Z" fill="#0278BE"/>
</svg>
