<svg width="58" height="58" viewBox="0 0 58 58" fill="none" xmlns="http://www.w3.org/2000/svg">
<circle cx="29" cy="29" r="29" fill="#F4F5F9"/>
<path fill-rule="evenodd" clip-rule="evenodd" d="M29 41.375C29.44 41.3864 29.8581 41.5691 30.1653 41.8844C30.4725 42.1996 30.6444 42.6223 30.6444 43.0625C30.6444 43.5027 30.4725 43.9254 30.1653 44.2406C29.8581 44.5559 29.44 44.7386 29 44.75C28.5599 44.7386 28.1418 44.5559 27.8346 44.2406C27.5274 43.9254 27.3555 43.5027 27.3555 43.0625C27.3555 42.6223 27.5274 42.1996 27.8346 41.8844C28.1418 41.5691 28.5599 41.3864 29 41.375ZM21.125 41.375C21.565 41.3864 21.9831 41.5691 22.2903 41.8844C22.5975 42.1996 22.7694 42.6223 22.7694 43.0625C22.7694 43.5027 22.5975 43.9254 22.2903 44.2406C21.9831 44.5559 21.565 44.7386 21.125 44.75C20.6849 44.7386 20.2668 44.5559 19.9596 44.2406C19.6524 43.9254 19.4805 43.5027 19.4805 43.0625C19.4805 42.6223 19.6524 42.1996 19.9596 41.8844C20.2668 41.5691 20.6849 41.3864 21.125 41.375ZM36.875 41.375C36.4349 41.3864 36.0168 41.5691 35.7096 41.8844C35.4024 42.1996 35.2305 42.6223 35.2305 43.0625C35.2305 43.5027 35.4024 43.9254 35.7096 44.2406C36.0168 44.5559 36.4349 44.7386 36.875 44.75C37.315 44.7386 37.7331 44.5559 38.0403 44.2406C38.3475 43.9254 38.5194 43.5027 38.5194 43.0625C38.5194 42.6223 38.3475 42.1996 38.0403 41.8844C37.7331 41.5691 37.315 41.3864 36.875 41.375Z" fill="#5E5FDC"/>
<path fill-rule="evenodd" clip-rule="evenodd" d="M28.4375 32.9375C28.4375 32.7883 28.4968 32.6452 28.6023 32.5398C28.7077 32.4343 28.8508 32.375 29 32.375C29.1492 32.375 29.2923 32.4343 29.3977 32.5398C29.5032 32.6452 29.5625 32.7883 29.5625 32.9375V41.375C29.556 41.5198 29.4939 41.6566 29.3891 41.7568C29.2844 41.857 29.145 41.9129 29 41.9129C28.855 41.9129 28.7156 41.857 28.6109 41.7568C28.5061 41.6566 28.444 41.5198 28.4375 41.375V32.9375ZM23.9375 32.9375C23.9375 32.7883 23.9968 32.6452 24.1023 32.5398C24.2077 32.4343 24.3508 32.375 24.5 32.375C24.6492 32.375 24.7923 32.4343 24.8977 32.5398C25.0032 32.6452 25.0625 32.7883 25.0625 32.9375V36.875C25.0626 36.9795 25.0335 37.0819 24.9785 37.1707C24.9236 37.2596 24.8449 37.3313 24.7514 37.3779L21.6875 38.9101V41.375C21.6875 41.5242 21.6282 41.6673 21.5227 41.7727C21.4173 41.8782 21.2742 41.9375 21.125 41.9375C20.9758 41.9375 20.8327 41.8782 20.7273 41.7727C20.6218 41.6673 20.5625 41.5242 20.5625 41.375V38.5625C20.5625 38.3493 20.6829 38.1547 20.8736 38.0596L23.9375 36.5274V32.9375ZM32.9375 32.9375C32.9375 32.7883 32.9968 32.6452 33.1023 32.5398C33.2077 32.4343 33.3508 32.375 33.5 32.375C33.6492 32.375 33.7923 32.4343 33.8977 32.5398C34.0032 32.6452 34.0625 32.7883 34.0625 32.9375V36.5274L37.1264 38.0596C37.2199 38.1062 37.2986 38.1779 37.3535 38.2668C37.4085 38.3556 37.4376 38.458 37.4375 38.5625V41.375C37.4375 41.5242 37.3782 41.6673 37.2727 41.7727C37.1673 41.8782 37.0242 41.9375 36.875 41.9375C36.7258 41.9375 36.5827 41.8782 36.4773 41.7727C36.3718 41.6673 36.3125 41.5242 36.3125 41.375V38.9101L33.2486 37.3779C33.1551 37.3313 33.0764 37.2596 33.0215 37.1707C32.9665 37.0819 32.9374 36.9795 32.9375 36.875V32.9375Z" fill="#5E5FDC"/>
<path fill-rule="evenodd" clip-rule="evenodd" d="M35.1464 21.3095C35.1364 21.4015 35.1491 21.4945 35.1836 21.5804C35.218 21.6662 35.2731 21.7422 35.344 21.8017C35.4149 21.8612 35.4993 21.9022 35.5899 21.9213C35.6804 21.9403 35.7742 21.9367 35.8631 21.9108C36.3747 21.7624 36.9048 21.6872 37.4375 21.6875C40.5419 21.6875 43.0625 24.2081 43.0625 27.3125C43.0625 30.4169 40.5419 32.9375 37.4375 32.9375H20C17.2061 32.9375 14.9375 30.6689 14.9375 27.875C14.9375 25.0811 17.2061 22.8125 20 22.8125C20.423 22.8125 20.8336 22.8643 21.2263 22.9621C21.321 22.9862 21.4204 22.985 21.5146 22.9588C21.6088 22.9326 21.6945 22.8823 21.7633 22.8128C21.8321 22.7433 21.8815 22.657 21.9067 22.5626C21.9318 22.4681 21.9319 22.3687 21.9069 22.2742C21.7607 21.7154 21.687 21.1401 21.6875 20.5625C21.6875 16.8371 24.7121 13.8125 28.4375 13.8125C32.1629 13.8125 35.1875 16.8371 35.1875 20.5625C35.1875 20.8151 35.1734 21.0642 35.1464 21.3095ZM34.0625 24.5V30.125C34.0625 30.2742 34.1218 30.4173 34.2273 30.5227C34.3327 30.6282 34.4758 30.6875 34.625 30.6875C34.7742 30.6875 34.9173 30.6282 35.0227 30.5227C35.1282 30.4173 35.1875 30.2742 35.1875 30.125V24.5C35.1875 24.3508 35.1282 24.2077 35.0227 24.1023C34.9173 23.9968 34.7742 23.9375 34.625 23.9375C34.4758 23.9375 34.3327 23.9968 34.2273 24.1023C34.1218 24.2077 34.0625 24.3508 34.0625 24.5ZM22.8125 30.125C22.8125 30.2742 22.8718 30.4173 22.9773 30.5227C23.0827 30.6282 23.2258 30.6875 23.375 30.6875C23.5242 30.6875 23.6673 30.6282 23.7727 30.5227C23.8782 30.4173 23.9375 30.2742 23.9375 30.125V28.4375H26.1875V30.125C26.1875 30.2742 26.2468 30.4173 26.3523 30.5227C26.4577 30.6282 26.6008 30.6875 26.75 30.6875C26.8992 30.6875 27.0423 30.6282 27.1477 30.5227C27.2532 30.4173 27.3125 30.2742 27.3125 30.125V26.75C27.3125 26.6283 27.273 26.5099 27.2 26.4125L25.5125 24.1625C25.4601 24.0926 25.3922 24.0359 25.3141 23.9969C25.236 23.9578 25.1498 23.9375 25.0625 23.9375C24.9752 23.9375 24.889 23.9578 24.8109 23.9969C24.7328 24.0359 24.6649 24.0926 24.6125 24.1625L22.925 26.4125C22.852 26.5099 22.8125 26.6283 22.8125 26.75V30.125ZM29.5625 27.875H32.375C32.5242 27.875 32.6673 27.8157 32.7727 27.7102C32.8782 27.6048 32.9375 27.4617 32.9375 27.3125V24.5C32.9375 24.3508 32.8782 24.2077 32.7727 24.1023C32.6673 23.9968 32.5242 23.9375 32.375 23.9375H29C28.8508 23.9375 28.7077 23.9968 28.6023 24.1023C28.4968 24.2077 28.4375 24.3508 28.4375 24.5V30.125C28.4375 30.2742 28.4968 30.4173 28.6023 30.5227C28.7077 30.6282 28.8508 30.6875 29 30.6875C29.1492 30.6875 29.2923 30.6282 29.3977 30.5227C29.5032 30.4173 29.5625 30.2742 29.5625 30.125V27.875Z" fill="#5E5FDC"/>
<path fill-rule="evenodd" clip-rule="evenodd" d="M29.5625 25.0625H31.8125V26.75H29.5625V25.0625ZM26.1875 27.3125H23.9375V26.9373L25.0625 25.4377L26.1875 26.9373V27.3125Z" fill="#5E5FDC"/>
</svg>
