<svg width="58" height="58" viewBox="0 0 58 58" fill="none" xmlns="http://www.w3.org/2000/svg">
<circle cx="29" cy="29" r="29" fill="#FEF2EF"/>
<path d="M29.8594 24.1115V26.2344H30.1249L30.7656 25.5937C30.9369 25.4224 31.1644 25.3281 31.4063 25.3281H31.9374L30.3959 23.7866C30.2284 23.9126 30.0486 24.0214 29.8594 24.1115ZM34.2275 22.6094H31.361C31.2704 22.7997 31.1617 22.9787 31.0366 23.1459L32.971 25.0807C33.583 24.3703 34.0141 23.5224 34.2275 22.6094Z" fill="#D95D37"/>
<path d="M28.5 21.7031C28.7503 21.7031 28.9531 21.5003 28.9531 21.25C28.9531 20.9997 28.7503 20.7969 28.5 20.7969C28.2497 20.7969 28.0469 20.9997 28.0469 21.25C28.0469 21.5003 28.2497 21.7031 28.5 21.7031Z" fill="#D95D37"/>
<path d="M31.6719 21.25C31.6719 21.4041 31.6569 21.5545 31.6356 21.7031H34.3684C34.3798 21.5527 34.3906 21.4022 34.3906 21.25C34.3906 18.002 31.748 15.3594 28.5 15.3594C28.3487 15.3611 28.1976 15.3688 28.0469 15.3825V18.1144C28.1955 18.0931 28.3459 18.0781 28.5 18.0781C30.2491 18.0781 31.6719 19.5014 31.6719 21.25ZM22.6325 20.7969C22.6188 20.9476 22.6111 21.0987 22.6094 21.25C22.6094 23.2959 23.642 25.1478 25.3707 26.2344H28.9531V24.3856C28.8045 24.4069 28.6541 24.4219 28.5 24.4219C26.7509 24.4219 25.3281 22.9986 25.3281 21.25C25.3281 21.0959 25.3431 20.9455 25.3644 20.7969H22.6325ZM35.2969 25.3281C35.7967 25.3281 36.2031 25.7346 36.2031 26.2344V34.3906H38.9219V19.8906H35.16C35.2493 20.3302 35.2969 20.7846 35.2969 21.25C35.299 22.7224 34.8185 24.1549 33.9289 25.3281H35.2969Z" fill="#D95D37"/>
<path d="M18.0781 19.8907V34.3907H20.7969V27.1407C20.7969 26.6409 21.2033 26.2344 21.7031 26.2344H23.8768C22.4975 24.963 21.7031 23.1804 21.7031 21.2501C21.7031 20.7847 21.7507 20.3302 21.84 19.8907H18.0781ZM28.5 18.9844C27.2507 18.9844 26.2344 20.0008 26.2344 21.2501C26.2344 22.4993 27.2507 23.5157 28.5 23.5157C29.7493 23.5157 30.7656 22.4993 30.7656 21.2501C30.7656 20.0008 29.7493 18.9844 28.5 18.9844ZM28.5 22.6094C27.7505 22.6094 27.1406 21.9995 27.1406 21.2501C27.1406 20.5006 27.7505 19.8907 28.5 19.8907C29.2495 19.8907 29.8594 20.5006 29.8594 21.2501C29.8594 21.9995 29.2495 22.6094 28.5 22.6094ZM25.6385 19.8907C25.7291 19.7004 25.8379 19.5209 25.9634 19.3542L24.0317 17.4225C23.4216 18.1331 22.9904 18.9794 22.7743 19.8907H25.6385ZM27.1406 18.3886V15.5239C26.2294 15.7402 25.3831 16.1714 24.6725 16.7813L26.6041 18.713C26.7717 18.5873 26.9515 18.4786 27.1406 18.3886Z" fill="#D95D37"/>
<path d="M35.2987 26.2344H31.4082L30.5019 27.1406H21.705V28.0469H35.2987V26.2344ZM35.2271 40.8141L32.222 39.9944C31.9346 39.9155 31.681 39.7445 31.5001 39.5076C31.3192 39.2708 31.221 38.9811 31.2206 38.6831V38.0156H25.7831V38.6831C25.7831 39.2948 25.3712 39.8336 24.7817 39.9949L21.7765 40.8146C21.5718 40.8706 21.3834 40.9749 21.2273 41.1187C21.0711 41.2625 20.9516 41.4416 20.8789 41.6411H36.1248C36.0521 41.4416 35.9326 41.2623 35.7765 41.1185C35.6203 40.9746 35.4319 40.8702 35.2271 40.8141Z" fill="#D95D37"/>
<path d="M40.2812 17.1719H33.9248C34.3405 17.7228 34.6695 18.334 34.9004 18.9844H38.9219C39.4217 18.9844 39.8281 19.3908 39.8281 19.8906V34.3906C39.8281 34.8904 39.4217 35.2969 38.9219 35.2969H18.0781C17.5783 35.2969 17.1719 34.8904 17.1719 34.3906V19.8906C17.1719 19.3908 17.5783 18.9844 18.0781 18.9844H22.0996C22.3307 18.3341 22.6597 17.7229 23.0752 17.1719H16.7188C15.9693 17.1719 15.3594 17.7818 15.3594 18.5312V35.75C15.3594 36.4995 15.9693 37.1094 16.7188 37.1094H40.2812C41.0307 37.1094 41.6406 36.4995 41.6406 35.75V18.5312C41.6406 17.7818 41.0307 17.1719 40.2812 17.1719Z" fill="#D95D37"/>
<path d="M35.2969 28.9531H21.7031V34.3906H35.2969V28.9531ZM24.875 32.5781H23.9688V31.6719H24.875V32.5781ZM27.5938 32.5781H26.6875V31.6719H27.5938V32.5781ZM30.3125 32.5781H29.4062V31.6719H30.3125V32.5781ZM33.0312 32.5781H32.125V31.6719H33.0312V32.5781Z" fill="#D95D37"/>
</svg>
