<svg width="58" height="58" viewBox="0 0 58 58" fill="none" xmlns="http://www.w3.org/2000/svg">
<circle cx="29" cy="29" r="29" fill="#FEF2EF"/>
<path d="M29 40.8125C29.2416 40.8125 29.4375 40.6166 29.4375 40.375C29.4375 40.1334 29.2416 39.9375 29 39.9375C28.7584 39.9375 28.5625 40.1334 28.5625 40.375C28.5625 40.6166 28.7584 40.8125 29 40.8125Z" fill="#D95D37"/>
<path d="M20.6875 40.375C20.6882 40.9549 20.9189 41.5109 21.329 41.921C21.7391 42.3311 22.2951 42.5618 22.875 42.5625H35.125C35.7049 42.5618 36.2609 42.3311 36.671 41.921C37.0811 41.5109 37.3118 40.9549 37.3125 40.375V38.1875H20.6875V40.375ZM32.5 39.9375H34.25C34.366 39.9375 34.4773 39.9836 34.5594 40.0656C34.6414 40.1477 34.6875 40.259 34.6875 40.375C34.6875 40.491 34.6414 40.6023 34.5594 40.6844C34.4773 40.7664 34.366 40.8125 34.25 40.8125H32.5C32.384 40.8125 32.2727 40.7664 32.1906 40.6844C32.1086 40.6023 32.0625 40.491 32.0625 40.375C32.0625 40.259 32.1086 40.1477 32.1906 40.0656C32.2727 39.9836 32.384 39.9375 32.5 39.9375ZM29 39.0625C29.2596 39.0625 29.5133 39.1395 29.7292 39.2837C29.945 39.4279 30.1133 39.6329 30.2126 39.8727C30.3119 40.1126 30.3379 40.3765 30.2873 40.6311C30.2366 40.8857 30.1116 41.1195 29.9281 41.3031C29.7445 41.4866 29.5107 41.6116 29.2561 41.6623C29.0015 41.7129 28.7376 41.6869 28.4977 41.5876C28.2579 41.4883 28.0529 41.32 27.9087 41.1042C27.7645 40.8883 27.6875 40.6346 27.6875 40.375C27.6878 40.027 27.8262 39.6934 28.0723 39.4473C28.3184 39.2012 28.652 39.0628 29 39.0625ZM23.75 39.9375H25.5C25.616 39.9375 25.7273 39.9836 25.8094 40.0656C25.8914 40.1477 25.9375 40.259 25.9375 40.375C25.9375 40.491 25.8914 40.6023 25.8094 40.6844C25.7273 40.7664 25.616 40.8125 25.5 40.8125H23.75C23.634 40.8125 23.5227 40.7664 23.4406 40.6844C23.3586 40.6023 23.3125 40.491 23.3125 40.375C23.3125 40.259 23.3586 40.1477 23.4406 40.0656C23.5227 39.9836 23.634 39.9375 23.75 39.9375ZM38.1875 20.6875H19.8125C19.6965 20.6875 19.5852 20.7336 19.5031 20.8156C19.4211 20.8977 19.375 21.009 19.375 21.125V23.75H38.625V21.125C38.625 21.009 38.5789 20.8977 38.4969 20.8156C38.4148 20.7336 38.3035 20.6875 38.1875 20.6875ZM33.375 22.6562C33.2885 22.6562 33.2039 22.6306 33.1319 22.5825C33.06 22.5344 33.0039 22.4661 32.9708 22.3862C32.9377 22.3062 32.929 22.2183 32.9459 22.1334C32.9628 22.0485 33.0045 21.9706 33.0656 21.9094C33.1268 21.8482 33.2048 21.8065 33.2896 21.7897C33.3745 21.7728 33.4625 21.7814 33.5424 21.8146C33.6224 21.8477 33.6907 21.9037 33.7388 21.9757C33.7868 22.0476 33.8125 22.1322 33.8125 22.2188C33.8125 22.3348 33.7664 22.4461 33.6844 22.5281C33.6023 22.6102 33.491 22.6562 33.375 22.6562ZM35.125 22.6562C35.0385 22.6562 34.9539 22.6306 34.8819 22.5825C34.81 22.5344 34.7539 22.4661 34.7208 22.3862C34.6877 22.3062 34.679 22.2183 34.6959 22.1334C34.7128 22.0485 34.7545 21.9706 34.8156 21.9094C34.8768 21.8482 34.9548 21.8065 35.0396 21.7897C35.1245 21.7728 35.2125 21.7814 35.2924 21.8146C35.3724 21.8477 35.4407 21.9037 35.4888 21.9757C35.5368 22.0476 35.5625 22.1322 35.5625 22.2188C35.5625 22.3348 35.5164 22.4461 35.4344 22.5281C35.3523 22.6102 35.241 22.6562 35.125 22.6562ZM36.875 22.6562C36.7885 22.6562 36.7039 22.6306 36.6319 22.5825C36.56 22.5344 36.5039 22.4661 36.4708 22.3862C36.4377 22.3062 36.429 22.2183 36.4459 22.1334C36.4628 22.0485 36.5045 21.9706 36.5656 21.9094C36.6268 21.8482 36.7048 21.8065 36.7896 21.7897C36.8745 21.7728 36.9625 21.7814 37.0424 21.8146C37.1224 21.8477 37.1907 21.9037 37.2388 21.9757C37.2868 22.0476 37.3125 22.1322 37.3125 22.2188C37.3125 22.3348 37.2664 22.4461 37.1844 22.5281C37.1023 22.6102 36.991 22.6562 36.875 22.6562ZM20.6875 35.125H37.3125V37.3125H20.6875V35.125ZM37.3125 17.625C37.3118 17.0451 37.0811 16.4891 36.671 16.079C36.2609 15.6689 35.7049 15.4382 35.125 15.4375H22.875C22.2951 15.4382 21.7391 15.6689 21.329 16.079C20.9189 16.4891 20.6882 17.0451 20.6875 17.625V19.8125H37.3125V17.625ZM30.75 18.0625H27.25C27.134 18.0625 27.0227 18.0164 26.9406 17.9344C26.8586 17.8523 26.8125 17.741 26.8125 17.625C26.8125 17.509 26.8586 17.3977 26.9406 17.3156C27.0227 17.2336 27.134 17.1875 27.25 17.1875H30.75C30.866 17.1875 30.9773 17.2336 31.0594 17.3156C31.1414 17.3977 31.1875 17.509 31.1875 17.625C31.1875 17.741 31.1414 17.8523 31.0594 17.9344C30.9773 18.0164 30.866 18.0625 30.75 18.0625ZM32.5 18.0625C32.4135 18.0625 32.3289 18.0368 32.2569 17.9888C32.185 17.9407 32.1289 17.8724 32.0958 17.7924C32.0627 17.7125 32.054 17.6245 32.0709 17.5396C32.0878 17.4548 32.1295 17.3768 32.1906 17.3156C32.2518 17.2545 32.3298 17.2128 32.4146 17.1959C32.4995 17.179 32.5875 17.1877 32.6674 17.2208C32.7474 17.2539 32.8157 17.31 32.8638 17.3819C32.9118 17.4539 32.9375 17.5385 32.9375 17.625C32.9375 17.741 32.8914 17.8523 32.8094 17.9344C32.7273 18.0164 32.616 18.0625 32.5 18.0625ZM19.375 33.8125C19.375 33.9285 19.4211 34.0398 19.5031 34.1219C19.5852 34.2039 19.6965 34.25 19.8125 34.25H38.1875C38.3035 34.25 38.4148 34.2039 38.4969 34.1219C38.5789 34.0398 38.625 33.9285 38.625 33.8125V24.625H19.375V33.8125ZM31.9719 27.1218C31.8922 27.0393 31.8481 26.9288 31.8491 26.8141C31.8501 26.6994 31.8961 26.5896 31.9773 26.5085C32.0584 26.4274 32.1681 26.3814 32.2828 26.3804C32.3975 26.3794 32.508 26.4235 32.5906 26.5032L34.7781 28.6907C34.8601 28.7727 34.9062 28.884 34.9062 29C34.9062 29.116 34.8601 29.2273 34.7781 29.3093L32.5906 31.4968C32.508 31.5765 32.3975 31.6206 32.2828 31.6196C32.1681 31.6186 32.0584 31.5726 31.9773 31.4915C31.8961 31.4104 31.8501 31.3006 31.8491 31.1859C31.8481 31.0712 31.8922 30.9607 31.9719 30.8782L33.8501 29L31.9719 27.1218ZM27.2854 31.8901L29.9104 25.7651C29.9572 25.6601 30.0435 25.5778 30.1505 25.5359C30.2575 25.4939 30.3768 25.4958 30.4824 25.5411C30.5881 25.5864 30.6717 25.6715 30.7151 25.7779C30.7585 25.8843 30.7583 26.0036 30.7146 26.1099L28.0896 32.2349C28.0428 32.3399 27.9565 32.4222 27.8495 32.4641C27.7425 32.5061 27.6232 32.5042 27.5176 32.4589C27.4119 32.4136 27.3283 32.3285 27.2849 32.2221C27.2415 32.1157 27.2417 31.9964 27.2854 31.8901ZM23.2219 28.6907L25.4094 26.5032C25.492 26.4235 25.6025 26.3794 25.7172 26.3804C25.8319 26.3814 25.9416 26.4274 26.0227 26.5085C26.1038 26.5896 26.1499 26.6994 26.1509 26.8141C26.1519 26.9288 26.1078 27.0393 26.0281 27.1218L24.1499 29L26.0281 30.8782C26.1078 30.9607 26.1519 31.0712 26.1509 31.1859C26.1499 31.3006 26.1038 31.4104 26.0227 31.4915C25.9416 31.5726 25.8319 31.6186 25.7172 31.6196C25.6025 31.6206 25.492 31.5765 25.4094 31.4968L23.2219 29.3093C23.1399 29.2273 23.0938 29.116 23.0938 29C23.0938 28.884 23.1399 28.7727 23.2219 28.6907Z" fill="#D95D37"/>
</svg>
