<svg width="58" height="58" viewBox="0 0 58 58" fill="none" xmlns="http://www.w3.org/2000/svg">
<circle cx="29" cy="29" r="29" fill="#ECF8F0"/>
<path d="M36.3242 40.7415H32.0549V39.5945H26.9431V40.7415H22.6738C22.2046 40.7415 21.8242 41.1219 21.8242 41.5911C21.8242 42.0603 22.2046 42.4407 22.6738 42.4407H36.3242C36.7934 42.4407 37.1738 42.0603 37.1738 41.5911C37.1738 41.1219 36.7934 40.7415 36.3242 40.7415Z" fill="#11AF00"/>
<path d="M25.2333 27.9478C26.1776 27.9478 26.9432 27.1823 26.9432 26.2379C26.9432 25.2936 26.1776 24.5281 25.2333 24.5281C24.289 24.5281 23.5234 25.2936 23.5234 26.2379C23.5234 27.1823 24.289 27.9478 25.2333 27.9478Z" fill="#11AF00"/>
<path d="M43.1504 18.5596H15.8496C15.3804 18.5596 15 18.94 15 19.4092V33.9163H44V19.4092C44 18.9399 43.6196 18.5596 43.1504 18.5596ZM29.5 27.0875H28.5361C28.4559 27.3978 28.3321 27.6951 28.1684 27.9706L28.8513 28.6534C29.1831 28.9852 29.1831 29.5232 28.8513 29.855C28.6854 30.0209 28.468 30.1038 28.2506 30.1038C28.0332 30.1038 27.8157 30.0209 27.6498 29.855L26.967 29.1721C26.6915 29.3358 26.3942 29.4596 26.0839 29.5398V30.5037C26.0839 30.9729 25.7035 31.3533 25.2343 31.3533C24.7651 31.3533 24.3847 30.9729 24.3847 30.5037V29.5398C24.0744 29.4596 23.7771 29.3358 23.5016 29.1721L22.8187 29.855C22.6528 30.0209 22.4353 30.1038 22.2179 30.1038C22.0006 30.1038 21.7831 30.0209 21.6172 29.855C21.2854 29.5232 21.2854 28.9852 21.6172 28.6534L22.3001 27.9706C22.1364 27.6951 22.0126 27.3978 21.9324 27.0875H20.9685C20.4993 27.0875 20.1189 26.7071 20.1189 26.2379C20.1189 25.7687 20.4993 25.3883 20.9685 25.3883H21.9324C22.0126 25.078 22.1364 24.7807 22.3001 24.5052L21.6172 23.8223C21.2854 23.4905 21.2854 22.9526 21.6172 22.6208C21.949 22.289 22.4869 22.289 22.8187 22.6208L23.5016 23.3037C23.7771 23.14 24.0744 23.0162 24.3847 22.936V21.9721C24.3847 21.5029 24.7651 21.1225 25.2343 21.1225C25.7035 21.1225 26.0839 21.5029 26.0839 21.9721V22.936C26.3942 23.0162 26.6915 23.14 26.967 23.3037L27.6498 22.6208C27.9816 22.289 28.5196 22.289 28.8514 22.6208C29.1832 22.9526 29.1832 23.4905 28.8514 23.8223L28.1685 24.5052C28.3322 24.7807 28.456 25.078 28.5361 25.3883H29.5C29.9692 25.3883 30.3496 25.7687 30.3496 26.2379C30.3496 26.7071 29.9692 27.0875 29.5 27.0875ZM38.0315 30.5001H32.9126C32.4434 30.5001 32.063 30.1197 32.063 29.6505C32.063 29.1813 32.4434 28.8009 32.9126 28.8009H38.0315C38.5007 28.8009 38.8811 29.1813 38.8811 29.6505C38.8811 30.1197 38.5007 30.5001 38.0315 30.5001ZM38.0315 27.0875H32.9126C32.4434 27.0875 32.063 26.7071 32.063 26.2379C32.063 25.7687 32.4434 25.3883 32.9126 25.3883H38.0315C38.5007 25.3883 38.8811 25.7687 38.8811 26.2379C38.8811 26.7071 38.5007 27.0875 38.0315 27.0875ZM38.0315 23.6749H32.9126C32.4434 23.6749 32.063 23.2945 32.063 22.8253C32.063 22.3561 32.4434 21.9757 32.9126 21.9757H38.0315C38.5007 21.9757 38.8811 22.3561 38.8811 22.8253C38.8811 23.2945 38.5007 23.6749 38.0315 23.6749ZM15 37.0456C15 37.5148 15.3804 37.8952 15.8496 37.8952H43.1504C43.6196 37.8952 44 37.5148 44 37.0456V35.6154H15V37.0456Z" fill="#11AF00"/>
</svg>
