<svg width="58" height="58" viewBox="0 0 58 58" fill="none" xmlns="http://www.w3.org/2000/svg">
<circle cx="29" cy="29" r="29" fill="#ECF8F0"/>
<path d="M39.9561 38.146C39.3116 36.2279 36.743 35.0273 34.9116 34.2225C34.1942 33.9082 32.208 33.3751 31.9692 32.4717C31.8838 32.1463 31.8953 31.8394 31.9654 31.5453C31.854 31.5672 31.7407 31.5785 31.6272 31.5789H30.4339C29.976 31.5784 29.5371 31.3963 29.2134 31.0725C28.8896 30.7487 28.7076 30.3097 28.7072 29.8519C28.7072 28.9005 29.4816 28.1271 30.4339 28.1271H31.6272C32.0214 28.1271 32.3952 28.2605 32.6966 28.4986C33.1255 28.4421 33.5489 28.3494 33.9622 28.2215C34.4841 27.1281 34.8912 25.8205 34.9824 24.6951C35.3718 19.8797 32.4198 17.0625 28.1872 17.5495C25.1097 17.9037 23.2713 20.1985 23.0726 23.1527C22.8716 26.1639 23.9881 28.3879 25.174 30.0193C25.6934 30.7325 26.239 31.1911 26.1552 32.0506C26.0579 33.0669 24.9712 33.3501 24.1939 33.6625C23.2729 34.0324 22.2809 34.5937 21.8124 34.8532C20.1987 35.7444 18.4275 36.8176 18.0294 38.2858C17.1478 41.5396 20.1251 42.5252 22.583 42.9802C24.6924 43.3693 27.071 43.4001 29.0275 43.4001C32.5664 43.4001 38.9299 43.2583 39.9561 40.5981C40.248 39.8433 40.1229 38.6404 39.9561 38.146Z" fill="#11AF00"/>
<path d="M32.3837 29.3659C32.302 29.2401 32.1902 29.1366 32.0584 29.065C31.9267 28.9933 31.7791 28.9556 31.6291 28.9553H30.4358C30.3158 28.9521 30.1963 28.973 30.0844 29.0167C29.9726 29.0604 29.8706 29.1261 29.7845 29.2099C29.6985 29.2937 29.6301 29.3939 29.5834 29.5045C29.5367 29.6152 29.5126 29.7341 29.5126 29.8542C29.5126 29.9743 29.5367 30.0932 29.5834 30.2038C29.6301 30.3145 29.6985 30.4146 29.7845 30.4984C29.8706 30.5822 29.9726 30.6479 30.0844 30.6916C30.1963 30.7354 30.3158 30.7563 30.4358 30.7531H31.6291C31.7933 30.7529 31.9542 30.7075 32.0942 30.6217C32.2341 30.5359 32.3477 30.4132 32.4224 30.267C34.0861 30.1361 35.5331 29.6279 36.5488 28.8775C36.7821 29.0279 37.0579 29.1159 37.3555 29.1159H37.4304C37.6275 29.116 37.8228 29.0772 38.0049 29.0017C38.187 28.9262 38.3525 28.8156 38.4918 28.6761C38.6311 28.5366 38.7416 28.371 38.8169 28.1888C38.8922 28.0066 38.9308 27.8113 38.9305 27.6142V24.6164C38.9306 24.3333 38.8503 24.0559 38.6989 23.8167C38.5476 23.5774 38.3314 23.386 38.0755 23.2647C37.8553 18.451 33.8704 14.6001 29.0025 14.6001C24.1347 14.6001 20.1491 18.451 19.9299 23.2647C19.6738 23.3858 19.4575 23.5771 19.306 23.8164C19.1545 24.0557 19.0741 24.3332 19.0742 24.6164V27.6142C19.074 27.8112 19.1125 28.0064 19.1877 28.1885C19.2629 28.3706 19.3733 28.5362 19.5125 28.6756C19.6517 28.8151 19.817 28.9258 19.999 29.0013C20.181 29.0769 20.3761 29.1158 20.5731 29.1159H20.6489C20.8461 29.1159 21.0412 29.077 21.2233 29.0015C21.4054 28.926 21.5708 28.8153 21.7101 28.6759C21.8494 28.5364 21.9598 28.3709 22.0351 28.1887C22.1104 28.0065 22.149 27.8113 22.1488 27.6142V24.6164C22.1486 24.3372 22.0704 24.0637 21.9229 23.8266C21.7754 23.5896 21.5646 23.3985 21.3142 23.275C21.5283 19.219 24.8941 15.986 29.0025 15.986C33.1094 15.986 36.4768 19.219 36.6899 23.275C36.4398 23.3987 36.2292 23.5899 36.0819 23.8269C35.9346 24.0639 35.8565 24.3374 35.8563 24.6164V27.6142C35.8563 27.8132 35.895 27.9985 35.9632 28.1716C35.0889 28.7972 33.8163 29.243 32.3837 29.3659Z" fill="#11AF00"/>
</svg>
