<svg width="38" height="38" viewBox="0 0 38 38" fill="none" xmlns="http://www.w3.org/2000/svg">
<path d="M19 20.5807V3.16406L31.6667 9.4974L19 15.8307" stroke="#141414" stroke-width="2" stroke-linecap="round" stroke-linejoin="round"/>
<path d="M32.5544 16.1883C33.397 18.7852 33.4758 21.5695 32.7815 24.2099C32.0873 26.8503 30.6491 29.2357 28.6381 31.0823C26.6272 32.9288 24.1281 34.1588 21.4382 34.626C18.7483 35.0931 15.9808 34.7777 13.465 33.7173C10.9493 32.6568 8.79104 30.896 7.24718 28.6443C5.70332 26.3925 4.8388 23.7447 4.75648 21.0158C4.67416 18.2869 5.3775 15.5918 6.78282 13.2511C8.18814 10.9104 10.2363 9.02266 12.6836 7.8125" stroke="#141414" stroke-width="2" stroke-linecap="round" stroke-linejoin="round"/>
<path d="M12.6652 15.8281C11.8718 16.8842 11.3553 18.1221 11.1627 19.4289C10.9701 20.7357 11.1076 22.07 11.5626 23.3101C12.0176 24.5502 12.7757 25.6567 13.7678 26.5289C14.7598 27.401 15.9544 28.0111 17.2425 28.3035C18.5307 28.5958 19.8716 28.5612 21.1429 28.2028C22.4143 27.8444 23.5758 27.1735 24.5216 26.2513C25.4673 25.3292 26.1673 24.185 26.5578 22.9231C26.9482 21.6612 27.0166 20.3216 26.7569 19.0265" stroke="#141414" stroke-width="2" stroke-linecap="round" stroke-linejoin="round"/>
</svg>
