<svg width="30" height="30" viewBox="0 0 30 30" fill="none" xmlns="http://www.w3.org/2000/svg">
<g clip-path="url(#clip0_1604_1136)">
<path d="M9.80638 18.4615C9.86698 18.4868 9.93197 18.4999 9.99763 18.5C10.0633 18.5002 10.1284 18.4874 10.1891 18.4625C10.2498 18.4375 10.305 18.4008 10.3516 18.3545C10.3981 18.3081 10.4351 18.2531 10.4604 18.1925L11.1654 16.5H13.8324L14.5374 18.1925C14.6437 18.4474 14.9365 18.5678 15.1914 18.4615C15.4463 18.3552 15.5667 18.0624 15.4604 17.8075L12.9604 11.8075C12.9224 11.7165 12.8583 11.6387 12.7762 11.5839C12.6941 11.5292 12.5976 11.5 12.4989 11.5C12.4002 11.5 12.3038 11.5292 12.2216 11.5839C12.1395 11.6387 12.0754 11.7165 12.0374 11.8075L9.53745 17.8075C9.51217 17.8681 9.49907 17.9331 9.4989 17.9988C9.49874 18.0644 9.5115 18.1295 9.53647 18.1902C9.56145 18.2509 9.59814 18.3061 9.64445 18.3527C9.69076 18.3992 9.74578 18.4362 9.80638 18.4615ZM12.4989 13.3L13.4154 15.5H11.5824L12.4989 13.3Z" fill="#143048"/>
<path fill-rule="evenodd" clip-rule="evenodd" d="M16.4989 17.5C16.2228 17.5 15.9989 17.7239 15.9989 18C15.9989 18.2762 16.2228 18.5 16.4989 18.5H19.4989C19.7751 18.5 19.9989 18.2762 19.9989 18C19.9989 17.7239 19.7751 17.5 19.4989 17.5H18.4989V12.5H19.4989C19.7751 12.5 19.9989 12.2762 19.9989 12C19.9989 11.7238 19.7751 11.5 19.4989 11.5H16.4989C16.2228 11.5 15.9989 11.7238 15.9989 12C15.9989 12.2762 16.2228 12.5 16.4989 12.5H17.4989V17.5H16.4989Z" fill="#143048"/>
<path d="M0.498849 22C0.498849 23.1046 1.3943 24 2.49884 24C2.74936 23.9991 2.99742 23.9505 3.22983 23.857C4.41182 24.762 6.07985 25.234 8.12983 25.234C8.43881 25.234 8.75985 25.2195 9.08531 25.1985C10.5373 28.1655 12.6323 30 14.9988 30C17.3653 30 19.4603 28.1655 20.9128 25.2C21.2388 25.221 21.5593 25.2355 21.8683 25.2355C23.9183 25.2355 25.5863 24.7635 26.7683 23.8585C27.0006 23.9514 27.2485 23.9994 27.4988 24C28.3815 23.9975 29.1583 23.4165 29.41 22.5704C29.6618 21.7243 29.3291 20.8132 28.5913 20.3285C28.6613 18.7185 28.0388 16.8915 26.7718 15C28.0388 13.109 28.6613 11.282 28.5913 9.67147C29.4557 9.11364 29.7543 7.99006 29.281 7.07665C28.8076 6.16323 27.7174 5.75938 26.7633 6.14395C25.4048 5.10446 23.3988 4.64397 20.9133 4.80596C19.4624 1.83652 17.3664 0 14.9989 0C12.6313 0 10.5353 1.83652 9.08285 4.80601C6.59836 4.645 4.59335 5.10599 3.23283 6.14399C2.27927 5.76253 1.19185 6.16697 0.719304 7.07886C0.246754 7.99075 0.543334 9.11241 1.40483 9.67152C1.33584 11.281 1.95882 13.108 3.22584 15C1.95882 16.8915 1.33584 18.7185 1.40636 20.3285C1.12801 20.5097 0.899245 20.7574 0.740783 21.0493C0.582321 21.3411 0.499166 21.6679 0.498849 22ZM1.49887 22C1.49887 21.4477 1.94657 21 2.49889 21C3.0512 21 3.4989 21.4477 3.4989 22C3.4989 22.5523 3.0512 23 2.49889 23C2.23366 23 1.97931 22.8947 1.79177 22.7071C1.60423 22.5196 1.49887 22.2652 1.49887 22ZM9.70337 5.86001C11.0345 6.0194 12.3459 6.31376 13.6174 6.73853C12.7224 7.13795 11.8484 7.58287 10.9989 8.07155C10.1464 8.56358 9.32053 9.1005 8.52488 9.68003C8.78702 8.36999 9.18189 7.09005 9.70337 5.86001ZM21.4724 9.68003C20.6769 9.10042 19.8513 8.5635 18.9988 8.07155C18.1505 7.58345 17.2781 7.13854 16.3848 6.73853C17.655 6.31398 18.9651 6.01962 20.2948 5.86001C20.816 7.09008 21.2105 8.37002 21.4724 9.68003ZM20.2944 24.14C18.9633 23.9806 17.6519 23.6863 16.3803 23.2615C17.2753 22.8621 18.1493 22.4172 18.9988 21.9285C19.8514 21.4365 20.6772 20.8995 21.4729 20.32C21.2107 21.6301 20.8158 22.91 20.2944 24.14ZM18.4989 8.93801C19.6264 9.58691 20.7044 10.3184 21.7239 11.1265C21.9077 12.4095 21.9996 13.704 21.9988 15C21.9998 16.2961 21.9081 17.5906 21.7244 18.8735C20.7047 19.6816 19.6266 20.4131 18.4989 21.062C17.3748 21.7122 16.2051 22.28 14.9989 22.761C13.7926 22.2797 12.6229 21.7116 11.4988 21.061C10.3713 20.4121 9.29337 19.6806 8.27386 18.8725C7.90785 16.3031 7.90785 13.6949 8.27386 11.1255C9.29344 10.3178 10.3714 9.58661 11.4988 8.93796C12.6239 8.28732 13.7946 7.71916 15.0019 7.23795C16.2071 7.7194 17.3758 8.28757 18.4989 8.93801ZM22.8489 12.0715C23.8461 12.9544 24.7519 13.9355 25.5524 15C24.753 16.0644 23.8484 17.0455 22.8524 17.9285C22.9506 16.9555 22.9995 15.978 22.9989 15C22.9992 14.022 22.95 13.0446 22.8514 12.0715H22.8489ZM7.14886 17.9285C6.15134 17.0459 5.24557 16.0648 4.44533 15C5.24473 13.9357 6.14929 12.9546 7.14531 12.0715C6.94863 14.0189 6.94863 15.9811 7.14531 17.9285H7.14886ZM11.0018 21.9285C11.8502 22.4166 12.7226 22.8615 13.6159 23.2615C12.3456 23.6861 11.0356 23.9804 9.70584 24.14C9.18452 22.91 8.78982 21.63 8.52783 20.32C9.32245 20.8995 10.1473 21.4365 10.9988 21.9285H11.0018ZM14.9989 29C13.1209 29 11.4144 27.5105 10.1558 25.0945C11.813 24.8596 13.4378 24.4362 14.9989 23.8325C16.5605 24.4365 18.186 24.8599 19.8438 25.0945C18.5829 27.5105 16.8769 29 14.9989 29ZM27.4989 23C26.9466 23 26.4989 22.5523 26.4989 22C26.4989 21.4477 26.9466 21 27.4989 21C28.0512 21 28.4989 21.4477 28.4989 22C28.4989 22.5523 28.0512 23 27.4989 23ZM27.6039 20.0105C27.5684 20.0105 27.5349 20 27.4988 20C26.3943 20 25.4989 20.8955 25.4989 22C25.5007 22.4471 25.6539 22.8805 25.9334 23.2295C24.8444 23.948 23.2548 24.2895 21.3509 24.218C21.9708 22.6693 22.4102 21.0543 22.6604 19.405C23.9536 18.3636 25.124 17.1783 26.1489 15.872C26.9931 17.0977 27.4953 18.5262 27.6039 20.0105ZM28.4989 8C28.4989 8.55227 28.0512 9.00001 27.4988 9.00001C26.9465 9.00001 26.4988 8.55231 26.4988 8C26.4988 7.44768 26.9465 6.99998 27.4988 6.99998C28.0512 6.99998 28.4989 7.44773 28.4989 8ZM25.9334 6.77052C25.6539 7.11956 25.5008 7.55288 25.4989 8C25.4989 9.10458 26.3943 9.99998 27.4988 9.99998C27.5349 9.99998 27.5683 9.99147 27.6039 9.9895C27.4955 11.4738 26.9932 12.9024 26.1489 14.128C25.1238 12.8217 23.9533 11.6363 22.6599 10.595C22.4093 8.94562 21.9694 7.33062 21.3488 5.78202C23.2544 5.71002 24.8449 6.05001 25.9334 6.77052ZM14.9989 1.00002C16.8769 1.00002 18.5834 2.48951 19.8419 4.90551C18.1856 5.14062 16.5616 5.56403 15.0014 6.16752C13.4397 5.56359 11.8142 5.14018 10.1564 4.90551C11.4149 2.48951 13.1209 1.00002 14.9989 1.00002ZM2.49884 7.00003C3.0511 7.00003 3.49885 7.44773 3.49885 8.00005C3.49885 8.55236 3.05115 9.00006 2.49884 9.00006C1.94652 9.00006 1.49882 8.55236 1.49882 8.00005C1.49882 7.44773 1.94657 7.00003 2.49884 7.00003ZM2.39387 9.9895C2.42935 9.9895 2.46286 9.99998 2.49889 9.99998C3.60347 9.99998 4.49887 9.10453 4.49887 8C4.497 7.55287 4.34386 7.11953 4.06436 6.77052C5.15285 6.05202 6.74234 5.71101 8.64686 5.78202C8.02697 7.33073 7.58757 8.94571 7.33737 10.595C6.04427 11.6363 4.8739 12.8215 3.84888 14.1275C3.00436 12.9022 2.50208 11.4737 2.39387 9.9895ZM3.84888 15.8725C4.87438 17.1785 6.04506 18.3636 7.33836 19.405C7.58882 21.0545 8.02856 22.6697 8.64888 24.2185C6.74589 24.2905 5.15536 23.948 4.06638 23.2295C4.34513 22.8802 4.49755 22.4469 4.49887 22C4.49887 20.8954 3.60342 20 2.49889 20C2.46286 20 2.4294 20.009 2.39387 20.0105C2.50227 18.5263 3.00453 17.0979 3.84888 15.8725Z" fill="#143048"/>
</g>
<defs>
<clipPath id="clip0_1604_1136">
<rect width="30" height="30" fill="white"/>
</clipPath>
</defs>
</svg>
