<svg width="36" height="36" viewBox="0 0 36 36" fill="none" xmlns="http://www.w3.org/2000/svg">
<circle cx="18.0001" cy="18" r="18" fill="#FFE0EB"/>
<path d="M8.93603 10.1461H13.842L15.008 8.9801C15.14 8.8481 15.338 8.8481 15.47 8.9801L15.91 9.4201C16.196 9.2661 16.482 9.1561 16.79 9.0681V8.4301C16.79 8.2541 16.922 8.1001 17.12 8.1001H18.902C19.078 8.1001 19.232 8.2541 19.232 8.4301V9.0461C19.54 9.1341 19.826 9.2441 20.112 9.3981L20.552 8.9581C20.684 8.8261 20.882 8.8261 21.014 8.9581L22.18 10.1241H27.064C27.526 10.1461 27.9 10.5201 27.9 10.9821V12.7201C27.9 13.1821 27.526 13.5561 27.064 13.5561H26.514L20.86 22.2681V23.2141H21.938L23.39 21.7401C23.456 21.6741 23.544 21.6521 23.632 21.6521H24.49C24.644 21.1241 25.128 20.7281 25.7 20.7281C26.404 20.7281 26.954 21.3001 26.954 21.9821C26.954 22.6861 26.382 23.2361 25.7 23.2361C25.128 23.2361 24.622 22.8401 24.49 22.3121H23.764L22.29 23.7861C22.224 23.8521 22.136 23.8741 22.048 23.8741H20.86V25.0621H23.698C23.852 24.5341 24.336 24.1381 24.908 24.1381C25.612 24.1381 26.162 24.7101 26.162 25.3921C26.162 26.0961 25.59 26.6461 24.908 26.6461C24.336 26.6461 23.83 26.2501 23.698 25.7221H20.86V26.4041C20.86 26.5581 20.75 26.6901 20.596 26.7341L15.536 27.9001H15.47C15.404 27.9001 15.316 27.8781 15.272 27.8341C15.184 27.7681 15.14 27.6801 15.14 27.5701V25.7221H12.302C12.148 26.2501 11.664 26.6461 11.092 26.6461C10.388 26.6461 9.83802 26.0741 9.83802 25.3921C9.83802 24.6881 10.41 24.1381 11.092 24.1381C11.664 24.1381 12.17 24.5341 12.302 25.0621H15.14V23.8741H13.93C13.842 23.8741 13.754 23.8301 13.688 23.7861L12.214 22.3121H11.488C11.334 22.8401 10.85 23.2361 10.278 23.2361C9.57402 23.2361 9.02402 22.6641 9.02402 21.9821C9.02402 21.2781 9.59603 20.7281 10.278 20.7281C10.85 20.7281 11.356 21.1241 11.488 21.6521H12.346C12.434 21.6521 12.522 21.6961 12.588 21.7401L14.062 23.2141H15.14V22.2681L9.48602 13.5341H8.93603C8.47403 13.5341 8.10003 13.1601 8.10003 12.6981V10.9601C8.10003 10.5201 8.47403 10.1461 8.93603 10.1461ZM25.7 22.5761C26.03 22.5761 26.294 22.3121 26.294 21.9821C26.294 21.6521 26.03 21.3881 25.7 21.3881C25.37 21.3881 25.106 21.6521 25.106 21.9821C25.106 22.3121 25.37 22.5761 25.7 22.5761ZM24.908 25.9861C25.238 25.9861 25.502 25.7221 25.502 25.3921C25.502 25.0621 25.238 24.7981 24.908 24.7981C24.578 24.7981 24.314 25.0621 24.314 25.3921C24.314 25.7221 24.578 25.9861 24.908 25.9861ZM11.092 24.7761C10.762 24.7761 10.498 25.0401 10.498 25.3701C10.498 25.7001 10.762 25.9641 11.092 25.9641C11.422 25.9641 11.686 25.7001 11.686 25.3701C11.686 25.0621 11.422 24.7761 11.092 24.7761ZM10.3 21.3881C9.97002 21.3881 9.70603 21.6521 9.70603 21.9821C9.70603 22.3121 9.97002 22.5761 10.3 22.5761C10.63 22.5761 10.894 22.3121 10.894 21.9821C10.894 21.6521 10.63 21.3881 10.3 21.3881ZM16.328 11.6421C16.328 11.4661 16.174 11.3121 15.998 11.3121C15.822 11.3121 15.668 11.4661 15.668 11.6421V14.7221C15.668 14.8981 15.822 15.0521 15.998 15.0521C16.174 15.0521 16.328 14.8981 16.328 14.7221V11.6421ZM20.442 14.5901L19.122 11.5101C19.078 11.4001 18.946 11.3121 18.814 11.3121C18.682 11.3121 18.572 11.4001 18.506 11.5101L17.186 14.5901C17.12 14.7661 17.186 14.9421 17.362 15.0301C17.406 15.0521 17.45 15.0521 17.494 15.0521C17.626 15.0521 17.736 14.9861 17.802 14.8541L18.088 14.2161H19.54L19.826 14.8541C19.892 15.0301 20.09 15.0961 20.266 15.0301C20.42 14.9421 20.508 14.7441 20.442 14.5901ZM27.064 12.8741C27.152 12.8741 27.24 12.7861 27.24 12.6981V10.9601C27.24 10.8721 27.152 10.7841 27.064 10.7841H22.158L21.806 11.1361C21.96 11.4221 22.07 11.7081 22.158 12.0161H22.774C22.95 12.0161 23.104 12.1701 23.104 12.3461V12.8741H27.064ZM15.8 27.1521L20.2 26.1401V22.4881H15.8V27.1521ZM15.646 21.8281H20.354L25.744 13.5341H23.148V14.1281C23.148 14.3041 22.994 14.4581 22.818 14.4581H22.18C22.092 14.7661 21.96 15.0521 21.828 15.3381L22.268 15.7781C22.334 15.8441 22.356 15.9321 22.356 16.0201C22.356 16.1081 22.312 16.1961 22.268 16.2621L21.014 17.5161C20.882 17.6481 20.684 17.6481 20.552 17.5161L20.112 17.0761C19.826 17.2301 19.54 17.3401 19.232 17.4281V18.0441C19.232 18.2201 19.078 18.3741 18.902 18.3741H17.12C16.944 18.3741 16.79 18.2201 16.79 18.0441V17.4281C16.482 17.3401 16.196 17.2301 15.91 17.0761L15.47 17.5161C15.338 17.6481 15.14 17.6481 15.008 17.5161L13.754 16.2621C13.622 16.1301 13.622 15.9321 13.754 15.8001L14.194 15.3601C14.04 15.0741 13.93 14.7881 13.842 14.4801H13.226C13.05 14.4801 12.896 14.3261 12.896 14.1501V13.5561H10.3L15.646 21.8281ZM8.76003 12.6981C8.76003 12.7861 8.84802 12.8741 8.93603 12.8741H12.874V12.3461C12.874 12.1701 13.028 12.0161 13.204 12.0161H13.82C13.908 11.7081 14.018 11.4221 14.172 11.1361L13.82 10.7841H8.91402C8.82602 10.7841 8.73803 10.8721 8.73803 10.9601V12.6981H8.76003Z" fill="#FF4785"/>
<path d="M18.792 12.478L19.254 13.534H18.352L18.792 12.478Z" fill="#FF4785"/>
</svg>
