<svg width="36" height="36" viewBox="0 0 36 36" fill="none" xmlns="http://www.w3.org/2000/svg">
<circle cx="18.0001" cy="18" r="18" fill="#EFE7F1"/>
<g clipPath="url(#clip0_1601_1116)">
<path d="M29 17.6445H27.668V15.7109C27.668 13.2232 25.644 11.1992 23.1562 11.1992H18.6445V9.75633C19.3947 9.49027 19.9336 8.77385 19.9336 7.93359C19.9336 6.86741 19.0662 6 18 6C16.9338 6 16.0664 6.86741 16.0664 7.93359C16.0664 8.77385 16.6053 9.49027 17.3555 9.75633V11.1992H12.8438C10.356 11.1992 8.33203 13.2232 8.33203 15.7109V17.6445H7V18.9336H8.33203V20.8672C8.33203 23.3549 10.356 25.3789 12.8438 25.3789H16.0664V28H19.9336V25.3789H23.1562C25.644 25.3789 27.668 23.3549 27.668 20.8672V18.9336H29V17.6445ZM18 7.28906C18.3554 7.28906 18.6445 7.5782 18.6445 7.93359C18.6445 8.28899 18.3554 8.57812 18 8.57812C17.6446 8.57812 17.3555 8.28899 17.3555 7.93359C17.3555 7.5782 17.6446 7.28906 18 7.28906ZM18.6445 26.7109H17.3555V25.3789H18.6445V26.7109ZM26.3789 20.8672C26.3789 22.6442 24.9332 24.0898 23.1562 24.0898H12.8438C11.0668 24.0898 9.62109 22.6442 9.62109 20.8672V15.7109C9.62109 13.934 11.0668 12.4883 12.8438 12.4883H23.1562C24.9332 12.4883 26.3789 13.934 26.3789 15.7109V20.8672Z" fill="#52295B"/>
<path d="M16.0664 17C16.0664 15.9338 15.199 15.0664 14.1328 15.0664C13.0666 15.0664 12.1992 15.9338 12.1992 17C12.1992 18.0662 13.0666 18.9336 14.1328 18.9336C15.199 18.9336 16.0664 18.0662 16.0664 17ZM14.1328 17.6445C13.7774 17.6445 13.4883 17.3554 13.4883 17C13.4883 16.6446 13.7774 16.3555 14.1328 16.3555C14.4882 16.3555 14.7773 16.6446 14.7773 17C14.7773 17.3554 14.4882 17.6445 14.1328 17.6445ZM21.8672 15.0664C20.801 15.0664 19.9336 15.9338 19.9336 17C19.9336 18.0662 20.801 18.9336 21.8672 18.9336C22.9334 18.9336 23.8008 18.0662 23.8008 17C23.8008 15.9338 22.9334 15.0664 21.8672 15.0664ZM21.8672 17.6445C21.5118 17.6445 21.2227 17.3554 21.2227 17C21.2227 16.6446 21.5118 16.3555 21.8672 16.3555C22.2226 16.3555 22.5117 16.6446 22.5117 17C22.5117 17.3554 22.2226 17.6445 21.8672 17.6445ZM18.6445 21.5117H17.3555C16.6447 21.5117 16.0664 20.9334 16.0664 20.2227H14.7773C14.7773 21.6442 15.9339 22.8008 17.3555 22.8008H18.6445C20.0661 22.8008 21.2227 21.6442 21.2227 20.2227H19.9336C19.9336 20.9334 19.3553 21.5117 18.6445 21.5117Z" fill="#52295B"/>
</g>
<defs>
<clipPath id="clip0_1601_1116">
<rect width="22" height="22" fill="white" transform="translate(7 6)"/>
</clipPath>
</defs>
</svg>
