<svg width="36" height="36" viewBox="0 0 36 36" fill="none" xmlns="http://www.w3.org/2000/svg">
<path d="M28.08 10.0801C22.6656 10.0801 19.9929 13.8961 17.4096 17.5868C14.9285 21.1321 12.5856 24.4801 7.92 24.4801C4.34735 24.4801 1.44 21.5727 1.44 18.0001C1.44 14.4274 4.34735 11.5201 7.92 11.5201C11.6525 11.5201 13.8384 13.6628 15.6471 15.9812C15.8904 16.2908 16.3426 16.3513 16.6565 16.1065C16.9703 15.8617 17.0265 15.4081 16.7818 15.0942C14.8478 12.616 12.2818 10.0801 7.92 10.0801C3.55247 10.0801 0 13.634 0 18.0001C0 22.3661 3.55247 25.9201 7.92 25.9201C13.3344 25.9201 16.0071 22.1041 18.5904 18.4134C21.0715 14.8681 23.4144 11.5201 28.08 11.5201C31.6526 11.5201 34.56 14.4274 34.56 18.0001C34.56 21.5727 31.6526 24.4801 28.08 24.4801C24.3475 24.4801 22.1616 22.3374 20.3529 20.019C20.1067 19.7065 19.656 19.6489 19.3435 19.8937C19.0295 20.1385 18.9734 20.5921 19.2182 20.906C21.1521 23.3842 23.7182 25.92 28.0799 25.92C32.4475 25.9201 36 22.3661 36 18.0001C36 13.634 32.4475 10.0801 28.08 10.0801Z" fill="#143048"/>
</svg>
