<svg width="30" height="30" viewBox="0 0 30 30" fill="none" xmlns="http://www.w3.org/2000/svg">
<g clipPath="url(#clip0_1059_1541)">
<path d="M15.0001 7.49999C21.1233 7.49999 27.3215 6.21197 27.3215 3.74999C27.3215 1.28802 21.1233 0 15.0001 0C8.87681 0 2.67861 1.28802 2.67861 3.74999C2.67861 6.21197 8.87687 7.49999 15.0001 7.49999ZM15.0001 1.07143C21.8675 1.07143 26.2501 2.65764 26.2501 3.74999C26.2501 4.84234 21.8675 6.42856 15.0001 6.42856C8.1326 6.42856 3.75009 4.84234 3.75009 3.74999C3.75009 2.65764 8.1326 1.07143 15.0001 1.07143ZM15.0001 30C21.1233 30 27.3215 28.712 27.3215 26.25V18.75C27.3215 18.4542 27.0817 18.2143 26.7858 18.2143C26.49 18.2143 26.2501 18.4542 26.2501 18.75V26.25C26.2501 27.3424 21.8676 28.9286 15.0001 28.9286C8.13265 28.9286 3.75014 27.3424 3.75014 26.25V18.75C3.75014 18.4542 3.51028 18.2143 3.21443 18.2143C2.91858 18.2143 2.67872 18.4542 2.67872 18.75V26.25C2.67866 28.712 8.87687 30 15.0001 30Z" fill="#143048"/>
<path d="M15.0001 22.5001C21.1233 22.5001 27.3215 21.2121 27.3215 18.7501V11.2501C27.3215 10.9542 27.0817 10.7144 26.7858 10.7144C26.49 10.7144 26.2501 10.9542 26.2501 11.2501V18.7501C26.2501 19.8424 21.8676 21.4286 15.0001 21.4286C8.13265 21.4286 3.75015 19.8424 3.75015 18.7501V11.2501C3.75015 10.9542 3.51029 10.7144 3.21443 10.7144C2.91858 10.7144 2.67872 10.9542 2.67872 11.2501V18.7501C2.67867 21.2121 8.87687 22.5001 15.0001 22.5001Z" fill="#143048"/>
<path d="M15.0001 15.0001C21.1233 15.0001 27.3215 13.7121 27.3215 11.2501V3.75007C27.3215 3.45422 27.0817 3.21436 26.7858 3.21436C26.49 3.21436 26.2501 3.45422 26.2501 3.75007V11.2501C26.2501 12.3425 21.8676 13.9286 15.0001 13.9286C8.13265 13.9286 3.75015 12.3424 3.75015 11.2501V3.75007C3.75015 3.45422 3.51029 3.21436 3.21443 3.21436C2.91858 3.21436 2.67872 3.45422 2.67872 3.75007V11.2501C2.67867 13.7121 8.87687 15.0001 15.0001 15.0001Z" fill="#143048"/>
<path d="M5.35735 9.64296C5.06149 9.64296 4.82164 9.40311 4.82164 9.10725C4.82164 8.81138 5.06149 8.57153 5.35735 8.57153C5.65322 8.57153 5.89307 8.81138 5.89307 9.10725C5.89307 9.40311 5.65322 9.64296 5.35735 9.64296Z" fill="#143048"/>
<path d="M5.35735 17.143C5.06149 17.143 4.82164 16.9031 4.82164 16.6072C4.82164 16.3114 5.06149 16.0715 5.35735 16.0715C5.65322 16.0715 5.89307 16.3114 5.89307 16.6072C5.89307 16.9031 5.65322 17.143 5.35735 17.143Z" fill="#143048"/>
<path d="M5.35735 24.643C5.06149 24.643 4.82164 24.4031 4.82164 24.1072C4.82164 23.8114 5.06149 23.5715 5.35735 23.5715C5.65322 23.5715 5.89307 23.8114 5.89307 24.1072C5.89307 24.4031 5.65322 24.643 5.35735 24.643Z" fill="#143048"/>
</g>
<defs>
<clipPath id="clip0_1059_1541">
<rect width="30" height="30" fill="white" transform="matrix(-1 0 0 1 30 0)"/>
</clipPath>
</defs>
</svg>
