<svg width="55" height="55" viewBox="0 0 55 55" fill="none" xmlns="http://www.w3.org/2000/svg">
<circle cx="27.5" cy="27.5" r="27.5" fill="#FFEAF8"/>
<g clip-path="url(#clip0_6_11)">
<path fill-rule="evenodd" clip-rule="evenodd" d="M26.8604 12.5282L39.2725 19.6943V34.0266L26.8604 41.1927L14.4484 34.0266V19.6943L26.8604 12.5282ZM15.841 20.4984V31.0258L24.958 15.2347L15.841 20.4984ZM26.8604 14.725L16.3508 32.9282H37.3701L26.8604 14.725ZM35.9775 34.3209H17.7434L26.8604 39.5846L35.9775 34.3209ZM37.8799 31.0258L28.7628 15.2347L37.8799 20.4984V31.0258Z" fill="#E10098"/>
<path d="M26.8605 16.2655C28.4804 16.2655 29.7936 14.9523 29.7936 13.3323C29.7936 11.7124 28.4804 10.3992 26.8605 10.3992C25.2405 10.3992 23.9273 11.7124 23.9273 13.3323C23.9273 14.9523 25.2405 16.2655 26.8605 16.2655Z" fill="#E10098"/>
<path d="M38.5762 23.0296C40.1962 23.0296 41.5094 21.7164 41.5094 20.0964C41.5094 18.4765 40.1962 17.1633 38.5762 17.1633C36.9563 17.1633 35.6431 18.4765 35.6431 20.0964C35.6431 21.7164 36.9563 23.0296 38.5762 23.0296Z" fill="#E10098"/>
<path d="M38.5762 36.5577C40.1962 36.5577 41.5094 35.2445 41.5094 33.6246C41.5094 32.0046 40.1962 30.6914 38.5762 30.6914C36.9563 30.6914 35.6431 32.0046 35.6431 33.6246C35.6431 35.2445 36.9563 36.5577 38.5762 36.5577Z" fill="#E10098"/>
<path d="M26.8605 43.3218C28.4804 43.3218 29.7936 42.0086 29.7936 40.3887C29.7936 38.7687 28.4804 37.4555 26.8605 37.4555C25.2405 37.4555 23.9273 38.7687 23.9273 40.3887C23.9273 42.0086 25.2405 43.3218 26.8605 43.3218Z" fill="#E10098"/>
<path d="M15.1431 36.5577C16.763 36.5577 18.0762 35.2445 18.0762 33.6246C18.0762 32.0046 16.763 30.6914 15.1431 30.6914C13.5231 30.6914 12.2099 32.0046 12.2099 33.6246C12.2099 35.2445 13.5231 36.5577 15.1431 36.5577Z" fill="#E10098"/>
<path d="M15.1431 23.0296C16.763 23.0296 18.0762 21.7164 18.0762 20.0964C18.0762 18.4765 16.763 17.1633 15.1431 17.1633C13.5231 17.1633 12.2099 18.4765 12.2099 20.0964C12.2099 21.7164 13.5231 23.0296 15.1431 23.0296Z" fill="#E10098"/>
</g>
<defs>
<clipPath id="clip0_6_11">
<rect width="33.2558" height="33.2558" fill="white" transform="translate(10.2325 10.2326)"/>
</clipPath>
</defs>
</svg>
