<svg width="34" height="34" viewBox="0 0 34 34" fill="none" xmlns="http://www.w3.org/2000/svg">
<path d="M18.5938 4.25H15.4062C15.2654 4.25 15.1302 4.19403 15.0306 4.0944C14.931 3.99477 14.875 3.85965 14.875 3.71875C14.875 3.57785 14.931 3.44273 15.0306 3.3431C15.1302 3.24347 15.2654 3.1875 15.4062 3.1875H18.5938C18.7346 3.1875 18.8698 3.24347 18.9694 3.3431C19.069 3.44273 19.125 3.57785 19.125 3.71875C19.125 3.85965 19.069 3.99477 18.9694 4.0944C18.8698 4.19403 18.7346 4.25 18.5938 4.25ZM22.8438 32.9375H11.1562C10.452 32.9367 9.77689 32.6565 9.27893 32.1586C8.78097 31.6606 8.50084 30.9855 8.5 30.2812V12.2188C8.5 12.0779 8.55597 11.9427 8.6556 11.8431C8.75523 11.7435 8.89035 11.6875 9.03125 11.6875C9.17215 11.6875 9.30727 11.7435 9.4069 11.8431C9.50653 11.9427 9.5625 12.0779 9.5625 12.2188V30.2812C9.5625 31.1599 10.2776 31.875 11.1562 31.875H22.8438C23.7224 31.875 24.4375 31.1599 24.4375 30.2812V12.2188C24.4375 12.0779 24.4935 11.9427 24.5931 11.8431C24.6927 11.7435 24.8279 11.6875 24.9688 11.6875C25.1096 11.6875 25.2448 11.7435 25.3444 11.8431C25.444 11.9427 25.5 12.0779 25.5 12.2188V30.2812C25.5 31.7454 24.3089 32.9375 22.8438 32.9375Z" fill="#143048"/>
<path d="M24.9688 15.9375C24.8279 15.9375 24.6927 15.8815 24.5931 15.7819C24.4935 15.6823 24.4375 15.5471 24.4375 15.4062V3.71875C24.4375 2.84006 23.7224 2.125 22.8438 2.125H11.1562C10.2776 2.125 9.5625 2.84006 9.5625 3.71875V15.4062C9.5625 15.5471 9.50653 15.6823 9.4069 15.7819C9.30727 15.8815 9.17215 15.9375 9.03125 15.9375C8.89035 15.9375 8.75523 15.8815 8.6556 15.7819C8.55597 15.6823 8.5 15.5471 8.5 15.4062V3.71875C8.5 2.25462 9.69106 1.0625 11.1562 1.0625H22.8438C24.3089 1.0625 25.5 2.25462 25.5 3.71875V15.4062C25.5 15.5471 25.444 15.6823 25.3444 15.7819C25.2448 15.8815 25.1096 15.9375 24.9688 15.9375ZM28.1562 6.42813C27.863 6.42813 27.625 6.24325 27.625 5.95V5.84375C27.625 5.70285 27.681 5.56773 27.7806 5.4681C27.8802 5.36847 28.0154 5.3125 28.1562 5.3125C28.2971 5.3125 28.4323 5.36847 28.5319 5.4681C28.6315 5.56773 28.6875 5.70285 28.6875 5.84375C28.6875 6.137 28.4495 6.42813 28.1562 6.42813ZM28.1562 8.55313C27.863 8.55313 27.625 8.36825 27.625 8.075V7.96875C27.625 7.82785 27.681 7.69273 27.7806 7.5931C27.8802 7.49347 28.0154 7.4375 28.1562 7.4375C28.2971 7.4375 28.4323 7.49347 28.5319 7.5931C28.6315 7.69273 28.6875 7.82785 28.6875 7.96875C28.6875 8.262 28.4495 8.55313 28.1562 8.55313ZM28.1562 10.6781C27.863 10.6781 27.625 10.4933 27.625 10.2V10.0938C27.625 9.95285 27.681 9.81773 27.7806 9.7181C27.8802 9.61847 28.0154 9.5625 28.1562 9.5625C28.2971 9.5625 28.4323 9.61847 28.5319 9.7181C28.6315 9.81773 28.6875 9.95285 28.6875 10.0938C28.6875 10.387 28.4495 10.6781 28.1562 10.6781ZM5.84375 24.3844C5.5505 24.3844 5.3125 24.1995 5.3125 23.9062V23.8C5.3125 23.6591 5.36847 23.524 5.4681 23.4243C5.56773 23.3247 5.70285 23.2687 5.84375 23.2687C5.98465 23.2687 6.11977 23.3247 6.2194 23.4243C6.31903 23.524 6.375 23.6591 6.375 23.8C6.375 24.0933 6.137 24.3844 5.84375 24.3844ZM5.84375 26.5094C5.5505 26.5094 5.3125 26.3245 5.3125 26.0312V25.925C5.3125 25.7841 5.36847 25.649 5.4681 25.5493C5.56773 25.4497 5.70285 25.3937 5.84375 25.3937C5.98465 25.3937 6.11977 25.4497 6.2194 25.5493C6.31903 25.649 6.375 25.7841 6.375 25.925C6.375 26.2183 6.137 26.5094 5.84375 26.5094ZM5.84375 28.6344C5.5505 28.6344 5.3125 28.4495 5.3125 28.1562V28.05C5.3125 27.9091 5.36847 27.774 5.4681 27.6743C5.56773 27.5747 5.70285 27.5187 5.84375 27.5187C5.98465 27.5187 6.11977 27.5747 6.2194 27.6743C6.31903 27.774 6.375 27.9091 6.375 28.05C6.375 28.3433 6.137 28.6344 5.84375 28.6344Z" fill="#143048"/>
<path d="M26.3936 28.6875C26.3143 28.6875 26.2361 28.6698 26.1645 28.6357C26.093 28.6015 26.0301 28.5518 25.9802 28.4902C25.9304 28.4286 25.895 28.3566 25.8766 28.2795C25.8583 28.2024 25.8574 28.1222 25.874 28.0447L26.2246 26.4191C26.2455 26.3214 26.2937 26.2317 26.3634 26.1603C26.4332 26.0888 26.5217 26.0386 26.6188 26.0153C27.1315 25.8896 27.6215 25.6849 28.0712 25.4086C28.1561 25.3569 28.2537 25.3299 28.353 25.3309C28.4524 25.3318 28.5495 25.3606 28.6333 25.4139L29.6852 26.0865L30.3365 25.4299L29.6639 24.3865C29.61 24.3026 29.5806 24.2052 29.5793 24.1055C29.578 24.0057 29.6047 23.9076 29.6565 23.8223C29.9329 23.3727 30.1373 22.8827 30.2621 22.3699C30.2855 22.2731 30.3355 22.1847 30.4065 22.1149C30.4775 22.045 30.5666 21.9964 30.6638 21.9746L31.875 21.7058V20.7953L30.6648 20.5264C30.5676 20.5046 30.4785 20.456 30.4075 20.3862C30.3366 20.3163 30.2866 20.228 30.2632 20.1312C30.1379 19.6186 29.9335 19.1286 29.6576 18.6788C29.6054 18.5938 29.5783 18.4959 29.5794 18.3963C29.5805 18.2966 29.6098 18.1993 29.6639 18.1156L30.3376 17.0627L29.6873 16.4124L28.6344 17.0861C28.5506 17.1397 28.4535 17.1686 28.3541 17.1695C28.2547 17.1705 28.157 17.1434 28.0723 17.0914C27.6224 16.8154 27.1324 16.6108 26.6199 16.4847C26.5228 16.4614 26.4342 16.4112 26.3645 16.3397C26.2947 16.2683 26.2466 16.1786 26.2257 16.0809L25.9643 14.875H25.5C25.3591 14.875 25.224 14.819 25.1243 14.7194C25.0247 14.6198 24.9688 14.4846 24.9688 14.3438C24.9688 14.2029 25.0247 14.0677 25.1243 13.9681C25.224 13.8685 25.3591 13.8125 25.5 13.8125H26.3925C26.5139 13.8127 26.6315 13.8545 26.7258 13.9308C26.8202 14.0072 26.8855 14.1135 26.911 14.2322L27.1947 15.5423C27.5836 15.6602 27.965 15.8196 28.3326 16.0183L29.4737 15.2883C29.5758 15.2231 29.6971 15.1947 29.8174 15.2079C29.9378 15.221 30.0501 15.2749 30.1357 15.3606L31.3905 16.6143C31.476 16.7 31.5297 16.8124 31.5426 16.9327C31.5556 17.0531 31.527 17.1743 31.4617 17.2763L30.7317 18.4174C30.9304 18.7861 31.0898 19.1675 31.2077 19.5574L32.5199 19.8486C32.7643 19.9027 32.9375 20.1195 32.9375 20.3681V22.1319C32.9375 22.2528 32.8962 22.3701 32.8204 22.4644C32.7447 22.5586 32.6391 22.6243 32.521 22.6504L31.2088 22.9415C31.0889 23.3362 30.9294 23.7178 30.7328 24.0805L31.4617 25.211C31.5277 25.3126 31.5568 25.4337 31.5443 25.5542C31.5317 25.6747 31.4782 25.7872 31.3926 25.8729L30.1378 27.1373C30.0522 27.2232 29.9398 27.2774 29.8192 27.2907C29.6986 27.304 29.5771 27.2758 29.4748 27.2106L28.3337 26.4807C27.9712 26.6769 27.59 26.8364 27.1958 26.9567L26.9121 28.2668C26.8866 28.3855 26.8213 28.492 26.727 28.5685C26.6327 28.6451 26.515 28.687 26.3936 28.6875Z" fill="#143048"/>
<path d="M26.9779 23.989C26.8642 23.9888 26.7535 23.9521 26.6621 23.8842C26.5708 23.8164 26.5036 23.721 26.4706 23.6122C26.4375 23.5033 26.4402 23.3867 26.4784 23.2796C26.5166 23.1724 26.5881 23.0803 26.6826 23.0168C27.0903 22.742 27.3903 22.3344 27.5314 21.8634C27.6726 21.3923 27.6461 20.8869 27.4567 20.4332C27.2672 19.9794 26.9263 19.6053 26.4921 19.3745C26.0579 19.1438 25.5571 19.0706 25.075 19.1674C25.0066 19.1814 24.9362 19.1818 24.8676 19.1686C24.7991 19.1554 24.7339 19.1288 24.6756 19.0904C24.6173 19.052 24.5672 19.0024 24.5281 18.9446C24.489 18.8868 24.4616 18.8219 24.4476 18.7535C24.4336 18.6852 24.4332 18.6147 24.4464 18.5462C24.4596 18.4776 24.4862 18.4124 24.5246 18.3541C24.563 18.2959 24.6125 18.2457 24.6703 18.2066C24.7281 18.1675 24.7931 18.1402 24.8614 18.1261C25.3246 18.0322 25.8028 18.0423 26.2616 18.1557C26.7204 18.2691 27.1482 18.483 27.5143 18.7818C27.8804 19.0807 28.1755 19.4571 28.3784 19.8839C28.5813 20.3108 28.6869 20.7773 28.6875 21.2499C28.6876 21.7736 28.5586 22.2893 28.312 22.7513C28.0653 23.2133 27.7086 23.6074 27.2733 23.8987C27.186 23.9574 27.0832 23.9889 26.9779 23.989ZM8.50001 15.9374C7.81515 15.9383 7.14823 15.7185 6.59807 15.3107C6.04792 14.9028 5.64381 14.3285 5.44564 13.673C5.24747 13.0174 5.26579 12.3155 5.49787 11.6711C5.72995 11.0268 6.16346 10.4744 6.73413 10.0958C6.85136 10.0226 6.99249 9.99794 7.12758 10.0271C7.26267 10.0563 7.38107 10.1369 7.45767 10.2519C7.53426 10.367 7.56302 10.5073 7.53783 10.6432C7.51264 10.7791 7.43549 10.8998 7.32276 10.9798C6.91498 11.2535 6.61449 11.6599 6.4723 12.13C6.33011 12.6001 6.35497 13.1049 6.54267 13.5588C6.73037 14.0126 7.06933 14.3875 7.50203 14.6199C7.93473 14.8522 8.4345 14.9277 8.91651 14.8334C9.05468 14.8062 9.19802 14.8347 9.31526 14.9127C9.4325 14.9907 9.51412 15.112 9.54232 15.2499C9.5561 15.3183 9.55624 15.3887 9.54276 15.4572C9.52927 15.5256 9.50241 15.5907 9.46372 15.6487C9.42503 15.7068 9.37526 15.7566 9.31728 15.7954C9.2593 15.8342 9.19423 15.8611 9.12582 15.8747C8.91986 15.9166 8.71019 15.9376 8.50001 15.9374Z" fill="#143048"/>
<path d="M8.5 20.1876H7.6075C7.48614 20.1874 7.3685 20.1456 7.27417 20.0693C7.17983 19.9929 7.11449 19.8866 7.089 19.7679L6.80531 18.4578C6.411 18.3377 6.02977 18.1783 5.66738 17.9818L4.52625 18.7118C4.4242 18.777 4.30294 18.8054 4.18256 18.7922C4.06217 18.7791 3.94989 18.7252 3.86431 18.6395L2.6095 17.3858C2.52398 17.3001 2.4703 17.1877 2.45736 17.0673C2.44441 16.947 2.47297 16.8258 2.53831 16.7238L3.26825 15.5827C3.07182 15.2196 2.91235 14.8377 2.79225 14.4427L1.48006 14.1515C1.36171 14.1254 1.25582 14.0597 1.17989 13.9652C1.10397 13.8707 1.06255 13.7532 1.0625 13.632V11.8682C1.06255 11.7473 1.10385 11.63 1.17958 11.5357C1.25531 11.4415 1.36093 11.3758 1.479 11.3497L2.79119 11.0586C2.90913 10.6687 3.0685 10.2872 3.26719 9.91959L2.53938 8.78803C2.47338 8.68646 2.44424 8.56532 2.45681 8.44484C2.46938 8.32437 2.5229 8.21186 2.60844 8.12609L3.86325 6.86172C3.94856 6.77526 4.06102 6.72078 4.18174 6.70743C4.30247 6.69408 4.42411 6.72267 4.52625 6.78841L5.66738 7.51834C6.02986 7.32212 6.41107 7.16265 6.80531 7.04234L7.089 5.73228C7.10187 5.66231 7.12866 5.59564 7.16778 5.53622C7.20691 5.4768 7.25757 5.42584 7.31676 5.38637C7.37595 5.34691 7.44246 5.31973 7.51235 5.30645C7.58225 5.29317 7.6541 5.29407 7.72363 5.30909C7.79317 5.32411 7.85899 5.35294 7.91717 5.39388C7.97536 5.43481 8.02473 5.48702 8.06236 5.5474C8.09998 5.60778 8.1251 5.6751 8.13621 5.74537C8.14733 5.81564 8.14422 5.88742 8.12706 5.95647L7.77644 7.58209C7.75552 7.67973 7.70741 7.76945 7.63766 7.8409C7.5679 7.91234 7.47936 7.96259 7.38225 7.98584C6.86931 8.11173 6.37898 8.31639 5.92875 8.59253C5.84394 8.64429 5.74631 8.67124 5.64696 8.6703C5.5476 8.66936 5.4505 8.64058 5.36669 8.58722L4.31481 7.91466L3.66244 8.57128L4.335 9.61466C4.38946 9.69837 4.41907 9.79581 4.42039 9.89567C4.42171 9.99554 4.39468 10.0937 4.34244 10.1788C4.06602 10.6284 3.86167 11.1185 3.73681 11.6313C3.71344 11.7281 3.66344 11.8164 3.59246 11.8863C3.52148 11.9561 3.43236 12.0047 3.33519 12.0265L2.125 12.2943V13.2048L3.33519 13.4737C3.43236 13.4955 3.52148 13.5441 3.59246 13.6139C3.66344 13.6838 3.71344 13.7721 3.73681 13.8689C3.85687 14.3704 4.06194 14.8592 4.34244 15.3213C4.44869 15.4945 4.44656 15.7134 4.33606 15.8845L3.66244 16.9363L4.31269 17.5866L5.36563 16.913C5.44953 16.8598 5.5466 16.8312 5.6459 16.8303C5.7452 16.8293 5.84279 16.8561 5.92769 16.9077C6.39094 17.1892 6.87969 17.3932 7.38013 17.5143C7.47723 17.5376 7.56578 17.5878 7.63553 17.6593C7.70528 17.7307 7.7534 17.8205 7.77431 17.9181L8.03569 19.1251H8.5C8.6409 19.1251 8.77602 19.1811 8.87565 19.2807C8.97528 19.3803 9.03125 19.5154 9.03125 19.6563C9.03125 19.7972 8.97528 19.9324 8.87565 20.032C8.77602 20.1316 8.6409 20.1876 8.5 20.1876ZM16.4688 19.6563C16.388 19.6565 16.3082 19.6383 16.2356 19.6029C16.163 19.5676 16.0994 19.5161 16.0497 19.4525C16 19.3888 15.9655 19.3147 15.9488 19.2357C15.9321 19.1566 15.9337 19.0748 15.9534 18.9965L17.0159 14.7465C17.0323 14.6786 17.0621 14.6146 17.1034 14.5582C17.1448 14.5019 17.197 14.4543 17.2569 14.4183C17.3168 14.3823 17.3833 14.3586 17.4525 14.3486C17.5216 14.3385 17.5921 14.3423 17.6598 14.3598C17.7275 14.3766 17.7913 14.4065 17.8474 14.448C17.9036 14.4895 17.9509 14.5416 17.9869 14.6014C18.0228 14.6612 18.0466 14.7276 18.0568 14.7966C18.0671 14.8656 18.0636 14.936 18.0466 15.0037L16.9841 19.2537C16.9557 19.3688 16.8895 19.4711 16.7961 19.5441C16.7026 19.6172 16.5873 19.6567 16.4688 19.6563ZM19.6562 19.6563C19.5513 19.6563 19.4486 19.6252 19.3613 19.5669C19.274 19.5086 19.2059 19.4257 19.1657 19.3287C19.1254 19.2318 19.1148 19.125 19.1352 19.022C19.1556 18.919 19.206 18.8244 19.2801 18.75L21.0301 17.0001L19.2812 15.2512C19.1844 15.151 19.1309 15.0168 19.1321 14.8775C19.1333 14.7382 19.1892 14.605 19.2877 14.5065C19.3862 14.408 19.5194 14.3521 19.6587 14.3509C19.798 14.3497 19.9322 14.4033 20.0324 14.5L22.1574 16.625C22.257 16.7247 22.3129 16.8598 22.3129 17.0006C22.3129 17.1415 22.257 17.2766 22.1574 17.3762L20.0324 19.5012C19.9324 19.6006 19.7972 19.6564 19.6562 19.6563ZM14.3438 19.6563C14.2028 19.6564 14.0676 19.6006 13.9676 19.5012L11.8426 17.3762C11.743 17.2766 11.6871 17.1415 11.6871 17.0006C11.6871 16.8598 11.743 16.7247 11.8426 16.625L13.9676 14.5C14.0678 14.4033 14.202 14.3497 14.3413 14.3509C14.4806 14.3521 14.6138 14.408 14.7123 14.5065C14.8108 14.605 14.8667 14.7382 14.8679 14.8775C14.8691 15.0168 14.8156 15.151 14.7188 15.2512L12.9699 17.0001L14.7188 18.749C14.7932 18.8232 14.844 18.9179 14.8646 19.0209C14.8852 19.124 14.8748 19.2309 14.8346 19.328C14.7944 19.4252 14.7264 19.5082 14.639 19.5667C14.5516 19.6251 14.4489 19.6563 14.3438 19.6563Z" fill="#143048"/>
</svg>
