<svg width="36" height="36" viewBox="0 0 36 36" fill="none" xmlns="http://www.w3.org/2000/svg">
<circle cx="18" cy="18" r="18" fill="#E7F8E3"/>
<g clipPath="url(#clip0_1059_1450)">
<path d="M17.3498 19.044V15.6641L14.4227 13.9741L11.4956 15.6641V19.044L14.4227 20.734L17.3498 19.044Z" fill="#3B8739"/>
<path d="M28.8776 18.531L30.7851 19.6326L28.8776 20.7341L25.9507 19.0441V15.6641L28.8776 13.9741L30.6514 14.9987C30.8315 15.7597 30.9421 16.5355 30.982 17.3164L29.8974 17.9426V16.7652L28.8776 16.1767L27.8577 16.7652V17.9426L28.8776 18.531Z" fill="#333333"/>
<path d="M29.4458 17.6819V17.0258L28.8776 16.6978L28.3093 17.0258V17.6819L28.8776 18.01L29.4458 17.6819Z" fill="#66A060"/>
<path d="M10.113 15.6642V20.1213L8.16083 19.0076V16.7228L7.18613 16.1597L6.21139 16.7227V19.0075L5.10293 19.64C5.03426 19.096 4.99988 18.5482 5 17.9999C5 16.9822 5.11675 15.9916 5.338 15.0412L7.18613 13.9741L10.113 15.6642Z" fill="#333333"/>
<path d="M14.4224 13.9739L17.3494 19.0437L14.4224 20.7336L11.4953 15.6638L14.4224 13.9739Z" fill="#6DA75D"/>
<path d="M11.4956 19.044L12.5007 17.405L11.4956 15.6641V19.044Z" fill="#55A344"/>
<path d="M16.3739 17.3539L17.3497 15.6641L14.4226 13.9741L16.3739 17.3539Z" fill="#639D57"/>
<path d="M22.5982 10.0566V14.5408L21.6171 13.9741L18.6897 15.6641V19.0441L21.6171 20.7341L24.544 19.0441V11.0982L22.5982 10.0566ZM22.5928 17.9171L21.617 18.4806L20.6412 17.9171V16.7906L21.617 16.2271L22.5928 16.7906V17.9171Z" fill="#333333"/>
<path d="M19.3278 23.2159C19.3278 23.2159 19.2703 22.7218 18.7419 22.7218C18.2133 22.7218 17.8515 22.7907 17.8515 23.0837C17.8515 23.3767 18.8798 23.3767 19.2704 23.4916C19.6611 23.6065 20.0058 23.9052 19.8334 24.4338C19.661 24.9623 19.1325 25.0197 18.3168 25.0197C17.501 25.0197 17.3171 24.3418 17.3171 24.0776H17.7767C17.7767 24.0776 17.7192 24.4912 18.2592 24.5601C18.7992 24.629 19.3156 24.6678 19.3852 24.2499C19.4771 23.6984 17.6388 23.9742 17.4779 23.4342C17.342 22.9779 17.4204 22.3772 18.3396 22.2852C19.2588 22.1932 19.7643 22.5991 19.7643 23.2044L19.3278 23.2159Z" fill="#66A060"/>
<path d="M14.8882 25.3697L15.9043 25.9563C16.4148 26.251 17.0529 25.8826 17.0529 25.2932V22.3735H16.6388V25.178C16.6388 25.4999 16.2903 25.7011 16.0115 25.5401L15.3023 25.1307V22.1377L17.8943 20.6413L20.4864 22.1377V25.1307L17.8943 26.6271L17.1476 26.196L16.66 26.3926L17.8943 27.1052L20.9004 25.3696V21.8986L17.8943 20.1631L14.8882 21.8987V25.3697H14.8882Z" fill="#66A060"/>
</g>
<defs>
<clipPath id="clip0_1059_1450">
<rect width="26" height="26" fill="white" transform="translate(5 5)"/>
</clipPath>
</defs>
</svg>
