<svg width="36" height="36" viewBox="0 0 36 36" fill="none" xmlns="http://www.w3.org/2000/svg">
<circle cx="18" cy="18" r="18" fill="#DEF2F4"/>
<g clipPath="url(#clip0_1059_1400)">
<path d="M28.3512 21.4803C28.0687 20.4015 27.2981 19.22 26.1936 18.0127C27.2981 16.8055 28.0687 15.5983 28.3512 14.5451C28.5824 13.6718 28.5053 12.8755 28.1457 12.2334C27.221 10.6409 24.858 10.4097 22.1095 11.0005C21.2363 8.3292 19.8749 6.42847 17.9999 6.42847C16.2789 6.42847 14.8148 8.17512 13.8901 11.0005C13.5562 10.9235 13.248 10.8721 12.9141 10.8207C10.3969 10.4611 8.57319 10.9492 7.85402 12.2335C7.49443 12.8756 7.41734 13.6719 7.64851 14.5452C7.93106 15.624 8.70161 16.8055 9.80613 18.0128C8.70166 19.22 7.93106 20.4272 7.64851 21.4803C7.41734 22.3536 7.49438 23.1499 7.85402 23.792C8.44477 24.7938 9.67771 25.3075 11.3987 25.3075C11.861 25.3075 12.3747 25.2561 12.9141 25.1791C13.2223 25.1277 13.5562 25.0763 13.8901 24.9993C14.7892 27.8247 16.2789 29.5713 17.9999 29.5713C19.8749 29.5713 21.2363 27.6706 22.0839 24.9993C22.9829 25.2048 23.8305 25.3075 24.6267 25.3075C26.2449 25.3075 27.5035 24.8451 28.1457 23.7663C28.5053 23.1499 28.5824 22.3536 28.3512 21.4803ZM24.6268 12.2334C25.7313 12.2334 26.5275 12.516 26.8358 13.0297C26.9899 13.3122 27.0156 13.6975 26.8872 14.1599C26.6816 14.9047 26.0909 15.8808 25.1405 16.9596C24.4984 16.3689 23.7535 15.778 22.9572 15.213C22.8545 14.2883 22.7004 13.3636 22.5205 12.516C23.2911 12.3105 24.0103 12.2334 24.6268 12.2334ZM19.7722 21.0436C19.1814 21.3775 18.565 21.6858 17.9999 21.9683C17.3987 21.6804 16.8076 21.3719 16.2275 21.0436C15.6111 20.7097 15.0717 20.3501 14.5323 19.9905C14.4809 19.3484 14.4552 18.6805 14.4552 18.0127C14.4552 17.3449 14.4809 16.6771 14.5323 16.0349C15.0716 15.6753 15.6111 15.3414 16.2275 14.9818C16.8076 14.6535 17.3987 14.3451 17.9999 14.0571C18.601 14.3451 19.1921 14.6535 19.7722 14.9818C20.3886 15.3157 20.928 15.6753 21.4675 16.0349C21.5188 16.677 21.5445 17.3449 21.5445 18.0127C21.5445 18.6805 21.5188 19.3483 21.4675 19.9905C20.9537 20.3501 20.3886 20.7097 19.7722 21.0436ZM21.2363 21.9683C21.1592 22.3793 21.0822 22.7646 21.0051 23.1499C20.6198 23.0215 20.2346 22.8931 19.8493 22.7389L20.5428 22.3536C20.7739 22.2509 21.0051 22.0968 21.2363 21.9683ZM16.1505 22.7646C15.7652 22.9187 15.38 23.0472 14.9947 23.1499C14.9176 22.7646 14.8405 22.3794 14.7635 21.9683C14.9947 22.0968 15.2258 22.2509 15.457 22.3793L16.1505 22.7646ZM12.9141 18.809C12.5802 18.5264 12.272 18.2696 11.9637 18.0127C12.2462 17.7559 12.5802 17.4733 12.9141 17.2164V18.809ZM14.7635 14.0571C14.8405 13.6461 14.9176 13.2608 14.9947 12.8755C15.38 12.9783 15.7395 13.1324 16.1505 13.2608L15.457 13.6461C15.2258 13.7746 14.9947 13.9287 14.7635 14.0571ZM19.8493 13.2608C20.2346 13.1067 20.6455 12.9783 21.0051 12.8499C21.0822 13.2352 21.1592 13.6204 21.2363 14.0314C21.0051 13.903 20.7739 13.7489 20.5428 13.6205C20.3116 13.5177 20.0804 13.3893 19.8493 13.2608ZM23.06 17.2165C23.3939 17.499 23.7021 17.7559 24.0104 18.0128C23.7278 18.2696 23.3939 18.5521 23.06 18.809C23.06 18.5265 23.0856 18.2696 23.0856 18.0128C23.0856 17.7559 23.0856 17.4733 23.06 17.2165ZM15.6625 10.6666C16.3303 8.97133 17.2036 7.96961 17.9999 7.96961C18.7961 7.96961 19.6694 8.97138 20.3373 10.6409C20.44 10.8721 20.5171 11.129 20.6198 11.3858C19.7722 11.6427 18.8989 11.9766 18.0256 12.3619C17.1523 11.9766 16.2533 11.6427 15.4056 11.3858C15.4827 11.1289 15.5598 10.8978 15.6625 10.6666ZM9.18966 13.004C9.47221 12.4903 10.2685 12.2335 11.3473 12.2335C11.9637 12.2335 12.6829 12.3105 13.4792 12.4903C13.2994 13.3379 13.1453 14.237 13.0425 15.1873C12.2872 15.7234 11.5666 16.3068 10.8849 16.9339C9.90883 15.8809 9.34374 14.9048 9.13823 14.1342C9.00987 13.6719 9.03558 13.2866 9.18966 13.004ZM9.18966 23.0214C9.03553 22.7389 9.00987 22.3536 9.13828 21.8913C9.34379 21.1464 9.93454 20.1703 10.8849 19.0915C11.5271 19.6823 12.272 20.2731 13.0426 20.8382C13.1453 21.7886 13.2737 22.6875 13.4792 23.5352C11.2702 23.9975 9.652 23.8177 9.18966 23.0214ZM20.3373 25.3845C19.6694 27.0541 18.7961 28.0558 17.9999 28.0558C17.2036 28.0558 16.3303 27.0541 15.6625 25.3588C15.5597 25.1277 15.4827 24.8708 15.4056 24.614C16.2533 24.3571 17.1266 24.0232 18.0256 23.6379C18.8989 24.0232 19.7722 24.3571 20.6198 24.614C20.5171 24.8965 20.44 25.1277 20.3373 25.3845ZM26.8101 23.0214C26.3477 23.8177 24.7295 24.0232 22.4949 23.5608C22.7004 22.6875 22.8288 21.7885 22.9316 20.8638C23.7278 20.2987 24.447 19.708 25.1148 19.1172C26.0909 20.1703 26.656 21.1463 26.8615 21.9169C26.9899 22.3536 26.9642 22.7389 26.8101 23.0214Z" fill="#4DCFE0"/>
<path d="M17.9999 15.7009C16.7157 15.7009 15.6882 16.7284 15.6882 18.0126C15.6882 19.2969 16.7157 20.3243 17.9999 20.3243C19.2842 20.3243 20.3116 19.2969 20.3116 18.0126C20.3116 16.7284 19.2842 15.7009 17.9999 15.7009Z" fill="#D4E1F4"/>
</g>
<defs>
<clipPath id="clip0_1059_1400">
<rect width="23.1429" height="23.1429" fill="white" transform="translate(6.42847 6.42847)"/>
</clipPath>
</defs>
</svg>
