<svg width="50" height="50" viewBox="0 0 50 50" fill="none" xmlns="http://www.w3.org/2000/svg">
<circle cx="25" cy="25" r="25" fill="#E3F4F8"/>
<rect width="32" height="30" transform="translate(9 10)" fill="#E3F4F8"/>
<path d="M24.9995 16C20.7336 16 18.0658 18.0002 16.9998 21.9997C18.5997 20.0004 20.4657 19.2497 22.5996 19.751C23.8179 20.0354 24.6865 20.8631 25.65 21.7792C27.218 23.2719 29.0342 25 33.0002 25C37.2671 25 39.934 22.9998 41 19.0003C39.401 21.0005 37.5341 21.7503 35.4002 21.2499C34.1837 20.9655 33.3133 20.1369 32.3497 19.2199C30.7817 17.7281 28.9656 16 24.9995 16ZM16.9998 25C12.7329 25 10.066 27.0002 9 30.9997C10.599 28.9995 12.4659 28.2497 14.5998 28.7501C15.8163 29.0345 16.6867 29.8631 17.6503 30.7801C19.2183 32.2719 21.0344 34 24.9995 34C29.2673 34 31.9342 31.9998 33.0002 28.0003C31.4003 30.0005 29.5334 30.7503 27.4004 30.2499C26.183 29.9646 25.3135 29.1369 24.35 28.2199C22.781 26.7281 20.9667 25 16.9998 25Z" fill="#38BDF8"/>
</svg>
