<svg width="32" height="32" viewBox="0 0 32 32" fill="none" xmlns="http://www.w3.org/2000/svg">
<g clip-path="url(#clip0_9359_467)">
<path d="M5.33203 6.66675H7.9987" stroke="#141414" stroke-width="1.5" stroke-linecap="round" stroke-linejoin="round"/>
<path d="M6.66797 5.33325V7.99992" stroke="#141414" stroke-width="1.5" stroke-linecap="round" stroke-linejoin="round"/>
<path d="M15.3346 5.33325L14.668 7.99992" stroke="#141414" stroke-width="1.5" stroke-linecap="round" stroke-linejoin="round"/>
<path d="M24 6.66675H26.6667" stroke="#141414" stroke-width="1.5" stroke-linecap="round" stroke-linejoin="round"/>
<path d="M25.332 5.33325V7.99992" stroke="#141414" stroke-width="1.5" stroke-linecap="round" stroke-linejoin="round"/>
<path d="M20.0013 12L18.668 13.3333" stroke="#141414" stroke-width="1.5" stroke-linecap="round" stroke-linejoin="round"/>
<path d="M24 17.3334L26.6667 16.6667" stroke="#141414" stroke-width="1.5" stroke-linecap="round" stroke-linejoin="round"/>
<path d="M24 25.3333H26.6667" stroke="#141414" stroke-width="1.5" stroke-linecap="round" stroke-linejoin="round"/>
<path d="M25.332 24V26.6667" stroke="#141414" stroke-width="1.5" stroke-linecap="round" stroke-linejoin="round"/>
<path d="M18.6651 22.0239L9.97444 13.3333L4.1211 26.1066C4.00541 26.3546 3.96883 26.6322 4.01633 26.9017C4.06383 27.1712 4.19311 27.4196 4.38662 27.6131C4.58013 27.8066 4.82849 27.9359 5.098 27.9834C5.3675 28.0309 5.6451 27.9943 5.8931 27.8786L18.6651 22.0239Z" stroke="#141414" stroke-width="1.5" stroke-linecap="round" stroke-linejoin="round"/>
</g>
<defs>
<clipPath id="clip0_9359_467">
<rect width="32" height="32" fill="white"/>
</clipPath>
</defs>
</svg>
