<svg width="98" height="87" viewBox="0 0 98 87" fill="none" xmlns="http://www.w3.org/2000/svg">
<path d="M6.36699 1.94526C6.8711 1.07975 7.12316 0.646998 7.5 0.646998C7.87684 0.646998 8.1289 1.07975 8.63301 1.94526L9.63381 3.66352C9.77706 3.90948 9.84869 4.03245 9.96037 4.11359C10.0721 4.19473 10.2111 4.22485 10.4893 4.28509L12.4327 4.70593C13.4117 4.91792 13.9011 5.02391 14.0176 5.38231C14.134 5.7407 13.8004 6.11415 13.133 6.86105L11.8081 8.34384C11.6184 8.55608 11.5236 8.6622 11.481 8.79349C11.4383 8.92478 11.4526 9.06637 11.4813 9.34955L11.6816 11.3279C11.7825 12.3244 11.833 12.8227 11.5281 13.0442C11.2232 13.2657 10.7649 13.0637 9.84836 12.6598L8.02874 11.858C7.76827 11.7432 7.63804 11.6858 7.5 11.6858C7.36196 11.6858 7.23173 11.7432 6.97126 11.858L5.15164 12.6598C4.23506 13.0637 3.77678 13.2657 3.47191 13.0442C3.16703 12.8227 3.21748 12.3244 3.31838 11.3279L3.51869 9.34955C3.54736 9.06637 3.5617 8.92478 3.51904 8.79349C3.47638 8.6622 3.38156 8.55608 3.19191 8.34384L1.86701 6.86105C1.19964 6.11415 0.865957 5.7407 0.982408 5.38231C1.09886 5.02391 1.58832 4.91792 2.56725 4.70593L4.51068 4.28509C4.78886 4.22485 4.92795 4.19473 5.03963 4.11359C5.15131 4.03245 5.22294 3.90947 5.36619 3.66352L6.36699 1.94526Z" fill="#FFC121"/>
<path d="M24.0701 1.94526C24.5742 1.07975 24.8263 0.646998 25.2031 0.646998C25.58 0.646998 25.832 1.07975 26.3361 1.94526L27.3369 3.66352C27.4802 3.90948 27.5518 4.03245 27.6635 4.11359C27.7752 4.19473 27.9143 4.22485 28.1924 4.28509L30.1359 4.70593C31.1148 4.91792 31.6043 5.02391 31.7207 5.38231C31.8372 5.7407 31.5035 6.11415 30.8361 6.86105L29.5112 8.34384C29.3216 8.55608 29.2267 8.6622 29.1841 8.79349C29.1414 8.92478 29.1558 9.06637 29.1844 9.34955L29.3847 11.3279C29.4856 12.3244 29.5361 12.8227 29.2312 13.0442C28.9263 13.2657 28.4681 13.0637 27.5515 12.6598L25.7319 11.858C25.4714 11.7432 25.3412 11.6858 25.2031 11.6858C25.0651 11.6858 24.9349 11.7432 24.6744 11.858L22.8548 12.6598C21.9382 13.0637 21.4799 13.2657 21.175 13.0442C20.8702 12.8227 20.9206 12.3244 21.0215 11.3279L21.2218 9.34955C21.2505 9.06637 21.2648 8.92478 21.2222 8.79349C21.1795 8.6622 21.0847 8.55608 20.895 8.34384L19.5701 6.86105C18.9028 6.11415 18.5691 5.7407 18.6855 5.38231C18.802 5.02391 19.2914 4.91792 20.2704 4.70593L22.2138 4.28509C22.492 4.22485 22.6311 4.19473 22.7428 4.11359C22.8544 4.03245 22.9261 3.90947 23.0693 3.66352L24.0701 1.94526Z" fill="#FFC121"/>
<path d="M41.7732 1.94526C42.2774 1.07975 42.5294 0.646998 42.9062 0.646998C43.2831 0.646998 43.5351 1.07975 44.0393 1.94526L45.0401 3.66352C45.1833 3.90948 45.2549 4.03245 45.3666 4.11359C45.4783 4.19473 45.6174 4.22485 45.8956 4.28509L47.839 4.70593C48.8179 4.91792 49.3074 5.02391 49.4238 5.38231C49.5403 5.7407 49.2066 6.11415 48.5392 6.86105L47.2143 8.34384C47.0247 8.55608 46.9299 8.6622 46.8872 8.79349C46.8446 8.92478 46.8589 9.06637 46.8876 9.34955L47.0879 11.3279C47.1888 12.3244 47.2392 12.8227 46.9343 13.0442C46.6295 13.2657 46.1712 13.0637 45.2546 12.6598L43.435 11.858C43.1745 11.7432 43.0443 11.6858 42.9062 11.6858C42.7682 11.6858 42.638 11.7432 42.3775 11.858L40.5579 12.6598C39.6413 13.0637 39.183 13.2657 38.8782 13.0442C38.5733 12.8227 38.6237 12.3244 38.7246 11.3279L38.9249 9.34955C38.9536 9.06637 38.9679 8.92478 38.9253 8.79349C38.8826 8.6622 38.7878 8.55608 38.5982 8.34384L37.2733 6.86105C36.6059 6.11415 36.2722 5.7407 36.3887 5.38231C36.5051 5.02391 36.9946 4.91792 37.9735 4.70593L39.9169 4.28509C40.1951 4.22485 40.3342 4.19473 40.4459 4.11359C40.5576 4.03245 40.6292 3.90947 40.7724 3.66352L41.7732 1.94526Z" fill="#FFC121"/>
<path d="M59.4685 1.94526C59.9727 1.07975 60.2247 0.646998 60.6016 0.646998C60.9784 0.646998 61.2305 1.07975 61.7346 1.94526L62.7354 3.66352C62.8786 3.90948 62.9503 4.03245 63.0619 4.11359C63.1736 4.19473 63.3127 4.22485 63.5909 4.28509L65.5343 4.70593C66.5132 4.91792 67.0027 5.02391 67.1192 5.38231C67.2356 5.7407 66.9019 6.11415 66.2346 6.86105L64.9097 8.34384C64.72 8.55608 64.6252 8.6622 64.5825 8.79349C64.5399 8.92478 64.5542 9.06637 64.5829 9.34955L64.7832 11.3279C64.8841 12.3244 64.9345 12.8227 64.6297 13.0442C64.3248 13.2657 63.8665 13.0637 62.9499 12.6598L61.1303 11.858C60.8698 11.7432 60.7396 11.6858 60.6016 11.6858C60.4635 11.6858 60.3333 11.7432 60.0728 11.858L58.2532 12.6598C57.3366 13.0637 56.8783 13.2657 56.5735 13.0442C56.2686 12.8227 56.319 12.3244 56.4199 11.3279L56.6203 9.34955C56.6489 9.06637 56.6633 8.92478 56.6206 8.79349C56.5779 8.6622 56.4831 8.55608 56.2935 8.34384L54.9686 6.86105C54.3012 6.11415 53.9675 5.7407 54.084 5.38231C54.2004 5.02391 54.6899 4.91792 55.6688 4.70593L57.6122 4.28509C57.8904 4.22485 58.0295 4.19473 58.1412 4.11359C58.2529 4.03245 58.3245 3.90947 58.4678 3.66352L59.4685 1.94526Z" fill="#FFC121"/>
<path d="M77.1717 1.94526C77.6758 1.07975 77.9278 0.646998 78.3047 0.646998C78.6815 0.646998 78.9336 1.07975 79.4377 1.94526L80.4385 3.66352C80.5817 3.90948 80.6534 4.03245 80.7651 4.11359C80.8767 4.19473 81.0158 4.22485 81.294 4.28509L83.2374 4.70593C84.2164 4.91792 84.7058 5.02391 84.8223 5.38231C84.9387 5.7407 84.605 6.11415 83.9377 6.86105L82.6128 8.34384C82.4231 8.55608 82.3283 8.6622 82.2857 8.79349C82.243 8.92478 82.2573 9.06637 82.286 9.34955L82.4863 11.3279C82.5872 12.3244 82.6377 12.8227 82.3328 13.0442C82.0279 13.2657 81.5696 13.0637 80.6531 12.6598L78.8334 11.858C78.573 11.7432 78.4427 11.6858 78.3047 11.6858C78.1666 11.6858 78.0364 11.7432 77.776 11.858L75.9563 12.6598C75.0398 13.0637 74.5815 13.2657 74.2766 13.0442C73.9717 12.8227 74.0222 12.3244 74.1231 11.3279L74.3234 9.34955C74.352 9.06637 74.3664 8.92478 74.3237 8.79349C74.2811 8.6622 74.1862 8.55608 73.9966 8.34384L72.6717 6.86105C72.0043 6.11415 71.6706 5.7407 71.7871 5.38231C71.9035 5.02391 72.393 4.91792 73.3719 4.70593L75.3154 4.28509C75.5935 4.22485 75.7326 4.19473 75.8443 4.11359C75.956 4.03245 76.0276 3.90947 76.1709 3.66352L77.1717 1.94526Z" fill="#FFC121"/>
<path d="M7.602 72.488H3.066V74.882C3.262 74.6393 3.542 74.4433 3.906 74.294C4.27 74.1353 4.65733 74.056 5.068 74.056C5.81467 74.056 6.426 74.2193 6.902 74.546C7.378 74.8727 7.72333 75.2927 7.938 75.806C8.15267 76.31 8.26 76.8513 8.26 77.43C8.26 78.5033 7.952 79.3667 7.336 80.02C6.72933 80.6733 5.86133 81 4.732 81C3.668 81 2.81867 80.734 2.184 80.202C1.54933 79.67 1.19 78.9747 1.106 78.116H3.01C3.094 78.4893 3.28067 78.788 3.57 79.012C3.86867 79.236 4.24667 79.348 4.704 79.348C5.25467 79.348 5.67 79.1753 5.95 78.83C6.23 78.4847 6.37 78.0273 6.37 77.458C6.37 76.8793 6.22533 76.4407 5.936 76.142C5.656 75.834 5.24067 75.68 4.69 75.68C4.298 75.68 3.97133 75.778 3.71 75.974C3.44867 76.17 3.262 76.4313 3.15 76.758H1.274V70.766H7.602V72.488ZM10.8438 81.098C10.4891 81.098 10.1951 80.9907 9.96177 80.776C9.73777 80.552 9.62577 80.2767 9.62577 79.95C9.62577 79.6233 9.73777 79.3527 9.96177 79.138C10.1951 78.914 10.4891 78.802 10.8438 78.802C11.1891 78.802 11.4738 78.914 11.6978 79.138C11.9218 79.3527 12.0338 79.6233 12.0338 79.95C12.0338 80.2767 11.9218 80.552 11.6978 80.776C11.4738 80.9907 11.1891 81.098 10.8438 81.098ZM13.3885 75.764C13.3885 74.1493 13.6778 72.8847 14.2565 71.97C14.8445 71.0553 15.8152 70.598 17.1685 70.598C18.5218 70.598 19.4878 71.0553 20.0665 71.97C20.6545 72.8847 20.9485 74.1493 20.9485 75.764C20.9485 77.388 20.6545 78.662 20.0665 79.586C19.4878 80.51 18.5218 80.972 17.1685 80.972C15.8152 80.972 14.8445 80.51 14.2565 79.586C13.6778 78.662 13.3885 77.388 13.3885 75.764ZM19.0165 75.764C19.0165 75.0733 18.9698 74.4947 18.8765 74.028C18.7925 73.552 18.6152 73.1647 18.3445 72.866C18.0832 72.5673 17.6912 72.418 17.1685 72.418C16.6458 72.418 16.2492 72.5673 15.9785 72.866C15.7172 73.1647 15.5398 73.552 15.4465 74.028C15.3625 74.4947 15.3205 75.0733 15.3205 75.764C15.3205 76.4733 15.3625 77.0707 15.4465 77.556C15.5305 78.032 15.7078 78.4193 15.9785 78.718C16.2492 79.0073 16.6458 79.152 17.1685 79.152C17.6912 79.152 18.0878 79.0073 18.3585 78.718C18.6292 78.4193 18.8065 78.032 18.8905 77.556C18.9745 77.0707 19.0165 76.4733 19.0165 75.764Z" fill="#141414"/>
<path d="M30.674 82.484H29.4V69.87H30.674V82.484ZM42.0226 81L39.6986 77.01H38.1586V81H36.8846V71.242H40.0346C40.772 71.242 41.3926 71.368 41.8966 71.62C42.41 71.872 42.7926 72.2127 43.0446 72.642C43.2966 73.0713 43.4226 73.5613 43.4226 74.112C43.4226 74.784 43.2266 75.3767 42.8346 75.89C42.452 76.4033 41.8733 76.744 41.0986 76.912L43.5486 81H42.0226ZM38.1586 75.988H40.0346C40.7253 75.988 41.2433 75.82 41.5886 75.484C41.934 75.1387 42.1066 74.6813 42.1066 74.112C42.1066 73.5333 41.934 73.0853 41.5886 72.768C41.2526 72.4507 40.7346 72.292 40.0346 72.292H38.1586V75.988ZM52.4022 76.87C52.4022 77.1127 52.3882 77.3693 52.3602 77.64H46.2282C46.2749 78.396 46.5316 78.9887 46.9982 79.418C47.4742 79.838 48.0482 80.048 48.7202 80.048C49.2709 80.048 49.7282 79.922 50.0922 79.67C50.4656 79.4087 50.7269 79.0633 50.8762 78.634H52.2482C52.0429 79.3713 51.6322 79.9733 51.0162 80.44C50.4002 80.8973 49.6349 81.126 48.7202 81.126C47.9922 81.126 47.3389 80.9627 46.7602 80.636C46.1909 80.3093 45.7429 79.8473 45.4162 79.25C45.0896 78.6433 44.9262 77.9433 44.9262 77.15C44.9262 76.3567 45.0849 75.6613 45.4022 75.064C45.7196 74.4667 46.1629 74.0093 46.7322 73.692C47.3109 73.3653 47.9736 73.202 48.7202 73.202C49.4482 73.202 50.0922 73.3607 50.6522 73.678C51.2122 73.9953 51.6416 74.434 51.9402 74.994C52.2482 75.5447 52.4022 76.17 52.4022 76.87ZM51.0862 76.604C51.0862 76.1187 50.9789 75.7033 50.7642 75.358C50.5496 75.0033 50.2556 74.7373 49.8822 74.56C49.5182 74.3733 49.1122 74.28 48.6642 74.28C48.0202 74.28 47.4696 74.4853 47.0122 74.896C46.5642 75.3067 46.3076 75.876 46.2422 76.604H51.0862ZM56.9399 79.824L59.3199 73.328H60.6779L57.6679 81H56.1839L53.1739 73.328H54.5459L56.9399 79.824ZM62.5895 72.082C62.3468 72.082 62.1415 71.998 61.9735 71.83C61.8055 71.662 61.7215 71.4567 61.7215 71.214C61.7215 70.9713 61.8055 70.766 61.9735 70.598C62.1415 70.43 62.3468 70.346 62.5895 70.346C62.8228 70.346 63.0188 70.43 63.1775 70.598C63.3455 70.766 63.4295 70.9713 63.4295 71.214C63.4295 71.4567 63.3455 71.662 63.1775 71.83C63.0188 71.998 62.8228 72.082 62.5895 72.082ZM63.2055 73.328V81H61.9315V73.328H63.2055ZM72.3768 76.87C72.3768 77.1127 72.3628 77.3693 72.3348 77.64H66.2028C66.2495 78.396 66.5062 78.9887 66.9728 79.418C67.4488 79.838 68.0228 80.048 68.6948 80.048C69.2455 80.048 69.7028 79.922 70.0668 79.67C70.4402 79.4087 70.7015 79.0633 70.8508 78.634H72.2228C72.0175 79.3713 71.6068 79.9733 70.9908 80.44C70.3748 80.8973 69.6095 81.126 68.6948 81.126C67.9668 81.126 67.3135 80.9627 66.7348 80.636C66.1655 80.3093 65.7175 79.8473 65.3908 79.25C65.0642 78.6433 64.9008 77.9433 64.9008 77.15C64.9008 76.3567 65.0595 75.6613 65.3768 75.064C65.6942 74.4667 66.1375 74.0093 66.7068 73.692C67.2855 73.3653 67.9482 73.202 68.6948 73.202C69.4228 73.202 70.0668 73.3607 70.6268 73.678C71.1868 73.9953 71.6162 74.434 71.9148 74.994C72.2228 75.5447 72.3768 76.17 72.3768 76.87ZM71.0608 76.604C71.0608 76.1187 70.9535 75.7033 70.7388 75.358C70.5242 75.0033 70.2302 74.7373 69.8568 74.56C69.4928 74.3733 69.0868 74.28 68.6388 74.28C67.9948 74.28 67.4442 74.4853 66.9868 74.896C66.5388 75.3067 66.2822 75.876 66.2168 76.604H71.0608ZM84.2785 73.328L81.8845 81H80.5685L78.7205 74.91L76.8725 81H75.5565L73.1485 73.328H74.4505L76.2145 79.768L78.1185 73.328H79.4205L81.2825 79.782L83.0185 73.328H84.2785ZM88.2588 81.126C87.6708 81.126 87.1435 81.028 86.6768 80.832C86.2102 80.6267 85.8415 80.3467 85.5708 79.992C85.3002 79.628 85.1508 79.2127 85.1228 78.746H86.4388C86.4762 79.1287 86.6535 79.4413 86.9708 79.684C87.2975 79.9267 87.7222 80.048 88.2448 80.048C88.7302 80.048 89.1128 79.9407 89.3928 79.726C89.6728 79.5113 89.8128 79.2407 89.8128 78.914C89.8128 78.578 89.6635 78.3307 89.3648 78.172C89.0662 78.004 88.6042 77.8407 87.9788 77.682C87.4095 77.5327 86.9428 77.3833 86.5788 77.234C86.2242 77.0753 85.9162 76.8467 85.6548 76.548C85.4028 76.24 85.2768 75.8387 85.2768 75.344C85.2768 74.952 85.3935 74.5927 85.6268 74.266C85.8602 73.9393 86.1915 73.6827 86.6208 73.496C87.0502 73.3 87.5402 73.202 88.0908 73.202C88.9402 73.202 89.6262 73.4167 90.1488 73.846C90.6715 74.2753 90.9515 74.8633 90.9888 75.61H89.7148C89.6868 75.2087 89.5235 74.8867 89.2248 74.644C88.9355 74.4013 88.5435 74.28 88.0488 74.28C87.5915 74.28 87.2275 74.378 86.9568 74.574C86.6862 74.77 86.5508 75.0267 86.5508 75.344C86.5508 75.596 86.6302 75.806 86.7888 75.974C86.9568 76.1327 87.1622 76.2633 87.4048 76.366C87.6568 76.4593 88.0022 76.5667 88.4408 76.688C88.9915 76.8373 89.4395 76.9867 89.7848 77.136C90.1302 77.276 90.4242 77.4907 90.6668 77.78C90.9188 78.0693 91.0495 78.4473 91.0588 78.914C91.0588 79.334 90.9422 79.712 90.7088 80.048C90.4755 80.384 90.1442 80.65 89.7148 80.846C89.2948 81.0327 88.8095 81.126 88.2588 81.126Z" fill="#606060"/>
<g clip-path="url(#clip0_8361_46542)">
<path fill-rule="evenodd" clip-rule="evenodd" d="M23.7334 38.1612H12.4695V41.4951H20.4584C20.0636 46.1702 16.1638 48.1639 12.483 48.1639C7.77361 48.1639 3.66414 44.4682 3.66414 39.288C3.66414 34.2417 7.58167 30.3557 12.4932 30.3557C16.2829 30.3557 18.516 32.7651 18.516 32.7651L20.8558 30.3478C20.8558 30.3478 17.8523 27.0125 12.3737 27.0125C5.3976 27.0121 0 32.8851 0 39.2286C0 45.4443 5.0767 51.5057 12.5517 51.5057C19.1254 51.5053 23.9374 47.0138 23.9374 40.3716C23.9374 38.9702 23.7334 38.1604 23.7334 38.1604V38.1612Z" fill="#176BEF"/>
<path fill-rule="evenodd" clip-rule="evenodd" d="M33.0037 38.8389C35.2768 38.8389 37.4307 40.6717 37.4307 43.6249C37.4307 46.5161 35.2858 48.4008 32.9935 48.4008C30.4746 48.4008 28.487 46.3889 28.487 43.6023C28.487 40.8751 30.4493 38.8389 33.0037 38.8389ZM32.9577 35.7468C28.3358 35.7468 25.0234 39.3507 25.0234 43.5546C25.0234 47.8197 28.2366 51.4909 33.012 51.4909C37.3353 51.4909 40.8776 48.195 40.8776 43.646C40.8776 38.4319 36.7572 35.7468 32.9577 35.7468Z" fill="#FF3E30"/>
<path fill-rule="evenodd" clip-rule="evenodd" d="M50.2611 38.8389C52.5346 38.8389 54.6885 40.6717 54.6885 43.6249C54.6885 46.5161 52.5432 48.4008 50.2509 48.4008C47.7324 48.4008 45.7452 46.3889 45.7452 43.6023C45.7452 40.8751 47.7075 38.8389 50.2611 38.8389ZM50.2155 35.7468C45.5939 35.7468 42.2812 39.3507 42.2812 43.5546C42.2812 47.8197 45.494 51.4909 50.2698 51.4909C54.5931 51.4909 58.135 48.195 58.135 43.646C58.135 38.4319 54.015 35.7468 50.2155 35.7468Z" fill="#F7B529"/>
<path fill-rule="evenodd" clip-rule="evenodd" d="M67.447 38.8406C69.527 38.8406 71.6628 40.6118 71.6628 43.6368C71.6628 46.7119 69.5311 48.4067 67.401 48.4067C65.1396 48.4067 63.0351 46.575 63.0351 43.6662C63.0351 40.6437 65.2207 38.8406 67.447 38.8406ZM67.1396 35.7546C62.8974 35.7546 59.5625 39.4609 59.5625 43.6207C59.5625 48.3586 63.4288 51.501 67.0665 51.501C69.3162 51.501 70.5123 50.6104 71.3958 49.5885V51.1403C71.3958 53.8566 69.7419 55.4833 67.2464 55.4833C64.8357 55.4829 63.6267 53.6952 63.2067 52.6805L60.173 53.9454C61.2492 56.2144 63.4156 58.5813 67.2716 58.5813C71.4897 58.5813 74.7044 55.9312 74.7044 50.3738V36.2278H71.3958V37.5615C70.3784 36.4677 68.9866 35.7546 67.1396 35.7546Z" fill="#176BEF"/>
<path fill-rule="evenodd" clip-rule="evenodd" d="M89.5545 38.7637C90.9965 38.7637 92.0342 39.5279 92.4751 40.4449L85.4077 43.3914C85.103 41.1103 87.2698 38.7637 89.5545 38.7637ZM89.4165 35.7356C85.4145 35.7356 82.0547 38.9115 82.0547 43.5975C82.0547 48.5562 85.7999 51.497 89.8008 51.497C93.1402 51.497 95.1897 49.6747 96.4133 48.042L93.6844 46.2314C92.9766 47.3274 91.7929 48.3982 89.8177 48.3982C87.5993 48.3982 86.579 47.1864 85.9466 46.0129L96.5299 41.6327L95.9804 40.349C94.9578 37.8354 92.5727 35.736 89.4169 35.736L89.4165 35.7356Z" fill="#FF3E30"/>
<path fill-rule="evenodd" clip-rule="evenodd" d="M77.0078 51.03H80.4842V27.8264H77.0078V51.03Z" fill="#179C52"/>
</g>
<defs>
<clipPath id="clip0_8361_46542">
<rect width="97.0827" height="31.5935" fill="white" transform="translate(0 27)"/>
</clipPath>
</defs>
</svg>
