<svg width="28" height="24" viewBox="0 0 28 24" fill="none" xmlns="http://www.w3.org/2000/svg">
<path d="M7.14078 24C5.10194 24 3.47087 23.2593 2.24757 21.7778C1.08252 20.237 0.5 18.2519 0.5 15.8222C0.5 12.5037 1.37379 9.51111 3.12136 6.84444C4.92718 4.11852 7.66505 1.83703 11.335 0L12.2961 1.42222C10.5485 2.48889 8.9466 4 7.49029 5.95555C6.09223 7.85185 5.3932 9.77778 5.3932 11.7333C5.3932 12.2667 5.53883 12.7111 5.8301 13.0667C6.12136 13.363 6.55825 13.5111 7.14078 13.5111C8.59709 13.5111 9.82039 14.0444 10.8107 15.1111C11.8592 16.1185 12.3835 17.363 12.3835 18.8444C12.3835 20.3259 11.8592 21.5704 10.8107 22.5778C9.82039 23.5259 8.59709 24 7.14078 24ZM22.2573 24C20.2184 24 18.5874 23.2593 17.3641 21.7778C16.199 20.237 15.6165 18.2519 15.6165 15.8222C15.6165 12.5037 16.4903 9.51111 18.2379 6.84444C20.0437 4.11852 22.7816 1.83703 26.4515 0L27.4126 1.42222C25.665 2.48889 24.0631 4 22.6068 5.95555C21.2087 7.85185 20.5097 9.77778 20.5097 11.7333C20.5097 12.2667 20.6553 12.7111 20.9466 13.0667C21.2379 13.363 21.6748 13.5111 22.2573 13.5111C23.7136 13.5111 24.9369 14.0444 25.9272 15.1111C26.9757 16.1185 27.5 17.363 27.5 18.8444C27.5 20.3259 26.9757 21.5704 25.9272 22.5778C24.9369 23.5259 23.7136 24 22.2573 24Z" fill="#DADADA"/>
</svg>
