<svg width="16" height="16" viewBox="0 0 16 16" fill="none" xmlns="http://www.w3.org/2000/svg">
<g clip-path="url(#clip0_9392_3191)">
<path d="M6.66505 13.8513C6.08479 13.7197 5.5275 13.502 5.01172 13.2053" stroke="#141414" stroke-width="1.5" stroke-linecap="round" stroke-linejoin="round"/>
<path d="M9.33203 2.14868C10.6575 2.4514 11.8409 3.19514 12.6885 4.25815C13.5361 5.32116 13.9977 6.64045 13.9977 8.00002C13.9977 9.35958 13.5361 10.6789 12.6885 11.7419C11.8409 12.8049 10.6575 13.5486 9.33203 13.8513" stroke="#141414" stroke-width="1.5" stroke-linecap="round" stroke-linejoin="round"/>
<path d="M3.05238 11.3954C2.68871 10.867 2.41251 10.2835 2.23438 9.66736" stroke="#141414" stroke-width="1.5" stroke-linecap="round" stroke-linejoin="round"/>
<path d="M2.08203 6.99997C2.1887 6.36664 2.39403 5.76664 2.68203 5.21664L2.7947 5.01331" stroke="#141414" stroke-width="1.5" stroke-linecap="round" stroke-linejoin="round"/>
<path d="M4.60547 3.05268C5.22924 2.62328 5.92902 2.31649 6.66747 2.14868" stroke="#141414" stroke-width="1.5" stroke-linecap="round" stroke-linejoin="round"/>
<path d="M8 5.33337V8.00004L10 10" stroke="#141414" stroke-width="1.5" stroke-linecap="round" stroke-linejoin="round"/>
</g>
<defs>
<clipPath id="clip0_9392_3191">
<rect width="16" height="16" fill="white"/>
</clipPath>
</defs>
</svg>
