<svg width="24" height="24" viewBox="0 0 24 24" fill="none" xmlns="http://www.w3.org/2000/svg">
<path d="M4 7C4 6.46957 4.21071 5.96086 4.58579 5.58579C4.96086 5.21071 5.46957 5 6 5H18C18.5304 5 19.0391 5.21071 19.4142 5.58579C19.7893 5.96086 20 6.46957 20 7V19C20 19.5304 19.7893 20.0391 19.4142 20.4142C19.0391 20.7893 18.5304 21 18 21H6C5.46957 21 4.96086 20.7893 4.58579 20.4142C4.21071 20.0391 4 19.5304 4 19V7Z" stroke="#141414" strokeWidth="1.5" strokeLinecap="round" strokeLinejoin="round"/>
<path d="M16 3V7" stroke="#141414" strokeWidth="1.5" strokeLinecap="round" strokeLinejoin="round"/>
<path d="M8 3V7" stroke="#141414" strokeWidth="1.5" strokeLinecap="round" strokeLinejoin="round"/>
<path d="M4 11H20" stroke="#141414" strokeWidth="1.5" strokeLinecap="round" strokeLinejoin="round"/>
<path d="M10.876 17.97C10.78 17.946 10.7 17.894 10.636 17.814C10.576 17.73 10.546 17.636 10.546 17.532V17.472C10.546 17.392 10.578 17.328 10.642 17.28C10.71 17.232 10.782 17.22 10.858 17.244C11.158 17.336 11.416 17.382 11.632 17.382C12.268 17.382 12.586 17.094 12.586 16.518C12.586 16.042 12.356 15.804 11.896 15.804C11.776 15.804 11.662 15.826 11.554 15.87C11.262 15.99 11.056 16.05 10.936 16.05H10.894C10.802 16.05 10.724 16.016 10.66 15.948C10.596 15.88 10.566 15.8 10.57 15.708L10.66 13.962C10.668 13.866 10.704 13.786 10.768 13.722C10.836 13.654 10.918 13.62 11.014 13.62H12.886C12.978 13.62 13.056 13.654 13.12 13.722C13.188 13.79 13.222 13.87 13.222 13.962C13.222 14.054 13.188 14.134 13.12 14.202C13.056 14.266 12.978 14.298 12.886 14.298H11.488C11.452 14.298 11.434 14.316 11.434 14.352L11.386 15.306C11.386 15.31 11.388 15.312 11.392 15.312H11.398L11.404 15.306C11.604 15.21 11.82 15.162 12.052 15.162C12.484 15.162 12.818 15.28 13.054 15.516C13.294 15.752 13.414 16.086 13.414 16.518C13.414 17.546 12.828 18.06 11.656 18.06C11.388 18.06 11.128 18.03 10.876 17.97Z" fill="black"/>
</svg>
