<svg width="58" height="58" viewBox="0 0 58 58" fill="none" xmlns="http://www.w3.org/2000/svg">
<path d="M29.0107 57.2414C45.027 57.2414 58.0107 44.4275 58.0107 28.6207C58.0107 12.8139 45.027 0 29.0107 0C12.9945 0 0.0107422 12.8139 0.0107422 28.6207C0.0107422 44.4275 12.9945 57.2414 29.0107 57.2414Z" fill="#F9F4FF"/>
<path d="M31.3102 12.9169C33.6686 13.2904 35.695 14.148 37.5693 15.5796C40.0452 17.4746 41.7811 20.2687 42.4658 23.4639C42.6318 24.2662 42.6457 24.4529 42.6526 26.0228C42.6526 27.3922 42.6249 27.8487 42.5212 28.4089C42.3552 29.308 42.0025 30.4768 41.6567 31.279C41.4215 31.8116 41.3869 31.943 41.4561 32.0675C41.4976 32.1436 42.5281 33.9417 43.7453 36.0511C45.7441 39.5092 45.9654 39.9241 45.993 40.2492C46.0138 40.4567 45.9861 40.7056 45.9377 40.8232C45.827 41.086 45.5158 41.3557 45.2184 41.4318C45.0179 41.4941 42.9638 41.3903 40.6262 41.2105L40.1213 41.169L39.0216 43.4167C37.7629 45.9688 37.7353 46.0103 37.016 46.0103C36.5457 46.0103 36.2552 45.8443 35.9924 45.4362C35.8887 45.2702 35.0242 43.7764 34.0767 42.1096L32.3476 39.0942L32.071 39.1357C31.9188 39.1564 31.5108 39.2187 31.1719 39.274C30.3489 39.3985 28.447 39.3985 27.6101 39.2671C27.2505 39.2118 26.8425 39.1495 26.7111 39.1288L26.469 39.0873L24.74 42.1096C23.7856 43.7764 22.928 45.2702 22.8242 45.4362C22.5614 45.8512 22.2709 46.0103 21.7937 46.0103C21.0952 46.0103 21.0814 45.9964 19.8296 43.4721C19.221 42.2479 18.7092 41.2313 18.6884 41.2105C18.6677 41.1898 17.5819 41.252 16.2678 41.335C14.8915 41.4249 13.7849 41.4733 13.6466 41.4387C13.0933 41.3142 12.789 40.8785 12.8236 40.263C12.8513 39.9034 12.9827 39.6475 15.1474 35.899L17.4366 31.9222L17.1738 31.3067C14.767 25.7185 16.4891 19.1898 21.3442 15.4897C23.0801 14.1687 25.2863 13.242 27.4511 12.9238C28.3778 12.7924 30.4803 12.7855 31.3102 12.9169ZM27.9698 15.1715C25.6598 15.4482 23.3429 16.6032 21.6277 18.3183C20.0993 19.8537 19.0965 21.7072 18.6054 23.8927C18.4671 24.5151 18.4464 24.7918 18.4464 26.092C18.4464 27.7588 18.5363 28.3536 19.0066 29.7091C21.0053 35.4356 27.2989 38.4856 33.0254 36.4938C36.1791 35.3941 38.7104 32.8628 39.8101 29.7091C40.2804 28.3536 40.3703 27.7588 40.3703 26.092C40.3703 24.7918 40.3495 24.5151 40.2112 23.8927C39.4643 20.5522 37.4033 17.8481 34.457 16.3127C32.4445 15.2684 30.2867 14.888 27.9698 15.1715ZM38.8833 35.3803C37.7837 36.5214 36.7186 37.3029 35.3561 37.9876C34.955 38.1882 34.6161 38.3611 34.6023 38.3749C34.5884 38.3888 35.1002 39.3017 35.7365 40.4082C36.3797 41.5079 36.9192 42.4001 36.9399 42.3724C36.9607 42.3517 37.341 41.6324 37.7767 40.7679C38.7173 38.9075 38.7381 38.8867 39.568 38.8867C39.8585 38.8936 40.7022 38.9351 41.4423 38.9835C42.1823 39.0389 42.7978 39.0734 42.8047 39.0665C42.8116 39.0596 40.1766 34.4812 40.0314 34.2668C39.9899 34.1907 39.9207 34.2391 39.7617 34.4397C39.6441 34.5849 39.2499 35.0068 38.8833 35.3803ZM17.3951 36.6182C16.6274 37.96 16.005 39.0596 16.0119 39.0665C16.0188 39.0734 16.6136 39.0389 17.3398 38.9835C18.0591 38.9351 18.9028 38.8936 19.214 38.8867C20.0855 38.8867 20.0924 38.8936 21.0399 40.8025C21.4756 41.6877 21.8491 42.407 21.8698 42.4139C21.9182 42.4139 24.242 38.3957 24.2074 38.3611C24.1936 38.3473 23.993 38.2573 23.7717 38.1536C22.2364 37.4758 20.1823 35.8782 19.138 34.5434C18.9858 34.3498 18.8475 34.1907 18.8267 34.1907C18.806 34.1838 18.1628 35.2834 17.3951 36.6182Z" fill="#7738C8"/>
<path d="M30.4388 18.8715C31.7183 19.2173 32.7834 20.2755 33.1707 21.5895C33.3436 22.1843 33.3159 23.201 33.1084 23.858C32.652 25.3035 31.3863 26.3409 29.8786 26.4999C27.9698 26.7005 26.2684 25.6285 25.7082 23.858C25.5008 23.201 25.4731 22.1843 25.646 21.5895C26.0402 20.2616 27.1053 19.2035 28.4124 18.8646C28.9173 18.7332 29.9409 18.7332 30.4388 18.8715Z" fill="#7738C8"/>
<path d="M34.6364 26.3544C35.1897 27.0322 35.5977 27.7791 35.8536 28.5814C35.9919 29.024 36.0127 29.2453 36.0127 30.1029V31.1127L35.7568 31.6314C35.2727 32.6134 34.3459 33.2843 33.2739 33.4226C32.6031 33.5056 26.2057 33.5056 25.5349 33.4226C24.6081 33.2981 23.7021 32.7379 23.2318 31.9979C22.886 31.4377 22.7546 30.9467 22.7477 30.2067C22.7408 28.8165 23.2111 27.5094 24.1378 26.3821C24.2692 26.223 24.4006 26.0985 24.4283 26.1054C24.456 26.1193 24.6289 26.306 24.8087 26.5273C25.4795 27.3503 26.8351 28.2217 27.8517 28.4776C29.7329 28.9548 31.6487 28.5468 33.1564 27.3434C33.4468 27.1221 33.8272 26.7555 34.007 26.5273C34.1869 26.306 34.3528 26.1193 34.3805 26.1123C34.4013 26.0985 34.5188 26.2092 34.6364 26.3544Z" fill="#7738C8"/>
</svg>
