<svg width="58" height="58" viewBox="0 0 58 58" fill="none" xmlns="http://www.w3.org/2000/svg">
<ellipse cx="29" cy="29.3757" rx="29" ry="28.6207" fill="#FEF2EF"/>
<path d="M25.9038 20.9609H29.1783C29.7539 19.7662 28.8826 18.3574 27.5406 18.3574C26.2012 18.3574 25.3257 19.7639 25.9038 20.9609Z" fill="#D95D37"/>
<path d="M27.5401 16.541C29.8538 16.541 31.5892 18.6873 31.0871 20.9609H35.7139V18.9629C35.7139 18.6285 35.4429 18.3574 35.1085 18.3574H33.8864C33.7484 17.8749 33.5555 17.4098 33.3114 16.9713L34.1761 16.1066C34.4125 15.8702 34.4125 15.4868 34.1761 15.2503L32.4636 13.5378C32.2272 13.3014 31.8438 13.3014 31.6073 13.5378L30.7427 14.4025C30.3041 14.1584 29.839 13.9655 29.3565 13.8274V12.6055C29.3565 12.2711 29.0854 12 28.751 12H26.3292C25.9948 12 25.7237 12.2711 25.7237 12.6055V13.8275C25.2412 13.9655 24.7761 14.1584 24.3375 14.4026L23.4729 13.5378C23.2364 13.3014 22.853 13.3014 22.6166 13.5378L20.9041 15.2503C20.6677 15.4868 20.6677 15.8702 20.9041 16.1066L21.7688 16.9713C21.5248 17.4098 21.3318 17.8749 21.1938 18.3574H19.9717C19.6373 18.3574 19.3663 18.6285 19.3663 18.9629V20.9609H23.9952C23.4902 18.6814 25.2313 16.541 27.5401 16.541ZM42.7005 31.2333L39.1361 25.9034C39.0754 24.825 38.8588 23.7788 38.4901 22.7773H16.8104C14.7651 28.33 17.5618 34.7334 23.412 36.8091V42.0918C23.412 42.5931 23.8183 43 24.3202 43H34.6737C35.1751 43 35.5819 42.5931 35.5819 42.0918V37.4297H38.246C38.7473 37.4297 39.1542 37.0228 39.1542 36.5215V32.6465H41.9454C42.6696 32.6465 43.1037 31.8364 42.7005 31.2333Z" fill="#D95D37"/>
</svg>
