<svg width="58" height="58" viewBox="0 0 58 58" fill="none" xmlns="http://www.w3.org/2000/svg">
<circle cx="29" cy="29" r="29" fill="#F4F5F9"/>
<path d="M26.0002 42.5H23.0002C22.8675 42.5 22.7404 42.4473 22.6466 42.3536C22.5528 42.2598 22.5002 42.1326 22.5002 42H15.1602L15.2752 42.66C15.3096 42.7587 15.3737 42.8444 15.4588 42.9053C15.5438 42.9662 15.6456 42.9992 15.7502 43H33.2502C33.3547 42.9992 33.4565 42.9662 33.5415 42.9053C33.6266 42.8444 33.6907 42.7587 33.7252 42.66L33.8402 42H26.5002C26.5002 42.1326 26.4475 42.2598 26.3537 42.3536C26.2599 42.4473 26.1328 42.5 26.0002 42.5ZM16.5002 31C16.4077 30.9996 16.3169 31.0252 16.2383 31.0738C16.1596 31.1224 16.0962 31.1921 16.0552 31.275C16.0205 31.3451 16.0017 31.4219 16.0002 31.5V41H23.0002C23.1328 41 23.2599 41.0527 23.3537 41.1465C23.4475 41.2402 23.5002 41.3674 23.5002 41.5H25.5002C25.5002 41.3674 25.5528 41.2402 25.6466 41.1465C25.7404 41.0527 25.8675 41 26.0002 41H33.0002V35H32.5002C32.3885 34.9999 32.2801 34.9625 32.1922 34.8936C32.1043 34.8247 32.042 34.7284 32.0152 34.62L31.9302 34.285L31.6352 34.465C31.5396 34.5222 31.4278 34.5459 31.3173 34.5323C31.2068 34.5187 31.104 34.4686 31.0252 34.39L29.6102 32.975C29.5315 32.8962 29.4815 32.7934 29.4679 32.6829C29.4543 32.5724 29.478 32.4605 29.5352 32.365L29.7152 32.07L29.3802 31.985C29.2718 31.9582 29.1754 31.8959 29.1066 31.808C29.0377 31.7201 29.0002 31.6117 29.0002 31.5V31H16.5002ZM23.0002 36.5H22.0002V35.5H23.0002V36.5ZM25.0002 36.5H24.0002V35.5H25.0002V36.5ZM27.0002 36.5H26.0002V35.5H27.0002V36.5Z" fill="#5E5FDC"/>
<path d="M33.5 31.5C34.0523 31.5 34.5 31.0523 34.5 30.5C34.5 29.9477 34.0523 29.5 33.5 29.5C32.9477 29.5 32.5 29.9477 32.5 30.5C32.5 31.0523 32.9477 31.5 33.5 31.5Z" fill="#5E5FDC"/>
<path d="M17 24H22.77C23.0507 23.6861 23.3943 23.4349 23.7786 23.2626C24.1628 23.0903 24.5789 23.0008 25 23H25.52C25.647 21.6339 26.279 20.3643 27.2925 19.4396C28.306 18.5149 29.628 18.0015 31 18C31.15 18 31.3 18.01 31.45 18.025C31.3647 17.581 31.1604 17.1686 30.859 16.8317C30.5576 16.4948 30.1704 16.2461 29.7386 16.1121C29.3069 15.9781 28.8469 15.9639 28.4077 16.071C27.9685 16.178 27.5666 16.4023 27.245 16.72C27.1959 16.7688 27.1373 16.8069 27.0727 16.8318C27.0082 16.8568 26.9391 16.8681 26.87 16.865C26.7997 16.861 26.731 16.8425 26.6682 16.8106C26.6053 16.7788 26.5498 16.7343 26.505 16.68C25.9211 15.9548 25.1266 15.4286 24.231 15.1739C23.3355 14.9191 22.383 14.9485 21.5048 15.2579C20.6266 15.5672 19.866 16.1414 19.3279 16.9011C18.7897 17.6609 18.5005 18.5689 18.5 19.5C18.5 19.6326 18.4473 19.7598 18.3536 19.8535C18.2598 19.9473 18.1326 20 18 20H17C16.4696 20 15.9609 20.2107 15.5858 20.5858C15.2107 20.9608 15 21.4695 15 22C15 22.5304 15.2107 23.0391 15.5858 23.4142C15.9609 23.7893 16.4696 24 17 24Z" fill="#5E5FDC"/>
<path d="M41 24H39.825C39.745 23.9993 39.6663 23.9799 39.5952 23.9435C39.524 23.907 39.4623 23.8545 39.415 23.79C39.3699 23.7242 39.341 23.6487 39.3306 23.5696C39.3201 23.4906 39.3285 23.4102 39.355 23.335C39.4487 23.0664 39.4977 22.7844 39.5 22.5C39.4999 22.0071 39.3541 21.5252 39.081 21.115C38.8078 20.7047 38.4195 20.3843 37.9648 20.1941C37.5101 20.0039 37.0093 19.9523 36.5254 20.0459C36.0415 20.1394 35.596 20.374 35.245 20.72C35.1959 20.7688 35.1373 20.8069 35.0727 20.8318C35.0082 20.8568 34.9391 20.8681 34.87 20.865C34.7997 20.861 34.731 20.8425 34.6682 20.8106C34.6053 20.7788 34.5498 20.7343 34.505 20.68C33.9211 19.9548 33.1266 19.4286 32.231 19.1739C31.3355 18.9191 30.383 18.9485 29.5048 19.2579C28.6266 19.5672 27.866 20.1414 27.3279 20.9011C26.7897 21.6609 26.5005 22.5689 26.5 23.5C26.5 23.6326 26.4473 23.7598 26.3536 23.8535C26.2598 23.9473 26.1326 24 26 24H25C24.4696 24 23.9609 24.2107 23.5858 24.5858C23.2107 24.9608 23 25.4695 23 26C23 26.5304 23.2107 27.0391 23.5858 27.4142C23.9609 27.7893 24.4696 28 25 28H29.635L31.025 26.61C31.1038 26.5313 31.2066 26.4813 31.3171 26.4677C31.4276 26.4541 31.5395 26.4778 31.635 26.535L31.93 26.715L32.015 26.38C32.0418 26.2716 32.1041 26.1753 32.192 26.1064C32.2799 26.0375 32.3883 26.0001 32.5 26H34.5C34.6117 26.0001 34.7201 26.0375 34.808 26.1064C34.8959 26.1753 34.9582 26.2716 34.985 26.38L35.07 26.715L35.365 26.535C35.4605 26.4778 35.5724 26.4541 35.6829 26.4677C35.7934 26.4813 35.8962 26.5313 35.975 26.61L37.365 28H41C41.5304 28 42.0391 27.7893 42.4142 27.4142C42.7893 27.0391 43 26.5304 43 26C43 25.4695 42.7893 24.9608 42.4142 24.5858C42.0391 24.2107 41.5304 24 41 24Z" fill="#5E5FDC"/>
<path d="M35.545 33.405L36.405 32.545L36.08 32.005C36.0408 31.9373 36.0177 31.8615 36.0125 31.7835C36.0073 31.7055 36.0201 31.6273 36.05 31.555C36.0799 31.4828 36.1262 31.4186 36.1852 31.3674C36.2442 31.3162 36.3143 31.2794 36.39 31.26L37 31.11V29.89L36.39 29.74C36.3143 29.7206 36.2442 29.6838 36.1852 29.6326C36.1262 29.5814 36.0799 29.5172 36.05 29.445C36.0201 29.3727 36.0073 29.2945 36.0125 29.2165C36.0177 29.1385 36.0408 29.0627 36.08 28.995L36.405 28.455L35.545 27.595L35.005 27.915C34.9382 27.9561 34.8625 27.9808 34.7842 27.9868C34.706 27.9929 34.6274 27.9803 34.555 27.95C34.4828 27.9201 34.4186 27.8738 34.3674 27.8148C34.3162 27.7558 34.2794 27.6857 34.26 27.61L34.11 27H32.89L32.74 27.61C32.7206 27.6857 32.6838 27.7558 32.6326 27.8148C32.5814 27.8738 32.5172 27.9201 32.445 27.95C32.3726 27.9803 32.294 27.9929 32.2158 27.9868C32.1375 27.9808 32.0618 27.9561 31.995 27.915L31.455 27.595L30.595 28.455L30.92 28.995C30.9592 29.0627 30.9823 29.1385 30.9875 29.2165C30.9927 29.2945 30.9799 29.3727 30.95 29.445C30.9201 29.5172 30.8738 29.5814 30.8148 29.6326C30.7558 29.6838 30.6857 29.7206 30.61 29.74L30 29.89V31.11L30.61 31.26C30.6857 31.2794 30.7558 31.3162 30.8148 31.3674C30.8738 31.4186 30.9201 31.4828 30.95 31.555C30.9799 31.6273 30.9927 31.7055 30.9875 31.7835C30.9823 31.8615 30.9592 31.9373 30.92 32.005L30.595 32.545L31.455 33.405L31.995 33.08C32.0627 33.0408 32.1385 33.0177 32.2165 33.0125C32.2945 33.0073 32.3727 33.0201 32.445 33.05C32.5172 33.0799 32.5814 33.1262 32.6326 33.1852C32.6838 33.2442 32.7206 33.3143 32.74 33.39L32.89 34H34.11L34.26 33.39C34.2794 33.3143 34.3162 33.2442 34.3674 33.1852C34.4186 33.1262 34.4828 33.0799 34.555 33.05C34.6273 33.0201 34.7055 33.0073 34.7835 33.0125C34.8615 33.0177 34.9373 33.0408 35.005 33.08L35.545 33.405ZM33.5 32.5C33.1044 32.5 32.7178 32.3827 32.3889 32.1629C32.06 31.9432 31.8036 31.6308 31.6522 31.2654C31.5009 30.8999 31.4613 30.4978 31.5384 30.1098C31.6156 29.7219 31.8061 29.3655 32.0858 29.0858C32.3655 28.8061 32.7219 28.6156 33.1098 28.5384C33.4978 28.4613 33.8999 28.5009 34.2654 28.6522C34.6308 28.8036 34.9432 29.06 35.1629 29.3889C35.3827 29.7178 35.5 30.1044 35.5 30.5C35.5 31.0304 35.2893 31.5391 34.9142 31.9142C34.5391 32.2893 34.0304 32.5 33.5 32.5ZM40.5 36C40.5 36.3978 40.342 36.7794 40.0607 37.0607C39.7794 37.342 39.3978 37.5 39 37.5H35V38.5H39C39.6628 38.4992 40.2982 38.2356 40.7669 37.7669C41.2356 37.2982 41.4992 36.6628 41.5 36V30H40.5V36Z" fill="#5E5FDC"/>
</svg>
