<svg width="58" height="58" viewBox="0 0 58 58" fill="none" xmlns="http://www.w3.org/2000/svg">
<circle cx="29" cy="29" r="29" fill="#ECF8F0"/>
<path d="M40.6075 36.545C40.6077 35.7411 40.3696 34.9553 39.9231 34.2868C39.4767 33.6183 38.842 33.0973 38.0994 32.7896C37.3568 32.4818 36.5396 32.4012 35.7512 32.558C34.9628 32.7148 34.2386 33.1018 33.6702 33.6702C33.1018 34.2386 32.7148 34.9628 32.558 35.7512C32.4012 36.5396 32.4818 37.3568 32.7896 38.0994C33.0973 38.842 33.6183 39.4767 34.2868 39.9231C34.9553 40.3696 35.7411 40.6077 36.545 40.6075C37.6222 40.6068 38.6551 40.1786 39.4169 39.4169C40.1786 38.6551 40.6068 37.6222 40.6075 36.545ZM38.7325 36.545C38.7325 37.7512 37.7512 38.7325 36.545 38.7325C36.1123 38.7325 35.6894 38.6042 35.3297 38.3638C34.9699 38.1235 34.6896 37.7818 34.524 37.3821C34.3584 36.9824 34.3151 36.5426 34.3995 36.1182C34.4839 35.6939 34.6923 35.3041 34.9982 34.9982C35.3041 34.6923 35.6939 34.4839 36.1182 34.3995C36.5426 34.3151 36.9824 34.3584 37.3821 34.524C37.7818 34.6896 38.1235 34.9699 38.3638 35.3297C38.6042 35.6894 38.7325 36.1123 38.7325 36.545Z" fill="#11AF00"/>
<path d="M31.5 37.4825H33.33C33.5786 37.4825 33.8171 37.3837 33.9929 37.2079C34.1687 37.0321 34.2675 36.7936 34.2675 36.545C34.2675 36.2964 34.1687 36.0579 33.9929 35.8821C33.8171 35.7063 33.5786 35.6075 33.33 35.6075H31.5C31.2514 35.6075 31.0129 35.7063 30.8371 35.8821C30.6613 36.0579 30.5625 36.2964 30.5625 36.545C30.5625 36.7936 30.6613 37.0321 30.8371 37.2079C31.0129 37.3837 31.2514 37.4825 31.5 37.4825ZM33.6588 40.73L34.9538 39.435C35.1244 39.2581 35.2188 39.0212 35.2166 38.7754C35.2143 38.5296 35.1156 38.2945 34.9417 38.1208C34.7678 37.9471 34.5326 37.8486 34.2868 37.8466C34.041 37.8445 33.8042 37.9391 33.6275 38.11L32.3325 39.4037C32.2454 39.4908 32.1763 39.5942 32.1292 39.708C32.0821 39.8218 32.0578 39.9437 32.0578 40.0669C32.0578 40.19 32.0821 40.312 32.1292 40.4258C32.1763 40.5395 32.2454 40.6429 32.3325 40.73C32.4196 40.8171 32.523 40.8862 32.6367 40.9333C32.7505 40.9804 32.8725 41.0047 32.9956 41.0047C33.1188 41.0047 33.2407 40.9804 33.3545 40.9333C33.4683 40.8862 33.5717 40.8171 33.6588 40.73ZM37.4825 41.5V39.67C37.4825 39.4214 37.3837 39.1829 37.2079 39.0071C37.0321 38.8313 36.7936 38.7325 36.545 38.7325C36.2964 38.7325 36.0579 38.8313 35.8821 39.0071C35.7063 39.1829 35.6075 39.4214 35.6075 39.67V41.5C35.6075 41.7486 35.7063 41.9871 35.8821 42.1629C36.0579 42.3387 36.2964 42.4375 36.545 42.4375C36.7936 42.4375 37.0321 42.3387 37.2079 42.1629C37.3837 41.9871 37.4825 41.7486 37.4825 41.5ZM40.73 39.3413L39.435 38.0462C39.2581 37.8756 39.0212 37.7812 38.7754 37.7834C38.5296 37.7857 38.2945 37.8844 38.1208 38.0583C37.9471 38.2322 37.8486 38.4674 37.8466 38.7132C37.8445 38.959 37.9391 39.1958 38.11 39.3725L39.4037 40.6675C39.4908 40.7546 39.5942 40.8237 39.708 40.8708C39.8218 40.9179 39.9437 40.9422 40.0669 40.9422C40.19 40.9422 40.312 40.9179 40.4258 40.8708C40.5395 40.8237 40.6429 40.7546 40.73 40.6675C40.8171 40.5804 40.8862 40.477 40.9333 40.3633C40.9804 40.2495 41.0047 40.1275 41.0047 40.0044C41.0047 39.8812 40.9804 39.7593 40.9333 39.6455C40.8862 39.5317 40.8171 39.4283 40.73 39.3413ZM41.5 35.6075H39.67C39.4214 35.6075 39.1829 35.7063 39.0071 35.8821C38.8313 36.0579 38.7325 36.2964 38.7325 36.545C38.7325 36.7936 38.8313 37.0321 39.0071 37.2079C39.1829 37.3837 39.4214 37.4825 39.67 37.4825H41.5C41.7486 37.4825 41.9871 37.3837 42.1629 37.2079C42.3387 37.0321 42.4375 36.7936 42.4375 36.545C42.4375 36.2964 42.3387 36.0579 42.1629 35.8821C41.9871 35.7063 41.7486 35.6075 41.5 35.6075ZM39.4037 32.3325L38.11 33.6275C37.9391 33.8042 37.8445 34.041 37.8466 34.2868C37.8486 34.5326 37.9471 34.7678 38.1208 34.9417C38.2945 35.1156 38.5296 35.2143 38.7754 35.2166C39.0212 35.2188 39.2581 35.1244 39.435 34.9538L40.73 33.6588C40.8171 33.5717 40.8862 33.4683 40.9333 33.3545C40.9804 33.2407 41.0047 33.1188 41.0047 32.9956C41.0047 32.8725 40.9804 32.7505 40.9333 32.6367C40.8862 32.523 40.8171 32.4196 40.73 32.3325C40.6429 32.2454 40.5395 32.1763 40.4258 32.1292C40.312 32.0821 40.19 32.0578 40.0669 32.0578C39.9437 32.0578 39.8218 32.0821 39.708 32.1292C39.5942 32.1763 39.4908 32.2454 39.4037 32.3325ZM35.6075 31.5V33.33C35.6075 33.5786 35.7063 33.8171 35.8821 33.9929C36.0579 34.1687 36.2964 34.2675 36.545 34.2675C36.7936 34.2675 37.0321 34.1687 37.2079 33.9929C37.3837 33.8171 37.4825 33.5786 37.4825 33.33V31.5C37.4825 31.2514 37.3837 31.0129 37.2079 30.8371C37.0321 30.6613 36.7936 30.5625 36.545 30.5625C36.2964 30.5625 36.0579 30.6613 35.8821 30.8371C35.7063 31.0129 35.6075 31.2514 35.6075 31.5ZM32.3325 33.5963L33.6275 34.89C33.8042 35.0609 34.041 35.1555 34.2868 35.1534C34.5326 35.1514 34.7678 35.0529 34.9417 34.8792C35.1156 34.7055 35.2143 34.4704 35.2166 34.2246C35.2188 33.9788 35.1244 33.7419 34.9538 33.565L33.6588 32.27C33.4829 32.0941 33.2443 31.9953 32.9956 31.9953C32.7469 31.9953 32.5084 32.0941 32.3325 32.27C32.1566 32.4459 32.0578 32.6844 32.0578 32.9331C32.0578 33.1818 32.1566 33.4204 32.3325 33.5963Z" fill="#11AF00"/>
<path d="M15.5625 23.6875V37.75C15.5625 38.9932 16.0564 40.1855 16.9354 41.0646C17.8145 41.9436 19.0068 42.4375 20.25 42.4375H34.5675C34.4672 42.2256 34.4014 41.999 34.3725 41.7663C33.9549 42.1035 33.4279 42.2755 32.8917 42.2494C32.3556 42.2233 31.8477 42.001 31.4649 41.6247C31.082 41.2485 30.8508 40.7446 30.8154 40.209C30.7799 39.6734 30.9426 39.1434 31.2725 38.72C30.7286 38.6634 30.2256 38.4052 29.8626 37.9962C29.4997 37.5872 29.303 37.0571 29.3115 36.5104C29.32 35.9636 29.5329 35.4398 29.9084 35.0423C30.2839 34.6447 30.7946 34.4022 31.34 34.3625C30.9795 33.9441 30.7904 33.405 30.8106 32.853C30.8307 32.3011 31.0587 31.7772 31.4488 31.3863C31.8312 31.0043 32.3416 30.7774 32.8814 30.7492C33.4212 30.721 33.9523 30.8936 34.3725 31.2338C34.4373 30.6998 34.6965 30.2084 35.1007 29.8535C35.5049 29.4986 36.0257 29.305 36.5636 29.3098C37.1014 29.3146 37.6187 29.5174 38.0165 29.8795C38.4143 30.2415 38.6647 30.7375 38.72 31.2725C39.1434 30.9426 39.6734 30.7799 40.209 30.8154C40.7446 30.8508 41.2485 31.082 41.6247 31.4649C42.001 31.8477 42.2233 32.3556 42.2494 32.8917C42.2755 33.4279 42.1035 33.9549 41.7663 34.3725C42.0038 34.4025 42.23 34.4688 42.4375 34.5675V23.6875H15.5625ZM24.065 26.2038L22.1563 31.9313C22.1155 32.0485 22.0984 32.1727 22.106 32.2966C22.1136 32.4206 22.1457 32.5418 22.2005 32.6532C22.2553 32.7646 22.3317 32.864 22.4253 32.9456C22.5188 33.0273 22.6276 33.0895 22.7454 33.1287C22.8632 33.168 22.9876 33.1834 23.1115 33.1742C23.2353 33.1649 23.356 33.1312 23.4667 33.0749C23.5774 33.0186 23.6757 32.9409 23.7561 32.8463C23.8365 32.7517 23.8973 32.6421 23.935 32.5238L25.8438 26.7963C25.8845 26.679 25.9016 26.5548 25.894 26.4309C25.8864 26.3069 25.8543 26.1857 25.7995 26.0743C25.7447 25.9629 25.6683 25.8635 25.5747 25.7819C25.4812 25.7002 25.3724 25.638 25.2546 25.5988C25.1368 25.5595 25.0124 25.5441 24.8885 25.5533C24.7647 25.5626 24.644 25.5963 24.5333 25.6526C24.4226 25.7089 24.3243 25.7866 24.2439 25.8812C24.1635 25.9758 24.1027 26.0854 24.065 26.2038ZM20.2463 26.7913L18.3375 28.7013C18.2504 28.7882 18.1813 28.8915 18.1342 29.0052C18.0871 29.1188 18.0628 29.2407 18.0628 29.3638C18.0628 29.4868 18.0871 29.6087 18.1342 29.7223C18.1813 29.836 18.2504 29.9393 18.3375 30.0263L20.2463 31.9363C20.4224 32.1116 20.6608 32.21 20.9094 32.21C21.1579 32.21 21.3963 32.1116 21.5725 31.9363C21.7478 31.7601 21.8463 31.5217 21.8463 31.2731C21.8463 31.0246 21.7478 30.7862 21.5725 30.61L20.3263 29.3638L21.5725 28.1175C21.7478 27.9413 21.8463 27.7029 21.8463 27.4544C21.8463 27.2058 21.7478 26.9674 21.5725 26.7913C21.3963 26.6159 21.1579 26.5175 20.9094 26.5175C20.6608 26.5175 20.4224 26.6159 20.2463 26.7913ZM26.4275 28.1175L27.6738 29.3638L26.4275 30.61C26.2522 30.7862 26.1537 31.0246 26.1537 31.2731C26.1537 31.5217 26.2522 31.7601 26.4275 31.9363C26.6037 32.1116 26.8421 32.21 27.0906 32.21C27.3392 32.21 27.5776 32.1116 27.7538 31.9363L29.6625 30.0263C29.7496 29.9393 29.8187 29.836 29.8658 29.7223C29.9129 29.6087 29.9372 29.4868 29.9372 29.3638C29.9372 29.2407 29.9129 29.1188 29.8658 29.0052C29.8187 28.8915 29.7496 28.7882 29.6625 28.7013L27.7538 26.7913C27.5776 26.6159 27.3392 26.5175 27.0906 26.5175C26.8421 26.5175 26.6037 26.6159 26.4275 26.7913C26.2522 26.9674 26.1537 27.2058 26.1537 27.4544C26.1537 27.7029 26.2522 27.9413 26.4275 28.1175ZM15.5625 21.8125H42.4375V20.25C42.4375 19.0068 41.9436 17.8145 41.0646 16.9354C40.1855 16.0564 38.9932 15.5625 37.75 15.5625H20.25C19.0068 15.5625 17.8145 16.0564 16.9354 16.9354C16.0564 17.8145 15.5625 19.0068 15.5625 20.25V21.8125ZM29.9375 18.0625C30.1861 18.0625 30.4246 18.1613 30.6004 18.3371C30.7762 18.5129 30.875 18.7514 30.875 19C30.875 19.2486 30.7762 19.4871 30.6004 19.6629C30.4246 19.8387 30.1861 19.9375 29.9375 19.9375C29.6889 19.9375 29.4504 19.8387 29.2746 19.6629C29.0988 19.4871 29 19.2486 29 19C29 18.7514 29.0988 18.5129 29.2746 18.3371C29.4504 18.1613 29.6889 18.0625 29.9375 18.0625ZM33.375 18.0625C33.6236 18.0625 33.8621 18.1613 34.0379 18.3371C34.2137 18.5129 34.3125 18.7514 34.3125 19C34.3125 19.2486 34.2137 19.4871 34.0379 19.6629C33.8621 19.8387 33.6236 19.9375 33.375 19.9375C33.1264 19.9375 32.8879 19.8387 32.7121 19.6629C32.5363 19.4871 32.4375 19.2486 32.4375 19C32.4375 18.7514 32.5363 18.5129 32.7121 18.3371C32.8879 18.1613 33.1264 18.0625 33.375 18.0625ZM36.8125 18.0625C37.0611 18.0625 37.2996 18.1613 37.4754 18.3371C37.6512 18.5129 37.75 18.7514 37.75 19C37.75 19.2486 37.6512 19.4871 37.4754 19.6629C37.2996 19.8387 37.0611 19.9375 36.8125 19.9375C36.5639 19.9375 36.3254 19.8387 36.1496 19.6629C35.9738 19.4871 35.875 19.2486 35.875 19C35.875 18.7514 35.9738 18.5129 36.1496 18.3371C36.3254 18.1613 36.5639 18.0625 36.8125 18.0625Z" fill="#11AF00"/>
</svg>
