<svg width="58" height="58" viewBox="0 0 58 58" fill="none" xmlns="http://www.w3.org/2000/svg">
<circle cx="29" cy="29" r="29" fill="#ECF8F0"/>
<g clipPath="url(#clip0_1524_1253)">
<path d="M39.8376 31.1064C40.2519 31.5208 40.5096 32.0945 40.5096 32.7274C40.5096 33.3616 40.2519 33.934 39.8376 34.3497C39.4219 34.7641 38.8494 35.0197 38.2166 35.0197C37.5824 35.0197 37.01 34.7641 36.5943 34.3497C36.1799 33.934 35.9242 33.3616 35.9242 32.7274C35.9242 32.0952 36.1806 31.5208 36.5943 31.1064C37.01 30.692 37.5824 30.4344 38.2166 30.4344C38.8494 30.4344 39.4219 30.692 39.8376 31.1064ZM46.0007 32.2453V33.2108C46.0007 33.499 45.8221 33.7454 45.5472 33.8337L44.8619 34.0555C44.6474 34.1252 44.4946 34.2833 44.4349 34.4998C44.2986 34.9769 44.1079 35.4369 43.8664 35.8704C43.7575 36.0663 43.7535 36.2861 43.8551 36.486L44.1825 37.1295C44.314 37.3851 44.2655 37.6846 44.0623 37.8898L43.379 38.5731C43.1758 38.7763 42.8763 38.8235 42.6186 38.6933L41.9752 38.3659C41.776 38.2623 41.5555 38.2663 41.3596 38.3772C40.9264 38.619 40.4664 38.8091 39.989 38.9437C39.7725 39.0061 39.6144 39.1582 39.5467 39.3727L39.3229 40.058C39.2346 40.3329 38.9895 40.5095 38.7 40.5095H37.7345C37.4463 40.5095 37.1999 40.3322 37.1116 40.058L36.8898 39.3727C36.8201 39.1582 36.662 39.0054 36.4455 38.9437C35.9681 38.809 35.5081 38.6189 35.0749 38.3772C34.879 38.2683 34.6592 38.2623 34.4593 38.3659L33.8158 38.6933C33.5595 38.8235 33.2607 38.7763 33.0555 38.5731L32.3722 37.8898C32.169 37.6846 32.1218 37.3851 32.252 37.1295L32.5794 36.486C32.6829 36.2868 32.679 36.0663 32.5681 35.8704C32.3263 35.4372 32.1362 34.9772 32.0016 34.4998C31.9392 34.2833 31.7871 34.1252 31.5726 34.0555L30.8873 33.8337C30.6124 33.7454 30.4358 33.4984 30.4358 33.2108V32.2453C30.4358 31.9551 30.6124 31.7107 30.8873 31.6224L31.5746 31.3986C31.7871 31.3289 31.9399 31.1728 32.0016 30.9563C32.1372 30.4792 32.3272 30.0193 32.5681 29.5857C32.679 29.3898 32.6829 29.17 32.5794 28.9701L32.252 28.3266C32.1218 28.069 32.169 27.7695 32.3722 27.5663L33.0555 26.883C33.2607 26.6798 33.5602 26.6306 33.8158 26.7628L34.4593 27.0902C34.6585 27.1918 34.879 27.1878 35.0749 27.0789C35.5039 26.8398 35.9634 26.6479 36.4455 26.5104C36.662 26.45 36.8201 26.2979 36.8898 26.0834L37.1116 25.3981C37.1999 25.1232 37.4469 24.9446 37.7345 24.9446H38.7C38.9902 24.9446 39.2346 25.1232 39.3229 25.3981L39.5467 26.0834C39.6144 26.2979 39.7725 26.4507 39.989 26.5104C40.4661 26.6466 40.9261 26.8374 41.3596 27.0789C41.5555 27.1878 41.7753 27.1918 41.9752 27.0902L42.6186 26.7628C42.8763 26.6313 43.1758 26.6798 43.379 26.883L44.0623 27.5663C44.2655 27.7695 44.3147 28.069 44.1825 28.3266L43.8551 28.9701C43.7535 29.1693 43.7575 29.3898 43.8664 29.5857C44.1055 30.0147 44.2974 30.4742 44.4349 30.9563C44.4953 31.1728 44.6474 31.3309 44.8619 31.3986L45.5472 31.6224C45.8221 31.7107 46.0007 31.9551 46.0007 32.2453ZM41.6053 32.7274C41.6053 31.7917 41.2268 30.945 40.6132 30.3314C39.9996 29.7178 39.1522 29.3373 38.2166 29.3373C37.2789 29.3373 36.4322 29.7178 35.8186 30.3314C35.2051 30.945 34.8265 31.7924 34.8265 32.7274C34.8265 33.665 35.2051 34.5117 35.8186 35.1253C36.4322 35.7389 37.2796 36.1174 38.2166 36.1174C39.1522 36.1174 39.9989 35.7389 40.6132 35.1253C41.2268 34.5117 41.6053 33.6644 41.6053 32.7274ZM30.8475 39.9783H28.4509L27.7204 37.9416H22.4929L21.7644 39.9783H19.3678C19.065 39.9783 18.818 40.2233 18.818 40.5261C18.818 40.8289 19.0644 41.076 19.3678 41.076H30.8468C31.1496 41.076 31.3967 40.8296 31.3967 40.5261C31.3973 40.2227 31.151 39.9783 30.8475 39.9783ZM29.3606 31.9438H11.9994V18.6413C11.9994 17.6963 12.773 16.9247 13.718 16.9247H36.4986C37.4436 16.9247 38.2172 17.6963 38.2172 18.6413V23.8462H37.7338C36.9695 23.8462 36.3034 24.3316 36.0677 25.0588L35.9149 25.5236C35.5138 25.6518 35.124 25.8138 34.7495 26.0077L34.3126 25.7853C33.6332 25.4386 32.8177 25.5668 32.2779 26.1073L31.5945 26.7907C31.054 27.3292 30.9265 28.144 31.2725 28.8253L31.4943 29.2623C31.3024 29.6368 31.1403 30.0266 31.0122 30.4277L30.5453 30.5785C29.9178 30.7823 29.4695 31.3096 29.3606 31.9438ZM18.9036 24.7082L22.5367 22.6788C22.8004 22.532 22.896 22.1987 22.7492 21.935C22.6025 21.6714 22.2691 21.5758 22.0055 21.7225L17.5217 24.2261C17.4303 24.2766 17.3547 24.3516 17.3033 24.4425C17.1565 24.7062 17.2521 25.0395 17.5158 25.1863L22.0055 27.6938C22.2691 27.8405 22.6025 27.7462 22.7492 27.4813C22.896 27.2177 22.8004 26.8843 22.5367 26.7375L18.9036 24.7082ZM26.1678 20.0869C25.8723 20.0192 25.5788 20.2038 25.5111 20.4993L23.6384 28.6746C23.5707 28.9681 23.7553 29.2616 24.0488 29.3294C24.3443 29.3971 24.6378 29.2125 24.7056 28.917L26.5782 20.7437C26.646 20.4482 26.4613 20.1547 26.1678 20.0869ZM28.2105 27.6938L32.7002 25.1863C32.9638 25.0395 33.0595 24.7062 32.9127 24.4425C32.8615 24.3514 32.7858 24.2764 32.6942 24.2261L28.2105 21.7225C27.9468 21.5758 27.6135 21.6714 27.4667 21.935C27.32 22.1987 27.4156 22.532 27.6792 22.6788L31.3123 24.7082L27.6792 26.7375C27.4156 26.8843 27.32 27.2177 27.4667 27.4813C27.6135 27.7462 27.9468 27.8405 28.2105 27.6938ZM30.5467 34.8769C29.8202 34.6419 29.3361 33.9752 29.3361 33.2108V33.0415H11.9994V35.1273C11.9994 36.0703 12.773 36.8439 13.718 36.8439H31.1808C31.2074 36.7722 31.2373 36.7011 31.2731 36.6314L31.4949 36.1945C31.3028 35.8195 31.1409 35.4298 31.0108 35.029L30.5467 34.8769Z" fill="#11AF00"/>
</g>
<defs>
<clipPath id="clip0_1524_1253">
<rect width="34" height="34" fill="white" transform="translate(12 12)"/>
</clipPath>
</defs>
</svg>
