<svg width="58" height="58" viewBox="0 0 58 58" fill="none" xmlns="http://www.w3.org/2000/svg">
<circle cx="29" cy="29" r="29" fill="#F4F5F9"/>
<path d="M35.3252 38.7413H31.0559V37.5944H25.9441V38.7413H21.6748C21.2056 38.7413 20.8252 39.1217 20.8252 39.5909C20.8252 40.0602 21.2056 40.4406 21.6748 40.4406H35.3252C35.7944 40.4406 36.1748 40.0602 36.1748 39.5909C36.1748 39.1217 35.7944 38.7413 35.3252 38.7413Z" fill="#5E5FDC"/>
<path d="M24.2343 25.9477C25.1786 25.9477 25.9441 25.1822 25.9441 24.2378C25.9441 23.2935 25.1786 22.528 24.2343 22.528C23.2899 22.528 22.5244 23.2935 22.5244 24.2378C22.5244 25.1822 23.2899 25.9477 24.2343 25.9477Z" fill="#5E5FDC"/>
<path d="M42.1504 16.5594H14.8496C14.3804 16.5594 14 16.9398 14 17.4091V31.9161H43V17.4091C43 16.9398 42.6196 16.5594 42.1504 16.5594ZM28.5 25.0874H27.5361C27.4559 25.3976 27.3321 25.695 27.1684 25.9705L27.8513 26.6533C28.1831 26.9851 28.1831 27.523 27.8513 27.8548C27.6854 28.0207 27.468 28.1037 27.2506 28.1037C27.0332 28.1037 26.8157 28.0208 26.6498 27.8548L25.967 27.172C25.6915 27.3357 25.3942 27.4595 25.0839 27.5396V28.5035C25.0839 28.9727 24.7035 29.3531 24.2343 29.3531C23.7651 29.3531 23.3847 28.9727 23.3847 28.5035V27.5396C23.0744 27.4595 22.7771 27.3357 22.5016 27.172L21.8187 27.8548C21.6528 28.0207 21.4353 28.1037 21.2179 28.1037C21.0006 28.1037 20.7831 28.0208 20.6172 27.8548C20.2854 27.523 20.2854 26.9851 20.6172 26.6533L21.3001 25.9705C21.1364 25.695 21.0126 25.3976 20.9324 25.0874H19.9685C19.4993 25.0874 19.1189 24.707 19.1189 24.2378C19.1189 23.7686 19.4993 23.3882 19.9685 23.3882H20.9324C21.0126 23.0779 21.1364 22.7806 21.3001 22.5051L20.6172 21.8222C20.2854 21.4904 20.2854 20.9525 20.6172 20.6207C20.949 20.2889 21.4869 20.2889 21.8187 20.6207L22.5016 21.3036C22.7771 21.1399 23.0744 21.0161 23.3847 20.9359V19.972C23.3847 19.5028 23.7651 19.1224 24.2343 19.1224C24.7035 19.1224 25.0839 19.5028 25.0839 19.972V20.9359C25.3942 21.0161 25.6915 21.1399 25.967 21.3036L26.6498 20.6207C26.9816 20.2889 27.5196 20.2889 27.8514 20.6207C28.1832 20.9525 28.1832 21.4904 27.8514 21.8222L27.1685 22.5051C27.3322 22.7806 27.456 23.0779 27.5361 23.3882H28.5C28.9692 23.3882 29.3496 23.7686 29.3496 24.2378C29.3496 24.707 28.9692 25.0874 28.5 25.0874ZM37.0315 28.5H31.9126C31.4434 28.5 31.063 28.1196 31.063 27.6504C31.063 27.1812 31.4434 26.8008 31.9126 26.8008H37.0315C37.5007 26.8008 37.8811 27.1812 37.8811 27.6504C37.8811 28.1196 37.5007 28.5 37.0315 28.5ZM37.0315 25.0874H31.9126C31.4434 25.0874 31.063 24.707 31.063 24.2378C31.063 23.7686 31.4434 23.3882 31.9126 23.3882H37.0315C37.5007 23.3882 37.8811 23.7686 37.8811 24.2378C37.8811 24.707 37.5007 25.0874 37.0315 25.0874ZM37.0315 21.6748H31.9126C31.4434 21.6748 31.063 21.2944 31.063 20.8252C31.063 20.356 31.4434 19.9756 31.9126 19.9756H37.0315C37.5007 19.9756 37.8811 20.356 37.8811 20.8252C37.8811 21.2944 37.5007 21.6748 37.0315 21.6748ZM14 35.0455C14 35.5147 14.3804 35.8951 14.8496 35.8951H42.1504C42.6196 35.8951 43 35.5147 43 35.0455V33.6153H14V35.0455Z" fill="#5E5FDC"/>
</svg>
