<svg width="58" height="58" viewBox="0 0 58 58" fill="none" xmlns="http://www.w3.org/2000/svg">
<circle cx="29" cy="29" r="29" fill="#FEF2EF"/>
<g clipPath="url(#clip0_1524_1500)">
<path d="M19.0977 15.5543V20.1543H14.4977L19.0977 15.5543ZM24.9499 36.0926C23.7614 34.805 23.0342 33.0855 23.0342 31.1992C23.0342 27.2172 26.2738 23.9775 30.2559 23.9775C34.2379 23.9775 37.4775 27.2172 37.4775 31.1992C37.4775 33.0855 36.7503 34.805 35.5618 36.0926C35.3004 34.6676 34.355 33.5224 33.097 32.9717C33.6218 32.3353 33.9375 31.5203 33.9375 30.6328C33.9375 28.6028 32.2859 26.9512 30.2559 26.9512C28.2258 26.9512 26.5742 28.6028 26.5742 30.6328C26.5742 31.5202 26.8899 32.3353 27.4147 32.9717C26.1567 33.5224 25.2113 34.6676 24.9499 36.0926Z" fill="#D95D37"/>
<path d="M30.2559 32.6152C29.161 32.6152 28.2734 31.7277 28.2734 30.6328C28.2734 29.538 29.161 28.6504 30.2559 28.6504C31.3507 28.6504 32.2383 29.538 32.2383 30.6328C32.2383 31.7277 31.3507 32.6152 30.2559 32.6152Z" fill="#D95D37"/>
<path d="M33.8987 36.4408L34.0491 37.3418C32.946 38.0255 31.6463 38.4209 30.2558 38.4209C28.8653 38.4209 27.5656 38.0255 26.4625 37.3418L26.6128 36.4407C26.8185 35.2087 27.8742 34.3145 29.123 34.3145H31.3886C32.6374 34.3145 33.693 35.2087 33.8987 36.4408Z" fill="#D95D37"/>
<path d="M19.9473 21.8535C20.4165 21.8535 20.7969 21.4731 20.7969 21.0039V15.0566H34.1074C35.2005 15.0566 36.0898 15.946 36.0898 17.0391V24.4556C34.5246 23.0997 32.4844 22.2783 30.2559 22.2783C28.5782 22.2783 27.0075 22.7441 25.6655 23.5527H18.248C17.7788 23.5527 17.3984 23.9331 17.3984 24.4023C17.3984 24.8716 17.7788 25.252 18.248 25.252H23.6128C23.1482 25.7699 22.7456 26.3401 22.4129 26.9512H18.248C17.7788 26.9512 17.3984 27.3316 17.3984 27.8008C17.3984 28.27 17.7788 28.6504 18.248 28.6504H21.7066C21.5411 29.2046 21.4302 29.7738 21.3756 30.3496H18.248C17.7788 30.3496 17.3984 30.73 17.3984 31.1992C17.3984 31.6684 17.7788 32.0488 18.248 32.0488H21.3756C21.4302 32.6247 21.5411 33.1938 21.7066 33.748H18.248C17.7788 33.748 17.3984 34.1284 17.3984 34.5977C17.3984 35.0669 17.7788 35.4473 18.248 35.4473H22.4129C23.9253 38.2283 26.8738 40.1201 30.2559 40.1201C31.4703 40.1201 32.6286 39.8758 33.6849 39.4344L36.0898 41.8393V41.9609C36.0898 43.054 35.2005 43.9434 34.1074 43.9434H15.9824C14.8893 43.9434 14 43.054 14 41.9609V21.8535H19.9473ZM23.3457 21.8535H31.8418C32.311 21.8535 32.6914 21.4731 32.6914 21.0039C32.6914 20.5347 32.311 20.1543 31.8418 20.1543H23.3457C22.8765 20.1543 22.4961 20.5347 22.4961 21.0039C22.4961 21.4731 22.8765 21.8535 23.3457 21.8535ZM18.248 38.8457H22.7793C23.2485 38.8457 23.6289 38.4653 23.6289 37.9961C23.6289 37.5269 23.2485 37.1465 22.7793 37.1465H18.248C17.7788 37.1465 17.3984 37.5269 17.3984 37.9961C17.3984 38.4653 17.7788 38.8457 18.248 38.8457Z" fill="#D95D37"/>
<path d="M37.6479 36.1882L42.5023 41.0426C43.1659 41.7062 43.1659 42.7821 42.5023 43.4457C41.8387 44.1092 40.7628 44.1093 40.0993 43.4457L35.2448 38.5912C36.1913 37.9502 37.0069 37.1346 37.6479 36.1882Z" fill="#D95D37"/>
</g>
<defs>
<clipPath id="clip0_1524_1500">
<rect width="29" height="29" fill="white" transform="matrix(-1 0 0 1 43 15)"/>
</clipPath>
</defs>
</svg>
