<svg width="58" height="58" viewBox="0 0 58 58" fill="none" xmlns="http://www.w3.org/2000/svg">
<circle cx="29" cy="29" r="29" fill="#FEF2EF"/>
<path d="M29 40.6562C29.2589 40.6562 29.4688 40.4464 29.4688 40.1875C29.4688 39.9286 29.2589 39.7188 29 39.7188C28.7411 39.7188 28.5312 39.9286 28.5312 40.1875C28.5312 40.4464 28.7411 40.6562 29 40.6562Z" fill="#D95D37"/>
<path d="M20.0938 40.1875C20.0945 40.8089 20.3417 41.4046 20.781 41.844C21.2204 42.2833 21.8161 42.5305 22.4375 42.5312H35.5625C36.1839 42.5305 36.7796 42.2833 37.219 41.844C37.6583 41.4046 37.9055 40.8089 37.9062 40.1875V37.8438H20.0938V40.1875ZM32.75 39.7188H34.625C34.7493 39.7188 34.8685 39.7681 34.9565 39.856C35.0444 39.944 35.0938 40.0632 35.0938 40.1875C35.0938 40.3118 35.0444 40.431 34.9565 40.519C34.8685 40.6069 34.7493 40.6562 34.625 40.6562H32.75C32.6257 40.6562 32.5065 40.6069 32.4185 40.519C32.3306 40.431 32.2812 40.3118 32.2812 40.1875C32.2812 40.0632 32.3306 39.944 32.4185 39.856C32.5065 39.7681 32.6257 39.7188 32.75 39.7188ZM29 38.7812C29.2781 38.7812 29.55 38.8637 29.7813 39.0182C30.0125 39.1728 30.1928 39.3924 30.2992 39.6494C30.4056 39.9063 30.4335 40.1891 30.3792 40.4618C30.325 40.7346 30.191 40.9852 29.9944 41.1819C29.7977 41.3785 29.5471 41.5125 29.2743 41.5667C29.0016 41.621 28.7188 41.5931 28.4619 41.4867C28.2049 41.3803 27.9853 41.2 27.8307 40.9688C27.6762 40.7375 27.5938 40.4656 27.5938 40.1875C27.5941 39.8147 27.7424 39.4572 28.006 39.1935C28.2697 38.9299 28.6272 38.7816 29 38.7812ZM23.375 39.7188H25.25C25.3743 39.7188 25.4935 39.7681 25.5815 39.856C25.6694 39.944 25.7188 40.0632 25.7188 40.1875C25.7188 40.3118 25.6694 40.431 25.5815 40.519C25.4935 40.6069 25.3743 40.6562 25.25 40.6562H23.375C23.2507 40.6562 23.1315 40.6069 23.0435 40.519C22.9556 40.431 22.9062 40.3118 22.9062 40.1875C22.9062 40.0632 22.9556 39.944 23.0435 39.856C23.1315 39.7681 23.2507 39.7188 23.375 39.7188ZM38.8438 19.0938H19.1562C19.0319 19.0938 18.9127 19.1431 18.8248 19.231C18.7369 19.319 18.6875 19.4382 18.6875 19.5625V22.375H39.3125V19.5625C39.3125 19.4382 39.2631 19.319 39.1752 19.231C39.0873 19.1431 38.9681 19.0938 38.8438 19.0938ZM33.6875 21.2031C33.5948 21.2031 33.5042 21.1756 33.4271 21.1241C33.35 21.0726 33.2899 20.9994 33.2544 20.9138C33.219 20.8281 33.2097 20.7339 33.2278 20.6429C33.2458 20.552 33.2905 20.4685 33.356 20.4029C33.4216 20.3374 33.5051 20.2927 33.5961 20.2746C33.687 20.2565 33.7812 20.2658 33.8669 20.3013C33.9525 20.3368 34.0257 20.3969 34.0773 20.474C34.1288 20.551 34.1562 20.6417 34.1562 20.7344C34.1562 20.8587 34.1069 20.9779 34.019 21.0658C33.931 21.1537 33.8118 21.2031 33.6875 21.2031ZM35.5625 21.2031C35.4698 21.2031 35.3792 21.1756 35.3021 21.1241C35.225 21.0726 35.1649 20.9994 35.1294 20.9138C35.094 20.8281 35.0847 20.7339 35.1028 20.6429C35.1208 20.552 35.1655 20.4685 35.231 20.4029C35.2966 20.3374 35.3801 20.2927 35.4711 20.2746C35.562 20.2565 35.6562 20.2658 35.7419 20.3013C35.8275 20.3368 35.9007 20.3969 35.9523 20.474C36.0038 20.551 36.0312 20.6417 36.0312 20.7344C36.0312 20.8587 35.9819 20.9779 35.894 21.0658C35.806 21.1537 35.6868 21.2031 35.5625 21.2031ZM37.4375 21.2031C37.3448 21.2031 37.2542 21.1756 37.1771 21.1241C37.1 21.0726 37.0399 20.9994 37.0044 20.9138C36.969 20.8281 36.9597 20.7339 36.9778 20.6429C36.9958 20.552 37.0405 20.4685 37.106 20.4029C37.1716 20.3374 37.2551 20.2927 37.3461 20.2746C37.437 20.2565 37.5312 20.2658 37.6169 20.3013C37.7025 20.3368 37.7757 20.3969 37.8273 20.474C37.8788 20.551 37.9062 20.6417 37.9062 20.7344C37.9062 20.8587 37.8569 20.9779 37.769 21.0658C37.681 21.1537 37.5618 21.2031 37.4375 21.2031ZM20.0938 34.5625H37.9062V36.9062H20.0938V34.5625ZM37.9062 15.8125C37.9055 15.1911 37.6583 14.5954 37.219 14.156C36.7796 13.7167 36.1839 13.4695 35.5625 13.4688H22.4375C21.8161 13.4695 21.2204 13.7167 20.781 14.156C20.3417 14.5954 20.0945 15.1911 20.0938 15.8125V18.1562H37.9062V15.8125ZM30.875 16.2812H27.125C27.0007 16.2812 26.8815 16.2319 26.7935 16.144C26.7056 16.056 26.6562 15.9368 26.6562 15.8125C26.6562 15.6882 26.7056 15.569 26.7935 15.481C26.8815 15.3931 27.0007 15.3438 27.125 15.3438H30.875C30.9993 15.3438 31.1185 15.3931 31.2065 15.481C31.2944 15.569 31.3438 15.6882 31.3438 15.8125C31.3438 15.9368 31.2944 16.056 31.2065 16.144C31.1185 16.2319 30.9993 16.2812 30.875 16.2812ZM32.75 16.2812C32.6573 16.2812 32.5667 16.2538 32.4896 16.2023C32.4125 16.1507 32.3524 16.0775 32.3169 15.9919C32.2815 15.9062 32.2722 15.812 32.2903 15.7211C32.3083 15.6301 32.353 15.5466 32.4185 15.481C32.4841 15.4155 32.5676 15.3708 32.6586 15.3528C32.7495 15.3347 32.8437 15.344 32.9294 15.3794C33.015 15.4149 33.0882 15.475 33.1398 15.5521C33.1913 15.6292 33.2188 15.7198 33.2188 15.8125C33.2188 15.9368 33.1694 16.056 33.0815 16.144C32.9935 16.2319 32.8743 16.2812 32.75 16.2812ZM18.6875 33.1562C18.6875 33.2806 18.7369 33.3998 18.8248 33.4877C18.9127 33.5756 19.0319 33.625 19.1562 33.625H38.8438C38.9681 33.625 39.0873 33.5756 39.1752 33.4877C39.2631 33.3998 39.3125 33.2806 39.3125 33.1562V23.3125H18.6875V33.1562ZM32.1842 25.9877C32.0988 25.8992 32.0516 25.7808 32.0527 25.6579C32.0537 25.535 32.103 25.4175 32.1899 25.3306C32.2768 25.2436 32.3944 25.1943 32.5173 25.1933C32.6402 25.1922 32.7586 25.2395 32.847 25.3248L35.1908 27.6686C35.2787 27.7565 35.328 27.8757 35.328 28C35.328 28.1243 35.2787 28.2435 35.1908 28.3314L32.847 30.6752C32.7586 30.7605 32.6402 30.8078 32.5173 30.8067C32.3944 30.8057 32.2768 30.7564 32.1899 30.6694C32.103 30.5825 32.0537 30.465 32.0527 30.3421C32.0516 30.2192 32.0988 30.1007 32.1842 30.0123L34.1966 28L32.1842 25.9877ZM27.163 31.0966L29.9755 24.5341C30.0256 24.4216 30.118 24.3333 30.2327 24.2884C30.3474 24.2435 30.4751 24.2455 30.5883 24.2941C30.7015 24.3426 30.7911 24.4337 30.8376 24.5478C30.8842 24.6618 30.8839 24.7896 30.837 24.9034L28.0245 31.4659C27.9744 31.5784 27.882 31.6667 27.7673 31.7116C27.6526 31.7565 27.5249 31.7545 27.4117 31.7059C27.2985 31.6574 27.2089 31.5663 27.1624 31.4522C27.1158 31.3382 27.1161 31.2104 27.163 31.0966ZM22.8092 27.6686L25.153 25.3248C25.2414 25.2395 25.3598 25.1922 25.4827 25.1933C25.6056 25.1943 25.7232 25.2436 25.8101 25.3306C25.897 25.4175 25.9463 25.535 25.9473 25.6579C25.9484 25.7808 25.9012 25.8992 25.8158 25.9877L23.8034 28L25.8158 30.0123C25.9012 30.1007 25.9484 30.2192 25.9473 30.3421C25.9463 30.465 25.897 30.5825 25.8101 30.6694C25.7232 30.7564 25.6056 30.8057 25.4827 30.8067C25.3598 30.8078 25.2414 30.7605 25.153 30.6752L22.8092 28.3314C22.7213 28.2435 22.672 28.1243 22.672 28C22.672 27.8757 22.7213 27.7565 22.8092 27.6686Z" fill="#D95D37"/>
</svg>
