<svg width="58" height="58" viewBox="0 0 58 58" fill="none" xmlns="http://www.w3.org/2000/svg">
<circle cx="29" cy="29" r="29" fill="#F4F5F9"/>
<path d="M29 26H25V24H28V22C28 21.7348 28.1054 21.4804 28.2929 21.2929C28.4804 21.1054 28.7348 21 29 21H33V23H30V25C30 25.2652 29.8946 25.5196 29.7071 25.7071C29.5196 25.8946 29.2652 26 29 26ZM36 37H22C21.4696 37 20.9609 37.2107 20.5858 37.5858C20.2107 37.9609 20 38.4696 20 39V41C20 41.5304 20.2107 42.0391 20.5858 42.4142C20.9609 42.7893 21.4696 43 22 43H36C36.5304 43 37.0391 42.7893 37.4142 42.4142C37.7893 42.0391 38 41.5304 38 41V39C38 38.4696 37.7893 37.9609 37.4142 37.5858C37.0391 37.2107 36.5304 37 36 37ZM27.5 40.5H22.5C22.3674 40.5 22.2402 40.4473 22.1464 40.3536C22.0527 40.2598 22 40.1326 22 40C22 39.8674 22.0527 39.7402 22.1464 39.6464C22.2402 39.5527 22.3674 39.5 22.5 39.5H27.5C27.6326 39.5 27.7598 39.5527 27.8536 39.6464C27.9473 39.7402 28 39.8674 28 40C28 40.1326 27.9473 40.2598 27.8536 40.3536C27.7598 40.4473 27.6326 40.5 27.5 40.5ZM32 41C31.7348 41 31.4804 40.8946 31.2929 40.7071C31.1054 40.5196 31 40.2652 31 40C31 39.7348 31.1054 39.4804 31.2929 39.2929C31.4804 39.1054 31.7348 39 32 39C32.2652 39 32.5196 39.1054 32.7071 39.2929C32.8946 39.4804 33 39.7348 33 40C33 40.2652 32.8946 40.5196 32.7071 40.7071C32.5196 40.8946 32.2652 41 32 41ZM35 41C34.7348 41 34.4804 40.8946 34.2929 40.7071C34.1054 40.5196 34 40.2652 34 40C34 39.7348 34.1054 39.4804 34.2929 39.2929C34.4804 39.1054 34.7348 39 35 39C35.2652 39 35.5196 39.1054 35.7071 39.2929C35.8946 39.4804 36 39.7348 36 40C36 40.2652 35.8946 40.5196 35.7071 40.7071C35.5196 40.8946 35.2652 41 35 41ZM36 30H22C21.4696 30 20.9609 30.2107 20.5858 30.5858C20.2107 30.9609 20 31.4696 20 32V34C20 34.5304 20.2107 35.0391 20.5858 35.4142C20.9609 35.7893 21.4696 36 22 36H36C36.5304 36 37.0391 35.7893 37.4142 35.4142C37.7893 35.0391 38 34.5304 38 34V32C38 31.4696 37.7893 30.9609 37.4142 30.5858C37.0391 30.2107 36.5304 30 36 30ZM27.5 33.5H22.5C22.3674 33.5 22.2402 33.4473 22.1464 33.3536C22.0527 33.2598 22 33.1326 22 33C22 32.8674 22.0527 32.7402 22.1464 32.6464C22.2402 32.5527 22.3674 32.5 22.5 32.5H27.5C27.6326 32.5 27.7598 32.5527 27.8536 32.6464C27.9473 32.7402 28 32.8674 28 33C28 33.1326 27.9473 33.2598 27.8536 33.3536C27.7598 33.4473 27.6326 33.5 27.5 33.5ZM32 34C31.7348 34 31.4804 33.8946 31.2929 33.7071C31.1054 33.5196 31 33.2652 31 33C31 32.7348 31.1054 32.4804 31.2929 32.2929C31.4804 32.1054 31.7348 32 32 32C32.2652 32 32.5196 32.1054 32.7071 32.2929C32.8946 32.4804 33 32.7348 33 33C33 33.2652 32.8946 33.5196 32.7071 33.7071C32.5196 33.8946 32.2652 34 32 34ZM35 34C34.7348 34 34.4804 33.8946 34.2929 33.7071C34.1054 33.5196 34 33.2652 34 33C34 32.7348 34.1054 32.4804 34.2929 32.2929C34.4804 32.1054 34.7348 32 35 32C35.2652 32 35.5196 32.1054 35.7071 32.2929C35.8946 32.4804 36 32.7348 36 33C36 33.2652 35.8946 33.5196 35.7071 33.7071C35.5196 33.8946 35.2652 34 35 34ZM24 18H15V16C15 15.7348 15.1054 15.4804 15.2929 15.2929C15.4804 15.1054 15.7348 15 16 15H23C23.2652 15 23.5196 15.1054 23.7071 15.2929C23.8946 15.4804 24 15.7348 24 16V18ZM23 29H16C15.7348 29 15.4804 28.8946 15.2929 28.7071C15.1054 28.5196 15 28.2652 15 28V19H24V28C24 28.2652 23.8946 28.5196 23.7071 28.7071C23.5196 28.8946 23.2652 29 23 29ZM43 18H34V16C34 15.7348 34.1054 15.4804 34.2929 15.2929C34.4804 15.1054 34.7348 15 35 15H42C42.2652 15 42.5196 15.1054 42.7071 15.2929C42.8946 15.4804 43 15.7348 43 16V18ZM42 29H35C34.7348 29 34.4804 28.8946 34.2929 28.7071C34.1054 28.5196 34 28.2652 34 28V19H43V28C43 28.2652 42.8946 28.5196 42.7071 28.7071C42.5196 28.8946 42.2652 29 42 29Z" fill="#5E5FDC"/>
</svg>
