<svg width="58" height="58" viewBox="0 0 58 58" fill="none" xmlns="http://www.w3.org/2000/svg">
<circle cx="29" cy="29" r="29" fill="#FEF2EF"/>
<g clip-path="url(#clip0_1524_1527)">
<path d="M28.9655 22.0743L27.9731 20.5862H29.9579L28.9655 22.0743ZM42 30.8276C42 32.113 40.9578 33.1551 39.6724 33.1551H36.8793C36.1081 33.1551 35.4828 33.7805 35.4828 34.5517V41.0689H33.6207V32.6896C33.6207 31.4042 34.6629 30.362 35.9483 30.362H37.8103C38.5816 30.362 39.2069 29.7367 39.2069 28.9655V23.8448C39.2069 23.7213 39.1579 23.6029 39.0705 23.5156C38.9832 23.4283 38.8648 23.3793 38.7414 23.3793C38.6179 23.3793 38.4995 23.4283 38.4122 23.5156C38.3249 23.6029 38.2759 23.7213 38.2759 23.8448V28.9655C38.2759 29.089 38.2268 29.2074 38.1395 29.2947C38.0522 29.382 37.9338 29.431 37.8103 29.431H32.2241V27.5689H36.4138V22.9138C36.4138 22.1425 37.0391 21.5172 37.8103 21.5172H39.6724C40.9578 21.5172 42 22.5594 42 23.8448V30.8276ZM15.931 30.8276V23.8448C15.931 22.5594 16.9732 21.5172 18.2586 21.5172H20.1207C20.8919 21.5172 21.5172 22.1425 21.5172 22.9138V27.5689H25.7069V29.431H20.1207C19.9972 29.431 19.8788 29.382 19.7915 29.2947C19.7042 29.2074 19.6552 29.089 19.6552 28.9655V23.8448C19.6552 23.7213 19.6061 23.6029 19.5188 23.5156C19.4315 23.4283 19.3131 23.3793 19.1897 23.3793C19.0662 23.3793 18.9478 23.4283 18.8605 23.5156C18.7732 23.6029 18.7241 23.7213 18.7241 23.8448V28.9655C18.7241 29.7367 19.3494 30.362 20.1207 30.362H21.9828C23.2682 30.362 24.3103 31.4042 24.3103 32.6896V41.0689H22.4483V34.5517C22.4483 33.7805 21.823 33.1551 21.0517 33.1551H18.2586C16.9732 33.1551 15.931 32.113 15.931 30.8276Z" fill="#D95D37"/>
<path d="M33.1551 26.6379H31.293V29.431H26.6378V26.6379H24.7757V22.9138C24.7796 21.7221 25.6847 20.7267 26.8706 20.6098L28.9654 23.7516L31.0602 20.6085C32.2467 20.7253 33.1519 21.7216 33.1551 22.9138V26.6379ZM41.0688 33.9233H40.1378V42H41.0688V33.9233ZM17.793 33.9233H16.8619V42H17.793V33.9233ZM28.4999 33.1552H29.4309V41.069H31.293V42H26.6378V41.069H28.4999V33.1552ZM17.793 18.2586C17.793 19.544 18.8352 20.5862 20.1206 20.5862C21.406 20.5862 22.4482 19.544 22.4482 18.2586C22.4482 16.9732 21.406 15.931 20.1206 15.931C18.8352 15.931 17.793 16.9732 17.793 18.2586ZM25.204 32.2241C25.1022 31.5164 24.7699 30.8619 24.2586 30.3621H33.6722C33.1609 30.8619 32.8287 31.5164 32.7268 32.2241H25.204ZM26.6378 17.3276C26.6378 18.613 27.68 19.6552 28.9654 19.6552C30.2508 19.6552 31.293 18.613 31.293 17.3276C31.293 16.0422 30.2508 15 28.9654 15C27.68 15 26.6378 16.0422 26.6378 17.3276ZM35.4826 18.2586C35.4826 19.544 36.5248 20.5862 37.8102 20.5862C39.0956 20.5862 40.1378 19.544 40.1378 18.2586C40.1378 16.9732 39.0956 15.931 37.8102 15.931C36.5248 15.931 35.4826 16.9732 35.4826 18.2586Z" fill="#D95D37"/>
</g>
<defs>
<clipPath id="clip0_1524_1527">
<rect width="27" height="27" fill="white" transform="matrix(-1 0 0 1 42 15)"/>
</clipPath>
</defs>
</svg>
