<svg width="58" height="58" viewBox="0 0 58 58" fill="none" xmlns="http://www.w3.org/2000/svg">
<circle cx="29" cy="29" r="29" fill="#FEF2EF"/>
<g clip-path="url(#clip0_1524_1218)">
<path d="M29 24C30.6569 24 32 22.6569 32 21C32 19.3431 30.6569 18 29 18C27.3431 18 26 19.3431 26 21C26 22.6569 27.3431 24 29 24Z" fill="#D95D37"/>
<path d="M36.5 35C37.1922 35 37.8689 34.7947 38.4445 34.4101C39.0201 34.0256 39.4687 33.4789 39.7336 32.8394C39.9985 32.1999 40.0678 31.4961 39.9327 30.8172C39.7977 30.1383 39.4644 29.5146 38.9749 29.0251C38.4854 28.5356 37.8617 28.2023 37.1828 28.0673C36.5039 27.9322 35.8001 28.0015 35.1606 28.2664C34.5211 28.5313 33.9744 28.9799 33.5899 29.5555C33.2053 30.1311 33 30.8078 33 31.5C33.0011 32.4279 33.3701 33.3176 34.0263 33.9737C34.6824 34.6299 35.5721 34.9989 36.5 35ZM34.6465 30.3535C34.5554 30.2592 34.505 30.1329 34.5062 30.0018C34.5073 29.8707 34.5599 29.7453 34.6526 29.6526C34.7453 29.5599 34.8707 29.5073 35.0018 29.5062C35.1329 29.505 35.2592 29.5554 35.3535 29.6465L36.5 30.793L37.6465 29.6465C37.7408 29.5554 37.8671 29.505 37.9982 29.5062C38.1293 29.5073 38.2547 29.5599 38.3474 29.6526C38.4401 29.7453 38.4927 29.8707 38.4938 30.0018C38.495 30.1329 38.4446 30.2592 38.3535 30.3535L37.207 31.5L38.3535 32.6465C38.4013 32.6926 38.4393 32.7478 38.4656 32.8088C38.4918 32.8698 38.5055 32.9354 38.5061 33.0018C38.5067 33.0682 38.4941 33.134 38.4689 33.1955C38.4438 33.2569 38.4066 33.3128 38.3597 33.3597C38.3128 33.4066 38.2569 33.4438 38.1955 33.4689C38.134 33.4941 38.0682 33.5067 38.0018 33.5061C37.9354 33.5056 37.8698 33.4918 37.8088 33.4656C37.7478 33.4393 37.6926 33.4013 37.6465 33.3535L36.5 32.207L35.3535 33.3535C35.2592 33.4446 35.1329 33.495 35.0018 33.4938C34.8707 33.4927 34.7453 33.4401 34.6526 33.3474C34.5599 33.2547 34.5073 33.1293 34.5062 32.9982C34.505 32.8671 34.5554 32.7408 34.6465 32.6465L35.793 31.5L34.6465 30.3535Z" fill="#D95D37"/>
<path d="M34 37H42V19C42 18.6022 41.842 18.2206 41.5607 17.9393C41.2794 17.658 40.8978 17.5 40.5 17.5H34.8805L34.35 18.2955C34.485 18.5605 34.599 18.8355 34.692 19.1175L36.1965 19.4295C36.4231 19.4749 36.627 19.5974 36.7735 19.7762C36.92 19.9549 37 20.1789 37 20.41V21.59C37 21.8212 36.9199 22.0452 36.7733 22.224C36.6267 22.4027 36.4227 22.5252 36.196 22.5705L34.696 22.8705C34.6044 23.1534 34.4914 23.4288 34.358 23.6945L35.2 24.978C35.3281 25.1704 35.3856 25.4012 35.3627 25.6312C35.3398 25.8612 35.238 26.0761 35.0745 26.2395L34.2405 27.074C34.077 27.2374 33.8619 27.3392 33.6318 27.3619C33.4017 27.3846 33.1708 27.3268 32.9785 27.1985L31.7055 26.3485C31.4405 26.4835 31.1655 26.5975 30.8835 26.6905L30.5715 28.195C30.5264 28.422 30.4038 28.6264 30.2249 28.7732C30.0459 28.92 29.8215 29.0002 29.59 29H28.41C28.1788 29 27.9548 28.9199 27.776 28.7733C27.5973 28.6267 27.4748 28.4227 27.4295 28.196L27.1295 26.696C26.8466 26.6044 26.5712 26.4914 26.3055 26.358L25.022 27.2C24.8296 27.3281 24.5988 27.3856 24.3688 27.3627C24.1388 27.3398 23.9239 27.238 23.7605 27.0745L22.926 26.2405C22.7626 26.077 22.6608 25.8619 22.6381 25.6318C22.6154 25.4017 22.6732 25.1708 22.8015 24.9785L23.6515 23.7055C23.5166 23.4407 23.4023 23.1659 23.3095 22.8835L21.805 22.5715C21.578 22.5264 21.3736 22.4038 21.2268 22.2249C21.08 22.0459 20.9998 21.8215 21 21.59V20.41C21 20.1788 21.0801 19.9548 21.2267 19.776C21.3733 19.5973 21.5773 19.4748 21.804 19.4295L23.304 19.1295C23.3956 18.8466 23.5086 18.5712 23.642 18.3055L23.1145 17.5H17.5C17.1022 17.5 16.7206 17.658 16.4393 17.9393C16.158 18.2206 16 18.6022 16 19V37H34ZM36.5 27C37.39 27 38.26 27.2639 39.0001 27.7584C39.7401 28.2529 40.3169 28.9557 40.6575 29.7779C40.9981 30.6002 41.0872 31.505 40.9135 32.3779C40.7399 33.2508 40.3113 34.0526 39.682 34.682C39.0526 35.3113 38.2508 35.7399 37.3779 35.9135C36.505 36.0872 35.6002 35.9981 34.7779 35.6575C33.9557 35.3169 33.2529 34.7401 32.7584 34.0001C32.2639 33.26 32 32.39 32 31.5C32.0015 30.307 32.476 29.1632 33.3196 28.3196C34.1632 27.476 35.307 27.0015 36.5 27ZM17 31.5C17 30.61 17.2639 29.74 17.7584 28.9999C18.2529 28.2599 18.9557 27.6831 19.7779 27.3425C20.6002 27.0019 21.505 26.9128 22.3779 27.0865C23.2508 27.2601 24.0526 27.6887 24.682 28.318C25.3113 28.9474 25.7399 29.7492 25.9135 30.6221C26.0872 31.495 25.9981 32.3998 25.6575 33.2221C25.3169 34.0443 24.7401 34.7471 24.0001 35.2416C23.26 35.7361 22.39 36 21.5 36C20.307 35.9985 19.1632 35.524 18.3196 34.6804C17.476 33.8368 17.0015 32.693 17 31.5Z" fill="#D95D37"/>
<path d="M24.537 18.754C24.4275 18.9725 24.334 19.1985 24.2575 19.4305C24.2026 19.6006 24.1036 19.753 23.9705 19.8723C23.8374 19.9916 23.675 20.0735 23.5 20.1095L22 20.4095V21.5895L23.5 21.8895C23.6747 21.9259 23.8366 22.0078 23.9693 22.1271C24.102 22.2464 24.2008 22.3987 24.2555 22.5685C24.332 22.8005 24.4255 23.0265 24.535 23.2445C24.7 23.5675 24.679 23.9545 24.48 24.258L23.63 25.5315L24.4645 26.366L25.738 25.516C25.901 25.408 26.0925 25.351 26.288 25.351C26.4485 25.351 26.607 25.389 26.7505 25.461C26.969 25.5705 27.195 25.664 27.427 25.7405C27.598 25.795 27.7513 25.8942 27.8713 26.0277C27.9913 26.1611 28.0735 26.3242 28.1095 26.5L28.4095 28H29.5895L29.8895 26.5C29.9259 26.3253 30.0078 26.1634 30.1271 26.0307C30.2464 25.898 30.3987 25.7992 30.5685 25.7445C30.8005 25.668 31.0265 25.5745 31.2445 25.465C31.4034 25.3844 31.5807 25.3471 31.7586 25.3567C31.9365 25.3664 32.1088 25.4227 32.258 25.52L33.5315 26.37L34.366 25.5355L33.516 24.262C33.4183 24.113 33.3618 23.9408 33.3522 23.7629C33.3425 23.585 33.3801 23.4077 33.461 23.249C33.5705 23.0305 33.664 22.8045 33.7405 22.5725C33.7951 22.4016 33.8943 22.2484 34.0278 22.1285C34.1612 22.0086 34.3242 21.9265 34.5 21.8905L36 21.5905V20.41L34.5 20.11C34.3253 20.0736 34.1634 19.9917 34.0307 19.8724C33.898 19.7531 33.7992 19.6008 33.7445 19.431C33.668 19.1991 33.5746 18.9732 33.465 18.755C33.3841 18.5962 33.3465 18.4188 33.3562 18.2409C33.3658 18.0629 33.4224 17.8906 33.52 17.7415L34.1415 16.809C34.2056 16.7128 34.2345 16.5974 34.2231 16.4823C34.2117 16.3673 34.1608 16.2597 34.079 16.178L33.8245 15.9235C33.7428 15.8417 33.6352 15.7908 33.5202 15.7794C33.4051 15.768 33.2897 15.7969 33.1935 15.861L32.259 16.482C31.9555 16.681 31.569 16.702 31.246 16.537C31.0276 16.4275 30.8015 16.3341 30.5695 16.2575C30.3994 16.2026 30.247 16.1036 30.1277 15.9705C30.0084 15.8374 29.9265 15.675 29.8905 15.5L29.6705 14.4C29.6474 14.287 29.586 14.1854 29.4966 14.1125C29.4072 14.0396 29.2954 13.9999 29.18 14H28.82C28.7047 13.9999 28.5928 14.0396 28.5034 14.1125C28.414 14.1854 28.3526 14.287 28.3295 14.4L28.1095 15.5C28.0731 15.6747 27.9912 15.8366 27.8719 15.9693C27.7526 16.102 27.6003 16.2008 27.4305 16.2555C27.1985 16.332 26.9725 16.4255 26.7545 16.535C26.431 16.7 26.0445 16.6785 25.741 16.48L24.8085 15.8605C24.7123 15.7964 24.5969 15.7675 24.4818 15.7789C24.3668 15.7903 24.2592 15.8412 24.1775 15.923L23.923 16.1775C23.8412 16.2592 23.7903 16.3668 23.7789 16.4818C23.7675 16.5969 23.7964 16.7123 23.8605 16.8085L24.482 17.741C24.681 18.0445 24.702 18.431 24.537 18.754ZM29 17C29.7911 17 30.5645 17.2346 31.2223 17.6741C31.8801 18.1136 32.3928 18.7384 32.6955 19.4693C32.9983 20.2002 33.0775 21.0044 32.9231 21.7804C32.7688 22.5563 32.3878 23.269 31.8284 23.8284C31.269 24.3878 30.5563 24.7688 29.7804 24.9231C29.0044 25.0775 28.2002 24.9983 27.4693 24.6955C26.7384 24.3928 26.1137 23.8801 25.6741 23.2223C25.2346 22.5645 25 21.7911 25 21C25.0012 19.9395 25.423 18.9228 26.1729 18.1729C26.9228 17.423 27.9395 17.0012 29 17ZM21.5 28C20.8078 28 20.1311 28.2053 19.5555 28.5899C18.9799 28.9744 18.5313 29.5211 18.2664 30.1606C18.0015 30.8002 17.9322 31.5039 18.0673 32.1828C18.2023 32.8618 18.5356 33.4854 19.0251 33.9749C19.5146 34.4644 20.1383 34.7977 20.8172 34.9328C21.4961 35.0678 22.1999 34.9985 22.8394 34.7336C23.4789 34.4687 24.0256 34.0201 24.4101 33.4445C24.7947 32.8689 25 32.1922 25 31.5C24.9989 30.5721 24.6299 29.6824 23.9737 29.0263C23.3176 28.3701 22.4279 28.0011 21.5 28ZM23.8535 30.3535L20.8535 33.3535C20.7597 33.4472 20.6326 33.4999 20.5 33.4999C20.3674 33.4999 20.2403 33.4472 20.1465 33.3535L19.1465 32.3535C19.0554 32.2592 19.005 32.1329 19.0062 32.0018C19.0073 31.8707 19.0599 31.7453 19.1526 31.6526C19.2453 31.5599 19.3707 31.5073 19.5018 31.5062C19.6329 31.505 19.7592 31.5554 19.8535 31.6465L20.5 32.293L23.1465 29.6465C23.2408 29.5554 23.3671 29.505 23.4982 29.5062C23.6293 29.5073 23.7547 29.5599 23.8474 29.6526C23.9401 29.7453 23.9927 29.8707 23.9938 30.0018C23.995 30.1329 23.9446 30.2592 23.8535 30.3535ZM25.5 39.5H32.5C32.7652 39.5 33.0196 39.3946 33.2071 39.2071C33.3946 39.0196 33.5 38.7652 33.5 38.5V38H24.5V38.5C24.5 38.7652 24.6054 39.0196 24.7929 39.2071C24.9804 39.3946 25.2348 39.5 25.5 39.5Z" fill="#D95D37"/>
<path d="M34.5 38V38.5C34.5 39.0304 34.2893 39.5391 33.9142 39.9142C33.5391 40.2893 33.0304 40.5 32.5 40.5H25.5C24.9696 40.5 24.4609 40.2893 24.0858 39.9142C23.7107 39.5391 23.5 39.0304 23.5 38.5V38H15.5C15.3674 38 15.2402 38.0527 15.1464 38.1464C15.0527 38.2402 15 38.3674 15 38.5V39.5C15 40.163 15.2634 40.7989 15.7322 41.2678C16.2011 41.7366 16.837 42 17.5 42H40.5C41.163 42 41.7989 41.7366 42.2678 41.2678C42.7366 40.7989 43 40.163 43 39.5V38.5C43 38.3674 42.9473 38.2402 42.8536 38.1464C42.7598 38.0527 42.6326 38 42.5 38H34.5ZM17 40C16.8674 40 16.7402 39.9473 16.6464 39.8536C16.5527 39.7598 16.5 39.6326 16.5 39.5C16.5 39.3674 16.5527 39.2402 16.6464 39.1464C16.7402 39.0527 16.8674 39 17 39C17.1326 39 17.2598 39.0527 17.3536 39.1464C17.4473 39.2402 17.5 39.3674 17.5 39.5C17.5 39.6326 17.4473 39.7598 17.3536 39.8536C17.2598 39.9473 17.1326 40 17 40ZM18.5 40C18.3674 40 18.2402 39.9473 18.1464 39.8536C18.0527 39.7598 18 39.6326 18 39.5C18 39.3674 18.0527 39.2402 18.1464 39.1464C18.2402 39.0527 18.3674 39 18.5 39C18.6326 39 18.7598 39.0527 18.8536 39.1464C18.9473 39.2402 19 39.3674 19 39.5C19 39.6326 18.9473 39.7598 18.8536 39.8536C18.7598 39.9473 18.6326 40 18.5 40ZM21.5 40H20C19.8674 40 19.7402 39.9473 19.6464 39.8536C19.5527 39.7598 19.5 39.6326 19.5 39.5C19.5 39.3674 19.5527 39.2402 19.6464 39.1464C19.7402 39.0527 19.8674 39 20 39H21.5C21.6326 39 21.7598 39.0527 21.8536 39.1464C21.9473 39.2402 22 39.3674 22 39.5C22 39.6326 21.9473 39.7598 21.8536 39.8536C21.7598 39.9473 21.6326 40 21.5 40Z" fill="#D95D37"/>
</g>
<defs>
<clipPath id="clip0_1524_1218">
<rect width="28" height="28" fill="white" transform="translate(15 14)"/>
</clipPath>
</defs>
</svg>
