<svg width="58" height="58" viewBox="0 0 58 58" fill="none" xmlns="http://www.w3.org/2000/svg">
<circle cx="29" cy="29" r="29" fill="#F4F5F9"/>
<path d="M40.4819 38.5034C39.777 36.4055 36.9676 35.0923 34.9645 34.212C34.1798 33.8683 32.0074 33.2852 31.7463 32.2972C31.6528 31.9412 31.6654 31.6056 31.7421 31.2839C31.6202 31.3079 31.4963 31.3202 31.3721 31.3207H30.067C29.5662 31.3201 29.0861 31.1209 28.732 30.7668C28.3779 30.4126 28.1788 29.9325 28.1784 29.4317C28.1784 28.3912 29.0254 27.5452 30.067 27.5452H31.3721C31.8033 27.5452 32.2121 27.6912 32.5418 27.9516C33.011 27.8897 33.474 27.7883 33.9261 27.6485C34.4969 26.4525 34.9421 25.0224 35.0419 23.7915C35.4678 18.5247 32.2391 15.4433 27.6096 15.976C24.2437 16.3634 22.2329 18.8733 22.0156 22.1045C21.7958 25.398 23.0169 27.8305 24.314 29.6148C24.8821 30.3949 25.4788 30.8965 25.3871 31.8366C25.2807 32.9482 24.0921 33.2579 23.242 33.5995C22.2347 34.0041 21.1497 34.618 20.6373 34.9019C18.8722 35.8766 16.935 37.0505 16.4996 38.6563C15.5353 42.2151 18.7917 43.2931 21.4801 43.7908C23.7873 44.2164 26.3888 44.25 28.5287 44.25C32.3994 44.25 39.3595 44.095 40.4819 41.1854C40.8011 40.3598 40.6643 39.0441 40.4819 38.5034Z" fill="#5E5FDC"/>
<path d="M32.1981 28.9C32.1087 28.7625 31.9864 28.6493 31.8423 28.5709C31.6982 28.4925 31.5368 28.4513 31.3728 28.451H30.0676C29.9363 28.4475 29.8056 28.4703 29.6833 28.5182C29.5609 28.566 29.4494 28.6379 29.3553 28.7295C29.2612 28.8211 29.1864 28.9307 29.1353 29.0517C29.0842 29.1728 29.0579 29.3028 29.0579 29.4341C29.0579 29.5655 29.0842 29.6955 29.1353 29.8166C29.1864 29.9376 29.2612 30.0472 29.3553 30.1388C29.4494 30.2304 29.5609 30.3023 29.6833 30.3501C29.8056 30.398 29.9363 30.4208 30.0676 30.4173H31.3728C31.5523 30.4172 31.7283 30.3674 31.8814 30.2736C32.0345 30.1798 32.1588 30.0456 32.2404 29.8856C34.0601 29.7425 35.6428 29.1867 36.7537 28.3659C37.0088 28.5304 37.3105 28.6267 37.636 28.6267H37.7179C37.9336 28.6267 38.1471 28.5843 38.3463 28.5017C38.5455 28.4192 38.7265 28.2982 38.8789 28.1456C39.0313 27.993 39.1521 27.8119 39.2344 27.6126C39.3168 27.4134 39.359 27.1998 39.3587 26.9841V23.7053C39.3588 23.3957 39.2709 23.0923 39.1054 22.8306C38.9398 22.5689 38.7034 22.3596 38.4235 22.2269C38.1827 16.9619 33.8242 12.75 28.5 12.75C23.1758 12.75 18.8165 16.9619 18.5768 22.2269C18.2967 22.3594 18.06 22.5686 17.8943 22.8304C17.7286 23.0921 17.6407 23.3956 17.6409 23.7053V26.9841C17.6406 27.1997 17.6828 27.4131 17.765 27.6123C17.8473 27.8115 17.968 27.9926 18.1202 28.1451C18.2725 28.2976 18.4533 28.4187 18.6523 28.5013C18.8514 28.584 19.0648 28.6266 19.2803 28.6267H19.3632C19.5788 28.6267 19.7923 28.5841 19.9914 28.5015C20.1906 28.4189 20.3715 28.2979 20.5238 28.1454C20.6762 27.9928 20.797 27.8118 20.8793 27.6125C20.9616 27.4133 21.0039 27.1997 21.0037 26.9841V23.7053C21.0035 23.4 20.9179 23.1008 20.7566 22.8415C20.5953 22.5822 20.3647 22.3732 20.0909 22.2381C20.325 17.8019 24.0063 14.2658 28.5 14.2658C32.9919 14.2658 36.6749 17.8019 36.908 22.2381C36.6344 22.3735 36.4041 22.5826 36.243 22.8418C36.0819 23.101 35.9965 23.4001 35.9963 23.7053V26.9841C35.9963 27.2018 36.0386 27.4045 36.1132 27.5938C35.157 28.2781 33.765 28.7656 32.1981 28.9Z" fill="#5E5FDC"/>
</svg>
