<svg width="58" height="58" viewBox="0 0 58 58" fill="none" xmlns="http://www.w3.org/2000/svg">
<circle cx="29" cy="29" r="29" fill="#F4F5F9"/>
<path d="M28.5 26.1875C28.0375 26.1875 27.7292 26.0333 27.4208 25.725L22.025 20.3292C21.4083 19.7125 21.4083 18.7875 22.025 18.1708L27.4208 12.775C28.0375 12.1583 28.9625 12.1583 29.5792 12.775L34.975 18.1708C35.5917 18.7875 35.5917 19.7125 34.975 20.3292L29.5792 25.725C29.2708 26.0333 28.9625 26.1875 28.5 26.1875ZM25.2625 19.25L28.5 22.4875L31.7375 19.25L28.5 16.0125L25.2625 19.25ZM28.5 44.6875C28.0375 44.6875 27.7292 44.5333 27.4208 44.225L22.025 38.8292C21.4083 38.2125 21.4083 37.2875 22.025 36.6708L27.4208 31.275C28.0375 30.6583 28.9625 30.6583 29.5792 31.275L34.975 36.6708C35.5917 37.2875 35.5917 38.2125 34.975 38.8292L29.5792 44.225C29.2708 44.5333 28.9625 44.6875 28.5 44.6875ZM25.2625 37.75L28.5 40.9875L31.7375 37.75L28.5 34.5125L25.2625 37.75ZM37.75 35.4375C37.2875 35.4375 36.9792 35.2833 36.6708 34.975L31.275 29.5792C30.6583 28.9625 30.6583 28.0375 31.275 27.4208L36.6708 22.025C37.2875 21.4083 38.2125 21.4083 38.8292 22.025L44.225 27.4208C44.8417 28.0375 44.8417 28.9625 44.225 29.5792L38.8292 34.975C38.5208 35.2833 38.2125 35.4375 37.75 35.4375ZM34.5125 28.5L37.75 31.7375L40.9875 28.5L37.75 25.2625L34.5125 28.5ZM19.25 35.4375C18.7875 35.4375 18.4792 35.2833 18.1708 34.975L12.775 29.5792C12.1583 28.9625 12.1583 28.0375 12.775 27.4208L18.1708 22.025C18.7875 21.4083 19.7125 21.4083 20.3292 22.025L25.725 27.4208C26.3417 28.0375 26.3417 28.9625 25.725 29.5792L20.3292 34.975C20.0208 35.2833 19.7125 35.4375 19.25 35.4375ZM16.0125 28.5L19.25 31.7375L22.4875 28.5L19.25 25.2625L16.0125 28.5Z" fill="#5E5FDC"/>
</svg>
