<svg width="58" height="58" viewBox="0 0 58 58" fill="none" xmlns="http://www.w3.org/2000/svg">
<circle cx="29" cy="29" r="29" fill="#ECF8F0"/>
<path d="M32.4915 35.5351C32.7546 35.5351 32.9679 35.3218 32.9679 35.0587C32.9679 34.7955 32.7546 34.5822 32.4915 34.5822C32.2283 34.5822 32.015 34.7955 32.015 35.0587C32.015 35.3218 32.2283 35.5351 32.4915 35.5351Z" fill="#11AF00"/>
<path d="M42.7671 14.7422H15.2328C14.3937 14.7422 13.7111 15.4249 13.7111 16.264V32.0436H44.2888V16.264C44.2888 15.4249 43.6062 14.7422 42.7671 14.7422ZM22.5573 24.6196C22.5573 25.736 21.5973 26.6462 20.4168 26.6462C19.2364 26.6462 18.2764 25.736 18.2764 24.6196V20.5449C18.2764 20.3458 18.4399 20.1822 18.6391 20.1822C18.8382 20.1822 19.0017 20.3458 19.0017 20.5449V24.6196C19.0017 25.3378 19.6346 25.9209 20.4168 25.9209C21.1991 25.9209 21.8319 25.3378 21.8319 24.6196V20.5449C21.8319 20.3458 21.9955 20.1822 22.1946 20.1822C22.3937 20.1822 22.5573 20.3458 22.5573 20.5449V24.6196ZM27.3502 26.1129C27.4426 26.2907 27.3786 26.5111 27.2008 26.6036C27.1439 26.632 27.0871 26.6462 27.0302 26.6462C26.9022 26.6462 26.7742 26.5751 26.7102 26.4542L25.4728 24.1573L24.2355 26.4542C24.1715 26.5751 24.0435 26.6462 23.9155 26.6462C23.8586 26.6462 23.8017 26.632 23.7448 26.6036C23.5671 26.5111 23.5031 26.2907 23.5955 26.1129L25.0604 23.3964L23.5955 20.6729C23.5031 20.4951 23.5671 20.2747 23.7448 20.1822C23.9226 20.0898 24.1431 20.1538 24.2355 20.3316L25.4728 22.6284L26.7102 20.3316C26.8026 20.1538 27.0231 20.0898 27.2008 20.1822C27.3786 20.2747 27.4426 20.4951 27.3502 20.6729L25.8853 23.3893L27.3502 26.1129ZM32.3066 18.9093L28.8862 28.1324C28.8293 28.2747 28.6942 28.3671 28.5448 28.3671C28.5022 28.3671 28.4595 28.36 28.4168 28.3458C28.2319 28.2747 28.1324 28.0684 28.2035 27.8764L31.6239 18.6533C31.6951 18.4684 31.9013 18.3689 32.0933 18.44C32.2782 18.5111 32.3777 18.7173 32.3066 18.9093ZM37.4053 24.6196C37.4053 25.736 36.4453 26.6462 35.2648 26.6462C34.0844 26.6462 33.1244 25.736 33.1244 24.6196V20.5449C33.1244 20.3458 33.2879 20.1822 33.4871 20.1822C33.6862 20.1822 33.8497 20.3458 33.8497 20.5449V24.6196C33.8497 25.3378 34.4826 25.9209 35.2648 25.9209C36.0471 25.9209 36.6799 25.3378 36.6799 24.6196V20.5449C36.6799 20.3458 36.8435 20.1822 37.0426 20.1822C37.2417 20.1822 37.4053 20.3458 37.4053 20.5449V24.6196ZM39.3608 27.0373C39.1617 27.0373 38.9982 26.8738 38.9982 26.6747V20.1111C38.9982 19.912 39.1617 19.7484 39.3608 19.7484C39.4604 19.7484 39.5528 19.7911 39.6168 19.8551C39.6808 19.9191 39.7235 20.0116 39.7235 20.1111V26.6747C39.7235 26.8738 39.5599 27.0373 39.3608 27.0373ZM13.7111 32.7689V35.8196C13.7111 36.6587 14.3937 37.3413 15.2328 37.3413H42.7599C43.5991 37.3413 44.2817 36.6587 44.2817 35.8196V32.7689H13.7111ZM25.5084 36.2533C24.8471 36.2533 24.3066 35.7129 24.3066 35.0516C24.3066 34.3902 24.8471 33.8498 25.5084 33.8498C26.1697 33.8498 26.7102 34.3902 26.7102 35.0516C26.7102 35.7129 26.1626 36.2533 25.5084 36.2533ZM28.9999 36.2533C28.3386 36.2533 27.7982 35.7129 27.7982 35.0516C27.7982 34.3902 28.3386 33.8498 28.9999 33.8498C29.6613 33.8498 30.2017 34.3902 30.2017 35.0516C30.2017 35.7129 29.6613 36.2533 28.9999 36.2533ZM32.4915 36.2533C31.8302 36.2533 31.2897 35.7129 31.2897 35.0516C31.2897 34.3902 31.8302 33.8498 32.4915 33.8498C33.1528 33.8498 33.6933 34.3902 33.6933 35.0516C33.6933 35.7129 33.1528 36.2533 32.4915 36.2533Z" fill="#11AF00"/>
<path d="M29.3312 35.3862C29.5173 35.2001 29.5173 34.8984 29.3312 34.7124C29.1452 34.5263 28.8435 34.5263 28.6575 34.7124C28.4714 34.8984 28.4714 35.2001 28.6575 35.3862C28.8435 35.5722 29.1452 35.5722 29.3312 35.3862Z" fill="#11AF00"/>
<path d="M25.8365 35.3895C26.0226 35.2034 26.0226 34.9018 25.8365 34.7157C25.6504 34.5297 25.3488 34.5297 25.1627 34.7157C24.9766 34.9018 24.9766 35.2034 25.1627 35.3895C25.3488 35.5756 25.6504 35.5756 25.8365 35.3895Z" fill="#11AF00"/>
<path d="M23.7448 38.0667H34.4257V40.6906H23.7448V38.0667ZM37.6826 42.3333C37.6826 42.8453 37.2702 43.2578 36.7582 43.2578H21.2417C20.7297 43.2578 20.3173 42.8453 20.3173 42.3333C20.3173 41.8213 20.7297 41.4089 21.2417 41.4089H36.7653C37.2702 41.4089 37.6826 41.8284 37.6826 42.3333Z" fill="#11AF00"/>
</svg>
