<svg width="58" height="58" viewBox="0 0 58 58" fill="none" xmlns="http://www.w3.org/2000/svg">
<circle cx="29" cy="29" r="29" fill="#ECF8F0"/>
<g clipPath="url(#clip0_1524_1562)">
<path d="M21.6337 28.5708C21.6337 28.8074 21.8261 29.0002 22.0631 29.0002H35.9378C36.1743 29.0002 36.3671 28.8078 36.3671 28.5708V22.0671H21.6341V28.5708H21.6337ZM33.3336 27.7001H31.6001C31.3611 27.7001 31.1669 27.5062 31.1669 27.267C31.1669 27.0277 31.3611 26.8335 31.6001 26.8335H33.3336C33.5726 26.8335 33.7668 27.0277 33.7668 27.2669C33.7668 27.5062 33.5726 27.7001 33.3336 27.7001ZM34.6334 25.9669H27.2669C27.152 25.9669 27.0418 25.9212 26.9606 25.84C26.8794 25.7587 26.8337 25.6485 26.8337 25.5336C26.8337 25.2945 27.0277 25.1002 27.2669 25.1002H34.6334C34.8727 25.1002 35.0669 25.2944 35.0669 25.5336C35.0669 25.7729 34.8727 25.9669 34.6334 25.9669ZM31.6001 23.3669H34.6334C34.8727 23.3669 35.0669 23.5612 35.0669 23.8004C35.0669 24.0396 34.8727 24.2336 34.6334 24.2336H31.6001C31.3611 24.2336 31.1669 24.0396 31.1669 23.8004C31.1669 23.5612 31.3611 23.3669 31.6001 23.3669ZM23.3669 23.3669H29.4336C29.6728 23.3669 29.8668 23.5612 29.8668 23.8004C29.8668 24.0396 29.6728 24.2336 29.4336 24.2336H23.3669C23.252 24.2336 23.1419 24.1879 23.0606 24.1067C22.9794 24.0254 22.9337 23.9153 22.9337 23.8004C22.9337 23.5612 23.1277 23.3669 23.3669 23.3669ZM23.3669 25.1002H25.1002C25.3395 25.1002 25.5336 25.2944 25.5336 25.5336C25.5336 25.7729 25.3395 25.9669 25.1002 25.9669H23.3669C23.252 25.9669 23.1419 25.9212 23.0606 25.84C22.9794 25.7587 22.9337 25.6485 22.9337 25.5336C22.9337 25.2945 23.1277 25.1002 23.3669 25.1002ZM23.3669 26.8335H29.8668C30.1061 26.8335 30.3002 27.0277 30.3002 27.2669C30.3002 27.5062 30.1061 27.7001 29.8668 27.7001H23.3669C23.2521 27.7001 23.1419 27.6545 23.0607 27.5733C22.9794 27.492 22.9338 27.3819 22.9337 27.267C22.9337 27.0277 23.1277 26.8335 23.3669 26.8335ZM35.9373 18.6003H22.0628C21.8261 18.6003 21.6333 18.7928 21.6333 19.0298V21.2002H36.3663V19.0298C36.3667 18.7927 36.1739 18.6003 35.9373 18.6003ZM23.3669 20.3336H22.9337C22.6945 20.3336 22.5003 20.1396 22.5003 19.9004C22.5003 19.6612 22.6945 19.467 22.9337 19.467H23.3669C23.6062 19.467 23.8004 19.6612 23.8004 19.9004C23.8004 20.1396 23.6062 20.3336 23.3669 20.3336ZM25.5336 20.3336H25.1002C24.8612 20.3336 24.667 20.1396 24.667 19.9004C24.667 19.6612 24.8612 19.467 25.1002 19.467H25.5336C25.7729 19.467 25.9668 19.6612 25.9668 19.9004C25.9668 20.1396 25.7729 20.3336 25.5337 20.3336L25.5336 20.3336ZM27.7003 20.3336H27.2669C27.152 20.3336 27.0419 20.288 26.9606 20.2067C26.8794 20.1255 26.8337 20.0153 26.8337 19.9004C26.8337 19.6612 27.0277 19.467 27.2669 19.467H27.7003C27.9394 19.467 28.1335 19.6612 28.1335 19.9004C28.1335 20.1396 27.9394 20.3336 27.7004 20.3336L27.7003 20.3336Z" fill="#11AF00"/>
<path d="M40.1905 16.0005H17.8097C16.8117 16.0005 16 16.8122 16 17.8101V31.1669H41.9995V17.8102C41.9999 16.8122 41.1884 16.0005 40.1905 16.0005ZM37.2333 21.6337V28.5708C37.2333 29.2855 36.6523 29.8669 35.9372 29.8669H22.0627C21.3482 29.8669 20.7666 29.2855 20.7666 28.5708V19.0298C20.7662 18.3154 21.3476 17.7338 22.0627 17.7338H35.9372C36.6519 17.7338 37.2333 18.3154 37.2333 19.0298V21.6337ZM16.0004 35.424C16.0004 35.5487 16.0131 35.6705 16.0373 35.7884C16.2063 36.6121 16.9368 37.2334 17.81 37.2334H26.386C26.289 38.7636 25.6459 39.4001 24.2341 39.4001H23.3665C22.6502 39.4001 22.0674 39.9829 22.0674 40.6992V41.5668C22.0674 41.8058 22.2617 42 22.5007 42H35.5005C35.7396 42 35.9339 41.8058 35.9339 41.5668V40.6992C35.9339 39.9829 35.3511 39.4001 34.6348 39.4001H33.7672C32.3554 39.4001 31.7124 38.7636 31.6154 37.2334H40.1909C41.0641 37.2334 41.7942 36.6121 41.963 35.7884C41.9874 35.6706 41.9999 35.5487 41.9999 35.424V32.0336H16.0004V35.424ZM31.4987 39.4001H26.5012C26.9442 38.8957 27.1963 38.1725 27.2534 37.2334H30.7462C30.804 38.1725 31.0554 38.8957 31.4987 39.4001V39.4001ZM27.7004 33.3335C27.7004 33.0944 27.8943 32.9002 28.1335 32.9002H29.8668C30.106 32.9002 30.3002 33.0944 30.3002 33.3334V35.0669C30.3002 35.306 30.106 35.5001 29.8668 35.5001H28.1335C27.8943 35.5001 27.7004 35.306 27.7004 35.0669V33.3335Z" fill="#11AF00"/>
<path d="M28.567 33.7667H29.4336V34.6334H28.567V33.7667Z" fill="#11AF00"/>
</g>
<defs>
<clipPath id="clip0_1524_1562">
<rect width="26" height="26" fill="white" transform="translate(16 16)"/>
</clipPath>
</defs>
</svg>
