<svg width="26" height="30" viewBox="0 0 26 30" fill="none" xmlns="http://www.w3.org/2000/svg">
<path fill-rule="evenodd" clip-rule="evenodd" d="M17.6063 4.78931C18.6999 3.52182 19.4371 1.75647 19.2354 0C17.6594 0.06 15.7528 1.00672 14.6228 2.27271C13.6081 3.39619 12.7223 5.19135 12.9604 6.91333C14.7184 7.04382 16.5127 6.05828 17.6063 4.78931ZM21.5485 15.9375C21.5925 20.4779 25.7045 21.9883 25.75 22.0078C25.7166 22.1143 25.0932 24.1599 23.584 26.2749C22.2781 28.1019 20.9236 29.9214 18.7894 29.9604C16.6932 29.9979 16.0182 28.7695 13.6202 28.7695C11.2237 28.7695 10.4744 29.9213 8.4904 29.9978C6.43059 30.0713 4.86071 28.0212 3.54565 26.2002C0.854852 22.4757 -1.2004 15.6751 1.56016 11.0852C2.93135 8.80674 5.38097 7.36168 8.04142 7.32568C10.0633 7.28818 11.973 8.62939 13.2091 8.62939C14.4453 8.62939 16.766 7.01691 19.205 7.25391C20.2258 7.29441 23.0926 7.64828 24.9324 10.2297C24.7838 10.3182 21.5121 12.1426 21.5485 15.9375Z" fill="#B9B9B9"/>
</svg>
