<svg width="24" height="25" viewBox="0 0 24 25" fill="none" xmlns="http://www.w3.org/2000/svg">
<path d="M12 22.2925C17.5228 22.2925 22 17.8153 22 12.2925C22 6.76963 17.5228 2.29248 12 2.29248C6.47715 2.29248 2 6.76963 2 12.2925C2 17.8153 6.47715 22.2925 12 22.2925Z" stroke="white" stroke-width="2" stroke-linecap="round" stroke-linejoin="round"/>
<path d="M16 8.29248H10C9.46957 8.29248 8.96086 8.50319 8.58579 8.87827C8.21071 9.25334 8 9.76205 8 10.2925C8 10.8229 8.21071 11.3316 8.58579 11.7067C8.96086 12.0818 9.46957 12.2925 10 12.2925H14C14.5304 12.2925 15.0391 12.5032 15.4142 12.8783C15.7893 13.2533 16 13.762 16 14.2925C16 14.8229 15.7893 15.3316 15.4142 15.7067C15.0391 16.0818 14.5304 16.2925 14 16.2925H8" stroke="white" stroke-width="2" stroke-linecap="round" stroke-linejoin="round"/>
<path d="M12 18.2925V6.29248" stroke="white" stroke-width="2" stroke-linecap="round" stroke-linejoin="round"/>
</svg>
