<svg width="52" height="52" viewBox="0 0 52 52" fill="none" xmlns="http://www.w3.org/2000/svg">
<path d="M26 34.6641V45.4974" stroke="#141414" strokeWidth="2" strokeLinecap="round" strokeLinejoin="round"/>
<path d="M34.6641 30.3359V45.5026" stroke="#141414" strokeWidth="2" strokeLinecap="round" strokeLinejoin="round"/>
<path d="M43.3359 21.6641V45.4974" stroke="#141414" strokeWidth="2" strokeLinecap="round" strokeLinejoin="round"/>
<path d="M47.6693 6.5L28.9363 25.233C28.8356 25.3339 28.7161 25.4139 28.5845 25.4685C28.4529 25.5232 28.3118 25.5513 28.1693 25.5513C28.0268 25.5513 27.8857 25.5232 27.7541 25.4685C27.6224 25.4139 27.5029 25.3339 27.4023 25.233L20.2696 18.1003C20.0664 17.8972 19.7909 17.7831 19.5037 17.7831C19.2164 17.7831 18.9409 17.8972 18.7378 18.1003L4.33594 32.5" stroke="#141414" strokeWidth="2" strokeLinecap="round" strokeLinejoin="round"/>
<path d="M8.66406 39V45.5" stroke="#141414" strokeWidth="2" strokeLinecap="round" strokeLinejoin="round"/>
<path d="M17.3359 30.3359V45.5026" stroke="#141414" strokeWidth="2" strokeLinecap="round" strokeLinejoin="round"/>
</svg>
