<svg width="24" height="25" viewBox="0 0 24 25" fill="none" xmlns="http://www.w3.org/2000/svg">
<path d="M2 20.2925C2 20.8229 2.21071 21.3316 2.58579 21.7067C2.96086 22.0818 3.46957 22.2925 4 22.2925H20C20.5304 22.2925 21.0391 22.0818 21.4142 21.7067C21.7893 21.3316 22 20.8229 22 20.2925V8.29248L15 13.2925V8.29248L8 13.2925V4.29248C8 3.76205 7.78929 3.25334 7.41421 2.87827C7.03914 2.50319 6.53043 2.29248 6 2.29248H4C3.46957 2.29248 2.96086 2.50319 2.58579 2.87827C2.21071 3.25334 2 3.76205 2 4.29248V20.2925Z" stroke="white" stroke-width="2" stroke-linecap="round" stroke-linejoin="round"/>
<path d="M17 18.2925H18" stroke="white" stroke-width="2" stroke-linecap="round" stroke-linejoin="round"/>
<path d="M12 18.2925H13" stroke="white" stroke-width="2" stroke-linecap="round" stroke-linejoin="round"/>
<path d="M7 18.2925H8" stroke="white" stroke-width="2" stroke-linecap="round" stroke-linejoin="round"/>
</svg>
