<svg width="24" height="25" viewBox="0 0 24 25" fill="none" xmlns="http://www.w3.org/2000/svg">
<path d="M20 10.2925C20 15.2855 14.461 20.4855 12.601 22.0915C12.4277 22.2218 12.2168 22.2922 12 22.2922C11.7832 22.2922 11.5723 22.2218 11.399 22.0915C9.539 20.4855 4 15.2855 4 10.2925C4 8.17075 4.84285 6.13592 6.34315 4.63563C7.84344 3.13534 9.87827 2.29248 12 2.29248C14.1217 2.29248 16.1566 3.13534 17.6569 4.63563C19.1571 6.13592 20 8.17075 20 10.2925Z" stroke="white" strokeWidth="2" strokeLinecap="round" strokeLinejoin="round"/>
<path d="M12 13.2925C13.6569 13.2925 15 11.9493 15 10.2925C15 8.63563 13.6569 7.29248 12 7.29248C10.3431 7.29248 9 8.63563 9 10.2925C9 11.9493 10.3431 13.2925 12 13.2925Z" stroke="white" strokeWidth="2" strokeLinecap="round" strokeLinejoin="round"/>
</svg>
