<svg width="34" height="34" viewBox="0 0 34 34" fill="none" xmlns="http://www.w3.org/2000/svg">
<path d="M21.9613 19.9221C21.471 20.0486 21.0236 20.3042 20.6656 20.6622C20.3076 21.0202 20.052 21.4676 19.9255 21.9579L17.6844 30.6491C17.6423 30.7974 17.553 30.9279 17.43 31.0209C17.307 31.1138 17.1571 31.1641 17.003 31.1641C16.8488 31.1641 16.6989 31.1138 16.5759 31.0209C16.4529 30.9279 16.3636 30.7974 16.3215 30.6491L14.079 21.9579C13.9526 21.4678 13.6973 21.0205 13.3395 20.6625C12.9818 20.3045 12.5346 20.0488 12.0446 19.9221L3.35337 17.681C3.20451 17.6393 3.07336 17.5501 2.97993 17.4269C2.88651 17.3038 2.83594 17.1534 2.83594 16.9988C2.83594 16.8443 2.88651 16.6939 2.97993 16.5708C3.07336 16.4476 3.20451 16.3584 3.35337 16.3167L12.0446 14.077C12.5349 13.9505 12.9823 13.695 13.3403 13.3369C13.6984 12.9789 13.9539 12.5315 14.0804 12.0412L16.3201 3.34997C16.3613 3.20052 16.4505 3.06871 16.5738 2.97478C16.6972 2.88085 16.8479 2.82999 17.003 2.82999C17.158 2.82999 17.3088 2.88085 17.4321 2.97478C17.5554 3.06871 17.6446 3.20052 17.6858 3.34997L19.9255 12.0412C20.052 12.5315 20.3076 12.9789 20.6656 13.3369C21.0236 13.695 21.471 13.9505 21.9613 14.077L30.6525 16.3181C30.8014 16.3598 30.9326 16.449 31.026 16.5722C31.1194 16.6953 31.17 16.8457 31.17 17.0003C31.17 17.1548 31.1194 17.3052 31.026 17.4284C30.9326 17.5515 30.8014 17.6407 30.6525 17.6824L21.9613 19.9221Z" fill="#141414"/>
<path d="M4.25 5.66406L9.91667 5.66406" stroke="#141414" stroke-width="2" stroke-linecap="round" stroke-linejoin="round"/>
<path d="M7.08594 2.83333L7.08594 8.5" stroke="#141414" stroke-width="2" stroke-linecap="round" stroke-linejoin="round"/>
<path d="M24.0859 28.3359L26.9193 28.3359" stroke="#141414" stroke-width="2" stroke-linecap="round" stroke-linejoin="round"/>
<path d="M25.5 26.9167L25.5 29.75" stroke="#141414" stroke-width="2" stroke-linecap="round" stroke-linejoin="round"/>
</svg>
