<svg width="30" height="26" viewBox="0 0 30 26" fill="none" xmlns="http://www.w3.org/2000/svg">
<path d="M28.8246 19.9073C27.2236 20.7418 18.93 24.1518 17.1643 25.0722C15.3987 25.9929 14.4178 25.984 13.023 25.3172C11.6282 24.6503 2.80228 21.0853 1.21246 20.3254C0.417786 19.9456 0 19.6251 0 19.3222V16.2899C0 16.2899 11.4901 13.7885 13.3451 13.1231C15.2 12.4575 15.8437 12.4335 17.4222 13.0117C19.0009 13.5901 28.4398 15.2931 30 15.8645C30 15.8645 29.9993 18.5728 29.9993 18.8539C29.9995 19.1537 29.6395 19.4826 28.8246 19.9073Z" fill="#606060"/>
<path d="M28.824 16.8933C27.2231 17.7274 18.9298 21.1376 17.1641 22.058C15.3986 22.9787 14.4177 22.9697 13.0229 22.3029C11.6281 21.6366 2.80255 18.0709 1.21279 17.3114C-0.376974 16.5514 -0.410372 16.0284 1.15138 15.4169C2.71302 14.8052 11.4901 11.3617 13.3453 10.6962C15.2002 10.0309 15.8436 10.0066 17.4222 10.5851C19.0008 11.1633 27.2447 14.4446 28.8047 15.0159C30.365 15.5879 30.4249 16.0588 28.824 16.8933Z" fill="#DADADA"/>
<path d="M28.8246 15.001C27.2236 15.8355 18.93 19.2455 17.1643 20.1663C15.3987 21.0866 14.4178 21.0777 13.023 20.4109C11.6281 19.7444 2.80228 16.179 1.21246 15.4191C0.417786 15.0393 0 14.7191 0 14.4163V11.3836C0 11.3836 11.4901 8.8823 13.3451 8.21677C15.2 7.55136 15.8437 7.52722 17.4222 8.10544C19.0009 8.68378 28.4398 10.3864 30 10.958C30 10.958 29.9993 13.6663 29.9993 13.9478C29.9995 14.2474 29.6395 14.5763 28.8246 15.001Z" fill="#606060"/>
<path d="M28.824 11.986C27.2231 12.8204 18.9298 16.2303 17.1641 17.151C15.3986 18.0714 14.4177 18.0624 13.0229 17.3956C11.6281 16.7293 2.80255 13.1637 1.21279 12.4041C-0.376974 11.6444 -0.410372 11.1213 1.15138 10.5095C2.71302 9.89818 11.4901 6.45439 13.3453 5.789C15.2002 5.12361 15.8436 5.09947 17.4222 5.67779C19.0008 6.25599 27.2447 9.53712 28.8047 10.1086C30.365 10.6804 30.4249 11.1516 28.824 11.986Z" fill="#DADADA"/>
<path d="M28.8246 9.91277C27.2236 10.7473 18.93 14.1574 17.1643 15.0782C15.3987 15.9986 14.4178 15.9896 13.023 15.3228C11.6281 14.6563 2.80228 11.0908 1.21246 10.3311C0.417786 9.95121 0 9.63092 0 9.32833V6.29554C0 6.29554 11.4901 3.79433 13.3451 3.12892C15.2 2.46339 15.8437 2.43937 17.4222 3.01759C19.0009 3.59593 28.4398 5.2986 30 5.87014C30 5.87014 29.9993 8.57843 29.9993 8.8598C29.9995 9.15923 29.6395 9.48807 28.8246 9.91277Z" fill="#606060"/>
<path d="M28.824 6.89796C27.2231 7.73233 18.9298 11.1425 17.1641 12.063C15.3986 12.9834 14.4177 12.9744 13.0229 12.3078C11.6282 11.6412 2.80255 8.07593 1.21279 7.3162C-0.376974 6.55648 -0.410372 6.03323 1.15138 5.42163C2.71302 4.81015 11.4901 1.36672 13.3453 0.701091C15.2002 0.0355836 15.8436 0.0116774 17.4222 0.589997C19.0008 1.16832 27.2447 4.44945 28.8047 5.02097C30.365 5.59238 30.4249 6.06359 28.824 6.89796Z" fill="#DADADA"/>
<path d="M18.6691 3.94842L16.0899 4.21621L15.5125 5.60551L14.5798 4.05516L11.6016 3.78749L13.8239 2.98609L13.1571 1.75586L15.2377 2.56958L17.1992 1.92737L16.6691 3.19946L18.6691 3.94842Z" fill="white"/>
<path d="M15.3528 10.688L10.5391 8.69153L17.4369 7.63281L15.3528 10.688Z" fill="white"/>
<path d="M8.67893 4.7207C10.7151 4.7207 12.3657 5.36059 12.3657 6.14977C12.3657 6.93908 10.7151 7.57884 8.67893 7.57884C6.64288 7.57884 4.99219 6.93908 4.99219 6.14977C4.99219 5.36059 6.64288 4.7207 8.67893 4.7207Z" fill="white"/>
<path d="M21.7109 4.32812L25.7933 5.94138L21.7144 7.55301L21.7109 4.32812Z" fill="#979797"/>
<path d="M17.1953 6.11464L21.7117 4.32812L21.7152 7.55301L21.2724 7.72626L17.1953 6.11464Z" fill="#F5F5F5"/>
</svg>
