<svg width="36" height="36" viewBox="0 0 36 36" fill="none" xmlns="http://www.w3.org/2000/svg">
<circle cx="18" cy="18" r="18" fill="#E8F7FF"/>
<g clipPath="url(#clip0_1059_1856)">
<path d="M21.7455 15.9407C22.164 16.0385 22.5559 16.227 22.8936 16.4927C23.2314 16.7584 23.5068 17.0949 23.7005 17.4786C23.7362 17.55 23.7531 17.6293 23.7496 17.709C23.7461 17.7888 23.7222 17.8663 23.6802 17.9342C23.6382 18.0021 23.5796 18.0582 23.5099 18.097C23.4401 18.1359 23.3616 18.1562 23.2818 18.1562H13.7182C13.6384 18.1562 13.5599 18.1359 13.4901 18.097C13.4204 18.0582 13.3618 18.0021 13.3198 17.9342C13.2778 17.8663 13.2539 17.7888 13.2504 17.709C13.2469 17.6293 13.2638 17.55 13.2995 17.4786C13.4932 17.0949 13.7687 16.7583 14.1065 16.4926C14.4443 16.2269 14.8363 16.0385 15.2548 15.9407C16.1498 16.7338 17.3043 17.1718 18.5002 17.1718C19.696 17.1718 20.8505 16.7338 21.7455 15.9407ZM27.6875 17.1718H27.0312C26.9442 17.1718 26.8608 17.1372 26.7992 17.0757C26.7377 17.0142 26.7031 16.9307 26.7031 16.8437C26.7031 16.7566 26.7377 16.6732 26.7992 16.6117C26.8608 16.5501 26.9442 16.5155 27.0312 16.5155H27.6875C27.7745 16.5155 27.858 16.5501 27.9195 16.6117C27.9811 16.6732 28.0156 16.7566 28.0156 16.8437C28.0156 16.9307 27.9811 17.0142 27.9195 17.0757C27.858 17.1372 27.7745 17.1718 27.6875 17.1718ZM27.0312 25.9304V26.3593C27.0312 26.5333 26.9621 26.7003 26.839 26.8233C26.716 26.9464 26.549 27.0155 26.375 27.0155H25.7188C25.5447 27.0155 25.3778 26.9464 25.2547 26.8233C25.1316 26.7003 25.0625 26.5333 25.0625 26.3593V26.0312H26.375C26.5975 26.0298 26.8186 25.9959 27.0312 25.9304ZM13.5781 24.7187H23.4219C24.0954 24.721 24.748 24.9524 25.2725 25.3749H11.7275C12.252 24.9524 12.9046 24.721 13.5781 24.7187Z" fill="#02457C"/>
<path d="M18.5 12.9062C18.1376 12.9062 17.8438 12.6124 17.8438 12.25C17.8438 11.8876 18.1376 11.5938 18.5 11.5938C18.8624 11.5938 19.1562 11.8876 19.1562 12.25C19.1562 12.6124 18.8624 12.9062 18.5 12.9062Z" fill="#02457C"/>
<path d="M9.96875 17.1719H9.3125C9.22548 17.1719 9.14202 17.1373 9.08048 17.0758C9.01894 17.0142 8.98438 16.9308 8.98438 16.8438C8.98438 16.7567 9.01894 16.6733 9.08048 16.6117C9.14202 16.5502 9.22548 16.5156 9.3125 16.5156H9.96875C10.0558 16.5156 10.1392 16.5502 10.2008 16.6117C10.2623 16.6733 10.2969 16.7567 10.2969 16.8438C10.2969 16.9308 10.2623 17.0142 10.2008 17.0758C10.1392 17.1373 10.0558 17.1719 9.96875 17.1719ZM18.5 16.5156C17.6563 16.5156 16.8316 16.2655 16.1301 15.7967C15.4287 15.328 14.8819 14.6618 14.5591 13.8824C14.2362 13.1029 14.1517 12.2453 14.3163 11.4178C14.4809 10.5904 14.8872 9.83031 15.4837 9.23375C16.0803 8.63719 16.8404 8.23093 17.6678 8.06634C18.4953 7.90175 19.3529 7.98622 20.1324 8.30908C20.9118 8.63193 21.578 9.17867 22.0467 9.88015C22.5155 10.5816 22.7656 11.4063 22.7656 12.25C22.7643 13.3809 22.3145 14.4651 21.5148 15.2648C20.7151 16.0645 19.6309 16.5143 18.5 16.5156ZM21.5188 13.8752L21.1667 13.5228C21.2113 13.4288 21.251 13.3325 21.2855 13.2344H21.7812C21.8683 13.2344 21.9517 13.1998 22.0133 13.1383C22.0748 13.0767 22.1094 12.9933 22.1094 12.9063V11.5938C22.1094 11.5067 22.0748 11.4233 22.0133 11.3617C21.9517 11.3002 21.8683 11.2656 21.7812 11.2656H21.2855C21.2507 11.1674 21.2107 11.0712 21.1657 10.9772L21.5188 10.6248C21.5803 10.5633 21.6148 10.4798 21.6148 10.3928C21.6148 10.3058 21.5803 10.2224 21.5188 10.1608L20.5902 9.23224C20.5286 9.17072 20.4452 9.13617 20.3582 9.13617C20.2712 9.13617 20.1877 9.17072 20.1262 9.23224L19.7738 9.58464C19.6796 9.53933 19.583 9.49935 19.4844 9.46488V8.96875C19.4844 8.88173 19.4498 8.79827 19.3883 8.73673C19.3267 8.6752 19.2433 8.64063 19.1562 8.64063H17.8438C17.7567 8.64063 17.6733 8.6752 17.6117 8.73673C17.5502 8.79827 17.5156 8.88173 17.5156 8.96875V9.46488C17.4173 9.49938 17.321 9.53937 17.2272 9.58464L16.8748 9.23125C16.8121 9.17197 16.7291 9.13894 16.6428 9.13894C16.5565 9.13894 16.4735 9.17197 16.4108 9.23125L15.4822 10.1598C15.4207 10.2214 15.3862 10.3048 15.3862 10.3918C15.3862 10.4788 15.4207 10.5623 15.4822 10.6238L15.8343 10.9762C15.7893 11.0702 15.7493 11.1665 15.7145 11.2646H15.2188C15.1317 11.2646 15.0483 11.2992 14.9867 11.3607C14.9252 11.4223 14.8906 11.5057 14.8906 11.5928V12.9053C14.8906 12.9923 14.9252 13.0758 14.9867 13.1373C15.0483 13.1988 15.1317 13.2334 15.2188 13.2334H15.7145C15.7493 13.3316 15.7893 13.4279 15.8343 13.5218L15.4812 13.8752C15.4197 13.9367 15.3852 14.0202 15.3852 14.1072C15.3852 14.1942 15.4197 14.2776 15.4812 14.3392L16.4098 15.2678C16.4714 15.3293 16.5548 15.3638 16.6418 15.3638C16.7288 15.3638 16.8123 15.3293 16.8738 15.2678L17.2262 14.9154C17.32 14.9606 17.4163 15.0006 17.5146 15.0351V15.5313C17.5146 15.6183 17.5492 15.7017 17.6107 15.7633C17.6723 15.8248 17.7557 15.8594 17.8428 15.8594H19.1562C19.2433 15.8594 19.3267 15.8248 19.3883 15.7633C19.4498 15.7017 19.4844 15.6183 19.4844 15.5313V15.0351C19.5827 15.0006 19.679 14.9606 19.7728 14.9154L20.1252 15.2688C20.1879 15.328 20.2709 15.3611 20.3572 15.3611C20.4435 15.3611 20.5265 15.328 20.5892 15.2688L21.5178 14.3402C21.5484 14.3097 21.5728 14.2736 21.5895 14.2337C21.6061 14.1938 21.6147 14.1511 21.6148 14.1079C21.6149 14.0647 21.6065 14.0219 21.59 13.982C21.5735 13.942 21.5493 13.9058 21.5188 13.8752ZM11.9375 26.0313V26.3594C11.9375 26.5334 11.8684 26.7003 11.7453 26.8234C11.6222 26.9465 11.4553 27.0156 11.2812 27.0156H10.625C10.451 27.0156 10.284 26.9465 10.161 26.8234C10.0379 26.7003 9.96875 26.5334 9.96875 26.3594V25.9305C10.1814 25.996 10.4025 26.0299 10.625 26.0313H11.9375Z" fill="#02457C"/>
<path d="M20.8218 14.1072L20.3572 14.5718L20.0642 14.2788C20.0124 14.2269 19.9446 14.1938 19.8718 14.1849C19.7991 14.176 19.7254 14.1917 19.6625 14.2296C19.4791 14.3394 19.2807 14.4222 19.0736 14.4753C19.0033 14.4936 18.941 14.5348 18.8966 14.5922C18.8522 14.6497 18.8281 14.7203 18.8281 14.793V15.2031H18.1719V14.793C18.1719 14.7203 18.1478 14.6497 18.1034 14.5922C18.059 14.5348 17.9967 14.4936 17.9264 14.4753C17.7187 14.4223 17.5198 14.3396 17.3358 14.2296C17.273 14.1917 17.1993 14.176 17.1265 14.1849C17.0537 14.1938 16.986 14.2269 16.9342 14.2788L16.6412 14.5718L16.1765 14.1072L16.4696 13.8142C16.5214 13.7623 16.5544 13.6946 16.5633 13.6218C16.5721 13.549 16.5564 13.4753 16.5185 13.4125C16.4088 13.229 16.3261 13.0307 16.273 12.8236C16.2548 12.7535 16.2139 12.6915 16.1568 12.6471C16.0996 12.6027 16.0294 12.5785 15.957 12.5781H15.5469V11.9219H15.957C16.0297 11.9219 16.1003 11.8978 16.1578 11.8534C16.2152 11.809 16.2563 11.7467 16.2747 11.6764C16.3277 11.4693 16.4104 11.271 16.5201 11.0875C16.558 11.0247 16.5738 10.951 16.5649 10.8782C16.5561 10.8054 16.5231 10.7377 16.4712 10.6858L16.1782 10.3928L16.6428 9.92819L16.9358 10.2212C16.9876 10.2731 17.0554 10.3062 17.1282 10.3151C17.2009 10.324 17.2746 10.3083 17.3375 10.2704C17.5214 10.1604 17.7204 10.0777 17.9281 10.0247C17.9981 10.006 18.0599 9.96479 18.104 9.90734C18.1481 9.84989 18.172 9.77946 18.1719 9.70703V9.29688H18.8281V9.70703C18.8281 9.77967 18.8522 9.85027 18.8966 9.90775C18.941 9.96523 19.0033 10.0064 19.0736 10.0247C19.2807 10.0778 19.4791 10.1606 19.6625 10.2704C19.7254 10.3083 19.7991 10.324 19.8718 10.3151C19.9446 10.3062 20.0124 10.2731 20.0642 10.2212L20.3572 9.92819L20.8218 10.3928L20.5288 10.6858C20.4769 10.7377 20.4439 10.8054 20.4351 10.8782C20.4262 10.951 20.442 11.0247 20.4799 11.0875C20.5898 11.2715 20.6724 11.4704 20.7253 11.6781C20.744 11.7481 20.7852 11.8099 20.8427 11.854C20.9001 11.8981 20.9705 11.922 21.043 11.9219H21.4531V12.5781H21.043C20.9703 12.5781 20.8997 12.6022 20.8422 12.6466C20.7848 12.691 20.7436 12.7533 20.7253 12.8236C20.6723 13.0307 20.5896 13.229 20.4799 13.4125C20.442 13.4753 20.4262 13.549 20.4351 13.6218C20.4439 13.6946 20.4769 13.7623 20.5288 13.8142L20.8218 14.1072ZM18.5 10.9375C18.2404 10.9375 17.9867 11.0145 17.7708 11.1587C17.555 11.3029 17.3867 11.5079 17.2874 11.7477C17.1881 11.9876 17.1621 12.2515 17.2127 12.5061C17.2634 12.7607 17.3884 12.9945 17.5719 13.1781C17.7555 13.3616 17.9893 13.4866 18.2439 13.5373C18.4985 13.5879 18.7624 13.5619 19.0023 13.4626C19.2421 13.3633 19.4471 13.195 19.5913 12.9792C19.7355 12.7633 19.8125 12.5096 19.8125 12.25C19.8125 11.9019 19.6742 11.5681 19.4281 11.3219C19.1819 11.0758 18.8481 10.9375 18.5 10.9375ZM26.375 21.7656C26.375 21.9397 26.3059 22.1066 26.1828 22.2297C26.0597 22.3527 25.8928 22.4219 25.7188 22.4219H25.2653L25.9064 21.1399C26.0413 21.1801 26.1597 21.2627 26.2441 21.3754C26.3284 21.4881 26.3743 21.6249 26.375 21.7656ZM14.5625 21.7656C14.5618 21.9064 14.5159 22.0432 14.4316 22.1559C14.3472 22.2685 14.2288 22.3511 14.0939 22.3914L13.4528 21.1094H13.9062C14.0803 21.1094 14.2472 21.1785 14.3703 21.3016C14.4934 21.4247 14.5625 21.5916 14.5625 21.7656ZM13.3753 22.4219H12.4684L11.8122 21.1094H12.7191L13.3753 22.4219Z" fill="#02457C"/>
<path d="M10.9531 19.1405C11.0112 19.1405 11.0682 19.1251 11.1184 19.0958C11.1686 19.0665 11.2101 19.0245 11.2387 18.9739C11.2673 18.9234 11.2819 18.8662 11.2812 18.8081C11.2804 18.75 11.2642 18.6932 11.2343 18.6434L10.6027 17.5905C10.6979 17.5096 10.7768 17.4114 10.8353 17.301L11.3347 17.7004C11.3742 17.7319 11.4204 17.7539 11.4698 17.7646C11.5192 17.7753 11.5703 17.7745 11.6193 17.7622C11.6683 17.75 11.7138 17.7265 11.7523 17.6938C11.7907 17.661 11.8211 17.6198 11.841 17.5734C12.3415 16.4179 13.2579 15.4927 14.4086 14.9812C14.5089 15.1302 14.6171 15.2737 14.7328 15.411C13.856 15.7189 13.1321 16.3537 12.7125 17.1829C12.6263 17.3544 12.5855 17.5452 12.5938 17.7369C12.6022 17.9287 12.6595 18.1152 12.7603 18.2785C12.8612 18.4419 13.0021 18.5767 13.1698 18.6701C13.3375 18.7636 13.5263 18.8126 13.7182 18.8124H23.2818C23.4735 18.8124 23.662 18.7634 23.8294 18.67C23.9968 18.5767 24.1376 18.4421 24.2383 18.279C24.3391 18.116 24.3965 17.9298 24.4051 17.7383C24.4137 17.5468 24.3732 17.3563 24.2875 17.1849C23.868 16.3556 23.1441 15.7207 22.2672 15.413C22.383 15.2757 22.4912 15.1323 22.5914 14.9832C23.7421 15.4946 24.6585 16.4199 25.159 17.5754C25.1789 17.6218 25.2093 17.663 25.2477 17.6957C25.2862 17.7285 25.3317 17.7519 25.3807 17.7642C25.4297 17.7765 25.4808 17.7773 25.5302 17.7666C25.5796 17.7559 25.6258 17.7339 25.6653 17.7023L26.1647 17.301C26.2232 17.4114 26.3021 17.5096 26.3973 17.5905L25.7657 18.6434C25.7358 18.6932 25.7196 18.75 25.7188 18.8081C25.7181 18.8662 25.7327 18.9234 25.7613 18.9739C25.7899 19.0245 25.8314 19.0665 25.8816 19.0958C25.9318 19.1251 25.9888 19.1405 26.0469 19.1405C26.5689 19.141 27.0693 19.3486 27.4384 19.7177C27.8075 20.0868 28.0151 20.5873 28.0156 21.1093V23.7343C28.0156 24.1694 27.8428 24.5867 27.5351 24.8944C27.2274 25.202 26.8101 25.3749 26.375 25.3749H26.1981C25.8597 24.9662 25.4357 24.6368 24.9559 24.41C24.4762 24.1832 23.9525 24.0645 23.4219 24.0624H13.5781C13.0475 24.0645 12.5238 24.1832 12.0441 24.41C11.5643 24.6368 11.1403 24.9662 10.8019 25.3749H10.625C10.1899 25.3749 9.77258 25.202 9.4649 24.8944C9.15723 24.5867 8.98438 24.1694 8.98438 23.7343V21.1093C8.9849 20.5873 9.19248 20.0868 9.56158 19.7177C9.93068 19.3486 10.4311 19.141 10.9531 19.1405ZM23.0938 23.078H25.7188C26.0668 23.078 26.4007 22.9397 26.6468 22.6936C26.893 22.4475 27.0312 22.1136 27.0312 21.7655C27.0312 21.4174 26.893 21.0836 26.6468 20.8374C26.4007 20.5913 26.0668 20.453 25.7188 20.453H23.0938C22.7457 20.453 22.4118 20.5913 22.1657 20.8374C21.9195 21.0836 21.7812 21.4174 21.7812 21.7655C21.7812 22.1136 21.9195 22.4475 22.1657 22.6936C22.4118 22.9397 22.7457 23.078 23.0938 23.078ZM11.2812 23.078H13.9062C14.2543 23.078 14.5882 22.9397 14.8343 22.6936C15.0805 22.4475 15.2188 22.1136 15.2188 21.7655C15.2188 21.4174 15.0805 21.0836 14.8343 20.8374C14.5882 20.5913 14.2543 20.453 13.9062 20.453H11.2812C10.9332 20.453 10.5993 20.5913 10.3532 20.8374C10.107 21.0836 9.96875 21.4174 9.96875 21.7655C9.96875 22.1136 10.107 22.4475 10.3532 22.6936C10.5993 22.9397 10.9332 23.078 11.2812 23.078Z" fill="#02457C"/>
<path d="M11.0935 21.1399L11.7346 22.4219H11.2812C11.1238 22.4221 10.9717 22.3656 10.8526 22.2628C10.7335 22.16 10.6554 22.0178 10.6326 21.8621C10.6098 21.7064 10.6439 21.5478 10.7285 21.4151C10.8131 21.2825 10.9427 21.1848 11.0935 21.1399ZM23.0937 21.1094H23.5471L22.906 22.3914C22.7552 22.3465 22.6256 22.2487 22.541 22.1161C22.4564 21.9835 22.4223 21.8248 22.4451 21.6692C22.4679 21.5135 22.546 21.3712 22.6651 21.2684C22.7842 21.1656 22.9363 21.1092 23.0937 21.1094ZM25.1877 21.1094L24.5315 22.4219H23.6246L24.2808 21.1094H25.1877Z" fill="#02457C"/>
</g>
<defs>
<clipPath id="clip0_1059_1856">
<rect width="21" height="21" fill="white" transform="matrix(-1 0 0 1 29 7)"/>
</clipPath>
</defs>
</svg>
