<svg width="36" height="36" viewBox="0 0 36 36" fill="none" xmlns="http://www.w3.org/2000/svg">
<circle cx="18" cy="18" r="18" fill="#E8F7FF"/>
<g clipPath="url(#clip0_1059_1795)">
<path d="M28.5503 12.7659L17.7241 8.94612C17.579 8.89491 17.4208 8.89491 17.2757 8.94612L6.44956 12.7659C6.31823 12.8122 6.20449 12.8981 6.12399 13.0118C6.04348 13.1254 6.00017 13.2612 6 13.4005C5.99983 13.5398 6.04282 13.6757 6.12305 13.7895C6.20328 13.9034 6.31682 13.9895 6.44803 14.0362L17.2742 17.885C17.4202 17.9369 17.5796 17.9369 17.7256 17.885L28.5518 14.0362C28.683 13.9896 28.7965 13.9034 28.8768 13.7896C28.9571 13.6757 29.0001 13.5398 28.9999 13.4005C28.9997 13.2612 28.9564 13.1254 28.8759 13.0118C28.7954 12.8981 28.6816 12.8122 28.5503 12.7659ZM27.3815 21.7601V15.8826L26.0338 16.3616V21.7601C25.6279 21.9938 25.3544 22.4315 25.3544 22.9335C25.3544 23.4355 25.6279 23.8733 26.0338 24.1069V27.4184C26.0338 27.7905 26.3355 28.0922 26.7077 28.0922C27.0798 28.0922 27.3815 27.7905 27.3815 27.4184V24.107C27.7874 23.8734 28.0609 23.4355 28.0609 22.9336C28.0609 22.4316 27.7875 21.9938 27.3815 21.7601Z" fill="#02457C"/>
<path d="M17.4998 19.2717C17.2685 19.2717 17.0407 19.2324 16.8227 19.1549L10.7366 16.9912V19.9564C10.7366 20.6819 11.4934 21.2954 12.9859 21.7798C14.2869 22.2021 15.89 22.4346 17.4998 22.4346C19.1096 22.4346 20.7127 22.2021 22.0137 21.7798C23.5063 21.2954 24.2631 20.6819 24.2631 19.9564V16.9912L18.177 19.1549C17.9596 19.2323 17.7306 19.2718 17.4998 19.2717Z" fill="#02457C"/>
</g>
<defs>
<clipPath id="clip0_1059_1795">
<rect width="23" height="23" fill="white" transform="translate(6 7)"/>
</clipPath>
</defs>
</svg>
