<svg width="36" height="36" viewBox="0 0 36 36" fill="none" xmlns="http://www.w3.org/2000/svg">
<circle cx="18" cy="18" r="18" fill="#E8F7FF"/>
<g clipPath="url(#clip0_1059_1929)">
<path d="M11.4718 17.7988C13.2413 16.6955 14.1333 17.2783 15.073 17.8928C15.6226 18.2521 16.1907 18.6237 17.0106 18.7122H21.3632C22.1039 18.7122 22.7155 19.2742 22.795 19.9944L25.5439 17.2455C25.815 16.974 26.1768 16.8247 26.5623 16.8247C26.9483 16.8247 27.31 16.974 27.5811 17.2455C27.8522 17.5166 28.0015 17.8784 28.0015 18.2639C28.0015 18.6499 27.8522 19.0117 27.5811 19.2828L22.6273 24.2342C22.3041 24.557 20.8862 24.6287 17.0065 24.518C16.5684 24.5053 16.2227 24.4954 16.0352 24.4954C15.8552 24.4954 15.6292 24.5484 15.4212 24.6394L11.4718 17.7988ZM11.811 27.9674C11.7897 27.9674 11.768 27.9646 11.7471 27.9588C11.6841 27.9419 11.6304 27.9007 11.5978 27.8444L7.03108 19.9349C6.96299 19.8172 7.0036 19.6667 7.12131 19.5986L10.524 17.6339C10.5806 17.6011 10.6478 17.5925 10.7106 17.6093C10.7419 17.6177 10.7712 17.6322 10.7969 17.6519C10.8226 17.6716 10.8441 17.6961 10.8603 17.7242L15.427 25.6336C15.4947 25.7513 15.4545 25.9019 15.3367 25.9696L11.9341 27.9342C11.8964 27.9559 11.8537 27.9674 11.811 27.9674Z" fill="#02457C"/>
<path d="M17.4782 17.8703C17.4458 17.8703 17.4138 17.864 17.3839 17.8516C17.354 17.8393 17.3268 17.8211 17.3039 17.7983C17.281 17.7754 17.2629 17.7483 17.2505 17.7184C17.2381 17.6885 17.2317 17.6565 17.2317 17.6242V13.6042H14.7502C14.6616 13.6042 14.58 13.5566 14.5361 13.4795C14.5147 13.4417 14.5037 13.3988 14.5042 13.3553C14.5047 13.3118 14.5167 13.2692 14.539 13.2318L18.1689 7.15246C18.1965 7.1062 18.2385 7.07028 18.2886 7.05021C18.3386 7.03013 18.3938 7.027 18.4457 7.04131C18.5524 7.07084 18.6262 7.16805 18.6262 7.27879V11.3155H20.9247C21.0125 11.3155 21.0937 11.3623 21.1376 11.4382C21.1593 11.4753 21.1709 11.5176 21.1711 11.5607C21.1713 11.6037 21.1602 11.6461 21.1388 11.6835L17.6919 17.746C17.6704 17.7838 17.6394 17.8152 17.6018 17.837C17.5643 17.8589 17.5216 17.8703 17.4782 17.8703Z" fill="#02457C"/>
<path d="M21.5145 17.4839C21.4936 17.4839 21.4727 17.4814 21.4518 17.4757C21.3992 17.4619 21.3526 17.4311 21.3194 17.3881C21.2863 17.345 21.2683 17.2922 21.2684 17.2378V13.521H20.6602L21.5666 11.9267C21.6305 11.8144 21.6638 11.6873 21.6632 11.5581C21.6625 11.4289 21.628 11.3021 21.5629 11.1904C21.498 11.0788 21.4048 10.9861 21.2928 10.9217C21.1808 10.8573 21.0539 10.8234 20.9247 10.8234H20.1577L22.1412 7.50191C22.1688 7.45559 22.2108 7.41962 22.2609 7.39953C22.3109 7.37945 22.3661 7.37637 22.4181 7.39076C22.5247 7.41988 22.5986 7.51709 22.5986 7.62783V11.3603H24.7162C24.7593 11.3603 24.8016 11.3716 24.8389 11.393C24.8762 11.4145 24.9073 11.4453 24.9291 11.4825C24.9507 11.5198 24.9622 11.5621 24.9624 11.6052C24.9627 11.6483 24.9516 11.6907 24.9303 11.7282L21.7286 17.3596C21.7071 17.3974 21.6759 17.4288 21.6383 17.4506C21.6007 17.4724 21.558 17.4839 21.5145 17.4839Z" fill="#02457C"/>
</g>
<defs>
<clipPath id="clip0_1059_1929">
<rect width="21" height="21" fill="white" transform="translate(7 7)"/>
</clipPath>
</defs>
</svg>
