<svg width="36" height="36" viewBox="0 0 36 36" fill="none" xmlns="http://www.w3.org/2000/svg">
<circle cx="18" cy="18" r="18" fill="#E8F7FF"/>
<path fill-rule="evenodd" clip-rule="evenodd" d="M18.3804 13.494C18.4123 13.5739 18.4115 13.6631 18.3782 13.7424C18.3449 13.8217 18.2819 13.8848 18.2026 13.9181C18.1233 13.9513 18.0341 13.9521 17.9542 13.9203C17.8743 13.8885 17.8101 13.8265 17.7754 13.7478C17.7147 13.6033 17.5614 13.5492 17.4152 13.5786C17.3328 13.5952 17.2315 13.6451 17.2363 13.7433C17.2414 13.8491 17.4624 13.8879 17.5411 13.9008C17.9806 13.973 18.3931 14.1692 18.453 14.6627C18.4553 14.6818 18.4568 14.7076 18.4576 14.7396C18.4672 15.1416 18.178 15.4039 17.8148 15.5029C17.8147 15.546 17.8062 15.5886 17.7896 15.6284C17.7731 15.6682 17.7488 15.7043 17.7183 15.7347C17.6878 15.7652 17.6516 15.7893 17.6118 15.8057C17.5719 15.8221 17.5292 15.8305 17.4862 15.8305C17.4431 15.8304 17.4004 15.8218 17.3606 15.8053C17.3208 15.7887 17.2847 15.7645 17.2543 15.734C17.2239 15.7035 17.1998 15.6672 17.1833 15.6274C17.1669 15.5876 17.1585 15.5449 17.1586 15.5018V15.4959C16.8459 15.4005 16.6051 15.1725 16.5246 14.8494C16.5143 14.8077 16.5124 14.7643 16.5189 14.7218C16.5253 14.6793 16.5401 14.6385 16.5624 14.6017C16.5847 14.565 16.6139 14.5329 16.6486 14.5075C16.6832 14.482 16.7225 14.4636 16.7643 14.4534C16.806 14.4431 16.8494 14.4411 16.8919 14.4476C16.9344 14.4541 16.9752 14.4689 17.012 14.4912C17.0487 14.5134 17.0808 14.5427 17.1062 14.5774C17.1317 14.612 17.1501 14.6513 17.1603 14.6931C17.1974 14.8417 17.3687 14.8942 17.5053 14.891C17.5182 14.8907 17.538 14.8889 17.5645 14.8857C17.6263 14.8782 17.806 14.8411 17.804 14.755L17.8019 14.7396C17.7856 14.6058 17.5407 14.5641 17.436 14.5469C17.0066 14.4764 16.6062 14.2597 16.5827 13.7741C16.5641 13.3916 16.8084 13.0921 17.1586 12.9725V12.9604C17.1586 12.8733 17.1932 12.7899 17.2547 12.7283C17.3163 12.6668 17.3997 12.6322 17.4868 12.6322C17.5738 12.6322 17.6573 12.6668 17.7188 12.7283C17.7803 12.7899 17.8149 12.8733 17.8149 12.9604V12.9685C18.053 13.0477 18.2645 13.2178 18.3804 13.494ZM14.7924 19.9707C14.2072 19.9707 13.7329 20.445 13.7329 21.0301C13.7329 21.1045 13.7406 21.177 13.7552 21.247L8.80413 24.086C8.73052 24.1301 8.67714 24.2013 8.65544 24.2843C8.63373 24.3673 8.64544 24.4555 8.68805 24.53C8.73066 24.6045 8.80077 24.6593 8.88333 24.6827C8.9659 24.7061 9.05434 24.6961 9.12967 24.6551L14.0814 21.8157C14.276 21.9923 14.5295 22.09 14.7923 22.0896C15.0999 22.0896 15.3769 21.9584 15.5704 21.7491L18.7276 23.2031C18.7227 23.2443 18.7203 23.2858 18.7203 23.3272C18.7203 23.9123 19.1946 24.3866 19.7797 24.3866C20.3649 24.3866 20.8392 23.9123 20.8392 23.3272C20.8392 23.1737 20.8064 23.0278 20.7477 22.896L25.6352 18.4917L25.5586 19.4306C25.5528 19.5168 25.5812 19.6017 25.6377 19.667C25.6941 19.7323 25.774 19.7727 25.8601 19.7794C25.9461 19.7861 26.0313 19.7587 26.0973 19.703C26.1632 19.6473 26.2045 19.5679 26.2123 19.4819L26.36 17.6689C26.3758 17.4649 26.2015 17.2942 25.9962 17.3177L24.1896 17.5308C24.1468 17.5356 24.1055 17.5489 24.0678 17.5698C24.0302 17.5906 23.997 17.6187 23.9703 17.6524C23.9435 17.6861 23.9236 17.7247 23.9117 17.7661C23.8999 17.8075 23.8963 17.8507 23.9012 17.8935C23.9061 17.9363 23.9193 17.9776 23.9402 18.0153C23.9611 18.0529 23.9892 18.0861 24.0228 18.1128C24.0565 18.1396 24.0952 18.1595 24.1365 18.1713C24.1779 18.1832 24.2212 18.1868 24.2639 18.1819L25.111 18.082L20.3091 22.4092C20.1482 22.3163 19.9656 22.2675 19.7798 22.2677C19.4722 22.2677 19.1953 22.3989 19.0017 22.6083L15.8446 21.1542C15.8493 21.1135 15.8518 21.0721 15.8518 21.0301C15.8518 20.445 15.3775 19.9707 14.7924 19.9707ZM14.4682 7.65625H20.5322L20.18 8.60876C20.1436 8.70723 20.0541 8.7695 19.9492 8.7695H15.0512C14.9463 8.7695 14.8568 8.70719 14.8204 8.60876L14.4682 7.65625ZM22.7018 7.65625H21.2319L20.7955 8.83635C20.6639 9.19237 20.3288 9.42575 19.9492 9.42575H15.0512C14.6716 9.42575 14.3365 9.19237 14.2049 8.83635L13.7685 7.65625H12.2986C11.8297 7.65625 11.4461 8.03987 11.4461 8.50872V21.8146L13.0837 20.8755C13.1619 20.0006 13.8972 19.3144 14.7924 19.3144C15.6355 19.3144 16.3369 19.923 16.481 20.7248L18.9145 21.8456C19.177 21.6918 19.4757 21.611 19.7799 21.6114C19.9125 21.6114 20.0417 21.6265 20.1657 21.655L23.5543 18.6014V8.50872C23.5543 8.03995 23.1707 7.65625 22.7018 7.65625ZM19.468 13.9028H20.9542C21.0733 13.6715 21.3145 13.5132 21.5927 13.5132C21.9891 13.5132 22.3105 13.8346 22.3105 14.231C22.3105 14.6274 21.9891 14.9487 21.5927 14.9487C21.3146 14.9487 21.0733 14.7905 20.9542 14.5591H19.468C19.3992 14.9779 19.2008 15.353 18.9153 15.6421L19.7068 16.774H20.9542C21.0733 16.5427 21.3145 16.3844 21.5927 16.3844C21.9891 16.3844 22.3105 16.7057 22.3105 17.1021C22.3105 17.4986 21.9891 17.8199 21.5927 17.8199C21.3146 17.8199 21.0733 17.6616 20.9542 17.4303L19.5375 17.4289C19.4849 17.429 19.433 17.4163 19.3864 17.392C19.3398 17.3676 19.2997 17.3324 19.2696 17.2893L18.3867 16.0265C18.1074 16.1667 17.7992 16.2396 17.4866 16.2391C17.1847 16.2396 16.8865 16.1716 16.6145 16.0404L15.7183 17.269C15.6893 17.3182 15.648 17.3589 15.5985 17.3872C15.5489 17.4154 15.4929 17.4303 15.4358 17.4303H14.0191C13.9 17.6616 13.6588 17.8199 13.3806 17.8199C12.9842 17.8199 12.6628 17.4986 12.6628 17.1021C12.6628 16.7057 12.9842 16.3844 13.3806 16.3844C13.6588 16.3844 13.9 16.5427 14.0191 16.774H15.2709L16.0803 15.6643C15.7829 15.3724 15.5759 14.9887 15.5053 14.5591H14.0191C13.9 14.7904 13.6588 14.9487 13.3806 14.9487C12.9842 14.9487 12.6628 14.6273 12.6628 14.2309C12.6628 13.8345 12.9842 13.5132 13.3806 13.5132C13.6588 13.5132 13.9 13.6714 14.0191 13.9028H15.5053C15.575 13.4787 15.7775 13.0993 16.0688 12.8088L15.2681 11.6878H14.0191C13.9 11.9193 13.6588 12.0775 13.3806 12.0775C12.9842 12.0775 12.6628 11.7561 12.6628 11.3597C12.6628 10.9633 12.9842 10.6419 13.3806 10.6419C13.6588 10.6419 13.9 10.8002 14.0191 11.0316H15.4358C15.4923 11.0316 15.5479 11.0461 15.5971 11.0739C15.6463 11.1016 15.6875 11.1416 15.7167 11.19L16.6011 12.4282C16.8683 12.2967 17.1688 12.2227 17.4867 12.2227C17.8046 12.2227 18.1051 12.2967 18.3723 12.4282L19.2709 11.17C19.3012 11.1275 19.3412 11.0928 19.3875 11.0689C19.4339 11.0449 19.4854 11.0325 19.5375 11.0325L20.9543 11.0316C21.0734 10.8002 21.3146 10.6419 21.5928 10.6419C21.9892 10.6419 22.3106 10.9633 22.3106 11.3597C22.3106 11.7561 21.9892 12.0775 21.5928 12.0775C21.3146 12.0775 21.0734 11.9193 20.9543 11.6878H19.7053L18.9046 12.8088C19.1959 13.0993 19.3983 13.4787 19.468 13.9028ZM21.4827 23.1171C21.4911 23.186 21.4955 23.2561 21.4955 23.3272C21.4955 24.2745 20.7271 25.0429 19.7798 25.0429C18.9367 25.0429 18.2353 24.4342 18.0913 23.6325L15.6577 22.5117C15.3953 22.6654 15.0966 22.7462 14.7924 22.7458C14.5401 22.7461 14.2908 22.6905 14.0625 22.583L11.4461 24.0833V26.4912C11.4461 26.9601 11.8298 27.3437 12.2986 27.3437H22.7018C23.1705 27.3437 23.5543 26.9599 23.5543 26.4912V21.2502L21.4827 23.1171ZM18.2486 25.939H16.7517C16.4437 25.939 16.1917 25.687 16.1917 25.379C16.1917 25.071 16.4437 24.819 16.7517 24.819H18.2486C18.5566 24.819 18.8086 25.071 18.8086 25.379C18.8087 25.6869 18.5567 25.939 18.2486 25.939Z" fill="#02457C"/>
</svg>
