<svg width="36" height="36" viewBox="0 0 36 36" fill="none" xmlns="http://www.w3.org/2000/svg">
<circle cx="18" cy="18" r="18" fill="#E8F7FF"/>
<g clipPath="url(#clip0_1059_1876)">
<path d="M7.6875 13.4883H21.8672V16.1094H7.6875V13.4883ZM9.22269 12.1992H20.332L19.0429 9.57812H14.6358L13.9918 7H10.2656V8.28906H12.9847L13.3074 9.57812H10.5117L9.22269 12.1992ZM28.3125 27.0664V26.4219H16.7109V27.0664C16.7109 28.1343 17.5766 29 18.6445 29H26.3789C27.4468 29 28.3125 28.1343 28.3125 27.0664ZM18 23.8438H27.0234V25.1328H18V23.8438ZM28.3125 21.2656C28.3125 19.8417 27.1582 18.6875 25.7344 18.6875H19.2891C17.8652 18.6875 16.7109 19.8417 16.7109 21.2656V22.5547H28.3125V21.2656Z" fill="#02457C"/>
<path d="M19.2892 17.3984H9.16675L10.3268 29H16.083C15.674 28.4597 15.422 27.7946 15.422 27.0664V25.1328H16.711V23.8438H15.422V21.2656C15.422 19.1331 17.1567 17.3984 19.2892 17.3984Z" fill="#02457C"/>
</g>
<defs>
<clipPath id="clip0_1059_1876">
<rect width="22" height="22" fill="white" transform="translate(7 7)"/>
</clipPath>
</defs>
</svg>
