<svg width="36" height="36" viewBox="0 0 36 36" fill="none" xmlns="http://www.w3.org/2000/svg">
<circle cx="18" cy="18" r="18" fill="#E8F7FF"/>
<path d="M9.92229 12.7979L17.8093 7.88825C17.9266 7.81492 18.077 7.81492 18.1943 7.88825L26.0813 12.7979C26.1876 12.8639 26.2536 12.9813 26.2536 13.1096V14.5323C26.2536 14.7339 26.0886 14.8989 25.887 14.8989H10.1166C9.91496 14.8989 9.74996 14.7339 9.74996 14.5323V13.1096C9.74996 12.9813 9.81596 12.8639 9.92229 12.7979ZM18 13.5423C18.8396 13.5423 19.5216 12.8603 19.5216 12.0206C19.5216 11.1809 18.8396 10.4989 18 10.4989C17.1603 10.4989 16.4783 11.1809 16.4783 12.0206C16.4783 12.8603 17.1603 13.5423 18 13.5423ZM14.139 15.6323H11.4256V21.2239H14.139V15.6323ZM19.3566 15.6323H16.6433V21.2239H19.3566V15.6323ZM24.578 15.6323H21.8646V21.2239H24.578V15.6323ZM8.83329 24.0546V25.7999C8.83329 26.0016 8.99829 26.1666 9.19996 26.1666H26.8C27.0053 26.1666 27.1666 26.0016 27.1666 25.7999V24.0546C27.1666 23.8529 27.0053 23.6879 26.8 23.6879H25.92V22.3239C25.92 22.1223 25.755 21.9573 25.5533 21.9573H10.4466C10.245 21.9573 10.08 22.1223 10.08 22.3239V23.6879H9.19996C8.99829 23.6879 8.83329 23.8529 8.83329 24.0546Z" fill="#02457C"/>
</svg>
