<svg width="52" height="52" viewBox="0 0 52 52" fill="none" xmlns="http://www.w3.org/2000/svg">
<rect width="52" height="52" rx="6" fill="#F4F4F4"/>
<path fill-rule="evenodd" clip-rule="evenodd" d="M30.1805 13.6567C31.7112 14.1718 32.7087 15.6121 32.7087 17.5004C32.7087 18.6875 32.0339 19.7802 31.2818 20.6519C30.5088 21.5481 29.5303 22.3523 28.6745 22.9762C28.6378 23.0029 28.6014 23.0295 28.5653 23.0558C27.7347 23.6628 27.0494 24.1635 26.0004 24.1635C24.9514 24.1635 24.2661 23.6628 23.4355 23.0558C23.3994 23.0294 23.363 23.0029 23.3263 22.9761C22.4705 22.3523 21.492 21.5481 20.719 20.6519C19.9669 19.7802 19.2921 18.6875 19.2921 17.5004C19.2921 15.6121 20.2896 14.1718 21.8203 13.6567C23.1259 13.2173 24.6456 13.5073 26.0004 14.4935C27.3552 13.5073 28.8749 13.2173 30.1805 13.6567ZM29.6223 15.3153C28.8616 15.0593 27.7272 15.2249 26.5925 16.2679C26.2577 16.5756 25.743 16.5756 25.4083 16.2679C24.2736 15.2249 23.1392 15.0593 22.3785 15.3153C21.6488 15.5609 21.0421 16.2653 21.0421 17.5004C21.0421 18.0459 21.374 18.7321 22.044 19.5088C22.693 20.2611 23.5519 20.975 24.3572 21.562C25.3408 22.279 25.5746 22.4135 26.0004 22.4135C26.4262 22.4135 26.66 22.279 27.6436 21.562C28.4489 20.975 29.3078 20.2612 29.9568 19.5088C30.6268 18.7322 30.9587 18.0459 30.9587 17.5004C30.9587 16.2653 30.352 15.5609 29.6223 15.3153ZM22.1316 28.856C24.3084 28.4343 26.6386 28.529 28.5242 29.6536C28.789 29.8116 29.0373 30.0084 29.2539 30.2517C29.6924 30.7442 29.9189 31.3564 29.9296 31.9701C30.1527 31.8262 30.3762 31.6664 30.6033 31.4948L32.7117 29.9021C33.767 29.1049 35.3008 29.1048 36.3563 29.9018C37.3315 30.6381 37.7204 31.9598 37.0222 33.0789C36.526 33.8742 35.7787 34.9744 35.0182 35.6787C34.2495 36.3907 33.1554 36.9893 32.3278 37.3888C31.3227 37.8739 30.2372 38.1421 29.1817 38.313C27.0243 38.6622 24.7794 38.6088 22.6462 38.1693C21.5561 37.9447 20.4232 37.828 19.3037 37.828H16.6671C16.1838 37.828 15.7921 37.4362 15.7921 36.953C15.7921 36.4697 16.1838 36.078 16.6671 36.078H19.3037C20.5428 36.078 21.794 36.207 22.9993 36.4553C24.9267 36.8524 26.9572 36.9003 28.902 36.5855C29.8691 36.4289 30.7722 36.1965 31.5671 35.8128C32.3644 35.4279 33.2608 34.9211 33.8291 34.3948C34.4037 33.8626 35.0468 32.939 35.5374 32.1526C35.6855 31.9152 35.665 31.5727 35.3018 31.2984C34.8704 30.9727 34.1978 30.9727 33.7665 31.2985L31.6581 32.8912C30.8165 33.527 29.7805 34.2072 28.4956 34.4122C28.3659 34.4328 28.2309 34.4518 28.0907 34.4684C28.0239 34.4805 27.9544 34.4885 27.8825 34.4912C27.2265 34.5564 26.4667 34.5715 25.6285 34.4924C25.1474 34.4469 24.7942 34.0201 24.8397 33.539C24.8851 33.0579 25.3119 32.7047 25.793 32.7501C26.5251 32.8192 27.1818 32.804 27.739 32.7468C27.7503 32.7456 27.7616 32.7444 27.7728 32.7432C27.796 32.7297 27.8316 32.7051 27.8782 32.6644C28.251 32.3391 28.2842 31.7943 27.9468 31.4153C27.8613 31.3193 27.756 31.233 27.6278 31.1565C26.2497 30.3346 24.4093 30.1973 22.4645 30.5741C20.5307 30.9487 18.6095 31.8118 17.1732 32.8303C16.779 33.1099 16.2329 33.0169 15.9533 32.6227C15.6738 32.2286 15.7667 31.6824 16.1609 31.4028C17.7923 30.2459 19.9438 29.2799 22.1316 28.856Z" fill="#141414"/>
</svg>
