<svg width="36" height="36" viewBox="0 0 36 36" fill="none" xmlns="http://www.w3.org/2000/svg">
<circle cx="18" cy="18" r="18" fill="#E8F7FF"/>
<g clip-path="url(#clip0_1059_1788)">
<path d="M23.7988 11.7266C23.7988 9.69133 22.1426 8 20.1074 8C19.3143 8 18.5733 8.33936 17.998 8.95013C17.4228 8.33936 16.6817 8 15.8887 8C13.8534 8 12.1972 9.69133 12.1972 11.7266C12.1972 13.7736 13.6994 14.8304 15.4391 16.0545C16.1564 16.5591 16.8986 17.0814 17.6525 17.7354L17.9975 18.0351L18.3431 17.7359C19.1953 16.9984 20.0059 16.4212 20.7207 15.9118C22.4403 14.6877 23.7988 13.7206 23.7988 11.7266ZM19.5801 13.3086H18.5254V14.3633H17.4707V13.3086H16.416V12.2539H17.4707V11.1992H18.5254V12.2539H19.5801V13.3086ZM26.3652 12.8234C25.2894 12.8234 25.0117 17.8226 24.9906 17.9281C24.8835 18.6606 24.3674 19.745 23.496 20.3979L21.2118 22.0563L20.5794 21.2118L22.8636 19.5539C23.7684 18.8755 24.1808 17.7172 23.0499 17.7172C22.0372 17.7172 20.144 18.8897 19.5828 19.3549C19.2519 19.6293 18.9855 19.9733 18.8027 20.3624C18.6199 20.7516 18.5252 21.1762 18.5253 21.6061V26H21.6894C21.6894 25.4937 21.9636 24.9418 22.3855 24.4144C22.8285 23.8343 23.4613 23.2437 24.1151 22.6425C25.3597 21.4718 26.6499 20.2695 26.8187 19.0461C26.9189 18.2243 27.0021 16.8148 26.998 15.5586C26.9934 14.1518 26.8742 12.8689 26.3652 12.8234ZM16.2894 19.257C14.8023 18.2339 13.6738 17.7172 12.9461 17.7172C11.8153 17.7172 12.2277 18.8755 13.1325 19.5539L15.4166 21.2118L14.7842 22.0563L12.5001 20.3979C11.6286 19.745 11.1125 18.6606 11.0054 17.9281C10.9843 17.8226 10.7066 12.8234 9.63077 12.8234C9.04015 12.8761 8.97687 14.5953 9.00854 16.2406C9.02967 17.4429 9.12456 18.6136 9.17726 19.0461C9.34604 20.2695 10.6363 21.4719 11.8808 22.6425C12.5347 23.2437 13.1675 23.8343 13.6105 24.4144C14.0323 24.9418 14.3066 25.4937 14.3066 26H17.4706V21.6272C17.4707 21.1677 17.364 20.7144 17.159 20.3031C16.954 19.8918 16.6564 19.5337 16.2894 19.257Z" fill="#02457C"/>
</g>
<defs>
<clipPath id="clip0_1059_1788">
<rect width="18" height="18" fill="white" transform="translate(9 8)"/>
</clipPath>
</defs>
</svg>
