<svg width="52" height="52" viewBox="0 0 52 52" fill="none" xmlns="http://www.w3.org/2000/svg">
<rect width="52" height="52" rx="6" fill="#F4F4F4"/>
<path d="M37.6673 22.4999V29.4999C37.6673 32.4166 37.084 34.4583 35.7773 35.7766L28.334 28.3333L37.3523 19.3149C37.5623 20.2366 37.6673 21.2866 37.6673 22.4999Z" stroke="#141414" stroke-width="1.5" stroke-linecap="round" stroke-linejoin="round"/>
<path d="M37.3523 19.3147L19.3156 37.3513C15.804 36.5463 14.334 34.1197 14.334 29.4997V22.4997C14.334 16.6663 16.6673 14.333 22.5007 14.333H29.5007C34.1207 14.333 36.5473 15.803 37.3523 19.3147Z" stroke="#141414" stroke-width="1.5" stroke-linecap="round" stroke-linejoin="round"/>
<path d="M35.7771 35.7763C34.4588 37.083 32.4171 37.6663 29.5004 37.6663H22.5004C21.2871 37.6663 20.2371 37.5613 19.3154 37.3513L28.3338 28.333L35.7771 35.7763Z" stroke="#141414" stroke-width="1.5" stroke-linecap="round" stroke-linejoin="round"/>
<path d="M19.2798 21.3101C20.0732 17.8918 25.2065 17.8918 25.9998 21.3101C26.4548 23.3168 25.1948 25.0201 24.0865 26.0701C23.2815 26.8401 22.0098 26.8401 21.1932 26.0701C20.0848 25.0201 18.8132 23.3168 19.2798 21.3101Z" stroke="#141414" stroke-width="1.5"/>
<path d="M22.6101 22.1495H22.6206" stroke="#141414" stroke-width="2" stroke-linecap="round" stroke-linejoin="round"/>
</svg>
