<svg width="36" height="36" viewBox="0 0 36 36" fill="none" xmlns="http://www.w3.org/2000/svg">
<circle cx="18" cy="18" r="18" fill="#E8F7FF"/>
<g clipPath="url(#clip0_1059_1921)">
<path d="M22.4999 16H8.50006C8.22397 16 8 16.2237 8 16.4999V27.4999C8 27.776 8.22392 28 8.50006 28H11.9999V21.4999C11.9999 21.2238 12.2239 20.9999 12.5 20.9999H18.5C18.7761 20.9999 19.0001 21.2238 19.0001 21.4999V28H23V16.4999C23 16.2238 22.7761 16 22.4999 16Z" fill="#02457C"/>
<path d="M13 22.0001H17.9999V28H13V22.0001ZM27.4999 19.0001H23.9999V28H27.4999C27.6325 28 27.7598 27.9475 27.8535 27.8536C27.9474 27.7598 28 27.6325 28 27.5V19.4999C28 19.3674 27.9474 19.2401 27.8535 19.1464C27.7598 19.0526 27.6325 18.9999 27.4999 19.0001ZM26.5 23.9999H25.4999C25.2238 23.9999 25 23.7762 25 23.5001C25 23.2239 25.2237 23 25.4999 23H26.5C26.7761 23 26.9999 23.2239 26.9999 23.5001C26.9999 23.7762 26.7761 23.9999 26.5 23.9999ZM26.5 22.0001H25.4999C25.2238 22.0001 25 21.7761 25 21.5C25 21.2239 25.2237 20.9999 25.4999 20.9999H26.5C26.7761 20.9999 26.9999 21.2239 26.9999 21.5C26.9999 21.7761 26.7761 22.0001 26.5 22.0001ZM19 10.4999C19.1326 10.5001 19.2598 10.4474 19.3536 10.3536C19.4473 10.2599 19.5001 10.1326 19.4999 10.0001C19.4999 9.89 19.4999 9.86037 19.9082 9.72411C20.2899 9.59722 20.9999 9.36031 20.9999 8.50006C20.9999 8.22397 20.7761 8 20.5 8C20.2239 8 19.9999 8.22392 19.9999 8.50006C19.9999 8.60994 19.9999 8.63961 19.5918 8.77583C19.21 8.90281 18.4999 9.13967 18.4999 10.0001C18.4999 10.1326 18.5525 10.2599 18.6462 10.3536C18.6927 10.4001 18.7478 10.4369 18.8085 10.462C18.8692 10.4871 18.9343 10.5 19 10.4999ZM20.9999 11.5001C21 11.4095 20.9755 11.3206 20.929 11.2429C20.8826 11.1652 20.8159 11.1016 20.736 11.0589C20.6562 11.0162 20.5663 10.9959 20.4758 11.0004C20.3854 11.0048 20.2979 11.0337 20.2226 11.084L18.7226 12.084C18.6542 12.1297 18.598 12.1916 18.5592 12.2641C18.5204 12.3367 18.5 12.4177 18.4999 12.5V14.9999H20.9999V11.5001ZM14.7499 10.4999C14.8156 10.5 14.8806 10.4871 14.9413 10.462C15.002 10.4369 15.0571 10.4001 15.1035 10.3536C15.1974 10.2599 15.25 10.1326 15.25 10.0001C15.25 9.89 15.25 9.86037 15.6581 9.72411C16.0399 9.59722 16.75 9.36031 16.75 8.50006C16.75 8.22397 16.5261 8 16.2499 8C15.9738 8 15.7499 8.22392 15.7499 8.50006C15.7499 8.60994 15.7499 8.63961 15.3417 8.77583C14.9599 8.90286 14.2499 9.13967 14.2499 10.0001C14.2499 10.1326 14.3024 10.2599 14.3964 10.3536C14.4901 10.4474 14.6174 10.5001 14.7499 10.4999ZM16.75 11.5001C16.7501 11.4095 16.7256 11.3206 16.6791 11.2429C16.6326 11.1652 16.5659 11.1016 16.486 11.0589C16.4062 11.0162 16.3162 10.9959 16.2258 11.0004C16.1353 11.0048 16.0478 11.0337 15.9725 11.084L14.4725 12.084C14.4042 12.1298 14.3481 12.1916 14.3093 12.2642C14.2704 12.3367 14.25 12.4177 14.2499 12.5V14.9999H16.75V11.5001ZM10.4999 10.4999C10.5655 10.5 10.6306 10.4871 10.6913 10.462C10.7519 10.4369 10.8071 10.4001 10.8535 10.3536C10.9 10.3072 10.9368 10.2521 10.9619 10.1914C10.987 10.1308 11 10.0657 10.9999 10.0001C10.9999 9.89 10.9999 9.86037 11.4081 9.72411C11.7899 9.59722 12.4999 9.36031 12.4999 8.50006C12.4999 8.22397 12.276 8 11.9999 8C11.7237 8 11.5 8.22392 11.5 8.50006C11.5 8.60994 11.5 8.63961 11.0917 8.77583C10.7099 8.90286 10 9.13967 10 10.0001C9.99993 10.0657 10.0128 10.1308 10.0379 10.1914C10.063 10.2521 10.0999 10.3072 10.1463 10.3536C10.24 10.4474 10.3673 10.5001 10.4999 10.4999ZM12.4999 11.5001C12.5 11.4095 12.4755 11.3206 12.429 11.2429C12.3825 11.1652 12.3158 11.1016 12.2359 11.059C12.1561 11.0163 12.0662 10.996 11.9758 11.0004C11.8854 11.0049 11.7979 11.0338 11.7227 11.084L10.2227 12.084C10.1542 12.1297 10.0981 12.1916 10.0593 12.2641C10.0204 12.3367 10.0001 12.4177 10 12.5V14.9999H12.4999V11.5001Z" fill="#02457C"/>
</g>
<defs>
<clipPath id="clip0_1059_1921">
<rect width="20" height="20" fill="white" transform="translate(8 8)"/>
</clipPath>
</defs>
</svg>
