<svg width="36" height="36" viewBox="0 0 36 36" fill="none" xmlns="http://www.w3.org/2000/svg">
<circle cx="18" cy="18" r="18" fill="#E8F7FF"/>
<path d="M21.5643 25.465C21.5461 25.4347 21.5386 25.396 21.5386 25.358V23.9518H10.2314C10.3349 25.2844 11.4692 26.3748 12.8487 26.3748H22.08C21.8167 26.1325 21.6331 25.823 21.5643 25.465ZM12.0428 23.5298L12.2828 23.4504C14.1935 22.8135 15.4809 21.0324 15.4809 19.0183V16.5554C14.6732 16.4631 14.0706 15.8344 13.9782 15.0671H10.1038C10.0114 15.8344 9.38279 16.4631 8.61548 16.5554V19.0183C8.61548 21.0324 9.89656 22.8135 11.8072 23.4504L12.0428 23.5298ZM10.2237 18.9037C10.2237 18.8501 10.2449 18.7988 10.2828 18.7609C10.3207 18.723 10.372 18.7018 10.4256 18.7018H11.8462V17.2811C11.8462 17.2276 11.8675 17.1762 11.9054 17.1383C11.9433 17.1005 11.9946 17.0792 12.0482 17.0792C12.1017 17.0792 12.1531 17.1005 12.191 17.1383C12.2288 17.1762 12.2501 17.2276 12.2501 17.2811V18.7018H13.6564C13.7099 18.7018 13.7613 18.723 13.7991 18.7609C13.837 18.7988 13.8583 18.8501 13.8583 18.9037C13.8583 18.9572 13.837 19.0086 13.7991 19.0465C13.7613 19.0843 13.7099 19.1056 13.6564 19.1056H12.2501V20.5119C12.2501 20.5654 12.2288 20.6168 12.191 20.6547C12.1531 20.6925 12.1017 20.7138 12.0482 20.7138C11.9946 20.7138 11.9433 20.6925 11.9054 20.6547C11.8675 20.6168 11.8462 20.5654 11.8462 20.5119V19.1056H10.4256C10.372 19.1056 10.3207 19.0843 10.2828 19.0465C10.2449 19.0086 10.2237 18.9572 10.2237 18.9037Z" fill="#02457C"/>
<path d="M14.372 14.8617C14.372 15.5815 14.9594 16.1635 15.6791 16.1635C15.7906 16.1635 15.8847 16.254 15.8847 16.3655V19.0184C15.8847 20.9508 14.7895 22.6999 13.1056 23.548H21.7332C21.8447 23.548 21.9423 23.6313 21.9423 23.7428V25.1562C21.9423 25.8243 22.4858 26.3678 23.1539 26.3678C23.8219 26.3678 24.3654 25.8243 24.3654 25.1562V8.60571H11.8462V14.6634H14.1683C14.2798 14.6634 14.372 14.7502 14.372 14.8617ZM18.5025 20.3173H17.2909C17.2374 20.3173 17.186 20.296 17.1481 20.2581C17.1103 20.2202 17.089 20.1689 17.089 20.1153C17.089 20.0618 17.1103 20.0104 17.1481 19.9725C17.186 19.9347 17.2374 19.9134 17.2909 19.9134H18.5025C18.556 19.9134 18.6074 19.9347 18.6452 19.9725C18.6831 20.0104 18.7044 20.0618 18.7044 20.1153C18.7044 20.1689 18.6831 20.2202 18.6452 20.2581C18.6074 20.296 18.556 20.3173 18.5025 20.3173ZM18.5025 18.7019H17.2909C17.2374 18.7019 17.186 18.6806 17.1481 18.6427C17.1103 18.6049 17.089 18.5535 17.089 18.4999C17.089 18.4464 17.1103 18.395 17.1481 18.3572C17.186 18.3193 17.2374 18.298 17.2909 18.298H18.5025C18.556 18.298 18.6074 18.3193 18.6452 18.3572C18.6831 18.395 18.7044 18.4464 18.7044 18.4999C18.7044 18.5535 18.6831 18.6049 18.6452 18.6427C18.6074 18.6806 18.556 18.7019 18.5025 18.7019ZM18.5025 17.0865H17.2909C17.2374 17.0865 17.186 17.0652 17.1481 17.0273C17.1103 16.9895 17.089 16.9381 17.089 16.8846C17.089 16.831 17.1103 16.7796 17.1481 16.7418C17.186 16.7039 17.2374 16.6826 17.2909 16.6826H18.5025C18.556 16.6826 18.6074 16.7039 18.6452 16.7418C18.6831 16.7796 18.7044 16.831 18.7044 16.8846C18.7044 16.9381 18.6831 16.9895 18.6452 17.0273C18.6074 17.0652 18.556 17.0865 18.5025 17.0865ZM18.5025 15.4711H17.2909C17.2374 15.4711 17.186 15.4498 17.1481 15.412C17.1103 15.3741 17.089 15.3227 17.089 15.2692C17.089 15.2156 17.1103 15.1643 17.1481 15.1264C17.186 15.0885 17.2374 15.0673 17.2909 15.0673H18.5025C18.556 15.0673 18.6074 15.0885 18.6452 15.1264C18.6831 15.1643 18.7044 15.2156 18.7044 15.2692C18.7044 15.3227 18.6831 15.3741 18.6452 15.412C18.6074 15.4498 18.556 15.4711 18.5025 15.4711ZM20.1178 10.2211H22.9448C22.9983 10.2211 23.0497 10.2424 23.0876 10.2802C23.1254 10.3181 23.1467 10.3695 23.1467 10.423C23.1467 10.4766 23.1254 10.5279 23.0876 10.5658C23.0497 10.6037 22.9983 10.6249 22.9448 10.6249H20.1178C20.0643 10.6249 20.0129 10.6037 19.9751 10.5658C19.9372 10.5279 19.9159 10.4766 19.9159 10.423C19.9159 10.3695 19.9372 10.3181 19.9751 10.2802C20.0129 10.2424 20.0643 10.2211 20.1178 10.2211ZM20.1178 11.8365H22.9448C22.9983 11.8365 23.0497 11.8578 23.0876 11.8956C23.1254 11.9335 23.1467 11.9849 23.1467 12.0384C23.1467 12.092 23.1254 12.1433 23.0876 12.1812C23.0497 12.2191 22.9983 12.2403 22.9448 12.2403H20.1178C20.0643 12.2403 20.0129 12.2191 19.9751 12.1812C19.9372 12.1433 19.9159 12.092 19.9159 12.0384C19.9159 11.9849 19.9372 11.9335 19.9751 11.8956C20.0129 11.8578 20.0643 11.8365 20.1178 11.8365ZM20.1178 13.4519H22.9448C22.9983 13.4519 23.0497 13.4731 23.0876 13.511C23.1254 13.5489 23.1467 13.6002 23.1467 13.6538C23.1467 13.7073 23.1254 13.7587 23.0876 13.7966C23.0497 13.8344 22.9983 13.8557 22.9448 13.8557H20.1178C20.0643 13.8557 20.0129 13.8344 19.9751 13.7966C19.9372 13.7587 19.9159 13.7073 19.9159 13.6538C19.9159 13.6002 19.9372 13.5489 19.9751 13.511C20.0129 13.4731 20.0643 13.4519 20.1178 13.4519ZM20.1178 15.0673H22.9448C22.9983 15.0673 23.0497 15.0885 23.0876 15.1264C23.1254 15.1643 23.1467 15.2156 23.1467 15.2692C23.1467 15.3227 23.1254 15.3741 23.0876 15.412C23.0497 15.4498 22.9983 15.4711 22.9448 15.4711H20.1178C20.0643 15.4711 20.0129 15.4498 19.9751 15.412C19.9372 15.3741 19.9159 15.3227 19.9159 15.2692C19.9159 15.2156 19.9372 15.1643 19.9751 15.1264C20.0129 15.0885 20.0643 15.0673 20.1178 15.0673ZM20.1178 16.6826H22.9448C22.9983 16.6826 23.0497 16.7039 23.0876 16.7418C23.1254 16.7796 23.1467 16.831 23.1467 16.8846C23.1467 16.9381 23.1254 16.9895 23.0876 17.0273C23.0497 17.0652 22.9983 17.0865 22.9448 17.0865H20.1178C20.0643 17.0865 20.0129 17.0652 19.9751 17.0273C19.9372 16.9895 19.9159 16.9381 19.9159 16.8846C19.9159 16.831 19.9372 16.7796 19.9751 16.7418C20.0129 16.7039 20.0643 16.6826 20.1178 16.6826ZM20.1178 18.298H22.9448C22.9983 18.298 23.0497 18.3193 23.0876 18.3572C23.1254 18.395 23.1467 18.4464 23.1467 18.4999C23.1467 18.5535 23.1254 18.6049 23.0876 18.6427C23.0497 18.6806 22.9983 18.7019 22.9448 18.7019H20.1178C20.0643 18.7019 20.0129 18.6806 19.9751 18.6427C19.9372 18.6049 19.9159 18.5535 19.9159 18.4999C19.9159 18.4464 19.9372 18.395 19.9751 18.3572C20.0129 18.3193 20.0643 18.298 20.1178 18.298ZM20.1178 19.9134H22.9448C22.9983 19.9134 23.0497 19.9347 23.0876 19.9725C23.1254 20.0104 23.1467 20.0618 23.1467 20.1153C23.1467 20.1689 23.1254 20.2202 23.0876 20.2581C23.0497 20.296 22.9983 20.3173 22.9448 20.3173H20.1178C20.0643 20.3173 20.0129 20.296 19.9751 20.2581C19.9372 20.2202 19.9159 20.1689 19.9159 20.1153C19.9159 20.0618 19.9372 20.0104 19.9751 19.9725C20.0129 19.9347 20.0643 19.9134 20.1178 19.9134ZM15.6755 10.2211H18.5025C18.556 10.2211 18.6074 10.2424 18.6452 10.2802C18.6831 10.3181 18.7044 10.3695 18.7044 10.423C18.7044 10.4766 18.6831 10.5279 18.6452 10.5658C18.6074 10.6037 18.556 10.6249 18.5025 10.6249H15.6755C15.622 10.6249 15.5706 10.6037 15.5328 10.5658C15.4949 10.5279 15.4736 10.4766 15.4736 10.423C15.4736 10.3695 15.4949 10.3181 15.5328 10.2802C15.5706 10.2424 15.622 10.2211 15.6755 10.2211ZM15.6755 11.8365H18.5025C18.556 11.8365 18.6074 11.8578 18.6452 11.8956C18.6831 11.9335 18.7044 11.9849 18.7044 12.0384C18.7044 12.092 18.6831 12.1433 18.6452 12.1812C18.6074 12.2191 18.556 12.2403 18.5025 12.2403H15.6755C15.622 12.2403 15.5706 12.2191 15.5328 12.1812C15.4949 12.1433 15.4736 12.092 15.4736 12.0384C15.4736 11.9849 15.4949 11.9335 15.5328 11.8956C15.5706 11.8578 15.622 11.8365 15.6755 11.8365ZM15.6755 13.4519H18.5025C18.556 13.4519 18.6074 13.4731 18.6452 13.511C18.6831 13.5489 18.7044 13.6002 18.7044 13.6538C18.7044 13.7073 18.6831 13.7587 18.6452 13.7966C18.6074 13.8344 18.556 13.8557 18.5025 13.8557H15.6755C15.622 13.8557 15.5706 13.8344 15.5328 13.7966C15.4949 13.7587 15.4736 13.7073 15.4736 13.6538C15.4736 13.6002 15.4949 13.5489 15.5328 13.511C15.5706 13.4731 15.622 13.4519 15.6755 13.4519Z" fill="#02457C"/>
<path d="M24.7694 10.2212V25.1563C24.7694 25.9426 24.2009 26.6028 23.4558 26.746C23.4254 26.7642 23.3868 26.7789 23.3488 26.7789H13.0579V28.3943H26.3848V10.2212H24.7694Z" fill="#02457C"/>
</svg>
