<svg width="36" height="36" viewBox="0 0 36 36" fill="none" xmlns="http://www.w3.org/2000/svg">
<circle cx="18" cy="18" r="18" fill="#E8F7FF"/>
<g clipPath="url(#clip0_1059_1911)">
<path d="M7 26.1666H19.8333V28H7V26.1666ZM18 24.3184C18 24.0753 17.9034 23.8421 17.7315 23.6702C17.5596 23.4983 17.3264 23.4017 17.0833 23.4017H9.75C9.50688 23.4017 9.27373 23.4983 9.10182 23.6702C8.92991 23.8421 8.83333 24.0753 8.83333 24.3184V25.25H18V24.3184ZM19.4726 16.8237C19.0455 17.2789 18.6873 17.7942 18.4095 18.3532L25.9546 25.8983C26.1265 26.0701 26.3596 26.1667 26.6027 26.1667C26.8458 26.1667 27.0789 26.0701 27.2508 25.8983L28.5472 24.6019C28.6323 24.5167 28.6998 24.4157 28.7459 24.3045C28.792 24.1933 28.8157 24.0741 28.8157 23.9537C28.8157 23.8333 28.792 23.7141 28.7459 23.6029C28.6998 23.4916 28.6323 23.3906 28.5472 23.3055L21.0021 15.7625C20.4421 16.0378 19.9266 16.3956 19.4726 16.8237ZM14.9354 12.2865C14.2422 12.9298 13.4397 13.4442 12.5658 13.8056L17.3036 18.5434C17.6682 17.671 18.1832 16.8693 18.825 16.175C19.5183 15.5317 20.3207 15.0172 21.1946 14.6556L16.4566 9.9187C16.0918 10.7908 15.5769 11.5922 14.9354 12.2865Z" fill="#02457C"/>
<path d="M18.1744 6.45365L16.878 7.75001C16.5201 8.10799 16.5201 8.68839 16.878 9.04637L22.0635 14.2318C22.4215 14.5898 23.0019 14.5898 23.3599 14.2318L24.6562 12.9355C25.0142 12.5775 25.0142 11.9971 24.6562 11.6391L19.4708 6.45365C19.1128 6.09567 18.5324 6.09567 18.1744 6.45365Z" fill="#02457C"/>
<path d="M10.3962 14.2303L9.09984 15.5266C8.74186 15.8846 8.74186 16.465 9.09984 16.823L14.2853 22.0084C14.6433 22.3664 15.2237 22.3664 15.5817 22.0084L16.878 20.7121C17.236 20.3541 17.236 19.7737 16.878 19.4157L11.6926 14.2303C11.3346 13.8723 10.7542 13.8723 10.3962 14.2303Z" fill="#02457C"/>
</g>
<defs>
<clipPath id="clip0_1059_1911">
<rect width="22" height="22" fill="white" transform="translate(7 6)"/>
</clipPath>
</defs>
</svg>
