<svg width="52" height="52" viewBox="0 0 52 52" fill="none" xmlns="http://www.w3.org/2000/svg">
<rect width="52" height="52" rx="6" fill="#F4F4F4"/>
<path d="M26.0004 28.3333H27.167C28.4504 28.3333 29.5004 27.2833 29.5004 25.9999V14.3333H19.0004C17.2504 14.3333 15.722 15.3016 14.9287 16.7249" stroke="#141414" stroke-width="1.5" stroke-linecap="round" stroke-linejoin="round"/>
<path d="M14.333 31.8333C14.333 33.7699 15.8963 35.3333 17.833 35.3333H18.9997C18.9997 34.0499 20.0497 32.9999 21.333 32.9999C22.6163 32.9999 23.6663 34.0499 23.6663 35.3333H28.333C28.333 34.0499 29.383 32.9999 30.6663 32.9999C31.9497 32.9999 32.9997 34.0499 32.9997 35.3333H34.1663C36.103 35.3333 37.6663 33.7699 37.6663 31.8333V28.3333H34.1663C33.5247 28.3333 32.9997 27.8083 32.9997 27.1666V23.6666C32.9997 23.0249 33.5247 22.4999 34.1663 22.4999H35.6713L33.6764 19.0116C33.2564 18.2883 32.4864 17.8333 31.6464 17.8333H29.4997V25.9999C29.4997 27.2833 28.4497 28.3333 27.1663 28.3333H25.9997" stroke="#141414" stroke-width="1.5" stroke-linecap="round" stroke-linejoin="round"/>
<path d="M21.3333 37.6667C22.622 37.6667 23.6667 36.622 23.6667 35.3333C23.6667 34.0447 22.622 33 21.3333 33C20.0447 33 19 34.0447 19 35.3333C19 36.622 20.0447 37.6667 21.3333 37.6667Z" stroke="#141414" stroke-width="1.5" stroke-linecap="round" stroke-linejoin="round"/>
<path d="M30.6663 37.6667C31.955 37.6667 32.9997 36.622 32.9997 35.3333C32.9997 34.0447 31.955 33 30.6663 33C29.3777 33 28.333 34.0447 28.333 35.3333C28.333 36.622 29.3777 37.6667 30.6663 37.6667Z" stroke="#141414" stroke-width="1.5" stroke-linecap="round" stroke-linejoin="round"/>
<path d="M37.6667 26V28.3333H34.1667C33.525 28.3333 33 27.8083 33 27.1667V23.6667C33 23.025 33.525 22.5 34.1667 22.5H35.6716L37.6667 26Z" stroke="#141414" stroke-width="1.5" stroke-linecap="round" stroke-linejoin="round"/>
<path d="M14.333 21.3333H21.333" stroke="#141414" stroke-width="1.5" stroke-linecap="round" stroke-linejoin="round"/>
<path d="M14.333 24.8333H18.9997" stroke="#141414" stroke-width="1.5" stroke-linecap="round" stroke-linejoin="round"/>
<path d="M14.333 28.3333H16.6663" stroke="#141414" stroke-width="1.5" stroke-linecap="round" stroke-linejoin="round"/>
</svg>
