<svg width="36" height="36" viewBox="0 0 36 36" fill="none" xmlns="http://www.w3.org/2000/svg">
<circle cx="18" cy="18" r="18" fill="#E8F7FF"/>
<path fill-rule="evenodd" clip-rule="evenodd" d="M28.8573 17.4384L27.5633 14.3913C27.4882 14.2145 27.324 14.1058 27.1318 14.1058H24.3215C24.0633 14.1058 23.8527 14.3164 23.8527 14.5746V17.2956C23.8527 17.5538 24.0633 17.7644 24.3215 17.7644H28.6416C28.7227 17.7644 28.7923 17.7269 28.837 17.6594C28.8818 17.5918 28.889 17.513 28.8573 17.4384ZM16.1706 9.65625H13.6159V13.8207H16.1706V9.65625ZM7.375 23.2971V21.2225H22.0366V24.2346H15.891C15.891 22.6556 14.6105 21.3752 13.0316 21.3752C11.4527 21.3752 10.1722 22.6556 10.1722 24.2346H8.31245C7.79612 24.2346 7.375 23.8134 7.375 23.2971ZM7.375 20.4725V10.5937C7.375 10.0774 7.79612 9.65625 8.31245 9.65625H12.8659V14.1019C12.8659 14.3601 13.0765 14.5707 13.3347 14.5707H16.4519C16.7101 14.5707 16.9206 14.3601 16.9206 14.1019V9.65625H21.0991C21.6154 9.65625 22.0366 10.0774 22.0366 10.5937V20.4725H7.375ZM26.5183 23.1799C25.9354 23.1799 25.4636 23.6517 25.4636 24.2346C25.4636 24.8175 25.9354 25.2893 26.5183 25.2893C27.1012 25.2893 27.573 24.8175 27.573 24.2346C27.573 23.6517 27.1012 23.1799 26.5183 23.1799ZM26.5183 22.1252C27.6833 22.1252 28.6277 23.0696 28.6277 24.2346C28.6277 25.3995 27.6833 26.3439 26.5183 26.3439C25.3533 26.3439 24.409 25.3995 24.409 24.2346C24.409 23.0696 25.3533 22.1252 26.5183 22.1252ZM13.0315 23.1799C12.4487 23.1799 11.9769 23.6517 11.9769 24.2346C11.9769 24.8175 12.4487 25.2893 13.0315 25.2893C13.6144 25.2893 14.0862 24.8175 14.0862 24.2346C14.0863 23.6517 13.6145 23.1799 13.0315 23.1799ZM13.0315 22.1252C11.8666 22.1252 10.9222 23.0696 10.9222 24.2346C10.9222 25.3995 11.8666 26.3439 13.0315 26.3439C14.1965 26.3439 15.1409 25.3995 15.1409 24.2346C15.141 23.0696 14.1966 22.1252 13.0315 22.1252ZM22.7866 12.6647H27.5922C28.0862 12.6647 28.5075 12.9281 28.6861 13.3487L30.5456 17.7271C30.6006 17.8567 30.625 17.9755 30.625 18.1144V23.5314C30.625 23.9187 30.3092 24.2346 29.9219 24.2346H29.3777C29.3777 22.6556 28.0973 21.3752 26.5183 21.3752C24.9394 21.3752 23.659 22.6556 23.659 24.2346H22.7866V12.6647Z" fill="#02457C"/>
</svg>
