<svg width="52" height="52" viewBox="0 0 52 52" fill="none" xmlns="http://www.w3.org/2000/svg">
<rect width="52" height="52" rx="6" fill="#F4F4F4"/>
<path d="M15.6982 20.6799L25.9999 26.6416L36.2315 20.7149" stroke="#141414" stroke-width="1.5" stroke-linecap="round" stroke-linejoin="round"/>
<path d="M26 37.2116V26.6299" stroke="#141414" stroke-width="1.5" stroke-linecap="round" stroke-linejoin="round"/>
<path d="M23.5847 14.8933L17.3547 18.3583C15.9431 19.14 14.7881 21.0999 14.7881 22.7099V29.3016C14.7881 30.9116 15.9431 32.8716 17.3547 33.6533L23.5847 37.1183C24.9147 37.8533 27.0964 37.8533 28.4264 37.1183L34.6564 33.6533C36.0681 32.8716 37.2231 30.9116 37.2231 29.3016V22.7099C37.2231 21.0999 36.0681 19.14 34.6564 18.3583L28.4264 14.8933C27.0847 14.1466 24.9147 14.1466 23.5847 14.8933Z" stroke="#141414" stroke-width="1.5" stroke-linecap="round" stroke-linejoin="round"/>
<path d="M31.8334 27.4466V23.1766L20.7617 16.7832" stroke="#141414" stroke-width="1.5" stroke-linecap="round" stroke-linejoin="round"/>
</svg>
