<svg width="36" height="36" viewBox="0 0 36 36" fill="none" xmlns="http://www.w3.org/2000/svg">
<circle cx="18" cy="18" r="18" fill="#E8F7FF"/>
<g clip-path="url(#clip0_1059_1830)">
<path d="M24.1126 27.0107C23.5719 26.7698 23.0949 26.406 22.7195 25.9483C22.3441 25.4906 22.0807 24.9516 21.9502 24.3742C21.938 24.3217 21.9093 24.2746 21.8682 24.2397C21.4633 23.8895 21.1239 23.47 20.8658 23.001C20.7639 22.8212 20.715 22.6162 20.725 22.4097C20.7349 22.2033 20.8032 22.0039 20.9219 21.8347C21.0406 21.6655 21.2048 21.5334 21.3955 21.4538C21.5863 21.3742 21.7957 21.3504 21.9995 21.385C22.1315 21.409 22.2658 21.4172 22.3998 21.4096C22.4359 21.4075 22.471 21.3974 22.5028 21.3801C22.5346 21.3628 22.5621 21.3387 22.5835 21.3095C23.1018 20.6005 23.8565 20.1001 24.7114 19.8986C24.7648 19.8858 24.8123 19.8553 24.8462 19.8121C24.8802 19.769 24.8986 19.7156 24.8984 19.6607V17.8659C24.8984 17.8065 24.877 17.7491 24.8381 17.7042C24.7993 17.6594 24.7455 17.63 24.6868 17.6214C24.5441 17.6001 24.4177 17.5771 24.3013 17.5492C23.8137 17.4314 23.3514 17.2269 22.9362 16.9455C22.8911 16.9131 22.8358 16.898 22.7804 16.9028C22.1781 16.9376 21.5745 16.8631 20.9987 16.683C20.0932 16.4489 19.8917 15.1483 20.6837 14.6502C20.8358 14.5473 20.9737 14.4249 21.0938 14.286C21.1173 14.2595 21.1347 14.2281 21.1446 14.194C21.1545 14.16 21.1568 14.1242 21.1513 14.0891C21.0401 13.311 21.1504 12.5172 21.4695 11.7988C21.7533 11.1528 22.1975 10.5901 22.7601 10.1643C23.3226 9.73841 23.9848 9.46354 24.6835 9.36578C24.7441 9.35688 24.7992 9.32573 24.838 9.2784C24.8768 9.23108 24.8966 9.17098 24.8935 9.10985C24.8678 8.54124 24.6236 8.0045 24.2119 7.61145C23.8003 7.21841 23.2528 6.99938 22.6836 7H14.3164C13.7293 7.00087 13.1664 7.2345 12.7512 7.64967C12.3361 8.06485 12.1024 8.6277 12.1016 9.21485V12.8734C12.1019 12.9079 12.1094 12.9418 12.1236 12.9732C12.1378 13.0045 12.1584 13.0326 12.184 13.0556C12.2096 13.0786 12.2397 13.096 12.2724 13.1067C12.3051 13.1174 12.3397 13.1212 12.3739 13.1179C12.5619 13.0979 12.7508 13.0875 12.9399 13.0867C13.9774 13.0877 14.9927 13.3872 15.8646 13.9496C16.7365 14.5119 17.4281 15.3133 17.8569 16.258C17.8709 16.2897 17.8915 16.318 17.9172 16.3412C17.9429 16.3644 17.9733 16.3819 18.0062 16.3926C18.3223 16.4962 18.6529 16.5494 18.9856 16.5501C19.2276 16.5512 19.4643 16.6207 19.6685 16.7506C19.8727 16.8804 20.0359 17.0654 20.1395 17.2841C20.2431 17.5027 20.2828 17.7462 20.254 17.9865C20.2251 18.2267 20.129 18.4539 19.9766 18.6419C19.4649 19.2915 18.8312 19.8348 18.1112 20.2415C18.0585 20.269 18.0182 20.3152 17.998 20.3711C17.6133 21.4038 16.9215 22.2939 16.0158 22.9216C15.11 23.5492 14.0337 23.8844 12.9317 23.882C12.7453 23.8806 12.5592 23.8696 12.3739 23.8492C12.3397 23.8459 12.3051 23.8498 12.2724 23.8605C12.2398 23.8713 12.2097 23.8887 12.1841 23.9117C12.1585 23.9346 12.1379 23.9627 12.1237 23.994C12.1095 24.0253 12.102 24.0593 12.1016 24.0937V25.7852C12.1024 26.3723 12.3361 26.9352 12.7512 27.3503C13.1664 27.7655 13.7293 27.9991 14.3164 28H22.6836C23.2375 28.0001 23.7711 27.7916 24.1782 27.4159C24.2081 27.3884 24.2307 27.3538 24.244 27.3154C24.2573 27.277 24.2608 27.2358 24.2543 27.1957C24.2478 27.1555 24.2315 27.1176 24.2067 27.0854C24.182 27.0531 24.1496 27.0274 24.1126 27.0107ZM16.9578 8.80469C16.7695 8.7988 16.5863 8.742 16.4277 8.64031C16.2691 8.53862 16.141 8.39585 16.0571 8.22719L15.6634 7.49219H21.3383L20.9429 8.22719C20.859 8.39585 20.7309 8.53862 20.5723 8.64031C20.4137 8.742 20.2305 8.7988 20.0422 8.80469H16.9578ZM20.2227 25.8672H16.7773C16.7121 25.8672 16.6495 25.8413 16.6033 25.7951C16.5572 25.749 16.5312 25.6864 16.5312 25.6211C16.5312 25.5558 16.5572 25.4932 16.6033 25.4471C16.6495 25.4009 16.7121 25.375 16.7773 25.375H20.2227C20.2879 25.375 20.3505 25.4009 20.3967 25.4471C20.4428 25.4932 20.4688 25.5558 20.4688 25.6211C20.4688 25.6864 20.4428 25.749 20.3967 25.7951C20.3505 25.8413 20.2879 25.8672 20.2227 25.8672ZM25.3058 23.8984H25.9558L26.1317 23.2422H25.4817L25.3058 23.8984Z" fill="#02457C"/>
<path d="M24.3763 20.5187C23.7342 20.7767 23.1921 21.2346 22.8305 21.8246C22.8251 21.8332 22.8179 21.8406 22.8094 21.8462C22.8009 21.8519 22.7913 21.8557 22.7813 21.8574C22.4951 21.9155 22.2007 21.92 21.9129 21.8707C21.8013 21.8518 21.6867 21.8649 21.5823 21.9085C21.4778 21.9521 21.3879 22.0245 21.323 22.1172C21.2581 22.2099 21.2208 22.3191 21.2155 22.4322C21.2101 22.5452 21.237 22.6575 21.2929 22.7558C21.5555 23.2419 21.9191 23.6661 22.3593 23.9999C22.367 24.0052 22.3735 24.012 22.3785 24.0199C22.3835 24.0277 22.3869 24.0365 22.3885 24.0457C22.6194 25.6279 24.1087 26.8799 25.6634 26.8628C26.2586 26.8561 26.8407 26.6874 27.3473 26.3749C27.8539 26.0624 28.2659 25.6179 28.5391 25.0891C28.8123 24.5602 28.9363 23.967 28.8979 23.373C28.8595 22.779 28.6602 22.2066 28.3212 21.7173C27.8957 21.1013 27.2742 20.6475 26.5578 20.4299C25.8415 20.2122 25.0726 20.2435 24.3763 20.5187ZM27.1132 23.2421H26.6412L26.4655 23.8984H26.9491C27.0144 23.8984 27.077 23.9243 27.1232 23.9705C27.1693 24.0166 27.1952 24.0792 27.1952 24.1445C27.1952 24.2097 27.1693 24.2723 27.1232 24.3185C27.077 24.3646 27.0144 24.3906 26.9491 24.3906H26.3336L26.1762 24.9774C26.1679 25.0087 26.1534 25.0379 26.1337 25.0636C26.1141 25.0893 26.0895 25.1108 26.0615 25.127C26.0335 25.1431 26.0026 25.1536 25.9705 25.1579C25.9384 25.1621 25.9059 25.1599 25.8746 25.1516C25.8434 25.1432 25.8141 25.1288 25.7884 25.1091C25.7628 25.0894 25.7412 25.0648 25.7251 25.0368C25.7089 25.0088 25.6984 24.9779 25.6942 24.9458C25.69 24.9138 25.6921 24.8812 25.7005 24.8499L25.8235 24.3906H25.1735L25.0144 24.9846C25.006 25.0159 24.9915 25.0452 24.9719 25.0708C24.9522 25.0965 24.9276 25.118 24.8996 25.1342C24.8716 25.1504 24.8407 25.1608 24.8086 25.1651C24.7766 25.1693 24.744 25.1672 24.7127 25.1588C24.6815 25.1504 24.6522 25.136 24.6265 25.1163C24.6009 25.0966 24.5794 25.072 24.5632 25.044C24.547 25.016 24.5365 24.9851 24.5323 24.953C24.5281 24.921 24.5302 24.8884 24.5386 24.8572L24.6636 24.3906H24.3241C24.2589 24.3906 24.1963 24.3646 24.1501 24.3185C24.104 24.2723 24.0781 24.2097 24.0781 24.1445C24.0781 24.0792 24.104 24.0166 24.1501 23.9705C24.1963 23.9243 24.2589 23.8984 24.3241 23.8984H24.7962L24.9719 23.2421H24.4882C24.4229 23.2421 24.3603 23.2162 24.3142 23.17C24.268 23.1239 24.2421 23.0613 24.2421 22.996C24.2421 22.9308 24.268 22.8682 24.3142 22.822C24.3603 22.7759 24.4229 22.7499 24.4882 22.7499H25.1038L25.2611 22.1631C25.278 22.1 25.3193 22.0462 25.3759 22.0135C25.4324 21.9809 25.4996 21.972 25.5627 21.9889C25.6258 22.0058 25.6796 22.0471 25.7123 22.1037C25.7449 22.1602 25.7538 22.2275 25.7369 22.2906L25.6138 22.7499H26.2639L26.423 22.1559C26.4314 22.1246 26.4458 22.0953 26.4655 22.0697C26.4852 22.044 26.5097 22.0225 26.5377 22.0063C26.5658 21.9902 26.5967 21.9797 26.6287 21.9754C26.6608 21.9712 26.6934 21.9733 26.7246 21.9817C26.7559 21.9901 26.7852 22.0045 26.8108 22.0242C26.8365 22.0439 26.858 22.0685 26.8742 22.0965C26.8903 22.1245 26.9008 22.1554 26.9051 22.1875C26.9093 22.2195 26.9072 22.2521 26.8988 22.2833L26.7731 22.7499H27.1132C27.1785 22.7499 27.2411 22.7759 27.2872 22.822C27.3334 22.8682 27.3593 22.9308 27.3593 22.996C27.3593 23.0613 27.3334 23.1239 27.2872 23.17C27.2411 23.2162 27.1785 23.2421 27.1132 23.2421ZM21.9203 11.9976C21.6029 12.708 21.5196 13.5009 21.6824 14.2617C21.6857 14.2779 21.6857 14.2946 21.6822 14.3108C21.6788 14.327 21.672 14.3422 21.6624 14.3557C21.474 14.6313 21.2362 14.8696 20.9609 15.0584C20.8606 15.1274 20.7819 15.2233 20.7337 15.3351C20.6854 15.4468 20.6697 15.5699 20.6882 15.6902C20.7067 15.8105 20.7587 15.9232 20.8383 16.0153C20.9179 16.1074 21.0219 16.1752 21.1382 16.2109C21.7245 16.4008 22.3449 16.4616 22.9569 16.3891C22.9708 16.387 22.9849 16.3877 22.9985 16.3912C23.0122 16.3946 23.025 16.4007 23.0363 16.4091C23.6839 16.9024 24.4746 17.1713 25.2887 17.1753C27.9854 17.1876 29.7976 14.2369 28.5514 11.8157C27.1514 9.09682 23.1611 9.18886 21.9203 11.9976ZM25.5338 15.1437C25.4651 15.1826 25.3875 15.2031 25.3085 15.2031C25.2296 15.2031 25.1519 15.1826 25.0833 15.1437C24.1207 14.5965 23.5739 13.9171 23.5972 13.056C23.5966 12.9292 23.621 12.8035 23.669 12.6861C23.717 12.5687 23.7876 12.4619 23.8769 12.3718C23.9661 12.2818 24.0723 12.2101 24.1892 12.1611C24.3062 12.112 24.4316 12.0865 24.5584 12.0859C24.7028 12.0858 24.8454 12.1185 24.9753 12.1815C25.1052 12.2445 25.2192 12.3362 25.3085 12.4496C25.3979 12.3362 25.5118 12.2445 25.6418 12.1815C25.7717 12.1185 25.9142 12.0858 26.0586 12.0859C26.1854 12.0865 26.3109 12.112 26.4278 12.1611C26.5448 12.2101 26.6509 12.2818 26.7402 12.3718C26.8294 12.4619 26.9001 12.5687 26.948 12.6861C26.996 12.8035 27.0204 12.9292 27.0199 13.056C27.044 13.9171 26.4963 14.596 25.5338 15.1437ZM17.5976 20.0252C17.6076 19.996 17.6233 19.9692 17.6437 19.9461C17.6641 19.923 17.6889 19.9042 17.7167 19.8908C18.4485 19.5118 19.0896 18.979 19.596 18.3288C19.6892 18.213 19.7478 18.0733 19.7652 17.9257C19.7826 17.7781 19.758 17.6285 19.6944 17.4942C19.6307 17.36 19.5304 17.2463 19.4051 17.1664C19.2798 17.0865 19.1345 17.0435 18.9859 17.0424C18.5218 17.0399 18.0622 16.9514 17.6304 16.7812C17.5981 16.769 17.5685 16.7503 17.5437 16.7263C17.5188 16.7023 17.4992 16.6735 17.4859 16.6416C17.0963 15.6797 16.4112 14.8665 15.5294 14.3193C12.0613 12.1454 7.61356 15.031 8.07179 19.0782C8.34266 21.4703 10.5555 23.4462 12.9415 23.3963C14.9545 23.4403 16.9858 22.0003 17.5976 20.0252ZM11.7734 20.5714C11.6987 20.6151 11.6138 20.6381 11.5273 20.6381H10.871C10.7405 20.6381 10.6153 20.5863 10.523 20.494C10.4307 20.4017 10.3788 20.2765 10.3788 20.1459V17.685C10.3788 17.5545 10.4307 17.4293 10.523 17.337C10.6153 17.2447 10.7405 17.1928 10.871 17.1928H11.5273C11.6136 17.1927 11.6985 17.2153 11.7734 17.2584V20.5714ZM12.2656 20.3509V17.4033C12.7476 16.9561 13.0576 16.0455 13.2642 15.6163C13.6278 14.8603 14.3601 15.8744 14.1811 16.4202C14.1193 16.6092 13.9882 17.1913 13.9882 17.1913C14.3798 17.1913 14.7554 17.3469 15.0323 17.6238C15.3092 17.9007 15.4648 18.2763 15.4648 18.6679V19.1601C15.4648 19.5517 15.3092 19.9273 15.0323 20.2042C14.7554 20.4811 14.3798 20.6367 13.9882 20.6367H13.0721C12.9193 20.6366 12.7686 20.601 12.6319 20.5326L12.2656 20.3509Z" fill="#02457C"/>
</g>
<defs>
<clipPath id="clip0_1059_1830">
<rect width="21" height="21" fill="white" transform="translate(8 7)"/>
</clipPath>
</defs>
</svg>
