<svg width="36" height="36" viewBox="0 0 36 36" fill="none" xmlns="http://www.w3.org/2000/svg">
<circle cx="18" cy="18" r="18" fill="#E8F7FF"/>
<path d="M15.5366 22.0359C16.1287 23.4086 16.9542 24.6537 18 25.7487C19.0458 24.6536 19.8713 23.4086 20.4634 22.0359H15.5366ZM16.391 8.12109C15.2676 8.32327 14.193 8.73791 13.225 9.34278C12.1474 10.0167 11.2236 10.9098 10.5136 11.964H14.1436C14.6833 10.5629 15.4362 9.27592 16.391 8.12109ZM19.609 25.8788C20.7324 25.6766 21.807 25.262 22.775 24.6571C23.8526 23.9832 24.7764 23.0901 25.4864 22.0359H21.8564C21.3167 23.437 20.5638 24.724 19.609 25.8788ZM25.4864 11.964C24.7764 10.9098 23.8526 10.0167 22.775 9.34278C21.807 8.73793 20.7324 8.3233 19.609 8.12114C20.5638 9.27596 21.3167 10.563 21.8564 11.964L25.4864 11.964ZM20.4634 11.964C19.8713 10.5912 19.0458 9.34622 18 8.2512C16.9541 9.34626 16.1287 10.5912 15.5366 11.964H20.4634ZM10.5136 22.0359C11.2236 23.0901 12.1474 23.9832 13.225 24.6571C14.193 25.262 15.2676 25.6766 16.391 25.8787C15.4362 24.7239 14.6833 23.4369 14.1436 22.0358H10.5136V22.0359ZM7 13.2531V20.7468H29V13.2531H7ZM13.7619 19.1788H12.829L11.111 16.4447V19.2367H10.1218V14.4955L11.0547 14.4956L12.7726 17.2297V14.4885H13.7619V19.1788ZM16.9105 15.4949H15.3411V16.368H16.7948V17.3572H15.3411V18.2302H16.9105V19.2194H14.3518V14.5056H16.9105V15.4949ZM21.5717 19.2046L20.6336 19.211L19.8638 16.5412L19.0935 19.2048L18.1548 19.2112L17.2471 14.6221L18.2175 14.4302L18.7159 16.9497L19.4103 14.5487L20.3192 14.5498L21.0116 16.9512L21.5121 14.4366L22.4823 14.6297L21.5717 19.2046ZM25.859 18.0143C25.7325 18.7226 25.0571 19.2367 24.2529 19.2367C23.602 19.2367 22.991 18.9744 22.5765 18.517L23.3095 17.8527C23.5335 18.0999 23.8862 18.2474 24.2529 18.2474C24.6032 18.2474 24.8494 18.0405 24.8851 17.8404C24.9331 17.5721 24.5321 17.402 24.4081 17.3562C23.8244 17.1409 23.306 16.9102 23.2842 16.9005L23.2484 16.8845L23.2156 16.8631C22.8111 16.5994 22.6026 16.1369 22.6716 15.6561C22.7451 15.1444 23.1189 14.7277 23.6471 14.5685C24.6868 14.2553 25.542 14.9607 25.578 14.9909L24.9414 15.7481L24.9444 15.7506C24.9396 15.7467 24.4539 15.3587 23.9325 15.5157C23.7049 15.5843 23.6597 15.7351 23.6509 15.7967C23.6447 15.8397 23.6415 15.9421 23.7315 16.0165C23.8667 16.0756 24.2929 16.2593 24.7504 16.4281C25.7131 16.7832 25.9543 17.4804 25.859 18.0143Z" fill="#02457C"/>
</svg>
