<svg width="36" height="36" viewBox="0 0 36 36" fill="none" xmlns="http://www.w3.org/2000/svg">
<circle cx="18" cy="18" r="18" fill="#E8F7FF"/>
<g clipPath="url(#clip0_1059_1938)">
<path d="M24.252 16.091V15.498L24.2391 15.4937L23.8223 15.9148C23.6719 16.0652 23.4098 16.0652 23.2594 15.9148L22.2883 14.9437C22.1379 14.789 22.1379 14.5398 22.2926 14.3851L22.7137 13.9683L22.7094 13.9554H22.1164C21.9016 13.9554 21.7211 13.7792 21.7211 13.5601V12.1851C21.7211 11.966 21.8973 11.7898 22.1164 11.7898H22.7094L22.7137 11.7769L22.2926 11.3558C22.1422 11.2011 22.1422 10.9519 22.2969 10.7972L23.268 9.82612C23.4184 9.67573 23.6805 9.67573 23.8309 9.82612L24.252 10.2472C24.2562 10.2429 24.2605 10.2429 24.2605 10.2429V9.64136C24.2605 9.42222 24.441 9.24604 24.6559 9.24604H26.0309C26.25 9.24604 26.4262 9.42222 26.4262 9.64136V10.2343C26.4305 10.2343 26.4348 10.2386 26.4391 10.2386L26.8516 9.82183C27.002 9.67144 27.2641 9.67144 27.4102 9.82183L28.3813 10.7886C28.5359 10.9347 28.5359 11.2011 28.3855 11.3515L27.9645 11.7683L27.9688 11.7812H28.5617C28.7809 11.7812 28.957 11.9574 28.957 12.1765V13.5515C28.957 13.7707 28.7809 13.9468 28.5617 13.9468H27.9688L27.9645 13.9597L28.3813 14.3765C28.5359 14.5269 28.5359 14.789 28.3855 14.9394L27.4145 15.9105C27.2641 16.0609 27.002 16.0609 26.8559 15.9105L26.4348 15.4894C26.4305 15.4937 26.4262 15.4937 26.4219 15.4937V16.0867C26.4219 16.3015 26.2457 16.482 26.0266 16.482H24.6516C24.4324 16.4863 24.252 16.3058 24.252 16.091ZM26.5465 12.864C26.4949 11.2656 24.1746 11.2656 24.1273 12.864C24.1789 14.4667 26.4949 14.4667 26.5465 12.864ZM23.9984 28.8011H12.0531V29.2007H23.9984V28.8011ZM11.0391 22.5707H25.0555C25.1199 22.5707 25.1801 22.6007 25.223 22.6566C25.2617 22.7082 25.2703 22.7769 25.2488 22.8414L23.3711 28.3371H12.7277L10.85 22.8414C10.8027 22.7082 10.9059 22.5664 11.0391 22.5707ZM16.5992 25.9265C16.7926 26.5109 17.3898 26.9105 18.043 26.9019C19.1902 26.9062 19.9508 25.6085 19.2375 24.689C18.3137 23.473 16.1008 24.3453 16.5992 25.9265ZM22.0605 20.6628C21.7383 20.491 21.3945 20.4007 21.0379 20.3707C20.707 20.7316 20.3719 21.0925 20.041 21.4535C20.1656 21.6039 20.4707 21.7414 20.3633 21.982L20.3031 22.1066H23.3883C23.1133 21.4878 22.6535 20.9679 22.0605 20.6628ZM16.0449 21.4535C15.7141 21.0925 15.3789 20.7316 15.0438 20.3707C14.0082 20.4437 13.1102 21.157 12.6934 22.1023H15.7785L15.7184 21.9777C15.6152 21.7414 15.916 21.6039 16.0449 21.4535ZM16.5434 21.3031C16.7582 21.5652 16.3629 21.7585 16.2168 21.9347L16.2984 22.1066H16.9945L16.5176 20.0054C16.5133 19.9882 16.509 19.9625 16.5133 19.941L16.5047 19.7949L15.5336 20.216C15.8516 20.5554 16.2254 20.9593 16.5434 21.3031ZM17.1234 20.3019C17.1062 20.2933 17.0848 20.289 17.0633 20.2804L17.4758 22.1023H18.6102L19.0098 20.332C18.3996 20.5296 17.725 20.5253 17.1234 20.3019ZM19.5512 21.6339C19.4609 21.5523 19.4523 21.3933 19.5426 21.3031C19.8777 20.9378 20.2172 20.5769 20.5523 20.2117L19.5813 19.7906C19.577 19.8292 19.5727 19.9625 19.5684 20.0011L19.0914 22.1023H19.7875L19.8691 21.9304C19.7617 21.8316 19.6586 21.7328 19.5512 21.6339ZM19.3836 19.1117C20.9133 18.6046 20.6984 17.4574 20.7027 16.1554L20.6598 16.1468C20.4922 16.9847 19.9379 17.8226 19.1945 18.2781C19.1945 18.2867 19.3793 19.1031 19.3836 19.1117ZM17.0289 19.7476C17.6605 20.0656 18.4125 20.0914 19.0613 19.8121C19.0012 19.5328 18.825 18.798 18.7648 18.5101C18.275 18.7335 17.7895 18.7378 17.3039 18.5015L17.0289 19.7476ZM15.3918 15.9792C15.3875 15.9449 15.3789 15.9105 15.3746 15.8761C15.4133 17.2339 15.0523 18.5789 16.6938 19.1117L16.8785 18.2738C16.0879 17.7582 15.5293 16.916 15.3918 15.9792ZM17.0762 13.7835C16.9 13.5085 16.7539 13.2035 16.625 12.907C15.8516 13.3882 15.3531 14.2648 15.3703 15.1843C16.0406 14.8964 16.6594 14.471 17.1879 13.9683C17.1492 13.9125 17.1148 13.848 17.0762 13.7835ZM17.4887 18.0761C18.5328 18.6605 19.8906 17.264 20.1355 16.2972C20.1398 16.2671 20.2215 16.0265 20.1871 16.0351C19.6328 15.8503 19.1086 15.6097 18.623 15.2832C18.5242 15.2144 17.4457 14.3722 17.4801 14.3421C16.9859 14.8019 16.423 15.1972 15.8172 15.498C15.8043 16.598 16.4961 17.6292 17.4887 18.0761ZM20.707 15.6828C20.9691 13.6933 18.9711 11.9101 17.0461 12.6964C17.6176 14.2562 19.1773 15.2832 20.707 15.6828ZM17.1621 24.9941C16.393 26.2832 18.5285 27.0652 19.0098 25.7503C19.3234 24.6718 17.7379 24.1777 17.1621 24.9941ZM8.87344 12.2796C8.87344 12.6707 9.00234 13.0359 9.24726 13.3367C9.57812 13.7449 9.7543 14.2046 9.77148 14.6816H11.3699C11.3828 14.2089 11.5633 13.7492 11.8898 13.341C12.1734 12.9886 12.3066 12.5417 12.2551 12.0863C11.9586 9.98511 8.925 10.1613 8.87344 12.2796ZM11.3656 15.1457H9.77148V15.6484C9.76719 16.1039 10.1754 16.439 10.6223 16.396C11.0348 16.396 11.3699 16.0609 11.3699 15.6484V15.1457H11.3656ZM13.0586 14.8105C13.2777 14.5785 12.9297 14.3722 12.7922 14.2175C12.702 14.1273 12.5516 14.1273 12.4613 14.2175C12.3711 14.3078 12.3711 14.4582 12.4613 14.5484C12.6203 14.6816 12.8266 15.0296 13.0586 14.8105ZM8.07422 9.82612C7.98398 9.91636 7.98398 10.0667 8.07422 10.157C8.22891 10.2902 8.43516 10.6382 8.66719 10.4234C8.88633 10.1914 8.53828 9.98511 8.40078 9.83042C8.31484 9.73589 8.16875 9.73589 8.07422 9.82612ZM14.0941 12.3183C14.0941 12.1894 13.991 12.0863 13.8621 12.0863H13.4883C13.3594 12.0863 13.2563 12.1894 13.2563 12.3183C13.2563 12.4472 13.3594 12.5503 13.4883 12.5503H13.8621C13.9867 12.5546 14.0941 12.4472 14.0941 12.3183ZM7.04297 12.3183C7.04297 12.4472 7.14609 12.5503 7.275 12.5503H7.64883C7.77773 12.5503 7.88086 12.4472 7.88086 12.3183C7.88086 12.1894 7.77773 12.0863 7.64883 12.0863H7.275C7.14609 12.0863 7.04297 12.1894 7.04297 12.3183ZM13.0586 10.157C13.2734 9.94214 12.9469 9.61128 12.7277 9.82612L12.4613 10.0925C12.2465 10.3074 12.573 10.6382 12.7922 10.4234C12.7965 10.4234 13.0586 10.157 13.0586 10.157ZM8.07422 14.4839C7.85938 14.6988 8.18594 15.0296 8.40508 14.8148L8.67148 14.5484C8.88633 14.3335 8.55977 14.0027 8.34063 14.2175L8.07422 14.4839ZM10.8027 9.40073V9.0269C10.8027 8.72183 10.3387 8.72183 10.3344 9.0269V9.40073C10.3344 9.70581 10.7984 9.70581 10.8027 9.40073Z" fill="#02457C"/>
</g>
<defs>
<clipPath id="clip0_1059_1938">
<rect width="22" height="22" fill="white" transform="matrix(-1 0 0 1 29 8)"/>
</clipPath>
</defs>
</svg>
