<svg width="36" height="36" viewBox="0 0 36 36" fill="none" xmlns="http://www.w3.org/2000/svg">
<circle cx="18" cy="18" r="18" fill="#E8F7FF"/>
<g clip-path="url(#clip0_1059_1810)">
<path d="M22.5214 17.3571C22.6643 17.4584 22.8299 17.523 23.0036 17.5455C23.1773 17.5679 23.3539 17.5474 23.5178 17.4857L24.4821 17.1286L24.125 16.4643C24.0092 16.2622 23.969 16.0256 24.0115 15.7966C24.054 15.5677 24.1765 15.3613 24.3571 15.2143V12.3214L19 8.65356L13.6428 12.3214V15.3321C13.8185 15.4904 13.9368 15.7023 13.9795 15.9349C14.0221 16.1674 13.9866 16.4076 13.8785 16.6179L13.7071 16.975C14.1379 17.1761 14.5988 17.3052 15.0714 17.3571C15.2822 17.3396 15.4912 17.305 15.6964 17.2536C16.0785 17.1645 16.4663 17.1025 16.8571 17.0679C16.9598 16.8608 17.0792 16.6625 17.2143 16.475V14.1429C17.2143 13.9534 17.2895 13.7717 17.4235 13.6378C17.5574 13.5038 17.7391 13.4286 17.9285 13.4286H20.0714C20.2608 13.4286 20.4425 13.5038 20.5765 13.6378C20.7104 13.7717 20.7857 13.9534 20.7857 14.1429V16.075L22.5214 17.3571ZM19 12.7143C18.6211 12.7143 18.2577 12.5638 17.9898 12.2959C17.7219 12.028 17.5714 11.6646 17.5714 11.2857C17.5714 10.9068 17.7219 10.5435 17.9898 10.2756C18.2577 10.0076 18.6211 9.85714 19 9.85714C19.3788 9.85714 19.7422 10.0076 20.0101 10.2756C20.278 10.5435 20.4285 10.9068 20.4285 11.2857C20.4285 11.6646 20.278 12.028 20.0101 12.2959C19.7422 12.5638 19.3788 12.7143 19 12.7143Z" fill="#02457C"/>
<path d="M17.9285 15.75C18.2363 15.5286 18.5992 15.3965 18.9773 15.3682C19.3554 15.3398 19.7339 15.4163 20.0713 15.5893V14.1428H17.9285V15.75Z" fill="#02457C"/>
<path d="M18.9999 12.0001C19.3944 12.0001 19.7142 11.6803 19.7142 11.2858C19.7142 10.8913 19.3944 10.5715 18.9999 10.5715C18.6054 10.5715 18.2856 10.8913 18.2856 11.2858C18.2856 11.6803 18.6054 12.0001 18.9999 12.0001Z" fill="#02457C"/>
<path d="M12.4143 12.2964L18.7964 7.92858C18.8562 7.88711 18.9272 7.86488 19 7.86488C19.0728 7.86488 19.1438 7.88711 19.2036 7.92858L25.5857 12.2929C25.6639 12.3464 25.7601 12.3667 25.8532 12.3492C25.9463 12.3318 26.0286 12.2781 26.0821 12.2C26.1345 12.1221 26.1542 12.0268 26.1368 11.9345C26.1194 11.8423 26.0664 11.7606 25.9893 11.7072L19.2036 7.06429C19.1439 7.02261 19.0728 7.00018 19 7.00001C18.9282 6.99949 18.8581 7.02202 18.8 7.06429L12.0143 11.7072C11.9381 11.7603 11.8855 11.841 11.8679 11.9322C11.8583 11.9787 11.8581 12.0267 11.8673 12.0733C11.8765 12.1199 11.8949 12.1642 11.9214 12.2036C11.9749 12.2807 12.0566 12.3337 12.1488 12.3511C12.241 12.3685 12.3364 12.3488 12.4143 12.2964ZM12.7607 22.7607C12.6593 22.7146 12.5438 22.7105 12.4394 22.7493C12.335 22.7882 12.2502 22.8667 12.2036 22.9679L11.8071 23.825C11.7598 23.9264 11.7546 24.0424 11.7928 24.1475C11.831 24.2527 11.9094 24.3384 12.0107 24.3857C12.1121 24.4331 12.2281 24.4382 12.3332 24.4001C12.4384 24.3619 12.5241 24.2835 12.5714 24.1822L12.9679 23.325C13.0105 23.2209 13.0105 23.1041 12.9679 23C12.9512 22.9482 12.9243 22.9003 12.8887 22.8592C12.8531 22.8181 12.8096 22.7846 12.7607 22.7607ZM13.2643 15.9964C13.2467 15.9506 13.2199 15.9088 13.1855 15.8738C13.1511 15.8388 13.1098 15.8112 13.0643 15.7929L9 14.1429V23.7857H9.26786C9.33186 23.7849 9.39446 23.7669 9.44912 23.7336C9.50379 23.7003 9.54849 23.6529 9.57857 23.5964L13.2429 16.2857C13.2665 16.2417 13.2806 16.1932 13.2843 16.1434C13.288 16.0935 13.2811 16.0435 13.2643 15.9964ZM14.8571 23.1143C14.8078 22.9804 14.7077 22.8714 14.5786 22.8107C14.4483 22.7545 14.3017 22.7494 14.1679 22.7964C14.0349 22.8459 13.927 22.9461 13.8679 23.075L13.2857 24.3714C13.2323 24.5031 13.2323 24.6505 13.2857 24.7822C13.3339 24.9161 13.4343 25.0243 13.5643 25.0822C13.6287 25.1095 13.6979 25.1235 13.7679 25.1235C13.8378 25.1235 13.907 25.1095 13.9714 25.0822C14.1053 25.0328 14.2143 24.9327 14.275 24.8036L14.8714 23.5072C14.9174 23.3792 14.9122 23.2385 14.8571 23.1143ZM23.7679 18.1393C23.4931 18.2423 23.1971 18.2759 22.9062 18.2373C22.6153 18.1987 22.3384 18.089 22.1 17.9179L19.925 16.3322C19.672 16.1473 19.3627 16.0562 19.0499 16.0745C18.7371 16.0927 18.4405 16.2192 18.2107 16.4322C17.8616 16.7551 17.5811 17.145 17.3857 17.5786L16.5571 19.4143C16.502 19.5419 16.496 19.6854 16.5401 19.8172C16.5843 19.949 16.6756 20.0599 16.7964 20.1286H16.8214C16.9327 20.1827 17.0588 20.1988 17.1801 20.1743C17.3014 20.1497 17.4113 20.086 17.4929 19.9929L18.9 18.425L18.7714 18.3107C18.7051 18.247 18.6659 18.1601 18.662 18.0681C18.6581 17.9762 18.6899 17.8863 18.7507 17.8172C18.8115 17.7481 18.8966 17.7052 18.9883 17.6973C19.08 17.6895 19.1712 17.7173 19.2429 17.775L24.4071 22.3572L26.7857 21.3714L24.825 17.7429L23.7679 18.1393ZM24.925 15.6822C24.8814 15.6974 24.8416 15.7219 24.8083 15.754C24.775 15.786 24.7491 15.8249 24.7321 15.8679C24.7182 15.9056 24.7126 15.9458 24.7157 15.9859C24.7187 16.026 24.7305 16.0649 24.75 16.1L28.4179 22.8857C28.4505 22.9394 28.4968 22.9836 28.552 23.0137C28.6072 23.0438 28.6693 23.0588 28.7321 23.0572H29V14.1179L24.925 15.6822Z" fill="#02457C"/>
<path d="M19.4286 18.9249L18.0178 20.4964C17.8367 20.7036 17.593 20.846 17.3235 20.9021C17.0541 20.9582 16.7737 20.9248 16.525 20.8071H16.4893C16.1946 20.66 15.9686 20.4043 15.8586 20.0939C15.7487 19.7835 15.7636 19.4425 15.9 19.1428L16.5 17.8285C16.275 17.8642 16.0607 17.9071 15.8607 17.9499C15.6021 18.0157 15.3378 18.0564 15.0714 18.0714C14.4867 18.014 13.9163 17.8557 13.3857 17.6035L10.8357 22.6821L11.4214 22.9607L11.5536 22.6678C11.6801 22.3946 11.9099 22.1828 12.1925 22.079C12.4751 21.9752 12.7874 21.9879 13.0607 22.1142C13.2173 22.1854 13.3545 22.2932 13.4607 22.4285C13.6404 22.2392 13.8754 22.1117 14.132 22.0643C14.3887 22.0168 14.6537 22.0518 14.8893 22.1642C15.0824 22.2532 15.2495 22.3902 15.3745 22.5621C15.4996 22.7341 15.5784 22.9352 15.6036 23.1464C15.8946 23.0883 16.1969 23.1363 16.4556 23.2818C16.7144 23.4272 16.9125 23.6604 17.0143 23.9392C17.0375 24.0078 17.0553 24.0785 17.0678 24.1499C17.2739 24.1176 17.4849 24.1462 17.675 24.2321C17.8037 24.2909 17.9195 24.3747 18.0156 24.4785C18.1118 24.5823 18.1864 24.7041 18.2352 24.837C18.284 24.9698 18.306 25.111 18.3 25.2523C18.294 25.3937 18.26 25.5325 18.2 25.6607L17.9643 26.1428L18.9214 26.9178C18.9887 26.9637 19.067 26.9908 19.1482 26.9963C19.2294 27.0017 19.3106 26.9854 19.3835 26.949C19.4563 26.9126 19.518 26.8574 19.5624 26.7892C19.6067 26.7209 19.632 26.642 19.6357 26.5607C19.6362 26.5007 19.6245 26.4412 19.6011 26.3859C19.5778 26.3306 19.5434 26.2807 19.5 26.2392L19.1 25.8392C19.0665 25.806 19.0399 25.7665 19.0218 25.723C19.0037 25.6795 18.9943 25.6328 18.9943 25.5857C18.9943 25.5385 19.0037 25.4918 19.0218 25.4483C19.0399 25.4048 19.0665 25.3653 19.1 25.3321C19.1332 25.2986 19.1727 25.272 19.2162 25.2539C19.2597 25.2358 19.3064 25.2264 19.3536 25.2264C19.4007 25.2264 19.4474 25.2358 19.4909 25.2539C19.5344 25.272 19.5739 25.2986 19.6071 25.3321L20.0071 25.7321L20.3143 26.0428C20.3911 26.1151 20.4927 26.1554 20.5982 26.1554C20.7037 26.1554 20.8053 26.1151 20.8821 26.0428C20.9195 26.0059 20.9492 25.962 20.9694 25.9136C20.9896 25.8651 21.0001 25.8132 21.0001 25.7607C21.0001 25.7082 20.9896 25.6562 20.9694 25.6078C20.9492 25.5593 20.9195 25.5154 20.8821 25.4785L19.4536 24.0499C19.4203 24.0166 19.3938 23.9771 19.3758 23.9336C19.3578 23.8901 19.3485 23.8435 19.3485 23.7964C19.3485 23.7493 19.3578 23.7026 19.3758 23.6591C19.3938 23.6156 19.4203 23.5761 19.4536 23.5428C19.4869 23.5095 19.5264 23.4831 19.5699 23.4651C19.6134 23.447 19.66 23.4378 19.7071 23.4378C19.7542 23.4378 19.8008 23.447 19.8444 23.4651C19.8879 23.4831 19.9274 23.5095 19.9607 23.5428L21.3893 24.9714L21.4286 25.0107C21.4843 25.0666 21.5505 25.111 21.6235 25.1413C21.6964 25.1715 21.7746 25.1871 21.8536 25.1871C21.9325 25.1871 22.0107 25.1715 22.0836 25.1413C22.1566 25.111 22.2228 25.0666 22.2786 25.0107C22.3376 24.9528 22.384 24.8834 22.4148 24.8067C22.4456 24.73 22.4601 24.6477 22.4574 24.5651C22.4547 24.4825 22.4349 24.4013 22.3992 24.3268C22.3635 24.2523 22.3127 24.186 22.25 24.1321L20.5464 22.6392C20.4865 22.5837 20.4474 22.5093 20.4357 22.4285C20.4342 22.4179 20.4342 22.407 20.4357 22.3964C20.4328 22.3517 20.4389 22.3068 20.4536 22.2645C20.4684 22.2222 20.4914 22.1832 20.5214 22.1499C20.5533 22.1154 20.5907 22.0864 20.6321 22.0642C20.6993 22.034 20.7741 22.0253 20.8464 22.0392C20.8642 22.0375 20.8822 22.0375 20.9 22.0392C20.9464 22.0535 20.9893 22.0782 21.025 22.1107L21.4357 22.4678L23.1714 23.9892C23.3028 24.0947 23.4698 24.1453 23.6376 24.1306C23.8054 24.1159 23.961 24.037 24.0721 23.9103C24.1831 23.7836 24.2409 23.619 24.2335 23.4507C24.226 23.2824 24.1539 23.1235 24.0321 23.0071L19.4286 18.9249Z" fill="#02457C"/>
<path d="M17.3607 24.8822C17.3142 24.8637 17.2643 24.8552 17.2143 24.8572C17.146 24.857 17.079 24.8765 17.0214 24.9132C16.9638 24.9499 16.918 25.0023 16.8893 25.0643L16.5571 25.7786L16.4464 26.0179C16.4283 26.0615 16.4189 26.1082 16.4189 26.1554C16.4189 26.2026 16.4283 26.2493 16.4464 26.2929C16.4794 26.3815 16.5462 26.4535 16.6321 26.4929C16.675 26.5133 16.7215 26.5249 16.7688 26.5271C16.8162 26.5293 16.8636 26.5221 16.9081 26.5058C16.9527 26.4895 16.9935 26.4645 17.0283 26.4322C17.0631 26.4 17.0911 26.3611 17.1107 26.3179L17.5571 25.3501C17.5752 25.3065 17.5844 25.2597 17.5843 25.2125C17.5842 25.1654 17.5747 25.1187 17.5565 25.0752C17.5382 25.0317 17.5115 24.9922 17.4779 24.9591C17.4443 24.926 17.4045 24.8998 17.3607 24.8822ZM16.05 23.8858C15.98 23.8516 15.9029 23.8344 15.825 23.8358C15.7617 23.836 15.6989 23.8469 15.6393 23.8679C15.507 23.9184 15.3994 24.0183 15.3393 24.1465L14.8893 25.1179C14.8595 25.1819 14.8426 25.2512 14.8396 25.3217C14.8366 25.3923 14.8475 25.4627 14.8717 25.529C14.8959 25.5954 14.933 25.6563 14.9807 25.7083C15.0284 25.7603 15.086 25.8024 15.15 25.8322C15.2793 25.8923 15.4272 25.8987 15.5611 25.8498C15.6951 25.8009 15.8041 25.7008 15.8643 25.5715L15.8929 25.5108L16.3071 24.6072C16.3682 24.4786 16.375 24.3301 16.325 24.1965C16.3027 24.1287 16.2668 24.0662 16.2195 24.0128C16.1722 23.9594 16.1145 23.9162 16.05 23.8858Z" fill="#02457C"/>
</g>
<defs>
<clipPath id="clip0_1059_1810">
<rect width="20" height="20" fill="white" transform="translate(9 7)"/>
</clipPath>
</defs>
</svg>
