<svg width="36" height="36" viewBox="0 0 36 36" fill="none" xmlns="http://www.w3.org/2000/svg">
<circle cx="18" cy="18" r="18" fill="#E8F7FF"/>
<path fill-rule="evenodd" clip-rule="evenodd" d="M9.27787 24.321H18.3165C18.4337 24.909 18.6436 25.4747 18.9384 25.9968H9.27787C9.22868 25.9967 9.18152 25.9771 9.14674 25.9424C9.11196 25.9076 9.09238 25.8604 9.09229 25.8112V24.5066C9.09236 24.4574 9.11194 24.4103 9.14673 24.3755C9.18151 24.3407 9.22867 24.3211 9.27787 24.321ZM10.7875 15.2707V23.6335H12.8559V17.0614C12.8559 16.857 13.0227 16.6902 13.2271 16.6902H16.618C16.8224 16.6902 16.9892 16.857 16.9892 17.0614V23.6335H18.2224C18.2117 23.4901 18.2063 23.3463 18.2063 23.2025C18.2063 21.8742 18.6611 20.6522 19.4235 19.6835C19.274 19.6356 19.1653 19.495 19.1653 19.33V17.0614C19.1653 16.857 19.332 16.6902 19.5365 16.6902H23.5295C23.7339 16.6902 23.9007 16.857 23.9007 17.0614V17.5082C24.5702 17.5082 25.2128 17.6238 25.8095 17.836V15.2707C25.6585 15.297 25.5032 15.3107 25.3447 15.3107C24.3671 15.3107 23.4726 14.7834 22.996 13.9355C22.5193 14.7834 21.6249 15.3107 20.6472 15.3107C19.6696 15.3107 18.7751 14.7834 18.2985 13.9355C17.8219 14.7834 16.9274 15.3107 15.9498 15.3107C14.9722 15.3107 14.0777 14.7834 13.6011 13.9355C13.1245 14.7834 12.2299 15.3107 11.2523 15.3107C11.0938 15.3107 10.9385 15.297 10.7875 15.2707ZM23.9007 18.1957C21.1355 18.1957 18.8938 20.4373 18.8938 23.2025C18.8938 25.9677 21.1355 28.2094 23.9007 28.2094C26.6659 28.2094 28.9075 25.9677 28.9075 23.2025C28.9075 20.4373 26.6659 18.1957 23.9007 18.1957ZM21.6034 21.1258H20.9257C20.8345 21.1258 20.7471 21.0896 20.6826 21.0252C20.6182 20.9607 20.582 20.8733 20.582 20.7821C20.582 20.6909 20.6182 20.6035 20.6826 20.539C20.7471 20.4746 20.8345 20.4383 20.9257 20.4383L21.8685 20.4398C21.9445 20.4398 22.0184 20.4651 22.0785 20.5118C22.1385 20.5585 22.1814 20.6238 22.2002 20.6975L22.3674 21.3488H26.8758C27.1133 21.3488 27.2767 21.5834 27.2009 21.8042L26.696 23.8994C26.5891 24.3432 26.2029 24.6499 25.7459 24.6499H22.7006C22.6497 24.6499 22.6068 24.6928 22.6068 24.7437C22.6068 24.7946 22.6497 24.8375 22.7006 24.8375H26.4465C26.5376 24.8375 26.6251 24.8737 26.6895 24.9382C26.754 25.0026 26.7902 25.0901 26.7902 25.1812C26.7902 25.2724 26.754 25.3598 26.6895 25.4243C26.6251 25.4888 26.5376 25.525 26.4465 25.525H26.2673C26.3163 25.5718 26.3553 25.6281 26.3819 25.6905C26.4085 25.7528 26.4221 25.8199 26.4221 25.8877C26.4221 26.1652 26.1971 26.3902 25.9196 26.3902C25.642 26.3902 25.4171 26.1652 25.4171 25.8877C25.417 25.8199 25.4307 25.7528 25.4573 25.6905C25.4839 25.6281 25.5228 25.5718 25.5718 25.525H23.3188C23.3678 25.5718 23.4068 25.6281 23.4333 25.6905C23.4599 25.7528 23.4736 25.8199 23.4735 25.8877C23.4735 26.1652 23.2486 26.3902 22.9711 26.3902C22.6936 26.3902 22.4686 26.1652 22.4686 25.8877C22.4685 25.819 22.4825 25.7511 22.5098 25.6881C22.537 25.6251 22.577 25.5684 22.6271 25.5215C22.2309 25.4842 21.9192 25.1493 21.9192 24.7437C21.9192 24.4465 22.0885 24.1762 22.3529 24.0442L21.6034 21.1258ZM9.46891 12.2745H13.337L14.5187 7.79053H11.8337C11.8129 7.79053 11.8053 7.79332 11.7955 7.8124L9.46891 12.2745ZM14.0463 12.2745L15.228 7.79053H17.9547V12.2745H14.0463ZM18.6422 12.2745H22.5507L21.369 7.79053H18.6422V12.2745ZM24.7632 7.79053C24.7958 7.79053 24.8011 7.81188 24.8145 7.83754L27.128 12.2745H23.26L22.0783 7.79053H24.7632ZM27.3203 12.962C27.1547 13.9205 26.3197 14.6232 25.3447 14.6232C24.3696 14.6232 23.5346 13.9205 23.3691 12.962H27.3203ZM22.6228 12.962C22.4572 13.9205 21.6223 14.6232 20.6472 14.6232C19.6722 14.6232 18.8372 13.9205 18.6717 12.962H22.6228ZM17.9253 12.962C17.7598 13.9205 16.9248 14.6232 15.9498 14.6232C14.9747 14.6232 14.1398 13.9205 13.9742 12.962H17.9253ZM13.2279 12.962C13.0623 13.9205 12.2274 14.6232 11.2523 14.6232C10.2772 14.6232 9.44222 13.9205 9.27666 12.962H13.2279Z" fill="#02457C"/>
</svg>
