<svg width="36" height="36" viewBox="0 0 36 36" fill="none" xmlns="http://www.w3.org/2000/svg">
<circle cx="18" cy="18" r="18" fill="#E8F7FF"/>
<path d="M9.42358 25.3942C10.1878 26.0958 11.143 26.5549 12.1683 26.7134C12.2802 26.1508 12.2595 25.5698 12.1079 25.0166C11.9563 24.4634 11.678 23.9531 11.295 23.526L9.42358 25.3942ZM19.0875 24.607C18.7861 24.607 18.4914 24.6964 18.2408 24.8639C17.9901 25.0314 17.7948 25.2694 17.6794 25.5479C17.5641 25.8264 17.5339 26.1329 17.5927 26.4285C17.6515 26.7242 17.7967 26.9958 18.0099 27.2089C18.223 27.4221 18.4946 27.5672 18.7903 27.626C19.0859 27.6848 19.3924 27.6546 19.6709 27.5393C19.9494 27.4239 20.1874 27.2286 20.3549 26.9779C20.5223 26.7273 20.6117 26.4326 20.6117 26.1312C20.6113 25.7271 20.4506 25.3396 20.1648 25.0539C19.8791 24.7682 19.4916 24.6074 19.0875 24.607ZM18.2431 21.1439C17.9889 21.191 17.7309 21.2147 17.4724 21.2149C16.4425 21.2149 15.4494 20.8324 14.6857 20.1414L13.3049 21.5198L16.8683 25.0769C17.7639 24.1093 18.2599 22.8384 18.2564 21.5199C18.2564 21.3938 18.252 21.2685 18.2431 21.1439Z" fill="#02457C"/>
<path d="M11.6134 23.2086C12.0401 23.6859 12.3522 24.2542 12.526 24.8704C12.6998 25.4865 12.7307 26.1342 12.6163 26.7641C13.3307 26.8153 14.0481 26.7203 14.7245 26.4847C15.401 26.2492 16.0222 25.8781 16.5504 25.3943L12.987 21.8373L11.6134 23.2086ZM22.4524 26.9099C22.4391 26.9191 22.4278 26.9307 22.419 26.9442C22.4103 26.9577 22.4043 26.9727 22.4013 26.9886C22.3984 27.0044 22.3987 27.0206 22.402 27.0363C22.4054 27.052 22.4118 27.067 22.4209 27.0802C22.5363 27.2466 22.7128 27.3606 22.912 27.3972C23.1111 27.4338 23.3167 27.39 23.4836 27.2755L24.1925 26.7881C24.2889 26.7215 24.3687 26.6336 24.4257 26.5312L23.63 26.1003L22.4524 26.9099ZM23.1864 25.86L21.9008 25.1637L22.6404 26.2355L23.1864 25.86ZM26.7733 20.1474L21.6365 20.4791L21.4043 21.5617L26.5404 21.9388C26.6773 21.9484 26.8137 21.914 26.9298 21.8406L28.2648 20.9896L27.3535 20.3148C27.1865 20.1911 26.9806 20.1317 26.7733 20.1474ZM27.7898 9.87332C27.5683 9.45129 27.2335 9.09936 26.823 8.85706L26.4934 9.57086L27.6778 10.1158L27.7898 9.87332ZM25.9376 24.8242L21.0821 23.0637L20.862 24.0901L25.3744 26.5342C25.5694 26.6402 25.7977 26.6669 26.0119 26.6089L27.1254 26.3092L26.2408 25.0555C26.1659 24.9491 26.06 24.8683 25.9376 24.8242ZM26.5859 22.3895C26.5598 22.3895 26.5337 22.3885 26.5077 22.3866L21.3094 22.0048L21.1774 22.6202L26.091 24.4017C26.1388 24.4192 26.1853 24.44 26.2303 24.464L28.0838 23.6808L26.7488 22.3767C26.6949 22.3851 26.6405 22.3893 26.5859 22.3895ZM19.7789 23.7994L20.5276 20.2962L21.1858 20.4368L20.4371 23.9401L19.7789 23.7994ZM21.9024 20.0117L22.795 18.0787C22.6575 18.0343 22.5227 17.9818 22.3913 17.9214C22.26 17.8607 22.1322 17.7924 22.0088 17.7169L20.9841 19.936L21.4692 20.0397L21.9024 20.0117ZM19.4644 19.7961L19.4045 19.7092C19.176 19.3786 19.078 18.9751 19.1295 18.5765C19.1669 18.2879 19.0959 17.9957 18.9305 17.7563L13.0048 9.16971C12.819 8.9017 12.5347 8.71815 12.2139 8.65923C11.8932 8.6003 11.5622 8.67078 11.2933 8.85526C11.1603 8.94656 11.0467 9.06318 10.9589 9.19846C10.8711 9.33373 10.8108 9.485 10.7815 9.6436C10.7522 9.8022 10.7545 9.96502 10.7883 10.1227C10.822 10.2804 10.8865 10.4299 10.9781 10.5627L14.8055 16.1085C15.7335 16.4186 16.5664 16.9618 17.2243 17.686C17.8823 18.4103 18.3433 19.2913 18.5633 20.2448C18.8141 20.0114 19.127 19.8556 19.4644 19.7961ZM11.7604 10.1678C11.7358 10.1841 11.7083 10.1955 11.6794 10.2012C11.6504 10.2069 11.6206 10.2068 11.5917 10.201C11.5628 10.1952 11.5353 10.1838 11.5108 10.1674C11.4863 10.1509 11.4653 10.1299 11.4489 10.1053L11.3978 10.0282C11.3815 10.0036 11.3701 9.97609 11.3644 9.94715C11.3587 9.91821 11.3588 9.88843 11.3646 9.85951C11.3704 9.83059 11.3818 9.80309 11.3982 9.77859C11.4147 9.7541 11.4358 9.73307 11.4603 9.71673C11.4849 9.70038 11.5124 9.68903 11.5413 9.68332C11.5703 9.67762 11.6 9.67767 11.629 9.68347C11.6579 9.68927 11.6854 9.70071 11.7099 9.71714C11.7344 9.73357 11.7554 9.75466 11.7717 9.77921L11.823 9.85634C11.8394 9.88091 11.8507 9.90845 11.8564 9.93739C11.8621 9.96634 11.862 9.99612 11.8562 10.025C11.8504 10.054 11.8389 10.0815 11.8225 10.106C11.8061 10.1304 11.7849 10.1515 11.7604 10.1678ZM14.1367 13.7378C14.1122 13.7542 14.0847 13.7655 14.0557 13.7712C14.0268 13.7769 13.997 13.7769 13.9681 13.7711C13.9392 13.7653 13.9117 13.7538 13.8872 13.7374C13.8627 13.721 13.8417 13.6999 13.8253 13.6753L11.9042 10.7893C11.8874 10.7648 11.8756 10.7371 11.8695 10.708C11.8635 10.6789 11.8633 10.6488 11.8689 10.6196C11.8746 10.5904 11.886 10.5626 11.9025 10.5378C11.919 10.513 11.9402 10.4918 11.965 10.4753C11.9898 10.4588 12.0176 10.4474 12.0468 10.4418C12.076 10.4361 12.1061 10.4363 12.1352 10.4424C12.1643 10.4484 12.192 10.4602 12.2165 10.4771C12.2411 10.4939 12.262 10.5155 12.2782 10.5405L14.1993 13.4264C14.2323 13.476 14.2442 13.5367 14.2325 13.595C14.2208 13.6534 14.1864 13.7048 14.1368 13.7378H14.1367ZM19.3329 23.7257L20.086 20.2149C19.4287 20.1472 18.8161 20.4314 18.6709 20.8905C18.6939 21.0995 18.7054 21.3097 18.7055 21.5199C18.7062 22.1265 18.6104 22.7292 18.4215 23.3055C18.6722 23.6377 19.0859 23.7012 19.3329 23.7257ZM24.6126 12.5727L23.4282 12.0278L22.9743 13.0108L24.1587 13.5557L24.6126 12.5727ZM11.2953 22.8912L12.6691 21.5199L9.10563 17.9627C8.21001 18.9304 7.71406 20.2013 7.71755 21.5198C7.71755 21.644 7.72188 21.7675 7.73053 21.8902C8.36172 21.7754 9.01077 21.8059 9.62843 21.9794C10.2461 22.1528 10.8161 22.4646 11.2953 22.8912Z" fill="#02457C"/>
<path d="M7.78076 22.3382C7.93997 23.3627 8.40126 24.3163 9.1056 25.0771L10.9772 23.2088C10.5482 22.8261 10.0362 22.5482 9.4815 22.3971C8.9268 22.246 8.34458 22.2258 7.78076 22.3382ZM14.3681 19.8241C13.9379 19.3505 13.6234 18.7837 13.4491 18.1681C13.2749 17.5525 13.2456 16.905 13.3637 16.2762C13.2383 16.2672 13.1127 16.2627 12.987 16.2627C11.6678 16.2604 10.3959 16.754 9.4236 17.6456L12.987 21.2026L14.3681 19.8241Z" fill="#02457C"/>
<path d="M16.5504 17.6456C15.7876 16.9453 14.8345 16.4866 13.8113 16.3273C13.7012 16.8887 13.7229 17.4681 13.8747 18.0198C14.0265 18.5714 14.3044 19.0803 14.6863 19.5063L16.5504 17.6456ZM18.1923 20.696C18.0323 19.6736 17.5714 18.7221 16.8684 17.9627L15.0041 19.8235C15.4321 20.2053 15.9426 20.4827 16.4958 20.6341C17.0489 20.7855 17.6296 20.8067 18.1923 20.696ZM21.6877 14.7257L21.7357 14.6218L21.6433 14.5793C21.6571 14.6285 21.6719 14.6773 21.6877 14.7257ZM25.2799 16.3804C25.3274 16.3607 25.3749 16.3399 25.4222 16.3179L25.3286 16.2748L25.2799 16.3804ZM21.5343 12.8428C21.4814 13.2378 21.4805 13.638 21.5314 14.0332L21.924 14.2138L22.3777 13.2308L21.5343 12.8428ZM23.2995 16.4878C23.7512 16.641 24.2364 16.6664 24.7016 16.5613L24.9206 16.0871L23.7362 15.5422L23.2995 16.4878ZM22.1438 14.8095L21.9253 15.2826C22.1466 15.7048 22.4813 16.0571 22.8917 16.2997L23.3281 15.3544L22.1438 14.8095ZM25.5168 15.867L25.9088 16.0474C26.2423 15.8287 26.5464 15.568 26.8135 15.2718L25.9707 14.884L25.5168 15.867ZM24.3784 14.1513L23.9245 15.1343L25.1089 15.6793L25.5628 14.6962L24.3784 14.1513Z" fill="#02457C"/>
<path d="M27.1367 7.64421C26.7008 7.44477 26.2268 7.34259 25.7475 7.34476C23.9618 7.34476 22.0585 8.68869 21.0674 10.8352C20.3541 12.38 20.2367 14.0566 20.7453 15.4352C21.1044 16.4081 21.7384 17.1268 22.579 17.5135C24.6693 18.4753 27.3918 17.0437 28.6483 14.3226C29.3616 12.7777 29.479 11.1012 28.9704 9.72256C28.6113 8.7496 27.9773 8.0309 27.1367 7.64421ZM28.1272 14.0833C27.2781 15.9217 25.644 17.0717 24.1074 17.0717C23.692 17.0736 23.2812 16.985 22.9035 16.8121C22.1722 16.4756 21.6217 15.8535 21.3116 15.0131C20.8764 13.8336 20.9773 12.398 21.5886 11.0742C22.6662 8.7403 25.0098 7.51614 26.8122 8.34544C27.5435 8.6819 28.094 9.30398 28.4042 10.1444C28.8394 11.3238 28.7384 12.7595 28.1272 14.0833V14.0833Z" fill="#02457C"/>
<path d="M27.8977 10.7113L27.444 11.6944L28.2095 12.0466C28.2419 11.6359 28.216 11.2227 28.1325 10.8193L27.8977 10.7113ZM26.8016 13.0853L27.8572 13.5709C27.9909 13.2297 28.0896 12.8758 28.1519 12.5146L27.2556 12.1022L26.8016 13.0853ZM26.1592 14.4761L27.1103 14.9137C27.3297 14.623 27.5198 14.3112 27.6778 13.983L26.6131 13.4933L26.1592 14.4761ZM25.2549 11.1818L24.0705 10.6369L23.6166 11.6199L24.8009 12.1649L25.2549 11.1818ZM27.4895 10.5236L26.3051 9.97869L25.8513 10.9617L27.0356 11.5066L27.4895 10.5236ZM22.3321 14.4017L23.5165 14.9466L23.9704 13.9636L22.786 13.4187L22.3321 14.4017ZM23.0202 11.8398L21.9568 11.3506C21.8093 11.6834 21.6948 12.03 21.615 12.3852L22.5663 12.8229L23.0202 11.8398ZM26.8473 11.9145L25.6629 11.3696L25.2091 12.3526L26.3934 12.8975L26.8473 11.9145ZM26.4148 8.66962C26.1529 8.57846 25.8774 8.53226 25.6001 8.53297C25.4025 8.5337 25.2055 8.55512 25.0124 8.59689L24.901 8.83817L26.0854 9.38307L26.4148 8.66962ZM26.2051 13.3053L25.0207 12.7604L24.5668 13.7435L25.7512 14.2884L26.2051 13.3053ZM23.6624 10.4492L22.7694 10.0385C22.5342 10.3198 22.328 10.6243 22.1542 10.9473L23.2085 11.4324L23.6624 10.4492ZM24.3046 9.05824L24.0721 8.95137C23.7117 9.15108 23.3809 9.40003 23.0893 9.69105L23.8507 10.0414L24.3046 9.05824ZM25.4432 10.7739L25.8971 9.79091L24.7127 9.24601L24.2588 10.229L25.4432 10.7739Z" fill="#02457C"/>
</svg>
