<svg width="36" height="36" viewBox="0 0 36 36" fill="none" xmlns="http://www.w3.org/2000/svg">
<circle cx="18" cy="18" r="18" fill="#E8F7FF"/>
<g clip-path="url(#clip0_1059_1869)">
<path d="M28 17.1455C28 21.9684 24.4427 25.976 19.8141 26.6826C19.8532 26.4686 19.8641 26.2469 19.8378 26.0223L19.774 25.4766C21.4173 25.1966 22.901 24.4426 24.0769 23.3582C24.0064 23.2994 23.9361 23.2233 23.8667 23.1222C23.5544 22.6665 23.9628 22.2143 23.9628 21.8158C23.9628 21.4249 23.1747 21.457 23.1459 21.1981C23.0463 20.3015 23.6961 20.2893 24.0425 19.9429C24.389 19.5964 23.7001 18.8088 23.2552 18.8597C22.8072 18.9075 21.5463 18.6528 21.6615 17.688C21.8019 16.513 20.1645 16.6167 19.93 16.0683C19.5882 15.2689 20.1564 14.2883 20.8975 14.0655C21.9473 13.75 22.9814 12.8937 22.9006 11.9404C22.8091 10.8607 22.3204 9.88696 21.5155 9.30853C20.6595 8.96139 19.7521 8.75795 18.8298 8.70643C17.9865 8.73978 17.245 8.92721 17.2788 9.3133C17.3618 10.2595 20.0524 10.5052 19.6009 11.3897C19.3655 11.8508 17.5989 12.5015 17.9288 13.1877C18.1434 13.634 18.6715 13.2515 18.4743 14.1082C18.3836 14.5024 18.038 15.2431 17.5064 15.2909C16.9629 15.3416 16.5102 13.9016 15.0307 13.8544C14.3312 13.832 13.3458 14.9457 14.1825 15.7358C14.6892 16.2143 15.64 15.1608 15.9206 15.9838C16.1184 16.5637 15.894 17.782 16.8169 18.2911C17.1534 18.4767 17.6692 18.6385 18.1793 18.8977C17.4221 19.0523 16.4918 19.3408 15.3933 19.764L14.4677 19.5198C14.8552 19.1972 15.4847 18.9702 15.3263 18.2654C15.0936 17.2299 13.2957 17.6204 12.0562 16.3809C11.6759 16.0007 10.8649 14.7382 10.8682 13.2214C10.2503 14.395 9.89868 15.7297 9.89868 17.1456C9.89868 17.5814 9.93193 18.0096 9.99586 18.4279C9.98128 18.4276 9.96687 18.4251 9.95232 18.4251C9.56196 18.4251 9.17913 18.5071 8.82432 18.6622C8.74452 18.1606 8.70433 17.6535 8.70412 17.1456C8.70412 11.8258 13.0322 7.49756 18.352 7.49756C23.6719 7.49749 28 11.8257 28 17.1455ZM20.7629 19.9576L18.4065 21.0407L18.4431 20.5273L19.9696 19.8382C19.7518 19.8226 19.5263 19.8167 19.301 19.8167C18.4576 19.8167 17.0327 20.2436 15.4567 20.8692L10.402 19.5359C10.1683 19.4743 9.92442 19.4613 9.68549 19.4978C9.44656 19.5342 9.21767 19.6194 9.01301 19.748L8.76448 19.9041C8.52185 20.0566 8.51927 20.4093 8.75964 20.5653L11.7981 22.5365C11.0722 22.9077 10.3836 23.2848 9.77653 23.6448L8.21738 22.8194C8.09156 22.7527 7.95274 22.7143 7.81057 22.7068C7.6684 22.6992 7.52629 22.7227 7.39413 22.7757L7.24654 22.8348C7.02645 22.9229 6.93425 23.1847 7.05058 23.3913L7.90948 24.9173L7.90986 24.9171C7.5858 25.1959 7.40113 25.4271 7.40113 25.5871C7.40113 26.066 7.99043 26.1857 8.50987 26.1857C9.43634 26.1857 21.6715 23.3843 21.6715 20.8463C21.6714 20.3437 21.3277 20.0923 20.7629 19.9576ZM15.6042 24.9128L18.2966 23.9644C18.4151 23.9226 18.5419 24.0017 18.5565 24.1266L18.7925 26.1447C18.8213 26.3906 18.7717 26.6393 18.651 26.8554C18.5302 27.0715 18.3443 27.244 18.1198 27.3484L17.8673 27.4657C17.7906 27.5014 17.7043 27.5113 17.6214 27.4939C17.5386 27.4765 17.4636 27.4328 17.4076 27.3693L15.5222 25.2274C15.4304 25.1231 15.4731 24.959 15.6042 24.9128Z" fill="#02457C"/>
</g>
<defs>
<clipPath id="clip0_1059_1869">
<rect width="21" height="21" fill="white" transform="translate(7 7)"/>
</clipPath>
</defs>
</svg>
