<svg width="22" height="20" viewBox="0 0 22 20" fill="none" xmlns="http://www.w3.org/2000/svg">
<path fill-rule="evenodd" clip-rule="evenodd" d="M1.71987 9.1798C1.79321 4.09198 5.96171 0 11.0808 0C14.4661 0 17.4333 1.789 19.0771 4.46893C19.299 4.83085 19.1863 5.3046 18.8252 5.5271C18.4641 5.74959 17.9915 5.63657 17.7695 5.27466C16.3954 3.03431 13.9147 1.53846 11.0808 1.53846C6.79906 1.53846 3.3294 4.95149 3.255 9.17761L3.66469 8.77018C3.96557 8.47096 4.45148 8.47287 4.75001 8.77445C5.04854 9.07603 5.04663 9.56308 4.74575 9.8623L3.02686 11.5717C2.72765 11.8693 2.24501 11.8693 1.9458 11.5717L0.226916 9.8623C-0.0739657 9.56308 -0.0758744 9.07603 0.222652 8.77445C0.521179 8.47287 1.0071 8.47096 1.30798 8.77018L1.71987 9.1798ZM18.9676 8.42727C19.2666 8.13108 19.7476 8.13108 20.0466 8.42727L21.772 10.1367C22.0735 10.4353 22.0763 10.9224 21.7784 11.2245C21.4804 11.5267 20.9945 11.5295 20.6931 11.2309L20.2736 10.8153C20.2026 15.9081 16.0158 20 10.8798 20C7.48392 20 4.50624 18.2123 2.85612 15.5322C2.63353 15.1707 2.74548 14.6967 3.10618 14.4736C3.46687 14.2505 3.93972 14.3627 4.16231 14.7242C5.54157 16.9644 8.03259 18.4615 10.8798 18.4615C15.1839 18.4615 18.6665 15.0431 18.7385 10.8174L18.3211 11.2309C18.0197 11.5295 17.5338 11.5267 17.2358 11.2245C16.9379 10.9224 16.9407 10.4353 17.2422 10.1367L18.9676 8.42727Z" fill="#141414"/>
</svg>
