<svg width="52" height="52" viewBox="0 0 52 52" fill="none" xmlns="http://www.w3.org/2000/svg">
<rect width="52" height="52" rx="6" fill="#F4F4F4"/>
<path fill-rule="evenodd" clip-rule="evenodd" d="M30 19.75C30 17.6789 28.3211 16 26.25 16C24.1789 16 22.5 17.6789 22.5 19.75C22.5 21.8211 24.1789 23.5 26.25 23.5C28.3211 23.5 30 21.8211 30 19.75ZM26.25 17.5C27.4926 17.5 28.5 18.5074 28.5 19.75C28.5 20.9926 27.4926 22 26.25 22C25.0074 22 24 20.9926 24 19.75C24 18.5074 25.0074 17.5 26.25 17.5Z" fill="#141414"/>
<path fill-rule="evenodd" clip-rule="evenodd" d="M23.5 31.75C23.5 29.6789 21.8211 28 19.75 28C17.6789 28 16 29.6789 16 31.75C16 33.8211 17.6789 35.5 19.75 35.5C21.8211 35.5 23.5 33.8211 23.5 31.75ZM19.75 29.5C20.9926 29.5 22 30.5074 22 31.75C22 32.9926 20.9926 34 19.75 34C18.5074 34 17.5 32.9926 17.5 31.75C17.5 30.5074 18.5074 29.5 19.75 29.5Z" fill="#141414"/>
<path fill-rule="evenodd" clip-rule="evenodd" d="M32.75 28C34.8211 28 36.5 29.6789 36.5 31.75C36.5 33.8211 34.8211 35.5 32.75 35.5C30.6789 35.5 29 33.8211 29 31.75C29 29.6789 30.6789 28 32.75 28ZM35 31.75C35 30.5074 33.9926 29.5 32.75 29.5C31.5074 29.5 30.5 30.5074 30.5 31.75C30.5 32.9926 31.5074 34 32.75 34C33.9926 34 35 32.9926 35 31.75Z" fill="#141414"/>
<path d="M21.4547 21.3123C21.7652 21.0382 21.7948 20.5643 21.5207 20.2537C21.2466 19.9432 20.7726 19.9136 20.4621 20.1877C18.6468 21.7899 17.5 24.1365 17.5 26.75C17.5 27.1642 17.8358 27.5 18.25 27.5C18.6642 27.5 19 27.1642 19 26.75C19 24.5847 19.9483 22.6419 21.4547 21.3123Z" fill="#141414"/>
<path d="M32.0379 20.1877C31.7274 19.9136 31.2534 19.9432 30.9793 20.2537C30.7052 20.5643 30.7348 21.0382 31.0453 21.3123C32.5517 22.6419 33.5 24.5847 33.5 26.75C33.5 27.1642 33.8358 27.5 34.25 27.5C34.6642 27.5 35 27.1642 35 26.75C35 24.1365 33.8532 21.7899 32.0379 20.1877Z" fill="#141414"/>
<path d="M24.4369 33.7717C24.0358 33.6684 23.6269 33.9099 23.5237 34.311C23.4204 34.7122 23.6619 35.1211 24.0631 35.2243C24.7629 35.4044 25.4958 35.5 26.25 35.5C27.0042 35.5 27.7371 35.4044 28.4369 35.2243C28.8381 35.1211 29.0796 34.7122 28.9763 34.311C28.8731 33.9099 28.4642 33.6684 28.0631 33.7717C27.4844 33.9206 26.877 34 26.25 34C25.623 34 25.0156 33.9206 24.4369 33.7717Z" fill="#141414"/>
</svg>
