<svg width="270" height="219" viewBox="0 0 270 219" fill="none" xmlns="http://www.w3.org/2000/svg">
<path fill-rule="evenodd" clip-rule="evenodd" d="M2.19531 101.695L4.07503 103.63L2.19531 101.695Z" fill="#DADADA"/>
<path fill-rule="evenodd" clip-rule="evenodd" d="M1.98438 112.089L3.86409 110.154L1.98438 112.089Z" fill="#DADADA"/>
<path fill-rule="evenodd" clip-rule="evenodd" d="M11.1976 111.183L9.66406 109.65L11.1976 111.183Z" fill="#DADADA"/>
<path fill-rule="evenodd" clip-rule="evenodd" d="M12.7289 101.982L11.1953 103.516L12.7289 101.982Z" fill="#DADADA"/>
<path fill-rule="evenodd" clip-rule="evenodd" d="M206.92 148.019C208.753 148.019 210.239 149.505 210.239 151.338C210.239 153.172 208.753 154.658 206.92 154.658C205.088 154.658 203.602 153.172 203.602 151.338" fill="#DADADA"/>
<path fill-rule="evenodd" clip-rule="evenodd" d="M222.102 117.903C224.072 117.288 227.093 114.878 227.792 112.286C228.426 114.578 231.084 117.288 233.482 117.493C230.782 118.449 228.201 121.289 227.792 123.52C227.513 121.246 223.943 118.234 222.102 117.903Z" fill="#DADADA"/>
<path fill-rule="evenodd" clip-rule="evenodd" d="M19.8359 146.996C20.8215 146.689 22.3311 145.484 22.6807 144.188C22.9977 145.333 24.3263 146.689 25.5254 146.792C24.1759 147.269 22.8857 148.689 22.6807 149.805C22.5414 148.668 20.7564 147.162 19.8359 146.996Z" fill="#DADADA"/>
<path fill-rule="evenodd" clip-rule="evenodd" d="M38.1231 40.3307C38.1231 41.7527 36.9709 42.9046 35.5498 42.9046C34.1281 42.9046 32.9766 41.7527 32.9766 40.3307C32.9766 38.9092 34.1281 37.7567 35.5498 37.7567C36.9709 37.7567 38.1231 38.9092 38.1231 40.3307Z" fill="#DADADA"/>
<path fill-rule="evenodd" clip-rule="evenodd" d="M209.954 47.2419C209.954 49.6179 208.028 51.5439 205.653 51.5439C203.277 51.5439 201.352 49.6179 201.352 47.2419C201.352 44.8659 203.277 42.9398 205.653 42.9398C208.028 42.9398 209.954 44.8659 209.954 47.2419Z" fill="#DADADA"/>
<path fill-rule="evenodd" clip-rule="evenodd" d="M269.534 35.5859C269.534 37.471 268.007 38.9986 266.123 38.9986C264.238 38.9986 262.711 37.471 262.711 35.5859C262.711 33.7009 264.238 32.1733 266.123 32.1733C268.007 32.1733 269.534 33.7009 269.534 35.5859Z" fill="#DADADA"/>
<path fill-rule="evenodd" clip-rule="evenodd" d="M86.215 194.968C86.215 196.156 85.2522 197.119 84.0642 197.119C82.8768 197.119 81.9141 196.156 81.9141 194.968C81.9141 193.78 82.8768 192.817 84.0642 192.817C85.2522 192.817 86.215 193.78 86.215 194.968Z" fill="#DADADA"/>
<path fill-rule="evenodd" clip-rule="evenodd" d="M84.9356 23.7946C84.9356 25.2167 83.7834 26.3686 82.3623 26.3686C80.9413 26.3686 79.7891 25.2167 79.7891 23.7946C79.7891 22.3732 80.9413 21.2207 82.3623 21.2207C83.7834 21.2207 84.9356 22.3732 84.9356 23.7946Z" fill="#DADADA"/>
<path fill-rule="evenodd" clip-rule="evenodd" d="M150.577 218.791C148.933 219.417 147.092 218.59 146.467 216.946C145.841 215.301 146.667 213.46 148.312 212.835C149.955 212.209 151.796 213.035 152.421 214.68C153.048 216.324 152.221 218.165 150.577 218.791Z" fill="#DADADA"/>
<path fill-rule="evenodd" clip-rule="evenodd" d="M149.6 157.957H86.7204C82.2946 157.957 78.6719 154.324 78.6719 149.883V60.2135C78.6719 55.7729 82.2946 52.1412 86.7204 52.1412H149.6C154.028 52.1412 157.651 55.7729 157.651 60.2135V149.883C157.651 154.324 154.028 157.957 149.6 157.957Z" fill="#F5F5F5"/>
<path fill-rule="evenodd" clip-rule="evenodd" d="M144.233 161.791H81.3532C76.9274 161.791 73.3047 158.158 73.3047 153.717V64.0474C73.3047 59.6067 76.9274 55.9751 81.3532 55.9751H144.233C148.661 55.9751 152.283 59.6067 152.283 64.0474V153.717C152.283 158.158 148.661 161.791 144.233 161.791Z" fill="#DADADA"/>
<path fill-rule="evenodd" clip-rule="evenodd" d="M139.012 164.818H76.0027C71.5677 164.818 67.9375 161.199 67.9375 156.777V67.4788C67.9375 63.0565 71.5677 59.4399 76.0027 59.4399H139.012C143.449 59.4399 147.079 63.0565 147.079 67.4788V156.777C147.079 161.199 143.449 164.818 139.012 164.818Z" fill="#D8DBEA"/>
<path fill-rule="evenodd" clip-rule="evenodd" d="M139.012 164.818H76.0027C71.5677 164.818 67.9375 161.199 67.9375 156.777V67.4788C67.9375 63.0565 71.5677 59.4399 76.0027 59.4399H139.012C143.449 59.4399 147.079 63.0565 147.079 67.4788V156.777C147.079 161.199 143.449 164.818 139.012 164.818Z" fill="#F5F5F5"/>
<path fill-rule="evenodd" clip-rule="evenodd" d="M129.934 86.6465H83.3936C82.0645 86.6465 80.9766 85.6114 80.9766 84.347C80.9766 83.0808 82.0645 82.0458 83.3936 82.0458H129.934C131.263 82.0458 132.351 83.0808 132.351 84.347C132.351 85.6114 131.263 86.6465 129.934 86.6465Z" fill="white"/>
<path fill-rule="evenodd" clip-rule="evenodd" d="M129.934 100.449H83.3936C82.0645 100.449 80.9766 99.4136 80.9766 98.1491C80.9766 96.8829 82.0645 95.8479 83.3936 95.8479H129.934C131.263 95.8479 132.351 96.8829 132.351 98.1491C132.351 99.4136 131.263 100.449 129.934 100.449Z" fill="white"/>
<path fill-rule="evenodd" clip-rule="evenodd" d="M129.934 114.251H83.3936C82.0645 114.251 80.9766 113.216 80.9766 111.951C80.9766 110.687 82.0645 109.65 83.3936 109.65H129.934C131.263 109.65 132.351 110.687 132.351 111.951C132.351 113.216 131.263 114.251 129.934 114.251Z" fill="white"/>
<path fill-rule="evenodd" clip-rule="evenodd" d="M129.934 128.053H83.3936C82.0645 128.053 80.9766 127.018 80.9766 125.753C80.9766 124.487 82.0645 123.452 83.3936 123.452H129.934C131.263 123.452 132.351 124.487 132.351 125.753C132.351 127.018 131.263 128.053 129.934 128.053Z" fill="white"/>
<path fill-rule="evenodd" clip-rule="evenodd" d="M107.687 141.855H83.404C82.0692 141.855 80.9766 140.82 80.9766 139.555C80.9766 138.289 82.0692 137.254 83.404 137.254H107.687C109.022 137.254 110.114 138.289 110.114 139.555C110.114 140.82 109.022 141.855 107.687 141.855Z" fill="white"/>
<path fill-rule="evenodd" clip-rule="evenodd" d="M156.694 124.017C147.388 133.322 132.981 134.371 122.521 127.187C121.185 126.253 119.912 125.203 118.726 124.017C118.115 123.408 117.539 122.78 116.997 122.119C115.912 120.798 114.961 119.389 114.183 117.934C112.811 115.475 111.878 112.867 111.369 110.17C109.726 101.714 112.183 92.6126 118.726 86.0726C125.284 79.5131 134.388 77.0724 142.845 78.6995C145.54 79.2244 148.151 80.157 150.61 81.513C152.067 82.309 153.457 83.2592 154.78 84.344C155.439 84.8844 156.068 85.4619 156.677 86.0726C157.865 87.2589 158.93 88.529 159.848 89.8674C167.035 100.323 165.983 114.73 156.694 124.017Z" fill="white" fill-opacity="0.1"/>
<path fill-rule="evenodd" clip-rule="evenodd" d="M154.088 122.184C144.407 131.868 128.716 131.866 119.033 122.184C109.362 112.513 109.362 96.8211 119.045 87.1393C128.716 77.4682 144.407 77.4682 154.078 87.1393C163.76 96.8211 163.76 112.513 154.088 122.184ZM159.06 82.165C146.633 69.7375 126.494 69.7375 114.067 82.165C101.641 94.5907 101.63 114.742 114.056 127.169C125.367 138.476 143.094 139.496 155.563 130.212C156.781 129.304 157.954 128.286 159.073 127.169C160.19 126.05 161.208 124.878 162.114 123.66C171.398 111.189 170.369 93.4737 159.06 82.165Z" fill="#DADADA"/>
<path fill-rule="evenodd" clip-rule="evenodd" d="M207.966 174.015L207.444 174.537C203.993 177.99 198.34 177.99 194.887 174.537L163.016 142.666L176.095 129.586L207.966 161.457C211.42 164.911 211.42 170.561 207.966 174.015Z" fill="#606060"/>
<path fill-rule="evenodd" clip-rule="evenodd" d="M162.802 122.685L172.22 132.103L165.533 138.788L156.117 129.37C157.36 128.443 158.555 127.404 159.698 126.265C160.838 125.125 161.877 123.928 162.802 122.685Z" fill="#DADADA"/>
<path fill-rule="evenodd" clip-rule="evenodd" d="M207.492 161.066L194.496 174.06L192.156 171.718L205.15 158.724L207.492 161.066Z" fill="#DADADA"/>
<path fill-rule="evenodd" clip-rule="evenodd" d="M176.82 130.036L163.468 143.388L161.484 141.405L174.836 128.053L176.82 130.036Z" fill="#DADADA"/>
<path fill-rule="evenodd" clip-rule="evenodd" d="M147.678 83.8083L114.934 116.551C113.701 114.341 112.862 111.996 112.406 109.572L140.699 81.2789C143.121 81.7525 145.468 82.5892 147.678 83.8083Z" fill="white" fill-opacity="0.5"/>
<path fill-rule="evenodd" clip-rule="evenodd" d="M158.413 91.591L123.013 124.986C121.745 124.151 120.538 123.212 119.413 122.15C118.834 121.604 118.286 121.043 117.773 120.451L153.605 86.6465C154.232 87.1319 154.828 87.6487 155.406 88.1951C156.531 89.2567 157.543 90.3933 158.413 91.591Z" fill="white" fill-opacity="0.5"/>
</svg>
