<svg width="30" height="25" viewBox="0 0 30 25" fill="none" xmlns="http://www.w3.org/2000/svg">
<path d="M14.3887 10.3456V6.6523L11.2138 4.80566L8.03906 6.6523V10.3456L11.2138 12.1923L14.3887 10.3456Z" fill="#B3B3B3"/>
<path d="M26.8933 9.78508L28.9623 10.9888L26.8933 12.1924L23.7188 10.3457V6.65236L26.8933 4.80566L29.1758 6.0185C29.1758 6.88281 29.1758 7.60938 29.1758 8.45788L27.9995 9.14206V7.85548L26.8933 7.21247L25.7872 7.85548V9.14206L26.8933 9.78508Z" fill="#646464"/>
<path d="M27.506 8.85762V8.14069L26.8898 7.78223L26.2734 8.14069V8.85762L26.8898 9.21613L27.506 8.85762Z" fill="#888888"/>
<path d="M6.54172 6.65241V11.5228L4.42439 10.3058V7.80915L3.36721 7.19394L2.30997 7.80909V10.3057L0.976562 10.9509C0.976562 10.4896 0.976562 10.0283 0.996076 9.20471C0.996076 8.09265 0.976562 6.79942 0.976562 5.87687L3.36721 4.80566L6.54172 6.65241Z" fill="#646464"/>
<path d="M11.2188 4.80566L14.3935 10.3455L11.2188 12.1921L8.04402 6.65227L11.2188 4.80566Z" fill="#646464"/>
<path d="M8.03906 10.3457L9.12918 8.55469L8.03906 6.65234V10.3457Z" fill="#888888"/>
<path d="M13.3352 8.49883L14.3936 6.6523L11.2188 4.80566L13.3352 8.49883Z" fill="#888888"/>
<path d="M20.083 0.525391V5.42534L19.0189 4.80608L15.8438 6.65278V10.3462L19.0189 12.1929L22.1934 10.3462V1.66354L20.083 0.525391ZM20.0772 9.11468L19.0188 9.73045L17.9604 9.11468V7.88376L19.0188 7.26799L20.0772 7.88376V9.11468Z" fill="#646464"/>
<path d="M17.2478 18.0501C17.2478 18.0501 17.1574 17.1378 16.3264 17.1378C15.4952 17.1378 14.9262 17.2651 14.9262 17.8061C14.9262 18.3472 16.5433 18.3472 17.1576 18.5593C17.7719 18.7714 18.3139 19.323 18.0429 20.299C17.7719 21.2749 16.9407 21.3809 15.6579 21.3809C14.3751 21.3809 14.0859 20.1291 14.0859 19.6413H14.8086C14.8086 19.6413 14.7182 20.405 15.5674 20.5322C16.4166 20.6595 17.2286 20.7311 17.3381 19.9595C17.4826 18.9411 14.5917 19.4503 14.3388 18.4532C14.1251 17.6107 14.2484 16.5014 15.6938 16.3316C17.1393 16.1618 17.9343 16.9112 17.9343 18.0289L17.2478 18.0501Z" fill="#888888"/>
<path d="M10.0626 21.3811L11.7646 22.4099C12.6198 22.9268 13.6887 22.2807 13.6887 21.2468V16.1259H12.995V21.0448C12.995 21.6094 12.4113 21.9623 11.9442 21.6799L10.7562 20.9619V15.7123L15.0983 13.0878L19.4404 15.7123V20.9619L15.0983 23.5864L13.8475 22.8303L13.0307 23.1751L15.0982 24.425L20.134 21.3808V15.293L15.0983 12.249L10.0625 15.2932V21.3811H10.0626Z" fill="#888888"/>
</svg>
