<svg width="55" height="55" viewBox="0 0 55 55" fill="none" xmlns="http://www.w3.org/2000/svg">
<g clip-path="url(#clip0_1692_2395)">
<path d="M24.5292 43.964H6.36774C5.78478 43.964 5.2915 43.4929 5.2915 42.8873V36.4497C5.2915 35.8665 5.76236 35.373 6.36774 35.373H24.5292C25.1121 35.373 25.6054 35.8441 25.6054 36.4497V42.8873C25.6054 43.4929 25.1121 43.964 24.5292 43.964ZM7.44397 41.8106H23.4529V37.5264H7.44397V41.8106Z" fill="#0278BE"/>
<path d="M33.0942 49.8185H1.07623C0.493274 49.8185 0 49.3475 0 48.7418V18.1688C0 17.5856 0.470852 17.0922 1.07623 17.0922C1.68161 17.0922 2.15247 17.5632 2.15247 18.1688V47.6652H31.278C30.4036 45.7361 30.0673 43.6501 30.2466 41.4967C30.2915 41.0257 30.3587 40.5546 30.4484 40.106L28.0045 36.1134C27.8027 35.7769 27.8027 35.3732 27.9821 35.0367C28.1614 34.7002 28.5202 34.4984 28.9238 34.4984H33.2063C34.2152 33.332 35.4484 32.3675 36.7937 31.6497V2.15334H2.15247V8.47879C2.15247 9.06199 1.68161 9.55546 1.07623 9.55546C0.470852 9.55546 0 9.06199 0 8.47879V1.07667C0 0.471044 0.470852 0 1.07623 0H37.8924C38.4753 0 38.9686 0.471044 38.9686 1.07667V32.3002C38.9686 32.7263 38.722 33.1077 38.3408 33.2871C36.8834 33.96 35.5605 34.9918 34.574 36.248C34.3722 36.4947 34.0583 36.6517 33.722 36.6517H30.852L32.5112 39.3658C32.6682 39.6126 32.713 39.9042 32.6457 40.1733C32.5336 40.6668 32.4439 41.1827 32.3991 41.6986C32.1973 44.009 32.7578 46.2296 33.991 48.1586C34.2152 48.4951 34.2152 48.9213 34.0359 49.2578C33.8341 49.5942 33.4753 49.8185 33.0942 49.8185Z" fill="#0278BE"/>
<path d="M42.6008 54.9999C42.242 54.9999 41.8609 54.9775 41.5021 54.9551C34.686 54.3495 29.6411 48.3156 30.2465 41.4967C30.2914 41.0256 30.3586 40.5546 30.4483 40.106L28.0044 36.1133C27.8026 35.7769 27.8026 35.3731 27.9819 35.0366C28.1613 34.7002 28.5201 34.4983 28.9237 34.4983H33.2062C35.8071 31.4926 39.686 29.9 43.677 30.2589C50.4932 30.8645 55.538 36.8984 54.9326 43.7173C54.3721 50.1325 48.9461 54.9999 42.6008 54.9999ZM30.8519 36.6292L32.5111 39.3433C32.668 39.5901 32.7129 39.8817 32.6456 40.1508C32.5335 40.6443 32.4438 41.1602 32.399 41.6761C31.9057 47.3062 36.0761 52.2858 41.7039 52.8017C47.3317 53.2952 52.3093 49.1231 52.825 43.493C53.3407 37.8629 49.1479 32.8833 43.5201 32.3674C40.0672 32.0534 36.7263 33.4889 34.5739 36.203C34.3721 36.4498 34.0582 36.6068 33.7219 36.6068L30.8519 36.6292Z" fill="#0278BE"/>
<path d="M42.6682 46.2295C42.0852 46.2295 41.592 45.7585 41.592 45.1528V44.435C41.592 43.1116 42.3767 41.9452 43.565 41.4518C44.5516 41.048 45.157 40.0611 45.0897 39.0068C45 37.8404 44.0583 36.8759 42.9148 36.7638C41.5919 36.6292 40.426 37.5488 40.2467 38.8498C40.2242 38.962 40.2242 39.0741 40.2242 39.1863C40.2242 39.7695 39.7534 40.2629 39.148 40.2629C38.565 40.2629 38.0718 39.7919 38.0718 39.1863C38.0718 38.962 38.0942 38.7601 38.1166 38.5582C38.4529 36.1133 40.6502 34.3861 43.1166 34.6328C45.3139 34.8571 47.0628 36.674 47.2198 38.8722C47.3543 40.8686 46.2108 42.7303 44.3498 43.4705C43.9686 43.6275 43.722 44.0089 43.722 44.4575V45.1753C43.7444 45.736 43.2511 46.2295 42.6682 46.2295ZM32.5561 19.7389H22.3094C21.7265 19.7389 21.2332 19.2678 21.2332 18.6622V8.41139C21.2332 7.82819 21.7041 7.33472 22.3094 7.33472H32.5561C33.139 7.33472 33.6323 7.80576 33.6323 8.41139V18.6622C33.6323 19.2454 33.1615 19.7389 32.5561 19.7389ZM23.3857 17.5855H31.5023V9.46563H23.3857V17.5855ZM16.6144 19.7389H6.36774C5.78478 19.7389 5.2915 19.2678 5.2915 18.6622V8.41139C5.2915 7.82819 5.76236 7.33472 6.36774 7.33472H16.6144C17.1973 7.33472 17.6906 7.80576 17.6906 8.41139V18.6622C17.6906 19.2454 17.2198 19.7389 16.6144 19.7389ZM7.44397 17.5855H15.5606V9.46563H7.44397V17.5855ZM12.9821 15.9705C12.713 15.9705 12.4215 15.8584 12.2198 15.6565L11.4798 14.9163L10.7624 15.6565C10.3363 16.0827 9.6637 16.0827 9.23769 15.6565C8.81168 15.2303 8.81168 14.5574 9.23769 14.1312L9.9776 13.391L9.23769 12.6508C8.81168 12.2246 8.81168 11.5517 9.23769 11.1255C9.6637 10.6993 10.3363 10.6993 10.7624 11.1255L11.5023 11.8657L12.2422 11.1255C12.6682 10.6993 13.3408 10.6993 13.7668 11.1255C14.1929 11.5517 14.1929 12.2246 13.7668 12.6508L13.0269 13.391L13.7668 14.1312C14.1929 14.5574 14.1929 15.2303 13.7668 15.6565C13.5426 15.8584 13.2736 15.9705 12.9821 15.9705Z" fill="#0278BE"/>
<path d="M19.7757 31.3133H7.66803C7.08507 31.3133 6.5918 30.8422 6.5918 30.2366C6.5918 29.6534 7.06265 29.1599 7.66803 29.1599H19.7757C20.3586 29.1599 20.8519 29.631 20.8519 30.2366C20.8519 30.8198 20.3586 31.3133 19.7757 31.3133ZM31.3452 25.9972H7.66803C7.08507 25.9972 6.5918 25.5261 6.5918 24.9205C6.5918 24.3373 7.06265 23.8439 7.66803 23.8439H31.3452C31.9281 23.8439 32.4214 24.3149 32.4214 24.9205C32.4214 25.5037 31.9281 25.9972 31.3452 25.9972ZM26.7487 15.9483C26.4797 15.9483 26.1882 15.8361 25.9864 15.6342L24.7308 14.3781C24.3048 13.9519 24.3048 13.279 24.7308 12.8528C25.1568 12.4266 25.8295 12.4266 26.2555 12.8528L26.7487 13.3463L28.3407 11.7537C28.7667 11.3275 29.4393 11.3275 29.8653 11.7537C30.2913 12.1799 30.2913 12.8528 29.8653 13.279L27.5111 15.6342C27.3093 15.8585 27.0402 15.9483 26.7487 15.9483Z" fill="#0278BE"/>
</g>
<defs>
<clipPath id="clip0_1692_2395">
<rect width="55" height="55" fill="white"/>
</clipPath>
</defs>
</svg>
