<svg width="60" height="60" viewBox="0 0 60 60" fill="none" xmlns="http://www.w3.org/2000/svg">
<g clip-path="url(#clip0_1692_2414)">
<mask id="mask0_1692_2414" style="mask-type:luminance" maskUnits="userSpaceOnUse" x="0" y="0" width="80" height="80">
<path d="M79.9998 80H0V0.000198364H79.9998V80Z" fill="white"/>
</mask>
<g mask="url(#mask0_1692_2414)">
<path d="M30 13.4844C26.8906 13.4844 24.375 10.9531 24.375 7.85939V5.62502C24.375 2.51565 26.9062 3.52859e-05 30 3.52859e-05C33.1094 3.52859e-05 35.625 2.53128 35.625 5.62502V7.85939C35.625 10.9531 33.1094 13.4844 30 13.4844ZM30 2.34378C28.1875 2.34378 26.7187 3.81253 26.7187 5.62502V7.85939C26.7187 9.67188 28.1875 11.1406 30 11.1406C31.8125 11.1406 33.2812 9.67188 33.2812 7.85939V5.62502C33.2812 3.81253 31.8125 2.34378 30 2.34378Z" fill="#0278BE"/>
<path d="M37.7968 21.0938H22.2031C21.5625 21.0938 21.0312 20.5625 21.0312 19.9219V17.875C21.0312 14.7656 22.6875 11.8281 25.3594 10.2032C25.9062 9.8594 26.6406 10.0469 26.9687 10.5938C27.3125 11.1406 27.125 11.875 26.5781 12.2031C24.5937 13.4063 23.375 15.5781 23.375 17.875V18.75H36.625V17.875C36.625 15.5781 35.3906 13.4063 33.4218 12.2031C32.875 11.8594 32.6875 11.1406 33.0312 10.5938C33.375 10.0469 34.0937 9.8594 34.6406 10.2032C37.3125 11.8281 38.9687 14.7656 38.9687 17.875V19.9219C38.9687 20.5625 38.4375 21.0938 37.7968 21.0938Z" fill="#0278BE"/>
<path d="M8.96874 13.4844C5.85937 13.4844 3.34375 10.9531 3.34375 7.85939V5.62502C3.34375 2.51565 5.87499 3.52859e-05 8.96874 3.52859e-05C12.0781 3.52859e-05 14.5937 2.53128 14.5937 5.62502V7.85939C14.5937 10.9531 12.0625 13.4844 8.96874 13.4844ZM8.96874 2.34378C7.15624 2.34378 5.68749 3.81253 5.68749 5.62502V7.85939C5.68749 9.67188 7.15624 11.1406 8.96874 11.1406C10.7812 11.1406 12.25 9.67188 12.25 7.85939V5.62502C12.25 3.81253 10.7812 2.34378 8.96874 2.34378Z" fill="#0278BE"/>
<path d="M16.7656 21.0938H1.17187C0.531249 21.0938 0 20.5625 0 19.9219V17.875C0 14.7656 1.65625 11.8281 4.32811 10.2032C4.87499 9.8594 5.60936 10.0469 5.93748 10.5938C6.28123 11.1406 6.09373 11.875 5.54686 12.2031C3.57812 13.4063 2.34374 15.5781 2.34374 17.875V18.75H15.5937V17.875C15.5937 15.5781 14.3593 13.4063 12.3906 12.2031C11.8437 11.8594 11.6562 11.1406 12 10.5938C12.3281 10.0469 13.0625 9.8594 13.6093 10.2032C16.2812 11.8281 17.9375 14.7656 17.9375 17.875V19.9219C17.9375 20.5625 17.4062 21.0938 16.7656 21.0938Z" fill="#0278BE"/>
<path d="M51.0312 13.4844C47.9219 13.4844 45.4062 10.9531 45.4062 7.85939V5.62502C45.4062 2.51565 47.9375 3.52859e-05 51.0312 3.52859e-05C54.125 3.52859e-05 56.6562 2.53128 56.6562 5.62502V7.85939C56.6562 10.9531 54.1406 13.4844 51.0312 13.4844ZM51.0312 2.34378C49.2187 2.34378 47.75 3.81253 47.75 5.62502V7.85939C47.75 9.67188 49.2187 11.1406 51.0312 11.1406C52.8437 11.1406 54.3125 9.67188 54.3125 7.85939V5.62502C54.3125 3.81253 52.8437 2.34378 51.0312 2.34378Z" fill="#0278BE"/>
<path d="M58.8281 21.0938H43.2344C42.5937 21.0938 42.0625 20.5625 42.0625 19.9219V17.875C42.0625 14.7656 43.7187 11.8281 46.3906 10.2032C46.9375 9.8594 47.6719 10.0469 48 10.5938C48.3437 11.1406 48.1562 11.875 47.6094 12.2031C45.625 13.4063 44.4062 15.5781 44.4062 17.875V18.75H57.6562V17.875C57.6562 15.5781 56.4218 13.4063 54.4531 12.2031C53.9062 11.8594 53.7187 11.1406 54.0625 10.5938C54.3906 10.0469 55.125 9.8594 55.6718 10.2032C58.3437 11.8281 60 14.7656 60 17.875V19.9219C60 20.5625 59.4687 21.0938 58.8281 21.0938Z" fill="#0278BE"/>
<path d="M32.6095 60H27.4064C26.8127 60 26.3127 59.5469 26.2345 58.9531L25.9689 56.5625C25.2033 56.2344 24.4845 55.8281 23.8283 55.3281L21.6252 56.2969C21.0783 56.5313 20.4377 56.3281 20.1408 55.8125L17.5314 51.2969C17.2346 50.7813 17.3752 50.125 17.8596 49.7657L19.797 48.3438C19.7502 47.9375 19.7189 47.5157 19.7189 47.1094C19.7189 46.7032 19.7502 46.2813 19.797 45.875L17.8596 44.4532C17.3752 44.0938 17.2346 43.4375 17.5314 42.9219L20.1408 38.4063C20.4377 37.8907 21.0783 37.6719 21.6252 37.9219L23.8283 38.8907C24.4845 38.3907 25.2033 37.9688 25.9689 37.6563L26.2345 35.2657C26.297 34.6719 26.797 34.2188 27.4064 34.2188H32.6095C33.2033 34.2188 33.7033 34.6719 33.7814 35.2657L34.047 37.6563C34.8126 37.9844 35.5314 38.3907 36.1876 38.8907L38.3908 37.9219C38.9376 37.6876 39.5782 37.8907 39.8751 38.4063L42.4845 42.9219C42.7814 43.4375 42.6407 44.0938 42.1564 44.4532L40.2189 45.875C40.2657 46.2813 40.297 46.7032 40.297 47.1094C40.297 47.5157 40.2657 47.9375 40.2189 48.3438L42.1564 49.7657C42.6407 50.125 42.7814 50.7813 42.4845 51.2969L39.8751 55.8125C39.5782 56.3281 38.9376 56.5469 38.3908 56.2969L36.1876 55.3281C35.5314 55.8281 34.8126 56.25 34.047 56.5625L33.7814 58.9531C33.7033 59.5469 33.2033 60 32.6095 60ZM28.4377 57.6563H31.5626L31.797 55.6094C31.8439 55.1563 32.1564 54.7813 32.5783 54.625C33.5626 54.2813 34.4533 53.7656 35.2345 53.0938C35.5783 52.7969 36.0626 52.7188 36.4689 52.9063L38.3595 53.7344L39.922 51.0469L38.2658 49.8281C37.9064 49.5625 37.7189 49.1094 37.8126 48.6563C37.9064 48.1563 37.9689 47.6407 37.9533 47.125C37.9533 46.6094 37.9064 46.0938 37.8126 45.5938C37.7189 45.1563 37.9064 44.6875 38.2658 44.4219L39.922 43.2032L38.3595 40.5157L36.4689 41.3438C36.047 41.5313 35.5626 41.4532 35.2345 41.1563C34.4533 40.4688 33.5626 39.9532 32.5783 39.6251C32.1564 39.4844 31.8439 39.0938 31.797 38.6407L31.5626 36.5626H28.4377L28.2033 38.6094C28.1564 39.0626 27.8439 39.4375 27.422 39.5938C26.4377 39.9219 25.547 40.4532 24.7658 41.125C24.422 41.4219 23.9377 41.5 23.5314 41.3125L21.6408 40.4844L20.0783 43.1719L21.7345 44.3907C22.0939 44.6563 22.2814 45.1094 22.1877 45.5625C22.0939 46.0625 22.0314 46.5782 22.047 47.0938C22.047 47.6094 22.0939 48.125 22.2033 48.625C22.297 49.0625 22.1095 49.5313 21.7502 49.7969L20.0939 51.0156L21.6564 53.7031L23.547 52.875C23.9689 52.6875 24.4533 52.7656 24.7814 53.0625C25.5627 53.75 26.4533 54.2656 27.4377 54.5938C27.8595 54.7344 28.172 55.125 28.2189 55.5781L28.4377 57.6563ZM30.0001 51.5313C27.5627 51.5313 25.5783 49.5469 25.5783 47.1094C25.5783 44.6719 27.5627 42.6875 30.0001 42.6875C32.4376 42.6875 34.422 44.6719 34.422 47.1094C34.422 49.5469 32.4376 51.5313 30.0001 51.5313ZM30.0001 45.0313C28.8439 45.0313 27.922 45.9688 27.922 47.1094C27.922 48.2657 28.8595 49.1875 30.0001 49.1875C31.1564 49.1875 32.0783 48.25 32.0783 47.1094C32.0783 45.9532 31.1564 45.0313 30.0001 45.0313Z" fill="#0278BE"/>
<path d="M19.6406 42.2969C19.4375 42.2969 19.2343 42.25 19.0625 42.1406L8.375 35.9688C8.01562 35.7656 7.78125 35.375 7.78125 34.9531V30.4688C7.78125 29.8282 8.3125 29.2969 8.95312 29.2969C9.59375 29.2969 10.125 29.8282 10.125 30.4688V34.2969L20.2187 40.125C20.7812 40.4531 20.9687 41.1719 20.6406 41.7188C20.4375 42.0938 20.0468 42.2969 19.6406 42.2969Z" fill="#0278BE"/>
<path d="M40.3592 42.2969C39.9529 42.2969 39.5623 42.0938 39.3436 41.7031C39.0155 41.1406 39.2186 40.4219 39.7654 40.1094L49.8592 34.2813V20.2657C49.8592 19.6251 50.3904 19.0938 51.031 19.0938C51.6717 19.0938 52.2029 19.6251 52.2029 20.2657V34.9531C52.2029 35.375 51.9842 35.7656 51.6092 35.9688L40.9373 42.1406C40.7498 42.25 40.5467 42.2969 40.3592 42.2969Z" fill="#0278BE"/>
<path d="M30 36.1875C29.3594 36.1875 28.8281 35.6563 28.8281 35.0156V20.2813C28.8281 19.6407 29.3594 19.1094 30 19.1094C30.6406 19.1094 31.1719 19.6407 31.1719 20.2813V35.0156C31.1719 35.6719 30.6406 36.1875 30 36.1875Z" fill="#0278BE"/>
<path d="M8.96875 26.3594C8.32812 26.3594 7.79688 25.8281 7.79688 25.1875C7.79688 24.5469 8.32812 24.0156 8.96875 24.0156C9.60937 24.0156 10.1406 24.5469 10.1406 25.1875C10.1406 25.8438 9.60937 26.3594 8.96875 26.3594Z" fill="#0278BE"/>
</g>
</g>
<defs>
<clipPath id="clip0_1692_2414">
<rect width="60" height="60" fill="white"/>
</clipPath>
</defs>
</svg>
