<svg width="69" height="69" viewBox="0 0 69 69" fill="none" xmlns="http://www.w3.org/2000/svg">
<rect width="69" height="69" fill="#E5E5E5"/>
<g clip-path="url(#clip0_7457_3886)">
<rect width="1920" height="6658" transform="translate(-501 -4514)" fill="white"/>
<g filter="url(#filter0_d_7457_3886)">
<rect x="-174" y="-61" width="401" height="326" rx="10" fill="white"/>
</g>
<path opacity="0.05" d="M9.11641 42.9C-9.98359 42.9 -20.5836 28.4 -20.5836 8.4C-20.5836 -11.5 -9.98359 -26 9.11641 -26C28.2164 -26 38.7164 -11.5 38.7164 8.4C38.7164 28.4 28.2164 42.9 9.11641 42.9ZM9.11641 29C19.4164 29 23.7164 21 23.7164 8.4C23.7164 -4.1 19.4164 -12.2 9.11641 -12.2C-1.18359 -12.2 -5.48359 -4.1 -5.48359 8.4C-5.48359 21 -1.18359 29 9.11641 29ZM72.6969 42H58.3969V-8.1H45.7969V-19C51.6969 -19 56.1969 -20.6 59.5969 -25H72.6969V42Z" fill="#141F6A"/>
<path d="M63.9463 4.37988H12.2637V6.40137H63.9463C65.6183 6.40137 66.9785 7.76169 66.9785 9.43359V26.9531C66.9785 28.625 65.6183 29.9854 63.9463 29.9854H48.7645V32.0068H63.9463C66.733 32.0068 69 29.7398 69 26.9531V9.43359C69 6.64691 66.733 4.37988 63.9463 4.37988Z" fill="#0278BE"/>
<path d="M60.6189 24.2945V14.2471H63.9183V12.2256H55.3218V14.2471H58.5975V24.2945H60.6189ZM51.3011 12.1656H53.3226V24.2945H51.3011V12.1656ZM42.15 24.256H44.1197L46.3333 16.5499L47.7713 24.1878L49.7579 23.8138L47.5611 12.1462L45.4929 12.1537L43.1095 20.451L40.5947 12.1492H38.5283L36.5049 23.8282L38.4969 24.1734L39.8168 16.554L42.15 24.256ZM31.0658 12.0961H27.0894V24.3318C27.0894 24.3318 30.832 24.3153 31.5838 24.3153C35.255 24.3031 36.7106 19.5591 33.7437 17.4826C35.4186 15.329 33.8162 12.0706 31.0658 12.0961ZM29.1109 14.1175H31.0658C32.8393 14.1849 32.8384 16.7275 31.0658 16.7945C30.8481 16.7945 29.1109 16.7972 29.1109 16.7972V14.1175ZM31.5837 22.2938C31.1322 22.2938 29.9701 22.2981 29.1107 22.3017V18.8222C29.3917 18.8211 31.5837 18.8188 31.5837 18.8188C33.886 18.9063 33.8843 22.207 31.5837 22.2938ZM14.9151 12.0923V19.984C14.9151 21.4993 15.616 22.6838 17.058 23.6053C17.8062 24.0832 18.6515 24.3262 19.5703 24.3274C20.3666 24.3285 21.1147 24.1562 21.7914 23.8154C23.9154 22.7456 24.3612 21.1372 24.3612 19.9762V12.0923H22.3397V19.9762C22.3397 20.5341 22.1886 21.3519 20.8822 22.01C20.4911 22.2071 20.0498 22.3066 19.5731 22.3059C19.0377 22.3051 18.5709 22.1729 18.1462 21.9016C17.2869 21.3526 16.9364 20.7971 16.9364 19.984V12.0923H14.9151ZM7.69433 14.3C9.30626 13.8136 10.7706 14.9947 10.7853 15.0067L12.0816 13.4556C11.989 13.3779 9.78387 11.5597 7.11134 12.3642C4.48961 13.0831 3.7178 16.5281 6.01731 18.0337C6.01731 18.0337 7.62735 18.7644 9.21651 19.3505C10.3095 19.7537 10.8662 20.3773 10.7441 21.0615C10.2043 23.0937 7.00514 22.6663 5.83079 21.2662L4.33301 22.6235C6.62618 25.2578 11.8962 25.2353 12.7342 21.4169C12.9709 20.0909 12.3551 18.3536 9.91621 17.4541C8.60589 16.9707 7.38936 16.4433 7.06511 16.301C6.76944 16.0797 6.62645 15.7296 6.68076 15.3509C6.7507 14.8631 7.12966 14.4701 7.69433 14.3Z" fill="#0278BE"/>
<path d="M48.6503 54.4797L48.6654 62.5986H21.9959L20.333 59.5299L20.3496 47.3056C20.3496 46.1909 21.2564 45.2841 22.3711 45.2841L24.3757 45.245V54.3429H26.3972V31.1043C26.4991 28.4256 30.3392 28.4276 30.4402 31.1043V48.2869H32.4617V41.2032C32.5636 38.5245 36.4037 38.5265 36.5046 41.2032V48.2868H38.5261V43.2331C38.628 40.5543 42.4682 40.5564 42.5691 43.2331V48.2868H44.5906V45.2462C44.6927 42.5669 48.5334 42.5692 48.6335 45.2481L48.6468 52.4257L50.6682 52.4221L50.655 45.2463C50.6858 42.0427 46.9785 40.085 44.3609 41.8895C43.5587 39.4653 40.4349 38.3839 38.3013 39.8732C37.5514 37.553 34.5918 36.4067 32.4617 37.703V32.0068H46.6289V29.9854H32.3029C31.1562 26.1099 25.6797 26.1123 24.5345 29.9854H5.05371C3.38167 29.9854 2.02148 28.625 2.02148 26.9531V9.43359C2.02148 7.76169 3.38167 6.40137 5.05371 6.40137H10.259V4.37988H5.05371C2.26703 4.37988 0 6.64691 0 9.43359V26.9531C0 29.7398 2.26703 32.0068 5.05371 32.0068H24.3757V43.2232L22.3606 43.2626C20.1363 43.2684 18.3281 45.0799 18.3281 47.3044L18.311 60.041L20.7922 64.6203H50.6906L50.6717 54.4762L48.6503 54.4797Z" fill="#0278BE"/>
</g>
<defs>
<filter id="filter0_d_7457_3886" x="-193" y="-80" width="441" height="366" filterUnits="userSpaceOnUse" color-interpolation-filters="sRGB">
<feFlood flood-opacity="0" result="BackgroundImageFix"/>
<feColorMatrix in="SourceAlpha" type="matrix" values="0 0 0 0 0 0 0 0 0 0 0 0 0 0 0 0 0 0 127 0" result="hardAlpha"/>
<feOffset dx="1" dy="1"/>
<feGaussianBlur stdDeviation="10"/>
<feComposite in2="hardAlpha" operator="out"/>
<feColorMatrix type="matrix" values="0 0 0 0 0 0 0 0 0 0 0 0 0 0 0 0 0 0 0.07 0"/>
<feBlend mode="normal" in2="BackgroundImageFix" result="effect1_dropShadow_7457_3886"/>
<feBlend mode="normal" in="SourceGraphic" in2="effect1_dropShadow_7457_3886" result="shape"/>
</filter>
<clipPath id="clip0_7457_3886">
<rect width="1920" height="6658" fill="white" transform="translate(-501 -4514)"/>
</clipPath>
</defs>
</svg>
