<svg width="70" height="70" viewBox="0 0 70 70" fill="none" xmlns="http://www.w3.org/2000/svg">
<g clip-path="url(#clip0_1692_2384)">
<path d="M69.4289 31.6035L60.5054 25.0382C60.297 24.8839 60.0497 24.7907 59.7912 24.7692C59.5327 24.7477 59.2734 24.7986 59.0423 24.9164C58.8105 25.0327 58.6157 25.2114 58.4799 25.4323C58.344 25.6532 58.2724 25.9076 58.2732 26.167V28.7938H52.0306C51.3317 25.03 49.4967 21.5757 46.7027 18.8457C43.6337 15.8469 39.7158 14.0273 35.5035 13.6055C34.404 9.65354 30.7755 6.7439 26.4779 6.7439C23.7947 6.7439 21.3089 7.85528 19.5347 9.82116C18.5343 9.38005 17.4531 9.15213 16.3598 9.15192C13.6608 9.15192 11.2768 10.5188 9.85893 12.5957C8.92958 12.1472 7.91077 11.9149 6.87887 11.9162C3.08588 11.9165 4.0982e-06 15.0025 4.0982e-06 18.7955C4.0982e-06 20.5234 0.641762 22.1033 1.69764 23.3128C1.56833 23.8321 1.50272 24.3651 1.50227 24.9001C1.50227 28.5598 4.47959 31.5372 8.13928 31.5372H14.8742C14.8698 31.6546 14.8632 31.7718 14.8611 31.8895C14.8002 35.0868 15.5641 38.2063 17.0156 40.9699H11.7268V38.4607C11.7274 38.2024 11.6564 37.949 11.5215 37.7287C11.3867 37.5083 11.1934 37.3298 10.9631 37.2128C10.7333 37.0945 10.4752 37.0424 10.2176 37.0622C9.95993 37.082 9.71285 37.173 9.50387 37.325L0.580375 43.7779C0.401737 43.9074 0.256112 44.0773 0.155286 44.2736C0.0544604 44.4699 0.00126477 44.6872 4.0982e-06 44.9078C-0.000528588 45.1285 0.0508749 45.3462 0.150059 45.5434C0.249242 45.7405 0.393422 45.9115 0.570942 46.0426L9.49471 52.608C9.73473 52.7854 10.0253 52.8813 10.3238 52.8815C10.5395 52.8815 10.7565 52.8314 10.9577 52.7295C11.1895 52.6132 11.3842 52.4345 11.52 52.2136C11.6559 51.9927 11.7274 51.7383 11.7266 51.479V48.8522H14.3555C14.9218 48.8522 15.3809 48.3932 15.3809 47.8268C15.3809 47.2604 14.9218 46.8014 14.3555 46.8014H11.0775C10.3046 46.8014 9.67586 47.4302 9.67586 48.203V50.1954L2.50319 44.9181L9.67586 39.7313V41.6189C9.67586 42.3918 10.3046 43.0206 11.0775 43.0206H18.2673C19.2594 44.4371 20.4429 45.7094 21.7841 46.8013H19.1406C18.5743 46.8013 18.1152 47.2602 18.1152 47.8266C18.1152 48.3931 18.5743 48.852 19.1406 48.852H23.6004C23.7593 49.2534 23.8414 49.681 23.8425 50.1127V55.4628H22.5586C21.2394 55.4628 20.166 56.5362 20.166 57.8554V60.8632C20.166 62.1824 21.2394 63.2558 22.5586 63.2558H35.4102C35.9764 63.2558 36.4356 62.7968 36.4356 62.2304C36.4356 61.664 35.9764 61.205 35.4102 61.205H22.5586C22.468 61.2049 22.3811 61.1688 22.317 61.1048C22.253 61.0407 22.2169 60.9538 22.2168 60.8632V57.8554C22.2168 57.6668 22.3702 57.5136 22.5586 57.5136H43.6133C43.8017 57.5136 43.9551 57.6668 43.9551 57.8554V60.8632C43.9551 61.0517 43.8017 61.205 43.6133 61.205H40.1953C39.629 61.205 39.1699 61.664 39.1699 62.2304C39.1699 62.7968 39.629 63.2558 40.1953 63.2558H43.6133C44.9325 63.2558 46.0059 62.1824 46.0059 60.8632V57.8554C46.0059 56.5362 44.9325 55.4628 43.6133 55.4628H41.2007V52.7685C41.2007 52.7107 41.2478 52.6636 41.3056 52.6636H44.7498C48.0223 52.6636 50.6848 50.0012 50.6848 46.7287V43.1182C50.6848 43.0604 50.7318 43.0133 50.7896 43.0133H53.6365C55.22 43.0133 56.5082 41.725 56.5082 40.1416C56.5079 39.6489 56.3812 39.1646 56.1401 38.735L54.9835 36.6761H58.2734V39.1853C58.2727 39.4437 58.3438 39.6971 58.4786 39.9174C58.6134 40.1377 58.8068 40.3163 59.0371 40.4333C59.2347 40.5348 59.4537 40.5878 59.6758 40.5879C59.9646 40.5879 60.2515 40.498 60.4963 40.3211L69.4198 33.8682C69.5984 33.7386 69.744 33.5688 69.8449 33.3725C69.9457 33.1762 69.9989 32.9589 70.0001 32.7382C70.0006 32.5175 69.9492 32.2998 69.8499 32.1027C69.7507 31.9056 69.6065 31.7346 69.4289 31.6035ZM2.05079 18.7955C2.05079 16.1332 4.21668 13.9674 6.87901 13.9674C9.54133 13.9674 11.7072 16.1333 11.7072 18.7955C11.7072 21.4577 9.54133 23.6237 6.87901 23.6237C4.21668 23.6237 2.05079 21.4577 2.05079 18.7955ZM53.6364 40.9626H50.7895C49.6009 40.9626 48.6339 41.9296 48.6339 43.1182V46.7287C48.6339 48.8704 46.8914 50.6128 44.7497 50.6128H41.3055C40.1168 50.6128 39.1498 51.5799 39.1498 52.7685V55.4628H25.8932V50.1127C25.8932 48.3708 25.0482 46.7008 23.6331 45.6454C19.3219 42.4301 16.809 37.3023 16.9114 31.9283C16.9139 31.7976 16.9184 31.6672 16.924 31.537H27.3438C27.91 31.537 28.3691 31.0781 28.3691 30.5116C28.3691 29.9452 27.91 29.4862 27.3438 29.4862H8.13942C5.61053 29.4862 3.55319 27.4289 3.55319 24.9C3.55319 24.8718 3.55551 24.8441 3.55592 24.8161C4.57257 25.3802 5.71633 25.6757 6.87901 25.6745C10.6721 25.6745 13.758 22.5886 13.758 18.7955C13.758 16.8048 12.9071 15.0096 11.5507 13.7524C12.5988 12.215 14.3629 11.2031 16.3598 11.2031C17.3878 11.2031 18.3975 11.4757 19.2858 11.9932C19.503 12.1199 19.7591 12.1624 20.0055 12.1126C20.2519 12.0629 20.4715 11.9243 20.6224 11.7232C22.0203 9.86231 24.1545 8.79495 26.4781 8.79495C30.5134 8.79495 33.7963 12.078 33.7963 16.1132C33.7977 17.0685 33.6109 18.0146 33.2466 18.8976C33.1824 19.0534 33.1577 19.2226 33.1744 19.3902C33.1912 19.5578 33.249 19.7187 33.3427 19.8587C33.4365 19.9986 33.5632 20.1133 33.7118 20.1927C33.8604 20.272 34.0263 20.3135 34.1947 20.3135H36.1979C38.7268 20.3135 40.7842 22.371 40.7842 24.8999C40.7842 27.4288 38.7268 29.4861 36.1979 29.4861H32.1289C31.5626 29.4861 31.1035 29.9451 31.1035 30.5115C31.1035 31.0779 31.5626 31.5369 32.1289 31.5369H36.1978C39.8575 31.5369 42.8348 28.5596 42.8348 24.8999C42.8348 21.24 39.8575 18.2627 36.1978 18.2627H35.5986C35.7644 17.5582 35.8478 16.8368 35.8471 16.1131C35.8471 15.9772 35.8426 15.8424 35.8369 15.7079C39.3823 16.1795 42.6686 17.7709 45.2696 20.3126C48.4397 23.41 50.2246 27.554 50.2956 31.9812C50.301 32.3413 50.3956 32.6945 50.571 33.0091L54.3523 39.7396C54.4212 39.8624 54.4574 40.0008 54.4575 40.1416C54.4572 40.3592 54.3706 40.5679 54.2167 40.7218C54.0627 40.8757 53.8541 40.9623 53.6364 40.9626ZM60.3241 37.9147V36.027C60.3241 35.2541 59.6954 34.6254 58.9226 34.6254H53.8314L52.3592 32.0049C52.3503 31.9873 52.3458 31.9679 52.3461 31.9483C52.3398 31.58 52.3228 31.212 52.2952 30.8447H58.9226C59.6955 30.8447 60.3241 30.2159 60.3241 29.443V27.4508L67.4968 32.728L60.3241 37.9147Z" fill="#0278BE"/>
<path d="M10.2498 18.1584C10.4407 17.9659 10.5476 17.7055 10.547 17.4343C10.5464 17.1632 10.4384 16.9033 10.2467 16.7115C10.055 16.5197 9.79506 16.4117 9.52389 16.4111C9.25272 16.4105 8.99235 16.5174 8.79975 16.7083L6.50725 19.0009L4.9585 17.452C4.7651 17.2651 4.506 17.1616 4.23703 17.1639C3.96805 17.1662 3.71074 17.274 3.52055 17.4642C3.33036 17.6544 3.22251 17.9118 3.22025 18.1807C3.21799 18.4497 3.3215 18.7088 3.50846 18.9022L5.78223 21.1761C5.97453 21.3684 6.23532 21.4764 6.50725 21.4764C6.77918 21.4764 7.03998 21.3684 7.23227 21.1761L10.2498 18.1584ZM29.7874 16.5297H16.2275C15.6613 16.5297 15.2022 16.9887 15.2022 17.5551C15.2022 18.1215 15.6613 18.5805 16.2275 18.5805H29.7874C30.0594 18.5805 30.3202 18.4725 30.5125 18.2802C30.7048 18.0879 30.8128 17.827 30.8128 17.5551C30.8128 17.2831 30.7048 17.0223 30.5125 16.83C30.3202 16.6377 30.0594 16.5297 29.7874 16.5297ZM29.7874 20.1642H16.2275C15.6613 20.1642 15.2022 20.6232 15.2022 21.1896C15.2022 21.7561 15.6613 22.215 16.2275 22.215H29.7874C30.3537 22.215 30.8128 21.7561 30.8128 21.1896C30.8128 20.6232 30.3537 20.1642 29.7874 20.1642ZM26.5069 23.7989H16.2275C15.6613 23.7989 15.2022 24.2579 15.2022 24.8243C15.2022 25.3907 15.6613 25.8497 16.2275 25.8497H26.5069C27.0732 25.8497 27.5323 25.3907 27.5323 24.8243C27.5323 24.2579 27.0732 23.7989 26.5069 23.7989Z" fill="#0278BE"/>
</g>
<defs>
<clipPath id="clip0_1692_2384">
<rect width="70" height="70" fill="white"/>
</clipPath>
</defs>
</svg>
