<svg width="70" height="70" viewBox="0 0 70 70" fill="none" xmlns="http://www.w3.org/2000/svg">
<g clip-path="url(#clip0_1692_2373)">
<path d="M63.0183 36.7078C63.6583 35.7603 63.9996 34.6428 63.9983 33.4995V32.4029C63.9983 29.2306 61.4173 26.6496 58.2451 26.6496C56.6623 26.6496 55.2267 27.2923 54.1855 28.3303C51.4913 20.3176 43.909 14.5298 35 14.5298C26.091 14.5298 18.5087 20.3175 15.8145 28.3303C14.7733 27.2923 13.3379 26.6496 11.7549 26.6496C8.58266 26.6496 6.00168 29.2306 6.00168 32.4029V33.4995C6.00035 34.6428 6.3417 35.7603 6.98168 36.7078C2.9992 37.5469 0 41.0873 0 45.3157V48.0684C0 48.8234 0.612227 49.4356 1.36719 49.4356H8.47656C9.23152 49.4356 9.84375 48.8234 9.84375 48.0684C9.84375 47.3134 9.23152 46.7012 8.47656 46.7012H2.73438V45.3157C2.73438 41.9725 5.45426 39.2526 8.79744 39.2526H15.2682C15.7855 41.5263 16.6942 43.6928 17.9535 45.6553L2.35402 61.2548C0.356563 63.2524 0.356562 66.5029 2.35416 68.5006C3.35303 69.4995 4.66484 69.9988 5.97693 69.9988C7.28902 69.9988 8.60111 69.4993 9.59998 68.5006L18.2 59.9005C18.7339 59.3666 18.7339 58.5009 18.2 57.9668C17.666 57.4331 16.8005 57.4331 16.2664 57.9668L7.6665 66.567C6.73477 67.4986 5.2191 67.4985 4.2875 66.5671C3.35604 65.6355 3.35604 64.1197 4.2875 63.1881L19.601 47.8748C23.3152 52.2309 28.8401 54.9985 35 54.9985C44.6152 54.9985 52.6846 48.2569 54.7318 39.2526H61.2026C64.5457 39.2526 67.2656 41.9725 67.2656 45.3157V46.7012H54.4141C53.6591 46.7012 53.0469 47.3134 53.0469 48.0684C53.0469 48.8234 53.6591 49.4356 54.4141 49.4356H68.6328C69.3878 49.4356 70 48.8234 70 48.0684V45.3157C70 41.0873 67.0008 37.5469 63.0183 36.7078ZM14.7738 33.4996C14.7738 35.1642 13.4196 36.5184 11.7549 36.5184C10.0903 36.5184 8.73605 35.1642 8.73605 33.4996V32.403C8.73605 30.7383 10.0903 29.3841 11.7549 29.3841C13.4196 29.3841 14.7738 30.7383 14.7738 32.403V33.4996ZM35 52.2642C25.3505 52.2642 17.5 44.4136 17.5 34.7642C17.5 25.1147 25.3505 17.2642 35 17.2642C44.6495 17.2642 52.5 25.1147 52.5 34.7642C52.5 44.4136 44.6495 52.2642 35 52.2642ZM61.2638 33.4996C61.2638 35.1642 59.9096 36.5184 58.2449 36.5184C56.5802 36.5184 55.226 35.1642 55.226 33.4996V32.403C55.226 30.7383 56.5802 29.3841 58.2449 29.3841C59.9096 29.3841 61.2638 30.7383 61.2638 32.403V33.4996Z" fill="#0278BE"/>
<path d="M35 19.9985C26.8581 19.9985 20.2344 26.6223 20.2344 34.7641C20.2344 38.9901 22.0194 42.8066 24.8743 45.5007C24.9231 45.5534 24.9755 45.6032 25.0329 45.6483C27.6615 48.0575 31.1619 49.5298 35 49.5298C38.8381 49.5298 42.3385 48.0573 44.9671 45.6483C45.0245 45.6034 45.0769 45.5534 45.1257 45.5007C47.9806 42.8066 49.7656 38.9901 49.7656 34.7641C49.7656 26.6224 43.1419 19.9985 35 19.9985ZM35 46.7954C32.1887 46.7954 29.5997 45.8259 27.5492 44.204C29.0019 41.4554 31.8328 39.7261 35 39.7261C38.1672 39.7261 40.9981 41.4554 42.4508 44.204C40.4003 45.8259 37.8113 46.7954 35 46.7954ZM32.1189 34.1106V33.0485C32.1189 31.4598 33.4113 30.1674 35 30.1674C36.5887 30.1674 37.8811 31.4598 37.8811 33.0485V34.1106C37.8811 35.6993 36.5887 36.9917 35 36.9917C33.4113 36.9917 32.1189 35.6993 32.1189 34.1106ZM44.4507 42.2015C43.1982 40.2031 41.3649 38.6791 39.2193 37.8101C40.0873 36.8212 40.6154 35.5269 40.6154 34.1108V33.0486C40.6154 29.9523 38.0963 27.4332 35 27.4332C31.9037 27.4332 29.3846 29.9523 29.3846 33.0486V34.1108C29.3846 35.5269 29.9126 36.8212 30.7807 37.8101C28.6351 38.6792 26.8019 40.2031 25.5493 42.2015C23.9338 40.1532 22.9687 37.5693 22.9687 34.7641C22.9687 28.1301 28.366 22.7329 35 22.7329C41.634 22.7329 47.0312 28.1301 47.0312 34.7641C47.0312 37.5693 46.0662 40.1532 44.4507 42.2015ZM21.8572 54.31C21.6029 54.0557 21.2502 53.9094 20.8906 53.9094C20.5311 53.9094 20.1783 54.0557 19.924 54.31C19.6699 54.5643 19.5234 54.917 19.5234 55.2766C19.5234 55.6362 19.6697 55.9889 19.924 56.2432C20.1783 56.4974 20.5311 56.6438 20.8906 56.6438C21.2502 56.6438 21.6029 56.4975 21.8572 56.2432C22.1114 55.9889 22.2578 55.6362 22.2578 55.2766C22.2578 54.917 22.1115 54.5643 21.8572 54.31ZM35.0278 0.0012207C34.2728 0.0012207 33.6606 0.613447 33.6606 1.36841V6.02013C33.6606 6.77522 34.2728 7.38731 35.0278 7.38731C35.7827 7.38731 36.3949 6.77509 36.3949 6.02013V1.36841C36.3949 0.613447 35.7827 0.0012207 35.0278 0.0012207ZM35.9938 9.56196C35.737 9.30629 35.3897 9.16233 35.0273 9.16138C34.665 9.1625 34.3177 9.30643 34.0607 9.56196C33.8053 9.81895 33.6614 10.1662 33.6602 10.5286C33.6602 10.8881 33.8063 11.2409 34.0607 11.495C34.3177 11.7505 34.665 11.8945 35.0273 11.8958C35.3883 11.8958 35.7396 11.7495 35.9938 11.495C36.2493 11.2381 36.3933 10.8909 36.3945 10.5286C36.3945 10.169 36.2482 9.81626 35.9938 9.56196ZM46.6182 5.36415C46.0842 4.8304 45.2188 4.8304 44.6846 5.36415L42.2816 7.76712C41.7478 8.30101 41.7478 9.16671 42.2816 9.70073C42.5488 9.96761 42.8985 10.1012 43.2485 10.1012C43.5985 10.1012 43.9482 9.96761 44.2153 9.70073L46.6182 7.29776C47.1521 6.76388 47.1521 5.89817 46.6182 5.36415ZM27.7413 7.78366L25.3153 5.35759C24.7812 4.82384 23.9158 4.82384 23.3816 5.35759C22.8478 5.89147 22.8478 6.75718 23.3816 7.2912L25.8079 9.71727C25.9347 9.8444 26.0854 9.94522 26.2513 10.0139C26.4172 10.0827 26.595 10.1179 26.7746 10.1177C26.9542 10.1179 27.132 10.0827 27.2979 10.0139C27.4638 9.94522 27.6145 9.8444 27.7413 9.71727C28.2752 9.18339 28.2752 8.31769 27.7413 7.78366Z" fill="#0278BE"/>
</g>
<defs>
<clipPath id="clip0_1692_2373">
<rect width="70" height="70" fill="white"/>
</clipPath>
</defs>
</svg>
