<svg width="57" height="57" viewBox="0 0 57 57" fill="none" xmlns="http://www.w3.org/2000/svg">
<g clipPath="url(#clip0_1692_2358)">
<path d="M55.8867 50.8769H34.7121C34.0998 50.8769 33.5988 50.3759 33.5988 49.7636C33.5988 49.1513 34.0998 48.6503 34.7121 48.6503H54.7734V44.1972H26.6297C26.0174 44.1972 25.5164 43.6962 25.5164 43.0839C25.5164 42.4716 26.0174 41.9707 26.6297 41.9707H31.2832V39.1652C31.2832 36.6046 32.9309 34.3781 35.3801 33.621L41.2025 31.8287C41.7926 31.6505 42.416 31.9734 42.5941 32.5634C42.7723 33.1535 42.4494 33.7769 41.8594 33.955L36.0369 35.7474C34.534 36.215 33.5209 37.5843 33.5209 39.1652V41.9707H54.7846V39.1652C54.7846 37.5843 53.7715 36.215 52.2574 35.7474L46.3793 33.955C45.7893 33.7769 45.4664 33.1535 45.6445 32.5634C45.8227 31.9734 46.4461 31.6505 47.0361 31.8287L52.9031 33.6322C55.3523 34.3892 57 36.6158 57 39.1763V43.0839V49.7636C57 50.3759 56.499 50.8769 55.8867 50.8769ZM5.31035 50.8769H1.11328C0.500977 50.8769 0 50.3759 0 49.7636V43.0839C0 42.4716 0.500977 41.9707 1.11328 41.9707H13.2814C13.8938 41.9707 14.3947 42.4716 14.3947 43.0839C14.3947 43.6962 13.8938 44.1972 13.2814 44.1972H2.22656V48.6503H5.31035C5.92266 48.6503 6.42363 49.1513 6.42363 49.7636C6.42363 50.3759 5.92266 50.8769 5.31035 50.8769ZM44.1416 37.4841C43.5293 37.4841 43.0283 36.9832 43.0283 36.3709V33.621C43.0283 33.0087 43.5293 32.5078 44.1416 32.5078C44.7539 32.5078 45.2549 33.0087 45.2549 33.621V36.3709C45.2549 36.9832 44.7539 37.4841 44.1416 37.4841ZM38.4416 28.8451C37.9406 28.8451 37.4953 28.5111 37.3617 28.0101L36.4266 24.4031C35.8811 22.2767 36.2373 19.9833 37.4174 18.1353C38.5975 16.2761 40.5123 14.9847 42.6721 14.5728C43.6518 14.3947 44.6314 14.3947 45.6111 14.5728C47.7709 14.9736 49.6857 16.2761 50.8658 18.1353C52.0459 19.9945 52.4133 22.2767 51.8566 24.4031L50.8992 28.0212C50.7545 28.5667 50.2313 28.9119 49.6746 28.8451C49.118 28.7783 48.7061 28.2996 48.7061 27.7429V25.8281C48.4166 24.9931 47.9713 24.2027 47.4146 23.5125C45.4998 24.7482 42.6832 25.5498 39.5326 25.7724V27.7541C39.5326 28.3107 39.1207 28.7894 38.5641 28.8562C38.5418 28.8451 38.4861 28.8451 38.4416 28.8451ZM44.1527 16.6658C43.7965 16.6658 43.4402 16.6992 43.0951 16.766C41.5143 17.0666 40.1672 17.9683 39.31 19.3265C38.4973 20.6068 38.2189 22.1097 38.5307 23.5792C42.0486 23.4791 45.2326 22.555 46.858 21.1634C47.2922 20.796 47.9379 20.8183 48.3498 21.208C48.9287 21.7646 49.4297 22.388 49.8639 23.0671C50.0197 21.7646 49.7303 20.4509 49.0066 19.3154C48.1383 17.9572 46.8023 17.0443 45.2215 16.7548C44.8652 16.6992 44.509 16.6658 44.1527 16.6658Z" fill="#0278BE"/>
<path d="M34.5116 57H24.9931C24.3808 57 23.8798 56.499 23.8798 55.8867C23.8798 55.2744 24.3808 54.7734 24.9931 54.7734H33.3983V49.8527C33.3983 47.782 32.0624 45.9785 30.0808 45.3662L24.2694 43.5849C23.6794 43.4068 23.3565 42.7833 23.5347 42.1933C23.7128 41.6033 24.3362 41.2693 24.9263 41.4585L30.7376 43.2398C33.6655 44.1416 35.6249 46.7912 35.6249 49.8527V55.8867C35.6249 56.499 35.1239 57 34.5116 57ZM14.9735 57H5.44385C4.83154 57 4.33057 56.499 4.33057 55.8867V49.8527C4.33057 46.8023 6.28994 44.1416 9.20674 43.2398L15.0849 41.4251C15.6749 41.247 16.2983 41.5699 16.4765 42.1599C16.6546 42.75 16.3317 43.3734 15.7417 43.5515L9.86357 45.3662C7.88193 45.9785 6.55713 47.782 6.55713 49.8416V54.7734H14.9624C15.5747 54.7734 16.0757 55.2744 16.0757 55.8867C16.0757 56.499 15.5858 57 14.9735 57ZM44.1415 34.5451C40.3897 34.5451 37.3282 31.4835 37.3282 27.7318V25.238C37.3282 24.6257 37.8292 24.1248 38.4415 24.1248C39.0538 24.1248 39.5548 24.6257 39.5548 25.238V27.7318C39.5548 30.2589 41.6144 32.3185 44.1415 32.3185C46.6687 32.3185 48.7282 30.2589 48.7282 27.7318V25.238C48.7282 24.6257 49.2292 24.1248 49.8415 24.1248C50.4538 24.1248 50.9548 24.6257 50.9548 25.238V27.7318C50.9548 31.4947 47.9044 34.5451 44.1415 34.5451Z" fill="#0278BE"/>
<path d="M19.9834 44.8541C14.8734 44.8541 10.7209 40.7016 10.7209 35.5916V31.6617C10.7209 26.5518 14.8734 22.3992 19.9834 22.3992C25.0934 22.3992 29.2459 26.5518 29.2459 31.6617V35.5916C29.2459 38.0631 28.2773 40.3898 26.5295 42.1488C24.7816 43.8856 22.4549 44.8541 19.9834 44.8541ZM19.9834 24.6147C16.098 24.6147 12.9475 27.7764 12.9475 31.6506V35.5805C12.9475 39.4658 16.1092 42.6164 19.9834 42.6164C21.8648 42.6164 23.635 41.8816 24.9598 40.5568C26.2846 39.232 27.0193 37.4619 27.0193 35.5805V31.6506C27.0193 27.7652 23.8576 24.6147 19.9834 24.6147ZM32.8752 20.6291C30.3258 20.6291 27.8877 19.0594 26.9191 16.933H14.4727C12.2127 16.933 10.0863 16.0535 8.4832 14.4504C6.89121 12.8473 6.01172 10.7209 6.01172 8.46094C6.01172 3.79629 9.80801 0 14.4727 0H32.018C36.6826 0 40.4789 3.79629 40.4789 8.46094C40.4789 12.7359 37.2949 16.2762 33.1758 16.8439C33.276 17.5342 33.4986 18.2578 33.866 19.026C34.033 19.3711 34.0107 19.7719 33.7992 20.0947C33.61 20.4287 33.2537 20.6291 32.8752 20.6291ZM14.4727 2.22656C11.0326 2.22656 8.23828 5.0209 8.23828 8.46094C8.23828 10.1309 8.88398 11.6895 10.0641 12.8695C11.2441 14.0496 12.8139 14.6953 14.4727 14.6953H27.6984C28.2105 14.6953 28.6559 15.0404 28.7783 15.5414C29.0344 16.5879 29.9918 17.5342 31.1496 18.024C30.9603 17.2559 30.8824 16.51 30.9047 15.7641C30.927 15.1629 31.4168 14.6953 32.018 14.6953C35.458 14.6953 38.2635 11.901 38.2635 8.46094C38.2635 5.0209 35.4691 2.22656 32.0291 2.22656H14.4727ZM24.7705 12.0234H14.4838C13.8715 12.0234 13.3705 11.5225 13.3705 10.9102C13.3705 10.2979 13.8715 9.79688 14.4838 9.79688H24.7705C25.3828 9.79688 25.8838 10.2979 25.8838 10.9102C25.8838 11.5225 25.3939 12.0234 24.7705 12.0234ZM32.018 7.125H14.4838C13.8715 7.125 13.3705 6.62402 13.3705 6.01172C13.3705 5.39941 13.8715 4.89844 14.4838 4.89844H32.018C32.6303 4.89844 33.1312 5.39941 33.1312 6.01172C33.1312 6.62402 32.6303 7.125 32.018 7.125Z" fill="#0278BE"/>
</g>
<defs>
<clipPath id="clip0_1692_2358">
<rect width="57" height="57" fill="white"/>
</clipPath>
</defs>
</svg>
