<svg width="260" height="257" viewBox="0 0 260 257" fill="none" xmlns="http://www.w3.org/2000/svg">
<path d="M158.018 118.827C158.018 118.827 74.5126 116.097 73.7264 119.108L49.155 213.083H183.919L208.49 119.108C209.276 116.111 158.018 118.827 158.018 118.827Z" fill="white"/>
<path d="M211.163 108.936H76.3852L73.7265 119.123H208.49L211.163 108.936Z" fill="#BAD7E8"/>
<path d="M83.2846 115.644C84.3932 114.685 84.679 113.221 83.923 112.375C83.1671 111.529 81.6556 111.621 80.5471 112.58C79.4386 113.54 79.1528 115.004 79.9087 115.85C80.6647 116.696 82.1761 116.604 83.2846 115.644Z" fill="white"/>
<path d="M90.901 115.636C92.0096 114.676 92.2954 113.212 91.5394 112.366C90.7835 111.52 89.272 111.612 88.1635 112.572C87.055 113.532 86.7692 114.995 87.5251 115.842C88.2811 116.688 89.7925 116.596 90.901 115.636Z" fill="white"/>
<path d="M98.5063 115.64C99.6148 114.68 99.9006 113.216 99.1447 112.37C98.3887 111.524 96.8773 111.616 95.7688 112.576C94.6603 113.536 94.3745 114.999 95.1304 115.845C95.8864 116.692 97.3978 116.599 98.5063 115.64Z" fill="white"/>
<path d="M154.287 149.472H73.269L74.1839 145.955H155.202L154.287 149.472Z" fill="#BAD7E8"/>
<path d="M188.793 149.472H159.676L160.591 145.955H189.708L188.793 149.472Z" fill="#BAD7E8"/>
<path d="M131.188 160.785H107.832L108.747 157.281H132.103L131.188 160.785Z" fill="#BAD7E8"/>
<path d="M182.961 160.785H136.591L137.506 157.281H183.876L182.961 160.785Z" fill="#BAD7E8"/>
<path d="M122.312 194.764H98.9411L99.8559 191.261H123.227L122.312 194.764Z" fill="#BAD7E8"/>
<path d="M174.07 194.764H127.701L128.615 191.261H174.985L174.07 194.764Z" fill="#BAD7E8"/>
<path d="M168.496 172.111H119.239L120.168 168.608H169.41L168.496 172.111Z" fill="#BAD7E8"/>
<path d="M142.524 183.438H116.28L117.195 179.934H143.438L142.524 183.438Z" fill="#BAD7E8"/>
<path d="M88.0633 140.101C87.9632 140.101 87.8775 140.059 87.806 139.975L83.332 134.051L90.8363 128.17C90.9793 128.057 91.1651 128.085 91.2794 128.226C91.3938 128.367 91.3652 128.55 91.2223 128.662L84.1896 134.164L88.3063 139.609C88.4063 139.75 88.3778 139.947 88.2348 140.045C88.1919 140.073 88.1348 140.101 88.0633 140.101Z" fill="#143048"/>
<path d="M97.526 140.102C97.4259 140.102 97.3401 140.059 97.283 139.989C97.1686 139.848 97.1972 139.665 97.3401 139.553L104.373 134.051L100.256 128.606C100.156 128.466 100.185 128.269 100.328 128.17C100.471 128.072 100.671 128.1 100.771 128.24L105.245 134.164L97.7404 140.045C97.6689 140.074 97.5974 140.102 97.526 140.102Z" fill="#143048"/>
<path d="M90.4218 139.75C90.3646 139.75 90.2932 139.736 90.236 139.694C90.0931 139.595 90.0645 139.398 90.1645 139.257L97.9547 128.536C98.0548 128.395 98.2549 128.367 98.3979 128.466C98.5408 128.564 98.5694 128.761 98.4693 128.902L90.6791 139.623C90.6076 139.708 90.5219 139.75 90.4218 139.75Z" fill="#143048"/>
<path d="M258.991 84.074H142.266V167.285H258.991V84.074Z" fill="white"/>
<path d="M258.991 167.595H142.266C142.095 167.595 141.952 167.454 141.952 167.285V84.0737C141.952 83.9049 142.095 83.7642 142.266 83.7642H258.991C259.163 83.7642 259.306 83.9049 259.306 84.0737V167.285C259.306 167.454 259.177 167.595 258.991 167.595ZM142.581 166.975H258.677V84.3833H142.581V166.975Z" fill="#0278BE"/>
<path d="M258.705 84.074H142.552C142.395 84.074 142.266 84.2006 142.266 84.3694V91.4608H258.991V84.3694C258.991 84.2147 258.862 84.074 258.705 84.074Z" fill="#0278BE"/>
<path d="M148.827 87.8306C148.827 88.7592 148.084 89.505 147.155 89.505C146.226 89.505 145.482 88.7592 145.482 87.8306C145.482 86.902 146.226 86.1562 147.155 86.1562C148.084 86.1562 148.827 86.902 148.827 87.8306Z" fill="white"/>
<path d="M152.572 89.505C153.496 89.505 154.245 88.7553 154.245 87.8306C154.245 86.9059 153.496 86.1562 152.572 86.1562C151.649 86.1562 150.9 86.9059 150.9 87.8306C150.9 88.7553 151.649 89.505 152.572 89.505Z" fill="white"/>
<path d="M159.648 87.8306C159.648 88.7592 158.904 89.5049 157.975 89.5049C157.046 89.5049 156.303 88.7592 156.303 87.8306C156.303 86.9019 157.046 86.1562 157.975 86.1562C158.904 86.1421 159.648 86.9019 159.648 87.8306Z" fill="white"/>
<path d="M197.79 113.977H250.306V111.698H197.79V113.977Z" fill="#0278BE"/>
<path d="M156.129 113.977H191.278V111.698H156.129V113.977Z" fill="#0278BE"/>
<path d="M222.081 121.35H250.297V119.07H222.081V121.35Z" fill="#0278BE"/>
<path d="M159.593 121.35H215.583V119.07H159.593V121.35Z" fill="#0278BE"/>
<path d="M222.081 143.467H250.297V141.188H222.081V143.467Z" fill="#0278BE"/>
<path d="M159.593 143.467H215.583V141.188H159.593V143.467Z" fill="#0278BE"/>
<path d="M173.476 128.722H232.939V126.443H173.476V128.722Z" fill="#0278BE"/>
<path d="M201.268 136.095H232.943V133.816H201.268V136.095Z" fill="#0278BE"/>
<path d="M237.121 106.614C237.036 106.614 236.964 106.586 236.893 106.516L231.933 101.549C231.818 101.423 231.818 101.24 231.933 101.113L236.893 96.1462C237.021 96.0196 237.221 96.0196 237.336 96.1462C237.464 96.2729 237.464 96.4558 237.336 96.5824L232.604 101.338L237.336 106.094C237.464 106.221 237.45 106.418 237.336 106.53C237.279 106.586 237.193 106.614 237.121 106.614Z" fill="#02457C"/>
<path d="M245.226 106.614C245.14 106.614 245.069 106.586 245.012 106.53C244.883 106.403 244.883 106.22 245.012 106.094L249.743 101.338L245.012 96.5823C244.883 96.4557 244.897 96.2587 245.012 96.1462C245.14 96.0195 245.34 96.0336 245.455 96.1462L250.415 101.113C250.529 101.24 250.529 101.423 250.415 101.549L245.455 106.516C245.397 106.572 245.312 106.614 245.226 106.614Z" fill="#02457C"/>
<path d="M239.051 106.305C239.008 106.305 238.965 106.291 238.922 106.277C238.765 106.206 238.694 106.024 238.765 105.869L243.039 96.498C243.11 96.3432 243.296 96.2729 243.453 96.3433C243.611 96.4136 243.682 96.5965 243.611 96.7513L239.337 106.122C239.294 106.235 239.18 106.305 239.051 106.305Z" fill="#02457C"/>
<path d="M155.288 106.699L152.972 117.983L167.881 121.318L171.626 106.853L155.288 106.699Z" fill="#E2A18D"/>
<path d="M137.249 129.141H169.739V115.45H150.385C143.124 115.45 137.249 121.247 137.249 128.381V129.141Z" fill="#BAD7E8"/>
<path d="M152.343 118.49C152.272 118.49 152.186 118.462 152.129 118.405L149.256 115.76C149.127 115.648 149.127 115.451 149.242 115.324C149.356 115.197 149.556 115.197 149.685 115.31L152.558 117.955C152.686 118.068 152.686 118.265 152.572 118.391C152.515 118.448 152.429 118.49 152.343 118.49Z" fill="#143048"/>
<path d="M149.084 119.39C149.013 119.39 148.927 119.362 148.87 119.306L145.997 116.661C145.868 116.548 145.868 116.351 145.982 116.224C146.097 116.098 146.297 116.098 146.426 116.21L149.299 118.856C149.427 118.968 149.427 119.165 149.313 119.292C149.256 119.348 149.17 119.39 149.084 119.39Z" fill="#143048"/>
<path d="M188.893 97.0747L200.915 102.829L204.517 87.1833L189.794 83.511L188.893 97.0747Z" fill="#E2A18D"/>
<path d="M212.478 115.282L212.364 85.6638H198.427L198.542 102.773C198.542 109.682 204.245 115.282 211.278 115.282H212.478Z" fill="#BAD7E8"/>
<path d="M198.628 104.321C198.542 104.321 198.47 104.293 198.399 104.237C198.27 104.11 198.27 103.913 198.399 103.8L201.086 101.155C201.215 101.029 201.415 101.029 201.529 101.155C201.658 101.282 201.658 101.479 201.529 101.591L198.842 104.237C198.799 104.293 198.713 104.321 198.628 104.321Z" fill="#143048"/>
<path d="M199.557 107.332C199.471 107.332 199.399 107.304 199.328 107.248C199.199 107.121 199.199 106.924 199.328 106.812L202.015 104.167C202.144 104.04 202.344 104.04 202.458 104.167C202.587 104.293 202.587 104.49 202.458 104.603L199.771 107.248C199.714 107.304 199.628 107.332 199.557 107.332Z" fill="#143048"/>
<path d="M164.536 56.8759C159.676 53.7523 153.601 52.9925 149.528 54.1885C142.709 56.1865 137.721 64.502 148.57 73.0004L192.31 102.168L200.629 78.8817L164.536 56.8759Z" fill="#143048"/>
<path d="M228.96 71.6074C228.96 71.6074 228.488 83.4264 214.766 83.4264C202.015 83.4264 161.449 83.4264 161.449 83.4264L163.908 56.5522L199.571 61.3783L228.96 71.6074Z" fill="#143048"/>
<path d="M180.66 78.544L175.557 111.285H145.511L163.907 56.5522L180.66 78.544Z" fill="#143048"/>
<path d="M156.332 79.402C156.303 79.402 156.26 79.402 156.232 79.3879C156.06 79.3317 155.974 79.1628 156.032 78.994L161.292 63.3479C161.349 63.1791 161.52 63.0946 161.692 63.1509C161.864 63.2072 161.949 63.376 161.892 63.5449L156.632 79.191C156.589 79.3176 156.46 79.402 156.332 79.402Z" fill="#BAD7E8"/>
<path d="M178.187 94.7247C178.173 94.7247 178.159 94.7247 178.13 94.7247C177.958 94.6965 177.844 94.5418 177.873 94.3729L179.674 83.567C179.702 83.4122 179.831 83.3137 179.988 83.3137H201.758C201.929 83.3137 202.072 83.4544 202.072 83.6233C202.072 83.7921 201.929 83.9328 201.758 83.9328H180.26L178.502 94.4855C178.473 94.6121 178.33 94.7247 178.187 94.7247Z" fill="#BAD7E8"/>
<path d="M201.215 53.2738L214.236 51.9793L214.522 48.2648L201.815 45.4226L201.215 53.2738Z" fill="#BC8271"/>
<path d="M204.731 63.967C209.534 64.9519 213.493 61.561 213.893 56.4535L214.236 51.9791L181.46 44.128C173.141 42.4114 167.152 45.8305 165.794 53.2877L177.758 56.8474L204.731 63.967Z" fill="#E2A18D"/>
<path d="M175.857 58.6487C176.7 58.8176 177.529 58.2829 177.715 57.4528L178.03 55.9473C178.201 55.1171 177.658 54.3011 176.815 54.1322C175.971 53.9634 175.142 54.498 174.957 55.3282L174.642 56.8337C174.456 57.6638 174.999 58.4799 175.857 58.6487Z" fill="#E2A18D"/>
<path d="M172.784 58.0296C173.627 58.1984 174.456 57.6638 174.642 56.8336L174.957 55.3281C175.128 54.498 174.585 53.6819 173.742 53.5131C172.898 53.3442 172.069 53.8789 171.883 54.709L171.569 56.2146C171.397 57.0306 171.941 57.8467 172.784 58.0296Z" fill="#BC8271"/>
<path d="M169.725 57.3963C170.568 57.5651 171.397 57.0305 171.583 56.2003L171.898 54.6948C172.069 53.8647 171.526 53.0486 170.683 52.8798C169.839 52.7109 169.01 53.2456 168.824 54.0757L168.51 55.5813C168.324 56.4114 168.867 57.2134 169.725 57.3963Z" fill="#BC8271"/>
<path d="M166.652 56.763C167.495 56.9318 168.324 56.3972 168.51 55.567L168.824 54.0615C168.996 53.2314 168.453 52.4153 167.609 52.2465C166.766 52.0776 165.937 52.6123 165.751 53.4424L165.437 54.948C165.265 55.7781 165.808 56.5942 166.652 56.763Z" fill="#BC8271"/>
<path d="M174.514 57.5796C174.485 57.5796 174.471 57.5796 174.442 57.5655C174.271 57.5233 174.171 57.3545 174.213 57.1997L174.699 55.1314C174.742 54.9625 174.914 54.864 175.071 54.9062C175.243 54.9484 175.343 55.1173 175.3 55.2721L174.814 57.3404C174.785 57.4952 174.657 57.5796 174.514 57.5796Z" fill="#143048"/>
<path d="M171.569 56.7775C171.54 56.7775 171.526 56.7775 171.497 56.7635C171.326 56.7212 171.226 56.5524 171.269 56.3836L171.883 53.865C171.926 53.6962 172.098 53.5977 172.269 53.6399C172.441 53.6821 172.541 53.8509 172.498 54.0198L171.883 56.5383C171.84 56.679 171.698 56.7775 171.569 56.7775Z" fill="#143048"/>
<path d="M168.424 56.0879C168.396 56.0879 168.381 56.0879 168.353 56.0738C168.181 56.0316 168.081 55.8628 168.124 55.6939L168.753 53.105C168.796 52.9361 168.967 52.8377 169.139 52.8799C169.31 52.9221 169.411 53.0909 169.368 53.2598L168.739 55.8487C168.696 55.9894 168.567 56.0879 168.424 56.0879Z" fill="#143048"/>
<path d="M210.306 51.3461C210.277 51.3461 210.263 51.3462 210.234 51.3321L201.5 49.2356C201.329 49.1934 201.229 49.0246 201.272 48.8557C201.315 48.6869 201.486 48.5884 201.658 48.6306L210.391 50.7271C210.563 50.7693 210.663 50.9381 210.62 51.107C210.577 51.2477 210.448 51.3461 210.306 51.3461Z" fill="#143048"/>
<path d="M232.476 76.4334L240.995 51.4728C240.995 51.4728 243.797 42.89 243.654 39.9212C243.396 34.3353 241.695 29.875 234.677 26.3434C229.188 23.5857 220.354 22.9947 212.964 25.7525C204.745 28.8057 204.345 43.0026 199.557 63.8546L232.476 76.4334Z" fill="#0278BE"/>
<path d="M212.964 25.7522C212.964 25.7522 204.474 28.0034 202.13 36.2767C200.028 43.6917 200.1 45.5631 200.1 45.5631L207.704 46.562L212.964 25.7522Z" fill="#0278BE"/>
<path d="M203.187 46.1823C203.173 46.1823 203.144 46.1823 203.13 46.1823C202.959 46.1541 202.844 45.9853 202.887 45.8164C203.445 43.0446 203.959 40.92 204.431 39.0205C204.474 38.8517 204.645 38.7532 204.817 38.7954C204.988 38.8376 205.088 39.0064 205.045 39.1753C204.574 41.0607 204.059 43.1853 203.516 45.9431C203.473 46.0838 203.344 46.1823 203.187 46.1823Z" fill="#143048"/>
<path d="M164.922 55.8628H197.541V57.115L163.85 58.114L164.922 55.8628Z" fill="white"/>
<path d="M146.269 59.4929H175.214C176.229 59.4929 176.901 58.4517 176.472 57.5513L163.65 30.6208H129.816L142.423 57.0869C143.11 58.5643 144.61 59.4929 146.269 59.4929Z" fill="#02457C"/>
<path d="M197.541 56.5942C197.541 58.1982 196.212 59.5068 194.582 59.5068H166.28L164.894 56.5942H197.541Z" fill="#02457C"/>
<path d="M153.187 46.2812C153.973 45.9756 154.261 44.8608 153.832 43.7913C153.403 42.7217 152.418 42.1023 151.632 42.4079C150.847 42.7135 150.558 43.8282 150.987 44.8978C151.417 45.9674 152.402 46.5867 153.187 46.2812Z" fill="white"/>
<path d="M225.686 57.4244L241.224 54.6948V50.2064L225.686 47.927V57.4244Z" fill="#E2A18D"/>
<path d="M226.758 31.8871C227.744 30.2971 230.346 28.3414 232.233 28.2147C234.891 28.0177 238.636 28.7213 241.281 31.9996C245.312 36.9523 245.154 52.2467 245.154 52.2467L222.899 48.6025C222.899 48.6025 223.256 37.5011 226.758 31.8871Z" fill="#0278BE"/>
<path d="M225.643 49.3338C225.629 49.3338 225.615 49.3338 225.6 49.3338L222.57 48.8554L222.584 48.5881C222.584 48.5178 222.827 41.6093 224.614 35.9812C224.671 35.8124 224.843 35.7279 225.014 35.7842C225.186 35.8405 225.272 36.0093 225.214 36.1782C223.642 41.1027 223.285 47.0263 223.213 48.3489L225.686 48.7429C225.858 48.771 225.972 48.9258 225.943 49.0946C225.943 49.2353 225.801 49.3338 225.643 49.3338Z" fill="#143048"/>
<path d="M230.918 69.9611C236.778 70.7209 241.224 66.2747 241.224 60.0979V54.6949L201.1 48.2086C190.937 46.9 184.062 51.5432 183.119 60.6185L197.827 63.8265L230.918 69.9611Z" fill="#E2A18D"/>
<path d="M184.248 56.3269C184.205 56.3269 184.162 56.3128 184.133 56.2987C183.976 56.2284 183.89 56.0596 183.962 55.8907C186.249 50.3752 191.438 47.4486 198.556 47.6737C198.728 47.6737 198.871 47.8285 198.856 47.9973C198.856 48.1662 198.699 48.3069 198.527 48.2928C191.681 48.0817 186.706 50.8676 184.534 56.1158C184.491 56.2565 184.362 56.3269 184.248 56.3269Z" fill="#143048"/>
<path d="M195.711 66.1762C196.741 66.3028 197.698 65.5993 197.827 64.5721L198.07 62.7289C198.199 61.7159 197.484 60.7732 196.44 60.6466C195.411 60.5199 194.454 61.2234 194.325 62.2506L194.082 64.0938C193.953 65.1068 194.668 66.0354 195.711 66.1762Z" fill="#E2A18D"/>
<path d="M191.967 65.6837C192.996 65.8104 193.953 65.1068 194.082 64.0797L194.325 62.2365C194.454 61.2235 193.739 60.2808 192.696 60.1541C191.666 60.0275 190.709 60.731 190.58 61.7581L190.337 63.6013C190.208 64.6285 190.923 65.5571 191.967 65.6837Z" fill="#E2A18D"/>
<path d="M188.221 65.2052C189.251 65.3318 190.208 64.6283 190.337 63.6012L190.58 61.758C190.709 60.7449 189.994 59.8022 188.95 59.6756C187.921 59.549 186.964 60.2525 186.835 61.2796L186.592 63.1228C186.463 64.1359 187.192 65.0786 188.221 65.2052Z" fill="#E2A18D"/>
<path d="M184.477 64.7269C185.506 64.8536 186.463 64.1501 186.592 63.1229L186.835 61.2797C186.964 60.2667 186.249 59.324 185.206 59.1973C184.176 59.0707 183.219 59.7742 183.09 60.8013L182.847 62.6445C182.718 63.6576 183.447 64.5862 184.477 64.7269Z" fill="#E2A18D"/>
<path d="M193.982 64.9377C193.968 64.9377 193.953 64.9377 193.939 64.9377C193.768 64.9095 193.653 64.7548 193.682 64.5859L194.196 61.3357C194.225 61.1669 194.382 61.0543 194.554 61.0824C194.725 61.1106 194.84 61.2653 194.811 61.4342L194.296 64.6844C194.268 64.8251 194.125 64.9377 193.982 64.9377Z" fill="#143048"/>
<path d="M190.351 64.2342C190.337 64.2342 190.323 64.2342 190.294 64.2342C190.123 64.206 190.008 64.0513 190.037 63.8824L190.537 60.801C190.566 60.6322 190.723 60.5196 190.894 60.5478C191.066 60.5759 191.18 60.7307 191.152 60.8995L190.651 63.9809C190.637 64.1216 190.494 64.2342 190.351 64.2342Z" fill="#143048"/>
<path d="M186.521 63.6854C186.506 63.6854 186.492 63.6854 186.463 63.6854C186.292 63.6573 186.177 63.5025 186.206 63.3337L186.721 60.1538C186.749 59.985 186.906 59.8724 187.078 59.9005C187.249 59.9287 187.364 60.0835 187.335 60.2523L186.821 63.4322C186.806 63.5729 186.678 63.6854 186.521 63.6854Z" fill="#143048"/>
<path d="M236.421 54.2306C236.407 54.2306 236.392 54.2306 236.364 54.2306L225.672 52.5C225.5 52.4718 225.386 52.317 225.415 52.1482C225.443 51.9794 225.6 51.8668 225.772 51.8949L236.464 53.6256C236.635 53.6537 236.75 53.8085 236.721 53.9773C236.707 54.118 236.564 54.2306 236.421 54.2306Z" fill="#143048"/>
<path d="M222.656 30.7617L222.899 30.7477C225.443 30.5366 227.33 28.3276 227.115 25.8231L225.786 10.6695C225.6 8.60114 223.756 7.06748 221.655 7.2504L219.811 7.40517C217.71 7.58808 216.152 9.40314 216.338 11.4715L217.667 26.6251C217.867 29.1296 220.111 30.9869 222.656 30.7617Z" fill="#E2A18D"/>
<path d="M219.954 4.70358C219.625 4.66137 216.424 4.2674 214.394 6.34979C212.893 7.89752 212.621 9.95177 212.721 13.4553C212.836 17.5919 213.479 20.0401 214.651 20.8984C216.509 22.2632 222.341 19.618 224.643 16.1145C226.301 13.5819 226.272 10.2332 224.743 7.60205C223.227 4.97092 220.169 4.73172 219.954 4.70358Z" fill="#E2A18D"/>
<path d="M212.936 9.33278C215.509 8.4745 216.323 8.6152 216.538 8.95288C216.724 9.23429 216.424 9.55791 216.652 9.83931C217.038 10.3036 218.11 9.68454 219.683 10.1207C219.868 10.177 220.011 10.2192 220.111 10.2614C220.026 11.6825 219.954 13.1036 219.868 14.5247C221.884 14.5388 223.914 14.5669 225.929 14.581C226.229 14.2855 226.701 13.8775 227.358 13.5116C228.859 12.6815 229.631 12.8925 230.274 12.3297C231.504 11.2463 230.718 8.57299 230.475 7.77099C229.646 4.97101 227.63 3.33887 226.858 2.73385C225.014 1.28462 223.199 0.778087 222.241 0.524823C221.198 0.243418 218.053 -0.572654 214.708 0.665525C213.122 1.2424 212.321 1.97405 212.15 2.12883C210.835 3.33887 209.805 5.36498 210.449 6.2514C210.735 6.64537 211.12 6.50467 211.735 6.95491C212.55 7.54586 212.836 8.54485 212.936 9.33278Z" fill="#143048"/>
<path d="M217.167 21.5739C217.024 21.5739 216.895 21.4754 216.852 21.3207C216.824 21.1518 216.924 20.983 217.095 20.9548C219.425 20.4764 222.784 18.5207 224.4 16.0725C224.5 15.9318 224.685 15.8896 224.828 15.974C224.971 16.0725 225.014 16.2554 224.928 16.3961C223.17 19.0835 219.64 21.0674 217.224 21.5599C217.21 21.5739 217.181 21.5739 217.167 21.5739Z" fill="#143048"/>
<path d="M219.397 11.9493C219.397 11.9493 218.968 13.1453 217.939 14.0458C217.724 14.2287 216.581 12.1744 216.867 12.09C218.168 11.7101 219.397 11.9493 219.397 11.9493Z" fill="white"/>
<path d="M213.837 15.045C213.837 15.045 215.695 15.4108 217.224 14.5525C217.496 14.3978 217.739 14.2289 217.953 14.0319C217.968 13.2159 217.539 12.4983 216.881 12.0762C216.595 12.1606 216.295 12.2732 216.009 12.442C214.48 13.3003 213.837 15.045 213.837 15.045Z" fill="#143048"/>
<path d="M215.38 17.9298C215.166 17.9298 214.951 17.8735 214.751 17.7609C214.608 17.6765 214.551 17.4795 214.637 17.3388C214.723 17.1981 214.923 17.1418 215.066 17.2262C215.28 17.3529 215.552 17.3388 215.723 17.184C215.923 17.0011 215.866 16.6775 215.866 16.6775C215.838 16.5087 215.938 16.3398 216.109 16.3117C216.281 16.2695 216.438 16.382 216.481 16.5368C216.481 16.5649 216.624 17.1981 216.152 17.6343C215.952 17.8313 215.666 17.9298 215.38 17.9298Z" fill="#143048"/>
<path d="M213.064 14.7639C213.064 14.9609 213.05 15.2564 212.893 15.5659C212.707 15.9317 212.464 16.0302 212.464 16.2694C212.464 16.4242 212.564 16.6493 213.079 16.9448L213.064 14.7639Z" fill="#BC8271"/>
<path d="M213.064 17.2403C213.007 17.2403 212.964 17.2263 212.907 17.1981C212.378 16.9026 212.135 16.5931 212.135 16.2554C212.135 16.0162 212.264 15.8615 212.378 15.7207C212.45 15.6363 212.521 15.5519 212.593 15.4253C212.693 15.2283 212.736 15.0172 212.736 14.778C212.736 14.6092 212.864 14.4685 213.05 14.4685C213.222 14.4544 213.365 14.5951 213.365 14.778C213.365 15.1157 213.307 15.4393 213.15 15.7207C213.05 15.9177 212.936 16.0444 212.864 16.1429C212.821 16.1991 212.764 16.2695 212.764 16.2836C212.764 16.3258 212.85 16.4805 213.207 16.6775C213.365 16.7619 213.408 16.9449 213.322 17.0996C213.293 17.1841 213.179 17.2403 213.064 17.2403Z" fill="#143048"/>
<path d="M221.083 12.3157C221.298 11.2886 222.699 10.8524 223.571 11.2886C224.657 11.8514 225 13.3429 224.314 14.6092C223.756 15.6363 222.713 16.2132 221.755 16.0866L220.883 15.7207C220.869 15.7207 220.855 13.3569 221.083 12.3157Z" fill="#E2A18D"/>
<path d="M222.013 16.4241C221.912 16.4241 221.812 16.4241 221.712 16.41C221.541 16.3818 221.412 16.2271 221.441 16.0582C221.469 15.8894 221.612 15.7628 221.798 15.7909C222.656 15.9035 223.556 15.3688 224.042 14.4683C224.371 13.8633 224.443 13.1738 224.257 12.5829C224.114 12.1326 223.814 11.7668 223.428 11.5558C222.713 11.1899 221.784 11.3869 221.112 12.0623C220.983 12.1889 220.783 12.1889 220.669 12.0623C220.54 11.9357 220.54 11.7387 220.669 11.6261C221.541 10.7538 222.77 10.5005 223.728 11.007C224.271 11.2884 224.671 11.7809 224.871 12.4C225.1 13.1457 225.014 14.004 224.614 14.7638C224.028 15.7768 223.027 16.4241 222.013 16.4241Z" fill="#143048"/>
<path d="M223.185 14.6514C223.113 14.6514 223.056 14.6373 222.999 14.581C222.856 14.4825 222.842 14.2855 222.942 14.1448C222.985 14.0886 223.027 14.0323 223.056 13.9619C223.199 13.6946 223.242 13.3851 223.156 13.1177C223.113 12.977 223.013 12.7941 222.813 12.6815C222.727 12.6393 222.613 12.6112 222.513 12.6112C222.341 12.6112 222.198 12.4705 222.198 12.2876C222.198 12.1187 222.341 11.978 222.513 11.978C222.713 11.978 222.913 12.0343 223.099 12.1187C223.413 12.2735 223.642 12.569 223.756 12.9067C223.885 13.3288 223.842 13.8072 223.613 14.2152C223.556 14.3137 223.499 14.3981 223.442 14.4825C223.37 14.6092 223.285 14.6514 223.185 14.6514Z" fill="#143048"/>
<path d="M108.475 210.256L98.1832 233.106L138.964 254.507C138.964 254.507 142.952 217.84 108.475 210.256Z" fill="white"/>
<path d="M104.015 172.97L105.044 211.832C105.173 211.818 128.658 224.608 128.501 223.51C128.386 222.779 129.859 191.092 130.859 169.692C131.002 166.779 130.588 163.937 129.744 161.292L113.535 163.993L104.015 172.97Z" fill="#0278BE"/>
<path d="M115.751 228.21L130.888 241.801L142.538 235.034L130.102 218.079L115.751 228.21Z" fill="#DDB7A9"/>
<path d="M117.023 255.562H175.728C175.728 255.562 162.335 236.989 138.95 228.435L123.112 236.244C123.112 236.258 119.095 246.107 117.023 255.562Z" fill="#BAD7E8"/>
<path d="M139.107 239.213C139.036 239.213 138.964 239.185 138.907 239.142C138.778 239.03 138.75 238.833 138.864 238.706L144.91 231.587C145.025 231.46 145.225 231.432 145.354 231.544C145.482 231.657 145.511 231.854 145.396 231.981L139.35 239.1C139.279 239.17 139.193 239.213 139.107 239.213Z" fill="#143048"/>
<path d="M144.096 241.464C144.024 241.464 143.953 241.436 143.896 241.393C143.767 241.281 143.738 241.084 143.853 240.957L149.899 233.838C150.013 233.711 150.213 233.683 150.342 233.795C150.471 233.908 150.499 234.105 150.385 234.232L144.339 241.351C144.281 241.421 144.181 241.464 144.096 241.464Z" fill="#143048"/>
<path d="M67.0366 179.062L117.037 232.67L134.561 219.078L106.702 174.377C106.702 174.377 97.6544 161.46 85.6045 167.454C73.5404 173.462 67.0366 179.062 67.0366 179.062Z" fill="#0278BE"/>
<mask id="mask0_1022_2031" style="mask-type:luminance" maskUnits="userSpaceOnUse" x="3" y="141" width="128" height="51">
<path d="M130.33 141.818H3.69995V191.12H130.33V141.818Z" fill="white"/>
</mask>
<g mask="url(#mask0_1022_2031)">
<path d="M110.59 144.759C75.3271 138.793 41.0072 150.317 7.38774 174.94C7.38774 174.94 5.01494 190.445 23.54 194.708C42.065 198.972 103.872 167.454 103.872 167.454L104.015 172.956L129.73 161.278C127.043 152.906 119.824 146.321 110.59 144.759Z" fill="#0278BE"/>
</g>
<path d="M74.2121 181.511C74.0978 181.511 73.9834 181.44 73.9263 181.328C73.8548 181.173 73.9263 180.99 74.0835 180.92L110.362 164.443C110.519 164.373 110.705 164.443 110.776 164.598C110.848 164.753 110.776 164.936 110.619 165.006L74.3408 181.482C74.3122 181.496 74.2693 181.511 74.2121 181.511Z" fill="#143048"/>
<path d="M128.086 209.004C127.986 209.004 127.872 208.948 127.815 208.849L105.402 172.773C105.316 172.632 105.359 172.435 105.502 172.351C105.645 172.267 105.845 172.309 105.931 172.449L128.344 208.525C128.429 208.666 128.386 208.863 128.243 208.948C128.201 208.99 128.143 209.004 128.086 209.004Z" fill="#143048"/>
<path d="M53.4002 78.2489C53.4002 78.2489 48.8976 78.8821 45.61 75.7726C42.3224 72.6631 33.8603 70.7776 26.9706 75.9696C13.2484 86.2971 13.8344 68.2028 1.65594 74.5907V79.0509C2.9567 78.5725 5.02933 78.5866 7.58796 81.2459C11.3759 85.1574 13.7916 84.5242 14.4777 84.2147C13.5628 84.679 9.70347 86.3815 6.71602 83.5253C4.80062 81.6961 2.98529 81.6539 1.65594 82.0479V100.269C1.65594 100.269 4.28604 107.234 12.6052 104.279C20.9243 101.324 23.0541 91.7001 31.6305 95.4005C40.2069 99.101 38.3772 99.8608 46.4105 96.0759C54.4294 92.291 53.4002 78.2489 53.4002 78.2489Z" fill="#143048"/>
<path d="M54.1577 102.267C50.8844 102.928 45.9387 95.1334 45.9387 95.1334L45.6099 85.0732C47.511 80.824 52.5425 78.8963 56.845 80.7677C61.1618 82.639 63.1201 87.5917 61.219 91.8269C61.219 91.8409 57.4882 101.592 54.1577 102.267Z" fill="#DDB7A9"/>
<path d="M36.9764 104.42L46.2103 116.211L46.9536 107.332L55.1155 89.0832L45.6528 84.9888L36.9764 104.42Z" fill="#DDB7A9"/>
<path d="M59.418 93.4729C59.418 93.4729 60.6044 96.6809 60.2185 97.2296C59.7611 97.8769 57.131 97.2578 57.131 97.2578C57.131 97.2578 59.4752 93.501 59.418 93.4729Z" fill="#DDB7A9"/>
<path d="M52.5283 90.0961C52.5283 90.0961 54.1435 89.9694 55.7159 90.6589C56.0446 90.7996 54.2436 93.1634 53.9863 92.882C52.8857 91.6016 52.5283 90.0961 52.5283 90.0961Z" fill="white"/>
<mask id="mask1_1022_2031" style="mask-type:luminance" maskUnits="userSpaceOnUse" x="52" y="90" width="8" height="5">
<path d="M52.5283 90.0963C52.5283 90.0963 54.9011 89.9134 56.7022 91.2078C58.5032 92.5023 59.0464 94.7957 59.0464 94.7957C59.0464 94.7957 56.6736 94.9786 54.8725 93.6842C53.0715 92.3757 52.5283 90.0963 52.5283 90.0963Z" fill="white"/>
</mask>
<g mask="url(#mask1_1022_2031)">
<path d="M55.816 90.6025C57.3169 90.0256 59.0036 90.7573 59.5896 92.2347C60.1757 93.712 59.4324 95.3723 57.9315 95.9492C56.4307 96.5261 54.744 95.7944 54.1579 94.3171C53.5718 92.8397 54.3151 91.1794 55.816 90.6025Z" fill="#143048"/>
</g>
<path d="M55.0869 98.1585C54.5866 98.1585 54.1007 97.9052 53.8148 97.4831C53.5003 97.0188 53.486 96.3997 53.7719 95.9073C53.8576 95.7525 54.0578 95.7103 54.2007 95.7947C54.3436 95.8791 54.4008 96.0761 54.3151 96.2168C54.1435 96.4982 54.1578 96.864 54.3294 97.1314C54.5152 97.4128 54.8582 97.5675 55.2013 97.5113C55.3728 97.4831 55.53 97.5957 55.5586 97.7645C55.5872 97.9334 55.4729 98.0881 55.3013 98.1163C55.2442 98.1444 55.1727 98.1585 55.0869 98.1585Z" fill="#143048"/>
<path d="M51.5706 101.971C51.5134 101.971 51.4562 101.957 51.399 101.915C48.5545 100.044 45.7386 95.6117 45.6243 95.4288C45.5385 95.2881 45.5814 95.0911 45.7243 95.0067C45.8673 94.9223 46.0674 94.9645 46.1531 95.1052C46.1817 95.1474 49.0262 99.6077 51.7564 101.409C51.8993 101.507 51.9422 101.69 51.8422 101.845C51.7707 101.929 51.6706 101.971 51.5706 101.971Z" fill="#143048"/>
<path d="M41.9364 88.6894C40.8358 86.2693 43.9805 81.4854 47.4968 79.6704C52.0423 77.3488 55.5014 76.7437 59.4323 78.9809C65.3643 82.3578 64.135 90.4622 64.135 90.4622C64.135 90.4622 57.9886 87.9296 55.9017 87.1276C52.9571 86.002 51.3848 95.4993 48.0114 90.0823C47.6397 89.4914 42.9799 101.127 37.8626 98.0601C30.8729 93.8531 43.1085 91.2642 41.9364 88.6894Z" fill="#143048"/>
<path d="M50.7854 92.1077C51.9241 90.9868 51.9241 89.1694 50.7854 88.0485C49.6466 86.9276 47.8004 86.9276 46.6616 88.0485C45.5229 89.1694 45.5229 90.9868 46.6616 92.1077C47.8004 93.2287 49.6466 93.2287 50.7854 92.1077Z" fill="#DDB7A9"/>
<path d="M15.1494 105.461C14.2203 105.461 13.2626 105.25 12.3478 104.828C10.7468 104.082 9.56042 102.774 9.08872 101.254C9.03155 101.085 9.1316 100.916 9.30313 100.86C9.47466 100.804 9.64619 100.902 9.70336 101.071C10.1322 102.422 11.1899 103.59 12.6336 104.265C14.0773 104.94 15.664 105.025 16.9933 104.504C18.8801 103.759 20.2095 102.07 21.4816 100.438C21.6246 100.255 21.7532 100.086 21.8961 99.9033C23.2684 98.1726 25.1838 96.1465 27.7138 95.9636C29.0574 95.8651 30.3296 96.3013 31.5732 96.7234C32.5738 97.0751 33.6172 97.4269 34.6607 97.4691C36.0472 97.5254 37.4623 96.9344 38.5344 95.837C39.6064 94.7395 40.1639 93.3325 40.0495 91.9677C40.0352 91.7988 40.1639 91.644 40.3354 91.63C40.5069 91.6159 40.6642 91.7425 40.6785 91.9114C40.8071 93.445 40.1782 95.035 38.9918 96.2591C37.7911 97.4832 36.2044 98.1445 34.6464 98.0882C33.5172 98.046 32.4308 97.6661 31.3731 97.3143C30.1438 96.8922 28.986 96.4983 27.771 96.5827C25.4696 96.7515 23.6972 98.651 22.3964 100.297C22.2535 100.466 22.1249 100.649 21.9819 100.818C20.6526 102.52 19.266 104.279 17.222 105.081C16.5645 105.334 15.8641 105.461 15.1494 105.461Z" fill="#143048"/>
<path d="M19.8236 78.0804C17.2221 78.0804 14.6063 76.5608 13.5056 74.2251C13.4341 74.0704 13.5056 73.8875 13.6628 73.8171C13.8201 73.7468 14.0059 73.8171 14.0774 73.9719C15.2924 76.5608 18.5657 78.0382 21.353 77.2643C22.4537 76.9548 23.4114 76.3779 24.4405 75.7588C24.8979 75.4774 25.3696 75.196 25.8556 74.9427C30.7442 72.3679 37.2194 72.8885 41.6076 76.209C41.7506 76.3075 41.7649 76.5045 41.6648 76.6452C41.5647 76.7859 41.3646 76.8 41.2217 76.7015C37.0192 73.5216 30.8157 73.0292 26.1558 75.4915C25.6841 75.7447 25.2267 76.0121 24.7693 76.2935C23.7544 76.8985 22.6967 77.5316 21.5245 77.8693C20.9671 78.01 20.3953 78.0804 19.8236 78.0804Z" fill="#143048"/>
<path d="M117.752 143.915H87.7917C85.7619 143.915 84.1038 142.297 84.1038 140.285H117.752V143.915Z" fill="#143048"/>
<path d="M117.981 143.802L127.057 115.69C127.672 113.777 126.6 111.751 124.67 111.146L114.479 142.705L117.981 143.802Z" fill="#143048"/>
<path d="M114.579 139.089C114.55 139.089 114.521 139.089 114.479 139.075C114.307 139.019 114.221 138.85 114.278 138.681L123.198 111.061C123.255 110.892 123.427 110.808 123.598 110.864C123.77 110.92 123.855 111.089 123.798 111.258L114.879 138.878C114.836 139.004 114.707 139.089 114.579 139.089Z" fill="white"/>
<path d="M3.09955 177.472L58.0457 153.412L49.7552 117.069L51.5133 109.021L29.8436 100.987L26.2272 108.528C26.2415 108.542 8.31686 124.906 3.09955 177.472Z" fill="#BAD7E8"/>
<path d="M100.185 133.095C98.1977 132.363 90.4503 128.002 86.9626 130.225C83.4462 132.462 82.074 136.796 82.1741 140.904C82.1884 140.918 82.2027 140.932 82.217 140.946C82.7315 141.973 83.6464 143.423 85.3045 144.379C87.177 145.477 88.2061 144.9 90.3645 145.758C94.0238 147.208 94.6813 150.401 95.9535 149.811C96.8254 149.402 96.511 147.531 95.782 145.899C95.0244 144.225 93.8237 143.437 94.0095 143.198C94.2096 142.93 95.3389 143.887 96.8397 144.928C97.5401 145.421 98.6265 147.911 99.8843 147.531C100.899 147.236 100.442 144.351 98.7551 142.438C97.5544 141.073 95.8106 140.806 95.9249 140.51C96.0107 140.285 97.0541 140.468 97.9118 140.89C99.3126 141.579 100.456 144.126 101.614 143.76C102.757 143.394 102.3 140.89 100.871 139.033C99.6556 137.457 97.6831 137.26 97.826 136.866C97.9261 136.599 98.8266 136.514 100.685 136.88C102.243 137.19 105.059 138.779 105.631 137.232C106.102 135.937 103.186 134.207 100.185 133.095Z" fill="#DDB7A9"/>
<path d="M49.1549 135.669C44.7523 137.245 41.8364 141.452 42.1365 146.025C42.3367 149.022 43.9233 152.075 48.7547 153.806C60.5043 158.013 85.9905 140.918 85.9905 140.918L88.9494 129.605C75.5416 129.352 61.2619 131.336 49.1549 135.669Z" fill="#DDB7A9"/>
<path d="M29.5292 115.338L41.4504 120.727L36.0758 138.807C36.0758 138.807 54.2721 132.419 68.2087 129.591L70.2385 154.481L22.4536 165.245C12.5479 167.792 3.1996 159.533 4.81483 149.627C6.34429 140.228 10.7325 126.496 21.4387 116.618C23.6114 114.621 26.8133 114.114 29.5292 115.338Z" fill="#BAD7E8"/>
<path d="M18.7802 166.033C14.5348 166.033 10.4754 164.204 7.64514 160.869C7.53079 160.742 7.54509 160.546 7.68803 160.433C7.83097 160.32 8.01679 160.334 8.13114 160.475C11.6332 164.598 17.0935 166.328 22.3823 164.964L33.4887 162.459C33.6602 162.417 33.8317 162.529 33.8603 162.698C33.9032 162.867 33.7889 163.036 33.6173 163.064L22.5252 165.569C21.2816 165.878 20.0237 166.033 18.7802 166.033Z" fill="#143048"/>
<path d="M36.0759 139.131C35.9901 139.131 35.9187 139.102 35.8615 139.046C35.7757 138.962 35.7471 138.849 35.7757 138.737L38.3058 130.21C38.3487 130.041 38.5345 129.957 38.6917 129.999C38.8632 130.041 38.949 130.224 38.9061 130.379L36.5476 138.315C38.4916 137.639 45.1097 135.402 52.7141 133.193C52.8857 133.151 53.0572 133.235 53.1001 133.404C53.1429 133.573 53.0572 133.742 52.8857 133.784C43.8661 136.401 36.2474 139.074 36.176 139.102C36.1474 139.117 36.1188 139.131 36.0759 139.131Z" fill="#143048"/>
<path d="M39.4778 127.664C39.4492 127.664 39.4063 127.664 39.3777 127.65C39.2062 127.593 39.1204 127.424 39.1776 127.256C41.579 120.066 32.6453 116.787 32.2593 116.647C32.1021 116.59 32.0163 116.407 32.0735 116.253C32.1307 116.098 32.3165 116.013 32.4737 116.07C32.5738 116.112 42.3795 119.7 39.778 127.453C39.7351 127.579 39.6207 127.664 39.4778 127.664Z" fill="#143048"/>
<path d="M-0.000236511 240.613H78.6882V185.682H-0.000236511V240.613Z" fill="#BAD7E8"/>
<path d="M76.2139 233.484L76.2139 188.122H2.45684L2.45684 233.484H76.2139Z" fill="white"/>
<path d="M31.0587 241.773H33.3887C33.3887 243.49 34.8038 244.883 36.5476 244.883H42.1223C43.8662 244.883 45.2813 243.49 45.2813 241.773H47.6112L49.9411 253.958V254.971H28.7288V253.958L31.0587 241.773Z" fill="#BAD7E8"/>
<path d="M49.9554 256.561H28.7288C28.5573 256.561 28.4144 256.42 28.4144 256.251C28.4144 256.083 28.5573 255.942 28.7288 255.942H49.9554C50.127 255.942 50.2699 256.083 50.2699 256.251C50.2699 256.434 50.127 256.561 49.9554 256.561Z" fill="white"/>
<path d="M53.0143 211.255H5.18658V230.165H53.0143V211.255Z" fill="#02457C"/>
<path d="M73.4975 211.255H55.7729V230.165H73.4975V211.255Z" fill="#02457C"/>
<path d="M73.5119 209.383H5.1866C5.01507 209.383 4.87213 209.243 4.87213 209.074V191.444C4.87213 191.275 5.01507 191.134 5.1866 191.134H73.5119C73.6834 191.134 73.8264 191.275 73.8264 191.444V209.074C73.8264 209.243 73.6834 209.383 73.5119 209.383ZM5.50107 208.764H73.1974V191.753H5.50107V208.764Z" fill="#0278BE"/>
<path d="M70.0241 195.285H54.7724C54.6009 195.285 54.4579 195.144 54.4579 194.975C54.4579 194.806 54.6009 194.666 54.7724 194.666H70.0241C70.1956 194.666 70.3386 194.806 70.3386 194.975C70.3386 195.158 70.1956 195.285 70.0241 195.285Z" fill="#0278BE"/>
<path d="M70.0242 197.677H52.1995C52.028 197.677 51.8851 197.536 51.8851 197.367C51.8851 197.198 52.028 197.058 52.1995 197.058H70.0242C70.1957 197.058 70.3386 197.198 70.3386 197.367C70.3386 197.55 70.1957 197.677 70.0242 197.677Z" fill="#0278BE"/>
<path d="M70.0242 200.069H52.1995C52.028 200.069 51.8851 199.928 51.8851 199.759C51.8851 199.59 52.028 199.449 52.1995 199.449H70.0242C70.1957 199.449 70.3386 199.59 70.3386 199.759C70.3386 199.928 70.1957 200.069 70.0242 200.069Z" fill="#0278BE"/>
<path d="M66.6554 221.033C66.835 219.944 66.0836 218.917 64.977 218.741C63.8705 218.564 62.8279 219.304 62.6483 220.393C62.4687 221.482 63.2202 222.508 64.3267 222.685C65.4332 222.862 66.4758 222.122 66.6554 221.033Z" fill="white"/>
<path d="M55.7875 60.5061C50.6417 53.4288 48.5976 44.7897 50.027 36.2069C51.4707 27.61 56.2163 20.0824 63.4062 15.0171C70.5961 9.93777 79.3726 7.92573 88.092 9.34682C96.8256 10.7679 104.473 15.4392 109.619 22.5165C114.779 29.5939 116.823 38.233 115.379 46.8158C113.936 55.4127 109.19 62.9403 102 68.0056C94.8101 73.0849 86.0336 75.097 77.3143 73.6759C68.5949 72.2688 60.9477 67.5835 55.7875 60.5061ZM60.3473 37.8812C58.3176 50.0238 66.6938 61.5192 79.0296 63.5312C91.3653 65.5292 103.043 57.2841 105.088 45.1415C107.117 32.9989 98.741 21.5035 86.4053 19.4915C74.0696 17.4935 62.3913 25.7386 60.3473 37.8812Z" fill="#F2E6DC"/>
<path d="M56.8596 59.7604C51.8996 52.9505 49.9413 44.6631 51.3136 36.4179C52.7001 28.1587 57.2598 20.9266 64.1639 16.0583C71.0679 11.19 79.487 9.24836 87.8776 10.6132C96.2682 11.978 103.615 16.4664 108.561 23.2623C113.507 30.0582 115.479 38.3456 114.093 46.6048C112.706 54.864 108.146 62.0961 101.242 66.9644C94.3528 71.8327 85.9193 73.7744 77.543 72.4096C69.1525 71.0448 61.8053 66.5564 56.8596 59.7604ZM59.0609 37.6702C56.9168 50.5022 65.7648 62.673 78.8152 64.7976C91.8513 66.9081 104.216 58.1987 106.374 45.3525C108.518 32.5205 99.6702 20.3498 86.6197 18.2252C73.5693 16.1006 61.2193 24.8241 59.0609 37.6702Z" fill="white"/>
<path d="M80.4448 18.014C70.4819 18.9567 61.9054 26.0059 59.4469 35.841L51.6852 34.5887C53.4005 27.1034 57.7888 20.5748 64.1782 16.0582C68.9953 12.6533 74.5556 10.6834 80.3161 10.2754L80.4448 18.014Z" fill="#02457C"/>
<path d="M58.8322 39.5273C57.7887 51.6699 66.408 62.7854 78.8152 64.7974C85.3333 65.8527 91.6798 64.2065 96.6684 60.6889L101.743 66.6125C101.586 66.725 101.414 66.8517 101.257 66.9642C94.3528 71.8325 85.9193 73.7742 77.543 72.4094C69.1525 71.0446 61.8053 66.5562 56.8596 59.7603C52.2712 53.4709 50.2558 45.9011 51.0705 38.261L58.8322 39.5273Z" fill="#BAD7E8"/>
<path d="M98.2694 23.5576C95.0532 20.8561 91.0795 18.9425 86.6198 18.225C85.8193 18.0983 85.0331 18.0139 84.2327 17.9576L84.104 10.219C85.3619 10.2753 86.6197 10.4019 87.8919 10.613C93.9097 11.5838 99.3986 14.1868 103.844 18.0842L98.2694 23.5576Z" fill="#0278BE"/>
<path d="M108.575 23.262C113.521 30.058 115.494 38.3453 114.107 46.6045C112.964 53.4145 109.647 59.5351 104.644 64.2064L99.5701 58.2828C103.058 54.906 105.516 50.4457 106.374 45.3523C107.56 38.2328 105.373 31.3102 100.957 26.2027L106.531 20.7153C107.246 21.5173 107.932 22.3756 108.575 23.262Z" fill="#4E8EB4"/>
<path d="M100.431 40.4826C100.447 30.8235 92.5048 22.9807 82.6922 22.9651C72.8795 22.9496 64.9119 30.7672 64.8961 40.4262C64.8803 50.0853 72.8222 57.9281 82.6349 57.9437C92.4476 57.9592 100.415 50.1416 100.431 40.4826Z" fill="white"/>
<path d="M81.3168 59.1695C76.0709 59.1695 70.9393 56.9605 67.3801 52.9364C64.164 49.2922 62.5916 44.6209 62.949 39.8089C63.3063 34.9969 65.5362 30.607 69.2383 27.4412C76.8856 20.9126 88.5066 21.7427 95.1391 29.2703C96.4541 30.7758 97.5119 32.4643 98.2695 34.2793C98.3409 34.4341 98.2551 34.617 98.0979 34.6873C97.9407 34.7577 97.7549 34.6733 97.6834 34.5185C96.9544 32.7597 95.9395 31.1276 94.6674 29.6783C88.2637 22.404 77.0429 21.6161 69.6529 27.9196C66.0794 30.9728 63.921 35.2079 63.5779 39.8652C63.2349 44.5084 64.7643 49.0108 67.8661 52.5425C72.6832 58.0158 80.5592 59.9997 87.4489 57.4811C87.6061 57.4248 87.7919 57.5092 87.8491 57.664C87.9063 57.8188 87.8205 58.0017 87.6633 58.058C85.605 58.8037 83.4466 59.1695 81.3168 59.1695Z" fill="#143048"/>
<path d="M71.5682 41.047L76.6855 43.1012V45.9575L68.9667 42.2289V39.8228L76.6855 36.0942V38.9505L71.5682 41.047Z" fill="#02457C"/>
<path d="M79.6301 48.6307H77.7004L82.5032 32.4922H84.4329L79.6301 48.6307Z" fill="#02457C"/>
<path d="M90.9653 41.0187L85.7623 38.9503V36.1082L93.5668 39.8368V42.2287L85.7623 45.9714V43.1292L90.9653 41.0187Z" fill="#02457C"/>
<path d="M233.019 234.372C233.004 234.372 232.976 234.372 232.962 234.372C232.79 234.344 232.676 234.175 232.704 234.006C235.535 218.163 237.035 214.857 241.052 206.02L241.724 204.529C241.795 204.374 241.981 204.304 242.138 204.374C242.296 204.445 242.367 204.628 242.296 204.782L241.624 206.274C237.621 215.054 236.121 218.332 233.319 234.105C233.29 234.273 233.162 234.372 233.019 234.372Z" fill="#143048"/>
<path d="M226.544 242.406C226.372 242.406 226.229 242.279 226.229 242.11C225.343 218.824 219.268 209.313 212.836 199.253L212.536 198.788C212.45 198.647 212.493 198.45 212.636 198.366C212.779 198.282 212.979 198.324 213.064 198.465L213.365 198.929C219.854 209.074 225.972 218.641 226.858 242.096C226.872 242.251 226.73 242.392 226.544 242.406C226.558 242.406 226.558 242.406 226.544 242.406Z" fill="#143048"/>
<path d="M236.149 255.998H217.839L215.752 232.374H238.25L236.149 255.998Z" fill="#02457C"/>
<path d="M200.857 174.503L201.243 176.135C200.471 176.459 199.728 176.853 199.028 177.289L197.87 176.065L193.653 179.92L194.811 181.144C194.311 181.806 193.868 182.495 193.482 183.227L191.852 182.734L190.151 188.151L191.781 188.644C191.681 189.446 191.652 190.276 191.695 191.106L190.037 191.486L191.323 197.015L192.981 196.636C193.31 197.395 193.71 198.127 194.153 198.816L192.91 199.956L196.826 204.107L198.07 202.967C198.742 203.46 199.442 203.896 200.185 204.276L199.685 205.88L205.188 207.554L205.689 205.95C206.503 206.049 207.347 206.077 208.19 206.034L208.576 207.667L214.194 206.4L213.808 204.768C214.58 204.445 215.323 204.051 216.023 203.614L217.181 204.839L221.398 200.983L220.24 199.759C220.74 199.098 221.183 198.408 221.569 197.677L223.199 198.169L224.9 192.752L223.27 192.26C223.37 191.458 223.399 190.628 223.356 189.797L225.014 189.418L223.728 183.888L222.07 184.268C221.741 183.508 221.341 182.776 220.897 182.087L222.141 180.947L218.225 176.797L216.981 177.936C216.309 177.444 215.609 177.008 214.865 176.628L215.366 175.024L209.863 173.349L209.362 174.953C208.547 174.855 207.704 174.827 206.861 174.869L206.475 173.237L200.857 174.503ZM216.938 192.063C216.595 194.525 215.18 196.748 213.064 198.127C205.903 202.812 196.912 197.255 198.084 188.869C198.427 186.407 199.842 184.183 201.958 182.805C209.119 178.119 218.11 183.663 216.938 192.063Z" fill="#0278BE"/>
<path d="M207.49 203.192C205.088 203.192 202.73 202.531 200.643 201.237C197.713 199.436 195.683 196.607 194.911 193.301C193.596 187.645 196.326 181.848 201.543 179.174C201.701 179.09 201.887 179.16 201.972 179.301C202.058 179.456 201.987 179.639 201.844 179.723C196.884 182.256 194.282 187.785 195.526 193.16C196.255 196.312 198.199 198.999 200.972 200.716C203.759 202.432 207.047 202.981 210.248 202.264C210.42 202.221 210.592 202.334 210.62 202.503C210.663 202.672 210.549 202.841 210.377 202.869C209.434 203.08 208.447 203.192 207.49 203.192Z" fill="#0278BE"/>
<path d="M239.823 187.673L240.066 188.728C239.566 188.939 239.094 189.192 238.636 189.474L237.893 188.686L235.163 191.176L235.906 191.964C235.592 192.386 235.292 192.837 235.049 193.315L233.991 192.991L232.89 196.495L233.934 196.818C233.876 197.339 233.848 197.874 233.876 198.408L232.804 198.648L233.634 202.221L234.706 201.982C234.92 202.475 235.177 202.939 235.463 203.389L234.663 204.121L237.193 206.808L237.993 206.077C238.422 206.386 238.879 206.682 239.365 206.921L239.037 207.962L242.596 209.045L242.925 208.018C243.453 208.075 243.997 208.103 244.54 208.075L244.783 209.13L248.414 208.314L248.171 207.259C248.671 207.047 249.143 206.794 249.6 206.513L250.343 207.301L253.073 204.81L252.33 204.022C252.645 203.6 252.945 203.15 253.188 202.672L254.245 202.995L255.346 199.492L254.303 199.168C254.36 198.648 254.388 198.113 254.36 197.578L255.432 197.339L254.603 193.765L253.531 194.004C253.316 193.512 253.059 193.048 252.773 192.597L253.574 191.866L251.044 189.178L250.243 189.91C249.814 189.6 249.357 189.305 248.871 189.066L249.2 188.025L245.64 186.941L245.312 187.968C244.783 187.912 244.24 187.884 243.696 187.912L243.453 186.857L239.823 187.673ZM250.215 198.999C249.986 200.589 249.071 202.024 247.713 202.911C243.082 205.936 237.278 202.348 238.036 196.931C238.265 195.341 239.18 193.906 240.537 193.019C245.169 190.008 250.958 193.596 250.215 198.999Z" fill="#0278BE"/>
<path d="M244.111 206.302C242.539 206.302 240.995 205.866 239.637 205.021C237.722 203.839 236.392 201.996 235.892 199.829C235.034 196.129 236.821 192.33 240.237 190.585C240.395 190.501 240.58 190.571 240.666 190.712C240.752 190.867 240.68 191.05 240.538 191.134C237.379 192.752 235.72 196.27 236.521 199.689C236.993 201.701 238.222 203.403 239.994 204.501C241.767 205.598 243.854 205.95 245.898 205.486C246.069 205.443 246.241 205.556 246.269 205.725C246.312 205.894 246.198 206.063 246.026 206.091C245.369 206.231 244.74 206.302 244.111 206.302Z" fill="#0278BE"/>
</svg>
