<svg width="55" height="55" viewBox="0 0 55 55" fill="none" xmlns="http://www.w3.org/2000/svg">
<g clip-path="url(#clip0_366_139)">
<path d="M26.1829 29.6413V22.5655L20.055 19.0276L13.9272 22.5655V29.6413L20.055 33.1792L26.1829 29.6413Z" fill="#3B8739"/>
<path d="M50.3163 28.5676L54.3097 30.8737L50.3163 33.1797L44.189 29.6418V22.5658L50.3163 19.0278L54.0298 21.1728C54.4068 22.7659 54.6384 24.3899 54.7219 26.0249L52.4513 27.3357V24.8708L50.3163 23.6389L48.1813 24.8708V27.3357L50.3163 28.5676Z" fill="#333333"/>
<path d="M51.5056 26.7902V25.4167L50.3161 24.7299L49.1265 25.4167V26.7902L50.3161 27.4771L51.5056 26.7902Z" fill="#66A060"/>
<path d="M11.033 22.5659V31.8968L6.94622 29.5652V24.782L4.90572 23.6034L2.86511 24.7819V29.5651L0.544591 30.8893C0.400828 29.7504 0.328856 28.6036 0.329102 27.4557C0.329102 25.3252 0.573507 23.2513 1.0367 21.2617L4.90572 19.0278L11.033 22.5659Z" fill="#333333"/>
<path d="M20.0547 19.0272L26.1824 29.6407L20.0547 33.1785L13.927 22.565L20.0547 19.0272Z" fill="#6DA75D"/>
<path d="M13.9272 29.6413L16.0313 26.2101L13.9272 22.5655V29.6413Z" fill="#55A344"/>
<path d="M24.1402 26.1031L26.1831 22.5655L20.0552 19.0276L24.1402 26.1031Z" fill="#639D57"/>
<path d="M37.1706 10.8267V20.2142L35.1167 19.0278L28.9883 22.5658V29.6417L35.1167 33.1797L41.244 29.6417V13.0072L37.1706 10.8267ZM37.1594 27.2824L35.1166 28.4621L33.0737 27.2824V24.9242L35.1166 23.7444L37.1594 24.9242V27.2824Z" fill="#333333"/>
<path d="M30.3241 38.3755C30.3241 38.3755 30.2037 37.3412 29.0974 37.3412C27.9909 37.3412 27.2333 37.4855 27.2333 38.0989C27.2333 38.7123 29.3861 38.7123 30.2039 38.9527C31.0218 39.1932 31.7433 39.8186 31.3825 40.9251C31.0217 42.0316 29.9152 42.1518 28.2074 42.1518C26.4997 42.1518 26.1147 40.7326 26.1147 40.1794H27.0768C27.0768 40.1794 26.9565 41.0453 28.087 41.1896C29.2175 41.3339 30.2984 41.4151 30.4442 40.5403C30.6366 39.3856 26.7881 39.963 26.4513 38.8325C26.1668 37.8773 26.331 36.6197 28.2553 36.4272C30.1796 36.2346 31.2379 37.0842 31.2379 38.3515L30.3241 38.3755Z" fill="#66A060"/>
<path d="M21.0299 42.8845L23.1569 44.1124C24.2257 44.7295 25.5615 43.9582 25.5615 42.7242V36.6119H24.6946V42.483C24.6946 43.1569 23.9651 43.5782 23.3813 43.2411L21.8967 42.3841V36.1182L27.3231 32.9856L32.7494 36.1182V42.3841L27.3231 45.5167L25.7599 44.6142L24.7391 45.0259L27.323 46.5177L33.6163 42.8841V35.6178L27.3231 31.9845L21.0298 35.618V42.8845H21.0299Z" fill="#66A060"/>
</g>
<defs>
<clipPath id="clip0_366_139">
<rect width="54.4304" height="54.4304" fill="white" transform="translate(0.329102 0.240509)"/>
</clipPath>
</defs>
</svg>
