<svg width="57" height="57" viewBox="0 0 57 57" fill="none" xmlns="http://www.w3.org/2000/svg">
<rect width="57" height="57" fill="#E5E5E5"/>
<rect width="1920" height="5156" transform="translate(-83 -2022)" fill="white"/>
<circle cx="28" cy="29" r="43" fill="#DFFBFF"/>
<g clipPath="url(#clip0_112_1188)">
<path d="M53.8637 36.9688C53.1726 34.33 51.2878 31.44 48.5862 28.487C51.2877 25.5341 53.1726 22.5813 53.8637 20.0053C54.4292 17.8692 54.2407 15.9215 53.3611 14.3508C51.0993 10.4555 45.3192 9.89007 38.5965 11.3351C36.4606 4.80109 33.1307 0.151886 28.5443 0.151886C24.3348 0.151886 20.7536 4.42421 18.4918 11.3352C17.6751 11.1467 16.9212 11.0211 16.1044 10.8954C9.94732 10.0159 5.48655 11.2095 3.72745 14.351C2.8479 15.9216 2.65934 17.8693 3.22478 20.0054C3.91589 22.6441 5.80066 25.5343 8.50232 28.4871C5.80078 31.44 3.91589 34.3929 3.22478 36.9689C2.65934 39.105 2.84778 41.0526 3.72745 42.6233C5.17244 45.0735 8.18822 46.3301 12.3976 46.3301C13.5285 46.3301 14.7851 46.2044 16.1044 46.016C16.8583 45.8903 17.6751 45.7646 18.4918 45.5762C20.6908 52.4872 24.3348 56.7595 28.5443 56.7595C33.1307 56.7595 36.4606 52.1103 38.5338 45.5762C40.7328 46.0788 42.8061 46.3301 44.7536 46.3301C48.7117 46.3301 51.7903 45.1992 53.3611 42.5604C54.2407 41.0525 54.4292 39.1049 53.8637 36.9688ZM44.7538 14.3508C47.4553 14.3508 49.403 15.0419 50.157 16.2985C50.534 16.9896 50.5967 17.932 50.2826 19.0629C49.78 20.8849 48.335 23.2724 46.0103 25.9111C44.4397 24.4661 42.6177 23.021 40.67 21.6388C40.4187 19.377 40.0418 17.1153 39.6019 15.0419C41.4868 14.5394 43.2459 14.3508 44.7538 14.3508ZM32.8794 35.9007C31.4344 36.7174 29.9265 37.4713 28.5443 38.1624C27.0739 37.4581 25.628 36.7038 24.2092 35.9007C22.7013 35.0839 21.3819 34.2043 20.0625 33.3248C19.9368 31.7541 19.8741 30.1206 19.8741 28.487C19.8741 26.8535 19.9368 25.22 20.0625 23.6492C21.3818 22.7697 22.7013 21.9529 24.2092 21.0734C25.628 20.2703 27.0739 19.5159 28.5443 18.8116C30.0146 19.5159 31.4605 20.2703 32.8794 21.0734C34.3872 21.8901 35.7066 22.7697 37.026 23.6492C37.1517 25.2199 37.2144 26.8535 37.2144 28.487C37.2144 30.1206 37.1517 31.754 37.026 33.3248C35.7695 34.2043 34.3872 35.084 32.8794 35.9007ZM36.4606 38.1625C36.2721 39.1678 36.0836 40.1102 35.8951 41.0526C34.9527 40.7385 34.0104 40.4244 33.0679 40.0474L34.7642 39.105C35.3297 38.8537 35.8951 38.4767 36.4606 38.1625ZM24.0207 40.1102C23.0783 40.4872 22.136 40.8013 21.1935 41.0526C21.0051 40.1102 20.8165 39.1679 20.6281 38.1625C21.1935 38.4767 21.7589 38.8537 22.3244 39.1678L24.0207 40.1102ZM16.1044 30.4347C15.2876 29.7436 14.5337 29.1153 13.7797 28.487C14.4709 27.8588 15.2876 27.1677 16.1044 26.5393V30.4347ZM20.6281 18.8116C20.8165 17.8064 21.0051 16.8639 21.1935 15.9215C22.136 16.1728 23.0155 16.5498 24.0207 16.8639L22.3244 17.8064C21.7589 18.1205 21.1935 18.4975 20.6281 18.8116ZM33.0679 16.8639C34.0104 16.4869 35.0156 16.1728 35.8951 15.8587C36.0836 16.8012 36.2721 17.7435 36.4606 18.7488C35.8951 18.4347 35.3297 18.0577 34.7642 17.7436C34.1988 17.4923 33.6334 17.1782 33.0679 16.8639ZM40.9213 26.5395C41.7381 27.2306 42.492 27.8588 43.246 28.4871C42.5549 29.1153 41.7381 29.8065 40.9213 30.4348C40.9213 29.7437 40.9841 29.1155 40.9841 28.4871C40.9841 27.8588 40.9841 27.1677 40.9213 26.5395ZM22.8269 10.5184C24.4605 6.37175 26.5966 3.92154 28.5443 3.92154C30.4919 3.92154 32.628 6.37187 34.2616 10.4556C34.5129 11.0211 34.7013 11.6494 34.9527 12.2776C32.8794 12.9058 30.7433 13.7226 28.6071 14.6651C26.471 13.7226 24.2721 12.9058 22.1987 12.2776C22.3872 11.6493 22.5757 11.0838 22.8269 10.5184ZM6.99444 16.2357C7.68555 14.9792 9.63321 14.351 12.272 14.351C13.7799 14.351 15.539 14.5394 17.4866 14.9792C17.0469 17.0525 16.6698 19.2515 16.4185 21.576C14.571 22.8875 12.8083 24.3144 11.141 25.8484C8.75354 23.2725 7.37132 20.885 6.86865 19.0002C6.55466 17.8693 6.61756 16.9268 6.99444 16.2357ZM6.99444 40.7384C6.61744 40.0473 6.55466 39.1049 6.86877 37.974C7.37144 36.152 8.81643 33.7645 11.1411 31.1258C12.7118 32.5708 14.5337 34.0159 16.4186 35.3981C16.67 37.7228 16.9841 39.9216 17.4867 41.995C12.0835 43.1259 8.12532 42.6861 6.99444 40.7384ZM34.2616 46.5185C32.628 50.6023 30.4919 53.0526 28.5443 53.0526C26.5966 53.0526 24.4605 50.6023 22.8269 46.4557C22.5756 45.8903 22.3872 45.262 22.1987 44.6337C24.2721 44.0055 26.4082 43.1887 28.6071 42.2463C30.7433 43.1887 32.8795 44.0055 34.9527 44.6337C34.7013 45.3249 34.5129 45.8903 34.2616 46.5185ZM50.0941 40.7384C48.9632 42.6861 45.0051 43.1887 39.5391 42.0577C40.0418 39.9216 40.3559 37.7226 40.6072 35.4609C42.5549 34.0787 44.314 32.6337 45.9475 31.1886C48.335 33.7644 49.7172 36.1519 50.2199 38.0368C50.5338 39.1049 50.4711 40.0473 50.0941 40.7384Z" fill="#4DCFE0"/>
<path d="M28.5441 22.8326C25.4028 22.8326 22.8896 25.3457 22.8896 28.487C22.8896 31.6283 25.4028 34.1414 28.5441 34.1414C31.6854 34.1414 34.1985 31.6283 34.1985 28.487C34.1985 25.3457 31.6855 22.8326 28.5441 22.8326Z" fill="#D4E1F4"/>
</g>
<rect x="-34.5" y="-199.5" width="1308" height="291" rx="4.5" stroke="#9747FF" stroke-dasharray="10 5"/>
<defs>
<clipPath id="clip0_112_1188">
<rect width="56.6076" height="56.6076" fill="white" transform="translate(0.240723 0.151886)"/>
</clipPath>
</defs>
</svg>
