<svg width="28" height="28" viewBox="0 0 28 28" fill="none" xmlns="http://www.w3.org/2000/svg">
<path d="M2.33301 3.10986H4.36301C5.62301 3.10986 6.61468 4.19486 6.50968 5.4432L5.54134 17.0632C5.37801 18.9649 6.883 20.5982 8.79633 20.5982H21.2213C22.9013 20.5982 24.3713 19.2215 24.4997 17.5532L25.1297 8.8032C25.2697 6.86654 23.7997 5.29152 21.8513 5.29152H6.78968" stroke="#141414" strokeWidth="1.32979" stroke-miterlimit="10" strokeLinecap="round" strokeLinejoin="round"/>
<path d="M18.9583 26.443C19.7637 26.443 20.4167 25.7901 20.4167 24.9847C20.4167 24.1793 19.7637 23.5264 18.9583 23.5264C18.1529 23.5264 17.5 24.1793 17.5 24.9847C17.5 25.7901 18.1529 26.443 18.9583 26.443Z" stroke="#141414" strokeWidth="1.32979" stroke-miterlimit="10" strokeLinecap="round" strokeLinejoin="round"/>
<path d="M9.62533 26.443C10.4307 26.443 11.0837 25.7901 11.0837 24.9847C11.0837 24.1793 10.4307 23.5264 9.62533 23.5264C8.81991 23.5264 8.16699 24.1793 8.16699 24.9847C8.16699 25.7901 8.81991 26.443 9.62533 26.443Z" stroke="#141414" strokeWidth="1.32979" stroke-miterlimit="10" strokeLinecap="round" strokeLinejoin="round"/>
<path d="M10.5 10.1099H24.5" stroke="#141414" strokeWidth="1.32979" stroke-miterlimit="10" strokeLinecap="round" strokeLinejoin="round"/>
</svg>
