<svg width="52" height="52" viewBox="0 0 52 52" fill="none" xmlns="http://www.w3.org/2000/svg">
<rect width="52" height="52" rx="6" fill="#F4F4F4"/>
<path d="M14.333 14.3333H16.363C17.623 14.3333 18.6147 15.4183 18.5097 16.6666L17.5413 28.2866C17.378 30.1882 18.883 31.8216 20.7963 31.8216H33.2213C34.9013 31.8216 36.3713 30.4449 36.4997 28.7766L37.1297 20.0266C37.2697 18.0899 35.7997 16.5149 33.8513 16.5149H18.7897" stroke="#141414" stroke-width="1.5" stroke-miterlimit="10" stroke-linecap="round" stroke-linejoin="round"/>
<path d="M30.9583 37.6667C31.7637 37.6667 32.4167 37.0137 32.4167 36.2083C32.4167 35.4029 31.7637 34.75 30.9583 34.75C30.1529 34.75 29.5 35.4029 29.5 36.2083C29.5 37.0137 30.1529 37.6667 30.9583 37.6667Z" stroke="#141414" stroke-width="1.5" stroke-miterlimit="10" stroke-linecap="round" stroke-linejoin="round"/>
<path d="M21.6253 37.6667C22.4307 37.6667 23.0837 37.0137 23.0837 36.2083C23.0837 35.4029 22.4307 34.75 21.6253 34.75C20.8199 34.75 20.167 35.4029 20.167 36.2083C20.167 37.0137 20.8199 37.6667 21.6253 37.6667Z" stroke="#141414" stroke-width="1.5" stroke-miterlimit="10" stroke-linecap="round" stroke-linejoin="round"/>
<path d="M22.5 21.3333H36.5" stroke="#141414" stroke-width="1.5" stroke-miterlimit="10" stroke-linecap="round" stroke-linejoin="round"/>
</svg>
