<svg width="28" height="28" viewBox="0 0 28 28" fill="none" xmlns="http://www.w3.org/2000/svg">
<path d="M3.03809 16.2233V14.205C3.03809 11.79 5.00975 9.81836 7.42475 9.81836H20.8181C23.2331 9.81836 25.2047 11.79 25.2047 14.205V15.885H22.8481C22.1947 15.885 21.5997 16.1417 21.1681 16.585C20.6781 17.0633 20.3981 17.7517 20.4681 18.4867C20.5731 19.7467 21.7281 20.6683 22.9881 20.6683H25.2047V22.0567C25.2047 24.4717 23.2331 26.4434 20.8181 26.4434H14.4247" stroke="#141414" strokeWidth="1.32979" strokeLinecap="round" strokeLinejoin="round"/>
<path d="M3.03809 15.2549V9.92328C3.03809 8.53494 3.88975 7.29823 5.18475 6.80823L14.4481 3.30823C15.8948 2.75989 17.4464 3.83326 17.4464 5.38493V9.81825" stroke="#141414" strokeWidth="1.32979" strokeLinecap="round" strokeLinejoin="round"/>
<path d="M26.441 17.0747V19.4781C26.441 20.1198 25.9277 20.6447 25.2743 20.6681H22.9877C21.7277 20.6681 20.5727 19.7464 20.4677 18.4864C20.3977 17.7514 20.6777 17.0631 21.1677 16.5847C21.5993 16.1414 22.1943 15.8848 22.8477 15.8848H25.2743C25.9277 15.9081 26.441 16.4331 26.441 17.0747Z" stroke="#141414" strokeWidth="1.32979" strokeLinecap="round" strokeLinejoin="round"/>
<path d="M8.28809 14.7764H16.4548" stroke="#141414" strokeWidth="1.32979" strokeLinecap="round" strokeLinejoin="round"/>
<path d="M3.62109 20.0264H9.85109C10.5978 20.0264 11.2044 20.633 11.2044 21.3797V22.873" stroke="#141414" strokeWidth="1.32979" stroke-miterlimit="10" strokeLinecap="round" strokeLinejoin="round"/>
<path d="M5.04443 18.603L3.62109 20.0263L5.04443 21.4496" stroke="#141414" strokeWidth="1.32979" stroke-miterlimit="10" strokeLinecap="round" strokeLinejoin="round"/>
<path d="M11.2044 26.186H4.97443C4.22776 26.186 3.62109 25.5793 3.62109 24.8327V23.3394" stroke="#141414" strokeWidth="1.32979" stroke-miterlimit="10" strokeLinecap="round" strokeLinejoin="round"/>
<path d="M9.78125 27.6094L11.2046 26.1861L9.78125 24.7627" stroke="#141414" strokeWidth="1.32979" stroke-miterlimit="10" strokeLinecap="round" strokeLinejoin="round"/>
</svg>
