<svg width="28" height="28" viewBox="0 0 28 28" fill="none" xmlns="http://www.w3.org/2000/svg">
<path fill-rule="evenodd" clip-rule="evenodd" d="M18.1805 2.43331C19.7112 2.94844 20.7087 4.38872 20.7087 6.277C20.7087 7.46413 20.0339 8.55679 19.2818 9.42856C18.5088 10.3247 17.5303 11.1289 16.6745 11.7528C16.6378 11.7795 16.6014 11.8061 16.5653 11.8324C15.7347 12.4394 15.0494 12.9401 14.0004 12.9401C12.9514 12.9401 12.2661 12.4394 11.4355 11.8324C11.3994 11.8061 11.363 11.7795 11.3263 11.7528C10.4705 11.1289 9.49203 10.3247 8.71896 9.42854C7.96692 8.55679 7.29206 7.46413 7.29206 6.27702C7.29206 4.38873 8.28959 2.94844 9.82031 2.43331C11.1259 1.99394 12.6456 2.28394 14.0004 3.27013C15.3552 2.28394 16.8749 1.99394 18.1805 2.43331ZM17.6223 4.09191C16.8616 3.8359 15.7272 4.00153 14.5925 5.04451C14.2577 5.35224 13.743 5.35224 13.4083 5.04451C12.2736 4.00153 11.1392 3.8359 10.3785 4.09191C9.64875 4.33748 9.04206 5.04193 9.04206 6.27702C9.04206 6.82251 9.374 7.50874 10.044 8.28544C10.693 9.03776 11.5519 9.7516 12.3572 10.3386C13.3408 11.0557 13.5746 11.1901 14.0004 11.1901C14.4262 11.1901 14.66 11.0557 15.6436 10.3386C16.4489 9.75162 17.3078 9.03778 17.9568 8.28546C18.6268 7.50876 18.9587 6.82252 18.9587 6.277C18.9587 5.04193 18.352 4.33748 17.6223 4.09191ZM10.1316 17.6326C12.3084 17.2109 14.6386 17.3056 16.5242 18.4302C16.789 18.5882 17.0373 18.785 17.2539 19.0283C17.6924 19.5208 17.9189 20.133 17.9296 20.7467C18.1527 20.6028 18.3762 20.443 18.6033 20.2714L20.7117 18.6787C21.767 17.8815 23.3008 17.8814 24.3563 18.6784C25.3315 19.4148 25.7204 20.7364 25.0222 21.8555C24.526 22.6509 23.7787 23.751 23.0182 24.4553C22.2495 25.1673 21.1554 25.766 20.3278 26.1654C19.3227 26.6505 18.2372 26.9187 17.1817 27.0896C15.0243 27.4388 12.7794 27.3854 10.6462 26.9459C9.55608 26.7213 8.4232 26.6046 7.30365 26.6046H4.66706C4.18381 26.6046 3.79206 26.2128 3.79206 25.7296C3.79206 25.2463 4.18381 24.8546 4.66706 24.8546H7.30365C8.54278 24.8546 9.79396 24.9836 10.9993 25.2319C12.9267 25.629 14.9572 25.6769 16.902 25.3621C17.8691 25.2055 18.7722 24.9731 19.5671 24.5894C20.3644 24.2046 21.2608 23.6977 21.8291 23.1714C22.4037 22.6392 23.0468 21.7157 23.5374 20.9292C23.6855 20.6918 23.665 20.3493 23.3018 20.075C22.8704 19.7493 22.1978 19.7494 21.7665 20.0751L19.6581 21.6678C18.8165 22.3036 17.7805 22.9838 16.4956 23.1888C16.3659 23.2094 16.2309 23.2284 16.0907 23.2451C16.0239 23.2571 15.9544 23.2651 15.8825 23.2678C15.2265 23.333 14.4667 23.3481 13.6285 23.269C13.1474 23.2236 12.7942 22.7967 12.8397 22.3156C12.8851 21.8345 13.3119 21.4813 13.793 21.5267C14.5251 21.5959 15.1818 21.5806 15.739 21.5234C15.7503 21.5222 15.7616 21.521 15.7728 21.5199C15.796 21.5063 15.8316 21.4817 15.8782 21.441C16.251 21.1157 16.2842 20.5709 15.9468 20.1919C15.8613 20.0959 15.756 20.0097 15.6278 19.9332C14.2497 19.1112 12.4093 18.9739 10.4645 19.3507C8.53069 19.7253 6.60946 20.5884 5.17323 21.6069C4.77904 21.8865 4.23287 21.7935 3.95332 21.3994C3.67378 21.0052 3.76671 20.459 4.1609 20.1795C5.79232 19.0225 7.94376 18.0565 10.1316 17.6326Z" fill="#141414"/>
</svg>
