<svg width="28" height="28" viewBox="0 0 28 28" fill="none" xmlns="http://www.w3.org/2000/svg">
<path d="M25.6673 10.8852V17.943C25.6673 20.8838 25.084 22.9424 23.7773 24.2716L16.334 16.7667L25.3523 7.67383C25.5623 8.60312 25.6673 9.66179 25.6673 10.8852Z" stroke="#141414" stroke-width="1.32979" stroke-linecap="round" stroke-linejoin="round"/>
<path d="M25.3523 7.67374L7.31564 25.8595C3.80397 25.0479 2.33398 22.6011 2.33398 17.9429V10.8851C2.33398 5.0035 4.66732 2.65088 10.5007 2.65088H17.5007C22.1207 2.65088 24.5473 4.13304 25.3523 7.67374Z" stroke="#141414" stroke-width="1.32979" stroke-linecap="round" stroke-linejoin="round"/>
<path d="M23.7771 24.2715C22.4588 25.589 20.4171 26.1771 17.5004 26.1771H10.5004C9.28711 26.1771 8.2371 26.0712 7.31543 25.8595L16.3338 16.7666L23.7771 24.2715Z" stroke="#141414" stroke-width="1.32979" stroke-linecap="round" stroke-linejoin="round"/>
<path d="M7.27982 9.68553C8.07315 6.23894 13.2065 6.23894 13.9998 9.68553C14.4548 11.7088 13.1948 13.4262 12.0865 14.4849C11.2815 15.2613 10.0098 15.2613 9.19317 14.4849C8.08484 13.4262 6.81315 11.7088 7.27982 9.68553Z" stroke="#141414" stroke-width="1.32979"/>
<path d="M10.6101 10.532H10.6206" stroke="#141414" stroke-width="1.77305" stroke-linecap="round" stroke-linejoin="round"/>
</svg>
