<svg width="28" height="28" viewBox="0 0 28 28" fill="none" xmlns="http://www.w3.org/2000/svg">
<path d="M14.1215 17.1094H15.2881C16.5715 17.1094 17.6215 16.0594 17.6215 14.776V3.10938H7.12146C5.37146 3.10938 3.84314 4.07769 3.0498 5.50103" stroke="#141414" strokeWidth="1.32979" strokeLinecap="round" strokeLinejoin="round"/>
<path d="M2.4541 20.6094C2.4541 22.546 4.01744 24.1094 5.9541 24.1094H7.12077C7.12077 22.826 8.17077 21.776 9.4541 21.776C10.7374 21.776 11.7874 22.826 11.7874 24.1094H16.4541C16.4541 22.826 17.5041 21.776 18.7874 21.776C20.0708 21.776 21.1208 22.826 21.1208 24.1094H22.2874C24.2241 24.1094 25.7874 22.546 25.7874 20.6094V17.1094H22.2874C21.6458 17.1094 21.1208 16.5844 21.1208 15.9427V12.4427C21.1208 11.801 21.6458 11.276 22.2874 11.276H23.7924L21.7975 7.78772C21.3775 7.06439 20.6075 6.60938 19.7675 6.60938H17.6208V14.776C17.6208 16.0594 16.5708 17.1094 15.2874 17.1094H14.1208" stroke="#141414" strokeWidth="1.32979" strokeLinecap="round" strokeLinejoin="round"/>
<path d="M9.45443 26.443C10.7431 26.443 11.7878 25.3984 11.7878 24.1097C11.7878 22.821 10.7431 21.7764 9.45443 21.7764C8.16576 21.7764 7.12109 22.821 7.12109 24.1097C7.12109 25.3984 8.16576 26.443 9.45443 26.443Z" stroke="#141414" strokeWidth="1.32979" strokeLinecap="round" strokeLinejoin="round"/>
<path d="M18.7874 26.443C20.0761 26.443 21.1208 25.3984 21.1208 24.1097C21.1208 22.821 20.0761 21.7764 18.7874 21.7764C17.4988 21.7764 16.4541 22.821 16.4541 24.1097C16.4541 25.3984 17.4988 26.443 18.7874 26.443Z" stroke="#141414" strokeWidth="1.32979" strokeLinecap="round" strokeLinejoin="round"/>
<path d="M25.7878 14.7764V17.1097H22.2878C21.6461 17.1097 21.1211 16.5847 21.1211 15.943V12.443C21.1211 11.8014 21.6461 11.2764 22.2878 11.2764H23.7927L25.7878 14.7764Z" stroke="#141414" strokeWidth="1.32979" strokeLinecap="round" strokeLinejoin="round"/>
<path d="M2.4541 10.1094H9.4541" stroke="#141414" strokeWidth="1.32979" strokeLinecap="round" strokeLinejoin="round"/>
<path d="M2.4541 13.6094H7.12077" stroke="#141414" strokeWidth="1.32979" strokeLinecap="round" strokeLinejoin="round"/>
<path d="M2.4541 17.1094H4.78743" stroke="#141414" strokeWidth="1.32979" strokeLinecap="round" strokeLinejoin="round"/>
</svg>
