<svg width="52" height="52" viewBox="0 0 52 52" fill="none" xmlns="http://www.w3.org/2000/svg">
<rect width="52" height="52" rx="6" fill="#F4F4F4"/>
<path d="M15.0098 22.1148C15.7331 20.0615 17.0164 18.2765 18.6731 16.9348" stroke="#141414" stroke-width="1.5" stroke-linecap="round" stroke-linejoin="round"/>
<path d="M14.333 26C14.333 27.365 14.578 28.6717 15.0097 29.885" stroke="#141414" stroke-width="1.5" stroke-linecap="round" stroke-linejoin="round"/>
<path d="M22.6045 37.1649C23.6778 37.4916 24.8212 37.6665 25.9995 37.6665C32.4395 37.6665 37.6662 32.4399 37.6662 25.9999C37.6662 25.2999 37.5962 24.6115 37.4795 23.9465" stroke="#141414" stroke-width="1.5" stroke-linecap="round" stroke-linejoin="round"/>
<path d="M18.6728 35.0415C18.1245 34.5982 17.5995 34.1082 17.1328 33.5715" stroke="#141414" stroke-width="1.5" stroke-linecap="round" stroke-linejoin="round"/>
<path d="M35.6128 19.3966C33.5128 16.3399 29.9895 14.3333 25.9995 14.3333C24.8212 14.3333 23.6778 14.5082 22.6045 14.8349" stroke="#141414" stroke-width="1.5" stroke-linecap="round" stroke-linejoin="round"/>
<path d="M22.1973 26.0002V24.0519C22.1973 21.6253 23.9123 20.6336 26.0123 21.8469L27.7039 22.8269L29.3956 23.8069C31.4956 25.0202 31.4956 27.0036 29.3956 28.2169L27.7039 29.1969L26.0123 30.1769C23.9123 31.3903 22.1973 30.3986 22.1973 27.9719V26.0002Z" stroke="#141414" stroke-width="1.5" stroke-miterlimit="10" stroke-linecap="round" stroke-linejoin="round"/>
</svg>
