<svg width="52" height="52" viewBox="0 0 52 52" fill="none" xmlns="http://www.w3.org/2000/svg">
<rect width="52" height="52" rx="6" fill="#F4F4F4"/>
<path d="M27.1663 37.6666H17.833C15.4997 37.6666 14.333 36.4999 14.333 34.1666V24.8333C14.333 22.4999 15.4997 21.3333 17.833 21.3333H23.6663V34.1666C23.6663 36.4999 24.833 37.6666 27.1663 37.6666Z" stroke="#141414" stroke-width="1.5" stroke-miterlimit="10" stroke-linecap="round" stroke-linejoin="round"/>
<path d="M23.7947 16.6667C23.7013 17.0167 23.6663 17.4017 23.6663 17.8334V21.3334H17.833V19.0001C17.833 17.7167 18.883 16.6667 20.1663 16.6667H23.7947Z" stroke="#141414" stroke-width="1.5" stroke-miterlimit="10" stroke-linecap="round" stroke-linejoin="round"/>
<path d="M28.333 21.3333V27.1666" stroke="#141414" stroke-width="1.5" stroke-miterlimit="10" stroke-linecap="round" stroke-linejoin="round"/>
<path d="M33 21.3333V27.1666" stroke="#141414" stroke-width="1.5" stroke-miterlimit="10" stroke-linecap="round" stroke-linejoin="round"/>
<path d="M31.833 31.8333H29.4997C28.858 31.8333 28.333 32.3583 28.333 32.9999V37.6666H32.9997V32.9999C32.9997 32.3583 32.4747 31.8333 31.833 31.8333Z" stroke="#141414" stroke-width="1.5" stroke-miterlimit="10" stroke-linecap="round" stroke-linejoin="round"/>
<path d="M19 27.1667V31.8334" stroke="#141414" stroke-width="1.5" stroke-miterlimit="10" stroke-linecap="round" stroke-linejoin="round"/>
<path d="M23.667 34.1666V17.8333C23.667 15.4999 24.8337 14.3333 27.167 14.3333H34.167C36.5003 14.3333 37.667 15.4999 37.667 17.8333V34.1666C37.667 36.4999 36.5003 37.6666 34.167 37.6666H27.167C24.8337 37.6666 23.667 36.4999 23.667 34.1666Z" stroke="#141414" stroke-width="1.5" stroke-miterlimit="10" stroke-linecap="round" stroke-linejoin="round"/>
</svg>
