<svg width="28" height="28" viewBox="0 0 28 28" fill="none" xmlns="http://www.w3.org/2000/svg">
<path d="M15.1663 26.4437H5.83301C3.49967 26.4437 2.33301 25.277 2.33301 22.9437V13.6104C2.33301 11.277 3.49967 10.1104 5.83301 10.1104H11.6663V22.9437C11.6663 25.277 12.833 26.4437 15.1663 26.4437Z" stroke="#141414" strokeWidth="1.32979" stroke-miterlimit="10" strokeLinecap="round" strokeLinejoin="round"/>
<path d="M11.7947 5.44385C11.7013 5.79385 11.6663 6.17885 11.6663 6.61051V10.1105H5.83301V7.77718C5.83301 6.49385 6.88301 5.44385 8.16634 5.44385H11.7947Z" stroke="#141414" strokeWidth="1.32979" stroke-miterlimit="10" strokeLinecap="round" strokeLinejoin="round"/>
<path d="M16.333 10.1104V15.9437" stroke="#141414" strokeWidth="1.32979" stroke-miterlimit="10" strokeLinecap="round" strokeLinejoin="round"/>
<path d="M21 10.1104V15.9437" stroke="#141414" strokeWidth="1.32979" stroke-miterlimit="10" strokeLinecap="round" strokeLinejoin="round"/>
<path d="M19.833 20.6104H17.4997C16.858 20.6104 16.333 21.1354 16.333 21.777V26.4437H20.9997V21.777C20.9997 21.1354 20.4747 20.6104 19.833 20.6104Z" stroke="#141414" strokeWidth="1.32979" stroke-miterlimit="10" strokeLinecap="round" strokeLinejoin="round"/>
<path d="M7 15.9438V20.6105" stroke="#141414" strokeWidth="1.32979" stroke-miterlimit="10" strokeLinecap="round" strokeLinejoin="round"/>
<path d="M11.667 22.9437V6.61035C11.667 4.27702 12.8337 3.11035 15.167 3.11035H22.167C24.5003 3.11035 25.667 4.27702 25.667 6.61035V22.9437C25.667 25.277 24.5003 26.4437 22.167 26.4437H15.167C12.8337 26.4437 11.667 25.277 11.667 22.9437Z" stroke="#141414" strokeWidth="1.32979" stroke-miterlimit="10" strokeLinecap="round" strokeLinejoin="round"/>
</svg>
