<svg width="28" height="28" viewBox="0 0 28 28" fill="none" xmlns="http://www.w3.org/2000/svg">
<path d="M9.33329 26.1775H18.6666C23.3566 26.1775 24.1966 24.2836 24.4416 21.978L25.3166 12.5675C25.6316 9.69731 24.815 7.35645 19.8333 7.35645H8.16663C3.18496 7.35645 2.36829 9.69731 2.68329 12.5675L3.55829 21.978C3.80329 24.2836 4.64329 26.1775 9.33329 26.1775Z" stroke="#141414" stroke-width="1.32979" stroke-miterlimit="10" stroke-linecap="round" stroke-linejoin="round"/>
<path d="M9.33398 7.35613V6.41508C9.33398 4.33301 9.33398 2.65088 13.0673 2.65088H14.934C18.6673 2.65088 18.6673 4.33301 18.6673 6.41508V7.35613" stroke="#141414" stroke-width="1.32979" stroke-miterlimit="10" stroke-linecap="round" stroke-linejoin="round"/>
<path d="M16.3327 15.5904V16.7667C16.3327 16.7785 16.3327 16.7785 16.3327 16.7902C16.3327 18.0724 16.321 19.1193 13.9993 19.1193C11.6893 19.1193 11.666 18.0842 11.666 16.802V15.5904C11.666 14.4141 11.666 14.4141 12.8327 14.4141H15.166C16.3327 14.4141 16.3327 14.4141 16.3327 15.5904Z" stroke="#141414" stroke-width="1.32979" stroke-miterlimit="10" stroke-linecap="round" stroke-linejoin="round"/>
<path d="M25.258 13.2378C22.563 15.214 19.483 16.3903 16.333 16.7903" stroke="#141414" stroke-width="1.32979" stroke-miterlimit="10" stroke-linecap="round" stroke-linejoin="round"/>
<path d="M3.05469 13.5547C5.67969 15.3662 8.64302 16.4602 11.6647 16.8013" stroke="#141414" stroke-width="1.32979" stroke-miterlimit="10" stroke-linecap="round" stroke-linejoin="round"/>
</svg>
