<svg width="28" height="28" viewBox="0 0 28 28" fill="none" xmlns="http://www.w3.org/2000/svg">
<path fill-rule="evenodd" clip-rule="evenodd" d="M18 8.52686C18 6.45579 16.3211 4.77686 14.25 4.77686C12.1789 4.77686 10.5 6.45579 10.5 8.52686C10.5 10.5979 12.1789 12.2769 14.25 12.2769C16.3211 12.2769 18 10.5979 18 8.52686ZM14.25 6.27686C15.4926 6.27686 16.5 7.28421 16.5 8.52686C16.5 9.7695 15.4926 10.7769 14.25 10.7769C13.0074 10.7769 12 9.7695 12 8.52686C12 7.28421 13.0074 6.27686 14.25 6.27686Z" fill="#141414"/>
<path fill-rule="evenodd" clip-rule="evenodd" d="M11.5 20.5269C11.5 18.4558 9.82107 16.7769 7.75 16.7769C5.67893 16.7769 4 18.4558 4 20.5269C4 22.5979 5.67893 24.2769 7.75 24.2769C9.82107 24.2769 11.5 22.5979 11.5 20.5269ZM7.75 18.2769C8.99264 18.2769 10 19.2842 10 20.5269C10 21.7695 8.99264 22.7769 7.75 22.7769C6.50736 22.7769 5.5 21.7695 5.5 20.5269C5.5 19.2842 6.50736 18.2769 7.75 18.2769Z" fill="#141414"/>
<path fill-rule="evenodd" clip-rule="evenodd" d="M20.75 16.7769C22.8211 16.7769 24.5 18.4558 24.5 20.5269C24.5 22.5979 22.8211 24.2769 20.75 24.2769C18.6789 24.2769 17 22.5979 17 20.5269C17 18.4558 18.6789 16.7769 20.75 16.7769ZM23 20.5269C23 19.2842 21.9926 18.2769 20.75 18.2769C19.5074 18.2769 18.5 19.2842 18.5 20.5269C18.5 21.7695 19.5074 22.7769 20.75 22.7769C21.9926 22.7769 23 21.7695 23 20.5269Z" fill="#141414"/>
<path d="M9.45468 10.0892C9.76523 9.81507 9.79478 9.34111 9.52069 9.03056C9.24659 8.72001 8.77264 8.69045 8.46208 8.96455C6.64676 10.5668 5.5 12.9134 5.5 15.5269C5.5 15.9411 5.83579 16.2769 6.25 16.2769C6.66421 16.2769 7 15.9411 7 15.5269C7 13.3616 7.94828 11.4187 9.45468 10.0892Z" fill="#141414"/>
<path d="M20.0379 8.96455C19.7274 8.69045 19.2534 8.72001 18.9793 9.03056C18.7052 9.34111 18.7348 9.81507 19.0453 10.0892C20.5517 11.4187 21.5 13.3616 21.5 15.5269C21.5 15.9411 21.8358 16.2769 22.25 16.2769C22.6642 16.2769 23 15.9411 23 15.5269C23 12.9134 21.8532 10.5668 20.0379 8.96455Z" fill="#141414"/>
<path d="M12.4369 22.5485C12.0358 22.4453 11.6269 22.6868 11.5237 23.0879C11.4204 23.489 11.6619 23.8979 12.0631 24.0012C12.7629 24.1813 13.4958 24.2769 14.25 24.2769C15.0042 24.2769 15.7371 24.1813 16.4369 24.0012C16.8381 23.8979 17.0796 23.489 16.9763 23.0879C16.8731 22.6868 16.4642 22.4453 16.0631 22.5485C15.4844 22.6975 14.877 22.7769 14.25 22.7769C13.623 22.7769 13.0156 22.6975 12.4369 22.5485Z" fill="#141414"/>
</svg>
