<svg width="23" height="30" viewBox="0 0 23 30" fill="none" xmlns="http://www.w3.org/2000/svg">
<path d="M11.6357 30C9.49381 30 7.57447 29.6523 5.87767 28.9569C4.18087 28.2615 2.81787 27.2323 1.78866 25.8693C0.78727 24.5063 0.258758 22.8651 0.203125 20.9458H7.79701C7.90827 22.0306 8.28379 22.8651 8.92357 23.4492C9.56335 24.0056 10.3978 24.2837 11.427 24.2837C12.4841 24.2837 13.3186 24.0473 13.9305 23.5744C14.5425 23.0737 14.8485 22.3922 14.8485 21.5299C14.8485 20.8067 14.5981 20.2086 14.0974 19.7357C13.6245 19.2629 13.0265 18.8734 12.3033 18.5675C11.6079 18.2615 10.6065 17.9138 9.29909 17.5243C7.40758 16.9402 5.86377 16.3561 4.66766 15.7719C3.47155 15.1878 2.44235 14.3255 1.58004 13.185C0.717729 12.0445 0.286574 10.5563 0.286574 8.72044C0.286574 5.99444 1.27406 3.86648 3.24902 2.33658C5.22399 0.778859 7.79701 0 10.9681 0C14.1948 0 16.7956 0.778859 18.7706 2.33658C20.7455 3.86648 21.8026 6.00834 21.9417 8.76217H14.2226C14.167 7.81641 13.8193 7.07928 13.1795 6.55077C12.5397 5.99444 11.7191 5.71627 10.7177 5.71627C9.85542 5.71627 9.16001 5.95271 8.6315 6.42559C8.10299 6.87065 7.83873 7.52434 7.83873 8.38665C7.83873 9.33241 8.28379 10.0695 9.17392 10.5981C10.064 11.1266 11.4549 11.6968 13.3464 12.3088C15.2379 12.9485 16.7678 13.5605 17.9361 14.1446C19.1322 14.7288 20.1614 15.5772 21.0237 16.6898C21.886 17.8025 22.3172 19.2351 22.3172 20.9875C22.3172 22.6565 21.886 24.1725 21.0237 25.5355C20.1892 26.8985 18.9653 27.9833 17.3519 28.79C15.7386 29.5967 13.8332 30 11.6357 30Z" fill="#D9D9D9"/>
<path d="M12.1282 12.6701C5.0061 11.9375 1.40727 9.19307 1.40727 4.3252C-2.76669 11.9747 2.79794 16.8426 12.1282 18.0595C18.2105 18.8529 20.7107 21.3627 20.7107 26.0568C24.1877 20.1458 22.2686 13.7132 12.1282 12.6701Z" fill="#7D7D7D"/>
</svg>
