<svg width="166" height="84" viewBox="0 0 166 84" fill="none" xmlns="http://www.w3.org/2000/svg">
<path d="M6.36699 1.94526C6.8711 1.07975 7.12316 0.646998 7.5 0.646998C7.87684 0.646998 8.1289 1.07975 8.63301 1.94526L9.63381 3.66352C9.77706 3.90948 9.84869 4.03245 9.96037 4.11359C10.0721 4.19473 10.2111 4.22485 10.4893 4.28509L12.4327 4.70593C13.4117 4.91792 13.9011 5.02391 14.0176 5.38231C14.134 5.7407 13.8004 6.11415 13.133 6.86105L11.8081 8.34384C11.6184 8.55608 11.5236 8.6622 11.481 8.79349C11.4383 8.92478 11.4526 9.06637 11.4813 9.34955L11.6816 11.3279C11.7825 12.3244 11.833 12.8227 11.5281 13.0442C11.2232 13.2657 10.7649 13.0637 9.84836 12.6598L8.02874 11.858C7.76827 11.7432 7.63804 11.6858 7.5 11.6858C7.36196 11.6858 7.23173 11.7432 6.97126 11.858L5.15164 12.6598C4.23506 13.0637 3.77678 13.2657 3.47191 13.0442C3.16703 12.8227 3.21748 12.3244 3.31838 11.3279L3.51869 9.34955C3.54736 9.06637 3.5617 8.92478 3.51904 8.79349C3.47638 8.6622 3.38156 8.55608 3.19191 8.34384L1.86701 6.86105C1.19964 6.11415 0.865957 5.7407 0.982408 5.38231C1.09886 5.02391 1.58832 4.91792 2.56725 4.70593L4.51068 4.28509C4.78886 4.22485 4.92795 4.19473 5.03963 4.11359C5.15131 4.03245 5.22294 3.90947 5.36619 3.66352L6.36699 1.94526Z" fill="#FFC121"/>
<path d="M24.0662 1.94526C24.5703 1.07975 24.8224 0.646998 25.1992 0.646998C25.5761 0.646998 25.8281 1.07975 26.3322 1.94526L27.333 3.66352C27.4763 3.90948 27.5479 4.03245 27.6596 4.11359C27.7713 4.19473 27.9104 4.22485 28.1885 4.28509L30.132 4.70593C31.1109 4.91792 31.6004 5.02391 31.7168 5.38231C31.8333 5.7407 31.4996 6.11415 30.8322 6.86105L29.5073 8.34384C29.3177 8.55608 29.2228 8.6622 29.1802 8.79349C29.1375 8.92478 29.1519 9.06637 29.1805 9.34955L29.3808 11.3279C29.4817 12.3244 29.5322 12.8227 29.2273 13.0442C28.9224 13.2657 28.4642 13.0637 27.5476 12.6598L25.728 11.858C25.4675 11.7432 25.3373 11.6858 25.1992 11.6858C25.0612 11.6858 24.9309 11.7432 24.6705 11.858L22.8509 12.6598C21.9343 13.0637 21.476 13.2657 21.1711 13.0442C20.8663 12.8227 20.9167 12.3244 21.0176 11.3279L21.2179 9.34955C21.2466 9.06637 21.2609 8.92478 21.2183 8.79349C21.1756 8.6622 21.0808 8.55608 20.8911 8.34384L19.5662 6.86105C18.8989 6.11415 18.5652 5.7407 18.6816 5.38231C18.7981 5.02391 19.2875 4.91792 20.2665 4.70593L22.2099 4.28509C22.4881 4.22485 22.6272 4.19473 22.7388 4.11359C22.8505 4.03245 22.9222 3.90947 23.0654 3.66352L24.0662 1.94526Z" fill="#FFC121"/>
<path d="M41.7713 1.94526C42.2754 1.07975 42.5275 0.646998 42.9043 0.646998C43.2811 0.646998 43.5332 1.07975 44.0373 1.94526L45.0381 3.66352C45.1814 3.90948 45.253 4.03245 45.3647 4.11359C45.4763 4.19473 45.6154 4.22485 45.8936 4.28509L47.837 4.70593C48.816 4.91792 49.3054 5.02391 49.4219 5.38231C49.5383 5.7407 49.2047 6.11415 48.5373 6.86105L47.2124 8.34384C47.0227 8.55608 46.9279 8.6622 46.8853 8.79349C46.8426 8.92478 46.8569 9.06637 46.8856 9.34955L47.0859 11.3279C47.1868 12.3244 47.2373 12.8227 46.9324 13.0442C46.6275 13.2657 46.1692 13.0637 45.2527 12.6598L43.433 11.858C43.1726 11.7432 43.0423 11.6858 42.9043 11.6858C42.7663 11.6858 42.636 11.7432 42.3756 11.858L40.5559 12.6598C39.6394 13.0637 39.1811 13.2657 38.8762 13.0442C38.5713 12.8227 38.6218 12.3244 38.7227 11.3279L38.923 9.34955C38.9517 9.06637 38.966 8.92478 38.9233 8.79349C38.8807 8.6622 38.7859 8.55608 38.5962 8.34384L37.2713 6.86105C36.6039 6.11415 36.2703 5.7407 36.3867 5.38231C36.5032 5.02391 36.9926 4.91792 37.9716 4.70593L39.915 4.28509C40.1932 4.22485 40.3322 4.19473 40.4439 4.11359C40.5556 4.03245 40.6272 3.90947 40.7705 3.66352L41.7713 1.94526Z" fill="#FFC121"/>
<path d="M59.4705 1.94526C59.9746 1.07975 60.2267 0.646998 60.6035 0.646998C60.9804 0.646998 61.2324 1.07975 61.7365 1.94526L62.7373 3.66352C62.8806 3.90948 62.9522 4.03245 63.0639 4.11359C63.1756 4.19473 63.3147 4.22485 63.5928 4.28509L65.5363 4.70593C66.5152 4.91792 67.0047 5.02391 67.1211 5.38231C67.2376 5.7407 66.9039 6.11415 66.2365 6.86105L64.9116 8.34384C64.722 8.55608 64.6271 8.6622 64.5845 8.79349C64.5418 8.92478 64.5562 9.06637 64.5848 9.34955L64.7851 11.3279C64.886 12.3244 64.9365 12.8227 64.6316 13.0442C64.3267 13.2657 63.8685 13.0637 62.9519 12.6598L61.1323 11.858C60.8718 11.7432 60.7416 11.6858 60.6035 11.6858C60.4655 11.6858 60.3352 11.7432 60.0748 11.858L58.2552 12.6598C57.3386 13.0637 56.8803 13.2657 56.5754 13.0442C56.2706 12.8227 56.321 12.3244 56.4219 11.3279L56.6222 9.34955C56.6509 9.06637 56.6652 8.92478 56.6226 8.79349C56.5799 8.6622 56.4851 8.55608 56.2954 8.34384L54.9705 6.86105C54.3032 6.11415 53.9695 5.7407 54.0859 5.38231C54.2024 5.02391 54.6918 4.91792 55.6708 4.70593L57.6142 4.28509C57.8924 4.22485 58.0315 4.19473 58.1431 4.11359C58.2548 4.03245 58.3265 3.90947 58.4697 3.66352L59.4705 1.94526Z" fill="#FFC121"/>
<path d="M77.1717 1.94526C77.6758 1.07975 77.9278 0.646998 78.3047 0.646998C78.6815 0.646998 78.9336 1.07975 79.4377 1.94526L80.4385 3.66352C80.5817 3.90948 80.6534 4.03245 80.7651 4.11359C80.8767 4.19473 81.0158 4.22485 81.294 4.28509L83.2374 4.70593C84.2164 4.91792 84.7058 5.02391 84.8223 5.38231C84.9387 5.7407 84.605 6.11415 83.9377 6.86105L82.6128 8.34384C82.4231 8.55608 82.3283 8.6622 82.2857 8.79349C82.243 8.92478 82.2573 9.06637 82.286 9.34955L82.4863 11.3279C82.5872 12.3244 82.6377 12.8227 82.3328 13.0442C82.0279 13.2657 81.5696 13.0637 80.6531 12.6598L78.8334 11.858C78.573 11.7432 78.4427 11.6858 78.3047 11.6858C78.1666 11.6858 78.0364 11.7432 77.776 11.858L75.9563 12.6598C75.0398 13.0637 74.5815 13.2657 74.2766 13.0442C73.9717 12.8227 74.0222 12.3244 74.1231 11.3279L74.3234 9.34955C74.352 9.06637 74.3664 8.92478 74.3237 8.79349C74.2811 8.6622 74.1862 8.55608 73.9966 8.34384L72.6717 6.86105C72.0043 6.11415 71.6706 5.7407 71.7871 5.38231C71.9035 5.02391 72.393 4.91792 73.3719 4.70593L75.3154 4.28509C75.5935 4.22485 75.7326 4.19473 75.8443 4.11359C75.956 4.03245 76.0276 3.90947 76.1709 3.66352L77.1717 1.94526Z" fill="#FFC121"/>
<g clip-path="url(#clip0_2755_15262)">
<path d="M19.5976 69.2335L14.0916 68.4334L11.6292 63.4441C11.4139 63.0077 10.7894 63.0075 10.5739 63.4441L8.11156 68.4334L2.60556 69.2335C2.12403 69.3035 1.93063 69.8972 2.27945 70.2372L6.26361 74.1208L5.32304 79.6046C5.30447 79.7128 5.31656 79.824 5.35792 79.9257C5.39929 80.0274 5.46829 80.1155 5.55712 80.1801C5.64595 80.2446 5.75106 80.283 5.86057 80.2909C5.97008 80.2988 6.07962 80.2759 6.17681 80.2248L11.1016 77.6358C16.4631 80.4545 16.0948 80.2925 16.3001 80.2925C16.6628 80.2925 16.942 79.9655 16.8801 79.6046L15.9396 74.1208L19.9237 70.2372C20.2722 69.8975 20.0796 69.3036 19.5976 69.2335Z" fill="#F7AC16"/>
<path d="M11.1016 63.1157C10.9918 63.1157 10.8842 63.1464 10.7909 63.2044C10.6977 63.2624 10.6225 63.3453 10.5739 63.4437L8.11152 68.4331L2.60556 69.2331C2.12403 69.3031 1.93063 69.8968 2.27945 70.2368L6.26361 74.1204L5.32304 79.6042C5.30447 79.7124 5.31656 79.8236 5.35792 79.9254C5.39929 80.0271 5.46829 80.1152 5.55712 80.1797C5.64594 80.2442 5.75106 80.2826 5.86057 80.2905C5.97008 80.2985 6.07962 80.2756 6.17681 80.2245L11.1016 77.6355H11.1016V63.1157Z" fill="#F2D422"/>
<path d="M2.60556 69.2332C2.12403 69.3032 1.93063 69.8969 2.27945 70.2369L6.26361 74.1205L5.32304 79.6043C5.30447 79.7125 5.31656 79.8237 5.35792 79.9254C5.39929 80.0271 5.46829 80.1152 5.55712 80.1798C5.64594 80.2443 5.75106 80.2827 5.86057 80.2906C5.97008 80.2985 6.07962 80.2756 6.17681 80.2245L11.1016 77.6355C16.4631 80.4542 16.0948 80.2922 16.3001 80.2922C16.4244 80.2922 16.5455 80.2529 16.646 80.1798L8.11152 68.4331L2.60556 69.2332Z" fill="#F7AC16"/>
<path d="M8.37899 73.4433C4.11124 69.2832 4.29468 69.5062 4.23741 69.2904C4.2141 69.2038 4.20932 69.1029 4.23467 68.9966L2.60556 69.2333C2.12403 69.3033 1.93063 69.897 2.27945 70.237L6.26361 74.1206L5.32304 79.6044C5.30447 79.7126 5.31656 79.8239 5.35792 79.9256C5.39929 80.0273 5.46829 80.1154 5.55712 80.1799C5.64595 80.2444 5.75106 80.2828 5.86057 80.2908C5.97008 80.2987 6.07962 80.2758 6.17681 80.2247L7.62479 79.4634C7.55096 79.397 7.49515 79.313 7.46256 79.2192C7.42998 79.1254 7.42167 79.0249 7.43842 78.927L8.37899 73.4433Z" fill="#F48B19"/>
<path d="M2.27924 70.237L6.26339 74.1206L5.32282 79.6044C5.30426 79.7126 5.31634 79.8239 5.35771 79.9256C5.39907 80.0273 5.46807 80.1154 5.5569 80.1799C5.64573 80.2444 5.75084 80.2828 5.86035 80.2908C5.96987 80.2987 6.07941 80.2758 6.17659 80.2247L11.1013 77.6357C16.4629 80.4543 16.0946 80.2923 16.2999 80.2923C16.6625 80.2923 16.9418 79.9654 16.8799 79.6044L15.9393 74.1206L2.13028 69.6338C2.06148 69.8804 2.13035 70.0919 2.27924 70.237Z" fill="#F2D422"/>
<path d="M2.27924 70.237L6.26339 74.1206L5.32282 79.6044C5.30426 79.7126 5.31634 79.8239 5.35771 79.9256C5.39907 80.0273 5.46807 80.1154 5.5569 80.1799C5.64573 80.2444 5.75084 80.2828 5.86035 80.2908C5.96987 80.2987 6.07941 80.2758 6.17659 80.2247L7.62457 79.4634C7.55075 79.397 7.49494 79.313 7.46235 79.2192C7.42976 79.1254 7.42146 79.0249 7.43821 78.927L8.37878 73.4433L5.64088 70.7745L2.13028 69.6338C2.06148 69.8804 2.13035 70.0919 2.27924 70.237Z" fill="#EFB616"/>
<path d="M5.32292 79.6043C5.30436 79.7126 5.31645 79.8238 5.35781 79.9255C5.39918 80.0272 5.46818 80.1153 5.55701 80.1799C5.64583 80.2444 5.75095 80.2828 5.86046 80.2907C5.96997 80.2986 6.07951 80.2757 6.17669 80.2246L11.1015 77.6356C16.463 80.4543 16.0947 80.2923 16.3 80.2923C16.6626 80.2923 16.9419 79.9653 16.88 79.6043L15.9394 74.1206L19.9236 70.237C20.0022 70.1603 20.0578 70.0632 20.0841 69.9566C20.1104 69.85 20.1064 69.7382 20.0725 69.6338L6.2635 74.1206L5.32292 79.6043Z" fill="#F7AC16"/>
<path d="M5.32292 79.6041C5.30436 79.7123 5.31645 79.8236 5.35781 79.9253C5.39918 80.027 5.46818 80.1151 5.55701 80.1797C5.64583 80.2442 5.75095 80.2826 5.86046 80.2905C5.96997 80.2984 6.07951 80.2755 6.17669 80.2244L7.62467 79.4632C7.55085 79.3968 7.49504 79.3128 7.46245 79.219C7.42987 79.1252 7.42156 79.0247 7.43831 78.9268L8.37888 73.443L8.37118 73.4355L6.2635 74.1204L5.32292 79.6041Z" fill="#F48B19"/>
<path d="M6.17829 80.2245L11.103 77.6355C16.4646 80.4542 16.0963 80.2922 16.3015 80.2922C16.6642 80.2922 16.9435 79.9652 16.8815 79.6042L15.941 74.1205L19.9252 70.2368C20.2736 69.8971 20.081 69.3032 19.5991 69.2332L14.0931 68.4331L5.55859 80.1798C5.64743 80.2443 5.75254 80.2827 5.86206 80.2906C5.97157 80.2985 6.08111 80.2756 6.17829 80.2245Z" fill="#F2D422"/>
<path d="M20.0741 69.6338L11.103 72.5487L5.55859 80.1799C5.64742 80.2445 5.75253 80.2828 5.86204 80.2908C5.97154 80.2987 6.08108 80.2758 6.17826 80.2247L11.103 77.6357C16.4646 80.4543 16.0963 80.2923 16.3015 80.2923C16.6642 80.2923 16.9435 79.9654 16.8815 79.6044L15.941 74.1206L19.9252 70.237C20.0038 70.1603 20.0594 70.0632 20.0857 69.9566C20.112 69.85 20.108 69.7382 20.0741 69.6338Z" fill="#F7AC16"/>
<path d="M15.941 74.1203L11.103 72.5483L5.55859 80.1796C5.64742 80.2441 5.75253 80.2825 5.86204 80.2904C5.97154 80.2983 6.08108 80.2755 6.17826 80.2244L11.103 77.6353C16.4646 80.454 16.0963 80.292 16.3015 80.292C16.6642 80.292 16.9435 79.965 16.8815 79.6041L15.941 74.1203Z" fill="#F2D422"/>
<path d="M5.55859 80.1796C5.64742 80.2441 5.75253 80.2825 5.86204 80.2904C5.97154 80.2983 6.08108 80.2755 6.17826 80.2244L11.103 77.6353C16.4646 80.454 16.0963 80.292 16.3015 80.292C16.4258 80.292 16.5469 80.2527 16.6474 80.1796L11.103 72.5483L5.55859 80.1796Z" fill="#F7AC16"/>
<path d="M11.1031 72.5484L5.55859 80.1796C5.64742 80.2441 5.75253 80.2825 5.86204 80.2904C5.97154 80.2983 6.08108 80.2755 6.17826 80.2244L11.103 77.6353L11.1031 72.5484Z" fill="#F2D422"/>
<path d="M7.73993 77.1777L5.55859 80.1801C5.64742 80.2446 5.75253 80.283 5.86204 80.2909C5.97154 80.2988 6.08108 80.2759 6.17826 80.2248L7.62624 79.4636C7.55241 79.3972 7.4966 79.3132 7.46402 79.2194C7.43143 79.1256 7.42312 79.0251 7.43988 78.9272L7.73993 77.1777Z" fill="#EFB616"/>
</g>
<path d="M26.2821 71.9696C26.2821 70.9495 26.5171 70.0344 26.9872 69.2243C27.4672 68.4142 28.1123 67.7842 28.9224 67.3341C29.7424 66.8741 30.6375 66.6441 31.6076 66.6441C32.7177 66.6441 33.7028 66.9191 34.5629 67.4691C35.433 68.0092 36.063 68.7793 36.4531 69.7794H34.3979C34.1279 69.2293 33.7528 68.8193 33.2728 68.5492C32.7927 68.2792 32.2377 68.1442 31.6076 68.1442C30.9175 68.1442 30.3025 68.2992 29.7624 68.6093C29.2224 68.9193 28.7973 69.3643 28.4873 69.9444C28.1873 70.5244 28.0373 71.1995 28.0373 71.9696C28.0373 72.7396 28.1873 73.4147 28.4873 73.9948C28.7973 74.5748 29.2224 75.0249 29.7624 75.3449C30.3025 75.6549 30.9175 75.8099 31.6076 75.8099C32.2377 75.8099 32.7927 75.6749 33.2728 75.4049C33.7528 75.1349 34.1279 74.7248 34.3979 74.1748H36.4531C36.063 75.1749 35.433 75.945 34.5629 76.485C33.7028 77.0251 32.7177 77.2951 31.6076 77.2951C30.6275 77.2951 29.7324 77.0701 28.9224 76.62C28.1123 76.16 27.4672 75.5249 26.9872 74.7148C26.5171 73.9048 26.2821 72.9897 26.2821 71.9696ZM45.9406 68.9393V77.2051H44.2304V76.23C43.9604 76.57 43.6053 76.84 43.1653 77.0401C42.7352 77.2301 42.2752 77.3251 41.7852 77.3251C41.1351 77.3251 40.55 77.1901 40.03 76.9201C39.5199 76.65 39.1149 76.25 38.8149 75.7199C38.5248 75.1899 38.3798 74.5498 38.3798 73.7998V68.9393H40.075V73.5447C40.075 74.2848 40.26 74.8549 40.63 75.2549C41.0001 75.6449 41.5051 75.8399 42.1452 75.8399C42.7853 75.8399 43.2903 75.6449 43.6603 75.2549C44.0404 74.8549 44.2304 74.2848 44.2304 73.5447V68.9393H45.9406ZM51.1973 77.3401C50.5472 77.3401 49.9622 77.2251 49.4421 76.9951C48.9321 76.755 48.527 76.435 48.227 76.035C47.927 75.6249 47.7669 75.1699 47.7469 74.6698H49.5171C49.5471 75.0199 49.7121 75.3149 50.0122 75.5549C50.3222 75.7849 50.7072 75.9 51.1673 75.9C51.6473 75.9 52.0174 75.8099 52.2774 75.6299C52.5474 75.4399 52.6824 75.1999 52.6824 74.9099C52.6824 74.5998 52.5324 74.3698 52.2324 74.2198C51.9423 74.0698 51.4773 73.9048 50.8372 73.7247C50.2172 73.5547 49.7121 73.3897 49.3221 73.2297C48.9321 73.0697 48.592 72.8247 48.302 72.4946C48.022 72.1646 47.882 71.7296 47.882 71.1895C47.882 70.7495 48.012 70.3494 48.272 69.9894C48.532 69.6193 48.9021 69.3293 49.3821 69.1193C49.8721 68.9093 50.4322 68.8043 51.0623 68.8043C52.0024 68.8043 52.7574 69.0443 53.3275 69.5243C53.9075 69.9944 54.2176 70.6394 54.2576 71.4595H52.5474C52.5174 71.0895 52.3674 70.7945 52.0974 70.5744C51.8273 70.3544 51.4623 70.2444 51.0023 70.2444C50.5522 70.2444 50.2072 70.3294 49.9672 70.4994C49.7271 70.6694 49.6071 70.8945 49.6071 71.1745C49.6071 71.3945 49.6871 71.5795 49.8471 71.7296C50.0072 71.8796 50.2022 71.9996 50.4322 72.0896C50.6622 72.1696 51.0023 72.2746 51.4523 72.4046C52.0524 72.5646 52.5424 72.7296 52.9224 72.8997C53.3125 73.0597 53.6475 73.2997 53.9275 73.6197C54.2076 73.9398 54.3526 74.3648 54.3626 74.8949C54.3626 75.3649 54.2326 75.7849 53.9725 76.155C53.7125 76.525 53.3425 76.815 52.8624 77.0251C52.3924 77.2351 51.8373 77.3401 51.1973 77.3401ZM58.2056 70.3344V74.9099C58.2056 75.2199 58.2756 75.4449 58.4157 75.5849C58.5657 75.7149 58.8157 75.7799 59.1657 75.7799H60.2158V77.2051H58.8657C58.0956 77.2051 57.5056 77.0251 57.0955 76.665C56.6855 76.305 56.4805 75.7199 56.4805 74.9099V70.3344H55.5054V68.9393H56.4805V66.8841H58.2056V68.9393H60.2158V70.3344H58.2056ZM65.3774 77.3401C64.5973 77.3401 63.8922 77.1651 63.2622 76.815C62.6321 76.455 62.1371 75.955 61.777 75.3149C61.417 74.6648 61.237 73.9148 61.237 73.0647C61.237 72.2246 61.422 71.4795 61.792 70.8295C62.1621 70.1794 62.6671 69.6794 63.3072 69.3293C63.9472 68.9793 64.6623 68.8043 65.4524 68.8043C66.2425 68.8043 66.9575 68.9793 67.5976 69.3293C68.2377 69.6794 68.7427 70.1794 69.1127 70.8295C69.4828 71.4795 69.6678 72.2246 69.6678 73.0647C69.6678 73.9048 69.4778 74.6498 69.0977 75.2999C68.7177 75.95 68.1977 76.455 67.5376 76.815C66.8875 77.1651 66.1675 77.3401 65.3774 77.3401ZM65.3774 75.8549C65.8174 75.8549 66.2275 75.7499 66.6075 75.5399C66.9975 75.3299 67.3126 75.0149 67.5526 74.5948C67.7926 74.1748 67.9126 73.6647 67.9126 73.0647C67.9126 72.4646 67.7976 71.9596 67.5676 71.5495C67.3376 71.1295 67.0325 70.8145 66.6525 70.6044C66.2725 70.3944 65.8624 70.2894 65.4224 70.2894C64.9823 70.2894 64.5723 70.3944 64.1923 70.6044C63.8222 70.8145 63.5272 71.1295 63.3072 71.5495C63.0872 71.9596 62.9772 72.4646 62.9772 73.0647C62.9772 73.9548 63.2022 74.6448 63.6522 75.1349C64.1123 75.6149 64.6873 75.8549 65.3774 75.8549ZM81.3644 68.8043C82.0144 68.8043 82.5945 68.9393 83.1045 69.2093C83.6246 69.4793 84.0296 69.8794 84.3196 70.4094C84.6197 70.9395 84.7697 71.5795 84.7697 72.3296V77.2051H83.0745V72.5846C83.0745 71.8446 82.8895 71.2795 82.5195 70.8895C82.1494 70.4894 81.6444 70.2894 81.0043 70.2894C80.3643 70.2894 79.8542 70.4894 79.4742 70.8895C79.1041 71.2795 78.9191 71.8446 78.9191 72.5846V77.2051H77.224V72.5846C77.224 71.8446 77.0389 71.2795 76.6689 70.8895C76.2989 70.4894 75.7938 70.2894 75.1538 70.2894C74.5137 70.2894 74.0036 70.4894 73.6236 70.8895C73.2536 71.2795 73.0686 71.8446 73.0686 72.5846V77.2051H71.3584V68.9393H73.0686V69.8844C73.3486 69.5443 73.7036 69.2793 74.1337 69.0893C74.5637 68.8993 75.0237 68.8043 75.5138 68.8043C76.1739 68.8043 76.7639 68.9443 77.284 69.2243C77.804 69.5043 78.204 69.9094 78.4841 70.4394C78.7341 69.9394 79.1241 69.5443 79.6542 69.2543C80.1842 68.9543 80.7543 68.8043 81.3644 68.8043ZM94.5216 72.8697C94.5216 73.1797 94.5016 73.4597 94.4615 73.7097H88.1459C88.1959 74.3698 88.441 74.8999 88.881 75.2999C89.3211 75.6999 89.8611 75.9 90.5012 75.9C91.4213 75.9 92.0713 75.5149 92.4514 74.7448H94.2965C94.0465 75.5049 93.5915 76.13 92.9314 76.62C92.2813 77.1001 91.4713 77.3401 90.5012 77.3401C89.7111 77.3401 89.001 77.1651 88.371 76.815C87.7509 76.455 87.2609 75.955 86.9008 75.3149C86.5508 74.6648 86.3758 73.9148 86.3758 73.0647C86.3758 72.2146 86.5458 71.4695 86.8858 70.8295C87.2359 70.1794 87.7209 69.6794 88.341 69.3293C88.971 68.9793 89.6911 68.8043 90.5012 68.8043C91.2812 68.8043 91.9763 68.9743 92.5864 69.3143C93.1964 69.6544 93.6715 70.1344 94.0115 70.7545C94.3515 71.3645 94.5216 72.0696 94.5216 72.8697ZM92.7364 72.3296C92.7264 71.6995 92.5014 71.1945 92.0613 70.8145C91.6213 70.4344 91.0762 70.2444 90.4262 70.2444C89.8361 70.2444 89.3311 70.4344 88.911 70.8145C88.491 71.1845 88.2409 71.6895 88.1609 72.3296H92.7364ZM97.9147 70.1394C98.1647 69.7194 98.4948 69.3943 98.9048 69.1643C99.3248 68.9243 99.8199 68.8043 100.39 68.8043V70.5744H99.9549C99.2848 70.5744 98.7748 70.7445 98.4247 71.0845C98.0847 71.4245 97.9147 72.0146 97.9147 72.8547V77.2051H96.2045V68.9393H97.9147V70.1394ZM111.274 77.2051L108.874 73.0347H107.569V77.2051H105.859V66.7791H109.459C110.259 66.7791 110.934 66.9191 111.484 67.1991C112.044 67.4791 112.459 67.8542 112.729 68.3242C113.009 68.7943 113.149 69.3193 113.149 69.8994C113.149 70.5794 112.949 71.1995 112.549 71.7596C112.159 72.3096 111.554 72.6846 110.734 72.8847L113.314 77.2051H111.274ZM107.569 71.6695H109.459C110.099 71.6695 110.579 71.5095 110.899 71.1895C111.229 70.8695 111.394 70.4394 111.394 69.8994C111.394 69.3593 111.234 68.9393 110.914 68.6393C110.594 68.3292 110.109 68.1742 109.459 68.1742H107.569V71.6695ZM122.913 72.8697C122.913 73.1797 122.893 73.4597 122.853 73.7097H116.537C116.587 74.3698 116.832 74.8999 117.272 75.2999C117.712 75.6999 118.253 75.9 118.893 75.9C119.813 75.9 120.463 75.5149 120.843 74.7448H122.688C122.438 75.5049 121.983 76.13 121.323 76.62C120.673 77.1001 119.863 77.3401 118.893 77.3401C118.102 77.3401 117.392 77.1651 116.762 76.815C116.142 76.455 115.652 75.955 115.292 75.3149C114.942 74.6648 114.767 73.9148 114.767 73.0647C114.767 72.2146 114.937 71.4695 115.277 70.8295C115.627 70.1794 116.112 69.6794 116.732 69.3293C117.362 68.9793 118.082 68.8043 118.893 68.8043C119.673 68.8043 120.368 68.9743 120.978 69.3143C121.588 69.6544 122.063 70.1344 122.403 70.7545C122.743 71.3645 122.913 72.0696 122.913 72.8697ZM121.128 72.3296C121.118 71.6995 120.893 71.1945 120.453 70.8145C120.013 70.4344 119.468 70.2444 118.818 70.2444C118.228 70.2444 117.722 70.4344 117.302 70.8145C116.882 71.1845 116.632 71.6895 116.552 72.3296H121.128ZM127.791 75.6749L130.131 68.9393H131.947L128.796 77.2051H126.756L123.621 68.9393H125.451L127.791 75.6749ZM134.109 67.8442C133.799 67.8442 133.539 67.7392 133.329 67.5291C133.119 67.3191 133.014 67.0591 133.014 66.7491C133.014 66.439 133.119 66.179 133.329 65.969C133.539 65.759 133.799 65.654 134.109 65.654C134.409 65.654 134.664 65.759 134.874 65.969C135.085 66.179 135.19 66.439 135.19 66.7491C135.19 67.0591 135.085 67.3191 134.874 67.5291C134.664 67.7392 134.409 67.8442 134.109 67.8442ZM134.949 68.9393V77.2051H133.239V68.9393H134.949ZM144.771 72.8697C144.771 73.1797 144.751 73.4597 144.711 73.7097H138.395C138.445 74.3698 138.69 74.8999 139.13 75.2999C139.57 75.6999 140.11 75.9 140.75 75.9C141.67 75.9 142.32 75.5149 142.7 74.7448H144.546C144.295 75.5049 143.84 76.13 143.18 76.62C142.53 77.1001 141.72 77.3401 140.75 77.3401C139.96 77.3401 139.25 77.1651 138.62 76.815C138 76.455 137.51 75.955 137.15 75.3149C136.8 74.6648 136.625 73.9148 136.625 73.0647C136.625 72.2146 136.795 71.4695 137.135 70.8295C137.485 70.1794 137.97 69.6794 138.59 69.3293C139.22 68.9793 139.94 68.8043 140.75 68.8043C141.53 68.8043 142.225 68.9743 142.835 69.3143C143.445 69.6544 143.92 70.1344 144.26 70.7545C144.601 71.3645 144.771 72.0696 144.771 72.8697ZM142.985 72.3296C142.975 71.6995 142.75 71.1945 142.31 70.8145C141.87 70.4344 141.325 70.2444 140.675 70.2444C140.085 70.2444 139.58 70.4344 139.16 70.8145C138.74 71.1845 138.49 71.6895 138.41 72.3296H142.985ZM157.555 68.9393L154.989 77.2051H153.189L151.524 71.0995L149.859 77.2051H148.059L145.478 68.9393H147.219L148.944 75.5849L150.699 68.9393H152.484L154.164 75.5549L155.874 68.9393H157.555ZM161.833 77.3401C161.183 77.3401 160.598 77.2251 160.078 76.9951C159.568 76.755 159.163 76.435 158.863 76.035C158.563 75.6249 158.403 75.1699 158.383 74.6698H160.153C160.183 75.0199 160.348 75.3149 160.648 75.5549C160.958 75.7849 161.343 75.9 161.803 75.9C162.283 75.9 162.653 75.8099 162.913 75.6299C163.183 75.4399 163.318 75.1999 163.318 74.9099C163.318 74.5998 163.168 74.3698 162.868 74.2198C162.578 74.0698 162.113 73.9048 161.473 73.7247C160.853 73.5547 160.348 73.3897 159.958 73.2297C159.568 73.0697 159.228 72.8247 158.938 72.4946C158.658 72.1646 158.518 71.7296 158.518 71.1895C158.518 70.7495 158.648 70.3494 158.908 69.9894C159.168 69.6193 159.538 69.3293 160.018 69.1193C160.508 68.9093 161.068 68.8043 161.698 68.8043C162.638 68.8043 163.393 69.0443 163.963 69.5243C164.543 69.9944 164.853 70.6394 164.893 71.4595H163.183C163.153 71.0895 163.003 70.7945 162.733 70.5744C162.463 70.3544 162.098 70.2444 161.638 70.2444C161.188 70.2444 160.843 70.3294 160.603 70.4994C160.363 70.6694 160.243 70.8945 160.243 71.1745C160.243 71.3945 160.323 71.5795 160.483 71.7296C160.643 71.8796 160.838 71.9996 161.068 72.0896C161.298 72.1696 161.638 72.2746 162.088 72.4046C162.688 72.5646 163.178 72.7296 163.558 72.8997C163.948 73.0597 164.283 73.2997 164.563 73.6197C164.843 73.9398 164.988 74.3648 164.998 74.8949C164.998 75.3649 164.868 75.7849 164.608 76.155C164.348 76.525 163.978 76.815 163.498 77.0251C163.028 77.2351 162.473 77.3401 161.833 77.3401Z" fill="#606060"/>
<g clip-path="url(#clip1_2755_15262)">
<path fill-rule="evenodd" clip-rule="evenodd" d="M23.7334 38.161H12.4695V41.4948H20.4584C20.0636 46.1699 16.1638 48.1637 12.483 48.1637C7.77361 48.1637 3.66414 44.468 3.66414 39.2878C3.66414 34.2415 7.58167 30.3555 12.4932 30.3555C16.2829 30.3555 18.516 32.7649 18.516 32.7649L20.8558 30.3476C20.8558 30.3476 17.8523 27.0122 12.3737 27.0122C5.3976 27.0118 0 32.8848 0 39.2284C0 45.444 5.0767 51.5054 12.5517 51.5054C19.1254 51.5051 23.9374 47.0135 23.9374 40.3714C23.9374 38.97 23.7334 38.1602 23.7334 38.1602V38.161Z" fill="#176BEF"/>
<path fill-rule="evenodd" clip-rule="evenodd" d="M33.0037 38.8386C35.2768 38.8386 37.4307 40.6714 37.4307 43.6246C37.4307 46.5158 35.2858 48.4005 32.9935 48.4005C30.4746 48.4005 28.487 46.3887 28.487 43.6021C28.487 40.8749 30.4493 38.8386 33.0037 38.8386ZM32.9577 35.7466C28.3358 35.7466 25.0234 39.3505 25.0234 43.5543C25.0234 47.8194 28.2366 51.4907 33.012 51.4907C37.3353 51.4907 40.8776 48.1948 40.8776 43.6457C40.8776 38.4317 36.7572 35.7466 32.9577 35.7466Z" fill="#FF3E30"/>
<path fill-rule="evenodd" clip-rule="evenodd" d="M50.2592 38.8386C52.5326 38.8386 54.6865 40.6714 54.6865 43.6246C54.6865 46.5158 52.5413 48.4005 50.249 48.4005C47.7304 48.4005 45.7432 46.3887 45.7432 43.6021C45.7432 40.8749 47.7056 38.8386 50.2592 38.8386ZM50.2135 35.7466C45.592 35.7466 42.2793 39.3505 42.2793 43.5543C42.2793 47.8194 45.4921 51.4907 50.2678 51.4907C54.5911 51.4907 58.1331 48.1948 58.1331 43.6457C58.1331 38.4317 54.0131 35.7466 50.2135 35.7466Z" fill="#F7B529"/>
<path fill-rule="evenodd" clip-rule="evenodd" d="M67.445 38.8404C69.525 38.8404 71.6608 40.6115 71.6608 43.6366C71.6608 46.7117 69.5292 48.4065 67.399 48.4065C65.1376 48.4065 63.0331 46.5748 63.0331 43.6659C63.0331 40.6435 65.2187 38.8404 67.445 38.8404ZM67.1377 35.7544C62.8955 35.7544 59.5605 39.4606 59.5605 43.6204C59.5605 48.3583 63.4268 51.5007 67.0645 51.5007C69.3142 51.5007 70.5103 50.6101 71.3939 49.5882V51.1401C71.3939 53.8563 69.74 55.483 67.2444 55.483C64.8337 55.4827 63.6248 53.695 63.2047 52.6802L60.171 53.9451C61.2472 56.2142 63.4136 58.5811 67.2697 58.5811C71.4877 58.5811 74.7024 55.931 74.7024 50.3735V36.2275H71.3939V37.5612C70.3765 36.4675 68.9847 35.7544 67.1377 35.7544Z" fill="#176BEF"/>
<path fill-rule="evenodd" clip-rule="evenodd" d="M89.5565 38.7634C90.9985 38.7634 92.0362 39.5277 92.477 40.4447L85.4097 43.3911C85.105 41.11 87.2717 38.7634 89.5565 38.7634ZM89.4185 35.7354C85.4165 35.7354 82.0566 38.9113 82.0566 43.5972C82.0566 48.5559 85.8018 51.4967 89.8027 51.4967C93.1422 51.4967 95.1916 49.6745 96.4153 48.0418L93.6863 46.2312C92.9785 47.3272 91.7949 48.398 89.8197 48.398C87.6013 48.398 86.5809 47.1861 85.9485 46.0126L96.5318 41.6324L95.9824 40.3488C94.9597 37.8352 92.5747 35.7357 89.4188 35.7357L89.4185 35.7354Z" fill="#FF3E30"/>
<path fill-rule="evenodd" clip-rule="evenodd" d="M77.0078 51.0297H80.4842V27.8262H77.0078V51.0297Z" fill="#179C52"/>
</g>
<defs>
<clipPath id="clip0_2755_15262">
<rect width="18" height="18" fill="white" transform="translate(2.10156 62.7051)"/>
</clipPath>
<clipPath id="clip1_2755_15262">
<rect width="97.0827" height="31.5935" fill="white" transform="translate(0 27)"/>
</clipPath>
</defs>
</svg>
