<svg width="172" height="84" viewBox="0 0 172 84" fill="none" xmlns="http://www.w3.org/2000/svg">
<path d="M8.26542 1.94526C8.76954 1.07975 9.0216 0.646998 9.39844 0.646998C9.77528 0.646998 10.0273 1.07975 10.5315 1.94526L11.5322 3.66352C11.6755 3.90948 11.7471 4.03245 11.8588 4.11359C11.9705 4.19473 12.1096 4.22485 12.3878 4.28509L14.3312 4.70593C15.3101 4.91792 15.7996 5.02391 15.916 5.38231C16.0325 5.7407 15.6988 6.11415 15.0314 6.86105L13.7065 8.34384C13.5169 8.55608 13.4221 8.6622 13.3794 8.79349C13.3367 8.92478 13.3511 9.06637 13.3797 9.34955L13.5801 11.3279C13.681 12.3244 13.7314 12.8227 13.4265 13.0442C13.1217 13.2657 12.6634 13.0637 11.7468 12.6598L9.92717 11.858C9.66671 11.7432 9.53648 11.6858 9.39844 11.6858C9.26039 11.6858 9.13016 11.7432 8.8697 11.858L7.05007 12.6598C6.1335 13.0637 5.67522 13.2657 5.37034 13.0442C5.06547 12.8227 5.11592 12.3244 5.21682 11.3279L5.41713 9.34955C5.4458 9.06637 5.46013 8.92478 5.41748 8.79349C5.37482 8.6622 5.27999 8.55608 5.09035 8.34384L3.76545 6.86105C3.09808 6.11415 2.76439 5.7407 2.88085 5.38231C2.9973 5.02391 3.48676 4.91792 4.46569 4.70593L6.40912 4.28509C6.6873 4.22485 6.82639 4.19473 6.93807 4.11359C7.04975 4.03245 7.12137 3.90947 7.26463 3.66352L8.26542 1.94526Z" fill="#FFC121"/>
<path d="M25.9646 1.94526C26.4688 1.07975 26.7208 0.646998 27.0977 0.646998C27.4745 0.646998 27.7266 1.07975 28.2307 1.94526L29.2315 3.66352C29.3747 3.90948 29.4463 4.03245 29.558 4.11359C29.6697 4.19473 29.8088 4.22485 30.087 4.28509L32.0304 4.70593C33.0093 4.91792 33.4988 5.02391 33.6152 5.38231C33.7317 5.7407 33.398 6.11415 32.7306 6.86105L31.4057 8.34384C31.2161 8.55608 31.1213 8.6622 31.0786 8.79349C31.036 8.92478 31.0503 9.06637 31.079 9.34955L31.2793 11.3279C31.3802 12.3244 31.4306 12.8227 31.1258 13.0442C30.8209 13.2657 30.3626 13.0637 29.446 12.6598L27.6264 11.858C27.3659 11.7432 27.2357 11.6858 27.0977 11.6858C26.9596 11.6858 26.8294 11.7432 26.5689 11.858L24.7493 12.6598C23.8327 13.0637 23.3744 13.2657 23.0696 13.0442C22.7647 12.8227 22.8151 12.3244 22.916 11.3279L23.1163 9.34955C23.145 9.06637 23.1594 8.92478 23.1167 8.79349C23.074 8.6622 22.9792 8.55608 22.7896 8.34384L21.4647 6.86105C20.7973 6.11415 20.4636 5.7407 20.5801 5.38231C20.6965 5.02391 21.186 4.91792 22.1649 4.70593L24.1083 4.28509C24.3865 4.22485 24.5256 4.19473 24.6373 4.11359C24.749 4.03245 24.8206 3.90947 24.9638 3.66352L25.9646 1.94526Z" fill="#FFC121"/>
<path d="M43.6678 1.94526C44.1719 1.07975 44.4239 0.646998 44.8008 0.646998C45.1776 0.646998 45.4297 1.07975 45.9338 1.94526L46.9346 3.66352C47.0778 3.90948 47.1495 4.03245 47.2612 4.11359C47.3728 4.19473 47.5119 4.22485 47.7901 4.28509L49.7335 4.70593C50.7125 4.91792 51.2019 5.02391 51.3184 5.38231C51.4348 5.7407 51.1011 6.11415 50.4338 6.86105L49.1089 8.34384C48.9192 8.55608 48.8244 8.6622 48.7817 8.79349C48.7391 8.92478 48.7534 9.06637 48.7821 9.34955L48.9824 11.3279C49.0833 12.3244 49.1337 12.8227 48.8289 13.0442C48.524 13.2657 48.0657 13.0637 47.1491 12.6598L45.3295 11.858C45.0691 11.7432 44.9388 11.6858 44.8008 11.6858C44.6627 11.6858 44.5325 11.7432 44.272 11.858L42.4524 12.6598C41.5358 13.0637 41.0776 13.2657 40.7727 13.0442C40.4678 12.8227 40.5183 12.3244 40.6192 11.3279L40.8195 9.34955C40.8481 9.06637 40.8625 8.92478 40.8198 8.79349C40.7772 8.6622 40.6823 8.55608 40.4927 8.34384L39.1678 6.86105C38.5004 6.11415 38.1667 5.7407 38.2832 5.38231C38.3996 5.02391 38.8891 4.91792 39.868 4.70593L41.8115 4.28509C42.0896 4.22485 42.2287 4.19473 42.3404 4.11359C42.4521 4.03245 42.5237 3.90947 42.667 3.66352L43.6678 1.94526Z" fill="#FFC121"/>
<path d="M61.367 1.94526C61.8711 1.07975 62.1232 0.646998 62.5 0.646998C62.8768 0.646998 63.1289 1.07975 63.633 1.94526L64.6338 3.66352C64.7771 3.90948 64.8487 4.03245 64.9604 4.11359C65.0721 4.19473 65.2111 4.22485 65.4893 4.28509L67.4327 4.70593C68.4117 4.91792 68.9011 5.02391 69.0176 5.38231C69.134 5.7407 68.8004 6.11415 68.133 6.86105L66.8081 8.34384C66.6184 8.55608 66.5236 8.6622 66.481 8.79349C66.4383 8.92478 66.4526 9.06637 66.4813 9.34955L66.6816 11.3279C66.7825 12.3244 66.833 12.8227 66.5281 13.0442C66.2232 13.2657 65.7649 13.0637 64.8484 12.6598L63.0287 11.858C62.7683 11.7432 62.638 11.6858 62.5 11.6858C62.362 11.6858 62.2317 11.7432 61.9713 11.858L60.1516 12.6598C59.2351 13.0637 58.7768 13.2657 58.4719 13.0442C58.167 12.8227 58.2175 12.3244 58.3184 11.3279L58.5187 9.34955C58.5474 9.06637 58.5617 8.92478 58.519 8.79349C58.4764 8.6622 58.3816 8.55608 58.1919 8.34384L56.867 6.86105C56.1996 6.11415 55.866 5.7407 55.9824 5.38231C56.0989 5.02391 56.5883 4.91792 57.5673 4.70593L59.5107 4.28509C59.7889 4.22485 59.9279 4.19473 60.0396 4.11359C60.1513 4.03245 60.2229 3.90947 60.3662 3.66352L61.367 1.94526Z" fill="#FFC121"/>
<path d="M79.0701 1.94526C79.5742 1.07975 79.8263 0.646998 80.2031 0.646998C80.58 0.646998 80.832 1.07975 81.3361 1.94526L82.3369 3.66352C82.4802 3.90948 82.5518 4.03245 82.6635 4.11359C82.7752 4.19473 82.9143 4.22485 83.1924 4.28509L85.1359 4.70593C86.1148 4.91792 86.6043 5.02391 86.7207 5.38231C86.8372 5.7407 86.5035 6.11415 85.8361 6.86105L84.5112 8.34384C84.3216 8.55608 84.2267 8.6622 84.1841 8.79349C84.1414 8.92478 84.1558 9.06637 84.1844 9.34955L84.3847 11.3279C84.4856 12.3244 84.5361 12.8227 84.2312 13.0442C83.9263 13.2657 83.4681 13.0637 82.5515 12.6598L80.7319 11.858C80.4714 11.7432 80.3412 11.6858 80.2031 11.6858C80.0651 11.6858 79.9349 11.7432 79.6744 11.858L77.8548 12.6598C76.9382 13.0637 76.4799 13.2657 76.175 13.0442C75.8702 12.8227 75.9206 12.3244 76.0215 11.3279L76.2218 9.34955C76.2505 9.06637 76.2648 8.92478 76.2222 8.79349C76.1795 8.6622 76.0847 8.55608 75.895 8.34384L74.5701 6.86105C73.9028 6.11415 73.5691 5.7407 73.6855 5.38231C73.802 5.02391 74.2914 4.91792 75.2704 4.70593L77.2138 4.28509C77.492 4.22485 77.6311 4.19473 77.7428 4.11359C77.8544 4.03245 77.9261 3.90947 78.0693 3.66352L79.0701 1.94526Z" fill="#FFC121"/>
<g clip-path="url(#clip0_8172_16021)">
<path d="M17.4961 69.2335L11.9901 68.4334L9.52766 63.4441C9.31229 63.0077 8.68788 63.0075 8.47234 63.4441L6.01 68.4334L0.504 69.2335C0.0224653 69.3035 -0.170929 69.8972 0.177891 70.2372L4.16204 74.1208L3.22147 79.6046C3.20291 79.7128 3.21499 79.824 3.25636 79.9257C3.29773 80.0274 3.36673 80.1155 3.45555 80.1801C3.54438 80.2446 3.6495 80.283 3.75901 80.2909C3.86852 80.2988 3.97806 80.2759 4.07524 80.2248L9 77.6358C14.3615 80.4545 13.9933 80.2925 14.1985 80.2925C14.5612 80.2925 14.8404 79.9655 14.7785 79.6046L13.838 74.1208L17.8222 70.2372C18.1706 69.8975 17.978 69.3036 17.4961 69.2335Z" fill="#F7AC16"/>
<path d="M9.00004 63.1155C8.89023 63.1155 8.78262 63.1462 8.68936 63.2042C8.5961 63.2621 8.52092 63.345 8.47231 63.4435L6.00996 68.4328L0.504 69.2329C0.0224653 69.3029 -0.170929 69.8966 0.177891 70.2366L4.16204 74.1202L3.22147 79.6039C3.20291 79.7122 3.21499 79.8234 3.25636 79.9251C3.29773 80.0268 3.36673 80.1149 3.45555 80.1795C3.54438 80.244 3.6495 80.2824 3.75901 80.2903C3.86852 80.2982 3.97806 80.2753 4.07524 80.2242L9 77.6352H9.00004V63.1155Z" fill="#F2D422"/>
<path d="M0.504 69.2329C0.0224653 69.3029 -0.170929 69.8967 0.177891 70.2366L4.16204 74.1203L3.22147 79.604C3.20291 79.7122 3.21499 79.8235 3.25636 79.9252C3.29773 80.0269 3.36673 80.115 3.45555 80.1795C3.54438 80.2441 3.6495 80.2825 3.75901 80.2904C3.86852 80.2983 3.97806 80.2754 4.07524 80.2243L9 77.6353C14.3615 80.4539 13.9933 80.2919 14.1985 80.2919C14.3228 80.292 14.4439 80.2526 14.5444 80.1796L6.00996 68.4329L0.504 69.2329Z" fill="#F7AC16"/>
<path d="M6.27743 73.4428C2.00967 69.2827 2.19312 69.5057 2.13585 69.2899C2.11254 69.2033 2.10776 69.1024 2.13311 68.9961L0.504 69.2328C0.0224653 69.3028 -0.170929 69.8965 0.177891 70.2365L4.16204 74.1201L3.22147 79.6039C3.20291 79.7121 3.21499 79.8234 3.25636 79.9251C3.29773 80.0268 3.36673 80.1149 3.45555 80.1794C3.54438 80.244 3.6495 80.2823 3.75901 80.2903C3.86852 80.2982 3.97806 80.2753 4.07524 80.2242L5.52322 79.463C5.4494 79.3965 5.39359 79.3125 5.361 79.2187C5.32841 79.1249 5.32011 79.0244 5.33686 78.9265L6.27743 73.4428Z" fill="#F48B19"/>
<path d="M0.175723 70.2368L4.15987 74.1204L3.2193 79.6041C3.20074 79.7124 3.21283 79.8236 3.25419 79.9253C3.29556 80.027 3.36456 80.1151 3.45339 80.1797C3.54221 80.2442 3.64733 80.2826 3.75684 80.2905C3.86635 80.2984 3.97589 80.2755 4.07307 80.2244L8.99783 77.6354C14.3594 80.4541 13.9911 80.2921 14.1964 80.2921C14.559 80.2921 14.8383 79.9651 14.7764 79.6041L13.8358 74.1204L0.0267656 69.6335C-0.0420351 69.8802 0.026836 70.0917 0.175723 70.2368Z" fill="#F2D422"/>
<path d="M0.175723 70.2368L4.15988 74.1204L3.21931 79.6041C3.20074 79.7124 3.21283 79.8236 3.25419 79.9253C3.29556 80.027 3.36456 80.1151 3.45339 80.1797C3.54221 80.2442 3.64733 80.2826 3.75684 80.2905C3.86635 80.2984 3.97589 80.2755 4.07307 80.2244L5.52106 79.4632C5.44723 79.3968 5.39142 79.3128 5.35883 79.219C5.32625 79.1252 5.31794 79.0247 5.33469 78.9268L6.27526 73.443L3.53736 70.7742L0.0267656 69.6335C-0.0420351 69.8802 0.026836 70.0917 0.175723 70.2368Z" fill="#EFB616"/>
<path d="M3.21941 79.6041C3.20085 79.7123 3.21293 79.8236 3.2543 79.9253C3.29566 80.027 3.36466 80.1151 3.45349 80.1796C3.54232 80.2442 3.64743 80.2826 3.75694 80.2905C3.86645 80.2984 3.976 80.2755 4.07318 80.2244L8.99794 77.6354C14.3595 80.454 13.9912 80.292 14.1965 80.292C14.5591 80.292 14.8384 79.9651 14.7765 79.6041L13.8359 74.1204L17.8201 70.2367C17.8987 70.1601 17.9543 70.063 17.9806 69.9564C18.0069 69.8498 18.0029 69.738 17.969 69.6335L4.15998 74.1204L3.21941 79.6041Z" fill="#F7AC16"/>
<path d="M3.21941 79.6039C3.20085 79.7121 3.21293 79.8234 3.2543 79.9251C3.29566 80.0268 3.36466 80.1149 3.45349 80.1794C3.54232 80.2439 3.64743 80.2823 3.75694 80.2903C3.86645 80.2982 3.976 80.2753 4.07318 80.2242L5.52116 79.4629C5.44733 79.3965 5.39153 79.3125 5.35894 79.2187C5.32635 79.1249 5.31805 79.0244 5.3348 78.9265L6.27537 73.4428L6.26767 73.4353L4.15998 74.1201L3.21941 79.6039Z" fill="#F48B19"/>
<path d="M4.07673 80.2243L9.00145 77.6353C14.363 80.4539 13.9947 80.2919 14.2 80.2919C14.5626 80.2919 14.8419 79.965 14.78 79.604L13.8394 74.1202L17.8236 70.2366C18.172 69.8969 17.9794 69.303 17.4975 69.2329L11.9915 68.4329L3.45703 80.1795C3.54587 80.244 3.65098 80.2824 3.76049 80.2903C3.87001 80.2982 3.97955 80.2754 4.07673 80.2243Z" fill="#F2D422"/>
<path d="M17.9726 69.6335L9.00145 72.5484L3.45703 80.1797C3.54586 80.2442 3.65097 80.2826 3.76048 80.2905C3.86998 80.2984 3.97952 80.2755 4.0767 80.2244L9.00145 77.6354C14.363 80.4541 13.9947 80.2921 14.2 80.2921C14.5626 80.2921 14.8419 79.9651 14.78 79.6041L13.8394 74.1204L17.8236 70.2368C17.9022 70.1601 17.9579 70.063 17.9842 69.9564C18.0105 69.8498 18.0065 69.738 17.9726 69.6335Z" fill="#F7AC16"/>
<path d="M13.8395 74.1201L9.00145 72.5481L3.45703 80.1794C3.54586 80.2439 3.65097 80.2823 3.76048 80.2902C3.86998 80.2981 3.97952 80.2752 4.0767 80.2241L9.00145 77.6351C14.363 80.4538 13.9947 80.2918 14.2 80.2918C14.5626 80.2918 14.8419 79.9648 14.78 79.6038L13.8395 74.1201Z" fill="#F2D422"/>
<path d="M3.45703 80.1794C3.54586 80.2439 3.65097 80.2823 3.76048 80.2902C3.86998 80.2981 3.97952 80.2752 4.0767 80.2241L9.00145 77.6351C14.363 80.4538 13.9947 80.2918 14.2 80.2918C14.3243 80.2918 14.4453 80.2524 14.5459 80.1794L9.00145 72.5481L3.45703 80.1794Z" fill="#F7AC16"/>
<path d="M9.00149 72.5482L3.45703 80.1794C3.54586 80.2439 3.65097 80.2823 3.76048 80.2902C3.86998 80.2981 3.97952 80.2752 4.0767 80.2241L9.00145 77.6351L9.00149 72.5482Z" fill="#F2D422"/>
<path d="M5.63837 77.1775L3.45703 80.1798C3.54586 80.2444 3.65097 80.2828 3.76048 80.2907C3.86998 80.2986 3.97952 80.2757 4.0767 80.2246L5.52468 79.4633C5.45085 79.3969 5.39504 79.3129 5.36245 79.2191C5.32987 79.1253 5.32156 79.0248 5.33831 78.9269L5.63837 77.1775Z" fill="#EFB616"/>
</g>
<path d="M24.3135 72.1211C24.3135 71.0331 24.5588 70.0571 25.0495 69.1931C25.5402 68.3184 26.2068 67.6357 27.0495 67.1451C27.9028 66.6544 28.8468 66.4091 29.8815 66.4091C31.0975 66.4091 32.1588 66.7024 33.0655 67.2891C33.9722 67.8757 34.6335 68.7077 35.0495 69.7851H33.3055C32.9962 69.1131 32.5482 68.5957 31.9615 68.2331C31.3855 67.8704 30.6922 67.6891 29.8815 67.6891C29.1028 67.6891 28.4042 67.8704 27.7855 68.2331C27.1668 68.5957 26.6815 69.1131 26.3295 69.7851C25.9775 70.4464 25.8015 71.2251 25.8015 72.1211C25.8015 73.0064 25.9775 73.7851 26.3295 74.4571C26.6815 75.1184 27.1668 75.6304 27.7855 75.9931C28.4042 76.3557 29.1028 76.5371 29.8815 76.5371C30.6922 76.5371 31.3855 76.3611 31.9615 76.0091C32.5482 75.6464 32.9962 75.1291 33.3055 74.4571H35.0495C34.6335 75.5237 33.9722 76.3504 33.0655 76.9371C32.1588 77.5131 31.0975 77.8011 29.8815 77.8011C28.8468 77.8011 27.9028 77.5611 27.0495 77.0811C26.2068 76.5904 25.5402 75.9131 25.0495 75.0491C24.5588 74.1851 24.3135 73.2091 24.3135 72.1211ZM44.9929 68.9371V77.7051H43.5369V76.4091C43.2595 76.8571 42.8702 77.2091 42.3689 77.4651C41.8782 77.7104 41.3342 77.8331 40.7369 77.8331C40.0542 77.8331 39.4409 77.6944 38.8969 77.4171C38.3529 77.1291 37.9209 76.7024 37.6009 76.1371C37.2915 75.5717 37.1369 74.8837 37.1369 74.0731V68.9371H38.5769V73.8811C38.5769 74.7451 38.7955 75.4117 39.2329 75.8811C39.6702 76.3397 40.2675 76.5691 41.0249 76.5691C41.8035 76.5691 42.4169 76.3291 42.8649 75.8491C43.3129 75.3691 43.5369 74.6704 43.5369 73.7531V68.9371H44.9929ZM50.5552 77.8491C49.8832 77.8491 49.2806 77.7371 48.7472 77.5131C48.2139 77.2784 47.7926 76.9584 47.4832 76.5531C47.1739 76.1371 47.0032 75.6624 46.9712 75.1291H48.4752C48.5179 75.5664 48.7206 75.9237 49.0832 76.2011C49.4566 76.4784 49.9419 76.6171 50.5392 76.6171C51.0939 76.6171 51.5312 76.4944 51.8512 76.2491C52.1712 76.0037 52.3312 75.6944 52.3312 75.3211C52.3312 74.9371 52.1606 74.6544 51.8192 74.4731C51.4779 74.2811 50.9499 74.0944 50.2352 73.9131C49.5846 73.7424 49.0512 73.5717 48.6352 73.4011C48.2299 73.2197 47.8779 72.9584 47.5792 72.6171C47.2912 72.2651 47.1472 71.8064 47.1472 71.2411C47.1472 70.7931 47.2806 70.3824 47.5472 70.0091C47.8139 69.6357 48.1926 69.3424 48.6832 69.1291C49.1739 68.9051 49.7339 68.7931 50.3632 68.7931C51.3339 68.7931 52.1179 69.0384 52.7152 69.5291C53.3126 70.0197 53.6326 70.6917 53.6752 71.5451H52.2192C52.1872 71.0864 52.0006 70.7184 51.6592 70.4411C51.3286 70.1637 50.8806 70.0251 50.3152 70.0251C49.7926 70.0251 49.3766 70.1371 49.0672 70.3611C48.7579 70.5851 48.6032 70.8784 48.6032 71.2411C48.6032 71.5291 48.6939 71.7691 48.8752 71.9611C49.0672 72.1424 49.3019 72.2917 49.5792 72.4091C49.8672 72.5157 50.2619 72.6384 50.7632 72.7771C51.3926 72.9477 51.9046 73.1184 52.2992 73.2891C52.6939 73.4491 53.0299 73.6944 53.3072 74.0251C53.5952 74.3557 53.7446 74.7877 53.7552 75.3211C53.7552 75.8011 53.6219 76.2331 53.3552 76.6171C53.0886 77.0011 52.7099 77.3051 52.2192 77.5291C51.7392 77.7424 51.1846 77.8491 50.5552 77.8491ZM57.5866 70.1371V75.3051C57.5866 75.7317 57.6773 76.0357 57.8586 76.2171C58.0399 76.3877 58.3546 76.4731 58.8026 76.4731H59.8746V77.7051H58.5626C57.7519 77.7051 57.1439 77.5184 56.7386 77.1451C56.3333 76.7717 56.1306 76.1584 56.1306 75.3051V70.1371H54.9946V68.9371H56.1306V66.7291H57.5866V68.9371H59.8746V70.1371H57.5866ZM65.4627 77.8491C64.6414 77.8491 63.8947 77.6624 63.2227 77.2891C62.5614 76.9157 62.0387 76.3877 61.6547 75.7051C61.2814 75.0117 61.0947 74.2117 61.0947 73.3051C61.0947 72.4091 61.2867 71.6197 61.6707 70.9371C62.0654 70.2437 62.5987 69.7157 63.2707 69.3531C63.9427 68.9797 64.6947 68.7931 65.5267 68.7931C66.3587 68.7931 67.1107 68.9797 67.7827 69.3531C68.4547 69.7157 68.9827 70.2384 69.3667 70.9211C69.7614 71.6037 69.9587 72.3984 69.9587 73.3051C69.9587 74.2117 69.7561 75.0117 69.3507 75.7051C68.9561 76.3877 68.4174 76.9157 67.7347 77.2891C67.0521 77.6624 66.2947 77.8491 65.4627 77.8491ZM65.4627 76.5691C65.9854 76.5691 66.4761 76.4464 66.9347 76.2011C67.3934 75.9557 67.7614 75.5877 68.0387 75.0971C68.3267 74.6064 68.4707 74.0091 68.4707 73.3051C68.4707 72.6011 68.3321 72.0037 68.0547 71.5131C67.7774 71.0224 67.4147 70.6597 66.9667 70.4251C66.5187 70.1797 66.0334 70.0571 65.5107 70.0571C64.9774 70.0571 64.4867 70.1797 64.0387 70.4251C63.6014 70.6597 63.2494 71.0224 62.9827 71.5131C62.7161 72.0037 62.5827 72.6011 62.5827 73.3051C62.5827 74.0197 62.7107 74.6224 62.9667 75.1131C63.2334 75.6037 63.5854 75.9717 64.0227 76.2171C64.4601 76.4517 64.9401 76.5691 65.4627 76.5691ZM82.4171 68.7771C83.0998 68.7771 83.7078 68.9211 84.2411 69.2091C84.7744 69.4864 85.1958 69.9077 85.5051 70.4731C85.8144 71.0384 85.9691 71.7264 85.9691 72.5371V77.7051H84.5291V72.7451C84.5291 71.8704 84.3104 71.2037 83.8731 70.7451C83.4464 70.2757 82.8651 70.0411 82.1291 70.0411C81.3718 70.0411 80.7691 70.2864 80.3211 70.7771C79.8731 71.2571 79.6491 71.9557 79.6491 72.8731V77.7051H78.2091V72.7451C78.2091 71.8704 77.9904 71.2037 77.5531 70.7451C77.1264 70.2757 76.5451 70.0411 75.8091 70.0411C75.0518 70.0411 74.4491 70.2864 74.0011 70.7771C73.5531 71.2571 73.3291 71.9557 73.3291 72.8731V77.7051H71.8731V68.9371H73.3291V70.2011C73.6171 69.7424 74.0011 69.3904 74.4811 69.1451C74.9718 68.8997 75.5104 68.7771 76.0971 68.7771C76.8331 68.7771 77.4838 68.9424 78.0491 69.2731C78.6144 69.6037 79.0358 70.0891 79.3131 70.7291C79.5584 70.1104 79.9638 69.6304 80.5291 69.2891C81.0944 68.9477 81.7238 68.7771 82.4171 68.7771ZM96.3575 72.9851C96.3575 73.2624 96.3415 73.5557 96.3095 73.8651H89.3015C89.3548 74.7291 89.6482 75.4064 90.1815 75.8971C90.7255 76.3771 91.3815 76.6171 92.1495 76.6171C92.7788 76.6171 93.3015 76.4731 93.7175 76.1851C94.1442 75.8864 94.4428 75.4917 94.6135 75.0011H96.1815C95.9468 75.8437 95.4775 76.5317 94.7735 77.0651C94.0695 77.5877 93.1948 77.8491 92.1495 77.8491C91.3175 77.8491 90.5708 77.6624 89.9095 77.2891C89.2588 76.9157 88.7468 76.3877 88.3735 75.7051C88.0002 75.0117 87.8135 74.2117 87.8135 73.3051C87.8135 72.3984 87.9948 71.6037 88.3575 70.9211C88.7202 70.2384 89.2268 69.7157 89.8775 69.3531C90.5388 68.9797 91.2962 68.7931 92.1495 68.7931C92.9815 68.7931 93.7175 68.9744 94.3575 69.3371C94.9975 69.6997 95.4882 70.2011 95.8295 70.8411C96.1815 71.4704 96.3575 72.1851 96.3575 72.9851ZM94.8535 72.6811C94.8535 72.1264 94.7308 71.6517 94.4855 71.2571C94.2402 70.8517 93.9042 70.5477 93.4775 70.3451C93.0615 70.1317 92.5975 70.0251 92.0855 70.0251C91.3495 70.0251 90.7202 70.2597 90.1975 70.7291C89.6855 71.1984 89.3922 71.8491 89.3175 72.6811H94.8535ZM99.7354 70.3611C99.9914 69.8597 100.354 69.4704 100.823 69.1931C101.303 68.9157 101.885 68.7771 102.567 68.7771V70.2811H102.183C100.551 70.2811 99.7354 71.1664 99.7354 72.9371V77.7051H98.2794V68.9371H99.7354V70.3611ZM114.386 77.7051L111.73 73.1451H109.97V77.7051H108.514V66.5531H112.114C112.956 66.5531 113.666 66.6971 114.242 66.9851C114.828 67.2731 115.266 67.6624 115.554 68.1531C115.842 68.6437 115.986 69.2037 115.986 69.8331C115.986 70.6011 115.762 71.2784 115.314 71.8651C114.876 72.4517 114.215 72.8411 113.33 73.0331L116.13 77.7051H114.386ZM109.97 71.9771H112.114C112.903 71.9771 113.495 71.7851 113.89 71.4011C114.284 71.0064 114.482 70.4837 114.482 69.8331C114.482 69.1717 114.284 68.6597 113.89 68.2971C113.506 67.9344 112.914 67.7531 112.114 67.7531H109.97V71.9771ZM126.248 72.9851C126.248 73.2624 126.232 73.5557 126.2 73.8651H119.192C119.245 74.7291 119.539 75.4064 120.072 75.8971C120.616 76.3771 121.272 76.6171 122.04 76.6171C122.669 76.6171 123.192 76.4731 123.608 76.1851C124.035 75.8864 124.333 75.4917 124.504 75.0011H126.072C125.837 75.8437 125.368 76.5317 124.664 77.0651C123.96 77.5877 123.085 77.8491 122.04 77.8491C121.208 77.8491 120.461 77.6624 119.8 77.2891C119.149 76.9157 118.637 76.3877 118.264 75.7051C117.891 75.0117 117.704 74.2117 117.704 73.3051C117.704 72.3984 117.885 71.6037 118.248 70.9211C118.611 70.2384 119.117 69.7157 119.768 69.3531C120.429 68.9797 121.187 68.7931 122.04 68.7931C122.872 68.7931 123.608 68.9744 124.248 69.3371C124.888 69.6997 125.379 70.2011 125.72 70.8411C126.072 71.4704 126.248 72.1851 126.248 72.9851ZM124.744 72.6811C124.744 72.1264 124.621 71.6517 124.376 71.2571C124.131 70.8517 123.795 70.5477 123.368 70.3451C122.952 70.1317 122.488 70.0251 121.976 70.0251C121.24 70.0251 120.611 70.2597 120.088 70.7291C119.576 71.1984 119.283 71.8491 119.208 72.6811H124.744ZM131.434 76.3611L134.154 68.9371H135.706L132.266 77.7051H130.57L127.13 68.9371H128.698L131.434 76.3611ZM137.891 67.5131C137.613 67.5131 137.379 67.4171 137.187 67.2251C136.995 67.0331 136.899 66.7984 136.899 66.5211C136.899 66.2437 136.995 66.0091 137.187 65.8171C137.379 65.6251 137.613 65.5291 137.891 65.5291C138.157 65.5291 138.381 65.6251 138.563 65.8171C138.755 66.0091 138.851 66.2437 138.851 66.5211C138.851 66.7984 138.755 67.0331 138.563 67.2251C138.381 67.4171 138.157 67.5131 137.891 67.5131ZM138.595 68.9371V77.7051H137.139V68.9371H138.595ZM149.076 72.9851C149.076 73.2624 149.06 73.5557 149.028 73.8651H142.02C142.074 74.7291 142.367 75.4064 142.9 75.8971C143.444 76.3771 144.1 76.6171 144.868 76.6171C145.498 76.6171 146.02 76.4731 146.436 76.1851C146.863 75.8864 147.162 75.4917 147.332 75.0011H148.9C148.666 75.8437 148.196 76.5317 147.492 77.0651C146.788 77.5877 145.914 77.8491 144.868 77.8491C144.036 77.8491 143.29 77.6624 142.628 77.2891C141.978 76.9157 141.466 76.3877 141.092 75.7051C140.719 75.0117 140.532 74.2117 140.532 73.3051C140.532 72.3984 140.714 71.6037 141.076 70.9211C141.439 70.2384 141.946 69.7157 142.596 69.3531C143.258 68.9797 144.015 68.7931 144.868 68.7931C145.7 68.7931 146.436 68.9744 147.076 69.3371C147.716 69.6997 148.207 70.2011 148.548 70.8411C148.9 71.4704 149.076 72.1851 149.076 72.9851ZM147.572 72.6811C147.572 72.1264 147.45 71.6517 147.204 71.2571C146.959 70.8517 146.623 70.5477 146.196 70.3451C145.78 70.1317 145.316 70.0251 144.804 70.0251C144.068 70.0251 143.439 70.2597 142.916 70.7291C142.404 71.1984 142.111 71.8491 142.036 72.6811H147.572ZM162.678 68.9371L159.942 77.7051H158.438L156.326 70.7451L154.214 77.7051H152.71L149.958 68.9371H151.446L153.462 76.2971L155.638 68.9371H157.126L159.254 76.3131L161.238 68.9371H162.678ZM167.227 77.8491C166.555 77.8491 165.952 77.7371 165.419 77.5131C164.886 77.2784 164.464 76.9584 164.155 76.5531C163.846 76.1371 163.675 75.6624 163.643 75.1291H165.147C165.19 75.5664 165.392 75.9237 165.755 76.2011C166.128 76.4784 166.614 76.6171 167.211 76.6171C167.766 76.6171 168.203 76.4944 168.523 76.2491C168.843 76.0037 169.003 75.6944 169.003 75.3211C169.003 74.9371 168.832 74.6544 168.491 74.4731C168.15 74.2811 167.622 74.0944 166.907 73.9131C166.256 73.7424 165.723 73.5717 165.307 73.4011C164.902 73.2197 164.55 72.9584 164.251 72.6171C163.963 72.2651 163.819 71.8064 163.819 71.2411C163.819 70.7931 163.952 70.3824 164.219 70.0091C164.486 69.6357 164.864 69.3424 165.355 69.1291C165.846 68.9051 166.406 68.7931 167.035 68.7931C168.006 68.7931 168.79 69.0384 169.387 69.5291C169.984 70.0197 170.304 70.6917 170.347 71.5451H168.891C168.859 71.0864 168.672 70.7184 168.331 70.4411C168 70.1637 167.552 70.0251 166.987 70.0251C166.464 70.0251 166.048 70.1371 165.739 70.3611C165.43 70.5851 165.275 70.8784 165.275 71.2411C165.275 71.5291 165.366 71.7691 165.547 71.9611C165.739 72.1424 165.974 72.2917 166.251 72.4091C166.539 72.5157 166.934 72.6384 167.435 72.7771C168.064 72.9477 168.576 73.1184 168.971 73.2891C169.366 73.4491 169.702 73.6944 169.979 74.0251C170.267 74.3557 170.416 74.7877 170.427 75.3211C170.427 75.8011 170.294 76.2331 170.027 76.6171C169.76 77.0011 169.382 77.3051 168.891 77.5291C168.411 77.7424 167.856 77.8491 167.227 77.8491Z" fill="#606060"/>
<g clip-path="url(#clip1_8172_16021)">
<path fill-rule="evenodd" clip-rule="evenodd" d="M25.6318 38.1612H14.3679V41.4951H22.3568C21.962 46.1702 18.0622 48.1639 14.3815 48.1639C9.67205 48.1639 5.56257 44.4682 5.56257 39.288C5.56257 34.2417 9.48011 30.3557 14.3916 30.3557C18.1814 30.3557 20.4144 32.7651 20.4144 32.7651L22.7543 30.3478C22.7543 30.3478 19.7508 27.0125 14.2721 27.0125C7.29603 27.0121 1.89844 32.8851 1.89844 39.2286C1.89844 45.4443 6.97513 51.5057 14.4501 51.5057C21.0238 51.5053 25.8358 47.0138 25.8358 40.3716C25.8358 38.9702 25.6318 38.1604 25.6318 38.1604V38.1612Z" fill="#176BEF"/>
<path fill-rule="evenodd" clip-rule="evenodd" d="M34.9021 38.8389C37.1752 38.8389 39.3291 40.6717 39.3291 43.6249C39.3291 46.5161 37.1842 48.4008 34.8919 48.4008C32.373 48.4008 30.3854 46.3889 30.3854 43.6023C30.3854 40.8751 32.3478 38.8389 34.9021 38.8389ZM34.8561 35.7468C30.2342 35.7468 26.9219 39.3507 26.9219 43.5546C26.9219 47.8197 30.135 51.4909 34.9104 51.4909C39.2337 51.4909 42.776 48.195 42.776 43.646C42.776 38.4319 38.6556 35.7468 34.8561 35.7468Z" fill="#FF3E30"/>
<path fill-rule="evenodd" clip-rule="evenodd" d="M52.1557 38.8389C54.4291 38.8389 56.583 40.6717 56.583 43.6249C56.583 46.5161 54.4378 48.4008 52.1455 48.4008C49.6269 48.4008 47.6397 46.3889 47.6397 43.6023C47.6397 40.8751 49.602 38.8389 52.1557 38.8389ZM52.11 35.7468C47.4885 35.7468 44.1758 39.3507 44.1758 43.5546C44.1758 47.8197 47.3885 51.4909 52.1643 51.4909C56.4876 51.4909 60.0296 48.195 60.0296 43.646C60.0296 38.4319 55.9095 35.7468 52.11 35.7468Z" fill="#F7B529"/>
<path fill-rule="evenodd" clip-rule="evenodd" d="M69.3454 38.8406C71.4254 38.8406 73.5612 40.6118 73.5612 43.6368C73.5612 46.7119 71.4296 48.4067 69.2994 48.4067C67.038 48.4067 64.9335 46.575 64.9335 43.6662C64.9335 40.6437 67.1191 38.8406 69.3454 38.8406ZM69.0381 35.7546C64.7959 35.7546 61.4609 39.4609 61.4609 43.6207C61.4609 48.3586 65.3272 51.501 68.9649 51.501C71.2146 51.501 72.4107 50.6104 73.2942 49.5885V51.1403C73.2942 53.8566 71.6403 55.4833 69.1448 55.4833C66.7341 55.4829 65.5252 53.6952 65.1051 52.6805L62.0714 53.9454C63.1476 56.2144 65.314 58.5813 69.1701 58.5813C73.3881 58.5813 76.6028 55.9312 76.6028 50.3738V36.2278H73.2942V37.5615C72.2769 36.4677 70.885 35.7546 69.0381 35.7546Z" fill="#176BEF"/>
<path fill-rule="evenodd" clip-rule="evenodd" d="M91.453 38.7637C92.8949 38.7637 93.9327 39.5279 94.3735 40.4449L87.3062 43.3914C87.0015 41.1103 89.1682 38.7637 91.453 38.7637ZM91.315 35.7356C87.313 35.7356 83.9531 38.9115 83.9531 43.5975C83.9531 48.5562 87.6983 51.497 91.6992 51.497C95.0387 51.497 97.0881 49.6747 98.3118 48.042L95.5828 46.2314C94.875 47.3274 93.6913 48.3982 91.7162 48.3982C89.4978 48.3982 88.4774 47.1864 87.845 46.0129L98.4283 41.6327L97.8789 40.349C96.8562 37.8354 94.4712 35.736 91.3153 35.736L91.315 35.7356Z" fill="#FF3E30"/>
<path fill-rule="evenodd" clip-rule="evenodd" d="M78.9062 51.03H82.3826V27.8264H78.9062V51.03Z" fill="#179C52"/>
</g>
<defs>
<clipPath id="clip0_8172_16021">
<rect width="18" height="18" fill="white" transform="translate(0 62.7051)"/>
</clipPath>
<clipPath id="clip1_8172_16021">
<rect width="97.0827" height="31.5935" fill="white" transform="translate(1.89844 27)"/>
</clipPath>
</defs>
</svg>
