<svg width="165" height="86" viewBox="0 0 165 86" fill="none" xmlns="http://www.w3.org/2000/svg">
<path d="M6.36699 1.94526C6.8711 1.07975 7.12316 0.646998 7.5 0.646998C7.87684 0.646998 8.1289 1.07975 8.63301 1.94526L9.63381 3.66352C9.77706 3.90948 9.84869 4.03245 9.96037 4.11359C10.0721 4.19473 10.2111 4.22485 10.4893 4.28509L12.4327 4.70593C13.4117 4.91792 13.9011 5.02391 14.0176 5.38231C14.134 5.7407 13.8004 6.11415 13.133 6.86105L11.8081 8.34384C11.6184 8.55608 11.5236 8.6622 11.481 8.79349C11.4383 8.92478 11.4526 9.06637 11.4813 9.34955L11.6816 11.3279C11.7825 12.3244 11.833 12.8227 11.5281 13.0442C11.2232 13.2657 10.7649 13.0637 9.84836 12.6598L8.02874 11.858C7.76827 11.7432 7.63804 11.6858 7.5 11.6858C7.36196 11.6858 7.23173 11.7432 6.97126 11.858L5.15164 12.6598C4.23506 13.0637 3.77678 13.2657 3.47191 13.0442C3.16703 12.8227 3.21748 12.3244 3.31838 11.3279L3.51869 9.34955C3.54736 9.06637 3.5617 8.92478 3.51904 8.79349C3.47638 8.6622 3.38156 8.55608 3.19191 8.34384L1.86701 6.86105C1.19964 6.11415 0.865957 5.7407 0.982408 5.38231C1.09886 5.02391 1.58832 4.91792 2.56725 4.70593L4.51068 4.28509C4.78886 4.22485 4.92795 4.19473 5.03963 4.11359C5.15131 4.03245 5.22294 3.90947 5.36619 3.66352L6.36699 1.94526Z" fill="#FFC121"/>
<path d="M24.0662 1.94526C24.5703 1.07975 24.8224 0.646998 25.1992 0.646998C25.5761 0.646998 25.8281 1.07975 26.3322 1.94526L27.333 3.66352C27.4763 3.90948 27.5479 4.03245 27.6596 4.11359C27.7713 4.19473 27.9104 4.22485 28.1885 4.28509L30.132 4.70593C31.1109 4.91792 31.6004 5.02391 31.7168 5.38231C31.8333 5.7407 31.4996 6.11415 30.8322 6.86105L29.5073 8.34384C29.3177 8.55608 29.2228 8.6622 29.1802 8.79349C29.1375 8.92478 29.1519 9.06637 29.1805 9.34955L29.3808 11.3279C29.4817 12.3244 29.5322 12.8227 29.2273 13.0442C28.9224 13.2657 28.4642 13.0637 27.5476 12.6598L25.728 11.858C25.4675 11.7432 25.3373 11.6858 25.1992 11.6858C25.0612 11.6858 24.9309 11.7432 24.6705 11.858L22.8509 12.6598C21.9343 13.0637 21.476 13.2657 21.1711 13.0442C20.8663 12.8227 20.9167 12.3244 21.0176 11.3279L21.2179 9.34955C21.2466 9.06637 21.2609 8.92478 21.2183 8.79349C21.1756 8.6622 21.0808 8.55608 20.8911 8.34384L19.5662 6.86105C18.8989 6.11415 18.5652 5.7407 18.6816 5.38231C18.7981 5.02391 19.2875 4.91792 20.2665 4.70593L22.2099 4.28509C22.4881 4.22485 22.6272 4.19473 22.7388 4.11359C22.8505 4.03245 22.9222 3.90947 23.0654 3.66352L24.0662 1.94526Z" fill="#FFC121"/>
<path d="M41.7693 1.94526C42.2734 1.07975 42.5255 0.646998 42.9023 0.646998C43.2792 0.646998 43.5312 1.07975 44.0354 1.94526L45.0362 3.66352C45.1794 3.90948 45.251 4.03245 45.3627 4.11359C45.4744 4.19473 45.6135 4.22485 45.8917 4.28509L47.8351 4.70593C48.814 4.91792 49.3035 5.02391 49.4199 5.38231C49.5364 5.7407 49.2027 6.11415 48.5353 6.86105L47.2104 8.34384C47.0208 8.55608 46.926 8.6622 46.8833 8.79349C46.8406 8.92478 46.855 9.06637 46.8837 9.34955L47.084 11.3279C47.1849 12.3244 47.2353 12.8227 46.9304 13.0442C46.6256 13.2657 46.1673 13.0637 45.2507 12.6598L43.4311 11.858C43.1706 11.7432 43.0404 11.6858 42.9023 11.6858C42.7643 11.6858 42.6341 11.7432 42.3736 11.858L40.554 12.6598C39.6374 13.0637 39.1791 13.2657 38.8743 13.0442C38.5694 12.8227 38.6198 12.3244 38.7207 11.3279L38.921 9.34955C38.9497 9.06637 38.964 8.92478 38.9214 8.79349C38.8787 8.6622 38.7839 8.55608 38.5943 8.34384L37.2694 6.86105C36.602 6.11415 36.2683 5.7407 36.3848 5.38231C36.5012 5.02391 36.9907 4.91792 37.9696 4.70593L39.913 4.28509C40.1912 4.22485 40.3303 4.19473 40.442 4.11359C40.5537 4.03245 40.6253 3.90947 40.7685 3.66352L41.7693 1.94526Z" fill="#FFC121"/>
<path d="M59.4685 1.94526C59.9727 1.07975 60.2247 0.646998 60.6016 0.646998C60.9784 0.646998 61.2305 1.07975 61.7346 1.94526L62.7354 3.66352C62.8786 3.90948 62.9503 4.03245 63.0619 4.11359C63.1736 4.19473 63.3127 4.22485 63.5909 4.28509L65.5343 4.70593C66.5132 4.91792 67.0027 5.02391 67.1192 5.38231C67.2356 5.7407 66.9019 6.11415 66.2346 6.86105L64.9097 8.34384C64.72 8.55608 64.6252 8.6622 64.5825 8.79349C64.5399 8.92478 64.5542 9.06637 64.5829 9.34955L64.7832 11.3279C64.8841 12.3244 64.9345 12.8227 64.6297 13.0442C64.3248 13.2657 63.8665 13.0637 62.9499 12.6598L61.1303 11.858C60.8698 11.7432 60.7396 11.6858 60.6016 11.6858C60.4635 11.6858 60.3333 11.7432 60.0728 11.858L58.2532 12.6598C57.3366 13.0637 56.8783 13.2657 56.5735 13.0442C56.2686 12.8227 56.319 12.3244 56.4199 11.3279L56.6203 9.34955C56.6489 9.06637 56.6633 8.92478 56.6206 8.79349C56.5779 8.6622 56.4831 8.55608 56.2935 8.34384L54.9686 6.86105C54.3012 6.11415 53.9675 5.7407 54.084 5.38231C54.2004 5.02391 54.6899 4.91792 55.6688 4.70593L57.6122 4.28509C57.8904 4.22485 58.0295 4.19473 58.1412 4.11359C58.2529 4.03245 58.3245 3.90947 58.4678 3.66352L59.4685 1.94526Z" fill="#FFC121"/>
<path d="M77.1717 1.94526C77.6758 1.07975 77.9278 0.646998 78.3047 0.646998C78.6815 0.646998 78.9336 1.07975 79.4377 1.94526L80.4385 3.66352C80.5817 3.90948 80.6534 4.03245 80.7651 4.11359C80.8767 4.19473 81.0158 4.22485 81.294 4.28509L83.2374 4.70593C84.2164 4.91792 84.7058 5.02391 84.8223 5.38231C84.9387 5.7407 84.605 6.11415 83.9377 6.86105L82.6128 8.34384C82.4231 8.55608 82.3283 8.6622 82.2857 8.79349C82.243 8.92478 82.2573 9.06637 82.286 9.34955L82.4863 11.3279C82.5872 12.3244 82.6377 12.8227 82.3328 13.0442C82.0279 13.2657 81.5696 13.0637 80.6531 12.6598L78.8334 11.858C78.573 11.7432 78.4427 11.6858 78.3047 11.6858C78.1666 11.6858 78.0364 11.7432 77.776 11.858L75.9563 12.6598C75.0398 13.0637 74.5815 13.2657 74.2766 13.0442C73.9717 12.8227 74.0222 12.3244 74.1231 11.3279L74.3234 9.34955C74.352 9.06637 74.3664 8.92478 74.3237 8.79349C74.2811 8.6622 74.1862 8.55608 73.9966 8.34384L72.6717 6.86105C72.0043 6.11415 71.6706 5.7407 71.7871 5.38231C71.9035 5.02391 72.393 4.91792 73.3719 4.70593L75.3154 4.28509C75.5935 4.22485 75.7326 4.19473 75.8443 4.11359C75.956 4.03245 76.0276 3.90947 76.1709 3.66352L77.1717 1.94526Z" fill="#FFC121"/>
<path d="M7.602 71.488H3.066V73.882C3.262 73.6393 3.542 73.4433 3.906 73.294C4.27 73.1353 4.65733 73.056 5.068 73.056C5.81467 73.056 6.426 73.2193 6.902 73.546C7.378 73.8727 7.72333 74.2927 7.938 74.806C8.15267 75.31 8.26 75.8513 8.26 76.43C8.26 77.5033 7.952 78.3667 7.336 79.02C6.72933 79.6733 5.86133 80 4.732 80C3.668 80 2.81867 79.734 2.184 79.202C1.54933 78.67 1.19 77.9747 1.106 77.116H3.01C3.094 77.4893 3.28067 77.788 3.57 78.012C3.86867 78.236 4.24667 78.348 4.704 78.348C5.25467 78.348 5.67 78.1753 5.95 77.83C6.23 77.4847 6.37 77.0273 6.37 76.458C6.37 75.8793 6.22533 75.4407 5.936 75.142C5.656 74.834 5.24067 74.68 4.69 74.68C4.298 74.68 3.97133 74.778 3.71 74.974C3.44867 75.17 3.262 75.4313 3.15 75.758H1.274V69.766H7.602V71.488ZM10.8438 80.098C10.4891 80.098 10.1951 79.9907 9.96177 79.776C9.73777 79.552 9.62577 79.2767 9.62577 78.95C9.62577 78.6233 9.73777 78.3527 9.96177 78.138C10.1951 77.914 10.4891 77.802 10.8438 77.802C11.1891 77.802 11.4738 77.914 11.6978 78.138C11.9218 78.3527 12.0338 78.6233 12.0338 78.95C12.0338 79.2767 11.9218 79.552 11.6978 79.776C11.4738 79.9907 11.1891 80.098 10.8438 80.098ZM13.3885 74.764C13.3885 73.1493 13.6778 71.8847 14.2565 70.97C14.8445 70.0553 15.8152 69.598 17.1685 69.598C18.5218 69.598 19.4878 70.0553 20.0665 70.97C20.6545 71.8847 20.9485 73.1493 20.9485 74.764C20.9485 76.388 20.6545 77.662 20.0665 78.586C19.4878 79.51 18.5218 79.972 17.1685 79.972C15.8152 79.972 14.8445 79.51 14.2565 78.586C13.6778 77.662 13.3885 76.388 13.3885 74.764ZM19.0165 74.764C19.0165 74.0733 18.9698 73.4947 18.8765 73.028C18.7925 72.552 18.6152 72.1647 18.3445 71.866C18.0832 71.5673 17.6912 71.418 17.1685 71.418C16.6458 71.418 16.2492 71.5673 15.9785 71.866C15.7172 72.1647 15.5398 72.552 15.4465 73.028C15.3625 73.4947 15.3205 74.0733 15.3205 74.764C15.3205 75.4733 15.3625 76.0707 15.4465 76.556C15.5305 77.032 15.7078 77.4193 15.9785 77.718C16.2492 78.0073 16.6458 78.152 17.1685 78.152C17.6912 78.152 18.0878 78.0073 18.3585 77.718C18.6292 77.4193 18.8065 77.032 18.8905 76.556C18.9745 76.0707 19.0165 75.4733 19.0165 74.764Z" fill="#141414"/>
<path d="M30.674 81.484H29.4V68.87H30.674V81.484ZM36.4086 75.114C36.4086 74.162 36.6233 73.308 37.0526 72.552C37.482 71.7867 38.0653 71.1893 38.8026 70.76C39.5493 70.3307 40.3753 70.116 41.2806 70.116C42.3446 70.116 43.2733 70.3727 44.0666 70.886C44.86 71.3993 45.4386 72.1273 45.8026 73.07H44.2766C44.006 72.482 43.614 72.0293 43.1006 71.712C42.5966 71.3947 41.99 71.236 41.2806 71.236C40.5993 71.236 39.988 71.3947 39.4466 71.712C38.9053 72.0293 38.4806 72.482 38.1726 73.07C37.8646 73.6487 37.7106 74.33 37.7106 75.114C37.7106 75.8887 37.8646 76.57 38.1726 77.158C38.4806 77.7367 38.9053 78.1847 39.4466 78.502C39.988 78.8193 40.5993 78.978 41.2806 78.978C41.99 78.978 42.5966 78.824 43.1006 78.516C43.614 78.1987 44.006 77.746 44.2766 77.158H45.8026C45.4386 78.0913 44.86 78.8147 44.0666 79.328C43.2733 79.832 42.3446 80.084 41.2806 80.084C40.3753 80.084 39.5493 79.874 38.8026 79.454C38.0653 79.0247 37.482 78.432 37.0526 77.676C36.6233 76.92 36.4086 76.066 36.4086 75.114ZM54.5031 72.328V80H53.2291V78.866C52.9864 79.258 52.6458 79.566 52.2071 79.79C51.7778 80.0047 51.3018 80.112 50.7791 80.112C50.1818 80.112 49.6451 79.9907 49.1691 79.748C48.6931 79.496 48.3151 79.1227 48.0351 78.628C47.7644 78.1333 47.6291 77.5313 47.6291 76.822V72.328H48.8891V76.654C48.8891 77.41 49.0804 77.9933 49.4631 78.404C49.8458 78.8053 50.3684 79.006 51.0311 79.006C51.7124 79.006 52.2491 78.796 52.6411 78.376C53.0331 77.956 53.2291 77.3447 53.2291 76.542V72.328H54.5031ZM59.3702 80.126C58.7822 80.126 58.2548 80.028 57.7882 79.832C57.3215 79.6267 56.9528 79.3467 56.6822 78.992C56.4115 78.628 56.2622 78.2127 56.2342 77.746H57.5502C57.5875 78.1287 57.7648 78.4413 58.0822 78.684C58.4088 78.9267 58.8335 79.048 59.3562 79.048C59.8415 79.048 60.2242 78.9407 60.5042 78.726C60.7842 78.5113 60.9242 78.2407 60.9242 77.914C60.9242 77.578 60.7748 77.3307 60.4762 77.172C60.1775 77.004 59.7155 76.8407 59.0902 76.682C58.5208 76.5327 58.0542 76.3833 57.6902 76.234C57.3355 76.0753 57.0275 75.8467 56.7662 75.548C56.5142 75.24 56.3882 74.8387 56.3882 74.344C56.3882 73.952 56.5048 73.5927 56.7382 73.266C56.9715 72.9393 57.3028 72.6827 57.7322 72.496C58.1615 72.3 58.6515 72.202 59.2022 72.202C60.0515 72.202 60.7375 72.4167 61.2602 72.846C61.7828 73.2753 62.0628 73.8633 62.1002 74.61H60.8262C60.7982 74.2087 60.6348 73.8867 60.3362 73.644C60.0468 73.4013 59.6548 73.28 59.1602 73.28C58.7028 73.28 58.3388 73.378 58.0682 73.574C57.7975 73.77 57.6622 74.0267 57.6622 74.344C57.6622 74.596 57.7415 74.806 57.9002 74.974C58.0682 75.1327 58.2735 75.2633 58.5162 75.366C58.7682 75.4593 59.1135 75.5667 59.5522 75.688C60.1028 75.8373 60.5508 75.9867 60.8962 76.136C61.2415 76.276 61.5355 76.4907 61.7782 76.78C62.0302 77.0693 62.1608 77.4473 62.1702 77.914C62.1702 78.334 62.0535 78.712 61.8202 79.048C61.5868 79.384 61.2555 79.65 60.8262 79.846C60.4062 80.0327 59.9208 80.126 59.3702 80.126ZM65.5226 73.378V77.9C65.5226 78.2733 65.602 78.5393 65.7606 78.698C65.9193 78.8473 66.1946 78.922 66.5866 78.922H67.5246V80H66.3766C65.6673 80 65.1353 79.8367 64.7806 79.51C64.426 79.1833 64.2486 78.6467 64.2486 77.9V73.378H63.2546V72.328H64.2486V70.396H65.5226V72.328H67.5246V73.378H65.5226ZM72.4142 80.126C71.6956 80.126 71.0422 79.9627 70.4542 79.636C69.8756 79.3093 69.4182 78.8473 69.0822 78.25C68.7556 77.6433 68.5922 76.9433 68.5922 76.15C68.5922 75.366 68.7602 74.6753 69.0962 74.078C69.4416 73.4713 69.9082 73.0093 70.4962 72.692C71.0842 72.3653 71.7422 72.202 72.4702 72.202C73.1982 72.202 73.8562 72.3653 74.4442 72.692C75.0322 73.0093 75.4942 73.4667 75.8302 74.064C76.1756 74.6613 76.3482 75.3567 76.3482 76.15C76.3482 76.9433 76.1709 77.6433 75.8162 78.25C75.4709 78.8473 74.9996 79.3093 74.4022 79.636C73.8049 79.9627 73.1422 80.126 72.4142 80.126ZM72.4142 79.006C72.8716 79.006 73.3009 78.8987 73.7022 78.684C74.1036 78.4693 74.4256 78.1473 74.6682 77.718C74.9202 77.2887 75.0462 76.766 75.0462 76.15C75.0462 75.534 74.9249 75.0113 74.6822 74.582C74.4396 74.1527 74.1222 73.8353 73.7302 73.63C73.3382 73.4153 72.9136 73.308 72.4562 73.308C71.9896 73.308 71.5602 73.4153 71.1682 73.63C70.7856 73.8353 70.4776 74.1527 70.2442 74.582C70.0109 75.0113 69.8942 75.534 69.8942 76.15C69.8942 76.7753 70.0062 77.3027 70.2302 77.732C70.4636 78.1613 70.7716 78.4833 71.1542 78.698C71.5369 78.9033 71.9569 79.006 72.4142 79.006ZM87.2493 72.188C87.8466 72.188 88.3786 72.314 88.8453 72.566C89.312 72.8087 89.6806 73.1773 89.9513 73.672C90.222 74.1667 90.3573 74.7687 90.3573 75.478V80H89.0973V75.66C89.0973 74.8947 88.906 74.3113 88.5233 73.91C88.15 73.4993 87.6413 73.294 86.9973 73.294C86.3346 73.294 85.8073 73.5087 85.4153 73.938C85.0233 74.358 84.8273 74.9693 84.8273 75.772V80H83.5673V75.66C83.5673 74.8947 83.376 74.3113 82.9933 73.91C82.62 73.4993 82.1113 73.294 81.4673 73.294C80.8046 73.294 80.2773 73.5087 79.8853 73.938C79.4933 74.358 79.2973 74.9693 79.2973 75.772V80H78.0233V72.328H79.2973V73.434C79.5493 73.0327 79.8853 72.7247 80.3053 72.51C80.7346 72.2953 81.206 72.188 81.7193 72.188C82.3633 72.188 82.9326 72.3327 83.4273 72.622C83.922 72.9113 84.2906 73.336 84.5333 73.896C84.748 73.3547 85.1026 72.9347 85.5973 72.636C86.092 72.3373 86.6426 72.188 87.2493 72.188ZM99.4471 75.87C99.4471 76.1127 99.4331 76.3693 99.4051 76.64H93.2731C93.3198 77.396 93.5765 77.9887 94.0431 78.418C94.5191 78.838 95.0931 79.048 95.7651 79.048C96.3158 79.048 96.7731 78.922 97.1371 78.67C97.5105 78.4087 97.7718 78.0633 97.9211 77.634H99.2931C99.0878 78.3713 98.6771 78.9733 98.0611 79.44C97.4451 79.8973 96.6798 80.126 95.7651 80.126C95.0371 80.126 94.3838 79.9627 93.8051 79.636C93.2358 79.3093 92.7878 78.8473 92.4611 78.25C92.1345 77.6433 91.9711 76.9433 91.9711 76.15C91.9711 75.3567 92.1298 74.6613 92.4471 74.064C92.7645 73.4667 93.2078 73.0093 93.7771 72.692C94.3558 72.3653 95.0185 72.202 95.7651 72.202C96.4931 72.202 97.1371 72.3607 97.6971 72.678C98.2571 72.9953 98.6865 73.434 98.9851 73.994C99.2931 74.5447 99.4471 75.17 99.4471 75.87ZM98.1311 75.604C98.1311 75.1187 98.0238 74.7033 97.8091 74.358C97.5945 74.0033 97.3005 73.7373 96.9271 73.56C96.5631 73.3733 96.1571 73.28 95.7091 73.28C95.0651 73.28 94.5145 73.4853 94.0571 73.896C93.6091 74.3067 93.3525 74.876 93.2871 75.604H98.1311ZM102.403 73.574C102.627 73.1353 102.944 72.7947 103.355 72.552C103.775 72.3093 104.283 72.188 104.881 72.188V73.504H104.545C103.117 73.504 102.403 74.2787 102.403 75.828V80H101.129V72.328H102.403V73.574ZM115.222 80L112.898 76.01H111.358V80H110.084V70.242H113.234C113.971 70.242 114.592 70.368 115.096 70.62C115.609 70.872 115.992 71.2127 116.244 71.642C116.496 72.0713 116.622 72.5613 116.622 73.112C116.622 73.784 116.426 74.3767 116.034 74.89C115.651 75.4033 115.073 75.744 114.298 75.912L116.748 80H115.222ZM111.358 74.988H113.234C113.925 74.988 114.443 74.82 114.788 74.484C115.133 74.1387 115.306 73.6813 115.306 73.112C115.306 72.5333 115.133 72.0853 114.788 71.768C114.452 71.4507 113.934 71.292 113.234 71.292H111.358V74.988ZM125.601 75.87C125.601 76.1127 125.587 76.3693 125.559 76.64H119.427C119.474 77.396 119.731 77.9887 120.197 78.418C120.673 78.838 121.247 79.048 121.919 79.048C122.47 79.048 122.927 78.922 123.291 78.67C123.665 78.4087 123.926 78.0633 124.075 77.634H125.447C125.242 78.3713 124.831 78.9733 124.215 79.44C123.599 79.8973 122.834 80.126 121.919 80.126C121.191 80.126 120.538 79.9627 119.959 79.636C119.39 79.3093 118.942 78.8473 118.615 78.25C118.289 77.6433 118.125 76.9433 118.125 76.15C118.125 75.3567 118.284 74.6613 118.601 74.064C118.919 73.4667 119.362 73.0093 119.931 72.692C120.51 72.3653 121.173 72.202 121.919 72.202C122.647 72.202 123.291 72.3607 123.851 72.678C124.411 72.9953 124.841 73.434 125.139 73.994C125.447 74.5447 125.601 75.17 125.601 75.87ZM124.285 75.604C124.285 75.1187 124.178 74.7033 123.963 74.358C123.749 74.0033 123.455 73.7373 123.081 73.56C122.717 73.3733 122.311 73.28 121.863 73.28C121.219 73.28 120.669 73.4853 120.211 73.896C119.763 74.3067 119.507 74.876 119.441 75.604H124.285ZM130.139 78.824L132.519 72.328H133.877L130.867 80H129.383L126.373 72.328H127.745L130.139 78.824ZM135.789 71.082C135.546 71.082 135.341 70.998 135.173 70.83C135.005 70.662 134.921 70.4567 134.921 70.214C134.921 69.9713 135.005 69.766 135.173 69.598C135.341 69.43 135.546 69.346 135.789 69.346C136.022 69.346 136.218 69.43 136.377 69.598C136.545 69.766 136.629 69.9713 136.629 70.214C136.629 70.4567 136.545 70.662 136.377 70.83C136.218 70.998 136.022 71.082 135.789 71.082ZM136.405 72.328V80H135.131V72.328H136.405ZM145.576 75.87C145.576 76.1127 145.562 76.3693 145.534 76.64H139.402C139.449 77.396 139.705 77.9887 140.172 78.418C140.648 78.838 141.222 79.048 141.894 79.048C142.445 79.048 142.902 78.922 143.266 78.67C143.639 78.4087 143.901 78.0633 144.05 77.634H145.422C145.217 78.3713 144.806 78.9733 144.19 79.44C143.574 79.8973 142.809 80.126 141.894 80.126C141.166 80.126 140.513 79.9627 139.934 79.636C139.365 79.3093 138.917 78.8473 138.59 78.25C138.263 77.6433 138.1 76.9433 138.1 76.15C138.1 75.3567 138.259 74.6613 138.576 74.064C138.893 73.4667 139.337 73.0093 139.906 72.692C140.485 72.3653 141.147 72.202 141.894 72.202C142.622 72.202 143.266 72.3607 143.826 72.678C144.386 72.9953 144.815 73.434 145.114 73.994C145.422 74.5447 145.576 75.17 145.576 75.87ZM144.26 75.604C144.26 75.1187 144.153 74.7033 143.938 74.358C143.723 74.0033 143.429 73.7373 143.056 73.56C142.692 73.3733 142.286 73.28 141.838 73.28C141.194 73.28 140.643 73.4853 140.186 73.896C139.738 74.3067 139.481 74.876 139.416 75.604H144.26ZM157.478 72.328L155.084 80H153.768L151.92 73.91L150.072 80H148.756L146.348 72.328H147.65L149.414 78.768L151.318 72.328H152.62L154.482 78.782L156.218 72.328H157.478ZM161.458 80.126C160.87 80.126 160.343 80.028 159.876 79.832C159.409 79.6267 159.041 79.3467 158.77 78.992C158.499 78.628 158.35 78.2127 158.322 77.746H159.638C159.675 78.1287 159.853 78.4413 160.17 78.684C160.497 78.9267 160.921 79.048 161.444 79.048C161.929 79.048 162.312 78.9407 162.592 78.726C162.872 78.5113 163.012 78.2407 163.012 77.914C163.012 77.578 162.863 77.3307 162.564 77.172C162.265 77.004 161.803 76.8407 161.178 76.682C160.609 76.5327 160.142 76.3833 159.778 76.234C159.423 76.0753 159.115 75.8467 158.854 75.548C158.602 75.24 158.476 74.8387 158.476 74.344C158.476 73.952 158.593 73.5927 158.826 73.266C159.059 72.9393 159.391 72.6827 159.82 72.496C160.249 72.3 160.739 72.202 161.29 72.202C162.139 72.202 162.825 72.4167 163.348 72.846C163.871 73.2753 164.151 73.8633 164.188 74.61H162.914C162.886 74.2087 162.723 73.8867 162.424 73.644C162.135 73.4013 161.743 73.28 161.248 73.28C160.791 73.28 160.427 73.378 160.156 73.574C159.885 73.77 159.75 74.0267 159.75 74.344C159.75 74.596 159.829 74.806 159.988 74.974C160.156 75.1327 160.361 75.2633 160.604 75.366C160.856 75.4593 161.201 75.5667 161.64 75.688C162.191 75.8373 162.639 75.9867 162.984 76.136C163.329 76.276 163.623 76.4907 163.866 76.78C164.118 77.0693 164.249 77.4473 164.258 77.914C164.258 78.334 164.141 78.712 163.908 79.048C163.675 79.384 163.343 79.65 162.914 79.846C162.494 80.0327 162.009 80.126 161.458 80.126Z" fill="#606060"/>
<g clip-path="url(#clip0_3702_19557)">
<path fill-rule="evenodd" clip-rule="evenodd" d="M23.7334 38.161H12.4695V41.4948H20.4584C20.0636 46.1699 16.1638 48.1637 12.483 48.1637C7.77361 48.1637 3.66414 44.468 3.66414 39.2878C3.66414 34.2415 7.58167 30.3555 12.4932 30.3555C16.2829 30.3555 18.516 32.7649 18.516 32.7649L20.8558 30.3476C20.8558 30.3476 17.8523 27.0122 12.3737 27.0122C5.3976 27.0118 0 32.8848 0 39.2284C0 45.444 5.0767 51.5054 12.5517 51.5054C19.1254 51.5051 23.9374 47.0135 23.9374 40.3714C23.9374 38.97 23.7334 38.1602 23.7334 38.1602V38.161Z" fill="#176BEF"/>
<path fill-rule="evenodd" clip-rule="evenodd" d="M33.0037 38.8386C35.2768 38.8386 37.4307 40.6714 37.4307 43.6246C37.4307 46.5158 35.2858 48.4005 32.9935 48.4005C30.4746 48.4005 28.487 46.3887 28.487 43.6021C28.487 40.8749 30.4493 38.8386 33.0037 38.8386ZM32.9577 35.7466C28.3358 35.7466 25.0234 39.3505 25.0234 43.5543C25.0234 47.8194 28.2366 51.4907 33.012 51.4907C37.3353 51.4907 40.8776 48.1948 40.8776 43.6457C40.8776 38.4317 36.7572 35.7466 32.9577 35.7466Z" fill="#FF3E30"/>
<path fill-rule="evenodd" clip-rule="evenodd" d="M50.2572 38.8386C52.5307 38.8386 54.6846 40.6714 54.6846 43.6246C54.6846 46.5158 52.5393 48.4005 50.247 48.4005C47.7285 48.4005 45.7412 46.3887 45.7412 43.6021C45.7412 40.8749 47.7036 38.8386 50.2572 38.8386ZM50.2116 35.7466C45.59 35.7466 42.2773 39.3505 42.2773 43.5543C42.2773 47.8194 45.4901 51.4907 50.2659 51.4907C54.5892 51.4907 58.1311 48.1948 58.1311 43.6457C58.1311 38.4317 54.0111 35.7466 50.2116 35.7466Z" fill="#F7B529"/>
<path fill-rule="evenodd" clip-rule="evenodd" d="M67.447 38.8404C69.527 38.8404 71.6628 40.6115 71.6628 43.6366C71.6628 46.7117 69.5311 48.4065 67.401 48.4065C65.1396 48.4065 63.0351 46.5748 63.0351 43.6659C63.0351 40.6435 65.2207 38.8404 67.447 38.8404ZM67.1396 35.7544C62.8974 35.7544 59.5625 39.4606 59.5625 43.6204C59.5625 48.3583 63.4288 51.5007 67.0665 51.5007C69.3162 51.5007 70.5123 50.6101 71.3958 49.5882V51.1401C71.3958 53.8563 69.7419 55.483 67.2464 55.483C64.8357 55.4827 63.6267 53.695 63.2067 52.6802L60.173 53.9451C61.2492 56.2142 63.4156 58.5811 67.2716 58.5811C71.4897 58.5811 74.7044 55.931 74.7044 50.3735V36.2275H71.3958V37.5612C70.3784 36.4675 68.9866 35.7544 67.1396 35.7544Z" fill="#176BEF"/>
<path fill-rule="evenodd" clip-rule="evenodd" d="M89.5545 38.7634C90.9965 38.7634 92.0342 39.5277 92.4751 40.4447L85.4077 43.3911C85.103 41.11 87.2698 38.7634 89.5545 38.7634ZM89.4165 35.7354C85.4145 35.7354 82.0547 38.9113 82.0547 43.5972C82.0547 48.5559 85.7999 51.4967 89.8008 51.4967C93.1402 51.4967 95.1897 49.6745 96.4133 48.0418L93.6844 46.2312C92.9766 47.3272 91.7929 48.398 89.8177 48.398C87.5993 48.398 86.579 47.1861 85.9466 46.0126L96.5299 41.6324L95.9804 40.3488C94.9578 37.8352 92.5727 35.7357 89.4169 35.7357L89.4165 35.7354Z" fill="#FF3E30"/>
<path fill-rule="evenodd" clip-rule="evenodd" d="M77.0078 51.0297H80.4842V27.8262H77.0078V51.0297Z" fill="#179C52"/>
</g>
<defs>
<clipPath id="clip0_3702_19557">
<rect width="97.0827" height="31.5935" fill="white" transform="translate(0 27)"/>
</clipPath>
</defs>
</svg>
