<svg width="98" height="86" viewBox="0 0 98 86" fill="none" xmlns="http://www.w3.org/2000/svg">
<path d="M6.36699 1.94526C6.8711 1.07975 7.12316 0.646998 7.5 0.646998C7.87684 0.646998 8.1289 1.07975 8.63301 1.94526L9.63381 3.66352C9.77706 3.90948 9.84869 4.03245 9.96037 4.11359C10.0721 4.19473 10.2111 4.22485 10.4893 4.28509L12.4327 4.70593C13.4117 4.91792 13.9011 5.02391 14.0176 5.38231C14.134 5.7407 13.8004 6.11415 13.133 6.86105L11.8081 8.34384C11.6184 8.55608 11.5236 8.6622 11.481 8.79349C11.4383 8.92478 11.4526 9.06637 11.4813 9.34955L11.6816 11.3279C11.7825 12.3244 11.833 12.8227 11.5281 13.0442C11.2232 13.2657 10.7649 13.0637 9.84836 12.6598L8.02874 11.858C7.76827 11.7432 7.63804 11.6858 7.5 11.6858C7.36196 11.6858 7.23173 11.7432 6.97126 11.858L5.15164 12.6598C4.23506 13.0637 3.77678 13.2657 3.47191 13.0442C3.16703 12.8227 3.21748 12.3244 3.31838 11.3279L3.51869 9.34955C3.54736 9.06637 3.5617 8.92478 3.51904 8.79349C3.47638 8.6622 3.38156 8.55608 3.19191 8.34384L1.86701 6.86105C1.19964 6.11415 0.865957 5.7407 0.982408 5.38231C1.09886 5.02391 1.58832 4.91792 2.56725 4.70593L4.51068 4.28509C4.78886 4.22485 4.92795 4.19473 5.03963 4.11359C5.15131 4.03245 5.22294 3.90947 5.36619 3.66352L6.36699 1.94526Z" fill="#FFC121"/>
<path d="M24.0662 1.94526C24.5703 1.07975 24.8224 0.646998 25.1992 0.646998C25.5761 0.646998 25.8281 1.07975 26.3322 1.94526L27.333 3.66352C27.4763 3.90948 27.5479 4.03245 27.6596 4.11359C27.7713 4.19473 27.9104 4.22485 28.1885 4.28509L30.132 4.70593C31.1109 4.91792 31.6004 5.02391 31.7168 5.38231C31.8333 5.7407 31.4996 6.11415 30.8322 6.86105L29.5073 8.34384C29.3177 8.55608 29.2228 8.6622 29.1802 8.79349C29.1375 8.92478 29.1519 9.06637 29.1805 9.34955L29.3808 11.3279C29.4817 12.3244 29.5322 12.8227 29.2273 13.0442C28.9224 13.2657 28.4642 13.0637 27.5476 12.6598L25.728 11.858C25.4675 11.7432 25.3373 11.6858 25.1992 11.6858C25.0612 11.6858 24.9309 11.7432 24.6705 11.858L22.8509 12.6598C21.9343 13.0637 21.476 13.2657 21.1711 13.0442C20.8663 12.8227 20.9167 12.3244 21.0176 11.3279L21.2179 9.34955C21.2466 9.06637 21.2609 8.92478 21.2183 8.79349C21.1756 8.6622 21.0808 8.55608 20.8911 8.34384L19.5662 6.86105C18.8989 6.11415 18.5652 5.7407 18.6816 5.38231C18.7981 5.02391 19.2875 4.91792 20.2665 4.70593L22.2099 4.28509C22.4881 4.22485 22.6272 4.19473 22.7388 4.11359C22.8505 4.03245 22.9222 3.90947 23.0654 3.66352L24.0662 1.94526Z" fill="#FFC121"/>
<path d="M41.7693 1.94526C42.2734 1.07975 42.5255 0.646998 42.9023 0.646998C43.2792 0.646998 43.5312 1.07975 44.0354 1.94526L45.0362 3.66352C45.1794 3.90948 45.251 4.03245 45.3627 4.11359C45.4744 4.19473 45.6135 4.22485 45.8917 4.28509L47.8351 4.70593C48.814 4.91792 49.3035 5.02391 49.4199 5.38231C49.5364 5.7407 49.2027 6.11415 48.5353 6.86105L47.2104 8.34384C47.0208 8.55608 46.926 8.6622 46.8833 8.79349C46.8406 8.92478 46.855 9.06637 46.8837 9.34955L47.084 11.3279C47.1849 12.3244 47.2353 12.8227 46.9304 13.0442C46.6256 13.2657 46.1673 13.0637 45.2507 12.6598L43.4311 11.858C43.1706 11.7432 43.0404 11.6858 42.9023 11.6858C42.7643 11.6858 42.6341 11.7432 42.3736 11.858L40.554 12.6598C39.6374 13.0637 39.1791 13.2657 38.8743 13.0442C38.5694 12.8227 38.6198 12.3244 38.7207 11.3279L38.921 9.34955C38.9497 9.06637 38.964 8.92478 38.9214 8.79349C38.8787 8.6622 38.7839 8.55608 38.5943 8.34384L37.2694 6.86105C36.602 6.11415 36.2683 5.7407 36.3848 5.38231C36.5012 5.02391 36.9907 4.91792 37.9696 4.70593L39.913 4.28509C40.1912 4.22485 40.3303 4.19473 40.442 4.11359C40.5537 4.03245 40.6253 3.90947 40.7685 3.66352L41.7693 1.94526Z" fill="#FFC121"/>
<path d="M59.4685 1.94526C59.9727 1.07975 60.2247 0.646998 60.6016 0.646998C60.9784 0.646998 61.2305 1.07975 61.7346 1.94526L62.7354 3.66352C62.8786 3.90948 62.9503 4.03245 63.0619 4.11359C63.1736 4.19473 63.3127 4.22485 63.5909 4.28509L65.5343 4.70593C66.5132 4.91792 67.0027 5.02391 67.1192 5.38231C67.2356 5.7407 66.9019 6.11415 66.2346 6.86105L64.9097 8.34384C64.72 8.55608 64.6252 8.6622 64.5825 8.79349C64.5399 8.92478 64.5542 9.06637 64.5829 9.34955L64.7832 11.3279C64.8841 12.3244 64.9345 12.8227 64.6297 13.0442C64.3248 13.2657 63.8665 13.0637 62.9499 12.6598L61.1303 11.858C60.8698 11.7432 60.7396 11.6858 60.6016 11.6858C60.4635 11.6858 60.3333 11.7432 60.0728 11.858L58.2532 12.6598C57.3366 13.0637 56.8783 13.2657 56.5735 13.0442C56.2686 12.8227 56.319 12.3244 56.4199 11.3279L56.6203 9.34955C56.6489 9.06637 56.6633 8.92478 56.6206 8.79349C56.5779 8.6622 56.4831 8.55608 56.2935 8.34384L54.9686 6.86105C54.3012 6.11415 53.9675 5.7407 54.084 5.38231C54.2004 5.02391 54.6899 4.91792 55.6688 4.70593L57.6122 4.28509C57.8904 4.22485 58.0295 4.19473 58.1412 4.11359C58.2529 4.03245 58.3245 3.90947 58.4678 3.66352L59.4685 1.94526Z" fill="#FFC121"/>
<path d="M77.1717 1.94526C77.6758 1.07975 77.9278 0.646998 78.3047 0.646998C78.6815 0.646998 78.9336 1.07975 79.4377 1.94526L80.4385 3.66352C80.5817 3.90948 80.6534 4.03245 80.7651 4.11359C80.8767 4.19473 81.0158 4.22485 81.294 4.28509L83.2374 4.70593C84.2164 4.91792 84.7058 5.02391 84.8223 5.38231C84.9387 5.7407 84.605 6.11415 83.9377 6.86105L82.6128 8.34384C82.4231 8.55608 82.3283 8.6622 82.2857 8.79349C82.243 8.92478 82.2573 9.06637 82.286 9.34955L82.4863 11.3279C82.5872 12.3244 82.6377 12.8227 82.3328 13.0442C82.0279 13.2657 81.5696 13.0637 80.6531 12.6598L78.8334 11.858C78.573 11.7432 78.4427 11.6858 78.3047 11.6858C78.1666 11.6858 78.0364 11.7432 77.776 11.858L75.9563 12.6598C75.0398 13.0637 74.5815 13.2657 74.2766 13.0442C73.9717 12.8227 74.0222 12.3244 74.1231 11.3279L74.3234 9.34955C74.352 9.06637 74.3664 8.92478 74.3237 8.79349C74.2811 8.6622 74.1862 8.55608 73.9966 8.34384L72.6717 6.86105C72.0043 6.11415 71.6706 5.7407 71.7871 5.38231C71.9035 5.02391 72.393 4.91792 73.3719 4.70593L75.3154 4.28509C75.5935 4.22485 75.7326 4.19473 75.8443 4.11359C75.956 4.03245 76.0276 3.90947 76.1709 3.66352L77.1717 1.94526Z" fill="#FFC121"/>
<path d="M7.602 71.488H3.066V73.882C3.262 73.6393 3.542 73.4433 3.906 73.294C4.27 73.1353 4.65733 73.056 5.068 73.056C5.81467 73.056 6.426 73.2193 6.902 73.546C7.378 73.8727 7.72333 74.2927 7.938 74.806C8.15267 75.31 8.26 75.8513 8.26 76.43C8.26 77.5033 7.952 78.3667 7.336 79.02C6.72933 79.6733 5.86133 80 4.732 80C3.668 80 2.81867 79.734 2.184 79.202C1.54933 78.67 1.19 77.9747 1.106 77.116H3.01C3.094 77.4893 3.28067 77.788 3.57 78.012C3.86867 78.236 4.24667 78.348 4.704 78.348C5.25467 78.348 5.67 78.1753 5.95 77.83C6.23 77.4847 6.37 77.0273 6.37 76.458C6.37 75.8793 6.22533 75.4407 5.936 75.142C5.656 74.834 5.24067 74.68 4.69 74.68C4.298 74.68 3.97133 74.778 3.71 74.974C3.44867 75.17 3.262 75.4313 3.15 75.758H1.274V69.766H7.602V71.488ZM10.8438 80.098C10.4891 80.098 10.1951 79.9907 9.96177 79.776C9.73777 79.552 9.62577 79.2767 9.62577 78.95C9.62577 78.6233 9.73777 78.3527 9.96177 78.138C10.1951 77.914 10.4891 77.802 10.8438 77.802C11.1891 77.802 11.4738 77.914 11.6978 78.138C11.9218 78.3527 12.0338 78.6233 12.0338 78.95C12.0338 79.2767 11.9218 79.552 11.6978 79.776C11.4738 79.9907 11.1891 80.098 10.8438 80.098ZM13.3885 74.764C13.3885 73.1493 13.6778 71.8847 14.2565 70.97C14.8445 70.0553 15.8152 69.598 17.1685 69.598C18.5218 69.598 19.4878 70.0553 20.0665 70.97C20.6545 71.8847 20.9485 73.1493 20.9485 74.764C20.9485 76.388 20.6545 77.662 20.0665 78.586C19.4878 79.51 18.5218 79.972 17.1685 79.972C15.8152 79.972 14.8445 79.51 14.2565 78.586C13.6778 77.662 13.3885 76.388 13.3885 74.764ZM19.0165 74.764C19.0165 74.0733 18.9698 73.4947 18.8765 73.028C18.7925 72.552 18.6152 72.1647 18.3445 71.866C18.0832 71.5673 17.6912 71.418 17.1685 71.418C16.6458 71.418 16.2492 71.5673 15.9785 71.866C15.7172 72.1647 15.5398 72.552 15.4465 73.028C15.3625 73.4947 15.3205 74.0733 15.3205 74.764C15.3205 75.4733 15.3625 76.0707 15.4465 76.556C15.5305 77.032 15.7078 77.4193 15.9785 77.718C16.2492 78.0073 16.6458 78.152 17.1685 78.152C17.6912 78.152 18.0878 78.0073 18.3585 77.718C18.6292 77.4193 18.8065 77.032 18.8905 76.556C18.9745 76.0707 19.0165 75.4733 19.0165 74.764Z" fill="#141414"/>
<path d="M30.674 81.484H29.4V68.87H30.674V81.484ZM42.0226 80L39.6986 76.01H38.1586V80H36.8846V70.242H40.0346C40.772 70.242 41.3926 70.368 41.8966 70.62C42.41 70.872 42.7926 71.2127 43.0446 71.642C43.2966 72.0713 43.4226 72.5613 43.4226 73.112C43.4226 73.784 43.2266 74.3767 42.8346 74.89C42.452 75.4033 41.8733 75.744 41.0986 75.912L43.5486 80H42.0226ZM38.1586 74.988H40.0346C40.7253 74.988 41.2433 74.82 41.5886 74.484C41.934 74.1387 42.1066 73.6813 42.1066 73.112C42.1066 72.5333 41.934 72.0853 41.5886 71.768C41.2526 71.4507 40.7346 71.292 40.0346 71.292H38.1586V74.988ZM52.4022 75.87C52.4022 76.1127 52.3882 76.3693 52.3602 76.64H46.2282C46.2749 77.396 46.5316 77.9887 46.9982 78.418C47.4742 78.838 48.0482 79.048 48.7202 79.048C49.2709 79.048 49.7282 78.922 50.0922 78.67C50.4656 78.4087 50.7269 78.0633 50.8762 77.634H52.2482C52.0429 78.3713 51.6322 78.9733 51.0162 79.44C50.4002 79.8973 49.6349 80.126 48.7202 80.126C47.9922 80.126 47.3389 79.9627 46.7602 79.636C46.1909 79.3093 45.7429 78.8473 45.4162 78.25C45.0896 77.6433 44.9262 76.9433 44.9262 76.15C44.9262 75.3567 45.0849 74.6613 45.4022 74.064C45.7196 73.4667 46.1629 73.0093 46.7322 72.692C47.3109 72.3653 47.9736 72.202 48.7202 72.202C49.4482 72.202 50.0922 72.3607 50.6522 72.678C51.2122 72.9953 51.6416 73.434 51.9402 73.994C52.2482 74.5447 52.4022 75.17 52.4022 75.87ZM51.0862 75.604C51.0862 75.1187 50.9789 74.7033 50.7642 74.358C50.5496 74.0033 50.2556 73.7373 49.8822 73.56C49.5182 73.3733 49.1122 73.28 48.6642 73.28C48.0202 73.28 47.4696 73.4853 47.0122 73.896C46.5642 74.3067 46.3076 74.876 46.2422 75.604H51.0862ZM56.9399 78.824L59.3199 72.328H60.6779L57.6679 80H56.1839L53.1739 72.328H54.5459L56.9399 78.824ZM62.5895 71.082C62.3468 71.082 62.1415 70.998 61.9735 70.83C61.8055 70.662 61.7215 70.4567 61.7215 70.214C61.7215 69.9713 61.8055 69.766 61.9735 69.598C62.1415 69.43 62.3468 69.346 62.5895 69.346C62.8228 69.346 63.0188 69.43 63.1775 69.598C63.3455 69.766 63.4295 69.9713 63.4295 70.214C63.4295 70.4567 63.3455 70.662 63.1775 70.83C63.0188 70.998 62.8228 71.082 62.5895 71.082ZM63.2055 72.328V80H61.9315V72.328H63.2055ZM72.3768 75.87C72.3768 76.1127 72.3628 76.3693 72.3348 76.64H66.2028C66.2495 77.396 66.5062 77.9887 66.9728 78.418C67.4488 78.838 68.0228 79.048 68.6948 79.048C69.2455 79.048 69.7028 78.922 70.0668 78.67C70.4402 78.4087 70.7015 78.0633 70.8508 77.634H72.2228C72.0175 78.3713 71.6068 78.9733 70.9908 79.44C70.3748 79.8973 69.6095 80.126 68.6948 80.126C67.9668 80.126 67.3135 79.9627 66.7348 79.636C66.1655 79.3093 65.7175 78.8473 65.3908 78.25C65.0642 77.6433 64.9008 76.9433 64.9008 76.15C64.9008 75.3567 65.0595 74.6613 65.3768 74.064C65.6942 73.4667 66.1375 73.0093 66.7068 72.692C67.2855 72.3653 67.9482 72.202 68.6948 72.202C69.4228 72.202 70.0668 72.3607 70.6268 72.678C71.1868 72.9953 71.6162 73.434 71.9148 73.994C72.2228 74.5447 72.3768 75.17 72.3768 75.87ZM71.0608 75.604C71.0608 75.1187 70.9535 74.7033 70.7388 74.358C70.5242 74.0033 70.2302 73.7373 69.8568 73.56C69.4928 73.3733 69.0868 73.28 68.6388 73.28C67.9948 73.28 67.4442 73.4853 66.9868 73.896C66.5388 74.3067 66.2822 74.876 66.2168 75.604H71.0608ZM84.2785 72.328L81.8845 80H80.5685L78.7205 73.91L76.8725 80H75.5565L73.1485 72.328H74.4505L76.2145 78.768L78.1185 72.328H79.4205L81.2825 78.782L83.0185 72.328H84.2785ZM88.2588 80.126C87.6708 80.126 87.1435 80.028 86.6768 79.832C86.2102 79.6267 85.8415 79.3467 85.5708 78.992C85.3002 78.628 85.1508 78.2127 85.1228 77.746H86.4388C86.4762 78.1287 86.6535 78.4413 86.9708 78.684C87.2975 78.9267 87.7222 79.048 88.2448 79.048C88.7302 79.048 89.1128 78.9407 89.3928 78.726C89.6728 78.5113 89.8128 78.2407 89.8128 77.914C89.8128 77.578 89.6635 77.3307 89.3648 77.172C89.0662 77.004 88.6042 76.8407 87.9788 76.682C87.4095 76.5327 86.9428 76.3833 86.5788 76.234C86.2242 76.0753 85.9162 75.8467 85.6548 75.548C85.4028 75.24 85.2768 74.8387 85.2768 74.344C85.2768 73.952 85.3935 73.5927 85.6268 73.266C85.8602 72.9393 86.1915 72.6827 86.6208 72.496C87.0502 72.3 87.5402 72.202 88.0908 72.202C88.9402 72.202 89.6262 72.4167 90.1488 72.846C90.6715 73.2753 90.9515 73.8633 90.9888 74.61H89.7148C89.6868 74.2087 89.5235 73.8867 89.2248 73.644C88.9355 73.4013 88.5435 73.28 88.0488 73.28C87.5915 73.28 87.2275 73.378 86.9568 73.574C86.6862 73.77 86.5508 74.0267 86.5508 74.344C86.5508 74.596 86.6302 74.806 86.7888 74.974C86.9568 75.1327 87.1622 75.2633 87.4048 75.366C87.6568 75.4593 88.0022 75.5667 88.4408 75.688C88.9915 75.8373 89.4395 75.9867 89.7848 76.136C90.1302 76.276 90.4242 76.4907 90.6668 76.78C90.9188 77.0693 91.0495 77.4473 91.0588 77.914C91.0588 78.334 90.9422 78.712 90.7088 79.048C90.4755 79.384 90.1442 79.65 89.7148 79.846C89.2948 80.0327 88.8095 80.126 88.2588 80.126Z" fill="#606060"/>
<g clip-path="url(#clip0_3028_20029)">
<path fill-rule="evenodd" clip-rule="evenodd" d="M23.7334 38.1612H12.4695V41.4951H20.4584C20.0636 46.1702 16.1638 48.1639 12.483 48.1639C7.77361 48.1639 3.66414 44.4682 3.66414 39.288C3.66414 34.2417 7.58167 30.3557 12.4932 30.3557C16.2829 30.3557 18.516 32.7651 18.516 32.7651L20.8558 30.3478C20.8558 30.3478 17.8523 27.0125 12.3737 27.0125C5.3976 27.0121 0 32.8851 0 39.2286C0 45.4443 5.0767 51.5057 12.5517 51.5057C19.1254 51.5053 23.9374 47.0138 23.9374 40.3716C23.9374 38.9702 23.7334 38.1604 23.7334 38.1604V38.1612Z" fill="#176BEF"/>
<path fill-rule="evenodd" clip-rule="evenodd" d="M33.0037 38.8389C35.2768 38.8389 37.4307 40.6717 37.4307 43.6249C37.4307 46.5161 35.2858 48.4008 32.9935 48.4008C30.4746 48.4008 28.487 46.3889 28.487 43.6023C28.487 40.8751 30.4493 38.8389 33.0037 38.8389ZM32.9577 35.7468C28.3358 35.7468 25.0234 39.3507 25.0234 43.5546C25.0234 47.8197 28.2366 51.4909 33.012 51.4909C37.3353 51.4909 40.8776 48.195 40.8776 43.646C40.8776 38.4319 36.7572 35.7468 32.9577 35.7468Z" fill="#FF3E30"/>
<path fill-rule="evenodd" clip-rule="evenodd" d="M50.2572 38.8389C52.5307 38.8389 54.6846 40.6717 54.6846 43.6249C54.6846 46.5161 52.5393 48.4008 50.247 48.4008C47.7285 48.4008 45.7412 46.3889 45.7412 43.6023C45.7412 40.8751 47.7036 38.8389 50.2572 38.8389ZM50.2116 35.7468C45.59 35.7468 42.2773 39.3507 42.2773 43.5546C42.2773 47.8197 45.4901 51.4909 50.2659 51.4909C54.5892 51.4909 58.1311 48.195 58.1311 43.646C58.1311 38.4319 54.0111 35.7468 50.2116 35.7468Z" fill="#F7B529"/>
<path fill-rule="evenodd" clip-rule="evenodd" d="M67.447 38.8406C69.527 38.8406 71.6628 40.6118 71.6628 43.6368C71.6628 46.7119 69.5311 48.4067 67.401 48.4067C65.1396 48.4067 63.0351 46.575 63.0351 43.6662C63.0351 40.6437 65.2207 38.8406 67.447 38.8406ZM67.1396 35.7546C62.8974 35.7546 59.5625 39.4609 59.5625 43.6207C59.5625 48.3586 63.4288 51.501 67.0665 51.501C69.3162 51.501 70.5123 50.6104 71.3958 49.5885V51.1403C71.3958 53.8566 69.7419 55.4833 67.2464 55.4833C64.8357 55.4829 63.6267 53.6952 63.2067 52.6805L60.173 53.9454C61.2492 56.2144 63.4156 58.5813 67.2716 58.5813C71.4897 58.5813 74.7044 55.9312 74.7044 50.3738V36.2278H71.3958V37.5615C70.3784 36.4677 68.9866 35.7546 67.1396 35.7546Z" fill="#176BEF"/>
<path fill-rule="evenodd" clip-rule="evenodd" d="M89.5545 38.7637C90.9965 38.7637 92.0342 39.5279 92.4751 40.4449L85.4077 43.3914C85.103 41.1103 87.2698 38.7637 89.5545 38.7637ZM89.4165 35.7356C85.4145 35.7356 82.0547 38.9115 82.0547 43.5975C82.0547 48.5562 85.7999 51.497 89.8008 51.497C93.1402 51.497 95.1897 49.6747 96.4133 48.042L93.6844 46.2314C92.9766 47.3274 91.7929 48.3982 89.8177 48.3982C87.5993 48.3982 86.579 47.1864 85.9466 46.0129L96.5299 41.6327L95.9804 40.349C94.9578 37.8354 92.5727 35.736 89.4169 35.736L89.4165 35.7356Z" fill="#FF3E30"/>
<path fill-rule="evenodd" clip-rule="evenodd" d="M77.0078 51.03H80.4842V27.8264H77.0078V51.03Z" fill="#179C52"/>
</g>
<defs>
<clipPath id="clip0_3028_20029">
<rect width="97.0827" height="31.5935" fill="white" transform="translate(0 27)"/>
</clipPath>
</defs>
</svg>
