<svg width="112" height="83" viewBox="0 0 112 83" fill="none" xmlns="http://www.w3.org/2000/svg">
<g clip-path="url(#clip0_2755_15233)">
<mask id="mask0_2755_15233" style="mask-type:luminance" maskUnits="userSpaceOnUse" x="1" y="27" width="111" height="38">
<path d="M111.279 27H1.17432V64.3333H111.279V27Z" fill="white"/>
</mask>
<g mask="url(#mask0_2755_15233)">
<path d="M31.2576 50.4736C29.4686 50.4736 27.7922 49.7258 26.2691 48.5085L26.64 46.7901L26.6561 46.7265C26.9864 44.8969 28.0341 41.8258 31.2576 41.8258C33.675 41.8258 35.6414 43.767 35.6414 46.1536C35.6333 48.5324 33.6671 50.4736 31.2576 50.4736ZM31.2576 37.4424C27.1395 37.4424 23.9484 40.0836 22.651 44.4274C20.6685 41.4917 19.1696 37.9675 18.2912 35H13.859V46.3844C13.859 48.6278 12.0055 50.4574 9.73295 50.4574C7.46036 50.4574 5.60705 48.6278 5.60705 46.3844V35H1.17437V46.3844C1.15824 51.0464 5.00225 54.8729 9.72454 54.8729C14.4471 54.8729 18.2911 51.0464 18.2911 46.3844V44.4751C19.1532 46.2492 20.2088 48.039 21.4903 49.6303L18.7744 62.2316H23.3116L25.2777 53.0908C27.0022 54.1808 28.9848 54.8651 31.2574 54.8651C36.1166 54.8651 40.0735 50.935 40.0735 46.1377C40.0735 41.3484 36.1168 37.4424 31.2576 37.4424Z" fill="#6FDA44"/>
<path d="M53.9304 37.6062L56.7913 48.9905L59.9424 37.6062H63.6976L58.8545 54.0582H55.099L52.1255 42.6021L49.1598 54.0502H45.4046L40.561 37.5983H44.3165L47.4673 48.9827L50.3281 37.5983H53.9303L53.9304 37.6062ZM72.6829 37.1129C67.8075 37.1129 63.8588 41.019 63.8588 45.8242C63.8588 50.6374 67.8155 54.5357 72.6829 54.5357C77.5585 54.5357 81.5152 50.6374 81.5152 45.8242C81.5152 41.0111 77.5585 37.1129 72.6829 37.1129ZM72.6829 50.9556C69.8141 50.9556 67.4932 48.6643 67.4932 45.8323C67.4932 42.9999 69.8221 40.7089 72.6829 40.7089C75.5519 40.7089 77.8726 42.9999 77.8726 45.8323C77.8726 48.6565 75.5519 50.9556 72.6829 50.9556ZM92.2414 41.2896C89.719 41.2896 87.6801 43.3102 87.6801 45.7924V54.0502H83.9004V37.6062H87.6801V40.136C87.6801 40.136 89.2917 37.5981 92.6039 37.5981H93.764V41.2896H92.2414ZM104.926 45.1878C107.609 43.6921 109.43 40.8519 109.43 37.5981H105.651C105.651 40.3428 103.394 42.5703 100.614 42.5703H100.106V29.6665H96.3269V54.05H100.106V46.3015H100.557C100.929 46.3015 101.412 46.5403 101.63 46.8345L106.996 54.0502H111.526L104.926 45.1878Z" fill="#141414"/>
</g>
<path d="M21.77 70.5557H27.8312V72.0166H25.7716V78.2689H23.8885V72.0166H21.8289V70.5557H21.77Z" fill="#606060"/>
<path d="M32.0372 78.5027C29.8011 78.5027 28.0356 76.8665 28.0356 74.5292C28.0356 72.1918 29.8599 70.5557 32.0372 70.5557C34.2734 70.5557 36.0387 72.1918 36.0387 74.5292C36.0387 76.8665 34.2734 78.5027 32.0372 78.5027ZM32.0372 76.7496C33.273 76.7496 34.0968 75.8732 34.0968 74.4708C34.0968 73.0683 33.273 72.1918 32.0372 72.1918C30.7426 72.1918 29.9776 73.0683 29.9776 74.4708C29.9776 75.8732 30.7426 76.7496 32.0372 76.7496Z" fill="#606060"/>
<path d="M40.9433 75.5225H39.7664V78.3274H37.8833V70.5557H40.9433C42.8853 70.5557 43.8268 71.6075 43.8268 73.0683C43.8268 74.2954 42.9441 75.5225 40.9433 75.5225ZM40.8256 74.0032C41.5906 74.0032 41.8849 73.6526 41.8849 73.0099C41.8849 72.3671 41.5906 72.0166 40.8256 72.0166H39.7664V73.9448H40.8256V74.0032Z" fill="#606060"/>
<path d="M50.0122 70.5557C51.9541 70.5557 52.8956 71.6659 52.8956 73.0099C52.8956 74.0032 52.366 74.8798 51.1303 75.2304L52.9545 78.3274H50.7772L49.1295 75.4057H48.7175V78.3274H46.8345V70.5557H50.0122ZM49.9533 72.075H48.7764V74.0032H49.9533C50.6595 74.0032 51.0125 73.6526 51.0125 73.0099C50.9537 72.484 50.6595 72.075 49.9533 72.075Z" fill="#606060"/>
<path d="M58.5139 76.9834H55.5716L55.1009 78.3274H53.1001L55.9247 70.5557H58.1021L60.9267 78.3274H58.9259L58.5139 76.9834ZM57.0428 72.6593L56.1013 75.5225H58.0432L57.0428 72.6593Z" fill="#606060"/>
<path d="M62.0532 70.5557H68.1144V72.0166H66.0548V78.2689H64.1717V72.0166H62.1121V70.5557H62.0532Z" fill="#606060"/>
<path d="M73.9799 72.0166H71.0964V73.5942H73.6269V75.055H71.0964V76.7496H73.9799V78.2689H69.2134V70.5557H73.9799V72.0166Z" fill="#606060"/>
<path d="M81.646 74.4123C81.646 76.6912 80.0572 78.2689 77.5268 78.2689H74.5845V70.5557H77.5268C80.0572 70.5557 81.646 72.075 81.646 74.4123ZM77.468 76.6328C78.8803 76.6328 79.763 75.8147 79.763 74.4123C79.763 73.0099 78.9391 72.1334 77.468 72.1334H76.5852V76.6328H77.468Z" fill="#606060"/>
<path d="M88.3867 75.5225H87.2097V78.3274H85.3267V70.5557H88.3867C90.329 70.5557 91.2698 71.6075 91.2698 73.0683C91.2698 74.2954 90.3872 75.5225 88.3867 75.5225ZM88.269 74.0032C89.034 74.0032 89.3282 73.6526 89.3282 73.0099C89.3282 72.3671 89.034 72.0166 88.269 72.0166H87.2097V73.9448H88.269V74.0032Z" fill="#606060"/>
<path d="M94.4304 70.5557V76.8665H96.9019V78.3274H92.4888V70.5557H94.4304Z" fill="#606060"/>
<path d="M97.9189 70.5557H99.8015V75.1719C99.8015 76.1069 100.272 76.6328 101.155 76.6328C102.038 76.6328 102.508 76.1069 102.508 75.1719V70.5557H104.392V75.1719C104.392 77.334 102.862 78.3858 101.096 78.3858C99.2724 78.3858 97.8599 77.334 97.8599 75.1719V70.5557H97.9189Z" fill="#606060"/>
<path d="M108.08 78.4442C106.374 78.4442 105.079 77.6262 105.02 76.0485H107.021C107.08 76.6328 107.432 76.925 107.962 76.925C108.491 76.925 108.904 76.6328 108.904 76.2238C108.904 74.7629 105.02 75.581 105.02 72.8346C105.02 71.3737 106.255 70.5557 107.844 70.5557C109.551 70.5557 110.669 71.3737 110.787 72.893H108.727C108.669 72.3671 108.315 72.075 107.844 72.075C107.373 72.075 107.021 72.3086 107.021 72.7761C107.021 74.1201 110.905 73.5358 110.905 76.1069C110.963 77.334 109.904 78.4442 108.08 78.4442Z" fill="#606060"/>
<path d="M1.17822 67V77.0507L8.88708 82.3097L16.5959 77.0507V67H1.17822Z" fill="#E7337A"/>
<path d="M1.17432 67V77.0507L16.592 67H1.17432Z" fill="#EF6C9C"/>
<path d="M1.17432 67L8.88318 72.0837L16.592 67H1.17432Z" fill="#F4A0BD"/>
</g>
<path d="M7.09404 1.94526C7.59815 1.07975 7.85021 0.646998 8.22705 0.646998C8.60389 0.646998 8.85595 1.07975 9.36006 1.94526L10.3609 3.66352C10.5041 3.90948 10.5757 4.03245 10.6874 4.11359C10.7991 4.19473 10.9382 4.22485 11.2164 4.28509L13.1598 4.70593C14.1387 4.91792 14.6282 5.02391 14.7446 5.38231C14.8611 5.7407 14.5274 6.11415 13.86 6.86105L12.5351 8.34384C12.3455 8.55608 12.2507 8.6622 12.208 8.79349C12.1654 8.92478 12.1797 9.06637 12.2084 9.34955L12.4087 11.3279C12.5096 12.3244 12.56 12.8227 12.2551 13.0442C11.9503 13.2657 11.492 13.0637 10.5754 12.6598L8.75579 11.858C8.49533 11.7432 8.3651 11.6858 8.22705 11.6858C8.08901 11.6858 7.95878 11.7432 7.69832 11.858L5.87869 12.6598C4.96211 13.0637 4.50383 13.2657 4.19896 13.0442C3.89409 12.8227 3.94453 12.3244 4.04543 11.3279L4.24574 9.34955C4.27441 9.06637 4.28875 8.92478 4.24609 8.79349C4.20343 8.6622 4.10861 8.55608 3.91896 8.34384L2.59406 6.86105C1.92669 6.11415 1.59301 5.7407 1.70946 5.38231C1.82591 5.02391 2.31537 4.91792 3.2943 4.70593L5.23773 4.28509C5.51591 4.22485 5.655 4.19473 5.76668 4.11359C5.87836 4.03245 5.94999 3.90947 6.09324 3.66352L7.09404 1.94526Z" fill="#FFC121"/>
<path d="M24.7933 1.94526C25.2974 1.07975 25.5494 0.646998 25.9263 0.646998C26.3031 0.646998 26.5552 1.07975 27.0593 1.94526L28.0601 3.66352C28.2033 3.90948 28.275 4.03245 28.3866 4.11359C28.4983 4.19473 28.6374 4.22485 28.9156 4.28509L30.859 4.70593C31.8379 4.91792 32.3274 5.02391 32.4439 5.38231C32.5603 5.7407 32.2266 6.11415 31.5593 6.86105L30.2344 8.34384C30.0447 8.55608 29.9499 8.6622 29.9072 8.79349C29.8646 8.92478 29.8789 9.06637 29.9076 9.34955L30.1079 11.3279C30.2088 12.3244 30.2592 12.8227 29.9544 13.0442C29.6495 13.2657 29.1912 13.0637 28.2746 12.6598L26.455 11.858C26.1945 11.7432 26.0643 11.6858 25.9263 11.6858C25.7882 11.6858 25.658 11.7432 25.3975 11.858L23.5779 12.6598C22.6613 13.0637 22.203 13.2657 21.8982 13.0442C21.5933 12.8227 21.6438 12.3244 21.7447 11.3279L21.945 9.34955C21.9736 9.06637 21.988 8.92478 21.9453 8.79349C21.9026 8.6622 21.8078 8.55608 21.6182 8.34384L20.2933 6.86105C19.6259 6.11415 19.2922 5.7407 19.4087 5.38231C19.5251 5.02391 20.0146 4.91792 20.9935 4.70593L22.9369 4.28509C23.2151 4.22485 23.3542 4.19473 23.4659 4.11359C23.5776 4.03245 23.6492 3.90947 23.7925 3.66352L24.7933 1.94526Z" fill="#FFC121"/>
<path d="M42.4983 1.94526C43.0024 1.07975 43.2545 0.646998 43.6313 0.646998C44.0082 0.646998 44.2602 1.07975 44.7644 1.94526L45.7652 3.66352C45.9084 3.90948 45.98 4.03245 46.0917 4.11359C46.2034 4.19473 46.3425 4.22485 46.6207 4.28509L48.5641 4.70593C49.543 4.91792 50.0325 5.02391 50.1489 5.38231C50.2654 5.7407 49.9317 6.11415 49.2643 6.86105L47.9394 8.34384C47.7498 8.55608 47.655 8.6622 47.6123 8.79349C47.5697 8.92478 47.584 9.06637 47.6127 9.34955L47.813 11.3279C47.9139 12.3244 47.9643 12.8227 47.6594 13.0442C47.3546 13.2657 46.8963 13.0637 45.9797 12.6598L44.1601 11.858C43.8996 11.7432 43.7694 11.6858 43.6313 11.6858C43.4933 11.6858 43.3631 11.7432 43.1026 11.858L41.283 12.6598C40.3664 13.0637 39.9081 13.2657 39.6033 13.0442C39.2984 12.8227 39.3488 12.3244 39.4497 11.3279L39.65 9.34955C39.6787 9.06637 39.693 8.92478 39.6504 8.79349C39.6077 8.6622 39.5129 8.55608 39.3233 8.34384L37.9984 6.86105C37.331 6.11415 36.9973 5.7407 37.1138 5.38231C37.2302 5.02391 37.7197 4.91792 38.6986 4.70593L40.642 4.28509C40.9202 4.22485 41.0593 4.19473 41.171 4.11359C41.2827 4.03245 41.3543 3.90947 41.4975 3.66352L42.4983 1.94526Z" fill="#FFC121"/>
<path d="M60.1976 1.94526C60.7017 1.07975 60.9537 0.646998 61.3306 0.646998C61.7074 0.646998 61.9595 1.07975 62.4636 1.94526L63.4644 3.66352C63.6076 3.90948 63.6793 4.03245 63.7909 4.11359C63.9026 4.19473 64.0417 4.22485 64.3199 4.28509L66.2633 4.70593C67.2422 4.91792 67.7317 5.02391 67.8482 5.38231C67.9646 5.7407 67.6309 6.11415 66.9636 6.86105L65.6387 8.34384C65.449 8.55608 65.3542 8.6622 65.3115 8.79349C65.2689 8.92478 65.2832 9.06637 65.3119 9.34955L65.5122 11.3279C65.6131 12.3244 65.6635 12.8227 65.3587 13.0442C65.0538 13.2657 64.5955 13.0637 63.6789 12.6598L61.8593 11.858C61.5988 11.7432 61.4686 11.6858 61.3306 11.6858C61.1925 11.6858 61.0623 11.7432 60.8018 11.858L58.9822 12.6598C58.0656 13.0637 57.6073 13.2657 57.3025 13.0442C56.9976 12.8227 57.048 12.3244 57.1489 11.3279L57.3493 9.34955C57.3779 9.06637 57.3923 8.92478 57.3496 8.79349C57.3069 8.6622 57.2121 8.55608 57.0225 8.34384L55.6976 6.86105C55.0302 6.11415 54.6965 5.7407 54.813 5.38231C54.9294 5.02391 55.4189 4.91792 56.3978 4.70593L58.3412 4.28509C58.6194 4.22485 58.7585 4.19473 58.8702 4.11359C58.9819 4.03245 59.0535 3.90947 59.1968 3.66352L60.1976 1.94526Z" fill="#FFC121"/>
<path d="M77.8987 1.94526C78.4028 1.07975 78.6549 0.646998 79.0317 0.646998C79.4086 0.646998 79.6606 1.07975 80.1648 1.94526L81.1655 3.66352C81.3088 3.90948 81.3804 4.03245 81.4921 4.11359C81.6038 4.19473 81.7429 4.22485 82.0211 4.28509L83.9645 4.70593C84.9434 4.91792 85.4329 5.02391 85.5493 5.38231C85.6658 5.7407 85.3321 6.11415 84.6647 6.86105L83.3398 8.34384C83.1502 8.55608 83.0554 8.6622 83.0127 8.79349C82.97 8.92478 82.9844 9.06637 83.0131 9.34955L83.2134 11.3279C83.3143 12.3244 83.3647 12.8227 83.0598 13.0442C82.755 13.2657 82.2967 13.0637 81.3801 12.6598L79.5605 11.858C79.3 11.7432 79.1698 11.6858 79.0317 11.6858C78.8937 11.6858 78.7635 11.7432 78.503 11.858L76.6834 12.6598C75.7668 13.0637 75.3085 13.2657 75.0036 13.0442C74.6988 12.8227 74.7492 12.3244 74.8501 11.3279L75.0504 9.34955C75.0791 9.06637 75.0934 8.92478 75.0508 8.79349C75.0081 8.6622 74.9133 8.55608 74.7236 8.34384L73.3987 6.86105C72.7314 6.11415 72.3977 5.7407 72.5141 5.38231C72.6306 5.02391 73.1201 4.91792 74.099 4.70593L76.0424 4.28509C76.3206 4.22485 76.4597 4.19473 76.5714 4.11359C76.683 4.03245 76.7547 3.90947 76.8979 3.66352L77.8987 1.94526Z" fill="#FFC121"/>
<defs>
<clipPath id="clip0_2755_15233">
<rect width="111" height="56" fill="white" transform="translate(0.727051 27)"/>
</clipPath>
</defs>
</svg>
