<svg width="111" height="84" viewBox="0 0 111 84" fill="none" xmlns="http://www.w3.org/2000/svg">
<mask id="mask0_8172_15991" style="mask-type:luminance" maskUnits="userSpaceOnUse" x="0" y="27" width="111" height="38">
<path d="M110.55 27.3525H0.445312V64.6859H110.55V27.3525Z" fill="white"/>
</mask>
<g mask="url(#mask0_8172_15991)">
<path d="M30.5285 50.8259C28.7396 50.8259 27.0632 50.0781 25.5401 48.8608L25.9109 47.1424L25.9271 47.0788C26.2574 45.2492 27.3051 42.1781 30.5285 42.1781C32.946 42.1781 34.9124 44.1193 34.9124 46.5059C34.9043 48.8847 32.9381 50.8259 30.5285 50.8259ZM30.5285 37.7947C26.4104 37.7947 23.2194 40.4359 21.922 44.7797C19.9395 41.844 18.4406 38.3198 17.5622 35.3523H13.13V46.7367C13.13 48.9801 11.2765 50.8097 9.00395 50.8097C6.73136 50.8097 4.87804 48.9801 4.87804 46.7367V35.3523H0.445363V46.7367C0.429239 51.3987 4.27325 55.2252 8.99553 55.2252C13.718 55.2252 17.562 51.3987 17.562 46.7367V44.8274C18.4242 46.6015 19.4798 48.3913 20.7613 49.9826L18.0453 62.5839H22.5826L24.5487 53.4431C26.2732 54.5331 28.2558 55.2174 30.5284 55.2174C35.3876 55.2174 39.3445 51.2873 39.3445 46.49C39.3445 41.7007 35.3878 37.7947 30.5285 37.7947Z" fill="#6FDA44"/>
<path d="M53.2014 37.9588L56.0623 49.343L59.2133 37.9588H62.9685L58.1255 54.4108H54.37L51.3965 42.9547L48.4308 54.4028H44.6756L39.832 37.9509H43.5875L46.7383 49.3352L49.5991 37.9509H53.2013L53.2014 37.9588ZM71.9539 37.4654C67.0785 37.4654 63.1298 41.3716 63.1298 46.1767C63.1298 50.99 67.0865 54.8882 71.9539 54.8882C76.8295 54.8882 80.7862 50.99 80.7862 46.1767C80.7862 41.3637 76.8295 37.4654 71.9539 37.4654ZM71.9539 51.3081C69.0851 51.3081 66.7642 49.0168 66.7642 46.1848C66.7642 43.3525 69.0931 41.0614 71.9539 41.0614C74.8229 41.0614 77.1436 43.3525 77.1436 46.1848C77.1436 49.009 74.8229 51.3081 71.9539 51.3081ZM91.5124 41.6422C88.99 41.6422 86.9511 43.6628 86.9511 46.1449V54.4028H83.1714V37.9588H86.9511V40.4886C86.9511 40.4886 88.5627 37.9507 91.8749 37.9507H93.035V41.6422H91.5124ZM104.197 45.5404C106.88 44.0446 108.701 41.2045 108.701 37.9507H104.922C104.922 40.6953 102.665 42.9229 99.8848 42.9229H99.3773V30.019H95.5979V54.4025H99.3773V46.6541H99.8284C100.2 46.6541 100.683 46.8928 100.901 47.187L106.267 54.4028H110.797L104.197 45.5404Z" fill="#141414"/>
</g>
<path d="M21.043 70.9082H27.1041V72.3691H25.0445V78.6214H23.1615V72.3691H21.1019V70.9082H21.043Z" fill="#606060"/>
<path d="M31.3101 78.8552C29.074 78.8552 27.3086 77.219 27.3086 74.8817C27.3086 72.5444 29.1328 70.9082 31.3101 70.9082C33.5463 70.9082 35.3117 72.5444 35.3117 74.8817C35.3117 77.219 33.5463 78.8552 31.3101 78.8552ZM31.3101 77.1022C32.5459 77.1022 33.3697 76.2257 33.3697 74.8233C33.3697 73.4208 32.5459 72.5444 31.3101 72.5444C30.0156 72.5444 29.2506 73.4208 29.2506 74.8233C29.2506 76.2257 30.0156 77.1022 31.3101 77.1022Z" fill="#606060"/>
<path d="M40.2163 75.875H39.0393V78.6799H37.1562V70.9082H40.2163C42.1582 70.9082 43.0998 71.96 43.0998 73.4208C43.0998 74.6479 42.217 75.875 40.2163 75.875ZM40.0986 74.3558C40.8636 74.3558 41.1578 74.0052 41.1578 73.3624C41.1578 72.7197 40.8636 72.3691 40.0986 72.3691H39.0393V74.3558H40.0986Z" fill="#606060"/>
<path d="M49.2871 70.9082C51.229 70.9082 52.1705 72.0184 52.1705 73.3624C52.1705 74.3558 51.6409 75.2323 50.4052 75.583L52.2294 78.6799H50.0521L48.4044 75.7582H47.9924V78.6799H46.1094V70.9082H49.2871ZM49.2282 72.4275H48.0513V74.3558H49.2282C49.9344 74.3558 50.2875 74.0052 50.2875 73.3624C50.2286 72.8366 49.9344 72.4275 49.2282 72.4275Z" fill="#606060"/>
<path d="M57.7888 77.3359H54.8465L54.3758 78.6799H52.375L55.1996 70.9082H57.377L60.2016 78.6799H58.2008L57.7888 77.3359ZM56.3177 73.0118L55.3762 75.875H57.3181L56.3177 73.0118Z" fill="#606060"/>
<path d="M61.3281 70.9082H67.3893V72.3691H65.3297V78.6214H63.4466V72.3691H61.387V70.9082H61.3281Z" fill="#606060"/>
<path d="M73.2509 72.3691H70.3674V73.9468H72.8979V75.4076H70.3674V77.1022H73.2509V78.6214H68.4844V70.9082H73.2509V72.3691Z" fill="#606060"/>
<path d="M80.9209 74.7648C80.9209 77.0438 79.3321 78.6214 76.8017 78.6214H73.8594V70.9082H76.8017C79.3321 70.9082 80.9209 72.4275 80.9209 74.7648ZM76.7429 76.9854C78.1552 76.9854 79.0379 76.1672 79.0379 74.7648C79.0379 73.3624 78.214 72.4859 76.7429 72.4859H75.8601V76.9854H76.7429Z" fill="#606060"/>
<path d="M87.6616 75.875H86.4846V78.6799H84.6016V70.9082H87.6616C89.6039 70.9082 90.5447 71.96 90.5447 73.4208C90.5447 74.6479 89.6621 75.875 87.6616 75.875ZM87.5439 74.3558C88.3089 74.3558 88.6031 74.0052 88.6031 73.3624C88.6031 72.7197 88.3089 72.3691 87.5439 72.3691H86.4846V74.3558H87.5439Z" fill="#606060"/>
<path d="M93.7033 70.9082V77.219H96.1749V78.6799H91.7617V70.9082H93.7033Z" fill="#606060"/>
<path d="M97.1919 70.9082H99.0744V75.5245C99.0744 76.4594 99.5453 76.9854 100.428 76.9854C101.311 76.9854 101.781 76.4594 101.781 75.5245V70.9082H103.665V75.5245C103.665 77.6865 102.135 78.7383 100.369 78.7383C98.5454 78.7383 97.1328 77.6865 97.1328 75.5245V70.9082H97.1919Z" fill="#606060"/>
<path d="M107.353 78.7967C105.646 78.7967 104.352 77.9787 104.293 76.401H106.294C106.353 76.9854 106.705 77.2775 107.235 77.2775C107.764 77.2775 108.177 76.9854 108.177 76.5763C108.177 75.1154 104.293 75.9335 104.293 73.1871C104.293 71.7262 105.528 70.9082 107.117 70.9082C108.824 70.9082 109.942 71.7262 110.06 73.2455H108C107.942 72.7197 107.588 72.4275 107.117 72.4275C106.646 72.4275 106.294 72.6612 106.294 73.1286C106.294 74.4726 110.178 73.8883 110.178 76.4594C110.236 77.6865 109.177 78.7967 107.353 78.7967Z" fill="#606060"/>
<path d="M0.449219 67.3525V77.4032L8.15807 82.6622L15.8669 77.4032V67.3525H0.449219Z" fill="#E7337A"/>
<path d="M0.445312 67.3525V77.4032L15.863 67.3525H0.445312Z" fill="#EF6C9C"/>
<path d="M0.445312 67.3525L8.15417 72.4363L15.863 67.3525H0.445312Z" fill="#F4A0BD"/>
<path d="M6.36699 2.2978C6.8711 1.43229 7.12316 0.999537 7.5 0.999537C7.87684 0.999537 8.1289 1.43229 8.63301 2.2978L9.63381 4.01606C9.77706 4.26201 9.84869 4.38499 9.96037 4.46613C10.0721 4.54727 10.2111 4.57739 10.4893 4.63763L12.4327 5.05847C13.4117 5.27045 13.9011 5.37645 14.0176 5.73485C14.134 6.09324 13.8004 6.46669 13.133 7.21359L11.8081 8.69638C11.6184 8.90862 11.5236 9.01474 11.481 9.14603C11.4383 9.27732 11.4526 9.41891 11.4813 9.70209L11.6816 11.6804C11.7825 12.677 11.833 13.1752 11.5281 13.3967C11.2232 13.6182 10.7649 13.4163 9.84836 13.0124L8.02874 12.2105C7.76827 12.0958 7.63804 12.0384 7.5 12.0384C7.36196 12.0384 7.23173 12.0958 6.97126 12.2105L5.15164 13.0124C4.23506 13.4163 3.77678 13.6182 3.47191 13.3967C3.16703 13.1752 3.21748 12.677 3.31838 11.6804L3.51869 9.70209C3.54736 9.41891 3.5617 9.27732 3.51904 9.14603C3.47638 9.01474 3.38156 8.90862 3.19191 8.69638L1.86701 7.21359C1.19964 6.46669 0.865957 6.09324 0.982408 5.73485C1.09886 5.37645 1.58832 5.27045 2.56725 5.05847L4.51068 4.63763C4.78886 4.57739 4.92795 4.54727 5.03963 4.46613C5.15131 4.38499 5.22294 4.26201 5.36619 4.01606L6.36699 2.2978Z" fill="#FFC121"/>
<path d="M24.0662 2.2978C24.5703 1.43229 24.8224 0.999537 25.1992 0.999537C25.5761 0.999537 25.8281 1.43229 26.3322 2.2978L27.333 4.01606C27.4763 4.26201 27.5479 4.38499 27.6596 4.46613C27.7713 4.54727 27.9104 4.57739 28.1885 4.63763L30.132 5.05847C31.1109 5.27045 31.6004 5.37645 31.7168 5.73485C31.8333 6.09324 31.4996 6.46669 30.8322 7.21359L29.5073 8.69638C29.3177 8.90862 29.2228 9.01474 29.1802 9.14603C29.1375 9.27732 29.1519 9.41891 29.1805 9.70209L29.3808 11.6804C29.4817 12.677 29.5322 13.1752 29.2273 13.3967C28.9224 13.6182 28.4642 13.4163 27.5476 13.0124L25.728 12.2105C25.4675 12.0958 25.3373 12.0384 25.1992 12.0384C25.0612 12.0384 24.9309 12.0958 24.6705 12.2105L22.8509 13.0124C21.9343 13.4163 21.476 13.6182 21.1711 13.3967C20.8663 13.1752 20.9167 12.677 21.0176 11.6804L21.2179 9.70209C21.2466 9.41891 21.2609 9.27732 21.2183 9.14603C21.1756 9.01474 21.0808 8.90862 20.8911 8.69638L19.5662 7.21359C18.8989 6.46669 18.5652 6.09324 18.6816 5.73485C18.7981 5.37645 19.2875 5.27045 20.2665 5.05847L22.2099 4.63763C22.4881 4.57739 22.6272 4.54727 22.7388 4.46613C22.8505 4.38499 22.9222 4.26201 23.0654 4.01606L24.0662 2.2978Z" fill="#FFC121"/>
<path d="M41.7693 2.2978C42.2734 1.43229 42.5255 0.999537 42.9023 0.999537C43.2792 0.999537 43.5312 1.43229 44.0354 2.2978L45.0362 4.01606C45.1794 4.26201 45.251 4.38499 45.3627 4.46613C45.4744 4.54727 45.6135 4.57739 45.8917 4.63763L47.8351 5.05847C48.814 5.27045 49.3035 5.37645 49.4199 5.73485C49.5364 6.09324 49.2027 6.46669 48.5353 7.21359L47.2104 8.69638C47.0208 8.90862 46.926 9.01474 46.8833 9.14603C46.8406 9.27732 46.855 9.41891 46.8837 9.70209L47.084 11.6804C47.1849 12.677 47.2353 13.1752 46.9304 13.3967C46.6256 13.6182 46.1673 13.4163 45.2507 13.0124L43.4311 12.2105C43.1706 12.0958 43.0404 12.0384 42.9023 12.0384C42.7643 12.0384 42.6341 12.0958 42.3736 12.2105L40.554 13.0124C39.6374 13.4163 39.1791 13.6182 38.8743 13.3967C38.5694 13.1752 38.6198 12.677 38.7207 11.6804L38.921 9.70209C38.9497 9.41891 38.964 9.27732 38.9214 9.14603C38.8787 9.01474 38.7839 8.90862 38.5943 8.69638L37.2694 7.21359C36.602 6.46669 36.2683 6.09324 36.3848 5.73485C36.5012 5.37645 36.9907 5.27045 37.9696 5.05847L39.913 4.63763C40.1912 4.57739 40.3303 4.54727 40.442 4.46613C40.5537 4.38499 40.6253 4.26201 40.7685 4.01606L41.7693 2.2978Z" fill="#FFC121"/>
<path d="M59.4685 2.2978C59.9727 1.43229 60.2247 0.999537 60.6016 0.999537C60.9784 0.999537 61.2305 1.43229 61.7346 2.2978L62.7354 4.01606C62.8786 4.26201 62.9503 4.38499 63.0619 4.46613C63.1736 4.54727 63.3127 4.57739 63.5909 4.63763L65.5343 5.05847C66.5132 5.27045 67.0027 5.37645 67.1192 5.73485C67.2356 6.09324 66.9019 6.46669 66.2346 7.21359L64.9097 8.69638C64.72 8.90862 64.6252 9.01474 64.5825 9.14603C64.5399 9.27732 64.5542 9.41891 64.5829 9.70209L64.7832 11.6804C64.8841 12.677 64.9345 13.1752 64.6297 13.3967C64.3248 13.6182 63.8665 13.4163 62.9499 13.0124L61.1303 12.2105C60.8698 12.0958 60.7396 12.0384 60.6016 12.0384C60.4635 12.0384 60.3333 12.0958 60.0728 12.2105L58.2532 13.0124C57.3366 13.4163 56.8783 13.6182 56.5735 13.3967C56.2686 13.1752 56.319 12.677 56.4199 11.6804L56.6203 9.70209C56.6489 9.41891 56.6633 9.27732 56.6206 9.14603C56.5779 9.01474 56.4831 8.90862 56.2935 8.69638L54.9686 7.21359C54.3012 6.46669 53.9675 6.09324 54.084 5.73485C54.2004 5.37645 54.6899 5.27045 55.6688 5.05847L57.6122 4.63763C57.8904 4.57739 58.0295 4.54727 58.1412 4.46613C58.2529 4.38499 58.3245 4.26201 58.4678 4.01606L59.4685 2.2978Z" fill="#FFC121"/>
<path d="M77.1717 2.2978C77.6758 1.43229 77.9278 0.999537 78.3047 0.999537C78.6815 0.999537 78.9336 1.43229 79.4377 2.2978L80.4385 4.01606C80.5817 4.26201 80.6534 4.38499 80.7651 4.46613C80.8767 4.54727 81.0158 4.57739 81.294 4.63763L83.2374 5.05847C84.2164 5.27045 84.7058 5.37645 84.8223 5.73485C84.9387 6.09324 84.605 6.46669 83.9377 7.21359L82.6128 8.69638C82.4231 8.90862 82.3283 9.01474 82.2857 9.14603C82.243 9.27732 82.2573 9.41891 82.286 9.70209L82.4863 11.6804C82.5872 12.677 82.6377 13.1752 82.3328 13.3967C82.0279 13.6182 81.5696 13.4163 80.6531 13.0124L78.8334 12.2105C78.573 12.0958 78.4427 12.0384 78.3047 12.0384C78.1666 12.0384 78.0364 12.0958 77.776 12.2105L75.9563 13.0124C75.0398 13.4163 74.5815 13.6182 74.2766 13.3967C73.9717 13.1752 74.0222 12.677 74.1231 11.6804L74.3234 9.70209C74.352 9.41891 74.3664 9.27732 74.3237 9.14603C74.2811 9.01474 74.1862 8.90862 73.9966 8.69638L72.6717 7.21359C72.0043 6.46669 71.6706 6.09324 71.7871 5.73485C71.9035 5.37645 72.393 5.27045 73.3719 5.05847L75.3154 4.63763C75.5935 4.57739 75.7326 4.54727 75.8443 4.46613C75.956 4.38499 76.0276 4.26201 76.1709 4.01606L77.1717 2.2978Z" fill="#FFC121"/>
</svg>
