<svg width="28" height="28" viewBox="0 0 28 28" fill="none" xmlns="http://www.w3.org/2000/svg">
<path d="M5.92461 12.9004C0.0746096 13.3129 0.0746096 21.8254 5.92461 22.2379H8.32466" stroke="#141414" stroke-width="1.5" stroke-miterlimit="10" stroke-linecap="round" stroke-linejoin="round"/>
<path d="M5.98803 12.9008C1.97552 1.73829 18.9005 -2.72421 20.838 9.00079C26.2505 9.68829 28.438 16.9008 24.338 20.4883C23.088 21.6258 21.4755 22.2508 19.788 22.2383H19.6755" stroke="#141414" stroke-width="1.5" stroke-miterlimit="10" stroke-linecap="round" stroke-linejoin="round"/>
<path d="M20.249 19.6626C20.249 20.5876 20.049 21.4626 19.674 22.2376C19.574 22.4626 19.4616 22.6751 19.3366 22.8751C18.2615 24.6876 16.274 25.9126 13.999 25.9126C11.724 25.9126 9.7365 24.6876 8.6615 22.8751C8.5365 22.6751 8.42405 22.4626 8.32405 22.2376C7.94905 21.4626 7.74902 20.5876 7.74902 19.6626C7.74902 16.2126 10.549 13.4126 13.999 13.4126C17.449 13.4126 20.249 16.2126 20.249 19.6626Z" stroke="#141414" stroke-width="1.5" stroke-miterlimit="10" stroke-linecap="round" stroke-linejoin="round"/>
<path d="M12.0498 19.6625L13.2873 20.9L15.9498 18.4375" stroke="#141414" stroke-width="1.5" stroke-linecap="round" stroke-linejoin="round"/>
</svg>
