<svg width="52" height="52" viewBox="0 0 52 52" fill="none" xmlns="http://www.w3.org/2000/svg">
<rect width="52" height="52" rx="6" fill="#F4F4F4"/>
<path d="M17.9241 24.9004C12.0741 25.3129 12.0741 33.8254 17.9241 34.2379H20.3242" stroke="#141414" stroke-width="1.5" stroke-miterlimit="10" stroke-linecap="round" stroke-linejoin="round"/>
<path d="M17.987 24.9008C13.9745 13.7383 30.8995 9.27579 32.837 21.0008C38.2495 21.6883 40.437 28.9008 36.337 32.4883C35.087 33.6258 33.4745 34.2508 31.787 34.2383H31.6745" stroke="#141414" stroke-width="1.5" stroke-miterlimit="10" stroke-linecap="round" stroke-linejoin="round"/>
<path d="M32.249 31.6628C32.249 32.5878 32.049 33.4628 31.674 34.2378C31.574 34.4628 31.4616 34.6754 31.3366 34.8754C30.2615 36.6879 28.274 37.9128 25.999 37.9128C23.724 37.9128 21.7365 36.6879 20.6615 34.8754C20.5365 34.6754 20.4241 34.4628 20.3241 34.2378C19.9491 33.4628 19.749 32.5878 19.749 31.6628C19.749 28.2128 22.549 25.4128 25.999 25.4128C29.449 25.4128 32.249 28.2128 32.249 31.6628Z" stroke="#141414" stroke-width="1.5" stroke-miterlimit="10" stroke-linecap="round" stroke-linejoin="round"/>
<path d="M24.0503 31.6627L25.2878 32.9002L27.9503 30.4377" stroke="#141414" stroke-width="1.5" stroke-linecap="round" stroke-linejoin="round"/>
</svg>
