<svg width="28" height="28" viewBox="0 0 28 28" fill="none" xmlns="http://www.w3.org/2000/svg">
<path d="M11.2003 23.3337H16.8003C21.467 23.3337 23.3337 21.467 23.3337 16.8003V11.2003C23.3337 6.53366 21.467 4.66699 16.8003 4.66699H11.2003C6.53366 4.66699 4.66699 6.53366 4.66699 11.2003V16.8003C4.66699 21.467 6.53366 23.3337 11.2003 23.3337Z" stroke="#141414" strokeWidth="1.5" strokeLinecap="round" strokeLinejoin="round"/>
<path d="M12.2503 19.8337H15.7503C18.667 19.8337 19.8337 18.667 19.8337 15.7503V12.2503C19.8337 9.33366 18.667 8.16699 15.7503 8.16699H12.2503C9.33366 8.16699 8.16699 9.33366 8.16699 12.2503V15.7503C8.16699 18.667 9.33366 19.8337 12.2503 19.8337Z" stroke="#141414" strokeWidth="1.5" strokeLinecap="round" strokeLinejoin="round"/>
<path d="M9.34375 4.66683V2.3335" stroke="#141414" strokeWidth="1.5" strokeLinecap="round" strokeLinejoin="round"/>
<path d="M14 4.66683V2.3335" stroke="#141414" strokeWidth="1.5" strokeLinecap="round" strokeLinejoin="round"/>
<path d="M18.667 4.66683V2.3335" stroke="#141414" strokeWidth="1.5" strokeLinecap="round" strokeLinejoin="round"/>
<path d="M23.333 9.3335H25.6663" stroke="#141414" strokeWidth="1.5" strokeLinecap="round" strokeLinejoin="round"/>
<path d="M23.333 14H25.6663" stroke="#141414" strokeWidth="1.5" strokeLinecap="round" strokeLinejoin="round"/>
<path d="M23.333 18.667H25.6663" stroke="#141414" strokeWidth="1.5" strokeLinecap="round" strokeLinejoin="round"/>
<path d="M18.667 23.3335V25.6668" stroke="#141414" strokeWidth="1.5" strokeLinecap="round" strokeLinejoin="round"/>
<path d="M14.0107 23.3335V25.6668" stroke="#141414" strokeWidth="1.5" strokeLinecap="round" strokeLinejoin="round"/>
<path d="M9.34375 23.3335V25.6668" stroke="#141414" strokeWidth="1.5" strokeLinecap="round" strokeLinejoin="round"/>
<path d="M2.33301 9.3335H4.66634" stroke="#141414" strokeWidth="1.5" strokeLinecap="round" strokeLinejoin="round"/>
<path d="M2.33301 14H4.66634" stroke="#141414" strokeWidth="1.5" strokeLinecap="round" strokeLinejoin="round"/>
<path d="M2.33301 18.667H4.66634" stroke="#141414" strokeWidth="1.5" strokeLinecap="round" strokeLinejoin="round"/>
</svg>
