<svg width="52" height="52" viewBox="0 0 52 52" fill="none" xmlns="http://www.w3.org/2000/svg">
<rect width="52" height="52" rx="6" fill="#F4F4F4"/>
<path d="M22.4995 27.1667C21.7295 27.5517 21.0878 28.1234 20.6095 28.8351C20.3411 29.2434 20.3411 29.7567 20.6095 30.1651C21.0878 30.8767 21.7295 31.4484 22.4995 31.8334" stroke="#141414" stroke-width="1.5" stroke-linecap="round" stroke-linejoin="round"/>
<path d="M29.7446 27.1667C30.5146 27.5517 31.1563 28.1234 31.6346 28.8351C31.903 29.2434 31.903 29.7567 31.6346 30.1651C31.1563 30.8767 30.5146 31.4484 29.7446 31.8334" stroke="#141414" stroke-width="1.5" stroke-linecap="round" stroke-linejoin="round"/>
<path d="M22.4992 37.6666H29.4992C35.3325 37.6666 37.6659 35.3333 37.6659 29.4999V22.4999C37.6659 16.6666 35.3325 14.3333 29.4992 14.3333H22.4992C16.6659 14.3333 14.3325 16.6666 14.3325 22.4999V29.4999C14.3325 35.3333 16.6659 37.6666 22.4992 37.6666Z" stroke="#141414" stroke-width="1.5" stroke-linecap="round" stroke-linejoin="round"/>
<path d="M14.6011 21.3449L37.0244 21.3333" stroke="#141414" stroke-width="1.5" stroke-linecap="round" stroke-linejoin="round"/>
</svg>
