<svg width="28" height="28" viewBox="0 0 28 28" fill="none" xmlns="http://www.w3.org/2000/svg">
<path d="M10.4995 15.167C9.72945 15.552 9.08779 16.1237 8.60945 16.8353C8.34112 17.2437 8.34112 17.757 8.60945 18.1653C9.08779 18.877 9.72945 19.4487 10.4995 19.8337" stroke="#141414" stroke-width="1.5" stroke-linecap="round" stroke-linejoin="round"/>
<path d="M17.7451 15.167C18.5151 15.552 19.1568 16.1237 19.6351 16.8353C19.9035 17.2437 19.9035 17.757 19.6351 18.1653C19.1568 18.877 18.5151 19.4487 17.7451 19.8337" stroke="#141414" stroke-width="1.5" stroke-linecap="round" stroke-linejoin="round"/>
<path d="M10.4997 25.6663H17.4997C23.333 25.6663 25.6663 23.333 25.6663 17.4997V10.4997C25.6663 4.66634 23.333 2.33301 17.4997 2.33301H10.4997C4.66634 2.33301 2.33301 4.66634 2.33301 10.4997V17.4997C2.33301 23.333 4.66634 25.6663 10.4997 25.6663Z" stroke="#141414" stroke-width="1.5" stroke-linecap="round" stroke-linejoin="round"/>
<path d="M2.60059 9.34516L25.0239 9.3335" stroke="#141414" stroke-width="1.5" stroke-linecap="round" stroke-linejoin="round"/>
</svg>
