<svg width="52" height="52" viewBox="0 0 52 52" fill="none" xmlns="http://www.w3.org/2000/svg">
<rect width="52" height="52" rx="6" fill="#F4F4F4"/>
<path d="M23.2003 35.3334H28.8003C33.467 35.3334 35.3337 33.4667 35.3337 28.8001V23.2001C35.3337 18.5334 33.467 16.6667 28.8003 16.6667H23.2003C18.5337 16.6667 16.667 18.5334 16.667 23.2001V28.8001C16.667 33.4667 18.5337 35.3334 23.2003 35.3334Z" stroke="#141414" strokeWidth="1.5" strokeLinecap="round" strokeLinejoin="round"/>
<path d="M24.2503 31.8334H27.7503C30.667 31.8334 31.8337 30.6667 31.8337 27.7501V24.2501C31.8337 21.3334 30.667 20.1667 27.7503 20.1667H24.2503C21.3337 20.1667 20.167 21.3334 20.167 24.2501V27.7501C20.167 30.6667 21.3337 31.8334 24.2503 31.8334Z" stroke="#141414" strokeWidth="1.5" strokeLinecap="round" strokeLinejoin="round"/>
<path d="M21.3442 16.6666V14.3333" stroke="#141414" strokeWidth="1.5" strokeLinecap="round" strokeLinejoin="round"/>
<path d="M26 16.6668V14.3335" stroke="#141414" strokeWidth="1.5" strokeLinecap="round" strokeLinejoin="round"/>
<path d="M30.667 16.6666V14.3333" stroke="#141414" strokeWidth="1.5" strokeLinecap="round" strokeLinejoin="round"/>
<path d="M35.333 21.3333H37.6663" stroke="#141414" strokeWidth="1.5" strokeLinecap="round" strokeLinejoin="round"/>
<path d="M35.333 26H37.6663" stroke="#141414" strokeWidth="1.5" strokeLinecap="round" strokeLinejoin="round"/>
<path d="M35.333 30.6667H37.6663" stroke="#141414" strokeWidth="1.5" strokeLinecap="round" strokeLinejoin="round"/>
<path d="M30.667 35.3333V37.6666" stroke="#141414" strokeWidth="1.5" strokeLinecap="round" strokeLinejoin="round"/>
<path d="M26.0112 35.3335V37.6668" stroke="#141414" strokeWidth="1.5" strokeLinecap="round" strokeLinejoin="round"/>
<path d="M21.3442 35.3333V37.6666" stroke="#141414" strokeWidth="1.5" strokeLinecap="round" strokeLinejoin="round"/>
<path d="M14.333 21.3333H16.6663" stroke="#141414" strokeWidth="1.5" strokeLinecap="round" strokeLinejoin="round"/>
<path d="M14.333 26H16.6663" stroke="#141414" strokeWidth="1.5" strokeLinecap="round" strokeLinejoin="round"/>
<path d="M14.333 30.6667H16.6663" stroke="#141414" strokeWidth="1.5" strokeLinecap="round" strokeLinejoin="round"/>
</svg>
