<svg width="36" height="36" viewBox="0 0 36 36" fill="none" xmlns="http://www.w3.org/2000/svg">
<circle cx="18" cy="18" r="18" fill="#E8F7FF"/>
<path d="M25.3739 24.0735C24.9106 22.6949 23.0644 21.8319 21.7481 21.2535C21.2325 21.0276 19.8049 20.6444 19.6333 19.9952C19.5719 19.7612 19.5802 19.5407 19.6305 19.3293C19.5504 19.345 19.469 19.3531 19.3874 19.3535H18.5298C18.2007 19.3531 17.8852 19.2222 17.6525 18.9895C17.4198 18.7567 17.289 18.4412 17.2887 18.1121C17.2887 17.4284 17.8453 16.8724 18.5298 16.8724H19.3874C19.6708 16.8724 19.9394 16.9684 20.1561 17.1395C20.4644 17.0988 20.7687 17.0322 21.0657 16.9403C21.4409 16.1544 21.7334 15.2146 21.799 14.4057C22.0789 10.9447 19.9571 8.91973 16.9149 9.26979C14.703 9.5244 13.3817 11.1737 13.2388 13.2971C13.0944 15.4614 13.8969 17.0599 14.7492 18.2324C15.1225 18.7451 15.5147 19.0747 15.4544 19.6925C15.3845 20.423 14.6034 20.6265 14.0448 20.851C13.3828 21.1169 12.6698 21.5203 12.3331 21.7068C11.1732 22.3474 9.90015 23.1188 9.61403 24.174C8.98038 26.5127 11.1203 27.2211 12.8869 27.5481C14.4031 27.8278 16.1127 27.8499 17.5189 27.8499C20.0625 27.8499 24.6363 27.748 25.3739 25.836C25.5836 25.2934 25.4937 24.4289 25.3739 24.0735Z" fill="#02457C"/>
<path d="M19.9302 17.7628C19.8715 17.6724 19.7911 17.598 19.6964 17.5465C19.6017 17.495 19.4956 17.4679 19.3878 17.4677H18.5302C18.4439 17.4654 18.358 17.4804 18.2776 17.5118C18.1972 17.5433 18.1239 17.5905 18.0621 17.6507C18.0002 17.7109 17.9511 17.7829 17.9175 17.8625C17.8839 17.942 17.8666 18.0274 17.8666 18.1138C17.8666 18.2001 17.8839 18.2855 17.9175 18.3651C17.9511 18.4446 18.0002 18.5166 18.0621 18.5768C18.1239 18.6371 18.1972 18.6843 18.2776 18.7157C18.358 18.7471 18.4439 18.7621 18.5302 18.7598H19.3878C19.5058 18.7597 19.6215 18.7271 19.7221 18.6654C19.8227 18.6038 19.9043 18.5156 19.958 18.4105C21.1538 18.3164 22.1938 17.9512 22.9239 17.4118C23.0915 17.5199 23.2898 17.5832 23.5037 17.5832H23.5575C23.6992 17.5832 23.8395 17.5553 23.9704 17.501C24.1013 17.4468 24.2203 17.3673 24.3204 17.267C24.4206 17.1668 24.5 17.0477 24.5541 16.9168C24.6082 16.7858 24.6359 16.6455 24.6357 16.5038V14.3491C24.6358 14.1456 24.5781 13.9463 24.4693 13.7743C24.3605 13.6023 24.2051 13.4648 24.0212 13.3776C23.8629 9.91772 20.9988 7.1499 17.5 7.1499C14.0012 7.1499 11.1366 9.91772 10.979 13.3776C10.795 13.4646 10.6395 13.6021 10.5306 13.7741C10.4217 13.9462 10.3639 14.1456 10.364 14.3491V16.5038C10.3638 16.6454 10.3916 16.7857 10.4456 16.9166C10.4997 17.0475 10.579 17.1664 10.679 17.2667C10.7791 17.3669 10.8979 17.4465 11.0287 17.5008C11.1595 17.5551 11.2997 17.5831 11.4413 17.5832H11.4958C11.6375 17.5831 11.7778 17.5552 11.9087 17.5009C12.0395 17.4466 12.1584 17.3671 12.2585 17.2669C12.3586 17.1666 12.438 17.0476 12.4921 16.9167C12.5462 16.7858 12.574 16.6454 12.5739 16.5038V14.3491C12.5737 14.1485 12.5175 13.9518 12.4115 13.7815C12.3055 13.6111 12.154 13.4737 11.974 13.385C12.1279 10.4697 14.547 8.14603 17.5 8.14603C20.4518 8.14603 22.8721 10.4697 23.0253 13.385C22.8455 13.4739 22.6941 13.6113 22.5883 13.7817C22.4824 13.952 22.4263 14.1486 22.4261 14.3491V16.5038C22.4261 16.6468 22.454 16.78 22.503 16.9044C21.8746 17.3541 20.9599 17.6745 19.9302 17.7628Z" fill="#02457C"/>
</svg>
