<svg xmlns="http://www.w3.org/2000/svg" width="28" height="28" viewBox="0 0 23 29" fill="none">
<path d="M22.3333 7.66667V21C22.3333 26.3333 21 27.6667 15.6667 27.6667H7.66667C2.33333 27.6667 1 26.3333 1 21V7.66667C1 2.33333 2.33333 1 7.66667 1H15.6667C21 1 22.3333 2.33333 22.3333 7.66667Z" stroke="#141414" strokeWidth="1.5" strokeLinecap="round" strokeLinejoin="round"/>
<path d="M14.3333 5.6665H9" stroke="#141414" strokeWidth="1.5" strokeLinecap="round" strokeLinejoin="round"/>
<path d="M11.6673 23.7998C12.8086 23.7998 13.7339 22.8746 13.7339 21.7332C13.7339 20.5918 12.8086 19.6665 11.6673 19.6665C10.5259 19.6665 9.60059 20.5918 9.60059 21.7332C9.60059 22.8746 10.5259 23.7998 11.6673 23.7998Z" stroke="#141414" strokeWidth="1.5" strokeLinecap="round" strokeLinejoin="round"/>
</svg>