<svg width="52" height="52" viewBox="0 0 52 52" fill="none" xmlns="http://www.w3.org/2000/svg">
<rect width="52" height="52" rx="6" fill="#F4F4F4"/>
<path d="M26.0002 37.6666C32.4435 37.6666 37.6668 32.4432 37.6668 25.9999C37.6668 19.5566 32.4435 14.3333 26.0002 14.3333C19.5568 14.3333 14.3335 19.5566 14.3335 25.9999C14.3335 32.4432 19.5568 37.6666 26.0002 37.6666Z" stroke="#141414" stroke-width="1.5" stroke-linecap="round" stroke-linejoin="round"/>
<path d="M21.3447 28.9284C21.5547 29.2784 21.8114 29.6051 22.1031 29.8968C24.2497 32.0435 27.738 32.0435 29.8964 29.8968C30.7714 29.0218 31.2731 27.9134 31.4364 26.7817" stroke="#141414" stroke-width="1.5" stroke-linecap="round" stroke-linejoin="round"/>
<path d="M20.563 25.2185C20.7263 24.0751 21.228 22.9784 22.103 22.1034C24.2497 19.9567 27.738 19.9567 29.8963 22.1034C30.1997 22.4067 30.4446 22.7334 30.6546 23.0718" stroke="#141414" stroke-width="1.5" stroke-linecap="round" stroke-linejoin="round"/>
<path d="M21.123 32.0434V28.9285H24.238" stroke="#141414" stroke-width="1.5" stroke-linecap="round" stroke-linejoin="round"/>
<path d="M30.8762 19.9568V23.0718H27.7612" stroke="#141414" stroke-width="1.5" stroke-linecap="round" stroke-linejoin="round"/>
</svg>
