<svg width="28" height="28" viewBox="0 0 28 28" fill="none" xmlns="http://www.w3.org/2000/svg">
<path d="M13.9997 25.6668C20.443 25.6668 25.6663 20.4435 25.6663 14.0002C25.6663 7.55684 20.443 2.3335 13.9997 2.3335C7.55635 2.3335 2.33301 7.55684 2.33301 14.0002C2.33301 20.4435 7.55635 25.6668 13.9997 25.6668Z" stroke="#141414" strokeWidth="1.5" strokeLinecap="round" strokeLinejoin="round"/>
<path d="M9.34473 16.9284C9.55473 17.2784 9.81139 17.6051 10.1031 17.8968C12.2497 20.0435 15.738 20.0435 17.8964 17.8968C18.7714 17.0218 19.2731 15.9134 19.4364 14.7817" stroke="#141414" strokeWidth="1.5" strokeLinecap="round" strokeLinejoin="round"/>
<path d="M8.56348 13.2182C8.72681 12.0749 9.22849 10.9782 10.1035 10.1032C12.2502 7.9565 15.7385 7.9565 17.8968 10.1032C18.2001 10.4065 18.4451 10.7332 18.6551 11.0715" stroke="#141414" strokeWidth="1.5" strokeLinecap="round" strokeLinejoin="round"/>
<path d="M9.12305 20.0432V16.9282H12.238" stroke="#141414" strokeWidth="1.5" strokeLinecap="round" strokeLinejoin="round"/>
<path d="M18.8767 7.95654V11.0715H15.7617" stroke="#141414" strokeWidth="1.5" strokeLinecap="round" strokeLinejoin="round"/>
</svg>
