<svg width="28" height="28" viewBox="0 0 28 28" fill="none" xmlns="http://www.w3.org/2000/svg">
<path d="M16.9167 22.4438H11.0833M16.9167 22.4438C16.9167 21.6225 16.9167 21.2119 16.9611 20.9394C17.1044 20.0607 17.1294 20.0054 17.6974 19.314C17.8735 19.0996 18.5273 18.522 19.8348 17.367C21.624 15.7864 22.75 13.49 22.75 10.934C22.75 6.16656 18.8325 2.30176 14 2.30176C9.16751 2.30176 5.25 6.16656 5.25 10.934C5.25 13.49 6.37596 15.7864 8.16522 17.367C9.4727 18.522 10.1265 19.0996 10.3026 19.314C10.8706 20.0054 10.8956 20.0607 11.0389 20.9394C11.0833 21.2119 11.0833 21.6225 11.0833 22.4438M16.9167 22.4438C16.9167 23.5195 16.9167 24.0573 16.6822 24.458C16.5286 24.7204 16.3077 24.9384 16.0417 25.0899C15.6356 25.3212 15.0904 25.3212 14 25.3212C12.9096 25.3212 12.3644 25.3212 11.9583 25.0899C11.6923 24.9384 11.4714 24.7204 11.3178 24.458C11.0833 24.0573 11.0833 23.5195 11.0833 22.4438" stroke="#141414" stroke-width="1.5"/>
<path d="M16.7778 7.89258C15.0222 7.89258 13.5828 9.23922 13.4567 10.9399C12.8459 10.3902 12.049 10.0852 11.2222 10.0849H10C9.44772 10.0849 9 10.5326 9 11.0849V12.2772C9 14.0908 10.4956 15.5657 12.3333 15.5657H13.4444V17.258C13.4444 17.5342 13.6683 17.758 13.9444 17.758H14.0556C14.3317 17.758 14.5556 17.5342 14.5556 17.258V13.3734H15.6667C17.5044 13.3734 19 11.8985 19 10.0849V8.89258C19 8.34029 18.5523 7.89258 18 7.89258H16.7778ZM12.3333 14.4696C11.1078 14.4696 10.1111 13.4863 10.1111 12.2772V11.1811H11.2222C12.4478 11.1811 13.4444 12.1643 13.4444 13.3734V13.6946L12.5217 12.7842C12.327 12.5922 12.0141 12.5922 11.8194 12.7842L11.7458 12.8569C11.5473 13.0527 11.5473 13.373 11.7458 13.5687L12.6589 14.4696H12.3333ZM17.8889 10.0849C17.8889 11.294 16.8922 12.2772 15.6667 12.2772H15.3411L16.2542 11.3764C16.4527 11.1806 16.4527 10.8603 16.2542 10.6645L16.1806 10.5919C15.9859 10.3998 15.673 10.3998 15.4783 10.5919L14.5556 11.5022V11.1811C14.5556 9.972 15.5522 8.98874 16.7778 8.98874H17.8889V10.0849Z" fill="#141414"/>
</svg>
