<svg width="52" height="52" viewBox="0 0 52 52" fill="none" xmlns="http://www.w3.org/2000/svg">
<rect width="52" height="52" rx="6" fill="#F4F4F4"/>
<path d="M24.5417 38.2502H27.4817C28.6017 38.2502 29.325 37.4569 29.115 36.4885L28.6367 34.377H23.3867L22.9084 36.4885C22.6984 37.3985 23.4917 38.2502 24.5417 38.2502Z" stroke="#141414" stroke-width="1.5" stroke-linecap="round" stroke-linejoin="round"/>
<path d="M28.637 34.3652L30.6553 32.5685C31.787 31.5652 31.8336 30.8651 30.9353 29.7334L27.377 25.2185C26.6303 24.2735 25.4053 24.2735 24.6587 25.2185L21.1003 29.7334C20.202 30.8651 20.202 31.6002 21.3803 32.5685L23.3986 34.3652" stroke="#141414" stroke-width="1.5" stroke-linecap="round" stroke-linejoin="round"/>
<path d="M26.0107 24.9734V27.9251" stroke="#141414" stroke-width="1.5" stroke-linecap="round" stroke-linejoin="round"/>
<path d="M26.6058 17.8333H25.4391C24.7975 17.8333 24.2725 17.3083 24.2725 16.6666V15.4999C24.2725 14.8583 24.7975 14.3333 25.4391 14.3333H26.6058C27.2475 14.3333 27.7725 14.8583 27.7725 15.4999V16.6666C27.7725 17.3083 27.2475 17.8333 26.6058 17.8333Z" stroke="#141414" stroke-width="1.5" stroke-linecap="round" stroke-linejoin="round"/>
<path d="M15.8141 28.5316H16.9808C17.6225 28.5316 18.1475 28.0066 18.1475 27.3649V26.1982C18.1475 25.5566 17.6225 25.0315 16.9808 25.0315H15.8141C15.1725 25.0315 14.6475 25.5566 14.6475 26.1982V27.3649C14.6475 28.0066 15.1725 28.5316 15.8141 28.5316Z" stroke="#141414" stroke-width="1.5" stroke-linecap="round" stroke-linejoin="round"/>
<path d="M36.1844 28.5316H35.0177C34.3761 28.5316 33.8511 28.0066 33.8511 27.3649V26.1982C33.8511 25.5566 34.3761 25.0315 35.0177 25.0315H36.1844C36.8261 25.0315 37.3511 25.5566 37.3511 26.1982V27.3649C37.3511 28.0066 36.8261 28.5316 36.1844 28.5316Z" stroke="#141414" stroke-width="1.5" stroke-linecap="round" stroke-linejoin="round"/>
<path d="M24.2733 16.1533C19.8283 16.6783 16.375 20.4466 16.375 25.0316" stroke="#141414" stroke-width="1.5" stroke-linecap="round" stroke-linejoin="round"/>
<path d="M35.6241 25.0316C35.6241 20.4583 32.1941 16.7017 27.7725 16.1533" stroke="#141414" stroke-width="1.5" stroke-linecap="round" stroke-linejoin="round"/>
</svg>
