<svg width="28" height="28" viewBox="0 0 28 28" fill="none" xmlns="http://www.w3.org/2000/svg">
<path d="M12.5412 25.2502H15.4812C16.6012 25.2502 17.3246 24.4569 17.1146 23.4885L16.6362 21.377H11.3862L10.9079 23.4885C10.6979 24.3985 11.4912 25.2502 12.5412 25.2502Z" stroke="#141414" strokeWidth="1.5" strokeLinecap="round" strokeLinejoin="round"/>
<path d="M16.637 21.3652L18.6553 19.5685C19.787 18.5652 19.8336 17.8651 18.9353 16.7334L15.377 12.2185C14.6303 11.2735 13.4053 11.2735 12.6587 12.2185L9.10031 16.7334C8.20198 17.8651 8.20197 18.6002 9.3803 19.5685L11.3986 21.3652" stroke="#141414" strokeWidth="1.5" strokeLinecap="round" strokeLinejoin="round"/>
<path d="M14.0107 11.9736V14.9253" stroke="#141414" strokeWidth="1.5" strokeLinecap="round" strokeLinejoin="round"/>
<path d="M14.6058 4.83301H13.4391C12.7975 4.83301 12.2725 4.30801 12.2725 3.66634V2.49967C12.2725 1.85801 12.7975 1.33301 13.4391 1.33301H14.6058C15.2475 1.33301 15.7725 1.85801 15.7725 2.49967V3.66634C15.7725 4.30801 15.2475 4.83301 14.6058 4.83301Z" stroke="#141414" strokeWidth="1.5" strokeLinecap="round" strokeLinejoin="round"/>
<path d="M3.81413 15.5313H4.98079C5.62246 15.5313 6.14746 15.0063 6.14746 14.3647V13.198C6.14746 12.5563 5.62246 12.0312 4.98079 12.0312H3.81413C3.17246 12.0312 2.64746 12.5563 2.64746 13.198V14.3647C2.64746 15.0063 3.17246 15.5313 3.81413 15.5313Z" stroke="#141414" strokeWidth="1.5" strokeLinecap="round" strokeLinejoin="round"/>
<path d="M24.1849 15.5313H23.0182C22.3766 15.5313 21.8516 15.0063 21.8516 14.3647V13.198C21.8516 12.5563 22.3766 12.0312 23.0182 12.0312H24.1849C24.8266 12.0312 25.3516 12.5563 25.3516 13.198V14.3647C25.3516 15.0063 24.8266 15.5313 24.1849 15.5313Z" stroke="#141414" strokeWidth="1.5" strokeLinecap="round" strokeLinejoin="round"/>
<path d="M12.2733 3.15332C7.82834 3.67832 4.375 7.44664 4.375 12.0316" stroke="#141414" strokeWidth="1.5" strokeLinecap="round" strokeLinejoin="round"/>
<path d="M23.6241 12.0316C23.6241 7.4583 20.1941 3.70165 15.7725 3.15332" stroke="#141414" strokeWidth="1.5" strokeLinecap="round" strokeLinejoin="round"/>
</svg>
