<svg width="52" height="52" viewBox="0 0 52 52" fill="none" xmlns="http://www.w3.org/2000/svg">
<rect width="52" height="52" rx="6" fill="#F4F4F4"/>
<path d="M26.0002 37.6666C32.4435 37.6666 37.6668 32.4432 37.6668 25.9999C37.6668 19.5566 32.4435 14.3333 26.0002 14.3333C19.5568 14.3333 14.3335 19.5566 14.3335 25.9999C14.3335 32.4432 19.5568 37.6666 26.0002 37.6666Z" stroke="#292D32" stroke-width="1.5" stroke-linecap="round" stroke-linejoin="round"/>
<g opacity="0.4">
<path d="M21.333 15.5H22.4997C20.2247 22.3133 20.2247 29.6867 22.4997 36.5H21.333" stroke="#292D32" stroke-width="1.5" stroke-linecap="round" stroke-linejoin="round"/>
<path d="M29.5 15.5C31.775 22.3133 31.775 29.6867 29.5 36.5" stroke="#292D32" stroke-width="1.5" stroke-linecap="round" stroke-linejoin="round"/>
<path d="M15.5 30.6667V29.5C22.3133 31.775 29.6867 31.775 36.5 29.5V30.6667" stroke="#292D32" stroke-width="1.5" stroke-linecap="round" stroke-linejoin="round"/>
<path d="M15.5 22.5002C22.3133 20.2252 29.6867 20.2252 36.5 22.5002" stroke="#292D32" stroke-width="1.5" stroke-linecap="round" stroke-linejoin="round"/>
</g>
</svg>
