<svg width="28" height="28" viewBox="0 0 28 28" fill="none" xmlns="http://www.w3.org/2000/svg">
<path d="M13.9997 25.6668C20.443 25.6668 25.6663 20.4435 25.6663 14.0002C25.6663 7.55684 20.443 2.3335 13.9997 2.3335C7.55635 2.3335 2.33301 7.55684 2.33301 14.0002C2.33301 20.4435 7.55635 25.6668 13.9997 25.6668Z" stroke="#141414" strokeWidth="1.5" strokeLinecap="round" strokeLinejoin="round"/>
<path d="M9.33255 3.5H10.4992C8.22422 10.3133 8.22422 17.6867 10.4992 24.5H9.33255" stroke="#141414" strokeWidth="1.5" strokeLinecap="round" strokeLinejoin="round"/>
<path d="M17.5 3.5C19.775 10.3133 19.775 17.6867 17.5 24.5" stroke="#141414" strokeWidth="1.5" strokeLinecap="round" strokeLinejoin="round"/>
<path d="M3.5 18.6667V17.5C10.3133 19.775 17.6867 19.775 24.5 17.5V18.6667" stroke="#141414" strokeWidth="1.5" strokeLinecap="round" strokeLinejoin="round"/>
<path d="M3.5 10.5002C10.3133 8.2252 17.6867 8.2252 24.5 10.5002" stroke="#141414" strokeWidth="1.5" strokeLinecap="round" strokeLinejoin="round"/>
</svg>
