<svg width="43" height="6" viewBox="0 0 43 6" fill="none" xmlns="http://www.w3.org/2000/svg">
<path d="M0.333333 3C0.333333 4.47276 1.52724 5.66667 3 5.66667C4.47276 5.66667 5.66667 4.47276 5.66667 3C5.66667 1.52724 4.47276 0.333333 3 0.333333C1.52724 0.333333 0.333333 1.52724 0.333333 3ZM38 3.5L43 5.88675V0.113249L38 2.5V3.5ZM3 3.5L4.42857 3.5V2.5L3 2.5V3.5ZM7.28571 3.5L10.1429 3.5V2.5L7.28571 2.5V3.5ZM13 3.5L15.8571 3.5V2.5L13 2.5V3.5ZM18.7143 3.5L21.5714 3.5V2.5L18.7143 2.5V3.5ZM24.4286 3.5L27.2857 3.5V2.5L24.4286 2.5V3.5ZM30.1429 3.5L33 3.5V2.5L30.1429 2.5V3.5ZM35.8571 3.5L38.7143 3.5V2.5L35.8571 2.5V3.5Z" fill="#606060"/>
</svg>
