<svg width="30" height="18" viewBox="0 0 30 18" fill="none" xmlns="http://www.w3.org/2000/svg">
<path d="M8.135 6.4582C8.135 6.8242 8.1744 7.1208 8.2434 7.3384C8.33113 7.58316 8.43675 7.82114 8.5594 8.0504C8.6086 8.1296 8.6284 8.2088 8.6284 8.278C8.6284 8.377 8.5692 8.476 8.4408 8.5748L7.8192 8.9902C7.7304 9.0494 7.6414 9.0792 7.5626 9.0792C7.4638 9.0792 7.3652 9.0296 7.2666 8.9406C7.13355 8.79738 7.01454 8.64174 6.9112 8.4758C6.80087 8.28575 6.69878 8.09104 6.6052 7.8922C5.8356 8.8022 4.8684 9.2572 3.704 9.2572C2.875 9.2572 2.214 9.0198 1.7304 8.5452C1.2468 8.0704 1 7.4372 1 6.6462C1 5.8054 1.296 5.123 1.898 4.6088C2.5 4.0944 3.2994 3.8374 4.316 3.8374C4.6514 3.8374 4.9968 3.867 5.362 3.9164C5.727 3.966 6.102 4.045 6.4968 4.134V3.412C6.4968 2.6604 6.3388 2.1362 6.0328 1.8296C5.7172 1.523 5.1842 1.3748 4.4244 1.3748C4.079 1.3748 3.7238 1.4142 3.3586 1.5032C2.99579 1.58987 2.63962 1.70228 2.2928 1.8396C2.18059 1.88993 2.06521 1.93289 1.9474 1.9682C1.8784 1.9878 1.829 1.9978 1.7894 1.9978C1.6514 1.9978 1.5822 1.899 1.5822 1.6912V1.2066C1.5822 1.0484 1.6022 0.9296 1.6514 0.8606C1.7006 0.7912 1.7894 0.722 1.9276 0.6526C2.273 0.4746 2.6876 0.3264 3.171 0.2076C3.6546 0.0792 4.168 0.0196 4.7106 0.0196C5.885 0.0196 6.7434 0.2868 7.296 0.8208C7.8388 1.3548 8.1152 2.166 8.1152 3.2538V6.4582H8.135ZM4.1284 7.9616C4.454 7.9616 4.7896 7.9022 5.1448 7.7836C5.5 7.6648 5.8158 7.4472 6.0822 7.1506C6.2402 6.9626 6.3586 6.755 6.4178 6.5176C6.477 6.2802 6.5164 5.9934 6.5164 5.6572V5.2418C6.21718 5.16885 5.91411 5.11276 5.6086 5.0738C5.30095 5.03457 4.99114 5.01466 4.681 5.0142C4.0198 5.0142 3.5362 5.1428 3.2106 5.4098C2.885 5.677 2.727 6.0528 2.727 6.5472C2.727 7.012 2.8454 7.3582 3.0922 7.5956C3.329 7.8428 3.6744 7.9616 4.1282 7.9616H4.1284ZM12.0526 9.0296C11.875 9.0296 11.7566 9 11.6776 8.9308C11.5988 8.8714 11.5296 8.7328 11.4704 8.545L9.1514 0.9C9.0922 0.702 9.0626 0.5736 9.0626 0.5044C9.0626 0.3462 9.1414 0.2572 9.2994 0.2572H10.2664C10.454 0.2572 10.5824 0.2868 10.6514 0.356C10.7304 0.4154 10.7894 0.554 10.8488 0.7418L12.5068 7.289L14.0462 0.7418C14.0954 0.5438 14.1546 0.4154 14.2336 0.356C14.3126 0.2966 14.4506 0.2572 14.6284 0.2572H15.4178C15.6054 0.2572 15.7336 0.2868 15.8126 0.356C15.8916 0.4154 15.9606 0.554 16 0.7418L17.5592 7.3682L19.2666 0.7418C19.3256 0.5438 19.3946 0.4154 19.4638 0.356C19.5428 0.2966 19.671 0.2572 19.8488 0.2572H20.7664C20.9244 0.2572 21.0132 0.3362 21.0132 0.5044C21.0132 0.5538 21.0034 0.6032 20.9934 0.6626C20.978 0.746929 20.9549 0.829672 20.9244 0.9098L18.5462 8.5552C18.4868 8.753 18.4178 8.8814 18.3388 8.9408C18.26 9.0002 18.1316 9.0398 17.9638 9.0398H17.1152C16.9276 9.0398 16.7992 9.01 16.7204 8.9408C16.6416 8.8716 16.5724 8.743 16.533 8.5452L15.0034 2.1662L13.4836 8.5354C13.4342 8.7332 13.375 8.8618 13.296 8.931C13.2172 9.0002 13.079 9.0298 12.9014 9.0298L12.0526 9.0296ZM24.7336 9.2968C24.2204 9.2968 23.7072 9.2374 23.2138 9.1188C22.7204 9 22.3356 8.8714 22.079 8.723C21.921 8.634 21.8126 8.535 21.773 8.4462C21.7346 8.35886 21.7145 8.2646 21.7138 8.1692V7.6648C21.7138 7.4572 21.7928 7.3582 21.9408 7.3582C22 7.3582 22.0592 7.3682 22.1184 7.3878C22.1776 7.4078 22.2664 7.4472 22.3652 7.4868C22.7137 7.64039 23.0777 7.75638 23.4508 7.8328C23.8454 7.912 24.2304 7.9516 24.625 7.9516C25.2468 7.9516 25.7304 7.8428 26.0658 7.6252C26.4014 7.4076 26.579 7.0912 26.579 6.6856C26.579 6.4088 26.4902 6.1814 26.3126 5.9934C26.135 5.8054 25.7994 5.6374 25.3158 5.4792L23.885 5.034C23.1646 4.8066 22.6316 4.4704 22.306 4.0252C21.9804 3.59 21.8126 3.1054 21.8126 2.5912C21.8126 2.1758 21.9014 1.8098 22.079 1.4934C22.2566 1.177 22.4934 0.9 22.7896 0.6824C23.0856 0.455 23.421 0.2868 23.8158 0.1682C24.2106 0.0494 24.625 0 25.0592 0C25.2764 0 25.5034 0.00999999 25.7204 0.0396C25.9474 0.0692 26.1546 0.1088 26.3618 0.1484C26.5592 0.1978 26.7468 0.2472 26.9244 0.3064C27.102 0.366 27.2402 0.4252 27.3388 0.4846C27.477 0.5638 27.5758 0.6428 27.635 0.7318C27.6942 0.811 27.7238 0.9198 27.7238 1.0582V1.5232C27.7238 1.731 27.6448 1.8398 27.4968 1.8398C27.4178 1.8398 27.2896 1.8002 27.1218 1.721C26.5592 1.464 25.9276 1.3354 25.227 1.3354C24.6646 1.3354 24.2204 1.4244 23.9146 1.6122C23.6086 1.8002 23.4508 2.087 23.4508 2.4926C23.4508 2.7694 23.5494 3.0066 23.7468 3.1946C23.9442 3.3826 24.3092 3.5706 24.8322 3.7386L26.2336 4.1838C26.9442 4.4112 27.4572 4.7278 27.7632 5.1332C28.0692 5.5386 28.2172 6.0034 28.2172 6.5178C28.2172 6.943 28.1284 7.3288 27.9606 7.665C27.783 8.0012 27.5462 8.298 27.2402 8.5354C26.9342 8.7826 26.5692 8.9606 26.1448 9.0892C25.7008 9.2276 25.2368 9.2968 24.7336 9.2968Z" fill="#F5F5F5"/>
<path d="M24.1037 12.4317C25.1597 12.3031 27.4885 12.0263 27.9031 12.5603C28.3175 13.0845 27.4393 15.2901 27.0445 16.2691C26.9261 16.5659 27.1827 16.6845 27.4491 16.4571C29.1859 14.9933 29.6399 11.9371 29.2847 11.4921C28.9293 11.0571 25.8801 10.6811 24.0247 11.9867C23.7385 12.1943 23.7879 12.4713 24.1037 12.4317Z" fill="#606060"/>
<path d="M14.8058 17.7826C18.8618 17.7826 23.5788 16.5066 26.8256 14.1034C27.3584 13.7078 26.8946 13.1046 26.3518 13.3518C22.7104 14.8946 18.7532 15.6464 15.1512 15.6464C9.81239 15.6464 4.65119 14.1728 0.467187 11.7398C0.101787 11.5222 -0.174413 11.898 0.131387 12.175C3.99999 15.676 9.12159 17.7826 14.8058 17.7826Z" fill="#606060"/>
</svg>
