<svg width="18" height="12" viewBox="0 0 18 12" fill="none" xmlns="http://www.w3.org/2000/svg">
<path d="M9.27225 8.21025C9.27225 6.82425 8.613 5.79975 7.251 5.41575C8.24475 4.9425 8.763 4.2255 8.763 3.11025C8.763 0.91125 7.119 0.375 5.22225 0.375H0V11.4158H5.3685C7.3815 11.4158 9.27225 10.4535 9.27225 8.21025ZM2.4345 2.25975H4.719C5.59725 2.25975 6.38775 2.50575 6.38775 3.52125C6.38775 4.45875 5.77275 4.836 4.90275 4.836H2.4345V2.25975ZM2.43375 9.54075V6.50025H5.08725C6.159 6.50025 6.837 6.94575 6.837 8.07675C6.837 9.192 6.02775 9.54075 5.037 9.54075H2.43375ZM14.097 11.625C16.0125 11.625 17.253 10.7647 17.85 8.93625H15.906C15.6967 9.61875 14.8342 9.9795 14.1652 9.9795C12.8745 9.9795 12.1965 9.22575 12.1965 7.94475H17.9813C18.1642 5.38125 16.7362 3.1965 14.0963 3.1965C11.652 3.1965 9.993 5.028 9.993 7.42725C9.993 9.91725 11.565 11.625 14.097 11.625ZM14.028 4.8555C15.1343 4.8555 15.6908 5.5035 15.7838 6.56325H12.1995C12.2723 5.5125 12.972 4.8555 14.028 4.8555ZM11.7502 0.95475H16.2413V2.04225H11.7502V0.95475Z" fill="black"/>
</svg>
