<svg width="18" height="18" viewBox="0 0 18 18" fill="none" xmlns="http://www.w3.org/2000/svg">
<path d="M1.49821 8.24994H14.6877L10.718 4.28019C10.6463 4.211 10.5892 4.12825 10.5499 4.03674C10.5106 3.94524 10.4899 3.84682 10.489 3.74724C10.4882 3.64766 10.5071 3.5489 10.5448 3.45672C10.5826 3.36455 10.6382 3.28081 10.7087 3.21039C10.7791 3.13997 10.8628 3.08428 10.955 3.04657C11.0472 3.00886 11.1459 2.98989 11.2455 2.99075C11.3451 2.99162 11.4435 3.01231 11.535 3.05161C11.6265 3.09092 11.7093 3.14806 11.7785 3.21969L17.0285 8.46969C17.1691 8.61033 17.248 8.80107 17.248 8.99994C17.248 9.19881 17.1691 9.38954 17.0285 9.53019L11.7785 14.7802C11.637 14.9168 11.4476 14.9924 11.2509 14.9907C11.0543 14.989 10.8661 14.9101 10.7271 14.7711C10.588 14.632 10.5092 14.4439 10.5075 14.2472C10.5057 14.0506 10.5813 13.8611 10.718 13.7197L14.6877 9.74994H1.49821C1.29929 9.74994 1.10853 9.67092 0.967876 9.53027C0.827225 9.38962 0.748207 9.19885 0.748207 8.99994C0.748207 8.80103 0.827225 8.61026 0.967876 8.46961C1.10853 8.32896 1.29929 8.24994 1.49821 8.24994Z" fill="#141414"/>
</svg>
