<svg width="46" height="46" viewBox="0 0 46 46" fill="none" xmlns="http://www.w3.org/2000/svg">
<rect width="46" height="46" rx="23" fill="black"/>
<g clip-path="url(#clip0_10636_46630)">
<path d="M32.458 16.7274C31.4296 14.9656 30.0347 13.5707 28.2728 12.5423C26.5106 11.514 24.587 11 22.5003 11C20.4139 11 18.4897 11.514 16.7278 12.5423C14.9658 13.5705 13.5709 14.9655 12.5425 16.7274C11.514 18.4895 11 20.4138 11 22.5C11 24.5864 11.5142 26.5103 12.5423 28.2725C13.5707 30.0343 14.9656 31.4293 16.7276 32.4577C18.4897 33.486 20.4138 34.0001 22.5001 34.0001C24.5865 34.0001 26.5108 33.486 28.2728 32.4577C30.0346 31.4296 31.4295 30.0343 32.4578 28.2725C33.486 26.5105 33.9999 24.5863 33.9999 22.5C34 20.4136 33.486 18.4893 32.458 16.7274ZM22.5002 12.6771C24.9758 12.6771 27.1371 13.4957 28.9838 15.1327L28.7966 15.3946C28.7218 15.4996 28.5346 15.7015 28.2352 16.0011C27.9358 16.3005 27.6088 16.5852 27.2545 16.8547C26.8999 17.1243 26.4185 17.4312 25.8093 17.7756C25.2003 18.12 24.5515 18.4222 23.8626 18.6817C22.7147 16.5652 21.4869 14.6585 20.1792 12.9615C20.9679 12.7719 21.7415 12.6771 22.5002 12.6771ZM14.8037 16.4052C15.762 15.1976 16.9298 14.2691 18.3075 13.6203C19.5453 15.2674 20.7631 17.1543 21.9611 19.2805C18.9264 20.0791 15.9018 20.4784 12.887 20.4783C13.2066 18.971 13.8454 17.6132 14.8037 16.4052ZM13.336 26.0417C12.8967 24.9186 12.6771 23.738 12.6771 22.5C12.6771 22.3602 12.6823 22.2554 12.6921 22.1855C16.306 22.1855 19.6653 21.7215 22.7699 20.7929C23.0894 21.4118 23.3539 21.9658 23.5636 22.4551C23.5231 22.4751 23.4587 22.4974 23.3688 22.5224C23.2787 22.5474 23.2139 22.5647 23.1737 22.5748L22.6198 22.7694C22.2403 22.9093 21.7435 23.1489 21.1298 23.4881C20.5159 23.8279 19.8646 24.232 19.1757 24.7013C18.4869 25.1706 17.7756 25.792 17.042 26.5659C16.3082 27.3395 15.6918 28.1703 15.1927 29.0588C14.394 28.1703 13.7752 27.1643 13.336 26.0417ZM22.5002 32.3231C20.1642 32.3231 18.0778 31.5743 16.2409 30.077L16.4656 30.2418C16.8149 29.4729 17.329 28.7342 18.0079 28.0255C18.6868 27.3169 19.3406 26.7451 19.9695 26.3108C20.5984 25.8768 21.2822 25.4676 22.021 25.0828C22.7597 24.6987 23.2636 24.4539 23.5333 24.3494C23.8029 24.2446 24.0176 24.162 24.1773 24.102L24.2071 24.087H24.2372C25.2152 26.6525 25.9144 29.1384 26.3335 31.5442C25.0956 32.0635 23.818 32.3229 22.5002 32.3231ZM30.7662 27.8084C30.0275 28.9515 29.1039 29.8975 27.9961 30.646C27.5865 28.35 26.948 26.0088 26.0792 23.6231C28.0658 23.3133 30.1072 23.4583 32.2036 24.0571C31.9839 25.4147 31.5046 26.6654 30.7662 27.8084ZM32.1734 22.3653C32.049 22.3409 31.9241 22.3185 31.799 22.298C31.6493 22.2732 31.4669 22.2431 31.2523 22.2082C31.0379 22.1732 30.798 22.1409 30.5336 22.1109C30.252 22.0793 29.9698 22.0518 29.6873 22.0286C29.388 22.0035 29.0685 21.9837 28.7292 21.9686C28.3849 21.9536 28.0404 21.9461 27.6957 21.9462C27.3467 21.9462 26.9795 21.9563 26.5953 21.9761C26.2222 21.9949 25.8501 22.0299 25.48 22.081C25.4499 22.031 25.4125 21.9486 25.3677 21.8337C25.3228 21.719 25.2901 21.6315 25.2707 21.5717C25.0547 21.0958 24.8348 20.6216 24.6113 20.1492C25.3002 19.8695 25.9567 19.5477 26.581 19.1832C27.2047 18.8188 27.7035 18.4946 28.078 18.2101C28.4491 17.9282 28.804 17.6256 29.1412 17.3039C29.4757 16.9845 29.6925 16.7625 29.7927 16.6377C29.8894 16.5169 29.9843 16.3946 30.0772 16.2708L30.0922 16.2557C31.5496 18.0326 32.2937 20.079 32.3233 22.3952L32.1734 22.3653Z" fill="white"/>
</g>
<defs>
<clipPath id="clip0_10636_46630">
<rect width="23" height="23" fill="white" transform="translate(11 11)"/>
</clipPath>
</defs>
</svg>
