<svg width="46" height="46" viewBox="0 0 46 46" fill="none" xmlns="http://www.w3.org/2000/svg">
<rect width="46" height="46" rx="23" fill="#141414"/>
<g clip-path="url(#clip0_2755_15218)">
<path d="M23.0494 16.5786C19.6315 16.5786 16.8745 19.3356 16.8745 22.7535C16.8745 26.1715 19.6315 28.9284 23.0494 28.9284C26.4674 28.9284 29.2243 26.1715 29.2243 22.7535C29.2243 19.3356 26.4674 16.5786 23.0494 16.5786ZM23.0494 26.768C20.8406 26.768 19.0349 24.9677 19.0349 22.7535C19.0349 20.5394 20.8353 18.739 23.0494 18.739C25.2636 18.739 27.0639 20.5394 27.0639 22.7535C27.0639 24.9677 25.2582 26.768 23.0494 26.768ZM30.9171 16.3261C30.9171 17.1268 30.2723 17.7663 29.4769 17.7663C28.6761 17.7663 28.0366 17.1214 28.0366 16.3261C28.0366 15.5307 28.6815 14.8858 29.4769 14.8858C30.2723 14.8858 30.9171 15.5307 30.9171 16.3261ZM35.0069 17.7878C34.9155 15.8585 34.4748 14.1495 33.0614 12.7415C31.6534 11.3335 29.9444 10.8928 28.0151 10.7961C26.0267 10.6832 20.0668 10.6832 18.0783 10.7961C16.1544 10.8874 14.4454 11.3281 13.032 12.7361C11.6186 14.1442 11.1833 15.8531 11.0866 17.7824C10.9737 19.7709 10.9737 25.7308 11.0866 27.7192C11.178 29.6485 11.6186 31.3575 13.032 32.7655C14.4454 34.1735 16.149 34.6142 18.0783 34.711C20.0668 34.8238 26.0267 34.8238 28.0151 34.711C29.9444 34.6196 31.6534 34.1789 33.0614 32.7655C34.4694 31.3575 34.9101 29.6485 35.0069 27.7192C35.1197 25.7308 35.1197 19.7762 35.0069 17.7878ZM32.438 29.8527C32.0188 30.9061 31.2074 31.7176 30.1486 32.1421C28.5633 32.7709 24.8014 32.6258 23.0494 32.6258C21.2974 32.6258 17.5302 32.7655 15.9502 32.1421C14.8969 31.7229 14.0854 30.9114 13.6608 29.8527C13.032 28.2674 13.1771 24.5055 13.1771 22.7535C13.1771 21.0015 13.0374 17.2343 13.6608 15.6543C14.08 14.601 14.8915 13.7895 15.9502 13.3649C17.5356 12.7361 21.2974 12.8812 23.0494 12.8812C24.8014 12.8812 28.5687 12.7415 30.1486 13.3649C31.202 13.7841 32.0135 14.5956 32.438 15.6543C33.0668 17.2397 32.9217 21.0015 32.9217 22.7535C32.9217 24.5055 33.0668 28.2727 32.438 29.8527Z" fill="white"/>
</g>
<defs>
<clipPath id="clip0_2755_15218">
<rect width="24.0761" height="26.6616" fill="white" transform="translate(11 10)"/>
</clipPath>
</defs>
</svg>
