<svg width="14" height="10" viewBox="0 0 14 10" fill="none" xmlns="http://www.w3.org/2000/svg">
<path d="M1.16516 4.41667H11.4237L8.33608 1.32909C8.28037 1.27528 8.23593 1.21091 8.20535 1.13974C8.17478 1.06857 8.15869 0.992029 8.15802 0.914574C8.15734 0.837119 8.1721 0.760306 8.20143 0.688617C8.23076 0.616927 8.27408 0.551797 8.32885 0.497026C8.38362 0.442255 8.44875 0.398941 8.52044 0.369611C8.59213 0.34028 8.66894 0.325521 8.7464 0.326194C8.82385 0.326867 8.9004 0.342959 8.97157 0.373531C9.04274 0.404103 9.1071 0.448542 9.16091 0.504257L13.2442 4.58759C13.3536 4.69698 13.415 4.84533 13.415 5.00001C13.415 5.15469 13.3536 5.30303 13.2442 5.41242L9.16091 9.49576C9.0509 9.60202 8.90354 9.66081 8.7506 9.65948C8.59765 9.65815 8.45134 9.59681 8.34319 9.48865C8.23503 9.3805 8.17368 9.23419 8.17235 9.08124C8.17102 8.92829 8.22982 8.78094 8.33608 8.67092L11.4237 5.58334H1.16516C1.01045 5.58334 0.86208 5.52188 0.752684 5.41249C0.643288 5.30309 0.581829 5.15472 0.581829 5.00001C0.581829 4.8453 0.643288 4.69692 0.752684 4.58753C0.86208 4.47813 1.01045 4.41667 1.16516 4.41667Z" fill="#141414"/>
</svg>
