<svg width="40" height="40" viewBox="0 0 40 40" fill="none" xmlns="http://www.w3.org/2000/svg">
<rect width="40" height="40" fill="#606060" fill-opacity="0.1"/>
<path d="M29.1398 25.8024C29.1398 26.1324 29.0665 26.4716 28.9106 26.8016C28.7548 27.1316 28.5532 27.4433 28.2873 27.7366C27.8382 28.2316 27.3431 28.5891 26.784 28.8183C26.234 29.0474 25.6382 29.1666 24.9965 29.1666C24.0615 29.1666 23.0623 28.9466 22.0082 28.4974C20.954 28.0483 19.8998 27.4433 18.8548 26.6824C17.8007 25.9124 16.8015 25.0599 15.8482 24.1158C14.904 23.1624 14.0515 22.1633 13.2907 21.1183C12.539 20.0733 11.934 19.0283 11.494 17.9924C11.054 16.9474 10.834 15.9483 10.834 14.9949C10.834 14.3716 10.944 13.7758 11.164 13.2258C11.384 12.6666 11.7323 12.1533 12.2182 11.6949C12.8048 11.1174 13.4465 10.8333 14.1248 10.8333C14.3815 10.8333 14.6382 10.8883 14.8673 10.9983C15.1057 11.1083 15.3165 11.2733 15.4815 11.5116L17.6082 14.5091C17.7732 14.7383 17.8923 14.9491 17.9748 15.1508C18.0573 15.3433 18.1032 15.5358 18.1032 15.7099C18.1032 15.9299 18.039 16.1499 17.9107 16.3608C17.7915 16.5716 17.6173 16.7916 17.3973 17.0116L16.7007 17.7358C16.5998 17.8366 16.554 17.9558 16.554 18.1024C16.554 18.1758 16.5632 18.2399 16.5815 18.3133C16.609 18.3866 16.6365 18.4416 16.6548 18.4966C16.8198 18.7991 17.104 19.1933 17.5073 19.6699C17.9198 20.1466 18.3598 20.6324 18.8365 21.1183C19.3315 21.6041 19.8082 22.0533 20.294 22.4658C20.7707 22.8691 21.1648 23.1441 21.4765 23.3091C21.5223 23.3274 21.5773 23.3549 21.6415 23.3824C21.7148 23.4099 21.7882 23.4191 21.8707 23.4191C22.0265 23.4191 22.1457 23.3641 22.2465 23.2633L22.9432 22.5758C23.1723 22.3466 23.3923 22.1724 23.6032 22.0624C23.814 21.9341 24.0248 21.8699 24.254 21.8699C24.4281 21.8699 24.6115 21.9066 24.8132 21.9891C25.0148 22.0716 25.2257 22.1908 25.4548 22.3466L28.489 24.5008C28.7273 24.6658 28.8923 24.8583 28.9931 25.0874C29.0848 25.3166 29.1398 25.5458 29.1398 25.8024Z" stroke="#141414" stroke-width="1.5" stroke-miterlimit="10"/>
<path d="M25.9583 17.2501C25.9583 16.7001 25.5275 15.8567 24.8858 15.1692C24.2992 14.5367 23.52 14.0417 22.75 14.0417" stroke="#141414" stroke-width="1.5" stroke-linecap="round" stroke-linejoin="round"/>
<path d="M29.1667 17.2499C29.1667 13.7024 26.2975 10.8333 22.75 10.8333" stroke="#141414" stroke-width="1.5" stroke-linecap="round" stroke-linejoin="round"/>
</svg>
