<svg width="46" height="46" viewBox="0 0 46 46" fill="none" xmlns="http://www.w3.org/2000/svg">
<rect width="46" height="46" rx="23" fill="#141414"/>
<path d="M17.3428 32.2865H13.1595V18.8146H17.3428V32.2865ZM15.2489 16.9769C13.9112 16.9769 12.8262 15.8689 12.8262 14.5312C12.8262 13.8886 13.0814 13.2724 13.5358 12.818C13.9901 12.3637 14.6063 12.1084 15.2489 12.1084C15.8914 12.1084 16.5077 12.3637 16.962 12.818C17.4164 13.2724 17.6716 13.8886 17.6716 14.5312C17.6716 15.8689 16.5861 16.9769 15.2489 16.9769ZM32.9997 32.2865H28.8254V25.7285C28.8254 24.1655 28.7939 22.1612 26.6504 22.1612C24.4754 22.1612 24.1421 23.8592 24.1421 25.6159V32.2865H19.9633V18.8146H23.9755V20.6523H24.034C24.5925 19.5938 25.9568 18.4768 27.9922 18.4768C32.226 18.4768 33.0042 21.2649 33.0042 24.8862V32.2865H32.9997Z" fill="white"/>
</svg>
