<svg width="40" height="40" viewBox="0 0 40 40" fill="none" xmlns="http://www.w3.org/2000/svg">
<rect width="40" height="40" fill="#606060" fill-opacity="0.1"/>
<g clip-path="url(#clip0_2796_5945)">
<path d="M20.0006 21.3108C21.5802 21.3108 22.8606 20.0304 22.8606 18.4508C22.8606 16.8713 21.5802 15.5908 20.0006 15.5908C18.4211 15.5908 17.1406 16.8713 17.1406 18.4508C17.1406 20.0304 18.4211 21.3108 20.0006 21.3108Z" stroke="#141414" strokeWidth="1.5"/>
<path d="M12.3182 16.7824C14.1241 8.84409 25.8849 8.85325 27.6816 16.7916C28.7357 21.4483 25.8391 25.3899 23.2999 27.8283C21.4574 29.6066 18.5424 29.6066 16.6907 27.8283C14.1607 25.3899 11.2641 21.4391 12.3182 16.7824Z" stroke="#141414" strokeWidth="1.5"/>
</g>
<defs>
<clipPath id="clip0_2796_5945">
<rect width="22" height="22" fill="white" transform="translate(9 9)"/>
</clipPath>
</defs>
</svg>
