<svg width="46" height="46" viewBox="0 0 46 46" fill="none" xmlns="http://www.w3.org/2000/svg">
<rect width="46" height="46" rx="23" fill="black"/>
<g clip-path="url(#clip0_10636_46635)">
<path d="M22.8479 25.3242C22.8479 23.5532 22.0055 22.2441 20.2652 21.7535C21.535 21.1487 22.1972 20.2326 22.1972 18.8075C22.1972 15.9977 20.0965 15.3125 17.6729 15.3125H11V29.4201H17.8598C20.4319 29.4201 22.8479 28.1906 22.8479 25.3242ZM14.1108 17.7208H17.0298C18.152 17.7208 19.1621 18.0351 19.1621 19.3327C19.1621 20.5306 18.3763 21.0127 17.2646 21.0127H14.1108V17.7208ZM14.1098 27.0243V23.1392H17.5004C18.8698 23.1392 19.7362 23.7085 19.7362 25.1536C19.7362 26.5787 18.7021 27.0243 17.4362 27.0243H14.1098ZM29.0128 29.6875C31.4604 29.6875 33.0455 28.5883 33.8083 26.2519H31.3243C31.057 27.124 29.9549 27.5849 29.1 27.5849C27.4507 27.5849 26.5844 26.6218 26.5844 24.985H33.976C34.2099 21.7094 32.3852 18.9178 29.0119 18.9178C25.8887 18.9178 23.7688 21.258 23.7688 24.3237C23.7688 27.5054 25.7775 29.6875 29.0128 29.6875ZM28.9247 21.0376C30.3382 21.0376 31.0493 21.8656 31.1681 23.2197H26.5883C26.6812 21.8771 27.5753 21.0376 28.9247 21.0376ZM26.0142 16.0533H31.7527V17.4429H26.0142V16.0533Z" fill="white"/>
</g>
<defs>
<clipPath id="clip0_10636_46635">
<rect width="23" height="23" fill="white" transform="translate(11 11)"/>
</clipPath>
</defs>
</svg>
