<svg width="18" height="18" viewBox="0 0 18 18" fill="none" xmlns="http://www.w3.org/2000/svg">
<g clip-path="url(#clip0_10636_46597)">
<path d="M16.7932 4.48234C15.9884 3.10352 14.8967 2.01183 13.5179 1.20704C12.1388 0.402291 10.6333 0 9.00027 0C7.36742 0 5.86148 0.402291 4.48263 1.20704C3.10369 2.0117 2.01199 3.1034 1.20716 4.48234C0.402291 5.86136 0 7.36729 0 9.00002C0 10.6328 0.402414 12.1385 1.20704 13.5176C2.01183 14.8964 3.10352 15.9881 4.48246 16.793C5.86148 17.5977 7.36729 18 9.0001 18C10.6329 18 12.1389 17.5977 13.5178 16.793C14.8967 15.9884 15.9883 14.8964 16.7931 13.5176C17.5977 12.1386 18 10.6327 18 9.00002C18 7.36713 17.5977 5.86116 16.7932 4.48234ZM9.00014 1.31253C10.9376 1.31253 12.629 1.95313 14.0743 3.2343L13.9278 3.43924C13.8692 3.52141 13.7227 3.67944 13.4884 3.91394C13.2541 4.14823 12.9982 4.37102 12.7209 4.58192C12.4434 4.79289 12.0666 5.03309 11.5899 5.30264C11.1133 5.57219 10.6055 5.80866 10.0664 6.01175C9.16802 4.35534 8.20718 2.86316 7.1837 1.53512C7.80099 1.3867 8.40641 1.31253 9.00014 1.31253ZM2.97682 4.23019C3.72677 3.28507 4.6407 2.55839 5.71893 2.05066C6.68766 3.3397 7.6407 4.81637 8.57827 6.48037C6.20327 7.10538 3.83615 7.4179 1.47675 7.41778C1.72688 6.23816 2.22687 5.17552 2.97682 4.23019ZM1.82819 11.7717C1.48439 10.8929 1.31253 9.96887 1.31253 9.00002C1.31253 8.89059 1.31655 8.80854 1.32427 8.75391C4.15254 8.75391 6.78153 8.39073 9.2112 7.66402C9.46125 8.14836 9.66829 8.58197 9.83235 8.96488C9.8007 8.98048 9.7503 8.99797 9.67995 9.01755C9.60939 9.03708 9.55874 9.05063 9.52721 9.05855L9.09373 9.21087C8.79672 9.3203 8.40793 9.50784 7.92765 9.77333C7.44725 10.0392 6.9375 10.3554 6.39841 10.7227C5.85931 11.09 5.30264 11.5764 4.72849 12.182C4.15426 12.7875 3.67185 13.4377 3.28121 14.1329C2.65621 13.4377 2.17191 12.6504 1.82819 11.7717ZM9.00014 16.6876C7.17196 16.6876 5.53915 16.1016 4.1016 14.9298L4.2774 15.0588C4.5508 14.4571 4.9531 13.8789 5.48448 13.3243C6.01578 12.7698 6.52745 12.3223 7.01964 11.9823C7.51182 11.6427 8.04693 11.3224 8.62515 11.0213C9.20324 10.7207 9.59757 10.5291 9.80871 10.4473C10.0197 10.3653 10.1877 10.3007 10.3127 10.2538L10.336 10.242H10.3596C11.125 12.2498 11.6721 14.1952 12.0001 16.0781C11.0313 16.4845 10.0315 16.6875 9.00014 16.6876ZM15.4692 13.1544C14.8911 14.049 14.1682 14.7894 13.3013 15.3751C12.9807 13.5783 12.481 11.746 11.8011 9.87898C13.3558 9.63652 14.9534 9.75001 16.5941 10.2186C16.4222 11.2811 16.0471 12.2599 15.4692 13.1544ZM16.5705 8.89457C16.4731 8.8755 16.3754 8.85794 16.2775 8.84191C16.1603 8.8225 16.0176 8.79894 15.8496 8.7716C15.6818 8.74426 15.4941 8.71894 15.2872 8.69546C15.0667 8.67073 14.846 8.64927 14.6249 8.63106C14.3906 8.61144 14.1405 8.59596 13.875 8.58414C13.6056 8.57238 13.3359 8.56652 13.0662 8.56658C12.793 8.56658 12.5057 8.5745 12.2051 8.59001C11.9131 8.60474 11.6218 8.63212 11.3322 8.67206C11.3086 8.63295 11.2794 8.56846 11.2442 8.47857C11.2092 8.38881 11.1835 8.32034 11.1684 8.27347C10.9993 7.90105 10.8273 7.52997 10.6523 7.16026C11.1914 6.94136 11.7052 6.6895 12.1938 6.40427C12.6819 6.11905 13.0723 5.8653 13.3654 5.64267C13.6558 5.42205 13.9336 5.18529 14.1974 4.93352C14.4593 4.68355 14.6289 4.5098 14.7073 4.41211C14.783 4.31755 14.8572 4.22184 14.93 4.12499L14.9417 4.11317C16.0823 5.50381 16.6646 7.1053 16.6878 8.91797L16.5705 8.89457Z" fill="black"/>
</g>
<defs>
<clipPath id="clip0_10636_46597">
<rect width="18" height="18" fill="white"/>
</clipPath>
</defs>
</svg>
