<svg width="22" height="22" viewBox="0 0 22 22" fill="none" xmlns="http://www.w3.org/2000/svg">
<path fill-rule="evenodd" clip-rule="evenodd" d="M4.68348 2C4.6978 2 4.71216 2 4.72657 2L17.603 2C18.2143 1.99997 18.737 1.99995 19.1547 2.05264C19.5977 2.10852 20.0259 2.23402 20.3776 2.56397C20.7355 2.89975 20.8776 3.31868 20.9401 3.75455C20.9975 4.15494 20.9974 4.65281 20.9974 5.22079L20.9974 5.93261C20.9974 6.38041 20.9974 6.76753 20.964 7.09035C20.928 7.43773 20.8494 7.76363 20.6606 8.07652C20.4732 8.38706 20.2208 8.61247 19.9299 8.81453C19.6558 9.00489 19.3057 9.20197 18.8939 9.43375L16.1967 10.9521C15.5827 11.2977 15.3689 11.4222 15.2262 11.5461C14.8984 11.8307 14.7107 12.1464 14.6225 12.542C14.5848 12.7111 14.5807 12.9241 14.5807 13.571L14.5807 16.0754C14.5808 16.9015 14.5808 17.6029 14.4958 18.1421C14.4054 18.7155 14.1955 19.2654 13.6455 19.6094C13.108 19.9456 12.5159 19.9147 11.9405 19.7781C11.3864 19.6464 10.7035 19.3794 9.88406 19.0591L9.80442 19.028C9.42059 18.8779 9.0845 18.7466 8.81842 18.6092C8.53247 18.4615 8.26691 18.2778 8.06374 17.9919C7.85827 17.7027 7.7759 17.3927 7.73917 17.0758C7.70567 16.7868 7.7057 16.4399 7.70573 16.0531L7.70573 13.571C7.70573 12.9241 7.70165 12.7111 7.66395 12.542C7.57574 12.1464 7.38803 11.8307 7.06025 11.5461C6.91752 11.4222 6.70374 11.2977 6.08977 10.9521L3.39254 9.43376C2.98076 9.20197 2.63063 9.00489 2.3566 8.81453C2.0657 8.61247 1.81331 8.38706 1.62591 8.07652C1.43709 7.76363 1.35846 7.43773 1.32247 7.09035C1.28903 6.76753 1.28905 6.38041 1.28907 5.93261L1.28907 5.26761C1.28907 5.25194 1.28907 5.23633 1.28906 5.22077C1.28902 4.6528 1.28898 4.15494 1.34636 3.75455C1.40882 3.31868 1.55101 2.89975 1.90889 2.56397C2.26057 2.23402 2.68877 2.10852 3.13178 2.05264C3.54949 1.99995 4.07212 1.99997 4.68348 2ZM3.30386 3.41683C2.99801 3.45541 2.90074 3.51883 2.8497 3.56673C2.80485 3.6088 2.74568 3.68286 2.70746 3.94959C2.66572 4.24083 2.66407 4.63879 2.66407 5.26761V5.89994C2.66407 6.38963 2.66492 6.70505 2.69015 6.94866C2.71366 7.17555 2.75401 7.28465 2.80316 7.36609C2.85372 7.44988 2.93769 7.544 3.14104 7.68525C3.35528 7.83407 3.64797 7.99966 4.094 8.25074L6.76428 9.75392C6.78928 9.768 6.81391 9.78185 6.83817 9.7955C7.35031 10.0836 7.69911 10.2799 7.96166 10.5078C8.50374 10.9784 8.85153 11.55 9.00599 12.2428C9.08106 12.5795 9.08093 12.957 9.08075 13.4899C9.08074 13.5166 9.08073 13.5436 9.08073 13.571V16.018C9.08073 16.4508 9.0818 16.7171 9.10503 16.9175C9.12603 17.0987 9.15912 17.1596 9.18459 17.1955C9.21235 17.2345 9.26733 17.2935 9.44926 17.3874C9.64397 17.488 9.91222 17.5938 10.3359 17.7594C11.2168 18.1038 11.8093 18.3336 12.2583 18.4403C12.697 18.5445 12.8416 18.4904 12.9164 18.4436C12.9786 18.4047 13.0749 18.3255 13.1376 17.928C13.2037 17.5087 13.2057 16.9173 13.2057 16.0181V13.571C13.2057 13.5436 13.2057 13.5166 13.2057 13.49C13.2055 12.957 13.2054 12.5795 13.2805 12.2428C13.4349 11.55 13.7827 10.9784 14.3248 10.5078C14.5873 10.2799 14.9361 10.0836 15.4483 9.79552C15.4725 9.78186 15.4972 9.768 15.5222 9.75392L18.1925 8.25074C18.6385 7.99966 18.9312 7.83407 19.1454 7.68525C19.3488 7.544 19.4327 7.44988 19.4833 7.36609C19.5325 7.28465 19.5728 7.17555 19.5963 6.94866C19.6216 6.70505 19.6224 6.38963 19.6224 5.89994V5.26761C19.6224 4.63879 19.6207 4.24083 19.579 3.94959C19.5408 3.68286 19.4816 3.6088 19.4368 3.56673C19.3857 3.51883 19.2885 3.45541 18.9826 3.41683C18.6612 3.37629 18.2263 3.375 17.5599 3.375H4.72657C4.06012 3.375 3.62523 3.37629 3.30386 3.41683Z" fill="#606060"/>
</svg>
