<svg width="46" height="46" viewBox="0 0 46 46" fill="none" xmlns="http://www.w3.org/2000/svg">
<path d="M17.6349 28.3283L22.5799 32.66C22.8099 32.8708 23.174 32.8708 23.404 32.66L28.349 28.3283C29.6332 27.1975 29.8057 25.2808 28.7324 23.9392C27.659 22.5975 25.704 22.3483 24.3432 23.3833L23.0015 24.4183L21.6407 23.4025C20.2607 22.3675 18.3249 22.6167 17.2515 23.9583C16.1782 25.2808 16.3507 27.2167 17.6349 28.3283Z" stroke="white" stroke-width="1.5" stroke-linecap="round" stroke-linejoin="round"/>
<path d="M42.1654 21.0833V32.5833C42.1654 40.25 40.2487 42.1667 32.582 42.1667H13.4154C5.7487 42.1667 3.83203 40.25 3.83203 32.5833V13.4167C3.83203 5.74999 5.7487 3.83333 13.4154 3.83333H16.2904C19.1654 3.83333 19.7979 4.67666 20.8904 6.13333L23.7654 9.96666C24.4937 10.925 24.9154 11.5 26.832 11.5H32.582C40.2487 11.5 42.1654 13.4167 42.1654 21.0833Z" stroke="white" stroke-width="1.5" stroke-miterlimit="10"/>
</svg>
