<svg width="46" height="47" viewBox="0 0 46 47" fill="none" xmlns="http://www.w3.org/2000/svg">
<g clip-path="url(#clip0_9776_36026)">
<path d="M9.58333 8.16675H17.25L23 13.9167H36.4167C37.4333 13.9167 38.4084 14.3206 39.1272 15.0395C39.8461 15.7584 40.25 16.7334 40.25 17.7501V33.0834C40.25 34.1001 39.8461 35.0751 39.1272 35.794C38.4084 36.5129 37.4333 36.9167 36.4167 36.9167H9.58333C8.56667 36.9167 7.59165 36.5129 6.87276 35.794C6.15387 35.0751 5.75 34.1001 5.75 33.0834V12.0001C5.75 10.9834 6.15387 10.0084 6.87276 9.28951C7.59165 8.57062 8.56667 8.16675 9.58333 8.16675Z" stroke="white" stroke-width="1.5" stroke-linecap="round" stroke-linejoin="round"/>
</g>
<defs>
<clipPath id="clip0_9776_36026">
<rect width="46" height="46" fill="white" transform="translate(0 0.5)"/>
</clipPath>
</defs>
</svg>
