<svg width="35" height="35" viewBox="0 0 35 35" fill="none" xmlns="http://www.w3.org/2000/svg">
        <g clipPath="url(#clip0_1059_1393)">
                <path d="M14.1064 12.4074C14.5709 12.4169 15.0327 12.3348 15.4655 12.1658C15.8983 11.9968 16.2935 11.7442 16.6287 11.4224C16.9638 11.1007 17.2323 10.716 17.4189 10.2905C17.6054 9.86499 17.7063 9.4069 17.7157 8.94239C17.7252 8.47788 17.6431 8.01605 17.4741 7.58327C17.3051 7.15049 17.0525 6.75524 16.7308 6.42008C16.409 6.08491 16.0244 5.81641 15.5989 5.62989C15.1733 5.44337 14.7152 5.34249 14.2507 5.33301C13.3126 5.31387 12.4053 5.66817 11.7284 6.31799C11.0515 6.9678 10.6605 7.85989 10.6414 8.79801C10.6222 9.73613 10.9765 10.6434 11.6263 11.3203C12.2762 11.9972 13.1682 12.3882 14.1064 12.4074ZM11.7089 8.86947C11.7092 8.23374 11.9621 7.62419 12.4118 7.17487C12.8616 6.72554 13.4714 6.47324 14.1071 6.47343C14.7428 6.47362 15.3524 6.7263 15.8019 7.1759C16.2514 7.6255 16.5039 8.2352 16.5039 8.87093C16.5039 9.50666 16.2514 10.1164 15.8019 10.566C15.3524 11.0156 14.7428 11.2682 14.1071 11.2684C13.4714 11.2686 12.8616 11.0163 12.4118 10.567C11.9621 10.1177 11.7092 9.50812 11.7089 8.87239V8.86947ZM14.1064 26.7559C14.2356 26.7609 14.3646 26.7397 14.4854 26.6936C14.6063 26.6475 14.7166 26.5775 14.8098 26.4877C14.9029 26.398 14.977 26.2904 15.0276 26.1713C15.0782 26.0523 15.1042 25.9242 15.1041 25.7949C15.104 25.6655 15.0778 25.5375 15.027 25.4185C14.9763 25.2995 14.902 25.192 14.8087 25.1024C14.7154 25.0128 14.605 24.943 14.4841 24.8971C14.3631 24.8512 14.2342 24.8302 14.1049 24.8353C13.8567 24.8452 13.6219 24.9508 13.4499 25.1299C13.2778 25.3091 13.1818 25.5479 13.182 25.7963C13.1822 26.0447 13.2786 26.2834 13.4509 26.4623C13.6232 26.6412 13.8581 26.7464 14.1064 26.7559Z"
                        fill="#143048" />
                <path d="M30.7708 17.5685C30.6294 17.5422 29.9323 17.5597 29.4335 17.5685C29.4018 16.7584 29.1109 15.9799 28.6038 15.3474C28.4833 15.2148 28.3515 15.0928 28.21 14.9829V11.1314C28.2096 10.3808 27.9113 9.66103 27.3805 9.13027C26.8497 8.59951 26.13 8.30116 25.3794 8.30078H22.5517V6.89348C22.5518 6.76822 22.5105 6.64643 22.4343 6.54702C22.3581 6.44761 22.2512 6.37613 22.1302 6.34369L20.9635 6.03161L21.5658 4.98453C21.6285 4.87606 21.6536 4.74993 21.6373 4.62573C21.6209 4.50153 21.564 4.3862 21.4754 4.29765L18.6813 1.50057C18.5928 1.41173 18.4775 1.35468 18.3532 1.33833C18.229 1.32197 18.1028 1.34723 17.9944 1.41015L16.9473 2.0139L16.6352 0.847233C16.603 0.725973 16.5317 0.618752 16.4322 0.542262C16.3328 0.465771 16.2109 0.424304 16.0854 0.424316H12.129C12.0035 0.424304 11.8816 0.465771 11.7821 0.542262C11.6827 0.618752 11.6113 0.725973 11.5792 0.847233L11.2671 2.0139L10.22 1.41015C10.1114 1.34796 9.98539 1.32312 9.86131 1.33945C9.73723 1.35579 9.62193 1.41239 9.53313 1.50057L6.73604 4.29619C6.64786 4.385 6.59126 4.50029 6.57493 4.62437C6.5586 4.74845 6.58343 4.87446 6.64563 4.98307L7.25083 6.03015L6.08417 6.34223C5.96331 6.3754 5.85665 6.44727 5.78053 6.54683C5.70441 6.64639 5.66302 6.76816 5.66271 6.89348V8.30078H2.81604C2.06772 8.30425 1.35126 8.60405 0.823484 9.13456C0.295706 9.66507 -0.000393395 10.3831 3.92275e-07 11.1314V25.7935C-0.000393395 26.5418 0.295706 27.2598 0.823484 27.7903C1.35126 28.3208 2.06772 28.6206 2.81604 28.6241H8.45833V30.8729H6.63542C6.48458 30.8729 6.33991 30.9328 6.23325 31.0394C6.12659 31.1461 6.06667 31.2908 6.06667 31.4416C6.06667 31.5924 6.12659 31.7371 6.23325 31.8438C6.33991 31.9504 6.48458 32.0104 6.63542 32.0104H21.5833C21.7342 32.0104 21.8788 31.9504 21.9855 31.8438C22.0922 31.7371 22.1521 31.5924 22.1521 31.4416C22.1521 31.2908 22.0922 31.1461 21.9855 31.0394C21.8788 30.9328 21.7342 30.8729 21.5833 30.8729H19.7546V28.6241H22.82V29.6887C22.8273 30.9871 23.3481 32.2298 24.2687 33.1454C25.1892 34.0611 26.4347 34.5752 27.7331 34.5756H30.0869C31.3851 34.5748 32.6304 34.0605 33.5509 33.145C34.4714 32.2294 34.9923 30.9869 35 29.6887V22.4816C34.9985 20.0374 33.1931 17.8981 30.7708 17.5685ZM28.91 20.3714C29.2629 20.3831 29.5575 20.7826 29.5575 21.2595C29.5575 21.7364 29.2615 22.136 28.91 22.1476C28.5571 22.136 28.2625 21.7364 28.2625 21.2595C28.2625 20.7812 28.5571 20.3831 28.91 20.3714ZM28.3471 19.3462C27.6383 19.6189 27.1235 20.3685 27.1235 21.2595C27.1235 22.1506 27.6383 22.8987 28.3471 23.1729V23.5768H23.956C23.956 23.2137 23.9415 22.8476 23.956 22.4831C24.0071 21.2143 24.6065 20.0637 25.6667 19.3447C26.4775 18.7949 27.3962 18.7089 28.3471 18.7089V19.3462ZM6.80021 7.32952L7.8575 7.04661C7.94489 7.02311 8.02541 6.97909 8.09237 6.91822C8.15933 6.85734 8.2108 6.78137 8.2425 6.69661C8.29646 6.55078 8.35625 6.40494 8.42188 6.26932C8.46062 6.18641 8.47873 6.09537 8.47467 6.00395C8.4706 5.91253 8.44449 5.82346 8.39854 5.74432L7.85021 4.79348L10.0377 2.61327L10.9871 3.16161C11.1475 3.25348 11.3429 3.26223 11.5106 3.18494C11.6565 3.11932 11.8023 3.05953 11.9379 3.00557C12.0213 2.97394 12.0961 2.92293 12.1559 2.85675C12.2157 2.79057 12.259 2.71112 12.2821 2.62494L12.565 1.56765H15.6494L15.9323 2.62494C15.9553 2.7128 15.9993 2.79376 16.0605 2.86083C16.1217 2.9279 16.1983 2.97908 16.2838 3.00994C16.2838 3.00994 16.5754 3.12369 16.711 3.18932C16.7939 3.22734 16.8846 3.24505 16.9756 3.24099C17.0667 3.23694 17.1555 3.21122 17.2346 3.16598L18.184 2.61765L20.3715 4.80515L19.8231 5.75453C19.7778 5.83335 19.752 5.92189 19.7479 6.01273C19.7439 6.10357 19.7617 6.19406 19.7998 6.27661C19.8654 6.42244 19.9252 6.56827 19.9792 6.70682C20.0109 6.79181 20.0626 6.86795 20.1298 6.92885C20.197 6.98975 20.2779 7.03363 20.3656 7.05682L21.4229 7.33973V10.4124L20.3656 10.6954C20.278 10.7188 20.1973 10.7627 20.13 10.8236C20.0628 10.8845 20.0111 10.9605 19.9792 11.0454C19.9252 11.1912 19.8654 11.337 19.7998 11.4756C19.7617 11.5581 19.7439 11.6486 19.7479 11.7394C19.752 11.8303 19.7778 11.9188 19.8231 11.9977L20.3715 12.9485L18.184 15.1272L17.2346 14.5833C17.1555 14.538 17.0667 14.5123 16.9756 14.5083C16.8846 14.5042 16.7939 14.5219 16.711 14.5599C16.5652 14.6256 16.4194 14.6868 16.2838 14.7393C16.1987 14.7707 16.1223 14.8221 16.0612 14.8891C16 14.956 15.9558 15.0367 15.9323 15.1243L15.6494 16.1816H12.565L12.2821 15.1243C12.2584 15.0368 12.2142 14.9562 12.1531 14.8892C12.0919 14.8222 12.0157 14.7708 11.9306 14.7393C11.7857 14.6857 11.6431 14.6258 11.5033 14.5599C11.4203 14.5226 11.3297 14.5053 11.2388 14.5093C11.1479 14.5134 11.0592 14.5387 10.9798 14.5833L10.0304 15.1316L7.85021 12.9499L8.39854 11.9991C8.44378 11.92 8.4695 11.8312 8.47355 11.7402C8.47761 11.6491 8.4599 11.5584 8.42188 11.4756C8.35625 11.3297 8.29646 11.1839 8.2425 11.0468C8.2107 10.9621 8.15919 10.8862 8.09225 10.8253C8.0253 10.7645 7.94484 10.7204 7.8575 10.6968L6.80021 10.4139V7.32952ZM18.6156 30.8714H9.60021V28.6227H18.6156V30.8714ZM22.8185 27.4837H2.81604C2.36737 27.4833 1.93716 27.305 1.61976 26.9879C1.30237 26.6708 1.12369 26.2407 1.12292 25.792V24.1004L22.8185 24.1077V27.4837ZM22.82 22.976H1.12292V11.127C1.12272 10.9048 1.16641 10.6847 1.25146 10.4793C1.33652 10.274 1.46127 10.0874 1.61857 9.93041C1.77587 9.77338 1.96262 9.64895 2.1681 9.56425C2.37359 9.47955 2.59378 9.43624 2.81604 9.43682H5.66125V10.8499C5.66164 10.9751 5.70308 11.0966 5.77922 11.1959C5.85535 11.2953 5.96197 11.3669 6.08271 11.3997L7.24938 11.7133L6.64417 12.7574C6.58197 12.866 6.55714 12.9921 6.57347 13.1161C6.58981 13.2402 6.64641 13.3555 6.73458 13.4443L9.53167 16.2399C9.62022 16.3286 9.73555 16.3855 9.85975 16.4018C9.98395 16.4182 10.1101 16.393 10.2185 16.3304L11.2656 15.7281L11.5777 16.8947C11.6448 17.1427 11.8708 17.3162 12.1275 17.3162H16.0854C16.2107 17.3163 16.3325 17.275 16.4319 17.1988C16.5313 17.1226 16.6028 17.0157 16.6352 16.8947L16.9473 15.7281L17.9944 16.3304C18.1028 16.393 18.229 16.4182 18.3532 16.4018C18.4774 16.3855 18.5927 16.3286 18.6813 16.2399L21.4769 13.4443C21.5655 13.3558 21.6224 13.2404 21.6387 13.1162C21.6551 12.992 21.63 12.8659 21.5673 12.7574L20.965 11.7118L22.1317 11.3983C22.2527 11.3658 22.3596 11.2944 22.4358 11.1949C22.512 11.0955 22.5532 10.9737 22.5531 10.8485V9.43682H25.3867C26.3215 9.43828 27.0783 10.1952 27.0798 11.1299C27.0798 11.1299 27.0798 14.4841 27.0506 14.4841C26.8345 14.4421 26.6146 14.4225 26.3944 14.4258C24.6867 14.4258 23.52 16.2633 22.3665 18.0293C20.9665 20.246 20.2373 21.0787 19.3915 20.5683C19.1081 20.3373 18.9205 20.0094 18.865 19.6481C18.8366 19.5008 18.7525 19.3702 18.6303 19.2833C18.5081 19.1964 18.3572 19.1599 18.2087 19.1814C17.8952 19.2266 17.6969 19.5504 17.7567 19.8522C17.85 20.4939 18.1971 21.0714 18.7192 21.4564C19.0619 21.7087 19.4585 21.8472 19.8873 21.8501C21.2581 21.8501 22.3081 20.2299 23.3304 18.6418C24.3075 17.1237 25.2992 15.5487 26.3929 15.5487C26.9033 15.5487 27.4079 15.7281 27.7681 16.0956C28.1458 16.4806 28.2698 17.0479 28.315 17.567C27.8221 17.5597 27.1833 17.5422 27.0492 17.567C24.6269 17.8981 22.8215 20.036 22.82 22.4802V22.976ZM33.864 29.6581C33.864 30.6614 33.4663 31.6238 32.758 32.3345C32.0498 33.0452 31.0888 33.4463 30.0854 33.4497H27.7346C26.7312 33.4463 25.7702 33.0452 25.062 32.3345C24.3537 31.6238 23.956 30.6614 23.956 29.6581V24.6997H33.864V29.6581ZM33.864 23.5739H29.4729V23.1699C30.1817 22.8972 30.6965 22.1476 30.6965 21.2566C30.6965 20.3656 30.1817 19.6174 29.4729 19.3433V18.7045C30.4237 18.7045 31.3425 18.7906 32.1533 19.3404C33.2135 20.0579 33.8129 21.2099 33.864 22.4787C33.8785 22.8447 33.864 23.2122 33.864 23.5739Z"
                        fill="#143048" />
        </g>
        <defs>
                <clipPath id="clip0_1059_1393">
                        <rect width="35" height="35" fill="white" />
                </clipPath>
        </defs>
</svg>