<svg width="178" height="86" viewBox="0 0 178 86" fill="none" xmlns="http://www.w3.org/2000/svg">
        <path d="M151.8 0.126615L94.0255 8.86121L14.5855 21.0079C10.6206 21.5538 8.07172 25.1022 8.63814 28.9236L16.8512 79.2843C17.4177 83.1057 21.0993 85.5623 25.0643 85.0164L104.504 72.8698L162.279 63.9987C166.243 63.4528 168.792 59.9043 168.226 56.0829L160.013 5.72221C159.447 2.03729 155.765 -0.4193 151.8 0.126615Z"
                fill="#C2DCEB" />
        <path d="M169.925 21.6899H99.5477H7.22177C3.25686 21.6899 0 24.829 0 28.5139V56.492C0 60.3135 3.25686 63.316 7.22177 63.316H99.5477H169.925C173.89 63.316 177.005 60.177 177.005 56.492V28.5139C177.005 24.829 173.89 21.6899 169.925 21.6899Z"
                fill="#02457C" />
        <path d="M22.2897 51.2785H15.7394L12 34H17.3641L18.7051 42.7166L19.1693 48.3644L19.9172 43.3613L21.645 34H27.8343L29.5622 43.3613L30.2843 48.3644L30.7743 42.7166L32.1153 34H37.4794L33.74 51.2785H27.1896L25.5907 43.645L24.7397 37.1204L23.9144 43.645L22.2897 51.2785Z"
                fill="white" />
        <path d="M43.6209 51.5364C39.2368 51.5364 36.8127 48.777 36.8127 44.9087C36.8127 41.0403 39.2884 38.2809 43.1825 38.2809C47.5408 38.2809 49.4234 41.1951 49.4234 44.264C49.4234 44.8829 49.3718 45.8371 49.2945 46.1465H41.1194C41.4031 47.3844 42.4089 47.8228 43.6983 47.8228C44.9619 47.8228 45.8903 47.4618 46.3803 46.3528L49.1913 49.0349C48.2113 50.2985 46.5351 51.5364 43.6209 51.5364ZM43.2083 41.7366C41.9447 41.7366 41.1452 42.4072 41.042 43.7482H45.2714C45.194 42.4587 44.6009 41.7366 43.2083 41.7366Z"
                fill="white" />
        <path d="M51.5673 42.304L50.7163 40.0604C51.7478 40.0604 52.7278 39.8541 52.7278 38.7194V38.4099H50.6389V34H55.2809V38.5646C55.2809 40.9114 53.8625 42.1235 51.5673 42.304Z"
                fill="white" />
        <path d="M61.4632 51.2785H56.8212V38.5388H61.4632V42.8456C61.85 40.6535 63.0621 38.2809 65.6668 38.2809C67.8846 38.2809 68.7098 39.6735 68.7098 41.7882C68.7098 43.3356 68.1941 44.6508 67.833 45.2955H63.5779C64.0421 44.7539 64.5578 43.774 64.5578 43.0003C64.5578 42.2782 64.2484 41.7882 63.5005 41.7882C62.4431 41.7882 61.4632 42.794 61.4632 44.8571V51.2785Z"
                fill="white" />
        <path d="M76.1088 51.5364C71.7247 51.5364 69.3006 48.777 69.3006 44.9087C69.3006 41.0403 71.7763 38.2809 75.6704 38.2809C80.0287 38.2809 81.9113 41.1951 81.9113 44.264C81.9113 44.8829 81.8597 45.8371 81.7823 46.1465H73.6073C73.891 47.3844 74.8967 47.8228 76.1862 47.8228C77.4498 47.8228 78.3782 47.4618 78.8682 46.3528L81.6792 49.0349C80.6992 50.2985 79.0229 51.5364 76.1088 51.5364ZM75.6962 41.7366C74.4325 41.7366 73.6331 42.4072 73.5299 43.7482H77.7593C77.6819 42.4587 77.0888 41.7366 75.6962 41.7366Z"
                fill="white" />
        <path d="M101.75 51.2785V45.7714H97.2555V51.2785H92.8245V36.5085H97.2555V42.1844H101.75V36.5085H106.181V51.2785H101.75Z"
                fill="white" />
        <path d="M113.348 51.2785H108.917V36.5085H113.348V51.2785Z" fill="white" />
        <path d="M120.519 46.1723V51.2785H116.088V36.5085C117.27 36.3819 119.548 36.2554 120.772 36.2554C125.562 36.2554 127.693 38.2809 127.693 40.9184C127.693 42.6064 126.912 44.1889 125.288 45.1806L128.389 51.2785H123.6L121.236 46.1723H120.519ZM120.519 43.2394H121.3C121.469 43.2394 121.637 43.2183 121.785 43.1972C122.819 43.0073 123.262 42.1844 123.262 41.256C123.262 40.1588 122.629 39.4203 121.511 39.4203H120.519V43.2394Z"
                fill="white" />
        <path d="M134.613 51.2785H130.182V36.5085H134.613V51.2785Z" fill="white" />
        <path d="M146.89 51.2785L141.362 43.3027V51.2785H137.353V36.5085H141.256L146.996 45.0118V36.5085H151.005V51.2785H146.89Z"
                fill="white" />
        <path d="M157.511 43.8513C157.511 46.742 158.755 47.9447 161.14 47.9447C161.731 47.9447 162.448 47.8392 162.975 47.6493V45.687H160.296L160.507 42.6275H166.689V49.8859C165.423 50.7721 162.722 51.5317 160.57 51.5317C156.16 51.5317 153.08 48.3878 153.08 43.9146C153.08 39.2726 156.118 36.2554 160.992 36.2554C162.891 36.2554 164.663 36.7406 165.761 37.3947L164.98 40.7285C163.777 40.3065 162.49 40.0955 161.414 40.0955C158.903 40.0955 157.511 41.2982 157.511 43.8513Z"
                fill="white" />
</svg>