<svg width="24" height="24" viewBox="0 0 24 24" fill="none" xmlns="http://www.w3.org/2000/svg">
<path d="M11.9999 6.7934C9.1185 6.7934 6.79439 9.11804 6.79439 12C6.79439 14.882 9.1185 17.2067 11.9999 17.2067C14.8812 17.2067 17.2053 14.882 17.2053 12C17.2053 9.11804 14.8812 6.7934 11.9999 6.7934ZM11.9999 15.385C10.1379 15.385 8.61562 13.867 8.61562 12C8.61562 10.1331 10.1333 8.61505 11.9999 8.61505C13.8664 8.61505 15.3841 10.1331 15.3841 12C15.3841 13.867 13.8619 15.385 11.9999 15.385ZM18.6324 6.58042C18.6324 7.25561 18.0888 7.79485 17.4183 7.79485C16.7432 7.79485 16.2041 7.25108 16.2041 6.58042C16.2041 5.90977 16.7478 5.366 17.4183 5.366C18.0888 5.366 18.6324 5.90977 18.6324 6.58042ZM22.0801 7.81298C22.0031 6.18619 21.6316 4.74519 20.4401 3.55795C19.2531 2.37071 17.8124 1.99913 16.186 1.91756C14.5097 1.8224 9.48547 1.8224 7.80921 1.91756C6.18731 1.9946 4.74663 2.36618 3.55512 3.55342C2.36362 4.74066 1.99665 6.18166 1.9151 7.80845C1.81997 9.48508 1.81997 14.5105 1.9151 16.1871C1.99212 17.8139 2.36362 19.2549 3.55512 20.4421C4.74663 21.6294 6.18278 22.0009 7.80921 22.0825C9.48547 22.1777 14.5097 22.1777 16.186 22.0825C17.8124 22.0055 19.2531 21.6339 20.4401 20.4421C21.627 19.2549 21.9985 17.8139 22.0801 16.1871C22.1752 14.5105 22.1752 9.48961 22.0801 7.81298ZM19.9145 17.9861C19.5612 18.8742 18.8771 19.5585 17.9846 19.9165C16.6481 20.4467 13.4768 20.3243 11.9999 20.3243C10.5229 20.3243 7.3471 20.4421 6.01515 19.9165C5.12719 19.563 4.44309 18.8788 4.08518 17.9861C3.55512 16.6493 3.67745 13.4773 3.67745 12C3.67745 10.5228 3.55965 7.34624 4.08518 6.01399C4.43856 5.12583 5.12266 4.44158 6.01515 4.08359C7.35163 3.55342 10.5229 3.67576 11.9999 3.67576C13.4768 3.67576 16.6526 3.55795 17.9846 4.08359C18.8725 4.43705 19.5566 5.1213 19.9145 6.01399C20.4446 7.35077 20.3223 10.5228 20.3223 12C20.3223 13.4773 20.4446 16.6538 19.9145 17.9861Z" fill="#141414"/>
</svg>
