<svg width="46" height="46" viewBox="0 0 46 46" fill="none" xmlns="http://www.w3.org/2000/svg">
<path d="M20.605 4.69573C21.9275 3.56489 24.0933 3.56489 25.435 4.69573L28.4633 7.3026C29.0383 7.80093 30.1116 8.20338 30.8783 8.20338H34.1367C36.1683 8.20338 37.8358 9.87075 37.8358 11.9024V15.1609C37.8358 15.9084 38.2383 17.0009 38.7366 17.5759L41.3433 20.6042C42.4742 21.9267 42.4742 24.0925 41.3433 25.4342L38.7366 28.4624C38.2383 29.0374 37.8358 30.1108 37.8358 30.8775V34.1359C37.8358 36.1676 36.1683 37.835 34.1367 37.835H30.8783C30.1308 37.835 29.0383 38.2374 28.4633 38.7357L25.435 41.3424C24.1125 42.4732 21.9467 42.4732 20.605 41.3424L17.5767 38.7357C17.0017 38.2374 15.9283 37.835 15.1617 37.835H11.8458C9.81415 37.835 8.14666 36.1676 8.14666 34.1359V30.8583C8.14666 30.1108 7.74418 29.0374 7.26501 28.4624L4.6775 25.415C3.56583 24.0925 3.56583 21.9458 4.6775 20.6233L7.26501 17.5759C7.74418 17.0009 8.14666 15.9276 8.14666 15.1801V11.9024C8.14666 9.87075 9.81415 8.20338 11.8458 8.20338H15.1617C15.9092 8.20338 17.0017 7.80093 17.5767 7.3026L20.605 4.69573Z" stroke="white" stroke-width="1.5" stroke-linecap="round" stroke-linejoin="round"/>
<path d="M18.9563 28.405L21.7355 30.5516C22.0996 30.9158 22.9047 31.0883 23.4413 31.0883H26.8338C27.9071 31.0883 29.0763 30.2834 29.3446 29.2101L31.4913 22.655C31.9321 21.4091 31.1272 20.3167 29.7855 20.3167H26.2013C25.6647 20.3167 25.2238 19.876 25.3005 19.2435L25.7413 16.3685C25.9138 15.5635 25.3772 14.6626 24.5722 14.3943C23.863 14.1259 22.9622 14.49 22.598 15.0267L18.918 20.4891" stroke="white" stroke-width="1.5" stroke-miterlimit="10"/>
<path d="M14.375 28.4049V19.6266C14.375 18.3616 14.9117 17.9208 16.1767 17.9208H17.0775C18.3233 17.9208 18.8792 18.3616 18.8792 19.6266V28.4049C18.8792 29.6507 18.3425 30.1108 17.0775 30.1108H16.1767C14.9117 30.1108 14.375 29.6699 14.375 28.4049Z" stroke="white" stroke-width="1.5" stroke-linecap="round" stroke-linejoin="round"/>
</svg>
