<svg width="46" height="47" viewBox="0 0 46 47" fill="none" xmlns="http://www.w3.org/2000/svg">
<g clip-path="url(#clip0_9776_27465)">
<path d="M13.4167 21.5834V36.9167C13.4167 37.4251 13.2147 37.9126 12.8553 38.272C12.4958 38.6315 12.0083 38.8334 11.5 38.8334H7.66667C7.15834 38.8334 6.67082 38.6315 6.31138 38.272C5.95193 37.9126 5.75 37.4251 5.75 36.9167V23.5001C5.75 22.9917 5.95193 22.5042 6.31138 22.1448C6.67082 21.7853 7.15834 21.5834 7.66667 21.5834H13.4167ZM13.4167 21.5834C15.45 21.5834 17.4 20.7757 18.8378 19.3379C20.2756 17.9001 21.0833 15.9501 21.0833 13.9167V12.0001C21.0833 10.9834 21.4872 10.0084 22.2061 9.28951C22.925 8.57062 23.9 8.16675 24.9167 8.16675C25.9333 8.16675 26.9084 8.57062 27.6272 9.28951C28.3461 10.0084 28.75 10.9834 28.75 12.0001V21.5834H34.5C35.5167 21.5834 36.4917 21.9873 37.2106 22.7062C37.9295 23.4251 38.3333 24.4001 38.3333 25.4167L36.4167 35.0001C36.141 36.1759 35.6181 37.1855 34.9267 37.8769C34.2354 38.5683 33.4129 38.904 32.5833 38.8334H19.1667C17.6417 38.8334 16.1791 38.2276 15.1008 37.1493C14.0225 36.0709 13.4167 34.6084 13.4167 33.0834" stroke="white" strokeWidth="1.5" strokeLinecap="round" strokeLinejoin="round"/>
</g>
<defs>
<clipPath id="clip0_9776_27465">
<rect width="46" height="46" fill="white" transform="translate(0 0.5)"/>
</clipPath>
</defs>
</svg>
