<svg width="24" height="24" viewBox="0 0 24 24" fill="none" xmlns="http://www.w3.org/2000/svg">
<path d="M6.89804 21.2308H3.07057V8.28869H6.89804V21.2308ZM4.98225 6.52327C3.75834 6.52327 2.76562 5.45882 2.76562 4.1737C2.76563 3.5564 2.99916 2.96439 3.41486 2.5279C3.83056 2.09141 4.39436 1.84619 4.98225 1.84619C5.57013 1.84619 6.13394 2.09141 6.54963 2.5279C6.96533 2.96439 7.19887 3.5564 7.19887 4.1737C7.19887 5.45882 6.20574 6.52327 4.98225 6.52327ZM21.223 21.2308H17.4038V14.9307C17.4038 13.4292 17.375 11.5037 15.4138 11.5037C13.4239 11.5037 13.1189 13.135 13.1189 14.8225V21.2308H9.29557V8.28869H12.9664V10.0541H13.02C13.531 9.03727 14.7792 7.96417 16.6415 7.96417C20.5151 7.96417 21.2272 10.6426 21.2272 14.1215V21.2308H21.223Z" fill="#141414"/>
</svg>
