<svg width="46" height="46" viewBox="0 0 46 46" fill="none" xmlns="http://www.w3.org/2000/svg">
<path d="M36.4193 17.2448C36.4193 20.024 35.5951 22.5732 34.1768 24.7007C32.1068 27.7673 28.8293 29.9331 25.0151 30.489C24.3634 30.604 23.6926 30.6615 23.0026 30.6615C22.3126 30.6615 21.6418 30.604 20.9901 30.489C17.1759 29.9331 13.8984 27.7673 11.8284 24.7007C10.4101 22.5732 9.58594 20.024 9.58594 17.2448C9.58594 9.82729 15.5851 3.82812 23.0026 3.82812C30.4201 3.82812 36.4193 9.82729 36.4193 17.2448Z" stroke="white" stroke-width="1.5" stroke-linecap="round" stroke-linejoin="round"/>
<path d="M40.7283 35.3946L37.5658 36.1421C36.8566 36.3146 36.3008 36.8513 36.1474 37.5604L35.4766 40.3779C35.1124 41.9113 33.1574 42.3713 32.1416 41.1638L22.9991 30.6604L13.8566 41.1829C12.8408 42.3904 10.8858 41.9304 10.5216 40.3971L9.85076 37.5796C9.67826 36.8704 9.12243 36.3146 8.43243 36.1613L5.26993 35.4138C3.81326 35.0688 3.29576 33.2479 4.34993 32.1937L11.8249 24.7188C13.8949 27.7854 17.1724 29.9513 20.9866 30.5071C21.6383 30.6221 22.3091 30.6796 22.9991 30.6796C23.6891 30.6796 24.3599 30.6221 25.0116 30.5071C28.8258 29.9513 32.1033 27.7854 34.1733 24.7188L41.6483 32.1937C42.7024 33.2287 42.1849 35.0496 40.7283 35.3946Z" stroke="white" stroke-width="1.5" stroke-linecap="round" stroke-linejoin="round"/>
<path d="M24.1128 11.4669L25.2436 13.7285C25.3969 14.0352 25.7994 14.3419 26.1636 14.3994L28.2144 14.7444C29.5178 14.9552 29.8244 15.9135 28.8853 16.8527L27.2944 18.4435C27.0261 18.7118 26.8728 19.2294 26.9686 19.6127L27.4286 21.5869C27.7928 23.1394 26.9686 23.7527 25.5886 22.9285L23.6719 21.7977C23.3269 21.5868 22.7519 21.5868 22.4069 21.7977L20.4903 22.9285C19.1103 23.7335 18.2861 23.1394 18.6503 21.5869L19.1103 19.6127C19.1869 19.2485 19.0528 18.7118 18.7844 18.4435L17.1936 16.8527C16.2544 15.9135 16.5611 14.9744 17.8644 14.7444L19.9153 14.3994C20.2603 14.3419 20.6628 14.0352 20.8161 13.7285L21.9469 11.4669C22.5028 10.2402 23.4994 10.2402 24.1128 11.4669Z" stroke="white" stroke-width="1.5" stroke-linecap="round" stroke-linejoin="round"/>
</svg>
