<svg width="46" height="46" viewBox="0 0 46 46" fill="none" xmlns="http://www.w3.org/2000/svg">
<path d="M34.5003 13.7233C34.3853 13.7042 34.2511 13.7042 34.1361 13.7233C31.4911 13.6275 29.3828 11.4617 29.3828 8.77833C29.3828 6.0375 31.587 3.83333 34.3278 3.83333C37.0686 3.83333 39.2728 6.05667 39.2728 8.77833C39.2536 11.4617 37.1453 13.6275 34.5003 13.7233Z" stroke="white" stroke-width="1.5" stroke-linecap="round" stroke-linejoin="round"/>
<path d="M32.5263 27.6767C35.1521 28.1175 38.0463 27.6575 40.0779 26.2967C42.7804 24.495 42.7804 21.5434 40.0779 19.7417C38.0271 18.3808 35.0946 17.9208 32.4688 18.3808" stroke="white" stroke-width="1.5" stroke-linecap="round" stroke-linejoin="round"/>
<path d="M11.4444 13.7233C11.5594 13.7042 11.6935 13.7042 11.8085 13.7233C14.4535 13.6275 16.5619 11.4617 16.5619 8.77833C16.5619 6.0375 14.3577 3.83333 11.6169 3.83333C8.87605 3.83333 6.67188 6.05667 6.67188 8.77833C6.69104 11.4617 8.79938 13.6275 11.4444 13.7233Z" stroke="white" stroke-width="1.5" stroke-linecap="round" stroke-linejoin="round"/>
<path d="M13.4184 27.6767C10.7925 28.1175 7.89838 27.6575 5.86672 26.2967C3.16422 24.495 3.16422 21.5434 5.86672 19.7417C7.91755 18.3808 10.85 17.9208 13.4759 18.3808" stroke="white" stroke-width="1.5" stroke-linecap="round" stroke-linejoin="round"/>
<path d="M23.0003 28.0408C22.8853 28.0217 22.7511 28.0217 22.6361 28.0408C19.9911 27.945 17.8828 25.7792 17.8828 23.0958C17.8828 20.355 20.087 18.1508 22.8278 18.1508C25.5686 18.1508 27.7728 20.3742 27.7728 23.0958C27.7536 25.7792 25.6453 27.9642 23.0003 28.0408Z" stroke="white" stroke-width="1.5" stroke-linecap="round" stroke-linejoin="round"/>
<path d="M17.4214 34.0783C14.7189 35.88 14.7189 38.8317 17.4214 40.6333C20.4881 42.6842 25.5097 42.6842 28.5764 40.6333C31.2789 38.8317 31.2789 35.88 28.5764 34.0783C25.5289 32.0467 20.4881 32.0467 17.4214 34.0783Z" stroke="white" stroke-width="1.5" stroke-linecap="round" stroke-linejoin="round"/>
</svg>
