<svg width="46" height="47" viewBox="0 0 46 47" fill="none" xmlns="http://www.w3.org/2000/svg">
<g clip-path="url(#clip0_8727_29357)">
<path d="M19.1641 25.4166C19.1641 26.4332 19.5679 27.4083 20.2868 28.1272C21.0057 28.846 21.9807 29.2499 22.9974 29.2499C24.0141 29.2499 24.9891 28.846 25.708 28.1272C26.4269 27.4083 26.8307 26.4332 26.8307 25.4166C26.8307 24.3999 26.4269 23.4249 25.708 22.706C24.9891 21.9871 24.0141 21.5833 22.9974 21.5833C21.9807 21.5833 21.0057 21.9871 20.2868 22.706C19.5679 23.4249 19.1641 24.3999 19.1641 25.4166Z" stroke="white" stroke-width="1.5" stroke-linecap="round" stroke-linejoin="round"/>
<path d="M15.3359 40.75V38.8333C15.3359 37.8167 15.7398 36.8416 16.4587 36.1228C17.1776 35.4039 18.1526 35 19.1693 35H26.8359C27.8526 35 28.8276 35.4039 29.5465 36.1228C30.2654 36.8416 30.6693 37.8167 30.6693 38.8333V40.75" stroke="white" stroke-width="1.5" stroke-linecap="round" stroke-linejoin="round"/>
<path d="M28.75 10.0833C28.75 11.1 29.1539 12.075 29.8728 12.7939C30.5916 13.5128 31.5667 13.9167 32.5833 13.9167C33.6 13.9167 34.575 13.5128 35.2939 12.7939C36.0128 12.075 36.4167 11.1 36.4167 10.0833C36.4167 9.06667 36.0128 8.09165 35.2939 7.37276C34.575 6.65387 33.6 6.25 32.5833 6.25C31.5667 6.25 30.5916 6.65387 29.8728 7.37276C29.1539 8.09165 28.75 9.06667 28.75 10.0833Z" stroke="white" stroke-width="1.5" stroke-linecap="round" stroke-linejoin="round"/>
<path d="M32.5859 19.6667H36.4193C37.4359 19.6667 38.411 20.0706 39.1298 20.7895C39.8487 21.5084 40.2526 22.4834 40.2526 23.5001V25.4167" stroke="white" stroke-width="1.5" stroke-linecap="round" stroke-linejoin="round"/>
<path d="M9.58594 10.0833C9.58594 11.1 9.98981 12.075 10.7087 12.7939C11.4276 13.5128 12.4026 13.9167 13.4193 13.9167C14.4359 13.9167 15.411 13.5128 16.1298 12.7939C16.8487 12.075 17.2526 11.1 17.2526 10.0833C17.2526 9.06667 16.8487 8.09165 16.1298 7.37276C15.411 6.65387 14.4359 6.25 13.4193 6.25C12.4026 6.25 11.4276 6.65387 10.7087 7.37276C9.98981 8.09165 9.58594 9.06667 9.58594 10.0833Z" stroke="white" stroke-width="1.5" stroke-linecap="round" stroke-linejoin="round"/>
<path d="M5.75 25.4167V23.5001C5.75 22.4834 6.15387 21.5084 6.87276 20.7895C7.59165 20.0706 8.56667 19.6667 9.58333 19.6667H13.4167" stroke="white" stroke-width="1.5" stroke-linecap="round" stroke-linejoin="round"/>
</g>
<defs>
<clipPath id="clip0_8727_29357">
<rect width="46" height="46" fill="white" transform="translate(0 0.5)"/>
</clipPath>
</defs>
</svg>
