<svg width="21" height="21" viewBox="0 0 21 21" fill="none" xmlns="http://www.w3.org/2000/svg">
        <path d="M20.4121 7.61648L13.9884 6.68309L11.1156 0.862193C10.8643 0.353025 10.1359 0.352779 9.8844 0.862193L7.01166 6.68309L0.588001 7.61648C0.0262095 7.69814 -0.199417 8.39082 0.20754 8.78744L4.85572 13.3184L3.75839 19.7161C3.73673 19.8423 3.75083 19.9721 3.79909 20.0908C3.84735 20.2094 3.92785 20.3122 4.03148 20.3875C4.13511 20.4628 4.25774 20.5076 4.38551 20.5168C4.51327 20.526 4.64107 20.4993 4.75445 20.4397L10.5 17.4192C16.7551 20.7076 16.3255 20.5186 16.5649 20.5186C16.9881 20.5186 17.3138 20.1372 17.2416 19.7161L16.1443 13.3184L20.7925 8.78744C21.199 8.3911 20.9743 7.69823 20.4121 7.61648Z"
                fill="#F2D422" />
        <path d="M10.5 0.479492C10.3719 0.479499 10.2464 0.51534 10.1376 0.582965C10.0288 0.65059 9.94107 0.747301 9.88436 0.862168L7.01162 6.68306L0.588001 7.61646C0.0262095 7.69812 -0.199417 8.39079 0.20754 8.78741L4.85572 13.3183L3.75839 19.716C3.73673 19.8423 3.75083 19.9721 3.79909 20.0907C3.84735 20.2094 3.92785 20.3122 4.03148 20.3875C4.13511 20.4628 4.25774 20.5076 4.38551 20.5168C4.51327 20.526 4.64107 20.4993 4.75445 20.4397L10.5 17.4192H10.5V0.479492Z"
                fill="#F2D422" />
        <path d="M0.588001 7.61654C0.0262095 7.6982 -0.199417 8.39087 0.20754 8.78749L4.85572 13.3184L3.75839 19.7161C3.73673 19.8424 3.75083 19.9722 3.79909 20.0908C3.84735 20.2095 3.92785 20.3123 4.03148 20.3876C4.13511 20.4628 4.25774 20.5076 4.38551 20.5169C4.51327 20.5261 4.64107 20.4994 4.75445 20.4398L10.5 17.4193C16.7551 20.7077 16.3255 20.5187 16.5649 20.5187C16.7099 20.5187 16.8512 20.4728 16.9685 20.3876L7.01162 6.68311L0.588001 7.61654Z"
                fill="#F2D422" />
        <path d="M7.32367 12.5282C2.34462 7.67473 2.55864 7.93485 2.49182 7.68314C2.46463 7.58204 2.45905 7.4644 2.48862 7.34033L0.588 7.61649C0.0262095 7.69815 -0.199417 8.39082 0.20754 8.78745L4.85572 13.3184L3.75839 19.7161C3.73673 19.8424 3.75083 19.9721 3.79909 20.0908C3.84735 20.2095 3.92785 20.3122 4.03148 20.3875C4.13511 20.4628 4.25774 20.5076 4.38551 20.5169C4.51327 20.5261 4.64107 20.4994 4.75445 20.4398L6.44376 19.5517C6.35763 19.4742 6.29252 19.3762 6.2545 19.2667C6.21648 19.1573 6.20679 19.04 6.22634 18.9259L7.32367 12.5282Z"
                fill="#F2D422" />
        <path d="M0.20501 8.78749L4.85319 13.3184L3.75586 19.7161C3.7342 19.8424 3.7483 19.9721 3.79656 20.0908C3.84482 20.2095 3.92532 20.3122 4.02895 20.3875C4.13258 20.4628 4.25521 20.5076 4.38298 20.5169C4.51074 20.5261 4.63854 20.4994 4.75192 20.4398L10.4975 17.4193C16.7526 20.7077 16.323 20.5187 16.5624 20.5187C16.9855 20.5187 17.3113 20.1372 17.2391 19.7161L16.1418 13.3184L0.0312266 8.08374C-0.049041 8.37146 0.0313086 8.61826 0.20501 8.78749Z"
                fill="#F2D422" />
        <path d="M0.20501 8.78749L4.85319 13.3184L3.75586 19.7161C3.7342 19.8424 3.7483 19.9721 3.79656 20.0908C3.84482 20.2095 3.92532 20.3122 4.02895 20.3875C4.13258 20.4628 4.25521 20.5076 4.38298 20.5169C4.51074 20.5261 4.63854 20.4994 4.75192 20.4398L6.44123 19.5517C6.3551 19.4742 6.28999 19.3762 6.25197 19.2667C6.21395 19.1573 6.20426 19.04 6.22381 18.9259L7.32114 12.5282L4.12692 9.41453L0.0312266 8.08374C-0.049041 8.37146 0.0313086 8.61826 0.20501 8.78749Z"
                fill="#F2D422" />
        <path d="M3.75988 19.7161C3.73823 19.8423 3.75232 19.9721 3.80059 20.0908C3.84885 20.2094 3.92935 20.3122 4.03298 20.3875C4.13661 20.4628 4.25924 20.5076 4.38701 20.5168C4.51477 20.5261 4.64257 20.4994 4.75595 20.4397L10.5015 17.4192C16.7566 20.7077 16.327 20.5187 16.5664 20.5187C16.9896 20.5187 17.3153 20.1372 17.2431 19.7161L16.1458 13.3184L20.794 8.78745C20.8857 8.69802 20.9506 8.58473 20.9813 8.46038C21.012 8.33602 21.0073 8.20556 20.9677 8.08374L4.85722 13.3184L3.75988 19.7161Z"
                fill="#F2D422" />
        <path d="M3.75988 19.716C3.73823 19.8422 3.75232 19.972 3.80059 20.0907C3.84885 20.2093 3.92935 20.3121 4.03298 20.3874C4.13661 20.4627 4.25924 20.5075 4.38701 20.5167C4.51477 20.526 4.64257 20.4993 4.75595 20.4397L6.44526 19.5515C6.35913 19.4741 6.29402 19.376 6.256 19.2666C6.21798 19.1572 6.20829 19.0399 6.22783 18.9257L7.32517 12.528L7.31618 12.5193L4.85722 13.3183L3.75988 19.716Z"
                fill="#F2D422" />
        <path d="M4.75423 20.4397L10.4997 17.4192C16.7549 20.7077 16.3252 20.5187 16.5647 20.5187C16.9878 20.5187 17.3136 20.1372 17.2414 19.7161L16.1441 13.3184L20.7923 8.78745C21.1987 8.39112 20.974 7.69824 20.4118 7.6165L13.9881 6.68311L4.03125 20.3875C4.13489 20.4628 4.25752 20.5076 4.38529 20.5168C4.51305 20.5261 4.64085 20.4994 4.75423 20.4397Z"
                fill="#F2D422" />
        <path d="M20.966 8.08374L10.4997 11.4844L4.03125 20.3876C4.13488 20.4628 4.25751 20.5076 4.38527 20.5169C4.51303 20.5261 4.64082 20.4994 4.75419 20.4398L10.4997 17.4193C16.7549 20.7077 16.3252 20.5187 16.5647 20.5187C16.9878 20.5187 17.3136 20.1372 17.2414 19.7161L16.1441 13.3184L20.7923 8.78749C20.884 8.69806 20.9489 8.58477 20.9796 8.4604C21.0103 8.33604 21.0056 8.20557 20.966 8.08374Z"
                fill="#F2D422" />
        <path d="M16.1441 13.3183L10.4997 11.4844L4.03125 20.3875C4.13488 20.4628 4.25751 20.5076 4.38527 20.5168C4.51303 20.526 4.64082 20.4993 4.75419 20.4397L10.4997 17.4192C16.7549 20.7076 16.3252 20.5186 16.5647 20.5186C16.9878 20.5186 17.3136 20.1372 17.2414 19.716L16.1441 13.3183Z"
                fill="#F2D422" />
        <path d="M4.03125 20.3875C4.13488 20.4628 4.25751 20.5076 4.38527 20.5168C4.51303 20.526 4.64082 20.4993 4.75419 20.4397L10.4997 17.4192C16.7549 20.7076 16.3252 20.5186 16.5647 20.5186C16.7097 20.5187 16.8509 20.4728 16.9682 20.3875L10.4997 11.4844L4.03125 20.3875Z"
                fill="#F2D422" />
        <path d="M10.4998 11.4845L10.4997 11.4844L4.03125 20.3875C4.13488 20.4628 4.25751 20.5076 4.38527 20.5168C4.51303 20.526 4.64082 20.4993 4.75419 20.4397L10.4997 17.4192H10.4998V11.4845Z"
                fill="#F2D422" />
        <path d="M6.57615 16.8848L4.03125 20.3875C4.13488 20.4628 4.25751 20.5076 4.38527 20.5168C4.51303 20.526 4.64082 20.4993 4.75419 20.4397L6.4435 19.5516C6.35737 19.4741 6.29226 19.3761 6.25424 19.2667C6.21623 19.1572 6.20654 19.04 6.22608 18.9258L6.57615 16.8848Z"
                fill="#F2D422" />
</svg>