<svg width="36" height="36" viewBox="0 0 36 36" fill="none" xmlns="http://www.w3.org/2000/svg">
<circle cx="18" cy="18" r="18" fill="#E8F7FF"/>
<g clipPath="url(#clip0_1059_1757)">
<path d="M24.88 8.3999H11.12C9.60002 8.3999 8.40002 9.5999 8.40002 11.1199V24.7999C8.40002 26.3199 9.60002 27.5199 11.12 27.5199H24.8C26.32 27.5199 27.52 26.3199 27.52 24.7999V11.1199C27.6 9.5999 26.4 8.3999 24.88 8.3999ZM15.04 10.7999C16.32 10.7999 17.28 11.8399 17.28 13.0399C17.28 14.3199 16.24 15.2799 15.04 15.2799C13.84 15.2799 12.8 14.3199 12.8 13.0399C12.8 11.8399 13.84 10.7999 15.04 10.7999ZM12.8 24.4799H12.24C11.84 24.4799 11.44 24.0799 11.44 23.6799C11.44 23.2799 11.84 22.8799 12.24 22.8799H12.8C13.2 22.8799 13.6 23.2799 13.6 23.6799C13.6 24.0799 13.2 24.4799 12.8 24.4799ZM16.48 24.4799H15.92C15.52 24.4799 15.12 24.0799 15.12 23.6799C15.12 23.2799 15.52 22.8799 15.92 22.8799H16.48C16.96 22.8799 17.28 23.2799 17.28 23.6799C17.28 24.0799 16.88 24.4799 16.48 24.4799ZM11.84 20.5599C11.28 20.5599 10.88 19.9999 11.04 19.4399C11.36 18.1599 12.4 17.0399 13.68 16.6399C14.08 16.7999 14.56 16.8799 15.04 16.8799C15.52 16.8799 16 16.7999 16.4 16.6399C17.04 16.7999 17.52 17.1999 18 17.5999C18.48 18.0799 18.88 18.7199 19.04 19.4399C19.2 19.9999 18.8 20.5599 18.24 20.5599H11.84ZM20.08 24.4799H19.52C19.12 24.4799 18.72 24.0799 18.72 23.6799C18.72 23.2799 19.12 22.8799 19.52 22.8799H20.08C20.48 22.8799 20.88 23.2799 20.88 23.6799C20.88 24.0799 20.56 24.4799 20.08 24.4799ZM23.76 24.4799H23.2C22.8 24.4799 22.4 24.0799 22.4 23.6799C22.4 23.2799 22.8 22.8799 23.2 22.8799H23.76C24.16 22.8799 24.56 23.2799 24.56 23.6799C24.56 24.0799 24.24 24.4799 23.76 24.4799ZM24.56 17.6799H21.36C20.96 17.6799 20.56 17.2799 20.56 16.8799C20.56 16.3999 20.96 16.0799 21.36 16.0799H24.56C25.04 16.0799 25.36 16.3999 25.36 16.8799C25.36 17.2799 24.96 17.6799 24.56 17.6799ZM24.56 14.4799H21.36C20.96 14.4799 20.56 14.1599 20.56 13.6799C20.56 13.2799 20.96 12.8799 21.36 12.8799H24.56C25.04 12.8799 25.36 13.2799 25.36 13.6799C25.36 14.1599 24.96 14.4799 24.56 14.4799Z" fill="#02457C"/>
</g>
<defs>
<clipPath id="clip0_1059_1757">
<rect width="20" height="20" fill="white" transform="translate(8 8)"/>
</clipPath>
</defs>
</svg>
