<svg width="36" height="36" viewBox="0 0 36 36" fill="none" xmlns="http://www.w3.org/2000/svg">
<circle cx="18" cy="18" r="18" fill="#E8F7FF"/>
<path d="M27 13.625H23V18C23.0001 18.2627 22.9484 18.5228 22.8479 18.7654C22.7474 19.0081 22.6001 19.2286 22.4144 19.4144C22.2286 19.6001 22.0081 19.7474 21.7654 19.8479C21.5228 19.9484 21.2627 20.0001 21 20H15.415L13.625 21.79V23.5C13.6249 23.6806 13.6603 23.8595 13.7294 24.0263C13.7985 24.1932 13.8997 24.3449 14.0274 24.4726C14.1551 24.6003 14.3068 24.7015 14.4737 24.7706C14.6405 24.8397 14.8194 24.8751 15 24.875H20.585C20.6678 24.8746 20.7498 24.8907 20.8262 24.9225C20.9026 24.9543 20.9719 25.001 21.03 25.06L23.53 27.56C23.6106 27.641 23.7065 27.7052 23.812 27.7489C23.9176 27.7927 24.0307 27.8151 24.145 27.815C24.2401 27.8143 24.3345 27.7991 24.425 27.77C24.579 27.7187 24.7158 27.6257 24.82 27.5012C24.9242 27.3767 24.9917 27.2257 25.015 27.065L25.25 25.41C25.2713 25.2619 25.3452 25.1264 25.4581 25.0282C25.571 24.93 25.7154 24.8756 25.865 24.875H27C27.1806 24.8751 27.3595 24.8397 27.5263 24.7706C27.6932 24.7015 27.8449 24.6003 27.9726 24.4726C28.1003 24.3449 28.2015 24.1932 28.2706 24.0263C28.3397 23.8595 28.3751 23.6806 28.375 23.5V15C28.3751 14.8194 28.3397 14.6405 28.2706 14.4737C28.2015 14.3068 28.1003 14.1551 27.9726 14.0274C27.8449 13.8997 27.6932 13.7985 27.5263 13.7294C27.3595 13.6603 27.1806 13.6249 27 13.625ZM17.5 22.625C17.3764 22.625 17.2555 22.5883 17.1528 22.5197C17.05 22.451 16.9699 22.3534 16.9226 22.2392C16.8753 22.125 16.8629 21.9993 16.887 21.8781C16.9111 21.7568 16.9707 21.6455 17.0581 21.5581C17.1455 21.4707 17.2568 21.4111 17.3781 21.387C17.4993 21.3629 17.625 21.3753 17.7392 21.4226C17.8534 21.4699 17.951 21.55 18.0197 21.6528C18.0883 21.7555 18.125 21.8764 18.125 22C18.1249 22.1657 18.059 22.3246 17.9418 22.4418C17.8246 22.559 17.6657 22.6249 17.5 22.625ZM20 22.625C19.8764 22.625 19.7555 22.5883 19.6528 22.5197C19.55 22.451 19.4699 22.3534 19.4226 22.2392C19.3753 22.125 19.3629 21.9993 19.387 21.8781C19.4111 21.7568 19.4707 21.6455 19.5581 21.5581C19.6455 21.4707 19.7568 21.4111 19.8781 21.387C19.9993 21.3629 20.125 21.3753 20.2392 21.4226C20.3534 21.4699 20.451 21.55 20.5197 21.6528C20.5883 21.7555 20.625 21.8764 20.625 22C20.6249 22.1657 20.559 22.3246 20.4418 22.4418C20.3246 22.559 20.1657 22.6249 20 22.625ZM22.5 22.625C22.3764 22.625 22.2555 22.5883 22.1528 22.5197C22.05 22.451 21.9699 22.3534 21.9226 22.2392C21.8753 22.125 21.8629 21.9993 21.887 21.8781C21.9111 21.7568 21.9706 21.6455 22.0581 21.5581C22.1455 21.4707 22.2568 21.4111 22.3781 21.387C22.4993 21.3629 22.625 21.3753 22.7392 21.4226C22.8534 21.4699 22.951 21.55 23.0197 21.6528C23.0883 21.7555 23.125 21.8764 23.125 22C23.1249 22.1657 23.059 22.3246 22.9418 22.4418C22.8246 22.559 22.6657 22.6249 22.5 22.625ZM24.5 16.5C24.5 16.3674 24.5527 16.2402 24.6464 16.1464C24.7402 16.0527 24.8674 16 25 16C25.1326 16 25.2598 16.0527 25.3536 16.1464C25.4473 16.2402 25.5 16.3674 25.5 16.5V20.5C25.5 20.6326 25.4473 20.7598 25.3536 20.8536C25.2598 20.9473 25.1326 21 25 21C24.8674 21 24.7402 20.9473 24.6464 20.8536C24.5527 20.7598 24.5 20.6326 24.5 20.5V16.5ZM25 22.625C24.8764 22.625 24.7555 22.5883 24.6528 22.5197C24.55 22.451 24.4699 22.3534 24.4226 22.2392C24.3753 22.125 24.3629 21.9993 24.387 21.8781C24.4111 21.7568 24.4706 21.6455 24.5581 21.5581C24.6455 21.4707 24.7568 21.4111 24.8781 21.387C24.9993 21.3629 25.125 21.3753 25.2392 21.4226C25.3534 21.4699 25.451 21.55 25.5197 21.6528C25.5883 21.7555 25.625 21.8764 25.625 22C25.6249 22.1657 25.559 22.3246 25.4418 22.4418C25.3246 22.559 25.1657 22.6249 25 22.625Z" fill="#02457C"/>
<path d="M21 8.125H9C8.63545 8.1254 8.28594 8.27039 8.02817 8.52817C7.77039 8.78594 7.6254 9.13545 7.625 9.5V18C7.6254 18.3646 7.77039 18.7141 8.02817 18.9718C8.28594 19.2296 8.63545 19.3746 9 19.375H10.133C10.2832 19.3757 10.4281 19.4302 10.5415 19.5286C10.6549 19.6271 10.7292 19.7629 10.751 19.9115L10.9875 21.563C11.0103 21.724 11.0775 21.8754 11.1816 22.0003C11.2857 22.1252 11.4226 22.2186 11.5768 22.27C11.7311 22.3214 11.8966 22.3288 12.0548 22.2914C12.213 22.2539 12.3577 22.1731 12.4725 22.058L14.9725 19.558C15.0304 19.4998 15.0993 19.4536 15.1752 19.4222C15.251 19.3908 15.3324 19.3748 15.4145 19.375H21C21.3646 19.3746 21.7141 19.2296 21.9718 18.9718C22.2296 18.7141 22.3746 18.3646 22.375 18V9.5C22.3746 9.13545 22.2296 8.78594 21.9718 8.52817C21.7141 8.27039 21.3646 8.1254 21 8.125ZM15 17.125C14.8764 17.125 14.7555 17.0883 14.6528 17.0197C14.55 16.951 14.4699 16.8534 14.4226 16.7392C14.3753 16.625 14.3629 16.4993 14.387 16.3781C14.4111 16.2568 14.4707 16.1455 14.5581 16.0581C14.6455 15.9707 14.7568 15.9111 14.8781 15.887C14.9993 15.8629 15.125 15.8753 15.2392 15.9226C15.3534 15.9699 15.451 16.05 15.5197 16.1528C15.5883 16.2555 15.625 16.3764 15.625 16.5C15.6249 16.6657 15.559 16.8246 15.4418 16.9418C15.3246 17.059 15.1657 17.1249 15 17.125ZM15.7635 13.849C15.6815 13.889 15.6129 13.9519 15.5661 14.0303C15.5193 14.1086 15.4963 14.1988 15.5 14.29V15C15.5 15.1326 15.4473 15.2598 15.3536 15.3536C15.2598 15.4473 15.1326 15.5 15 15.5C14.8674 15.5 14.7402 15.4473 14.6464 15.3536C14.5527 15.2598 14.5 15.1326 14.5 15V14.29C14.495 14.0007 14.5762 13.7165 14.7331 13.4734C14.8901 13.2304 15.1158 13.0395 15.3815 12.925C15.5812 12.843 15.7491 12.6985 15.8599 12.5133C15.9708 12.328 16.0188 12.1118 15.9966 11.8971C15.9745 11.6823 15.8835 11.4804 15.7373 11.3216C15.591 11.1628 15.3972 11.0556 15.185 11.016C15.1239 11.0054 15.062 11.0001 15 11C14.765 10.999 14.5374 11.0818 14.358 11.2335C14.2459 11.3273 14.1558 11.4446 14.0939 11.577C14.0321 11.7094 14 11.8538 14 12C14 12.1326 13.9473 12.2598 13.8536 12.3536C13.7598 12.4473 13.6326 12.5 13.5 12.5C13.3674 12.5 13.2402 12.4473 13.1464 12.3536C13.0527 12.2598 13 12.1326 13 12C12.9999 11.737 13.0516 11.4766 13.1524 11.2337C13.2531 10.9908 13.4008 10.7701 13.587 10.5844C13.7731 10.3987 13.9942 10.2516 14.2373 10.1515C14.4805 10.0513 14.741 10.0002 15.004 10.001C15.1227 10.0012 15.2411 10.0116 15.358 10.032C15.7833 10.1092 16.1722 10.3221 16.4664 10.6388C16.7605 10.9555 16.9442 11.359 16.9898 11.7888C17.0354 12.2187 16.9405 12.6517 16.7194 13.0231C16.4982 13.3945 16.1627 13.6843 15.763 13.849H15.7635Z" fill="#02457C"/>
</svg>
