<svg width="36" height="36" viewBox="0 0 36 36" fill="none" xmlns="http://www.w3.org/2000/svg">
<circle cx="18" cy="18" r="18" fill="#EEE4F8"/>
<g clipPath="url(#clip0_1601_1106)">
<path d="M18 20.75C17.8784 20.75 17.7618 20.7017 17.6759 20.6158C17.5899 20.5298 17.5416 20.4132 17.5416 20.2917V17.0833C17.5311 16.8473 17.4299 16.6245 17.2591 16.4612C17.0884 16.2979 16.8612 16.2068 16.625 16.2068C16.3887 16.2068 16.1615 16.2979 15.9908 16.4612C15.82 16.6245 15.7189 16.8473 15.7083 17.0833V20.2917C15.7083 20.4132 15.66 20.5298 15.5741 20.6158C15.4881 20.7017 15.3715 20.75 15.25 20.75C15.1284 20.75 15.0118 20.7017 14.9259 20.6158C14.8399 20.5298 14.7916 20.4132 14.7916 20.2917V17.0833C14.7916 16.0722 15.6139 15.25 16.625 15.25C17.636 15.25 18.4583 16.0722 18.4583 17.0833V20.2917C18.4583 20.4132 18.41 20.5298 18.3241 20.6158C18.2381 20.7017 18.1215 20.75 18 20.75Z" fill="#663399"/>
<path d="M18 18.9167H15.25C15.1284 18.9167 15.0118 18.8684 14.9259 18.7824C14.8399 18.6965 14.7916 18.5799 14.7916 18.4583C14.7916 18.3368 14.8399 18.2202 14.9259 18.1342C15.0118 18.0483 15.1284 18 15.25 18H18C18.1215 18 18.2381 18.0483 18.3241 18.1342C18.41 18.2202 18.4583 18.3368 18.4583 18.4583C18.4583 18.5799 18.41 18.6965 18.3241 18.7824C18.2381 18.8684 18.1215 18.9167 18 18.9167ZM20.75 20.75C20.6284 20.75 20.5118 20.7017 20.4259 20.6158C20.3399 20.5298 20.2916 20.4132 20.2916 20.2917V15.7083C20.2916 15.5868 20.3399 15.4702 20.4259 15.3842C20.5118 15.2983 20.6284 15.25 20.75 15.25C20.8715 15.25 20.9881 15.2983 21.0741 15.3842C21.16 15.4702 21.2083 15.5868 21.2083 15.7083V20.2917C21.2083 20.4132 21.16 20.5298 21.0741 20.6158C20.9881 20.7017 20.8715 20.75 20.75 20.75Z" fill="#663399"/>
<path d="M22.125 24.4166H13.875C13.2675 24.4159 12.685 24.1742 12.2554 23.7446C11.8258 23.315 11.5841 22.7325 11.5834 22.1249V13.8749C11.5834 12.6118 12.611 11.5833 13.875 11.5833H22.125C23.3891 11.5833 24.4167 12.6118 24.4167 13.8749V22.1249C24.4167 23.3881 23.3891 24.4166 22.125 24.4166ZM13.875 12.4999C13.117 12.4999 12.5 13.1168 12.5 13.8749V22.1249C12.5 22.883 13.117 23.4999 13.875 23.4999H22.125C22.8831 23.4999 23.5 22.883 23.5 22.1249V13.8749C23.5 13.1168 22.8831 12.4999 22.125 12.4999H13.875Z" fill="#663399"/>
<path d="M25.7917 16.1667H23.9583C23.8368 16.1667 23.7202 16.1185 23.6342 16.0325C23.5483 15.9466 23.5 15.83 23.5 15.7084C23.5 15.5869 23.5483 15.4703 23.6342 15.3843C23.7202 15.2984 23.8368 15.2501 23.9583 15.2501H25.7917C25.9132 15.2501 26.0298 15.2018 26.1158 15.1158C26.2017 15.0299 26.25 14.9133 26.25 14.7917V11.1251C26.25 11.0035 26.2983 10.8869 26.3842 10.801C26.4702 10.715 26.5868 10.6667 26.7083 10.6667C26.8299 10.6667 26.9465 10.715 27.0324 10.801C27.1184 10.8869 27.1667 11.0035 27.1667 11.1251V14.7917C27.1667 15.5498 26.5498 16.1667 25.7917 16.1667Z" fill="#663399"/>
<path d="M26.7083 11.5833C25.4443 11.5833 24.4167 10.5548 24.4167 9.29167C24.4167 8.0285 25.4443 7 26.7083 7C27.9724 7 29 8.0285 29 9.29167C29 10.5548 27.9724 11.5833 26.7083 11.5833ZM26.7083 7.91667C25.9503 7.91667 25.3333 8.53358 25.3333 9.29167C25.3333 10.0498 25.9503 10.6667 26.7083 10.6667C27.4664 10.6667 28.0833 10.0498 28.0833 9.29167C28.0833 8.53358 27.4664 7.91667 26.7083 7.91667ZM26.7083 25.3333C26.5868 25.3333 26.4702 25.285 26.3842 25.1991C26.2983 25.1131 26.25 24.9966 26.25 24.875V21.2083C26.25 21.0868 26.2017 20.9702 26.1158 20.8842C26.0298 20.7983 25.9132 20.75 25.7917 20.75H23.9583C23.8368 20.75 23.7202 20.7017 23.6342 20.6158C23.5483 20.5298 23.5 20.4132 23.5 20.2917C23.5 20.1701 23.5483 20.0535 23.6342 19.9676C23.7202 19.8816 23.8368 19.8333 23.9583 19.8333H25.7917C26.5498 19.8333 27.1667 20.4503 27.1667 21.2083V24.875C27.1667 24.9966 27.1184 25.1131 27.0324 25.1991C26.9465 25.285 26.8299 25.3333 26.7083 25.3333Z" fill="#663399"/>
<path d="M26.7084 29.0001C25.4443 29.0001 24.4167 27.9716 24.4167 26.7084C24.4167 25.4452 25.4443 24.4167 26.7084 24.4167C27.9725 24.4167 29 25.4452 29 26.7084C29 27.9716 27.9725 29.0001 26.7084 29.0001ZM26.7084 25.3334C25.9503 25.3334 25.3334 25.9503 25.3334 26.7084C25.3334 27.4665 25.9503 28.0834 26.7084 28.0834C27.4665 28.0834 28.0834 27.4665 28.0834 26.7084C28.0834 25.9503 27.4665 25.3334 26.7084 25.3334ZM12.0417 16.1667H10.2084C9.45029 16.1667 8.83337 15.5498 8.83337 14.7917V11.1251C8.83337 11.0035 8.88166 10.8869 8.96762 10.801C9.05357 10.715 9.17015 10.6667 9.29171 10.6667C9.41326 10.6667 9.52984 10.715 9.6158 10.801C9.70175 10.8869 9.75004 11.0035 9.75004 11.1251V14.7917C9.75004 14.9133 9.79833 15.0299 9.88428 15.1158C9.97024 15.2018 10.0868 15.2501 10.2084 15.2501H12.0417C12.1633 15.2501 12.2798 15.2984 12.3658 15.3843C12.4518 15.4703 12.5 15.5869 12.5 15.7084C12.5 15.83 12.4518 15.9466 12.3658 16.0325C12.2798 16.1185 12.1633 16.1667 12.0417 16.1667Z" fill="#663399"/>
<path d="M9.29167 11.5833C8.02758 11.5833 7 10.5548 7 9.29167C7 8.0285 8.02758 7 9.29167 7C10.5558 7 11.5833 8.0285 11.5833 9.29167C11.5833 10.5548 10.5558 11.5833 9.29167 11.5833ZM9.29167 7.91667C8.53358 7.91667 7.91667 8.53358 7.91667 9.29167C7.91667 10.0498 8.53358 10.6667 9.29167 10.6667C10.0498 10.6667 10.6667 10.0498 10.6667 9.29167C10.6667 8.53358 10.0498 7.91667 9.29167 7.91667ZM9.29167 25.3333C9.17011 25.3333 9.05353 25.285 8.96758 25.1991C8.88162 25.1131 8.83333 24.9966 8.83333 24.875V21.2083C8.83333 20.4503 9.45025 19.8333 10.2083 19.8333H12.0417C12.1632 19.8333 12.2798 19.8816 12.3658 19.9676C12.4517 20.0535 12.5 20.1701 12.5 20.2917C12.5 20.4132 12.4517 20.5298 12.3658 20.6158C12.2798 20.7017 12.1632 20.75 12.0417 20.75H10.2083C10.0868 20.75 9.9702 20.7983 9.88424 20.8842C9.79829 20.9702 9.75 21.0868 9.75 21.2083V24.875C9.75 24.9966 9.70171 25.1131 9.61576 25.1991C9.5298 25.285 9.41322 25.3333 9.29167 25.3333Z" fill="#663399"/>
<path d="M9.29167 29.0001C8.02758 29.0001 7 27.9716 7 26.7084C7 25.4452 8.02758 24.4167 9.29167 24.4167C10.5558 24.4167 11.5833 25.4452 11.5833 26.7084C11.5833 27.9716 10.5558 29.0001 9.29167 29.0001ZM9.29167 25.3334C8.53358 25.3334 7.91667 25.9503 7.91667 26.7084C7.91667 27.4665 8.53358 28.0834 9.29167 28.0834C10.0498 28.0834 10.6667 27.4665 10.6667 26.7084C10.6667 25.9503 10.0498 25.3334 9.29167 25.3334Z" fill="#663399"/>
</g>
<defs>
<clipPath id="clip0_1601_1106">
<rect width="22" height="22" fill="white" transform="translate(7 7)"/>
</clipPath>
</defs>
</svg>
