<svg width="36" height="36" viewBox="0 0 36 36" fill="none" xmlns="http://www.w3.org/2000/svg">
<circle cx="18.0001" cy="18" r="18" fill="#DEF2F4"/>
<path d="M28.9624 23.4188L28.3108 23.2626C28.2202 23.2409 28.1359 23.198 28.065 23.1375C27.9942 23.0769 27.9386 23.0005 27.9029 22.9144C27.8672 22.8282 27.8524 22.7349 27.8597 22.642C27.867 22.549 27.8962 22.4592 27.9449 22.3797L28.2973 21.8046C28.3413 21.7328 28.3599 21.6483 28.35 21.5646C28.3401 21.481 28.3023 21.4031 28.2427 21.3436L27.4064 20.5072C27.3468 20.4476 27.2689 20.4098 27.1853 20.3999C27.1016 20.39 27.0171 20.4086 26.9453 20.4526L26.3702 20.805C26.2907 20.8537 26.2009 20.8829 26.1079 20.8902C26.015 20.8975 25.9216 20.8827 25.8355 20.847C25.7494 20.8113 25.6729 20.7558 25.6124 20.6849C25.5519 20.614 25.509 20.5298 25.4872 20.4391L25.331 19.7875C25.3114 19.7056 25.2647 19.6327 25.1986 19.5805C25.1324 19.5283 25.0506 19.5 24.9664 19.5H24.3602C24.6151 19.1258 24.751 18.6833 24.7499 18.2305V9.0503C24.7499 8.71633 24.6756 8.38655 24.5323 8.08489C24.389 7.78323 24.1804 7.51724 23.9215 7.30624C23.6626 7.09524 23.36 6.94452 23.0357 6.865C22.7113 6.78548 22.3733 6.77917 22.0462 6.84652L12.9404 8.72129C12.4605 8.82139 12.0263 9.07491 11.7033 9.44356C11.3803 9.8122 11.186 10.2759 11.1497 10.7648L10.8808 14.5311L9.0336 18.5948C9.00765 18.6519 8.99643 18.7146 9.00099 18.7772C9.00555 18.8397 9.02574 18.9002 9.0597 18.9529C9.09367 19.0057 9.14032 19.0491 9.1954 19.0791C9.25047 19.1092 9.31221 19.1249 9.37495 19.1249H10.8749V23.6422C10.8749 23.826 10.9199 24.0071 11.006 24.1696C11.0922 24.332 11.2168 24.4709 11.3691 24.574C11.5214 24.6771 11.6966 24.7412 11.8794 24.7609C12.0622 24.7805 12.2471 24.7551 12.4178 24.6867L15.3749 23.5038V29.25H16.1249V23.2038L18.8892 22.0981L18.6107 21.4018L12.1392 23.9903C12.0823 24.0131 12.0207 24.0216 11.9598 24.015C11.8988 24.0084 11.8405 23.987 11.7897 23.9527C11.739 23.9183 11.6974 23.8721 11.6687 23.8179C11.64 23.7638 11.6249 23.7034 11.6249 23.6422V18.75C11.6249 18.6505 11.5854 18.5551 11.5151 18.4848C11.4448 18.4145 11.3494 18.375 11.2499 18.375H9.95732L11.5913 14.7801C11.6098 14.7396 11.6208 14.6961 11.624 14.6517L11.8978 10.8182C11.922 10.4924 12.0515 10.1832 12.2668 9.93742C12.4822 9.69165 12.7716 9.52262 13.0915 9.45586L22.1975 7.5811C22.4155 7.5362 22.6409 7.54041 22.8571 7.59343C23.0733 7.64644 23.2751 7.74692 23.4477 7.88759C23.6202 8.02826 23.7593 8.20558 23.8549 8.40669C23.9504 8.6078 24 8.82766 23.9999 9.0503V18.2305C24.0009 18.5305 23.9115 18.8239 23.7433 19.0723C23.5751 19.3207 23.3359 19.5127 23.057 19.6232L23.3079 20.2503L23.2626 20.4391C23.2409 20.5297 23.198 20.614 23.1375 20.6849C23.0769 20.7558 23.0005 20.8113 22.9144 20.847C22.8282 20.8827 22.7349 20.8975 22.642 20.8902C22.549 20.8829 22.4591 20.8537 22.3797 20.805L21.8046 20.4526C21.7328 20.4086 21.6483 20.39 21.5646 20.3999C21.481 20.4098 21.4031 20.4476 21.3435 20.5072L20.5072 21.3436C20.4476 21.4031 20.4099 21.481 20.4 21.5646C20.3901 21.6483 20.4086 21.7328 20.4526 21.8046L20.805 22.3797C20.8537 22.4592 20.8829 22.549 20.8902 22.642C20.8975 22.7349 20.8827 22.8282 20.847 22.9144C20.8114 23.0005 20.7558 23.0769 20.6849 23.1375C20.614 23.198 20.5298 23.2409 20.4391 23.2626L19.7875 23.4188C19.7056 23.4385 19.6327 23.4852 19.5805 23.5513C19.5283 23.6175 19.4999 23.6993 19.4999 23.7835V24.9664C19.4999 25.0506 19.5283 25.1324 19.5805 25.1986C19.6327 25.2648 19.7056 25.3114 19.7875 25.3311L20.4391 25.4873C20.5297 25.509 20.614 25.5519 20.6848 25.6124C20.7557 25.6729 20.8113 25.7494 20.847 25.8355C20.8827 25.9216 20.8975 26.015 20.8902 26.1079C20.8829 26.2008 20.8537 26.2907 20.8049 26.3702L20.4526 26.9452C20.4086 27.017 20.39 27.1016 20.3999 27.1852C20.4098 27.2689 20.4476 27.3468 20.5072 27.4063L21.3435 28.2427C21.4031 28.3023 21.481 28.34 21.5646 28.3499C21.6482 28.3599 21.7328 28.3413 21.8046 28.2973L22.3797 27.9449C22.4592 27.8962 22.549 27.867 22.642 27.8597C22.7349 27.8524 22.8283 27.8672 22.9144 27.9028C23.0005 27.9385 23.077 27.9941 23.1375 28.065C23.198 28.1359 23.2409 28.2201 23.2627 28.3108L23.4189 28.9623C23.4385 29.0443 23.4852 29.1172 23.5513 29.1694C23.6175 29.2215 23.6993 29.2499 23.7835 29.2499H24.9664C25.0506 29.2499 25.1324 29.2216 25.1986 29.1694C25.2647 29.1172 25.3114 29.0443 25.3311 28.9624L25.4873 28.3108C25.509 28.2202 25.5519 28.136 25.6124 28.0651C25.673 27.9942 25.7494 27.9386 25.8355 27.9029C25.9216 27.8672 26.015 27.8524 26.1079 27.8597C26.2008 27.867 26.2907 27.8962 26.3702 27.9449L26.9452 28.2973C27.0171 28.3413 27.1016 28.3599 27.1853 28.35C27.2689 28.3401 27.3468 28.3023 27.4064 28.2427L28.2427 27.4064C28.3023 27.3468 28.34 27.2689 28.35 27.1853C28.3599 27.1016 28.3413 27.0171 28.2973 26.9453L27.9449 26.3702C27.8962 26.2908 27.867 26.2009 27.8597 26.1079C27.8524 26.015 27.8671 25.9216 27.9028 25.8355C27.9385 25.7494 27.9941 25.6729 28.065 25.6124C28.1359 25.5519 28.2201 25.509 28.3108 25.4873L28.9624 25.331C29.0443 25.3114 29.1172 25.2647 29.1694 25.1986C29.2216 25.1324 29.2499 25.0506 29.2499 24.9664V23.7835C29.2499 23.6992 29.2216 23.6174 29.1694 23.5513C29.1172 23.4851 29.0443 23.4385 28.9624 23.4188ZM25.4999 24.375C25.4999 24.5975 25.434 24.815 25.3104 25C25.1867 25.185 25.011 25.3292 24.8055 25.4143C24.5999 25.4995 24.3737 25.5217 24.1555 25.4783C23.9372 25.4349 23.7368 25.3278 23.5795 25.1705C23.4221 25.0131 23.315 24.8127 23.2716 24.5944C23.2282 24.3762 23.2504 24.15 23.3356 23.9444C23.4207 23.7389 23.5649 23.5632 23.7499 23.4396C23.9349 23.3159 24.1524 23.25 24.3749 23.25C24.6732 23.2503 24.9592 23.3689 25.1701 23.5798C25.381 23.7907 25.4996 24.0767 25.4999 24.375Z" fill="#4DCFE0"/>
<path d="M13.4999 19.875C13.4999 20.0812 13.5566 20.2835 13.6637 20.4598C13.7709 20.636 13.9245 20.7793 14.1076 20.8742C14.2908 20.969 14.4965 21.0117 14.7023 20.9975C14.908 20.9833 15.106 20.9128 15.2744 20.7938C15.4428 20.6747 15.5752 20.5116 15.6572 20.3223C15.7392 20.1331 15.7676 19.9249 15.7393 19.7206C15.7109 19.5163 15.627 19.3237 15.4966 19.1639C15.3662 19.0041 15.1944 18.8832 14.9999 18.8145V13.875C14.9999 13.8257 14.9902 13.777 14.9714 13.7315C14.9525 13.686 14.9249 13.6446 14.8901 13.6098L13.3901 12.1098L12.8597 12.6401L14.2499 14.0303V18.8145C14.0307 18.8923 13.841 19.0359 13.7067 19.2258C13.5724 19.4157 13.5002 19.6424 13.4999 19.875ZM19.4999 18.75C19.4998 18.994 19.579 19.2314 19.7256 19.4265C19.8722 19.6216 20.0782 19.7637 20.3127 19.8315C20.5471 19.8993 20.7971 19.8891 21.0252 19.8024C21.2533 19.7157 21.447 19.5572 21.5772 19.3508C21.7074 19.1444 21.767 18.9013 21.747 18.6581C21.727 18.4149 21.6285 18.1848 21.4663 18.0025C21.3041 17.8202 21.0871 17.6955 20.8479 17.6472C20.6087 17.5989 20.3604 17.6297 20.1402 17.7349L18.3749 15.9696V11.0303L19.7651 9.64016L19.2347 9.10986L17.7347 10.6099C17.6644 10.6802 17.6249 10.7755 17.6249 10.875V16.125C17.6249 16.2244 17.6644 16.3198 17.7347 16.3901L19.6098 18.2652C19.5373 18.4165 19.4997 18.5822 19.4999 18.75Z" fill="#4DCFE0"/>
<path d="M22.7651 9.26516L22.2347 8.73486L20.3597 10.6099C20.3249 10.6447 20.2973 10.686 20.2785 10.7315C20.2596 10.777 20.2499 10.8258 20.2499 10.875V14.6895C19.9997 14.778 19.7888 14.9521 19.6546 15.181C19.5203 15.4099 19.4712 15.6789 19.5161 15.9404C19.561 16.202 19.6969 16.4393 19.8998 16.6103C20.1027 16.7814 20.3595 16.8752 20.6249 16.8752C20.8903 16.8752 21.1471 16.7814 21.35 16.6103C21.5529 16.4393 21.6888 16.202 21.7337 15.9404C21.7786 15.6789 21.7296 15.4099 21.5953 15.181C21.461 14.9521 21.2501 14.778 20.9999 14.6895V11.0303L22.7651 9.26516ZM17.2499 19.875C17.4188 19.8751 17.5855 19.8371 17.7377 19.7639C17.8899 19.6908 18.0237 19.5843 18.1291 19.4523C18.2345 19.3204 18.3089 19.1664 18.3467 19.0018C18.3845 18.8372 18.3848 18.6662 18.3475 18.5015C18.3102 18.3368 18.2362 18.1826 18.1312 18.0504C18.0262 17.9181 17.8927 17.8112 17.7408 17.7376C17.5888 17.664 17.4222 17.6255 17.2533 17.625C17.0844 17.6246 16.9176 17.6621 16.7652 17.735L16.4999 17.4696V12C16.4999 11.9508 16.4902 11.902 16.4714 11.8565C16.4525 11.811 16.4249 11.7697 16.3901 11.7349L14.8901 10.2349L14.3597 10.7652L15.7499 12.1553V17.625C15.7499 17.6743 15.7596 17.723 15.7785 17.7685C15.7973 17.814 15.8249 17.8554 15.8597 17.8902L16.2348 18.2653C16.1529 18.4368 16.1157 18.6262 16.1268 18.8159C16.1379 19.0057 16.1969 19.1895 16.2982 19.3502C16.3996 19.511 16.5401 19.6434 16.7065 19.7352C16.8729 19.827 17.0599 19.8751 17.2499 19.875ZM28.9498 20.4928L29.5214 20.0072C29.2833 19.7271 29.0229 19.4667 28.7427 19.2285L28.2571 19.8001C28.5064 20.0119 28.738 20.2436 28.9498 20.4928ZM27.9487 18.6477C27.2207 18.1915 26.4116 17.8798 25.5656 17.7298L25.4342 18.4682C26.1857 18.6015 26.9044 18.8784 27.5511 19.2837L27.9487 18.6477ZM18.4681 23.3158L17.7297 23.1843C17.683 23.4469 17.6519 23.712 17.6364 23.9783L18.3851 24.0217C18.3989 23.785 18.4266 23.5492 18.4681 23.3158ZM18.3851 24.7283L17.6364 24.7717C17.6917 25.6862 17.9319 26.58 18.3425 27.399C18.753 28.2179 19.3254 28.9452 20.025 29.5367L20.5086 28.9634C19.8867 28.4377 19.3779 27.7913 19.0129 27.0634C18.6479 26.3355 18.4344 25.5411 18.3851 24.7283Z" fill="#4DCFE0"/>
</svg>
