<svg width="30" height="30" viewBox="0 0 30 30" fill="none" xmlns="http://www.w3.org/2000/svg">
<g clipPath="url(#clip0_1059_1439)">
<path d="M27.8167 22.5979H2.18307C1.19694 22.5979 0.39502 21.7958 0.39502 20.8099V1.78903C0.39502 0.802894 1.19711 0.000976562 2.18307 0.000976562H27.8167C28.8028 0.000976562 29.6047 0.803069 29.6047 1.78903V20.8099C29.6047 21.7958 28.8028 22.5979 27.8167 22.5979ZM2.18307 0.938422C1.71409 0.938422 1.33246 1.31987 1.33246 1.78903V20.8099C1.33246 21.2788 1.71391 21.6605 2.18307 21.6605H27.8167C28.2856 21.6605 28.6673 21.279 28.6673 20.8099V1.78903C28.6673 1.32004 28.2858 0.938422 27.8167 0.938422H2.18307Z" fill="#143048"/>
<path d="M29.1358 18.7824H0.863757C0.246586 18.7824 0.246586 17.845 0.863757 17.845H29.1362C29.7533 17.845 29.7533 18.7824 29.1358 18.7824ZM18.3205 26.2127H12.0663C11.8072 26.2127 11.5975 26.003 11.5975 25.7439V22.129C11.5975 21.87 11.8072 21.6601 12.0663 21.6601H18.3205C18.5796 21.6601 18.7893 21.8699 18.7893 22.129V25.7439C18.7889 26.0027 18.5794 26.2127 18.3205 26.2127ZM12.5351 25.2753H17.8519V22.5979H12.5351V25.2753Z" fill="#143048"/>
<path d="M22.0213 29.9994H8.36554C8.10661 29.9994 7.89673 29.7897 7.89673 29.5306V27.1208C7.89673 26.103 8.72484 25.2749 9.74261 25.2749H20.6443C21.662 25.2749 22.4901 26.103 22.4901 27.1208V29.5306C22.49 29.7897 22.2799 29.9994 22.0212 29.9994H22.0213ZM8.83435 29.0623H21.5525V27.1211C21.5525 26.6202 21.1451 26.2127 20.6441 26.2127H9.74244C9.24146 26.2127 8.834 26.6202 8.834 27.1211L8.83417 29.0623H8.83435Z" fill="#143048"/>
<path d="M26.6409 20.504H24.9932C24.376 20.504 24.376 19.5665 24.9932 19.5665H26.6409C27.2581 19.5665 27.2579 20.504 26.6409 20.504ZM23.1011 20.504H21.4533C20.8361 20.504 20.8361 19.5665 21.4533 19.5665H23.1011C23.7182 19.5665 23.718 20.504 23.1011 20.504ZM19.3017 20.504H17.6539C17.0367 20.504 17.0367 19.5665 17.6539 19.5665H19.3017C19.9189 19.5665 19.9189 20.504 19.3017 20.504ZM13.9041 12.8274C13.4903 12.8274 13.277 12.3231 13.573 12.0274L16.2085 9.39156L13.5728 6.75588C13.1365 6.31959 13.7994 5.65689 14.2355 6.09319L17.2022 9.06003C17.3851 9.24302 17.3851 9.53974 17.2022 9.72273L14.2358 12.6899C14.1923 12.7336 14.1406 12.7682 14.0837 12.7918C14.0268 12.8153 13.9658 12.8275 13.9041 12.8274ZM8.76726 12.8274C8.64738 12.8274 8.52732 12.7815 8.43574 12.6903L5.46854 9.72308C5.28555 9.54009 5.28555 9.24302 5.46854 9.06003L8.43556 6.09319C8.87203 5.65707 9.53508 6.31977 9.09861 6.75624L6.46311 9.39156L9.09861 12.0271C9.39463 12.3231 9.18106 12.8276 8.76726 12.8276V12.8274ZM10.1943 13.5179C9.8775 13.5179 9.64688 13.2041 9.75024 12.8988L12.3019 5.35736C12.4995 4.77254 13.3877 5.0733 13.1901 5.6576L10.6385 13.1993C10.5724 13.3946 10.3899 13.5179 10.1944 13.5179H10.1943Z" fill="#143048"/>
<path d="M26.1561 4.75726H22.1299C21.5128 4.75726 21.5128 3.81982 22.1299 3.81982H26.1561C26.7732 3.81982 26.7732 4.75726 26.1561 4.75726ZM26.1561 7.30891H22.1299C21.5128 7.30891 21.5128 6.37147 22.1299 6.37147H26.1561C26.7732 6.37147 26.7732 7.30891 26.1561 7.30891ZM26.1561 9.86056H22.1299C21.5128 9.86056 21.5128 8.92312 22.1299 8.92312H26.1561C26.7732 8.92312 26.7732 9.86056 26.1561 9.86056ZM26.1561 12.412H22.1299C21.5128 12.412 21.5128 11.4746 22.1299 11.4746H26.1561C26.7732 11.4746 26.7732 12.412 26.1561 12.412ZM26.1561 14.9637H22.1299C21.5128 14.9637 21.5128 14.0262 22.1299 14.0262H26.1561C26.7732 14.0262 26.7732 14.9637 26.1561 14.9637ZM18.5298 15.1338H4.75127C3.99241 15.1338 3.37524 14.5165 3.37524 13.7578V5.02568C3.37524 4.26718 3.99241 3.64966 4.75127 3.64966H18.5298C19.2884 3.64966 19.906 4.26683 19.906 5.02568V13.758C19.906 14.5165 19.2884 15.1338 18.5298 15.1338ZM4.75127 4.58728C4.50957 4.58728 4.31287 4.78415 4.31287 5.02568V13.758C4.31287 13.9997 4.50974 14.1964 4.75127 14.1964H18.5298C18.7716 14.1964 18.9685 13.9995 18.9685 13.758V5.02586C18.9685 4.78416 18.7716 4.58745 18.5298 4.58745H4.75127V4.58728Z" fill="#143048"/>
</g>
<defs>
<clipPath id="clip0_1059_1439">
<rect width="30" height="30" fill="white"/>
</clipPath>
</defs>
</svg>
