<?xml version="1.0" encoding="UTF-8" standalone="no" ?>
<!DOCTYPE svg PUBLIC "-//W3C//DTD SVG 1.1//EN" "http://www.w3.org/Graphics/SVG/1.1/DTD/svg11.dtd">
<svg xmlns="http://www.w3.org/2000/svg" xmlns:xlink="http://www.w3.org/1999/xlink" version="1.1" width="1080" height="1080" viewBox="0 0 1080 1080" xml:space="preserve">
<desc>Created with Fabric.js 5.2.4</desc>
<defs>
</defs>
<rect x="0" y="0" width="100%" height="100%" fill="transparent"></rect>
<g transform="matrix(1 0 0 1 540 540)" id="4f1f04a4-aea1-471f-ab18-742134eb777a"  >
<rect style="stroke: none; strokeWidth: 1; stroke-dasharray: none; strokeLinecap: butt; stroke-dashoffset: 0; strokeLinejoin: miter; strokeMiterlimit: 4; fill: rgb(255,255,255); fill-rule: nonzero; opacity: 1; visibility: hidden;" vector-effect="non-scaling-stroke"  x="-540" y="-540" rx="0" ry="0" width="1080" height="1080" />
</g>
<g transform="matrix(1 0 0 1 540 540)" id="b2044d50-99ce-45b3-87e6-3a43ffd3ac9e"  >
</g>
<g transform="matrix(30 0 0 30 540 540)"  >
<g style=""   >
		<g transform="matrix(1 0 0 1 0 0)"  >
<circle style="stroke: none; strokeWidth: 1; stroke-dasharray: none; strokeLinecap: butt; stroke-dashoffset: 0; strokeLinejoin: miter; strokeMiterlimit: 4; fill: rgb(240,251,255); fill-rule: nonzero; opacity: 1;" vector-effect="non-scaling-stroke"  cx="0" cy="0" r="18" />
</g>
		<g transform="matrix(1 0 0 1 -2.55 0.02)"  >
<linearGradient id="SVGID_paint0_linear_4_2_3" gradientUnits="userSpaceOnUse" gradientTransform="matrix(1 0 0 1 0 0)"  x1="933.125" y1="8.00005" x2="1771.02" y2="519.372">
<stop offset="0%" style="stop-color:rgb(66,133,235);stop-opacity: 1"/>
<stop offset="100%" style="stop-color:rgb(46,199,255);stop-opacity: 1"/>
</linearGradient>
<path style="stroke: none; strokeWidth: 1; stroke-dasharray: none; strokeLinecap: butt; stroke-dashoffset: 0; strokeLinejoin: miter; strokeMiterlimit: 4; fill: url(#SVGID_paint0_linear_4_2_3); fill-rule: nonzero; opacity: 1;" vector-effect="non-scaling-stroke"  transform=" translate(-15.45, -18.02)" d="M 17.1697 8.35692 L 8.3554 17.1694 C 7.88153 17.6432 7.88153 18.4084 8.3554 18.8822 L 17.1697 27.6947 C 17.6435 28.1684 18.4089 28.1684 18.8828 27.6947 L 22.5785 23.9997 C 23.0029 23.5754 23.0029 22.8875 22.5785 22.4632 C 22.1541 22.0389 21.4661 22.0389 21.0417 22.4632 L 18.24 25.2643 C 18.122 25.3822 17.943 25.3822 17.8251 25.2643 L 10.7863 18.2269 C 10.6683 18.109 10.6683 17.93 10.7863 17.8121 L 17.8251 10.7747 C 17.943 10.6568 18.122 10.6568 18.24 10.7747 L 21.0417 13.5758 C 21.4661 14.0001 22.1541 14.0001 22.5785 13.5758 C 23.0029 13.1515 23.0029 12.4636 22.5785 12.0393 L 18.8832 8.34474 C 18.4074 7.88121 17.6417 7.88497 17.1697 8.35692 Z" strokeLinecap="round" />
</g>
		<g transform="matrix(1 0 0 1 -2.55 0.02)"  >
<linearGradient id="SVGID_paint1_linear_4_2_4" gradientUnits="userSpaceOnUse" gradientTransform="matrix(1 0 0 1 0 0)"  x1="1045.47" y1="7.99999" x2="631.276" y2="2147.36">
<stop offset="0%" style="stop-color:rgb(41,205,255);stop-opacity: 1"/>
<stop offset="37.8601%" style="stop-color:rgb(20,142,255);stop-opacity: 1"/>
<stop offset="100%" style="stop-color:rgb(10,96,255);stop-opacity: 1"/>
</linearGradient>
<path style="stroke: none; strokeWidth: 1; stroke-dasharray: none; strokeLinecap: butt; stroke-dashoffset: 0; strokeLinejoin: miter; strokeMiterlimit: 4; fill: url(#SVGID_paint1_linear_4_2_4); fill-rule: nonzero; opacity: 1;" vector-effect="non-scaling-stroke"  transform=" translate(-15.45, -18.02)" d="M 17.1697 8.35692 L 8.3554 17.1694 C 7.88153 17.6432 7.88153 18.4084 8.3554 18.8822 L 17.1697 27.6947 C 17.6435 28.1684 18.4089 28.1684 18.8828 27.6947 L 22.5785 23.9997 C 23.0029 23.5754 23.0029 22.8875 22.5785 22.4632 C 22.1541 22.0389 21.4661 22.0389 21.0417 22.4632 L 18.24 25.2643 C 18.122 25.3822 17.943 25.3822 17.8251 25.2643 L 10.7863 18.2269 C 10.6683 18.109 10.6683 17.93 10.7863 17.8121 L 17.8251 10.7747 C 18.1188 10.5214 18.5979 10.0082 19.3016 9.88822 C 19.8246 9.79903 20.3963 9.99533 21.0168 10.4771 C 20.6019 10.0624 19.8907 9.35157 18.8832 8.34474 C 18.4074 7.88121 17.6417 7.88497 17.1697 8.35692 Z" strokeLinecap="round" />
</g>
		<g transform="matrix(1 0 0 1 7.57 0.06)"  >
<linearGradient id="SVGID_paint2_linear_4_2_5" gradientUnits="userSpaceOnUse" gradientTransform="matrix(1 0 0 1 0 0)"  x1="368.883" y1="-87.2275" x2="-169.882" y2="754.836">
<stop offset="0%" style="stop-color:rgb(250,129,110);stop-opacity: 1"/>
<stop offset="41.4726%" style="stop-color:rgb(247,74,92);stop-opacity: 1"/>
<stop offset="100%" style="stop-color:rgb(245,29,44);stop-opacity: 1"/>
</linearGradient>
<path style="stroke: none; strokeWidth: 1; stroke-dasharray: none; strokeLinecap: butt; stroke-dashoffset: 0; strokeLinejoin: miter; strokeMiterlimit: 4; fill: url(#SVGID_paint2_linear_4_2_5); fill-rule: nonzero; opacity: 1;" vector-effect="non-scaling-stroke"  transform=" translate(-25.57, -18.06)" d="M 23.4316 21.6436 C 23.856 22.0679 24.5441 22.0679 24.9685 21.6436 L 27.6946 18.9181 C 28.1685 18.4443 28.1685 17.6791 27.6946 17.2053 L 24.9447 14.4657 C 24.5194 14.042 23.8311 14.0426 23.4064 14.4671 C 22.9821 14.8914 22.9821 15.5793 23.4064 16.0036 L 25.2637 17.8606 C 25.3817 17.9785 25.3817 18.1574 25.2637 18.2754 L 23.4316 20.1071 C 23.0072 20.5314 23.0072 21.2193 23.4316 21.6436 Z" strokeLinecap="round" />
</g>
		<g transform="matrix(1 0 0 1 0.07 0.07)"  >
<linearGradient id="SVGID_paint3_linear_4_2_6" gradientUnits="userSpaceOnUse" gradientTransform="matrix(1 0 0 1 0 0)"  x1="339.96" y1="-154.152" x2="160.645" y2="562.69">
<stop offset="0%" style="stop-color:rgb(250,142,125);stop-opacity: 1"/>
<stop offset="51.26349999999999%" style="stop-color:rgb(247,74,92);stop-opacity: 1"/>
<stop offset="100%" style="stop-color:rgb(245,29,44);stop-opacity: 1"/>
</linearGradient>
<path style="stroke: none; strokeWidth: 1; stroke-dasharray: none; strokeLinecap: butt; stroke-dashoffset: 0; strokeLinejoin: miter; strokeMiterlimit: 4; fill: url(#SVGID_paint3_linear_4_2_6); fill-rule: nonzero; opacity: 1;" vector-effect="non-scaling-stroke"  transform=" translate(-18.07, -18.07)" d="M 18.0703 20.4492 C 19.3847 20.4492 20.4502 19.384 20.4502 18.0699 C 20.4502 16.7558 19.3847 15.6905 18.0703 15.6905 C 16.756 15.6905 15.6905 16.7558 15.6905 18.0699 C 15.6905 19.384 16.756 20.4492 18.0703 20.4492 Z" strokeLinecap="round" />
</g>
</g>
</g>
<g transform="matrix(30 0 0 30 540 540)"  >
<g style=""   >
		<g transform="matrix(1 0 0 1 0 0)"  >
<circle style="stroke: none; strokeWidth: 1; stroke-dasharray: none; strokeLinecap: butt; stroke-dashoffset: 0; strokeLinejoin: miter; strokeMiterlimit: 4; fill: rgb(226,241,255); fill-rule: nonzero; opacity: 1;" vector-effect="non-scaling-stroke"  cx="0" cy="0" r="18" />
</g>
		<g transform="matrix(1 0 0 1 0.25 0.31)"  >
<path style="stroke: none; strokeWidth: 1; stroke-dasharray: none; strokeLinecap: butt; stroke-dashoffset: 0; strokeLinejoin: miter; strokeMiterlimit: 4; fill: rgb(0,127,255); fill-rule: evenodd; opacity: 1;" vector-effect="non-scaling-stroke"  transform=" translate(-18.25, -18.31)" d="M 25.2781 21.3438 C 25.3647 21.2971 25.4367 21.23 25.4869 21.149 C 25.537 21.0681 25.5636 20.9762 25.5639 20.8825 L 25.5742 17.7931 C 25.5745 17.6995 25.6011 17.6076 25.6513 17.5266 C 25.7014 17.4457 25.7734 17.3785 25.8601 17.3319 L 27.6464 16.3699 C 27.733 16.3232 27.8311 16.2988 27.9309 16.2989 C 28.0308 16.2991 28.1288 16.3239 28.2152 16.3708 C 28.3016 16.4176 28.3734 16.485 28.4233 16.5661 C 28.4731 16.6472 28.4994 16.7391 28.4994 16.8327 L 28.4994 22.4494 C 28.4994 22.5433 28.473 22.6355 28.4228 22.7168 C 28.3726 22.7981 28.3004 22.8655 28.2136 22.9122 L 21.4719 26.5424 C 21.3858 26.5888 21.2883 26.6132 21.189 26.6133 C 21.0897 26.6134 20.9921 26.5892 20.9059 26.543 L 15.6152 23.7061 C 15.528 23.6594 15.4556 23.592 15.4052 23.5106 C 15.3548 23.4292 15.3282 23.3368 15.3282 23.2427 L 15.3282 20.4106 C 15.3282 20.4074 15.3322 20.4053 15.3356 20.4069 C 15.3384 20.4085 15.3424 20.4069 15.3424 20.4031 L 15.3424 20.3999 C 15.3424 20.3978 15.3436 20.3956 15.3458 20.3946 L 19.7032 18.0478 C 19.7072 18.0456 19.7055 18.0397 19.7009 18.0397 L 19.6977 18.0385 L 19.6964 18.0355 L 19.7049 15.2589 C 19.7053 15.165 19.6793 15.0727 19.6295 14.9912 C 19.5797 14.9098 19.5078 14.8421 19.4212 14.795 C 19.3346 14.7479 19.2362 14.723 19.1361 14.7229 C 19.0359 14.7228 18.9375 14.7475 18.8508 14.7945 L 15.6123 16.5439 C 15.5259 16.5905 15.4279 16.6151 15.3282 16.6151 C 15.2284 16.6151 15.1305 16.5905 15.044 16.5439 L 11.7953 14.7902 C 11.7088 14.7435 11.6107 14.7189 11.5108 14.719 C 11.4109 14.719 11.3128 14.7437 11.2263 14.7906 C 11.1399 14.8374 11.068 14.9047 11.0181 14.9858 C 10.9681 15.0669 10.9418 15.1589 10.9418 15.2525 L 10.9418 20.2707 C 10.9418 20.3643 10.9157 20.4562 10.8659 20.5372 C 10.8162 20.6183 10.7446 20.6857 10.6583 20.7327 C 10.5721 20.7797 10.4741 20.8046 10.3744 20.8049 C 10.2746 20.8053 10.1765 20.781 10.0899 20.7346 L 8.287 19.7684 C 8.19968 19.7216 8.12712 19.654 8.07671 19.5724 C 8.0263 19.4908 7.99983 19.3982 8 19.3039 L 8.01595 10.5327 C 8.01616 10.4392 8.04257 10.3474 8.09254 10.2664 C 8.1425 10.1855 8.21426 10.1183 8.30063 10.0715 C 8.38701 10.0248 8.48497 10.0001 8.58471 10 C 8.68446 9.99989 8.78248 10.0243 8.86897 10.0709 L 15.0446 13.3963 C 15.1309 13.4427 15.2287 13.4672 15.3282 13.4672 C 15.4277 13.4672 15.5255 13.4427 15.6118 13.3963 L 21.7857 10.0709 C 21.8723 10.0243 21.9705 9.99982 22.0704 10 C 22.1703 10.0002 22.2683 10.025 22.3548 10.0719 C 22.4412 10.1189 22.5129 10.1863 22.5628 10.2675 C 22.6126 10.3486 22.6388 10.4407 22.6387 10.5343 L 22.6387 19.3077 C 22.6387 19.4015 22.6124 19.4937 22.5623 19.575 C 22.5122 19.6562 22.4402 19.7237 22.3534 19.7705 L 19.1201 21.5162 C 19.0333 21.5631 18.9612 21.6307 18.9111 21.7122 C 18.8611 21.7936 18.8348 21.886 18.8351 21.9799 C 18.8353 22.0739 18.862 22.1662 18.9124 22.2474 C 18.9629 22.3286 19.0353 22.3959 19.1224 22.4424 L 20.9059 23.3943 C 20.9921 23.4403 21.0896 23.4644 21.1888 23.4642 C 21.2879 23.464 21.3854 23.4396 21.4713 23.3932 L 25.2781 21.3438 Z M 25.6522 13.4737 C 25.6523 13.5681 25.6791 13.6608 25.7298 13.7423 C 25.7806 13.8239 25.8535 13.8914 25.9411 13.9379 C 26.0288 13.9844 26.128 14.0083 26.2287 14.0071 C 26.3294 14.0059 26.428 13.9797 26.5143 13.9312 L 28.2227 12.9703 C 28.307 12.9229 28.3768 12.8559 28.4253 12.7757 C 28.4738 12.6955 28.4994 12.6049 28.4994 12.5128 L 28.4994 10.5546 C 28.4993 10.4602 28.4724 10.3676 28.4216 10.2861 C 28.3708 10.2046 28.2979 10.1373 28.2103 10.0908 C 28.1226 10.0444 28.0234 10.0205 27.9228 10.0217 C 27.8221 10.0229 27.7236 10.0491 27.6373 10.0976 L 25.929 11.0585 C 25.8446 11.1059 25.7748 11.173 25.7263 11.2531 C 25.6778 11.3333 25.6523 11.4239 25.6522 11.5161 L 25.6522 13.4737 Z" strokeLinecap="round" />
</g>
</g>
</g>
</svg>