<svg width="27" height="26" viewBox="0 0 27 26" fill="none" xmlns="http://www.w3.org/2000/svg">
<path fill-rule="evenodd" clip-rule="evenodd" d="M0 3.39145C0 2.59195 0.31607 1.8252 0.87868 1.25988C1.44129 0.69455 2.20435 0.376953 3 0.376953H9C9.79565 0.376953 10.5587 0.69455 11.1213 1.25988C11.6839 1.8252 12 2.59195 12 3.39145V7.91319C12 8.71268 11.6839 9.47943 11.1213 10.0448C10.5587 10.6101 9.79565 10.9277 9 10.9277H3C2.20435 10.9277 1.44129 10.6101 0.87868 10.0448C0.31607 9.47943 0 8.71268 0 7.91319V3.39145ZM3 1.8842H9C9.39782 1.8842 9.77936 2.043 10.0607 2.32566C10.342 2.60833 10.5 2.9917 10.5 3.39145V7.91319C10.5 8.31293 10.342 8.69631 10.0607 8.97897C9.77936 9.26163 9.39782 9.42043 9 9.42043H3C2.60218 9.42043 2.22064 9.26163 1.93934 8.97897C1.65804 8.69631 1.5 8.31293 1.5 7.91319V3.39145C1.5 2.9917 1.65804 2.60833 1.93934 2.32566C2.22064 2.043 2.60218 1.8842 3 1.8842ZM15 3.39145C15 2.59195 15.3161 1.8252 15.8787 1.25988C16.4413 0.69455 17.2044 0.376953 18 0.376953H24C24.7956 0.376953 25.5587 0.69455 26.1213 1.25988C26.6839 1.8252 27 2.59195 27 3.39145V7.91319C27 8.71268 26.6839 9.47943 26.1213 10.0448C25.5587 10.6101 24.7956 10.9277 24 10.9277H18C17.2044 10.9277 16.4413 10.6101 15.8787 10.0448C15.3161 9.47943 15 8.71268 15 7.91319V3.39145ZM18 1.8842H24C24.3978 1.8842 24.7794 2.043 25.0607 2.32566C25.342 2.60833 25.5 2.9917 25.5 3.39145V7.91319C25.5 8.31293 25.342 8.69631 25.0607 8.97897C24.7794 9.26163 24.3978 9.42043 24 9.42043H18C17.6022 9.42043 17.2206 9.26163 16.9393 8.97897C16.658 8.69631 16.5 8.31293 16.5 7.91319V3.39145C16.5 2.9917 16.658 2.60833 16.9393 2.32566C17.2206 2.043 17.6022 1.8842 18 1.8842ZM3 13.9422C2.20435 13.9422 1.44129 14.2598 0.87868 14.8251C0.31607 15.3904 0 16.1572 0 16.9567V21.4784C0 22.2779 0.31607 23.0446 0.87868 23.61C1.44129 24.1753 2.20435 24.4929 3 24.4929H9C9.79565 24.4929 10.5587 24.1753 11.1213 23.61C11.6839 23.0446 12 22.2779 12 21.4784V16.9567C12 16.1572 11.6839 15.3904 11.1213 14.8251C10.5587 14.2598 9.79565 13.9422 9 13.9422H3ZM9 15.4494H3C2.60218 15.4494 2.22064 15.6082 1.93934 15.8909C1.65804 16.1735 1.5 16.5569 1.5 16.9567V21.4784C1.5 21.8781 1.65804 22.2615 1.93934 22.5442C2.22064 22.8269 2.60218 22.9856 3 22.9856H9C9.39782 22.9856 9.77936 22.8269 10.0607 22.5442C10.342 22.2615 10.5 21.8781 10.5 21.4784V16.9567C10.5 16.5569 10.342 16.1735 10.0607 15.8909C9.77936 15.6082 9.39782 15.4494 9 15.4494ZM15 16.9567C15 16.1572 15.3161 15.3904 15.8787 14.8251C16.4413 14.2598 17.2044 13.9422 18 13.9422H24C24.7956 13.9422 25.5587 14.2598 26.1213 14.8251C26.6839 15.3904 27 16.1572 27 16.9567V21.4784C27 22.2779 26.6839 23.0446 26.1213 23.61C25.5587 24.1753 24.7956 24.4929 24 24.4929H18C17.2044 24.4929 16.4413 24.1753 15.8787 23.61C15.3161 23.0446 15 22.2779 15 21.4784V16.9567ZM18 15.4494H24C24.3978 15.4494 24.7794 15.6082 25.0607 15.8909C25.342 16.1735 25.5 16.5569 25.5 16.9567V21.4784C25.5 21.8781 25.342 22.2615 25.0607 22.5442C24.7794 22.8269 24.3978 22.9856 24 22.9856H18C17.6022 22.9856 17.2206 22.8269 16.9393 22.5442C16.658 22.2615 16.5 21.8781 16.5 21.4784V16.9567C16.5 16.5569 16.658 16.1735 16.9393 15.8909C17.2206 15.6082 17.6022 15.4494 18 15.4494Z" fill="#143048"/>
</svg>
