<svg width="36" height="36" viewBox="0 0 36 36" fill="none" xmlns="http://www.w3.org/2000/svg">
<circle cx="18" cy="18" r="18" fill="#E8F7FF"/>
<g clipPath="url(#clip0_1059_1773)">
<path d="M8.6457 12.1508C10.8399 9.95657 14.4103 9.95648 16.6046 12.1508L18 13.5461L19.3952 12.1508C20.4582 11.0878 21.8715 10.5024 23.3747 10.5024C24.8779 10.5025 26.2912 11.0879 27.3541 12.1509C29.5484 14.3451 29.5484 17.9154 27.3557 20.108L20.1135 27.3763L20.1124 22.7311L20.7821 22.5056C22.3661 21.9722 23.465 20.5502 23.5819 18.8829L23.6594 17.777L22.3732 17.6869L22.2957 18.7928C22.2153 19.9392 21.4597 20.9169 20.3706 21.2836L19.3765 21.6185H16.6527L15.6514 21.2647C14.6288 20.9034 13.9118 20.0102 13.7801 18.9337L13.6235 17.6536L12.3437 17.8103L12.5003 19.0904C12.6919 20.656 13.7347 21.9549 15.2219 22.4804L15.8853 22.7148V27.3751L8.6457 20.1097C6.45142 17.9155 6.45142 14.3451 8.6457 12.1508ZM18 20.0447C19.1639 20.0447 20.1074 19.1012 20.1074 17.9373C20.1074 16.7734 19.1639 15.8298 18 15.8298C16.8361 15.8298 15.8926 16.7733 15.8926 17.9373C15.8926 19.1012 16.8361 20.0447 18 20.0447Z" fill="#02457C"/>
<path d="M18 18.7625C17.5443 18.7625 17.1749 18.3931 17.1749 17.9374C17.1749 17.4817 17.5443 17.1123 18 17.1123C18.4557 17.1123 18.8251 17.4817 18.8251 17.9374C18.8251 18.3931 18.4557 18.7625 18 18.7625Z" fill="#02457C"/>
<path d="M18.8231 22.9077L18.8243 28.6699L17.9999 29.4973L17.1746 28.669L17.1746 22.9077H18.8231Z" fill="#02457C"/>
</g>
<defs>
<clipPath id="clip0_1059_1773">
<rect width="22" height="22" fill="white" transform="matrix(-1 0 0 1 29 9)"/>
</clipPath>
</defs>
</svg>
