<svg width="25" height="30" viewBox="0 0 25 30" fill="none" xmlns="http://www.w3.org/2000/svg">
<path d="M1.88938 27.5853L0.962015 2.87522C0.931388 2.05915 1.55713 1.36753 2.37219 1.31659L23.3899 0.00298218C24.2195 -0.0488701 24.9341 0.581648 24.986 1.41128C24.9879 1.44254 24.9889 1.47385 24.9889 1.50517V28.4312C24.9889 29.2625 24.315 29.9363 23.4838 29.9363C23.4612 29.9363 23.4387 29.9358 23.4162 29.9348L3.32591 29.0325C2.54347 28.9974 1.91876 28.368 1.88938 27.5853Z" fill="#979797"/>
<mask id="mask0_3635_16763" style="mask-type:luminance" maskUnits="userSpaceOnUse" x="0" y="0" width="25" height="30">
<path d="M1.88938 27.5853L0.962015 2.87522C0.931388 2.05915 1.55713 1.36753 2.37219 1.31659L23.3899 0.00298218C24.2195 -0.0488701 24.9341 0.581648 24.986 1.41128C24.9879 1.44254 24.9889 1.47385 24.9889 1.50517V28.4312C24.9889 29.2625 24.315 29.9363 23.4838 29.9363C23.4612 29.9363 23.4387 29.9358 23.4162 29.9348L3.32591 29.0325C2.54347 28.9974 1.91876 28.368 1.88938 27.5853Z" fill="white"/>
</mask>
<g mask="url(#mask0_3635_16763)">
<path d="M18.7034 3.67965L18.847 0.226785L21.7333 0L21.8577 3.56082C21.862 3.68475 21.765 3.78872 21.6411 3.79304C21.5881 3.7949 21.5361 3.77789 21.4943 3.74503L20.3813 2.86819L19.0634 3.86786C18.9646 3.9428 18.8238 3.92346 18.7488 3.82467C18.7173 3.78308 18.7012 3.73181 18.7034 3.67965ZM15.012 11.2834C15.012 11.869 18.9564 11.5883 19.4859 11.177C19.4859 7.18935 17.3462 5.0939 13.4281 5.0939C9.50998 5.0939 7.31472 7.22196 7.31472 10.414C7.31472 15.9736 14.8175 16.08 14.8175 19.1125C14.8175 19.9637 14.4007 20.4691 13.4837 20.4691C12.2888 20.4691 11.8164 19.8589 11.872 17.784C11.872 17.3339 7.31472 17.1936 7.17578 17.784C6.82198 22.8121 9.95459 24.2624 13.5393 24.2624C17.0128 24.2624 19.736 22.411 19.736 19.0593C19.736 13.1007 12.1221 13.2603 12.1221 10.3076C12.1221 9.11061 13.0113 8.951 13.5393 8.951C14.095 8.951 15.0954 9.04896 15.012 11.2834Z" fill="white"/>
</g>
</svg>
