<svg width="30" height="30" viewBox="0 0 30 30" fill="none" xmlns="http://www.w3.org/2000/svg">
<path d="M24.4297 23.5384H19.6836C19.1982 23.5384 18.8047 23.1449 18.8047 22.6595V17.4707C18.8047 16.9853 19.1982 16.5918 19.6836 16.5918C20.169 16.5918 20.5625 16.9853 20.5625 17.4707V21.7806H24.4297C24.9151 21.7806 25.3086 22.1741 25.3086 22.6595C25.3086 23.1449 24.9151 23.5384 24.4297 23.5384Z" fill="#D8D8D8"/>
<path d="M26.7773 19.4375C25.0004 19.4375 23.5547 20.8832 23.5547 22.6602C23.5547 24.4371 25.0004 25.8828 26.7773 25.8828C28.5543 25.8828 30 24.4371 30 22.6602C30 20.8832 28.5543 19.4375 26.7773 19.4375Z" fill="#F5F5F5"/>
<path d="M14.9961 25.2962C14.5107 25.2962 14.1172 24.9027 14.1172 24.4173V17.4707C14.1172 16.9853 14.5107 16.5918 14.9961 16.5918C15.4815 16.5918 15.875 16.9853 15.875 17.4707V24.4173C15.875 24.9027 15.4815 25.2962 14.9961 25.2962Z" fill="#D8D8D8"/>
<path d="M15 16.5918V25.2962C15.4854 25.2962 15.8789 24.9027 15.8789 24.4173V17.4707C15.8789 16.9853 15.4854 16.5918 15 16.5918Z" fill="#D8D8D8"/>
<path d="M10.3125 23.5384H5.56641C5.08102 23.5384 4.6875 23.1449 4.6875 22.6595C4.6875 22.1741 5.08102 21.7806 5.56641 21.7806H9.43359V17.4707C9.43359 16.9853 9.82711 16.5918 10.3125 16.5918C10.7979 16.5918 11.1914 16.9853 11.1914 17.4707V22.6595C11.1914 23.1449 10.7979 23.5384 10.3125 23.5384Z" fill="#D8D8D8"/>
<path d="M25.5607 6.10512C24.7733 2.95261 21.9276 0.691483 18.6317 0.691483C17.3541 0.691483 16.1302 1.02095 15.0501 1.65043C13.9061 0.604296 12.4062 0.0166016 10.8302 0.0166016C7.44977 0.0166016 4.68685 2.71138 4.57657 6.0654C1.90113 6.81323 0 9.26285 0 12.093C0 15.5432 2.80687 18.35 6.25704 18.35H23.7429C27.1931 18.35 29.9999 15.5432 29.9999 12.093C29.9999 9.32672 28.1653 6.89661 25.5607 6.10512Z" fill="white"/>
<path d="M25.5606 6.10506C24.7733 2.95254 21.9275 0.691406 18.6317 0.691406C17.3541 0.691406 16.1302 1.02088 15.05 1.65035C15.0335 1.63523 15.0166 1.62053 15 1.60564V18.35H23.7429C27.1931 18.35 30 15.5431 30 12.0929C29.9999 9.32666 28.1653 6.89654 25.5606 6.10506Z" fill="#DADADA"/>
<path d="M15 23.5391C13.223 23.5391 11.7773 24.9847 11.7773 26.7617C11.7773 28.5387 13.223 29.9844 15 29.9844C16.777 29.9844 18.2227 28.5387 18.2227 26.7617C18.2227 24.9847 16.777 23.5391 15 23.5391ZM3.22266 19.4375C1.44568 19.4375 0 20.8832 0 22.6602C0 24.4371 1.44568 25.8828 3.22266 25.8828C4.99963 25.8828 6.44531 24.4371 6.44531 22.6602C6.44531 20.8832 4.99963 19.4375 3.22266 19.4375Z" fill="#606060"/>
<path d="M15 23.5391V29.9844C16.777 29.9844 18.2227 28.5387 18.2227 26.7617C18.2227 24.9847 16.777 23.5391 15 23.5391Z" fill="#F5F5F5"/>
<path d="M12.575 9.28203L11.6094 12.5398H11.0047L10.3203 10.0742L9.59375 12.5398L8.99375 12.5445L8.07031 9.28203H8.6375L9.3125 11.9352L10.0438 9.28203H10.6438L11.3234 11.9211L12.0031 9.28203H12.575Z" fill="#606060"/>
<path d="M13.5501 9.71328V10.6695H14.6751V11.1055H13.5501V12.1039H14.8157V12.5398H13.0157V9.27734H14.8157V9.71328H13.5501Z" fill="#606060"/>
<path d="M17.2177 10.8664C17.3927 10.8977 17.5411 10.9898 17.663 11.143C17.7849 11.2961 17.8458 11.4695 17.8458 11.6633C17.8458 11.8289 17.8021 11.9789 17.7146 12.1133C17.6302 12.2445 17.5067 12.3492 17.3442 12.4273C17.1817 12.5023 16.9927 12.5398 16.7771 12.5398H15.4739V9.28203H16.7161C16.938 9.28203 17.1286 9.31953 17.288 9.39453C17.4474 9.46953 17.5677 9.57109 17.6489 9.69922C17.7302 9.82422 17.7708 9.96484 17.7708 10.1211C17.7708 10.3086 17.7208 10.4648 17.6208 10.5898C17.5208 10.7148 17.3864 10.807 17.2177 10.8664ZM16.0083 10.6508H16.6692C16.8442 10.6508 16.9802 10.6117 17.0771 10.5336C17.1771 10.4523 17.2271 10.3367 17.2271 10.1867C17.2271 10.0398 17.1771 9.92578 17.0771 9.84453C16.9802 9.76016 16.8442 9.71797 16.6692 9.71797H16.0083V10.6508ZM16.7302 12.1039C16.9114 12.1039 17.0536 12.0602 17.1567 11.9727C17.2599 11.8852 17.3114 11.7633 17.3114 11.607C17.3114 11.4477 17.2567 11.3211 17.1474 11.2273C17.038 11.1336 16.8927 11.0867 16.7114 11.0867H16.0083V12.1039H16.7302Z" fill="#606060"/>
<path d="M19.5645 9.96641C19.5832 9.67578 19.6942 9.44922 19.8973 9.28672C20.1035 9.12422 20.366 9.04297 20.6848 9.04297C20.9035 9.04297 21.0926 9.08203 21.252 9.16016C21.4113 9.23828 21.5317 9.34453 21.6129 9.47891C21.6942 9.61328 21.7348 9.76484 21.7348 9.93359C21.7348 10.1273 21.6832 10.293 21.5801 10.4305C21.477 10.568 21.3535 10.6602 21.2098 10.707V10.7258C21.3942 10.782 21.5379 10.8852 21.641 11.0352C21.7442 11.182 21.7957 11.3711 21.7957 11.6023C21.7957 11.7867 21.7535 11.9508 21.6692 12.0945C21.5848 12.2383 21.4598 12.3523 21.2942 12.4367C21.1285 12.518 20.9301 12.5586 20.6988 12.5586C20.3613 12.5586 20.0832 12.4727 19.8645 12.3008C19.6488 12.1258 19.5332 11.8758 19.5176 11.5508H20.0332C20.0457 11.7164 20.1098 11.8523 20.2254 11.9586C20.341 12.0617 20.4973 12.1133 20.6942 12.1133C20.8848 12.1133 21.0317 12.0617 21.1348 11.9586C21.2379 11.8523 21.2895 11.7164 21.2895 11.5508C21.2895 11.332 21.2192 11.1773 21.0785 11.0867C20.941 10.993 20.7285 10.9461 20.441 10.9461H20.3192V10.5055H20.4457C20.6988 10.5023 20.891 10.4602 21.0223 10.3789C21.1567 10.2977 21.2238 10.1695 21.2238 9.99453C21.2238 9.84453 21.1754 9.72578 21.0785 9.63828C20.9817 9.54766 20.8442 9.50234 20.666 9.50234C20.491 9.50234 20.3551 9.54766 20.2582 9.63828C20.1613 9.72578 20.1035 9.83516 20.0848 9.96641H19.5645Z" fill="#606060"/>
</svg>
