<svg width="602" height="133" viewBox="0 0 602 133" fill="none" xmlns="http://www.w3.org/2000/svg">
<path d="M175.1 67C175.1 62.88 176.02 59.2 177.86 55.96C179.74 52.68 182.28 50.14 185.48 48.34C188.72 46.5 192.34 45.58 196.34 45.58C201.02 45.58 205.12 46.78 208.64 49.18C212.16 51.58 214.62 54.9 216.02 59.14H206.36C205.4 57.14 204.04 55.64 202.28 54.64C200.56 53.64 198.56 53.14 196.28 53.14C193.84 53.14 191.66 53.72 189.74 54.88C187.86 56 186.38 57.6 185.3 59.68C184.26 61.76 183.74 64.2 183.74 67C183.74 69.76 184.26 72.2 185.3 74.32C186.38 76.4 187.86 78.02 189.74 79.18C191.66 80.3 193.84 80.86 196.28 80.86C198.56 80.86 200.56 80.36 202.28 79.36C204.04 78.32 205.4 76.8 206.36 74.8H216.02C214.62 79.08 212.16 82.42 208.64 84.82C205.16 87.18 201.06 88.36 196.34 88.36C192.34 88.36 188.72 87.46 185.48 85.66C182.28 83.82 179.74 81.28 177.86 78.04C176.02 74.8 175.1 71.12 175.1 67Z" fill="white"/>
<path d="M242.635 88.42C238.715 88.42 235.115 87.5 231.835 85.66C228.555 83.82 225.955 81.28 224.035 78.04C222.115 74.76 221.155 71.06 221.155 66.94C221.155 62.86 222.115 59.2 224.035 55.96C225.955 52.68 228.555 50.12 231.835 48.28C235.115 46.44 238.715 45.52 242.635 45.52C246.595 45.52 250.195 46.44 253.435 48.28C256.715 50.12 259.295 52.68 261.175 55.96C263.095 59.2 264.055 62.86 264.055 66.94C264.055 71.06 263.095 74.76 261.175 78.04C259.295 81.28 256.715 83.82 253.435 85.66C250.155 87.5 246.555 88.42 242.635 88.42ZM242.635 80.92C245.155 80.92 247.375 80.36 249.295 79.24C251.215 78.08 252.715 76.44 253.795 74.32C254.875 72.2 255.415 69.74 255.415 66.94C255.415 64.14 254.875 61.7 253.795 59.62C252.715 57.5 251.215 55.88 249.295 54.76C247.375 53.64 245.155 53.08 242.635 53.08C240.115 53.08 237.875 53.64 235.915 54.76C233.995 55.88 232.495 57.5 231.415 59.62C230.335 61.7 229.795 64.14 229.795 66.94C229.795 69.74 230.335 72.2 231.415 74.32C232.495 76.44 233.995 78.08 235.915 79.24C237.875 80.36 240.115 80.92 242.635 80.92Z" fill="white"/>
<path d="M284.944 46.12C289.344 46.12 293.204 46.98 296.524 48.7C299.884 50.42 302.464 52.88 304.264 56.08C306.104 59.24 307.024 62.92 307.024 67.12C307.024 71.32 306.104 75 304.264 78.16C302.464 81.28 299.884 83.7 296.524 85.42C293.204 87.14 289.344 88 284.944 88H270.304V46.12H284.944ZM284.644 80.86C289.044 80.86 292.444 79.66 294.844 77.26C297.244 74.86 298.444 71.48 298.444 67.12C298.444 62.76 297.244 59.36 294.844 56.92C292.444 54.44 289.044 53.2 284.644 53.2H278.704V80.86H284.644Z" fill="white"/>
<path d="M321.712 52.9V63.4H335.812V70.06H321.712V81.16H337.612V88H313.312V46.06H337.612V52.9H321.712Z" fill="white"/>
<path d="M401.226 46.12L389.526 88H379.626L371.766 58.18L363.546 88L353.706 88.06L342.426 46.12H351.426L358.806 78.64L367.326 46.12H376.686L384.726 78.46L392.166 46.12H401.226Z" fill="white"/>
<path d="M415.11 46.12V88H406.71V46.12H415.11Z" fill="white"/>
<path d="M459.23 88H450.83L431.81 59.26V88H423.41V46.06H431.81L450.83 74.86V46.06H459.23V88Z" fill="white"/>
<path d="M496.691 58.72C495.731 56.96 494.411 55.62 492.731 54.7C491.051 53.78 489.091 53.32 486.851 53.32C484.371 53.32 482.171 53.88 480.251 55C478.331 56.12 476.831 57.72 475.751 59.8C474.671 61.88 474.131 64.28 474.131 67C474.131 69.8 474.671 72.24 475.751 74.32C476.871 76.4 478.411 78 480.371 79.12C482.331 80.24 484.611 80.8 487.211 80.8C490.411 80.8 493.031 79.96 495.071 78.28C497.111 76.56 498.451 74.18 499.091 71.14H484.691V64.72H507.371V72.04C506.811 74.96 505.611 77.66 503.771 80.14C501.931 82.62 499.551 84.62 496.631 86.14C493.751 87.62 490.511 88.36 486.911 88.36C482.871 88.36 479.211 87.46 475.931 85.66C472.691 83.82 470.131 81.28 468.251 78.04C466.411 74.8 465.491 71.12 465.491 67C465.491 62.88 466.411 59.2 468.251 55.96C470.131 52.68 472.691 50.14 475.931 48.34C479.211 46.5 482.851 45.58 486.851 45.58C491.571 45.58 495.671 46.74 499.151 49.06C502.631 51.34 505.031 54.56 506.351 58.72H496.691Z" fill="white"/>
<path d="M521.985 81.34H535.785V88H513.585V46.12H521.985V81.34Z" fill="white"/>
<path d="M549.524 52.9V63.4H563.624V70.06H549.524V81.16H565.424V88H541.124V46.06H565.424V52.9H549.524Z" fill="white"/>
<path d="M601.558 46.12V52.9H590.398V88H581.998V52.9H570.838V46.12H601.558Z" fill="white"/>
<path d="M23.604 66.5727L66.3289 23.8758C69.4385 20.7677 71.1853 16.5526 71.1853 12.1576C71.1853 7.7625 69.4385 3.5474 66.3289 0.439331L0.16748 66.5573L0.213568 66.6034L0.16748 66.6494L66.2905 132.706C69.4001 129.598 71.1469 125.383 71.1469 120.988C71.1469 116.593 69.4001 112.378 66.2905 109.27L23.604 66.5727Z" fill="white"/>
<path d="M157.256 66.8183L91.0947 0.669678C89.5532 2.20761 88.3302 4.03421 87.4958 6.04495C86.6614 8.05569 86.2319 10.2111 86.2319 12.3879C86.2319 14.5647 86.6614 16.7201 87.4958 18.7309C88.3302 20.7416 89.5532 22.5682 91.0947 24.1061L133.812 66.803L91.0947 109.5C89.5532 111.038 88.3302 112.864 87.4958 114.875C86.6614 116.886 86.2319 119.041 86.2319 121.218C86.2319 123.395 86.6614 125.55 87.4958 127.561C88.3302 129.572 89.5532 131.398 91.0947 132.936L157.256 66.8183Z" fill="white"/>
<path d="M111.143 81.0505H56.266C56.266 81.0505 51.5342 78.617 55.4287 74.3642C55.4287 74.3642 56.0433 73.5965 58.0558 73.0285C59.1284 72.7475 60.2351 72.6183 61.3436 72.6447C62.926 72.6447 66.2137 72.0305 63.9784 66.0582C62.8472 62.9429 61.3952 59.9535 59.6459 57.1381C59.6459 57.1381 53.2088 47.2507 51.5342 45.8996C51.5342 45.8996 56.0202 45.7384 62.9951 51.4651C66.0606 54.0505 68.9168 56.874 71.537 59.9093C71.537 59.9093 80.4016 69.6355 85.433 72.8212C85.433 72.8289 93.2682 79.5075 111.143 81.0505Z" fill="white"/>
</svg>
