<svg width="134" height="102" viewBox="0 0 134 102" fill="none" xmlns="http://www.w3.org/2000/svg">
<path d="M63.2362 88.4568C57.5132 89.378 52.2196 85.7853 51.0435 80.2271L42.846 41.0841C41.6699 35.526 45.3886 30.0995 51.098 29.1039L112.405 17.7038C118.177 16.6215 123.713 20.2518 124.826 25.8967L133.024 65.0396C133.591 67.7071 133.077 70.472 131.448 72.7267C129.895 74.9691 127.505 76.5032 124.772 77.0198L63.5414 88.4077C63.4651 88.42 63.3888 88.4323 63.2362 88.4568ZM112.866 18.9324C112.789 18.9446 112.713 18.9569 112.637 18.9692L51.33 30.3694C46.321 31.3288 43.09 35.9871 44.1433 40.8754L52.3407 80.0183C53.2904 84.77 58.1206 87.9774 63.0042 87.1914C63.0805 87.1791 63.1568 87.1668 63.2331 87.1545L124.54 75.7544C126.968 75.2869 129.08 73.9508 130.445 71.9685C131.81 69.9863 132.24 67.6181 131.803 65.2361L123.605 26.0932C122.489 21.2916 117.826 18.134 112.866 18.9324Z" fill="#143048"/>
<path d="M77.8568 5.35733L67.2634 26.719L68.4743 27.2778L79.0678 5.91612L77.8568 5.35733Z" fill="#143048"/>
<path d="M80.2026 4.90401L79.3952 5.89355L102.084 23.1079L102.891 22.1183L80.2026 4.90401Z" fill="#143048"/>
<path d="M108.443 18.3039L51.1833 33.6413C46.169 35.0269 43.287 40.0616 44.7622 44.8831L55.5728 81.3891C56.9846 86.2968 62.1972 89.1646 67.2115 87.7789L124.471 72.4416C129.486 71.0559 132.368 66.0212 130.892 61.1997L120.082 24.6938C118.683 19.8605 113.47 16.9927 108.443 18.3039Z" fill="#0278BE"/>
<path d="M103.045 73.32L106.941 76.9278L92.8982 94.6271L90.0545 79.0192L103.045 73.32Z" fill="#0278BE"/>
<path d="M82.4422 5.69664C82.4422 7.27108 81.1198 8.54562 79.4862 8.54562C77.8526 8.54562 76.4524 7.27108 76.4524 5.69664C76.4524 4.1222 77.7748 2.84766 79.4862 2.84766C81.1198 2.84766 82.4422 4.1222 82.4422 5.69664Z" fill="#143048"/>
<path d="M79.4856 4.12231C80.419 4.12231 81.1191 4.87203 81.1191 5.69674C81.1191 6.59642 80.3412 7.27121 79.4856 7.27121C78.5521 7.27121 77.852 6.52145 77.852 5.69674C77.7742 4.87203 78.5521 4.12231 79.4856 4.12231Z" fill="#0278BE"/>
<path d="M52.9601 55.9247C52.2509 53.3071 53.5467 51.2527 56.0254 50.5811C56.9288 50.3363 57.8865 50.3379 58.6093 50.5275L58.634 52.0873C57.9427 52.0136 57.2101 52.0629 56.6426 52.2166C55.2642 52.5901 54.3995 53.6201 54.8765 55.3806C55.3724 57.2106 56.6262 57.6168 58.0045 57.2434C58.5721 57.0896 59.2419 56.8087 59.7889 56.3497L60.5549 57.7086C60.0478 58.2687 59.2008 58.722 58.2974 58.9668C55.8188 59.6384 53.6694 58.5423 52.9601 55.9247Z" fill="white"/>
<path d="M66.7239 54.8063L67.0674 56.4414L61.9596 57.8253L59.7629 49.7177L61.6855 49.1967L63.4461 55.6944L66.7239 54.8063Z" fill="white"/>
<path d="M70.3182 55.5606L68.3955 56.0816L66.1988 47.9739L68.1215 47.4529L70.3182 55.5606Z" fill="white"/>
<path d="M70.6843 51.1224C69.9751 48.5048 71.271 46.4504 73.7496 45.7788C74.653 45.5341 75.6108 45.5356 76.3335 45.7252L76.3583 47.285C75.6669 47.2113 74.9343 47.2606 74.3668 47.4143C72.9885 47.7878 72.1237 48.8178 72.6007 50.5783C73.0966 52.4083 74.3504 52.8145 75.7288 52.4411C76.2963 52.2873 76.9661 52.0064 77.5131 51.5474L78.2792 52.9063C77.772 53.4664 76.9251 53.9197 76.0216 54.1645C73.543 54.8361 71.3936 53.74 70.6843 51.1224Z" fill="white"/>
<path d="M79.4098 44.3944L80.4422 48.205L82.1085 43.6632L84.1701 43.1046L82.4535 47.5979L86.4711 51.1841L84.143 51.8148L80.4987 48.4135L81.6065 52.5021L79.6838 53.023L77.4871 44.9154L79.4098 44.3944Z" fill="white"/>
<path d="M95.2739 48.799L94.3889 45.5327L91.3312 46.3612L92.2162 49.6275L90.2935 50.1484L88.0967 42.0407L90.0194 41.5198L90.9044 44.786L93.9621 43.9575L93.0772 40.6913L94.9998 40.1704L97.1966 48.278L95.2739 48.799Z" fill="white"/>
<path d="M99.0481 47.7764L96.8514 39.6687L101.832 38.3193L102.153 39.8733L99.1883 40.6766L99.6716 42.4603L102.498 41.6946L102.89 43.1424L100.064 43.9081L100.557 45.7266L103.765 44.8573L104.086 46.4113L99.0481 47.7764Z" fill="white"/>
<path d="M106.821 42.4999L107.622 45.4534L105.699 45.9744L103.502 37.8667C104.132 37.6215 105.179 37.2632 105.804 37.0938C108.225 36.4379 109.639 37.1612 110.041 38.6437C110.32 39.6746 110.043 40.6697 109.233 41.3988L111.919 44.2891L109.822 44.8572L107.563 42.2991L106.821 42.4999ZM106.467 41.1911L107.034 41.0373C107.15 41.0059 107.251 40.9661 107.341 40.9294C108.075 40.656 108.342 40.0365 108.144 39.3068C107.928 38.5076 107.311 38.2024 106.465 38.4315L105.77 38.6198L106.467 41.1911Z" fill="white"/>
<path d="M113.243 43.9302L111.047 35.8226L116.027 34.4731L116.349 36.0271L113.384 36.8305L113.867 38.6142L116.693 37.8485L117.085 39.2963L114.259 40.062L114.752 41.8804L117.96 41.0111L118.282 42.5651L113.243 43.9302Z" fill="white"/>
<path d="M63.1934 67.0559L62.8593 65.4556L69.2644 63.7202L69.5985 65.3205L67.4094 65.9136L69.1794 72.4461L67.2451 72.9701L65.4752 66.4377L63.1934 67.0559Z" fill="white"/>
<path d="M76.1738 70.7002C73.6836 71.3749 71.7617 70.155 71.0619 67.5721C70.3746 65.0356 71.3768 62.9986 73.9596 62.2988C76.4499 61.6241 78.3865 62.8524 79.0831 65.4237C79.7798 67.995 78.7103 70.0129 76.1738 70.7002ZM75.7808 69.0661C77.0085 68.7334 77.5535 67.5787 77.1173 65.9688C76.6748 64.3356 75.6183 63.6024 74.379 63.9382C73.1049 64.2834 72.5799 65.4203 73.0161 67.0302C73.4586 68.6633 74.5067 69.4113 75.7808 69.0661Z" fill="white"/>
<path d="M89.5663 66.9223L88.4365 65.2765L85.5525 66.0579L85.4198 68.0458L83.5434 68.5542L84.363 59.8779L86.2547 58.9675L91.5584 66.3826L89.5663 66.9223ZM85.6351 64.4814L87.5462 63.9636L85.8327 61.4938L85.6351 64.4814Z" fill="white"/>
<path d="M94.169 62.6665L93.752 62.7795L94.5115 65.5824L92.5888 66.1034L90.3921 57.9957C91.0219 57.7505 92.0686 57.3923 92.6825 57.2259C95.1379 56.5606 96.4732 57.4048 96.8874 58.9337C97.3393 60.6016 96.4739 62.042 94.169 62.6665ZM93.3723 61.378L93.824 61.2556C94.797 60.992 95.1854 60.3149 94.9594 59.481C94.7304 58.6354 94.073 58.366 93.2738 58.5825L92.66 58.7488L93.3723 61.378Z" fill="white"/>
<path d="M101.34 60.7235L100.923 60.8365L101.683 63.6395L99.7599 64.1604L97.5632 56.0527C98.193 55.8075 99.2397 55.4493 99.8536 55.283C102.309 54.6177 103.644 55.4619 104.059 56.9907C104.51 58.6586 103.645 60.099 101.34 60.7235ZM100.543 59.4351L100.995 59.3127C101.968 59.0491 102.357 58.3719 102.131 57.538C101.901 56.6925 101.244 56.423 100.445 56.6395L99.8311 56.8058L100.543 59.4351Z" fill="white"/>
<path d="M111.695 59.1984L112.039 60.8335L106.931 62.2174L104.734 54.1097L106.657 53.5888L108.418 60.0865L111.695 59.1984Z" fill="white"/>
<path d="M115.455 56.8495L116.227 59.6987L114.304 60.2197L113.532 57.3704L109.444 52.8338L111.401 52.3034L114.088 55.4295L114.714 51.4059L116.578 50.9007L115.455 56.8495Z" fill="white"/>
</svg>
