<svg width="134" height="102" viewBox="0 0 134 102" fill="none" xmlns="http://www.w3.org/2000/svg">
<path d="M63.2362 88.4568C57.5132 89.378 52.2196 85.7853 51.0435 80.2271L42.846 41.0841C41.6699 35.526 45.3886 30.0995 51.098 29.1039L112.405 17.7038C118.177 16.6215 123.713 20.2518 124.826 25.8967L133.024 65.0396C133.591 67.7071 133.077 70.472 131.448 72.7267C129.895 74.9691 127.505 76.5032 124.772 77.0198L63.5414 88.4077C63.4651 88.42 63.3888 88.4323 63.2362 88.4568ZM112.866 18.9324C112.789 18.9446 112.713 18.9569 112.637 18.9692L51.33 30.3694C46.321 31.3288 43.09 35.9871 44.1433 40.8754L52.3407 80.0183C53.2904 84.77 58.1206 87.9774 63.0042 87.1914C63.0805 87.1791 63.1568 87.1668 63.2331 87.1545L124.54 75.7544C126.968 75.2869 129.08 73.9508 130.445 71.9685C131.81 69.9863 132.24 67.6181 131.803 65.2361L123.605 26.0932C122.489 21.2916 117.826 18.134 112.866 18.9324Z" fill="#143048"/>
<path d="M108.443 18.3039L51.1833 33.6413C46.169 35.0269 43.287 40.0616 44.7622 44.8831L55.5728 81.3891C56.9846 86.2968 62.1972 89.1646 67.2115 87.7789L124.471 72.4416C129.486 71.0559 132.368 66.0212 130.892 61.1997L120.082 24.6938C118.683 19.8605 113.47 16.9927 108.443 18.3039Z" fill="#0278BE"/>
<path d="M103.045 73.32L106.941 76.9278L92.8982 94.6271L90.0545 79.0192L103.045 73.32Z" fill="#0278BE"/>
</svg>
