<svg xmlns="http://www.w3.org/2000/svg" width="99" height="100" viewBox="0 0 99 100" fill="none">
  <path d="M26.2362 91.4568C20.5132 92.378 15.2196 88.7853 14.0435 83.2271L5.84605 44.0841C4.66993 38.526 8.38862 33.0995 14.098 32.1039L75.4047 20.7038C81.1767 19.6215 86.7129 23.2518 87.8263 28.8967L96.0237 68.0396C96.5913 70.7071 96.077 73.472 94.4478 75.7267C92.8949 77.9691 90.5052 79.5032 87.7718 80.0198L26.5414 91.4077C26.4651 91.42 26.3888 91.4323 26.2362 91.4568ZM75.8656 21.9324C75.7893 21.9446 75.713 21.9569 75.6367 21.9692L14.33 33.3694C9.32102 34.3288 6.08998 38.9871 7.14327 43.8754L15.3407 83.0183C16.2904 87.77 21.1206 90.9774 26.0042 90.1914C26.0805 90.1791 26.1568 90.1668 26.2331 90.1545L87.5398 78.7544C89.968 78.2869 92.0798 76.9508 93.4447 74.9685C94.8096 72.9863 95.2395 70.6181 94.8028 68.2361L86.6054 29.0932C85.4895 24.2916 80.8255 21.134 75.8656 21.9324Z" fill="#143048"/>
  <path d="M71.4431 21.3039L14.1833 36.6413C9.16898 38.0269 6.287 43.0616 7.76217 47.8831L18.5728 84.3891C19.9846 89.2968 25.1972 92.1646 30.2115 90.7789L87.4712 75.4416C92.4856 74.0559 95.3676 69.0212 93.8924 64.1997L83.0818 27.6938C81.683 22.8605 76.4705 19.9927 71.4431 21.3039Z" fill="#0278BE"/>
  <path d="M66.045 76.32L69.9414 79.9278L55.8982 97.6271L53.0545 82.0192L66.045 76.32Z" fill="#0278BE"/>
</svg>
