<svg xmlns="http://www.w3.org/2000/svg" width="99" height="100" viewBox="0 0 99 100" fill="none">
  <path d="M26.2362 91.4568C20.5132 92.378 15.2196 88.7853 14.0435 83.2271L5.84605 44.0841C4.66993 38.526 8.38862 33.0995 14.098 32.1039L75.4047 20.7038C81.1767 19.6215 86.7129 23.2518 87.8263 28.8967L96.0237 68.0396C96.5913 70.7071 96.077 73.472 94.4478 75.7267C92.8949 77.9691 90.5052 79.5032 87.7718 80.0198L26.5414 91.4077C26.4651 91.42 26.3888 91.4323 26.2362 91.4568ZM75.8656 21.9324C75.7893 21.9446 75.713 21.9569 75.6367 21.9692L14.33 33.3694C9.32102 34.3288 6.08998 38.9871 7.14327 43.8754L15.3407 83.0183C16.2904 87.77 21.1206 90.9774 26.0042 90.1914C26.0805 90.1791 26.1568 90.1668 26.2331 90.1545L87.5398 78.7544C89.968 78.2869 92.0798 76.9508 93.4447 74.9685C94.8096 72.9863 95.2395 70.6181 94.8028 68.2361L86.6054 29.0932C85.4895 24.2916 80.8255 21.134 75.8656 21.9324Z" fill="#143048"/>
  <path d="M40.8568 8.35733L30.2634 29.719L31.4743 30.2778L42.0678 8.91612L40.8568 8.35733Z" fill="#143048"/>
  <path d="M43.2026 7.90401L42.3952 8.89355L65.0841 26.1079L65.8915 25.1183L43.2026 7.90401Z" fill="#143048"/>
  <path d="M71.4431 21.3039L14.1833 36.6413C9.16898 38.0269 6.287 43.0616 7.76217 47.8831L18.5728 84.3891C19.9846 89.2968 25.1972 92.1646 30.2115 90.7789L87.4712 75.4416C92.4856 74.0559 95.3676 69.0212 93.8924 64.1997L83.0818 27.6938C81.683 22.8605 76.4705 19.9927 71.4431 21.3039Z" fill="#0278BE"/>
  <path d="M66.045 76.32L69.9414 79.9278L55.8982 97.6271L53.0545 82.0192L66.045 76.32Z" fill="#0278BE"/>
  <path d="M45.4422 8.69664C45.4422 10.2711 44.1198 11.5456 42.4862 11.5456C40.8526 11.5456 39.4524 10.2711 39.4524 8.69664C39.4524 7.1222 40.7748 5.84766 42.4862 5.84766C44.1198 5.84766 45.4422 7.1222 45.4422 8.69664Z" fill="#143048"/>
  <path d="M42.4856 7.12231C43.419 7.12231 44.1191 7.87203 44.1191 8.69674C44.1191 9.59642 43.3412 10.2712 42.4856 10.2712C41.5521 10.2712 40.852 9.52145 40.852 8.69674C40.7742 7.87203 41.5521 7.12231 42.4856 7.12231Z" fill="#0278BE"/>
  <!-- <path d="M15.9601 58.9247C15.2509 56.3071 16.5467 54.2527 19.0254 53.5811C19.9288 53.3363 20.8865 53.3379 21.6093 53.5275L21.634 55.0873C20.9427 55.0136 20.2101 55.0629 19.6426 55.2166C18.2642 55.5901 17.3995 56.6201 17.8765 58.3806C18.3724 60.2106 19.6262 60.6168 21.0045 60.2434C21.5721 60.0896 22.2419 59.8087 22.7889 59.3497L23.5549 60.7086C23.0478 61.2687 22.2008 61.722 21.2974 61.9668C18.8188 62.6384 16.6694 61.5423 15.9601 58.9247Z" fill="white"/> -->
  <!-- <path d="M29.7239 57.8063L30.0674 59.4414L24.9596 60.8253L22.7629 52.7177L24.6855 52.1967L26.4461 58.6944L29.7239 57.8063Z" fill="white"/> -->
  <!-- <path d="M33.3182 58.5606L31.3955 59.0816L29.1988 50.9739L31.1215 50.4529L33.3182 58.5606Z" fill="white"/> -->
  <!-- <path d="M33.6843 54.1224C32.9751 51.5048 34.271 49.4504 36.7496 48.7788C37.653 48.5341 38.6108 48.5356 39.3335 48.7252L39.3583 50.285C38.6669 50.2113 37.9343 50.2606 37.3668 50.4143C35.9885 50.7878 35.1237 51.8178 35.6007 53.5783C36.0966 55.4083 37.3504 55.8145 38.7288 55.4411C39.2963 55.2873 39.9661 55.0064 40.5131 54.5474L41.2792 55.9063C40.772 56.4664 39.9251 56.9197 39.0216 57.1645C36.543 57.8361 34.3936 56.74 33.6843 54.1224Z" fill="white"/> -->
  <!-- <path d="M42.4098 47.3944L43.4422 51.205L45.1085 46.6632L47.1701 46.1046L45.4535 50.5979L49.4711 54.1841L47.143 54.8148L43.4987 51.4135L44.6065 55.5021L42.6838 56.023L40.4871 47.9154L42.4098 47.3944Z" fill="white"/> -->
  <!-- <path d="M58.2739 51.799L57.3889 48.5327L54.3312 49.3612L55.2162 52.6275L53.2935 53.1484L51.0967 45.0407L53.0194 44.5198L53.9044 47.786L56.9621 46.9575L56.0772 43.6913L57.9998 43.1704L60.1966 51.278L58.2739 51.799Z" fill="white"/> -->
  <!-- <path d="M62.0481 50.7764L59.8514 42.6687L64.8318 41.3193L65.1534 42.8733L62.1883 43.6766L62.6716 45.4603L65.4977 44.6946L65.89 46.1424L63.0639 46.9081L63.5566 48.7266L66.7649 47.8573L67.0865 49.4113L62.0481 50.7764Z" fill="white"/> -->
  <!-- <path d="M69.8214 45.4999L70.6216 48.4534L68.699 48.9744L66.5022 40.8667C67.132 40.6215 68.1788 40.2632 68.8042 40.0938C71.2249 39.4379 72.6393 40.1612 73.041 41.6437C73.3203 42.6746 73.0429 43.6697 72.2334 44.3988L74.9187 47.2891L72.8223 47.8572L70.5627 45.2991L69.8214 45.4999ZM69.4668 44.1911L70.0343 44.0373C70.1501 44.0059 70.2512 43.9661 70.3408 43.9294C71.0748 43.656 71.3421 43.0365 71.1444 42.3068C70.9279 41.5076 70.3106 41.2024 69.465 41.4315L68.7701 41.6198L69.4668 44.1911Z" fill="white"/> -->
  <!-- <path d="M76.2433 46.9302L74.0466 38.8226L79.027 37.4731L79.3486 39.0271L76.3835 39.8305L76.8668 41.6142L79.6929 40.8485L80.0852 42.2963L77.2591 43.062L77.7518 44.8804L80.9601 44.0111L81.2817 45.5651L76.2433 46.9302Z" fill="white"/> -->
  <!-- <path d="M26.1934 70.0559L25.8593 68.4556L32.2644 66.7202L32.5985 68.3205L30.4094 68.9136L32.1794 75.4461L30.2451 75.9701L28.4752 69.4377L26.1934 70.0559Z" fill="white"/> -->
  <!-- <path d="M39.1738 73.7002C36.6836 74.3749 34.7617 73.155 34.0619 70.5721C33.3746 68.0356 34.3768 65.9986 36.9596 65.2988C39.4499 64.6241 41.3865 65.8524 42.0831 68.4237C42.7798 70.995 41.7103 73.0129 39.1738 73.7002ZM38.7808 72.0661C40.0085 71.7334 40.5535 70.5787 40.1173 68.9688C39.6748 67.3356 38.6183 66.6024 37.379 66.9382C36.1049 67.2834 35.5799 68.4203 36.0161 70.0302C36.4586 71.6633 37.5067 72.4113 38.7808 72.0661Z" fill="white"/> -->
  <!-- <path d="M52.5663 69.9223L51.4365 68.2765L48.5525 69.0579L48.4198 71.0458L46.5434 71.5542L47.363 62.8779L49.2547 61.9675L54.5584 69.3826L52.5663 69.9223ZM48.6351 67.4814L50.5462 66.9636L48.8327 64.4938L48.6351 67.4814Z" fill="white"/> -->
  <!-- <path d="M57.169 65.6665L56.752 65.7795L57.5115 68.5824L55.5888 69.1034L53.3921 60.9957C54.0219 60.7505 55.0686 60.3923 55.6825 60.2259C58.1379 59.5606 59.4732 60.4048 59.8874 61.9337C60.3393 63.6016 59.4739 65.042 57.169 65.6665ZM56.3723 64.378L56.824 64.2556C57.797 63.992 58.1854 63.3149 57.9594 62.481C57.7304 61.6354 57.073 61.366 56.2738 61.5825L55.66 61.7488L56.3723 64.378Z" fill="white"/> -->
  <!-- <path d="M64.3401 63.7235L63.9232 63.8365L64.6826 66.6395L62.7599 67.1604L60.5632 59.0527C61.193 58.8075 62.2397 58.4493 62.8536 58.283C65.3091 57.6177 66.6443 58.4619 67.0586 59.9907C67.5105 61.6586 66.645 63.099 64.3401 63.7235ZM63.5435 62.4351L63.9952 62.3127C64.9681 62.0491 65.3565 61.3719 65.1306 60.538C64.9015 59.6925 64.2441 59.423 63.445 59.6395L62.8311 59.8058L63.5435 62.4351Z" fill="white"/> -->
  <!-- <path d="M74.6954 62.1984L75.0389 63.8335L69.9311 65.2174L67.7343 57.1097L69.657 56.5888L71.4175 63.0865L74.6954 62.1984Z" fill="white"/> -->
  <!-- <path d="M78.4549 59.8495L79.2269 62.6987L77.3043 63.2197L76.5323 60.3704L72.4436 55.8338L74.401 55.3034L77.088 58.4295L77.7136 54.4059L79.5783 53.9007L78.4549 59.8495Z" fill="white"/> -->
</svg>
