<svg xmlns="http://www.w3.org/2000/svg" width="253" height="57" viewBox="0 0 253 57" fill="none">
  <path d="M79.4351 23.9286C80.1388 22.6243 81.1887 21.539 82.4695 20.7921C83.7741 20.0368 85.2582 19.6466 86.7659 19.6625C88.5118 19.6184 90.2312 20.0957 91.7043 21.0333C93.0872 21.9605 94.1371 23.3056 94.7002 24.8718H92.6755C92.2213 23.7493 91.4343 22.7926 90.4203 22.13C89.3485 21.5011 88.1315 21.1613 86.8887 21.144C85.6458 21.1267 84.4199 21.4325 83.3309 22.0313C82.3121 22.6418 81.4911 23.5328 80.966 24.5976C80.3951 25.8027 80.099 27.1193 80.099 28.4525C80.099 29.7858 80.3951 31.1024 80.966 32.3074C81.5008 33.3637 82.3272 34.2447 83.3474 34.8463C84.4364 35.443 85.661 35.7489 86.9029 35.7345C88.1447 35.7201 89.3619 35.3859 90.4367 34.7641C91.446 34.1129 92.2326 33.1699 92.692 32.0607H94.7167C94.1569 33.6334 93.0993 34.981 91.7043 35.8991C90.2292 36.8311 88.5104 37.3044 86.7659 37.259C85.2584 37.279 83.7737 36.8905 82.4695 36.1349C81.1915 35.3942 80.1418 34.3168 79.4351 33.0203C78.7032 31.6166 78.321 30.0572 78.321 28.4745C78.321 26.8917 78.7032 25.3323 79.4351 23.9286Z" fill="#02457C"/>
  <path d="M102.25 36.168C100.956 35.4257 99.8928 34.3402 99.1777 33.0314C98.439 31.6279 98.053 30.0659 98.053 28.4801C98.053 26.8943 98.439 25.3323 99.1777 23.9288C99.8928 22.62 100.956 21.5344 102.25 20.7922C103.584 20.0548 105.083 19.668 106.607 19.668C108.131 19.668 109.63 20.0548 110.964 20.7922C112.256 21.5333 113.316 22.6194 114.026 23.9288C114.757 25.3346 115.138 26.8957 115.138 28.4801C115.138 30.0644 114.757 31.6255 114.026 33.0314C113.316 34.3408 112.256 35.4269 110.964 36.168C109.629 36.9019 108.131 37.2867 106.607 37.2867C105.084 37.2867 103.585 36.9019 102.25 36.168ZM110.053 34.8958C111.086 34.2911 111.926 33.4048 112.473 32.3405C113.058 31.1395 113.362 29.8213 113.362 28.4856C113.362 27.1498 113.058 25.8316 112.473 24.6307C111.922 23.5716 111.083 22.6897 110.053 22.0863C108.994 21.5036 107.805 21.198 106.596 21.198C105.387 21.198 104.198 21.5036 103.139 22.0863C102.109 22.6897 101.27 23.5716 100.72 24.6307C100.134 25.8316 99.8304 27.1498 99.8304 28.4856C99.8304 29.8213 100.134 31.1395 100.72 32.3405C101.267 33.4048 102.106 34.2911 103.139 34.8958C104.198 35.4785 105.387 35.7841 106.596 35.7841C107.805 35.7841 108.994 35.4785 110.053 34.8958Z" fill="#02457C"/>
  <path d="M129.016 20.9013C130.341 21.5545 131.434 22.5974 132.149 23.8898C132.908 25.3161 133.286 26.9139 133.246 28.5289C133.286 30.1315 132.907 31.7168 132.149 33.1295C131.435 34.416 130.341 35.4503 129.016 36.0906C127.473 36.8151 125.781 37.1663 124.077 37.1161H118.969V19.8649H124.077C125.782 19.8152 127.475 20.1704 129.016 20.9013ZM129.598 33.7985C130.856 32.5373 131.485 30.7808 131.485 28.5289C131.485 26.277 130.856 24.504 129.598 23.2099C128.346 21.9414 126.514 21.3071 124.099 21.3071H120.719V35.6958H124.099C126.514 35.6885 128.346 35.0561 129.598 33.7985Z" fill="#02457C"/>
  <path d="M138.844 21.2742V27.7119H145.385V29.1431H138.844V35.6849H146.126V37.1161H137.116V19.843H146.126V21.2742H138.844Z" fill="#02457C"/>
  <path d="M171.163 19.8651L166.274 37.1162H164.348L160.002 22.4039L155.558 37.1107H153.681L148.891 19.8376H150.767L154.718 34.9666L159.135 19.8376H161.061L165.336 35.016L169.314 19.887L171.163 19.8651Z" fill="#02457C"/>
  <path d="M176.228 19.8652V37.1163H174.499V19.8652H176.228Z" fill="#02457C"/>
  <path d="M193.857 37.1163H192.129L182.592 22.607V37.1163H180.864V19.8652H182.592L192.151 34.3527V19.8652H193.879L193.857 37.1163Z" fill="#02457C"/>
  <path d="M212.053 24.8987C211.588 23.7985 210.8 22.8653 209.792 22.2228C208.724 21.5576 207.484 21.2183 206.226 21.2467C205.015 21.2277 203.821 21.5345 202.769 22.135C201.74 22.7357 200.902 23.6136 200.349 24.6684C199.764 25.8558 199.46 27.1615 199.46 28.4849C199.46 29.8084 199.764 31.1141 200.349 32.3015C200.9 33.3605 201.739 34.2425 202.769 34.8458C203.793 35.4092 204.939 35.7137 206.108 35.7328C207.277 35.752 208.432 35.4851 209.474 34.9555C210.435 34.4384 211.237 33.6709 211.795 32.7347C212.39 31.7082 212.725 30.5527 212.772 29.3678H205.534V27.9585H214.621V29.2197C214.558 30.6701 214.134 32.0819 213.387 33.3269C212.664 34.5355 211.639 35.5353 210.413 36.2276C209.135 36.9426 207.69 37.3077 206.226 37.286C204.706 37.3119 203.206 36.9334 201.88 36.1893C200.586 35.447 199.522 34.3615 198.807 33.0527C198.069 31.6492 197.683 30.0872 197.683 28.5014C197.683 26.9156 198.069 25.3536 198.807 23.9501C199.522 22.6413 200.586 21.5558 201.88 20.8135C203.295 20.0346 204.893 19.6477 206.508 19.693C208.123 19.7383 209.696 20.2142 211.066 21.0712C212.453 21.9975 213.508 23.3423 214.078 24.9097L212.053 24.8987Z" fill="#02457C"/>
  <path d="M220.201 35.7071H226.402V37.1163H218.473V19.8652H220.201V35.7071Z" fill="#02457C"/>
  <path d="M231.291 21.2742V27.7119H237.831V29.1431H231.291V35.6849H238.561V37.1161H229.562V19.843H238.561V21.2742H231.291Z" fill="#02457C"/>
  <path d="M252.773 19.8652V21.3074H247.983V37.1273H246.243V21.3074H241.426V19.8762L252.773 19.8652Z" fill="#02457C"/>
  <path d="M10.0608 28.3896L28.4016 10.0607C29.7365 8.72652 30.4864 6.91707 30.4864 5.03037C30.4864 3.14367 29.7365 1.33422 28.4016 0L0 28.383L0.0197844 28.4027L0 28.4225L28.3852 56.7791C29.72 55.4449 30.4699 53.6354 30.4699 51.7487C30.4699 49.862 29.72 48.0526 28.3852 46.7184L10.0608 28.3896Z" fill="#02457C"/>
  <path d="M67.4344 28.4948L39.0328 0.0986328C38.371 0.758835 37.8461 1.54295 37.4879 2.40612C37.1297 3.26928 36.9453 4.19456 36.9453 5.129C36.9453 6.06345 37.1297 6.98873 37.4879 7.85189C37.8461 8.71506 38.371 9.49917 39.0328 10.1594L57.3704 28.4882L39.0328 46.817C38.371 47.4772 37.8461 48.2613 37.4879 49.1245C37.1297 49.9876 36.9453 50.9129 36.9453 51.8474C36.9453 52.7818 37.1297 53.7071 37.4879 54.5703C37.8461 55.4334 38.371 56.2175 39.0328 56.8777L67.4344 28.4948Z" fill="#02457C"/>
  <path d="M47.6399 34.6046H24.0823C24.0823 34.6046 22.051 33.5599 23.7229 31.7343C23.7229 31.7343 23.9867 31.4048 24.8506 31.1609C25.3111 31.0403 25.7861 30.9848 26.262 30.9961C26.9413 30.9961 28.3526 30.7325 27.393 28.1687C26.9074 26.8314 26.2842 25.5481 25.5332 24.3395C25.5332 24.3395 22.7699 20.0951 22.051 19.5151C22.051 19.5151 23.9768 19.4459 26.9709 21.9042C28.2869 23.0141 29.513 24.2262 30.6378 25.5291C30.6378 25.5291 34.4432 29.7044 36.603 31.0719C36.603 31.0752 39.9665 33.9422 47.6399 34.6046Z" fill="#0278BE"/>
</svg>