<svg id="eo6ID2LwNTj1" xmlns="http://www.w3.org/2000/svg" xmlns:xlink="http://www.w3.org/1999/xlink" viewBox="0 0 400 350" shape-rendering="geometricPrecision" text-rendering="geometricPrecision"><g transform="translate(-50-92)"><ellipse rx="193.89" ry="11.32" transform="translate(250 416.24)" fill="#f5f5f5"/></g><g transform="translate(-50-92)"><polygon points="67.78,359.58 312.67,359.58 330.27,207.23 85.39,207.23 67.78,359.58" fill="#208bc4"/><polygon points="67.78,359.58 312.67,359.58 330.27,207.23 85.39,207.23 67.78,359.58" opacity="0.4" fill="#fff"/><polygon points="360.77,365.29 115.88,365.29 85.39,207.23 330.27,207.23 360.77,365.29" fill="#208bc4"/><polygon points="360.77,365.29 115.88,365.29 85.39,207.23 330.27,207.23 360.77,365.29" opacity="0.6" fill="#fff"/><polygon points="351.39,356.81 121.98,356.81 97.35,229.1 326.76,229.1 351.39,356.81" fill="#fff"/><g opacity="0.5"><polygon points="139.84,260.07 115.85,260.07 111.22,236.07 135.21,236.07 139.84,260.07" fill="#208bc4"/><polygon points="320.21,260.07 296.21,260.07 291.59,236.07 315.58,236.07 320.21,260.07" fill="#208bc4"/><polygon points="290.14,260.07 266.15,260.07 261.52,236.07 285.52,236.07 290.14,260.07" fill="#208bc4"/><polygon points="260.08,260.07 236.09,260.07 231.46,236.07 255.46,236.07 260.08,260.07" fill="#208bc4"/><polygon points="230.02,260.07 206.03,260.07 201.4,236.07 225.39,236.07 230.02,260.07" fill="#208bc4"/><polygon points="199.96,260.07 175.97,260.07 171.34,236.07 195.33,236.07 199.96,260.07" fill="#208bc4"/><polygon points="169.9,260.07 145.91,260.07 141.28,236.07 165.27,236.07 169.9,260.07" fill="#208bc4"/><polygon points="145.61,289.99 121.62,289.99 116.99,266 140.98,266 145.61,289.99" opacity="0.5" fill="#208bc4"/><polygon points="325.98,289.99 301.99,289.99 297.36,266 321.35,266 325.98,289.99" fill="#208bc4"/><polygon points="295.92,289.99 271.93,289.99 267.3,266 291.29,266 295.92,289.99" opacity="0.5" fill="#208bc4"/><polygon points="265.86,289.99 241.86,289.99 237.24,266 261.23,266 265.86,289.99" fill="#208bc4"/><polygon points="235.79,289.99 211.8,289.99 207.17,266 231.17,266 235.79,289.99" fill="#208bc4"/><polygon points="205.73,289.99 181.74,289.99 177.11,266 201.1,266 205.73,289.99" fill="#208bc4"/><polygon points="175.67,289.99 151.68,289.99 147.05,266 171.04,266 175.67,289.99" fill="#208bc4"/><polygon points="151.38,319.91 127.39,319.91 122.76,295.92 146.75,295.92 151.38,319.91" fill="#208bc4"/><polygon points="331.75,319.91 307.76,319.91 303.13,295.92 327.12,295.92 331.75,319.91" fill="#208bc4"/><polygon points="301.69,319.91 277.7,319.91 273.07,295.92 297.06,295.92 301.69,319.91" fill="#208bc4"/><polygon points="271.63,319.91 247.64,319.91 243.01,295.92 267,295.92 271.63,319.91" fill="#208bc4"/><polygon points="241.57,319.91 217.57,319.91 212.95,295.92 236.94,295.92 241.57,319.91" fill="#208bc4"/><polygon points="211.5,319.91 187.51,319.91 182.88,295.92 206.88,295.92 211.5,319.91" fill="#208bc4"/><polygon points="181.44,319.91 157.45,319.91 152.82,295.92 176.81,295.92 181.44,319.91" fill="#208bc4"/><polygon points="157.15,349.84 133.16,349.84 128.53,325.84 152.53,325.84 157.15,349.84" fill="#208bc4"/><polygon points="337.52,349.84 313.53,349.84 308.9,325.84 332.89,325.84 337.52,349.84" fill="#208bc4"/><polygon points="307.46,349.84 283.47,349.84 278.84,325.84 302.83,325.84 307.46,349.84" fill="#208bc4"/><polygon points="277.4,349.84 253.41,349.84 248.78,325.84 272.77,325.84 277.4,349.84" fill="#208bc4"/><polygon points="247.34,349.84 223.35,349.84 218.72,325.84 242.71,325.84 247.34,349.84" fill="#208bc4"/><polygon points="217.28,349.84 193.28,349.84 188.66,325.84 212.65,325.84 217.28,349.84" fill="#208bc4"/><polygon points="187.22,349.84 163.22,349.84 158.6,325.84 182.59,325.84 187.22,349.84" opacity="0.5" fill="#208bc4"/></g><path d="M115.59,218.08l-.31-1.59c2.83,0,4.41-4.24,3.44-9.26s-4.18-9.27-7-9.27-4.41,4.25-3.45,9.27h-1.58c-1.18-6.09.9-10.85,4.72-10.85s7.74,4.76,8.91,10.85-.91,10.85-4.73,10.85Z" fill="#263238"/><path d="M139.27,218.08l-.31-1.59c2.83,0,4.41-4.24,3.44-9.26s-4.18-9.27-7-9.27-4.41,4.25-3.45,9.27h-1.58c-1.18-6.09.9-10.85,4.72-10.85s7.74,4.76,8.91,10.85-.91,10.85-4.73,10.85Z" fill="#263238"/><path d="M163,218.08l-.31-1.59c2.83,0,4.41-4.24,3.44-9.26s-4.18-9.27-7-9.27-4.42,4.25-3.45,9.27h-1.68c-1.18-6.09.9-10.85,4.72-10.85s7.74,4.76,8.91,10.85-.86,10.85-4.63,10.85Z" fill="#263238"/><path d="M186.62,218.08l-.3-1.59c2.83,0,4.41-4.24,3.44-9.26s-4.18-9.27-7-9.27-4.41,4.25-3.44,9.27h-1.59c-1.17-6.09.91-10.85,4.73-10.85s7.73,4.76,8.91,10.85-.92,10.85-4.75,10.85Z" fill="#263238"/><path d="M210.3,218.08l-.3-1.59c2.83,0,4.41-4.24,3.44-9.26s-4.18-9.27-7-9.27-4.41,4.25-3.44,9.27h-1.59c-1.17-6.09.91-10.85,4.73-10.85s7.73,4.76,8.91,10.85-.92,10.85-4.75,10.85Z" fill="#263238"/><path d="M234,218.08l-.3-1.59c2.83,0,4.41-4.24,3.44-9.26s-4.18-9.27-7-9.27-4.41,4.25-3.44,9.27h-1.59c-1.17-6.09.9-10.85,4.73-10.85s7.73,4.76,8.91,10.85-.94,10.85-4.75,10.85Z" fill="#263238"/><path d="M257.66,218.08l-.3-1.59c2.83,0,4.41-4.24,3.44-9.26s-4.18-9.27-7-9.27-4.41,4.25-3.44,9.27h-1.59c-1.17-6.09.9-10.85,4.73-10.85s7.73,4.76,8.91,10.85-.92,10.85-4.75,10.85Z" fill="#263238"/><path d="M281.34,218.08l-.3-1.59c2.83,0,4.41-4.24,3.44-9.26s-4.18-9.27-7-9.27-4.41,4.25-3.44,9.27h-1.59c-1.17-6.09.9-10.85,4.73-10.85s7.73,4.76,8.91,10.85-.93,10.85-4.75,10.85Z" fill="#263238"/><path d="M305,218.08l-.3-1.59c2.83,0,4.41-4.24,3.44-9.26s-4.18-9.27-7-9.27-4.41,4.25-3.44,9.27h-1.59c-1.17-6.09.9-10.85,4.73-10.85s7.73,4.76,8.9,10.85-.9,10.85-4.74,10.85Z" fill="#263238"/><polygon points="202.69,256.69 118.57,256.69 113.94,232.7 198.06,232.7 202.69,256.69" fill="#208bc4"/><polygon points="238.54,286.62 214.54,286.62 209.92,262.62 233.91,262.62 238.54,286.62" fill="#208bc4"/><path d="M313.6,317.34l-1.3-1.13c-2.668088-2.336613-5.637981-4.30421-8.83-5.85l.83-2.45c2.973171,1.43856,5.77147,3.2135,8.34,5.29c4.429121-6.567966,10.228862-12.09819,17-16.21l1.79,2.44c-6.892786,4.188113-12.729925,9.905499-17.06,16.71Z" fill="#208bc4"/><polygon points="229.74,266.59 227.57,266.59 223.94,273.16 217.79,266.59 215.62,266.59 223.14,274.62 218.71,282.64 220.89,282.64 224.51,276.08 230.66,282.64 232.84,282.64 225.31,274.62 229.74,266.59" fill="#fff"/><path d="M274.21,324.06l4,20.81h-20.8l-4-20.81h20.81m1.29-1.59h-24l4.63,24h24l-4.62-24Z" fill="#208bc4"/><polygon points="214.23,316.54 160.18,316.54 155.55,292.55 209.6,292.55 214.23,316.54" fill="#263238"/><path d="M177,302.12c.291954,1.130156.031962,2.331809-.701057,3.240199s-1.852616,1.416392-3.018943,1.369801c-2.671266-.099591-4.935245-1.997217-5.5-4.61-.287466-1.129694-.025746-2.328801.706291-3.235976s1.848782-1.416326,3.013709-1.374024c2.669921.103083,4.932042,1.999152,5.5,4.61Z" fill="#fff"/><path d="M178.11,306.48c-1.033124,1.435572-2.712145,2.263839-4.48,2.21-1.984894-.047757-3.88111-.831906-5.32-2.2-1.826411.987412-2.81094,3.037168-2.44,5.08h16.64c-.609951-2.280872-2.231347-4.156533-4.4-5.09Z" fill="#fff"/><polygon points="205.22,303.05 186.82,303.05 186.31,300.4 204.71,300.4 205.22,303.05" fill="#fff"/><polygon points="200.15,308.68 187.91,308.68 187.4,306.03 199.64,306.03 200.15,308.68" fill="#fff"/><path d="M296.76,234.94c4.74,0,11.45.69,16.52,4c1.861089,1.097324,3.199225,2.900742,3.71,5c.89,3.93-1.2,8.22-3.51,10.55-3.65,3.68-9.33,6-16,6.46-.76.06-1.54.09-2.31.09-4.696661-.041176-9.343835-.963826-13.7-2.72-4.29-1.71-8.84-4-10.12-8.46-.676551-2.080867-.386747-4.355279.79-6.2.755416-1.156418,1.755657-2.132763,2.93-2.86c5.540571-3.426876,11.854473-5.404269,18.36-5.75c1.11-.07,2.23-.11,3.33-.11m-.3-1.54c-1.19,0-2.34,0-3.42.12-6.731476.354065-13.265542,2.39682-19,5.94-1.318304.820642-2.4412,1.919647-3.29,3.22-1.372932,2.18834-1.706148,4.872375-.91,7.33c1.5,5.18,6.63,7.87,11.29,9.72c4.555141,1.84083,9.417088,2.804398,14.33,2.84.81,0,1.61,0,2.41-.08c6.34-.46,12.66-2.62,16.82-6.82s6.81-13.11-.74-18c-5.09-3.29-11.75-4.27-17.5-4.27Z" fill="#263238"/></g><g transform="translate(-50-92)"><polygon points="387.02,409.16 394.18,407.26 390.69,390.42 383.53,392.33 387.02,409.16" fill="#b55b52"/><path d="M394.41,405.94l-7.91,2.6c-.281251.077853-.44665.368419-.37.65l1.68,6.39c.219899.686122.952602,1.065877,1.64.85c2.74-1,4-1.55,7.48-2.69c2.14-.71,7.32-2.3,10.27-3.27s1.92-3.86.58-3.72c-6,.66-9.51.13-12-.77-.438553-.170118-.922269-.184241-1.37-.04Z" fill="#263238"/><polygon points="383.53,392.33 390.69,390.42 392.49,399.1 385.32,401.01 383.53,392.33" opacity="0.2"/><path d="M365.17,220.72c0,0,10,60.35,13,81.4c3.25,23.05,15.42,92.39,15.42,92.39l-12,4.54c0,0-19.15-68.17-24.44-90.58-5.75-24.33-18.41-87.75-18.41-87.75Z" fill="#263238"/><path d="M349.1,245.47c5.12,12.79,5.7,34.53,3.62,43.44-3.14-14.63-6.74-32.13-9.51-45.74.99-3.49,2.79-5.48,5.89,2.3Z" opacity="0.3"/><polygon points="381.05,400.75 394.98,396.57 394.58,390.87 378,395.72 381.05,400.75" fill="#263238"/><path d="M397.31,406.35c-.651895.191088-1.322389.311777-2,.36-.066809.005177-.131405-.025221-.17-.08-.03394-.058786-.03394-.131214,0-.19.17-.23,1.72-2.25,2.69-2.2.222827.01632.42227.144264.53.34.220418.288053.255443.67722.09,1-.276995.383393-.680905.656209-1.14.77Zm-1.59,0c1.35-.17,2.26-.51,2.48-.94.089603-.20762.062993-.447113-.07-.63-.051505-.097754-.149796-.162021-.26-.17-.52-.05-1.5.93-2.15,1.72Z" fill="#208bc4"/><path d="M395.39,406.7c-.025722.010041-.054278.010041-.08,0-.057611-.008844-.106675-.046585-.13-.1c0-.09-.86-2.06-.38-3c.128162-.237744.35531-.406272.62-.46.294595-.085913.609539.042551.76.31.42.71-.15,2.53-.71,3.17-.03.06-.05.08-.08.08Zm0-3.17c-.128881.046296-.235856.139007-.3.26-.168258.805025-.073613,1.642802.27,2.39.487455-.746989.666654-1.65374.5-2.53-.05-.09-.14-.19-.39-.14Z" fill="#208bc4"/><path d="M363.65,158.59c.29.47.69,1.13,1.06,1.7l1.14,1.8c.79,1.19,1.57,2.38,2.4,3.55c1.63,2.33,3.35,4.59,5.13,6.74c1.736423,2.102062,3.614108,4.083321,5.62,5.93c1.813198,1.694415,3.828401,3.158797,6,4.36l-1.58-.45c1.548581.318071,3.135216.409024,4.71.27.86-.08,1.74-.19,2.64-.35s1.81-.38,2.73-.63c1.893462-.515854,3.753602-1.147032,5.57-1.89.93-.38,1.86-.77,2.79-1.19s1.88-.89,2.69-1.27l.27-.13c1.615598-.77295,3.55203-.093186,4.33,1.52.573145,1.22216.339005,2.670654-.59,3.65-.91.94-1.71,1.69-2.61,2.48s-1.8,1.49-2.75,2.19c-1.93395,1.41244-3.980858,2.663328-6.12,3.74-2.257491,1.134252-4.63591,2.009806-7.09,2.61-1.317898.302817-2.654029.519938-4,.65-1.414135.119769-2.835865.119769-4.25,0-.401963-.039631-.79606-.137313-1.17-.29l-.4-.17c-3.304713-1.430546-6.391652-3.319066-9.17-5.61-2.634394-2.124695-5.086289-4.466205-7.33-7-2.191611-2.426705-4.241671-4.977594-6.14-7.64q-1.41-2-2.72-4c-.43-.69-.86-1.37-1.28-2.08s-.8-1.37-1.26-2.23c-1.772834-3.117647-.682647-7.082166,2.435-8.855s7.082166-.682647,8.855,2.435Z" fill="#263238"/><path d="M369.81,176.88c-3.9-8-10.55-7.54-13.23-5.07l.76,1.11c1.815202,2.572973,3.771532,5.043424,5.86,7.4c2.138428,2.422454,4.451272,4.685164,6.92,6.77.78.64,1.59,1.27,2.41,1.87-.111527-4.165353-1.035489-8.268829-2.72-12.08Z" opacity="0.3"/><path d="M406.77,176l5-4.17l3,6.47c0,0-7.45,5.33-9.16,3.45l-.2-2.41c-.114386-1.267893.392462-2.512651,1.36-3.34Z" fill="#b55b52"/><polygon points="418.44,172.62 420.01,177.62 414.73,178.27 411.75,171.8 418.44,172.62" fill="#b55b52"/><polygon points="324.38,408.92 331.79,408.92 332.75,391.75 325.34,391.75 324.38,408.92" fill="#b55b52"/><path d="M332.18,408.06h-8.33c-.140592-.005406-.277563.045312-.380731.140977s-.164064.228424-.169269.369023l-.41,6.59c-.000083.721276.578807,1.309072,1.3,1.32c2.9-.05,4.29-.22,7.95-.22c2.25,0,8.46.23,11.57.23s3-3.08,1.71-3.36c-5.92-1.24-9.87-3-12-4.61-.349208-.289517-.786461-.451724-1.24-.46Z" fill="#263238"/><polygon points="325.34,391.76 332.75,391.76 332.25,400.61 324.84,400.61 325.34,391.76" opacity="0.2"/><path d="M350.69,220.72c0,0-.64,64.41-1.84,85.64-1.32,23.24-13.42,92.11-13.42,92.11h-13.58c0,0,5.92-67,5.1-90-.89-25-1.43-87.75-1.43-87.75Z" fill="#263238"/><polygon points="320.76,398.47 337.32,398.47 338.13,393.32 320.06,394.12 320.76,398.47" fill="#263238"/><path d="M334.8,409.35c-.674004-.015455-1.344448-.102612-2-.26-.068313-.01305-.121788-.066395-.135004-.134677s.016493-.137726.075004-.175323c.24-.17,2.33-1.6,3.24-1.24.207683.079622.359134.261363.4.48.095448.328625.016226.683238-.21.94-.393328.293728-.880946.432539-1.37.39Zm-1.5-.51c1.33.26,2.31.22,2.65-.12.153611-.167262.203485-.405121.13-.62-.016466-.111139-.093652-.203762-.2-.24-.48-.19-1.72.43-2.58.98Z" fill="#208bc4"/><path d="M332.87,409.09c-.025722.010041-.054278.010041-.08,0-.053821-.026164-.088542-.080175-.09-.14c0-.09-.18-2.22.57-2.94.194482-.186339.462887-.274582.73-.24.303602.010467.562169.223887.63.52.17.81-.94,2.36-1.67,2.8-.029293.009212-.060707.009212-.09,0Zm1-3c-.138171-.000141-.270934.053682-.37.15-.411613.710328-.583434,1.534364-.49,2.35.65-.54,1.38-1.72,1.27-2.25c0-.1-.08-.22-.33-.25Z" fill="#208bc4"/><path d="M362.05,160.49c-.761711-2.5479-2.864099-4.469644-5.47-5-1.828355-.432212-3.681983-.7495-5.55-.95-5.612102-.32023-11.237898-.32023-16.85,0-2.94.14-5.94.5-8.33.85h-.09c-1.269546.178635-2.412198.864966-3.166264,1.901808s-1.054948,2.335369-.833736,3.598192c1.883195,9.945787,3.11581,20.003794,3.69,30.11.58,14.67-.21,26.19.07,29.73h39.65c2.41-35.81-.7-52.08-3.12-60.24Z" fill="#e6e6e6"/><path d="M335.3,153.88c3.12,12.66,6,44.74,5.95,69.82h-16.76c-.3-3.74.54-15.88-.07-31.35-.600656-10.635122-1.886659-21.220429-3.85-31.69-.230325-1.325506.083237-2.687903.869838-3.779358s1.97986-1.819864,3.310162-2.020642h.09c2.52-.37,5.68-.75,8.78-.9Z" fill="#263238"/><path d="M364.09,160.67c-.867528-2.811267-3.144202-4.962723-6-5.67-2.650028-.416627-5.320556-.690356-8-.82c3.17,11,9.39,44.51,7.54,69.52h10.58c2.51-37.53-1.76-56.17-4.12-63.03Z" fill="#263238"/><polygon points="425.89,195.34 347,229.1 337.52,207.06 416.42,173.3 425.89,195.34" fill="#208bc4"/><path d="M359.31,208.15c1.001755,2.339513-.081807,5.04822-2.420724,6.051366s-5.048268-.078806-6.052804-2.417126.075805-5.048314,2.413528-6.05424c1.124395-.483829,2.395049-.500612,3.531831-.04665s2.046346,1.341394,2.528169,2.46665Z" fill="#fff"/><path d="M361.3,212.05c-.593654,1.773615-1.916146,3.209495-3.635053,3.946715s-3.670763.705672-5.364947-.086715c-1.445609,1.642519-1.882462,3.941747-1.14,6l15.3-6.54c-.981286-1.96895-2.96142-3.242989-5.16-3.32Z" fill="#fff"/><polygon points="414.67,185.48 368.56,205.21 367.52,202.77 413.63,183.04 414.67,185.48" fill="#fff"/><polygon points="411.24,193.07 370.79,210.38 369.74,207.94 410.19,190.63 411.24,193.07" fill="#fff"/><path d="M329.67,173.5c-.28-8.41-6.49-11.62-8.24-9.36-.077036.091371-.147227.188301-.21.29c1.09,6.48,2.42,15.4,3,24.19c2.95-1.7,5.71-7.13,5.45-15.12Z" opacity="0.3"/><path d="M350.23,154.52c-4.9-1.16-5.76-4.19-5.43-7.52.077727-.834044.207986-1.662356.39-2.48l-6.14-5.1-4.51-3.74c1.25,5.43,2.66,15.32-1,18.94c0,0,3,5,11.43,4.56c7.03-.39,5.26-4.66,5.26-4.66Z" fill="#b55b52"/><path d="M341.6,163.65c.579206-1.666434,1.521993-3.183091,2.76-4.44-3.76373-1.234959-7.187695-3.330425-10-6.12l-2.57,1c0,0,.91,6.53,9.81,9.56Z" fill="#fff"/><path d="M348.46,162.53c-1.112924-1.387727-2.511181-2.519974-4.1-3.32c2.47-.7,3.43-5.71,3.43-5.71l2.41.5c0,0,4.45,6.53-1.74,8.53Z" fill="#fff"/><path d="M345.19,144.52c-.182014.817644-.312273,1.645956-.39,2.48-2.29-.46-5.35-2.9-5.67-5.24-.112505-.774696-.139334-1.559429-.08-2.34Z" opacity="0.2"/><path d="M348.05,117.85c3.09-.56,6.69,2.68,5,9.26s-9.72-8.41-5-9.26Z" fill="#263238"/><path d="M332.68,127.87c1.57,7.21,2.12,11.5,6.38,14.79c2.797424,2.207048,6.587894,2.681126,9.842719,1.231039s5.437318-4.585233,5.667281-8.141039c.56-6.71-2.09-17.37-9.68-19.41-3.318589-.989167-6.912812-.134174-9.430537,2.243334s-3.577051,5.916898-2.779463,9.286666Z" fill="#b55b52"/><path d="M335.58,135.68c1.06-2.5,2-9.46,1.14-12.35c3.45-.11,10.7-.75,13.72-4.11c4.64-5.16-1.48-11.26-9.18-6.4-5,3.13-15.79,2.51-14,6-5.26,5.79.65,12.33,8.32,16.86Z" fill="#263238"/><path d="M327.25,119.08c-.073483-.000618-.142972-.033534-.19-.09-.64-.79-.84-1.45-.62-2c.53-1.32,3.28-1.68,6.45-2.08c3-.38,6.32-.81,7.38-2.16.099201-.090282.250799-.090282.35,0c.048339.045367.075759.108707.075759.175s-.02742.129633-.075759.175c-1.19,1.51-4.5,1.93-7.7,2.34-2.77.36-5.63.72-6,1.78-.15.38,0,.89.53,1.52.095286.097211.095286.252789,0,.35-.065844.019672-.136446.016142-.2-.01Z" fill="#263238"/><path d="M331.57,133.69c.860788,1.34642,2.161051,2.353417,3.68,2.85c1.93.58,2.59-1.2,1.81-3.08-.71-1.7-2.57-4.05-4.38-3.8s-2.2,2.34-1.11,4.03Z" fill="#b55b52"/><path d="M343,128.59c.09.59.48,1,.87,1s.62-.56.53-1.15-.48-1-.87-1-.62.56-.53,1.15Z" fill="#263238"/><path d="M349.71,127.79c.09.59.48,1,.87,1s.63-.57.53-1.16-.48-1-.86-1-.63.57-.54,1.16Z" fill="#263238"/><path d="M348.68,128.34c.992066,1.726869,2.209406,3.31412,3.62,4.72-.746249.682987-1.757873.998204-2.76.86Z" fill="#a02724"/><path d="M347.36,135.81c-1.40173.018951-2.749923-.537676-3.73-1.54-.063513-.071797-.056797-.181487.015-.245s.181487-.056797.245.015c1.091251,1.063854,2.608122,1.571932,4.12,1.38.0467-.008623.094878.00268.13287.031174s.062333.071579.06713.118826c.005628.045145-.007074.090663-.035264.126371s-.069517.058626-.114736.063629c-.2321.030879-.465867.047576-.7.05Z" fill="#263238"/><path d="M340.81,126.68c-.059634-.004075-.117656-.021141-.17-.05-.081225-.046099-.140657-.12275-.165072-.212897s-.011788-.186314.035072-.267103c.523823-.989726,1.506283-1.65345,2.62-1.77.092864-.005459.18408.026275.253503.088193s.111342.148926.116497.241807c.005459.092864-.026275.18408-.088193.253503s-.148926.111342-.241807.116497c-.876623.103852-1.644621.635831-2.05,1.42-.062434.112379-.181451.181486-.31.18Z" fill="#263238"/><path d="M352.72,125.15c-.117865.000539-.227601-.060005-.29-.16-.492411-.766506-1.312352-1.261425-2.22-1.34-.1933,0-.35-.1567-.35-.35s.1567-.35.35-.35v0c1.14069.079674,2.177641.690735,2.8,1.65.104068.16361.059856.380252-.1.49-.056183.037986-.122191.05883-.19.06Z" fill="#263238"/><path d="M330.58,165.75c.05-.06,0,0,0,0v0l-.07.11-.17.28-.36.63c-.25.45-.49.91-.73,1.39-.46,1-.91,2-1.31,3-.798574,2.094419-1.433805,4.247519-1.9,6.44-.92878,4.527428-1.201573,9.164904-.81,13.77.054069.968761.184474,1.931748.39,2.88.227965.95788.54605,1.892043.95,2.79.927357,2.051155,2.063341,4.001428,3.39,5.82c2.920311,3.949152,6.186548,7.630362,9.76,11l.14.14c1.1496,1.11694,1.309725,2.906598.376666,4.209878s-2.67884,1.728441-4.106666,1.000122c-2.508172-1.281888-4.909238-2.763326-7.18-4.43-2.309711-1.668591-4.486263-3.514146-6.51-5.52-2.146867-2.135225-4.027225-4.522608-5.6-7.11-.863165-1.407982-1.583413-2.898728-2.15-4.45-.552236-1.568995-.957315-3.185962-1.21-4.83-.518193-2.894912-.785851-5.829109-.8-8.77-.045998-2.977498.178255-5.953029.67-8.89.495081-2.981206,1.27533-5.907975,2.33-8.74.537486-1.443322,1.155113-2.855518,1.85-4.23.36-.7.73-1.39,1.15-2.08.21-.35.43-.7.66-1.06l.37-.54.5-.69c2.200844-2.738662,6.179583-3.23279,8.983475-1.115675s3.417978,6.079112,1.386525,8.945675Z" fill="#263238"/><path d="M341.84,213.94l4.13-.22-4.79,8c0,0-6.68-.85-6-4.26l.93-1c1.521057-1.536628,3.569437-2.437486,5.73-2.52Z" fill="#b55b52"/><polygon points="350.25,216.59 346.65,225.09 341.18,221.75 345.97,213.72 350.25,216.59" fill="#b55b52"/></g></svg>
