<svg xmlns="http://www.w3.org/2000/svg" width="46" height="30" viewBox="0 0 46 30" fill="none">
    <path d="M40.1338 14.1009L31.3837 5.35089C31.148 5.12319 30.8322 4.9972 30.5045 5.00005C30.1768 5.0029 29.8632 5.13436 29.6315 5.36612C29.3997 5.59788 29.2683 5.91139 29.2654 6.23914C29.2626 6.56688 29.3886 6.88264 29.6163 7.11839L36.2325 13.7346H1.25C0.918479 13.7346 0.600537 13.8663 0.366117 14.1008C0.131696 14.3352 0 14.6531 0 14.9846C0 15.3162 0.131696 15.6341 0.366117 15.8685C0.600537 16.1029 0.918479 16.2346 1.25 16.2346H36.2325L29.6163 22.8509C29.4969 22.9662 29.4016 23.1041 29.3361 23.2566C29.2706 23.4091 29.2361 23.5732 29.2347 23.7391C29.2332 23.9051 29.2649 24.0697 29.3277 24.2233C29.3906 24.377 29.4834 24.5165 29.6008 24.6339C29.7181 24.7513 29.8577 24.8441 30.0113 24.9069C30.1649 24.9698 30.3295 25.0014 30.4955 25C30.6615 24.9985 30.8255 24.964 30.978 24.8985C31.1305 24.833 31.2684 24.7378 31.3837 24.6184L40.1338 15.8684C40.3681 15.634 40.4997 15.3161 40.4997 14.9846C40.4997 14.6532 40.3681 14.3353 40.1338 14.1009Z" fill="#143048"/>
</svg>