<svg width="336" height="309" viewBox="0 0 336 309" fill="none" xmlns="http://www.w3.org/2000/svg">
<g clip-path="url(#clip0_3565_4045)">
<path d="M306.816 211.506H171.789C170.628 211.504 169.516 211.045 168.695 210.23C167.874 209.415 167.412 208.31 167.41 207.157V11.7817C167.414 10.6303 167.877 9.52726 168.697 8.71376C169.518 7.90027 170.629 7.44251 171.789 7.44055H306.816C307.976 7.44251 309.087 7.90027 309.908 8.71376C310.728 9.52726 311.191 10.6303 311.195 11.7817V207.157C311.193 208.31 310.731 209.415 309.91 210.23C309.09 211.045 307.977 211.504 306.816 211.506ZM171.789 7.62607C171.236 7.62216 170.689 7.72671 170.177 7.9337C169.666 8.1407 169.2 8.44607 168.808 8.83225C168.416 9.21843 168.104 9.67781 167.891 10.184C167.678 10.6902 167.568 11.2331 167.567 11.7817V207.157C167.567 208.261 168.009 209.32 168.795 210.101C169.581 210.882 170.647 211.32 171.759 211.32H306.816C307.928 211.32 308.994 210.882 309.78 210.101C310.567 209.32 311.008 208.261 311.008 207.157V11.7817C311.008 10.6776 310.567 9.61872 309.78 8.83799C308.994 8.05726 307.928 7.61865 306.816 7.61865L171.789 7.62607Z" fill="#F0F0F0"/>
<path d="M151.077 211.506H16.0193C14.8586 211.504 13.746 211.045 12.9253 210.23C12.1046 209.415 11.6426 208.31 11.6406 207.157V11.7817C11.6426 10.629 12.1046 9.52404 12.9253 8.70895C13.746 7.89385 14.8586 7.43507 16.0193 7.43311H151.077C152.237 7.43507 153.35 7.89385 154.171 8.70895C154.991 9.52404 155.453 10.629 155.455 11.7817V207.157C155.453 208.31 154.991 209.415 154.171 210.23C153.35 211.045 152.237 211.504 151.077 211.506ZM16.0193 7.62605C14.9088 7.62605 13.8437 8.06364 13.0578 8.84276C12.2719 9.62189 11.8294 10.6789 11.8274 11.7817V207.157C11.8274 208.261 12.2691 209.32 13.0552 210.101C13.8413 210.881 14.9075 211.32 16.0193 211.32H151.077C152.188 211.32 153.255 210.881 154.041 210.101C154.827 209.32 155.268 208.261 155.268 207.157V11.7817C155.268 10.6776 154.827 9.6187 154.041 8.83797C153.255 8.05724 152.188 7.61863 151.077 7.61863L16.0193 7.62605Z" fill="#F0F0F0"/>
<path d="M348.72 256.825H-24.8828V257.01H348.72V256.825Z" fill="#E0E0E0"/>
<path d="M326.012 168.68H184.043C184.043 169.826 184.501 170.924 185.317 171.734C186.132 172.544 187.238 172.999 188.392 172.999H321.656C322.81 172.999 323.917 172.544 324.734 171.735C325.55 170.925 326.01 169.826 326.012 168.68Z" fill="#E0E0E0"/>
<path d="M298.127 209.554H213.207V213.554H298.127V209.554Z" fill="#E0E0E0"/>
<path d="M295.123 256.877L306.698 172.999H302.633L291.059 256.877H295.123Z" fill="#E6E6E6"/>
<path d="M304.636 256.877L292.875 172.999H296.94L308.701 256.877H304.636Z" fill="#E6E6E6"/>
<path d="M206.713 256.877L218.781 172.999H214.716L202.648 256.877H206.713Z" fill="#E6E6E6"/>
<path d="M216.227 256.877L204.652 172.999H208.717L220.291 256.877H216.227Z" fill="#E6E6E6"/>
<path d="M330.773 161.742H179.277V168.702H330.773V161.742Z" fill="#E6E6E6"/>
<path d="M233.875 161.764H299.629L300.309 160.198C300.757 159.196 299.562 158.187 297.963 158.187H237.327C236.868 158.147 236.407 158.232 235.994 158.434C235.58 158.635 235.23 158.945 234.981 159.33L233.875 161.764Z" fill="#E0E0E0"/>
<path d="M317.643 116.319L309.229 151.664C309.12 152.122 308.858 152.53 308.487 152.822C308.115 153.115 307.656 153.274 307.182 153.275H255.341C255.024 153.274 254.711 153.202 254.426 153.065C254.141 152.927 253.89 152.728 253.694 152.481C253.497 152.234 253.359 151.947 253.289 151.639C253.22 151.332 253.221 151.013 253.293 150.707L261.707 115.354C261.817 114.898 262.08 114.491 262.451 114.2C262.822 113.91 263.281 113.752 263.754 113.751H315.595C315.913 113.751 316.226 113.821 316.512 113.958C316.798 114.095 317.049 114.295 317.246 114.542C317.443 114.789 317.581 115.077 317.65 115.385C317.719 115.693 317.716 116.012 317.643 116.319Z" fill="#F0F0F0"/>
<path d="M292.455 134.893C292.314 135.985 291.785 136.992 290.963 137.731C290.141 138.47 289.08 138.892 287.972 138.923C287.455 138.934 286.943 138.834 286.469 138.629C285.995 138.424 285.572 138.12 285.229 137.736C284.886 137.353 284.631 136.9 284.481 136.409C284.331 135.918 284.291 135.401 284.363 134.893C284.503 133.801 285.032 132.794 285.854 132.055C286.676 131.316 287.737 130.894 288.846 130.864C289.362 130.852 289.875 130.952 290.348 131.157C290.822 131.362 291.245 131.667 291.588 132.05C291.931 132.433 292.187 132.886 292.336 133.377C292.486 133.868 292.526 134.385 292.455 134.893Z" fill="#E0E0E0"/>
<path d="M265.809 113.751L256.843 153.275H255.348C255.031 153.274 254.719 153.202 254.434 153.065C254.148 152.927 253.898 152.728 253.701 152.481C253.505 152.234 253.366 151.947 253.297 151.639C253.228 151.332 253.229 151.013 253.301 150.707L261.715 115.354C261.825 114.898 262.087 114.491 262.459 114.2C262.83 113.91 263.289 113.752 263.762 113.751H265.809Z" fill="#E0E0E0"/>
<path d="M280.829 153.274L279.059 161.667H284.252L286.023 153.274H280.829Z" fill="#E0E0E0"/>
<path d="M271.482 160.25L272.543 158.766C272.73 158.504 272.978 158.29 273.265 158.143C273.552 157.996 273.871 157.919 274.195 157.92H288.436C288.806 157.92 289.168 158.02 289.484 158.21C289.8 158.399 290.058 158.671 290.23 158.996L290.977 160.361C291.052 160.507 291.089 160.669 291.083 160.833C291.077 160.996 291.029 161.156 290.944 161.296C290.858 161.436 290.738 161.551 290.595 161.632C290.452 161.713 290.29 161.756 290.125 161.757H272.267C272.09 161.758 271.916 161.711 271.764 161.621C271.612 161.53 271.489 161.399 271.408 161.243C271.326 161.087 271.29 160.911 271.303 160.736C271.317 160.561 271.378 160.393 271.482 160.25Z" fill="#E0E0E0"/>
<path d="M250.313 47.9953L249.887 47.32L274.903 31.6621L299.314 47.6688L298.866 48.3367L274.896 32.612L250.313 47.9953Z" fill="#F0F0F0"/>
<path d="M299.845 47.3572H249.453V78.6582H299.845V47.3572Z" fill="#E0E0E0"/>
<path d="M298.449 77.2705V48.7449H250.852V77.2705H298.449Z" fill="white"/>
<path d="M257.615 57.6869H254.574V60.7072H257.615V57.6869Z" fill="#F0F0F0"/>
<path d="M262.307 57.6869H259.266V60.7072H262.307V57.6869Z" fill="#F0F0F0"/>
<path d="M266.99 57.6869H263.949V60.7072H266.99V57.6869Z" fill="#F0F0F0"/>
<path d="M271.682 57.6869H268.641V60.7072H271.682V57.6869Z" fill="#F0F0F0"/>
<path d="M276.369 57.6869H273.328V60.7072H276.369V57.6869Z" fill="#F0F0F0"/>
<path d="M281.061 57.6869H278.02V60.7072H281.061V57.6869Z" fill="#F0F0F0"/>
<path d="M285.744 57.6869H282.703V60.7072H285.744V57.6869Z" fill="#F0F0F0"/>
<path d="M290.44 57.6869H287.398V60.7072H290.44V57.6869Z" fill="#F0F0F0"/>
<path d="M295.123 57.6869H292.082V60.7072H295.123V57.6869Z" fill="#F0F0F0"/>
<path d="M257.615 61.8425H254.574V64.8628H257.615V61.8425Z" fill="#F0F0F0"/>
<path d="M262.307 61.8425H259.266V64.8628H262.307V61.8425Z" fill="#F0F0F0"/>
<path d="M266.99 61.8425H263.949V64.8628H266.99V61.8425Z" fill="#F0F0F0"/>
<path d="M271.682 61.8425H268.641V64.8628H271.682V61.8425Z" fill="#F0F0F0"/>
<path d="M276.369 61.8425H273.328V64.8628H276.369V61.8425Z" fill="#F0F0F0"/>
<path d="M281.061 61.8425H278.02V64.8628H281.061V61.8425Z" fill="#F0F0F0"/>
<path d="M285.744 61.8425H282.703V64.8628H285.744V61.8425Z" fill="#F0F0F0"/>
<path d="M290.44 61.8425H287.398V64.8628H290.44V61.8425Z" fill="#F0F0F0"/>
<path d="M295.123 61.8425H292.082V64.8628H295.123V61.8425Z" fill="#F0F0F0"/>
<path d="M257.615 65.9983H254.574V69.0186H257.615V65.9983Z" fill="#F0F0F0"/>
<path d="M262.307 65.9983H259.266V69.0186H262.307V65.9983Z" fill="#F0F0F0"/>
<path d="M266.99 65.9983H263.949V69.0186H266.99V65.9983Z" fill="#F0F0F0"/>
<path d="M271.682 65.9983H268.641V69.0186H271.682V65.9983Z" fill="#F0F0F0"/>
<path d="M276.369 65.9982H273.328V69.0184H276.369V65.9982Z" fill="#F0F0F0"/>
<path d="M281.061 65.9983H278.02V69.0186H281.061V65.9983Z" fill="#F0F0F0"/>
<path d="M285.744 65.9983H282.703V69.0186H285.744V65.9983Z" fill="#F0F0F0"/>
<path d="M290.44 65.9983H287.398V69.0186H290.44V65.9983Z" fill="#F0F0F0"/>
<path d="M295.123 65.9983H292.082V69.0186H295.123V65.9983Z" fill="#F0F0F0"/>
<path d="M257.615 70.473H254.574V73.4933H257.615V70.473Z" fill="#F0F0F0"/>
<path d="M262.307 70.473H259.266V73.4933H262.307V70.473Z" fill="#F0F0F0"/>
<path d="M266.99 70.473H263.949V73.4933H266.99V70.473Z" fill="#F0F0F0"/>
<path d="M271.682 70.473H268.641V73.4933H271.682V70.473Z" fill="#F0F0F0"/>
<path d="M288.377 51.535H261.32V54.1472H288.377V51.535Z" fill="#E0E0E0"/>
<path d="M276.508 31.9441C276.508 32.2377 276.421 32.5246 276.256 32.7687C276.092 33.0128 275.859 33.203 275.586 33.3153C275.313 33.4276 275.012 33.457 274.722 33.3998C274.433 33.3425 274.166 33.2012 273.957 32.9936C273.748 32.786 273.606 32.5216 273.548 32.2337C273.491 31.9458 273.52 31.6474 273.633 31.3762C273.746 31.105 273.938 30.8732 274.184 30.7101C274.429 30.547 274.718 30.46 275.014 30.46C275.41 30.46 275.79 30.6163 276.071 30.8947C276.351 31.173 276.508 31.5505 276.508 31.9441Z" fill="#E0E0E0"/>
<path d="M230.922 16.5385H178.379V143.323H230.922V16.5385Z" fill="#F0F0F0"/>
<path d="M227.718 19.7294H181.586V140.147H227.718V19.7294Z" fill="#FAFAFA"/>
<path d="M227.718 24.887V33.9775L181.586 79.801V70.7031L227.718 24.887Z" fill="white"/>
<path d="M227.718 56.3289V69.152L181.586 114.961V102.13L227.718 56.3289Z" fill="white"/>
<path d="M206.246 16.5385H203.07V143.323H206.246V16.5385Z" fill="#F0F0F0"/>
<path d="M138.571 16.5385H86.0273V143.323H138.571V16.5385Z" fill="#F0F0F0"/>
<path d="M135.363 19.7294H89.2305V140.147H135.363V19.7294Z" fill="#FAFAFA"/>
<path d="M135.363 24.887V33.9775L89.2305 79.801V70.7031L135.363 24.887Z" fill="white"/>
<path d="M135.363 56.3289V69.152L89.2305 114.961V102.13L135.363 56.3289Z" fill="white"/>
<path d="M113.879 16.5385H110.703V143.323H113.879V16.5385Z" fill="#F0F0F0"/>
<path d="M102.402 239.89C102.402 239.89 96.0512 241.293 96.9927 236.922C97.9341 232.551 97.8669 230.896 95.289 228.9C92.7112 226.904 90.1109 225.932 92.0835 222.741C94.0561 219.55 90.3126 217.116 88.3475 215.409C86.3823 213.702 88.6015 212.441 89.0947 209.198C89.5878 205.955 86.1059 206.459 85.8369 202.4C85.5679 198.341 89.7149 193.599 86.1507 188.011C86.1507 188.011 90.9403 190.482 92.5169 194.816C94.0935 199.15 92.8232 202.504 95.6552 204.152C98.4871 205.799 100.258 208.656 99.294 211.572C98.3302 214.489 99.6975 216.025 102.021 218.184C104.345 220.344 103.725 221.153 103.441 223.78C103.157 226.407 103.732 225.776 106.385 229.338C109.038 232.9 109.157 238.725 102.402 239.89Z" fill="#F0F0F0"/>
<path d="M103.308 239.697C103.305 239.675 103.305 239.653 103.308 239.631L90.6054 201.324C90.5925 201.285 90.5876 201.244 90.5908 201.203C90.594 201.162 90.6053 201.123 90.624 201.086C90.6428 201.049 90.6686 201.017 90.7 200.99C90.7314 200.964 90.7678 200.944 90.8071 200.931C90.8458 200.918 90.8867 200.913 90.9274 200.917C90.968 200.92 91.0076 200.931 91.0438 200.95C91.08 200.969 91.112 200.994 91.1381 201.025C91.1642 201.057 91.1837 201.093 91.1956 201.131L103.898 239.43C103.901 239.462 103.901 239.495 103.898 239.527L103.308 239.697Z" fill="#E0E0E0"/>
<path d="M113.859 239.816C113.859 239.816 120.18 241.204 119.239 236.848C118.297 232.492 118.372 230.859 120.935 228.87C123.498 226.882 126.091 225.902 124.118 222.748C122.145 219.594 125.889 217.145 127.854 215.453C129.819 213.761 127.6 212.485 127.107 209.272C126.614 206.059 130.096 206.548 130.342 202.512C130.589 198.475 126.487 193.755 130.036 188.197C130.036 188.197 125.269 190.653 123.7 194.972C122.13 199.291 123.393 202.615 120.576 204.255C117.759 205.895 115.996 208.708 116.96 211.676C117.924 214.645 116.556 216.129 114.247 218.251C111.939 220.373 112.551 221.219 112.835 223.817C113.119 226.414 112.544 225.798 109.906 229.345C107.268 232.892 107.141 238.651 113.859 239.816Z" fill="#F0F0F0"/>
<path d="M112.378 239.452C112.374 239.42 112.374 239.388 112.378 239.356L125.021 201.257C125.033 201.219 125.052 201.183 125.078 201.152C125.104 201.12 125.137 201.095 125.173 201.076C125.209 201.057 125.248 201.046 125.289 201.043C125.33 201.04 125.371 201.044 125.409 201.057C125.449 201.07 125.485 201.09 125.516 201.116C125.548 201.143 125.574 201.176 125.592 201.212C125.611 201.249 125.622 201.289 125.626 201.329C125.629 201.37 125.624 201.411 125.611 201.45L112.968 239.549C112.973 239.573 112.973 239.598 112.968 239.623L112.378 239.452Z" fill="#E0E0E0"/>
<path d="M106.849 239.015C106.849 239.015 99.5791 238.421 102.06 234.021C104.541 229.62 105.011 227.854 102.912 224.863C100.812 221.873 98.3687 219.951 101.544 217.212C104.72 214.474 101.544 210.6 100.05 208.137C98.5555 205.673 101.32 205.013 102.942 201.733C104.563 198.453 100.7 197.822 101.731 193.384C102.762 188.946 108.83 185.221 106.879 178.075C106.879 178.075 111.183 182.297 111.422 187.462C111.661 192.627 109.181 195.796 111.661 198.497C114.142 201.198 115.084 204.834 113.074 207.654C111.064 210.474 112.013 212.582 113.821 215.632C115.629 218.682 114.65 219.394 113.47 222.088C112.289 224.782 113.111 224.314 114.77 229.019C116.429 233.724 114.471 239.994 106.849 239.015Z" fill="#F5F5F5"/>
<path d="M107.882 239.104C107.877 239.077 107.877 239.049 107.882 239.022L107.082 193.807C107.081 193.76 107.089 193.714 107.107 193.671C107.124 193.628 107.15 193.589 107.182 193.555C107.215 193.522 107.254 193.496 107.297 193.478C107.34 193.46 107.387 193.451 107.433 193.451C107.525 193.451 107.613 193.486 107.679 193.55C107.745 193.614 107.783 193.701 107.784 193.792L108.584 239.007C108.591 239.044 108.591 239.082 108.584 239.118L107.882 239.104Z" fill="#E0E0E0"/>
<path d="M126.635 235.527H91.0903C90.8565 235.533 90.6275 235.594 90.4216 235.704C90.2158 235.815 90.0389 235.971 89.9051 236.162C89.7714 236.352 89.6845 236.571 89.6516 236.801C89.6187 237.031 89.6406 237.266 89.7155 237.486L90.246 238.874L90.5748 239.757L91.5312 242.272L91.8674 243.148L92.8463 245.73L93.175 246.606L97.0904 256.921H120.635L124.55 246.606L124.879 245.73L125.858 243.148L126.194 242.272L127.15 239.757L127.479 238.874L128.01 237.486C128.085 237.266 128.107 237.031 128.074 236.801C128.041 236.571 127.954 236.352 127.82 236.162C127.686 235.971 127.509 235.815 127.304 235.704C127.098 235.594 126.869 235.533 126.635 235.527Z" fill="#E6E6E6"/>
<path d="M41.7091 47.691C48.7864 47.691 54.5237 41.993 54.5237 34.9643C54.5237 27.9355 48.7864 22.2375 41.7091 22.2375C34.6318 22.2375 28.8945 27.9355 28.8945 34.9643C28.8945 41.993 34.6318 47.691 41.7091 47.691Z" fill="#E0E0E0"/>
<path d="M53.3616 36.9191C54.4411 30.533 50.1035 24.4869 43.6733 23.4148C37.2431 22.3427 31.1552 26.6505 30.0757 33.0367C28.9962 39.4228 33.3338 45.4688 39.764 46.541C46.1942 47.6131 52.282 43.3052 53.3616 36.9191Z" fill="#FAFAFA"/>
<path d="M41.7455 24.3007H41.3047V26.7495H41.7455V24.3007Z" fill="#E0E0E0"/>
<path d="M41.7455 43.1124H41.3047V45.5613H41.7455V43.1124Z" fill="#E0E0E0"/>
<path d="M33.2861 34.712H30.8203V35.1499H33.2861V34.712Z" fill="#E0E0E0"/>
<path d="M52.2275 34.712H49.7617V35.1499H52.2275V34.712Z" fill="#E0E0E0"/>
<path d="M48.9425 27.2533L47.1992 28.9852L47.511 29.2948L49.2543 27.5629L48.9425 27.2533Z" fill="#E0E0E0"/>
<path d="M35.544 40.5512L33.8008 42.2831L34.1126 42.5926L35.8558 40.8607L35.544 40.5512Z" fill="#E0E0E0"/>
<path d="M34.1164 27.2684L33.8047 27.578L35.5483 29.3096L35.86 29L34.1164 27.2684Z" fill="#E0E0E0"/>
<path d="M47.507 40.5562L47.1953 40.8658L48.9392 42.5972L49.2509 42.2875L47.507 40.5562Z" fill="#E0E0E0"/>
<path d="M41.4404 34.633L41.3008 34.9851L45.4723 36.6162L45.612 36.2641L41.4404 34.633Z" fill="#E0E0E0"/>
<path d="M41.7174 35.1201H34.8281V34.7417H41.3363V29.4358H41.7174V35.1201Z" fill="#E0E0E0"/>
<path d="M324.025 290.627C324.025 292.593 251.442 294.181 161.919 294.181C72.3961 294.181 -0.1875 292.593 -0.1875 290.627C-0.1875 288.66 72.411 287.094 161.919 287.094C251.427 287.094 324.025 288.667 324.025 290.627Z" fill="#F5F5F5"/>
<path d="M132.83 35.8013C137.505 31.1587 137.505 23.6316 132.83 18.9889C128.156 14.3463 120.576 14.3463 115.902 18.9889C111.227 23.6316 111.227 31.1587 115.902 35.8013C120.576 40.4439 128.156 40.4439 132.83 35.8013Z" fill="#0278BE"/>
<path d="M130.363 27.3655C130.361 27.6306 130.254 27.8843 130.065 28.0718C129.877 28.2592 129.621 28.3654 129.354 28.3673H125.364V32.3301C125.343 32.5799 125.227 32.8126 125.041 32.9821C124.855 33.1517 124.612 33.2457 124.359 33.2457C124.107 33.2457 123.863 33.1517 123.677 32.9821C123.491 32.8126 123.376 32.5799 123.354 32.3301V28.3673H119.364C119.097 28.3654 118.842 28.2592 118.653 28.0718C118.464 27.8843 118.357 27.6306 118.355 27.3655C118.357 27.1004 118.464 26.8467 118.653 26.6593C118.842 26.4718 119.097 26.3657 119.364 26.3637H123.354V22.4307C123.376 22.1808 123.491 21.9481 123.677 21.7786C123.863 21.6091 124.107 21.515 124.359 21.515C124.612 21.515 124.855 21.6091 125.041 21.7786C125.227 21.9481 125.343 22.1808 125.364 22.4307V26.3934H129.354C129.616 26.3951 129.867 26.4972 130.055 26.6783C130.243 26.8594 130.353 27.1056 130.363 27.3655Z" fill="white"/>
<path d="M124.362 42.2962C124.315 42.2972 124.268 42.2887 124.224 42.2711C124.18 42.2536 124.14 42.2274 124.107 42.1941C124.073 42.1608 124.047 42.1211 124.029 42.0775C124.011 42.0338 124.003 41.987 124.004 41.94V41.1979C123.996 41.1473 124 41.0957 124.014 41.0467C124.029 40.9976 124.054 40.9522 124.087 40.9136C124.121 40.8749 124.163 40.8439 124.21 40.8227C124.256 40.8014 124.307 40.7904 124.359 40.7904C124.41 40.7904 124.461 40.8014 124.508 40.8227C124.555 40.8439 124.596 40.8749 124.63 40.9136C124.664 40.9522 124.688 40.9976 124.703 41.0467C124.717 41.0957 124.721 41.1473 124.714 41.1979V41.94C124.715 41.9864 124.706 42.0325 124.689 42.0757C124.672 42.1189 124.646 42.1582 124.613 42.1914C124.581 42.2246 124.542 42.2509 124.499 42.2689C124.455 42.2869 124.409 42.2962 124.362 42.2962ZM124.714 58.9559V57.5385C124.721 57.488 124.717 57.4364 124.703 57.3873C124.688 57.3383 124.664 57.2929 124.63 57.2542C124.596 57.2156 124.555 57.1846 124.508 57.1633C124.461 57.1421 124.41 57.1311 124.359 57.1311C124.307 57.1311 124.256 57.1421 124.21 57.1633C124.163 57.1846 124.121 57.2156 124.087 57.2542C124.054 57.2929 124.029 57.3383 124.014 57.3873C124 57.4364 123.996 57.488 124.004 57.5385V58.9559C124.016 59.0406 124.059 59.118 124.124 59.174C124.189 59.23 124.272 59.2608 124.359 59.2608C124.445 59.2608 124.528 59.23 124.593 59.174C124.658 59.118 124.701 59.0406 124.714 58.9559ZM124.714 54.7038V53.2864C124.721 53.2358 124.717 53.1843 124.703 53.1352C124.688 53.0861 124.664 53.0407 124.63 53.0021C124.596 52.9634 124.555 52.9324 124.508 52.9112C124.461 52.8899 124.41 52.8789 124.359 52.8789C124.307 52.8789 124.256 52.8899 124.21 52.9112C124.163 52.9324 124.121 52.9634 124.087 53.0021C124.054 53.0407 124.029 53.0861 124.014 53.1352C124 53.1843 123.996 53.2358 124.004 53.2864V54.7038C124.016 54.7885 124.059 54.8659 124.124 54.9219C124.189 54.9779 124.272 55.0087 124.359 55.0087C124.445 55.0087 124.528 54.9779 124.593 54.9219C124.658 54.8659 124.701 54.7885 124.714 54.7038ZM124.714 50.4516V49.0343C124.721 48.9837 124.717 48.9321 124.703 48.8831C124.688 48.834 124.664 48.7886 124.63 48.75C124.596 48.7113 124.555 48.6803 124.508 48.659C124.461 48.6378 124.41 48.6268 124.359 48.6268C124.307 48.6268 124.256 48.6378 124.21 48.659C124.163 48.6803 124.121 48.7113 124.087 48.75C124.054 48.7886 124.029 48.834 124.014 48.8831C124 48.9321 123.996 48.9837 124.004 49.0343V50.4516C124.016 50.5363 124.059 50.6138 124.124 50.6698C124.189 50.7257 124.272 50.7566 124.359 50.7566C124.445 50.7566 124.528 50.7257 124.593 50.6698C124.658 50.6138 124.701 50.5363 124.714 50.4516ZM124.714 46.1995V44.7747C124.701 44.69 124.658 44.6126 124.593 44.5566C124.528 44.5006 124.445 44.4698 124.359 44.4698C124.272 44.4698 124.189 44.5006 124.124 44.5566C124.059 44.6126 124.016 44.69 124.004 44.7747V46.1995C124.016 46.2842 124.059 46.3616 124.124 46.4176C124.189 46.4736 124.272 46.5044 124.359 46.5044C124.445 46.5044 124.528 46.4736 124.593 46.4176C124.658 46.3616 124.701 46.2842 124.714 46.1995ZM125.461 62.5253C125.461 62.4309 125.423 62.3403 125.356 62.2735C125.288 62.2066 125.197 62.1691 125.102 62.1691H124.714V61.8203C124.721 61.7698 124.717 61.7182 124.703 61.6691C124.688 61.6201 124.664 61.5747 124.63 61.536C124.596 61.4974 124.555 61.4664 124.508 61.4451C124.461 61.4239 124.41 61.4129 124.359 61.4129C124.307 61.4129 124.256 61.4239 124.21 61.4451C124.163 61.4664 124.121 61.4974 124.087 61.536C124.054 61.5747 124.029 61.6201 124.014 61.6691C124 61.7182 123.996 61.7698 124.004 61.8203V62.5624C124.003 62.6095 124.011 62.6563 124.029 62.6999C124.047 62.7436 124.073 62.7833 124.107 62.8165C124.14 62.8498 124.18 62.876 124.224 62.8936C124.268 62.9111 124.315 62.9196 124.362 62.9186H125.072C125.128 62.926 125.185 62.9198 125.239 62.9005C125.292 62.8812 125.34 62.8495 125.378 62.8079C125.416 62.7664 125.443 62.7163 125.458 62.6619C125.472 62.6075 125.473 62.5505 125.461 62.4956V62.5253ZM141.69 62.5253C141.69 62.4309 141.652 62.3403 141.585 62.2735C141.518 62.2066 141.427 62.1691 141.331 62.1691H139.979C139.884 62.171 139.794 62.2092 139.727 62.2755C139.661 62.3419 139.622 62.4314 139.62 62.5253C139.62 62.6198 139.658 62.7104 139.725 62.7772C139.793 62.844 139.884 62.8815 139.979 62.8815H141.331C141.379 62.8788 141.425 62.8665 141.468 62.8453C141.511 62.8242 141.548 62.7947 141.579 62.7586C141.61 62.7225 141.633 62.6806 141.647 62.6354C141.661 62.5902 141.665 62.5426 141.66 62.4956L141.69 62.5253ZM137.633 62.5253C137.633 62.4309 137.595 62.3403 137.528 62.2735C137.46 62.2066 137.369 62.1691 137.274 62.1691H135.922C135.827 62.171 135.737 62.2092 135.67 62.2755C135.603 62.3419 135.565 62.4314 135.563 62.5253C135.563 62.6198 135.601 62.7104 135.668 62.7772C135.735 62.844 135.827 62.8815 135.922 62.8815H137.274C137.322 62.8788 137.368 62.8665 137.411 62.8453C137.453 62.8242 137.491 62.7947 137.522 62.7586C137.553 62.7225 137.576 62.6806 137.59 62.6354C137.603 62.5902 137.608 62.5426 137.603 62.4956L137.633 62.5253ZM133.575 62.5253C133.575 62.4309 133.538 62.3403 133.47 62.2735C133.403 62.2066 133.312 62.1691 133.217 62.1691H131.864C131.77 62.171 131.68 62.2092 131.613 62.2755C131.546 62.3419 131.508 62.4314 131.506 62.5253C131.506 62.6198 131.543 62.7104 131.611 62.7772C131.678 62.844 131.769 62.8815 131.864 62.8815H133.217C133.264 62.8788 133.311 62.8665 133.353 62.8453C133.396 62.8242 133.434 62.7947 133.465 62.7586C133.495 62.7225 133.518 62.6806 133.532 62.6354C133.546 62.5902 133.551 62.5426 133.546 62.4956L133.575 62.5253ZM129.518 62.5253C129.518 62.4309 129.48 62.3403 129.413 62.2735C129.346 62.2066 129.255 62.1691 129.159 62.1691H127.777C127.683 62.171 127.592 62.2092 127.526 62.2755C127.459 62.3419 127.42 62.4314 127.418 62.5253C127.418 62.6198 127.456 62.7104 127.524 62.7772C127.591 62.844 127.682 62.8815 127.777 62.8815H129.13C129.18 62.8829 129.229 62.8736 129.276 62.8542C129.322 62.8349 129.363 62.806 129.397 62.7694C129.431 62.7329 129.457 62.6896 129.472 62.6423C129.488 62.5951 129.494 62.5451 129.488 62.4956L129.518 62.5253ZM145.112 62.5253C145.11 62.4314 145.072 62.3419 145.005 62.2755C144.938 62.2092 144.848 62.171 144.754 62.1691H144.006C143.913 62.1711 143.823 62.2095 143.758 62.276C143.692 62.3426 143.655 62.4321 143.655 62.5253C143.654 62.5717 143.663 62.6179 143.68 62.6611C143.697 62.7042 143.723 62.7436 143.755 62.7768C143.788 62.8099 143.827 62.8363 143.87 62.8543C143.913 62.8723 143.96 62.8815 144.006 62.8815H144.754C144.801 62.8778 144.847 62.8648 144.889 62.8434C144.931 62.8219 144.968 62.7924 144.999 62.7565C145.029 62.7207 145.053 62.6791 145.067 62.6344C145.081 62.5896 145.087 62.5424 145.082 62.4956L145.112 62.5253Z" fill="#0278BE"/>
<path d="M279.691 272.995L280.446 284.92L275.32 285.321L271.883 273.596L279.691 272.995Z" fill="#CE7A63"/>
<path d="M276.515 284.126C276.308 283.865 276.032 283.668 275.717 283.557C275.403 283.445 275.063 283.424 274.737 283.495C273.743 283.822 272.435 285.439 272.435 285.439C272.435 285.439 267.041 287.161 265.583 287.25C264.126 287.339 263.163 288.267 263.043 290.96H281.402C281.402 290.96 281.402 284.638 280.782 283.54C280.244 282.59 279.16 283.814 279.16 283.814L276.515 284.126Z" fill="#263238"/>
<path d="M263.464 290.137L266.654 290.099L280.582 289.958C280.613 289.951 280.641 289.934 280.661 289.909C280.681 289.884 280.692 289.853 280.692 289.821C280.692 289.789 280.681 289.759 280.661 289.734C280.641 289.709 280.613 289.691 280.582 289.684H279.633C279.348 289.002 279.337 288.236 279.602 287.546C279.868 286.856 280.39 286.293 281.06 285.974C281.077 285.966 281.093 285.954 281.105 285.941C281.117 285.927 281.127 285.91 281.132 285.892C281.138 285.875 281.14 285.856 281.138 285.838C281.136 285.819 281.13 285.801 281.12 285.785C281.111 285.769 281.098 285.755 281.083 285.744C281.068 285.733 281.051 285.726 281.032 285.722C281.014 285.718 280.995 285.718 280.977 285.721C280.959 285.725 280.941 285.733 280.926 285.743C280.208 286.089 279.648 286.69 279.357 287.427C279.067 288.165 279.066 288.984 279.357 289.721H277.392L263.464 289.869C263.436 289.879 263.411 289.897 263.394 289.921C263.377 289.945 263.367 289.974 263.367 290.003C263.367 290.033 263.377 290.061 263.394 290.085C263.411 290.109 263.436 290.127 263.464 290.137Z" fill="white"/>
<path d="M273.064 286.552C272.939 286.346 272.77 286.169 272.57 286.032C272.37 285.896 272.143 285.803 271.904 285.76C271.665 285.717 271.42 285.725 271.185 285.784C270.949 285.842 270.729 285.95 270.539 286.1C270.397 286.204 270.262 285.966 270.404 285.862C270.626 285.695 270.88 285.577 271.151 285.514C271.422 285.451 271.703 285.445 271.977 285.497C272.25 285.549 272.509 285.657 272.738 285.814C272.966 285.972 273.159 286.175 273.303 286.411C273.4 286.552 273.169 286.693 273.064 286.552Z" fill="white"/>
<path d="M271.541 287.005C271.414 286.8 271.245 286.623 271.045 286.487C270.845 286.351 270.619 286.259 270.38 286.216C270.142 286.174 269.897 286.181 269.661 286.239C269.426 286.297 269.206 286.404 269.015 286.552C268.873 286.656 268.739 286.419 268.881 286.315C269.103 286.148 269.358 286.03 269.629 285.968C269.9 285.905 270.182 285.9 270.455 285.953C270.728 286.005 270.987 286.114 271.216 286.272C271.444 286.431 271.636 286.635 271.78 286.871C271.877 287.012 271.645 287.146 271.541 287.005Z" fill="white"/>
<path d="M269.973 287.465C269.847 287.259 269.679 287.082 269.479 286.945C269.279 286.808 269.052 286.716 268.813 286.673C268.574 286.63 268.329 286.638 268.094 286.697C267.858 286.755 267.638 286.863 267.447 287.013C267.306 287.116 267.171 286.879 267.306 286.775C267.527 286.608 267.782 286.49 268.053 286.427C268.324 286.364 268.605 286.358 268.878 286.41C269.151 286.461 269.411 286.57 269.639 286.727C269.868 286.885 270.06 287.088 270.205 287.324C270.309 287.465 270.07 287.606 269.973 287.465Z" fill="white"/>
<path d="M240.442 272.868L239.732 284.912L234.561 285.321L232.559 273.477L240.442 272.868Z" fill="#CE7A63"/>
<path d="M235.751 284.126C235.544 283.865 235.268 283.668 234.953 283.557C234.639 283.445 234.299 283.424 233.973 283.495C232.979 283.821 231.671 285.439 231.671 285.439C231.671 285.439 226.276 287.161 224.819 287.25C223.362 287.339 222.085 288.155 221.539 290.96H239.218C239.218 290.96 239.913 284.623 240.017 283.539C240.122 282.456 238.396 283.814 238.396 283.814L235.751 284.126Z" fill="#263238"/>
<path d="M222.062 290.137L225.245 290.099L239.173 289.958C239.204 289.951 239.232 289.934 239.252 289.909C239.272 289.884 239.282 289.853 239.282 289.821C239.282 289.789 239.272 289.759 239.252 289.734C239.232 289.709 239.204 289.691 239.173 289.684H238.231C237.946 289.001 237.936 288.235 238.203 287.544C238.47 286.854 238.994 286.292 239.666 285.974C239.683 285.966 239.698 285.954 239.71 285.941C239.723 285.927 239.732 285.91 239.738 285.892C239.743 285.875 239.745 285.856 239.743 285.838C239.741 285.819 239.735 285.801 239.726 285.785C239.716 285.769 239.704 285.755 239.688 285.744C239.673 285.733 239.656 285.726 239.638 285.722C239.62 285.718 239.601 285.718 239.582 285.721C239.564 285.725 239.547 285.733 239.531 285.743C238.814 286.089 238.254 286.69 237.963 287.427C237.672 288.165 237.672 288.984 237.962 289.721H235.997L222.069 289.869C222.041 289.878 222.016 289.895 221.998 289.919C221.98 289.942 221.97 289.971 221.969 290C221.968 290.03 221.976 290.059 221.993 290.083C222.01 290.108 222.034 290.126 222.062 290.137Z" fill="white"/>
<path d="M232.314 286.552C232.189 286.346 232.02 286.169 231.82 286.032C231.62 285.896 231.393 285.803 231.154 285.76C230.915 285.717 230.67 285.725 230.435 285.784C230.199 285.842 229.979 285.95 229.789 286.1C229.647 286.204 229.512 285.966 229.654 285.862C229.876 285.695 230.13 285.577 230.401 285.514C230.672 285.451 230.953 285.445 231.227 285.497C231.5 285.549 231.759 285.657 231.988 285.814C232.216 285.972 232.409 286.175 232.553 286.411C232.658 286.552 232.419 286.693 232.314 286.552Z" fill="white"/>
<path d="M230.774 287.005C230.648 286.8 230.48 286.624 230.28 286.488C230.081 286.352 229.855 286.26 229.617 286.217C229.379 286.174 229.135 286.182 228.9 286.24C228.665 286.297 228.446 286.404 228.255 286.552C228.113 286.656 227.972 286.419 228.113 286.315C228.336 286.148 228.591 286.03 228.862 285.968C229.133 285.905 229.414 285.9 229.688 285.953C229.961 286.005 230.22 286.114 230.448 286.272C230.677 286.431 230.869 286.635 231.013 286.871C231.117 287.012 230.878 287.146 230.774 287.005Z" fill="white"/>
<path d="M229.205 287.465C229.079 287.259 228.911 287.082 228.711 286.945C228.511 286.808 228.284 286.716 228.045 286.673C227.806 286.63 227.561 286.638 227.325 286.697C227.09 286.755 226.87 286.863 226.679 287.013C226.537 287.116 226.403 286.879 226.545 286.775C226.767 286.608 227.021 286.49 227.292 286.427C227.563 286.364 227.844 286.358 228.117 286.41C228.391 286.461 228.65 286.57 228.878 286.727C229.107 286.885 229.3 287.088 229.444 287.324C229.541 287.465 229.309 287.606 229.205 287.465Z" fill="white"/>
<path d="M228.394 147.33C228.394 147.33 225.406 187.588 225.577 205.272C225.787 223.661 231.824 277.187 231.824 277.187H241.717C241.717 277.187 243.54 224.603 244.422 206.541C245.386 186.846 251.311 144.102 251.311 144.102L228.394 147.33Z" fill="#263238"/>
<path opacity="0.2" d="M246.317 184.635C247.064 177.407 247.983 169.942 248.79 163.419L247.632 156.532C247.632 156.532 243.754 167.278 246.317 184.635Z" fill="black"/>
<path d="M242.457 274.212C242.457 275.273 242.36 277.388 242.36 277.388H230.965L230.621 274.212H242.457Z" fill="#0278BE"/>
<path d="M245.277 144.102C245.277 144.102 248.266 188.442 251.509 205.049C255.043 223.223 271.086 277.187 271.086 277.187H281.778C281.778 277.187 274.904 224.833 273.081 206.83C271.093 187.299 270.234 147.85 270.234 147.85L245.277 144.102Z" fill="#263238"/>
<path d="M282.255 274.137C282.36 275.221 282.524 277.388 282.524 277.388H270.001L269.254 274.137H282.255Z" fill="#0278BE"/>
<path d="M272.047 151.627C250.67 153.074 234.597 153.185 226.079 149.995C225.489 112.608 226.826 89.3516 228.575 83.6672C228.808 82.9091 229.193 82.2054 229.707 81.5985C230.22 80.9915 230.852 80.4937 231.564 80.1349C233.675 79.081 235.947 78.379 238.288 78.0571C242.772 77.3967 250.176 77.2037 255.31 77.2186C258.127 77.2186 261.018 77.4412 263.402 77.6787C266.391 77.9829 268.296 80.6099 268.169 83.5634C267.915 89.2477 267.893 94.9988 268.027 100.631C268.109 103.882 268.236 107.087 268.401 110.226C269.454 130.277 272.01 147.256 272.047 151.627Z" fill="#0278BE"/>
<path opacity="0.2" d="M268.387 110.234L259.211 90.1975L268.013 100.646C268.095 103.889 268.222 107.095 268.387 110.234Z" fill="black"/>
<path d="M241.366 48.1439C240.237 46.9268 236.449 46.823 234.641 49.1679C232.713 51.6762 230.27 56.3068 228.715 55.1046C228.946 55.7978 229.383 56.4052 229.969 56.8464C230.555 57.2877 231.261 57.542 231.996 57.5757C231.996 57.5757 230.419 59.2899 228.387 58.6592C228.741 59.6529 229.37 60.5277 230.201 61.1837C231.032 61.8398 232.032 62.2507 233.087 62.3696C236.561 62.8742 241.403 52.9822 242.173 51.3645C242.173 49.5167 242.023 49.628 241.366 48.1439Z" fill="#263238"/>
<path d="M243.52 48.5519C245.053 48.3679 246.607 48.5003 248.086 48.9409C249.564 49.3814 250.935 50.1206 252.113 51.1121C253.652 52.433 254.848 54.1694 254.317 56.2473C253.077 61.0856 249.789 68.8626 249.789 68.8626L235.039 57.5904C235.039 57.5904 234.965 52.893 237.333 50.5629C238.574 49.3533 241.278 48.8042 243.52 48.5519Z" fill="#263238"/>
<path d="M240.824 48.2847C240.824 48.2847 245.905 44.6857 252.667 49.6799C259.43 54.6741 252.667 63.7126 252.667 63.7126C252.667 63.7126 250.501 67.7124 252.413 68.6994C251.742 68.9575 251.026 69.0811 250.306 69.063C250.306 69.063 250.964 70.28 251.801 70.1687C251.801 70.1687 250.628 70.6363 248.55 69.7161C246.473 68.7959 240.824 48.2847 240.824 48.2847Z" fill="#263238"/>
<path d="M241.142 73.2187C241.142 73.2187 241.142 73.2187 241.142 73.2855L241.546 76.2093C241.537 76.7877 241.475 77.364 241.359 77.9309C241.264 78.3896 241.137 78.841 240.978 79.2815C240.23 80.0607 239.7 81.9604 241.934 82.2498C244.751 82.6134 250.422 79.1553 250.766 77.9458C249.937 73.9608 249.399 69.3599 250.064 65.7311L246.425 68.7885L241.142 73.2187Z" fill="#CE7A63"/>
<path opacity="0.2" d="M241.16 73.2928L241.564 76.2166C243.424 75.6378 245.486 74.1388 246.137 72.3281C246.6 71.022 246.137 69.6863 245.613 69.5527L241.16 73.2928Z" fill="black"/>
<path d="M234.771 66.4732C234.861 67.1114 234.973 67.7421 235.092 68.3655C236.213 73.8792 242.729 75.163 247.302 71.7642C247.716 71.456 248.106 71.1161 248.467 70.7476C251.494 67.6679 251.165 64.9816 251.509 59.0078C251.6 57.622 251.335 56.2358 250.737 54.9804C250.139 53.7249 249.228 52.6418 248.091 51.8334C246.954 51.0251 245.628 50.5182 244.239 50.3608C242.849 50.2034 241.442 50.4007 240.151 50.934C234.831 53.1009 233.86 60.0987 234.771 66.4732Z" fill="#CE7A63"/>
<path d="M241.968 61.6125C241.968 62.0949 241.728 62.4882 241.407 62.4956C241.086 62.503 240.832 62.1097 240.824 61.6274C240.817 61.145 241.071 60.7517 241.385 60.7517C241.699 60.7517 241.968 61.1302 241.968 61.6125Z" fill="#263238"/>
<path d="M236.69 61.6644C236.69 62.1468 236.443 62.5401 236.129 62.5475C235.816 62.5549 235.547 62.1616 235.539 61.6793C235.532 61.1969 235.786 60.8036 236.107 60.8036C236.428 60.8036 236.682 61.1821 236.69 61.6644Z" fill="#263238"/>
<path d="M240.058 68.1799H239.886C239.84 68.1677 239.8 68.1389 239.774 68.0992C239.748 68.0595 239.737 68.0116 239.744 67.9647C239.75 67.9408 239.76 67.9181 239.774 67.8981C239.788 67.878 239.806 67.8609 239.827 67.8478C239.848 67.8347 239.871 67.8258 239.895 67.8217C239.92 67.8176 239.944 67.8182 239.969 67.8237C240.325 67.8928 240.691 67.8894 241.046 67.8138C241.4 67.7382 241.736 67.5919 242.032 67.3838C242.328 67.1757 242.579 66.9101 242.769 66.6031C242.959 66.296 243.084 65.9539 243.137 65.5975C243.142 65.5735 243.152 65.5509 243.166 65.5308C243.18 65.5108 243.198 65.4937 243.219 65.4806C243.24 65.4675 243.263 65.4586 243.288 65.4544C243.312 65.4503 243.337 65.451 243.361 65.4565C243.407 65.4703 243.447 65.5008 243.471 65.542C243.496 65.5831 243.505 65.632 243.495 65.6791C243.368 66.4609 242.936 67.1616 242.293 67.6297C241.65 68.0977 240.847 68.2953 240.058 68.1799Z" fill="#263238"/>
<path d="M251.516 59.557C250.648 60.2178 250.015 61.1351 249.707 62.1766C249.699 62.2902 249.655 62.3986 249.583 62.4873C249.511 62.5761 249.414 62.6411 249.304 62.6737L247.122 62.8519C247.122 62.8519 248.452 57.0933 246.898 56.9746C245.344 56.8558 247.346 54.4441 246.464 53.9469C244.387 52.7818 238.41 51.9729 235.652 55.2678C235.652 55.2678 236.713 51.8097 239.792 50.2661C242.87 48.7226 248.631 49.0343 250.582 52.1065C252.532 55.1787 251.516 59.557 251.516 59.557Z" fill="#263238"/>
<path d="M254.117 62.9854C253.696 64.4279 252.719 65.6469 251.397 66.3767C249.634 67.3266 248.304 65.8721 248.408 63.9872C248.513 62.2878 249.551 59.7499 251.502 59.5792C253.452 59.4086 254.602 61.2118 254.102 62.9854" fill="#CE7A63"/>
<path d="M235.249 59.6682C235.29 59.6689 235.331 59.6581 235.366 59.6372C235.402 59.6162 235.431 59.5859 235.45 59.5495C235.524 59.3972 235.629 59.2614 235.757 59.1504C235.886 59.0394 236.035 58.9556 236.198 58.9039C236.528 58.8409 236.87 58.8906 237.169 59.0449C237.196 59.0621 237.225 59.0736 237.257 59.0788C237.288 59.084 237.32 59.0828 237.351 59.0751C237.382 59.0674 237.411 59.0536 237.436 59.0343C237.461 59.0151 237.482 58.9909 237.498 58.9633C237.514 58.9365 237.525 58.9068 237.529 58.8758C237.534 58.8449 237.532 58.8134 237.525 58.783C237.517 58.7527 237.504 58.7242 237.485 58.6991C237.466 58.674 237.442 58.6528 237.415 58.6367C237.007 58.4161 236.532 58.3502 236.078 58.4512C235.854 58.5155 235.647 58.6261 235.469 58.7758C235.291 58.9254 235.147 59.1107 235.047 59.3195C235.03 59.3458 235.019 59.3754 235.014 59.4063C235.01 59.4372 235.012 59.4688 235.02 59.4989C235.028 59.529 235.043 59.557 235.063 59.581C235.083 59.6051 235.108 59.6247 235.136 59.6386C235.17 59.6584 235.209 59.6686 235.249 59.6682Z" fill="#263238"/>
<path d="M244.418 59.4828C244.452 59.477 244.485 59.4644 244.515 59.4456C244.543 59.4318 244.568 59.4122 244.588 59.3881C244.608 59.3641 244.623 59.3361 244.632 59.306C244.64 59.2759 244.642 59.2443 244.637 59.2134C244.633 59.1825 244.622 59.1529 244.605 59.1266C244.363 58.731 243.982 58.4378 243.536 58.3028C243.309 58.2504 243.074 58.2451 242.845 58.2873C242.617 58.3294 242.399 58.4181 242.206 58.5477C242.152 58.5802 242.112 58.6329 242.097 58.6941C242.082 58.7553 242.091 58.8201 242.124 58.8743C242.157 58.9284 242.21 58.9674 242.271 58.9827C242.333 58.998 242.398 58.9884 242.453 58.9559C242.591 58.8585 242.748 58.7911 242.914 58.7578C243.08 58.7246 243.251 58.7263 243.417 58.7629C243.729 58.8698 243.994 59.0826 244.164 59.364C244.187 59.4087 244.225 59.4445 244.271 59.466C244.317 59.4874 244.368 59.4933 244.418 59.4828Z" fill="#263238"/>
<path d="M239.075 61.2043C238.812 62.1926 238.267 63.0843 237.506 63.7719C236.28 64.8034 238.709 65.7014 238.709 65.7014L239.075 61.2043Z" fill="#BA4D3C"/>
<path d="M249.498 60.7071C247.618 60.4539 245.707 60.8383 244.073 61.798C243.932 60.4771 243.065 59.453 242.004 59.453C240.943 59.453 239.986 60.5884 239.926 62.0206C239.613 61.796 239.237 61.6752 238.851 61.6752C238.464 61.6752 238.088 61.796 237.775 62.0206C237.7 60.6106 236.796 59.4901 235.69 59.4901C234.584 59.4901 233.598 60.7071 233.598 62.2135C233.598 63.72 234.539 64.937 235.69 64.937C236.841 64.937 237.767 63.7348 237.782 62.2506C237.887 62.1542 238.649 61.4715 239.919 62.2506C239.919 63.7348 240.868 64.9221 242.004 64.9221C243.139 64.9221 244.103 63.6977 244.103 62.1987C244.107 62.1419 244.107 62.0849 244.103 62.028C245.714 61.0387 247.624 60.6446 249.498 60.9149C249.511 60.917 249.523 60.9165 249.535 60.9135C249.548 60.9104 249.559 60.9048 249.569 60.8972C249.579 60.8895 249.587 60.8798 249.593 60.8688C249.598 60.8578 249.602 60.8457 249.603 60.8333C249.606 60.8179 249.606 60.802 249.602 60.7867C249.599 60.7714 249.591 60.7571 249.581 60.7449C249.571 60.7328 249.559 60.7231 249.544 60.7165C249.53 60.71 249.514 60.7067 249.498 60.7071ZM235.69 64.7144C234.636 64.7144 233.784 63.5716 233.784 62.1764C233.784 60.7813 234.636 59.6385 235.69 59.6385C236.743 59.6385 237.603 60.7739 237.603 62.1764C237.603 63.579 236.721 64.7144 235.667 64.7144H235.69ZM242.004 64.7144C240.958 64.7144 240.098 63.5716 240.098 62.1764C240.098 60.7813 240.958 59.6385 242.004 59.6385C243.05 59.6385 243.917 60.7739 243.917 62.1764C243.917 63.579 243.035 64.7144 241.981 64.7144H242.004Z" fill="white"/>
<path d="M228.196 85.1588L221.785 100.401C220.709 102.924 219.61 105.432 218.497 107.889C217.944 109.113 217.369 110.323 216.793 111.488C216.218 112.653 215.628 113.796 215.067 114.731C214.916 114.987 214.752 115.234 214.574 115.473L213.745 115.866L212.833 116.274L210.965 117.083L203.276 120.319C198.113 122.493 192.943 124.734 187.824 127.101L189.632 132.697C195.214 131.643 200.728 130.404 206.228 128.986C208.97 128.244 211.712 127.561 214.447 126.76L216.539 126.129L217.6 125.795L218.729 125.409L219.155 125.254L219.349 125.172L220.096 124.838L220.5 124.652C220.664 124.556 220.821 124.467 220.97 124.363C221.12 124.259 221.284 124.155 221.374 124.088C221.735 123.815 222.077 123.518 222.397 123.198C222.734 122.857 223.01 122.545 223.249 122.255C223.705 121.714 224.034 121.246 224.37 120.771C224.938 119.955 225.431 119.168 225.864 118.404C226.208 117.848 226.522 117.306 226.836 116.764C227.583 115.458 228.256 114.167 228.921 112.883C230.258 110.308 231.476 107.688 232.657 105.143C235.025 99.9485 237.229 94.7984 239.239 89.4629L228.196 85.1588ZM214.918 115.332H214.873L214.948 115.28L215.015 115.243L214.918 115.332Z" fill="#0278BE"/>
<path opacity="0.2" d="M227.621 94.4868C227 98.9393 225.939 118.397 225.939 118.397C225.941 118.414 225.941 118.431 225.939 118.449C225.476 119.191 224.983 120 224.445 120.816C224.109 121.283 223.78 121.751 223.324 122.3C223.698 112.935 227.621 94.4868 227.621 94.4868Z" fill="black"/>
<path d="M190.087 130.968C189.923 129.868 189.635 128.79 189.228 127.754C188.322 126.812 187.11 126.215 185.806 126.07C183.938 126.025 182.451 125.498 181.054 125.565C179.656 125.632 181.143 126.782 182.055 127.242C182.967 127.702 184.005 128.222 183.549 128.853C183.094 129.483 176.996 132.207 176.458 133.149C175.92 134.092 177.056 133.951 177.056 133.951C177.056 133.951 175.689 134.574 175.711 135.309C175.734 136.043 176.712 135.91 176.712 135.91C176.712 135.91 175.808 136.355 176.204 136.949C176.406 137.26 177.96 137.015 179.425 136.719C179.118 136.867 178.909 137.045 178.872 137.268C178.737 138.173 180.755 137.876 182.369 137.669C184.035 137.48 185.583 136.722 186.747 135.524C187.861 134.307 190.386 132.852 190.087 130.968ZM181.98 136.162C182.027 136.157 182.075 136.157 182.122 136.162H181.98Z" fill="#CE7A63"/>
<path d="M176.965 135.954C178.527 135.257 180.111 134.604 181.702 134.017C181.872 134.427 182.071 134.824 182.3 135.205C182.412 135.398 182.659 135.153 182.547 134.967C181.85 133.769 181.425 132.434 181.299 131.056C181.299 130.826 180.97 130.901 180.993 131.131C181.028 131.48 181.083 131.827 181.157 132.17C181.128 132.159 181.096 132.159 181.067 132.17C179.763 132.54 178.509 133.066 177.331 133.735C177.152 133.839 177.272 134.166 177.458 134.062C178.602 133.406 179.821 132.891 181.09 132.526C181.111 132.518 181.131 132.507 181.148 132.491C181.164 132.476 181.178 132.457 181.187 132.437C181.28 132.868 181.404 133.292 181.561 133.706C179.962 134.292 178.385 134.938 176.816 135.643C176.651 135.709 176.771 136.043 176.965 135.954Z" fill="#BA4D3C"/>
<path d="M182.953 132.363C183.446 131.608 184.18 131.039 185.037 130.745C185.894 130.452 186.825 130.452 187.682 130.745C187.869 130.819 187.989 130.478 187.802 130.403C185.964 129.728 184.014 130.403 182.698 132.162C182.681 132.178 182.667 132.198 182.658 132.219C182.648 132.241 182.644 132.265 182.645 132.288C182.645 132.312 182.651 132.335 182.662 132.356C182.673 132.378 182.688 132.396 182.707 132.411C182.725 132.426 182.747 132.436 182.77 132.442C182.793 132.447 182.817 132.448 182.841 132.443C182.864 132.439 182.886 132.429 182.906 132.415C182.925 132.401 182.941 132.383 182.953 132.363Z" fill="#BA4D3C"/>
<path d="M267.139 79.9346C270.793 84.6468 274.282 89.4555 277.727 94.3161C279.46 96.7353 281.157 99.1842 282.845 101.648C284.534 104.112 286.185 106.56 287.881 109.195L288.21 109.699L288.606 110.345L288.801 110.672L288.853 110.753L289.025 111.072L289.212 111.458C289.271 111.592 289.324 111.725 289.346 111.792C289.454 112.089 289.546 112.391 289.622 112.697L289.705 113.054L289.757 113.343C289.851 113.925 289.903 114.513 289.914 115.102C289.914 115.592 289.914 116.052 289.914 116.482C289.869 118.204 289.735 119.747 289.585 121.298C289.279 124.378 288.838 127.361 288.39 130.337C287.456 136.273 286.282 142.143 284.9 147.998L278.631 147.256C278.631 141.32 278.698 135.383 278.788 129.535C278.788 126.567 278.84 123.68 278.788 120.831C278.788 119.421 278.721 118.003 278.609 116.764C278.609 116.452 278.549 116.17 278.512 115.918C278.498 115.768 278.463 115.62 278.407 115.48V115.569C278.431 115.699 278.469 115.826 278.519 115.948L278.601 116.148C278.637 116.237 278.676 116.323 278.721 116.408L278.833 116.608V116.571L278.721 116.43L278.205 115.733C276.517 113.506 274.648 111.124 272.87 108.779C271.092 106.434 269.261 104.089 267.475 101.722C263.889 96.995 260.332 92.2457 256.902 87.3999L267.139 79.9346Z" fill="#0278BE"/>
<path d="M284.781 147.62C283.414 144.102 280.358 145 279.461 145.891C279.461 145.891 277.219 148.176 276.734 149.482C276.248 150.789 275.598 152.065 275.83 152.659C275.942 152.941 276.338 152.659 276.726 152.258C276.532 152.732 276.411 153.232 276.368 153.742C276.368 153.742 276.711 157.349 278.124 158.477C279.536 159.604 279.267 156.362 279.267 156.362C279.267 156.362 279.439 159.575 282.853 158.536C284.168 158.143 285.618 154.291 285.842 152.147C286.447 150.336 284.781 147.62 284.781 147.62Z" fill="#CE7A63"/>
<path d="M241.623 76.803C241.623 76.803 238.717 76.4913 237.14 78.25C236.512 80.4095 237.887 82.9771 239.382 85.5744L242.602 82.2721C242.834 82.2795 241.16 79.4522 241.623 76.803Z" fill="#0278BE"/>
<path opacity="0.2" d="M241.623 76.803C241.623 76.803 238.717 76.4913 237.14 78.25C236.512 80.4095 237.887 82.9771 239.382 85.5744L242.602 82.2721C242.834 82.2795 241.16 79.4522 241.623 76.803Z" fill="black"/>
<path d="M250.28 75.2298C248.905 78.3836 245.961 80.4689 242.613 82.2721L244.429 85.5744L255.637 77.2185C255.637 77.2185 252.424 74.3838 250.28 75.2298Z" fill="#0278BE"/>
<path opacity="0.2" d="M250.28 75.2298C248.905 78.3836 245.961 80.4689 242.613 82.2721L244.429 85.5744L255.637 77.2185C255.637 77.2185 252.424 74.3838 250.28 75.2298Z" fill="black"/>
<path opacity="0.2" d="M242.631 87.0363C242.631 87.1496 242.597 87.2604 242.534 87.3545C242.47 87.4486 242.38 87.5219 242.274 87.5649C242.169 87.6079 242.053 87.6188 241.941 87.5961C241.829 87.5735 241.726 87.5183 241.646 87.4376C241.566 87.357 241.512 87.2545 241.491 87.1432C241.469 87.0318 241.482 86.9167 241.526 86.8124C241.571 86.7082 241.646 86.6194 241.742 86.5576C241.837 86.4957 241.949 86.4634 242.063 86.4649C242.215 86.4668 242.359 86.5279 242.465 86.6349C242.572 86.7418 242.631 86.886 242.631 87.0363Z" fill="black"/>
<path opacity="0.2" d="M242.631 90.7616C242.631 90.875 242.597 90.9857 242.534 91.0798C242.47 91.174 242.38 91.2472 242.274 91.2902C242.169 91.3332 242.053 91.3441 241.941 91.3215C241.829 91.2988 241.726 91.2436 241.646 91.163C241.566 91.0823 241.512 90.9798 241.491 90.8685C241.469 90.7572 241.482 90.6421 241.526 90.5378C241.571 90.4335 241.646 90.3448 241.742 90.2829C241.837 90.221 241.949 90.1888 242.063 90.1902C242.215 90.1922 242.359 90.2532 242.465 90.3602C242.572 90.4671 242.631 90.6114 242.631 90.7616Z" fill="black"/>
<path opacity="0.2" d="M242.631 94.4867C242.631 94.6001 242.597 94.7108 242.534 94.805C242.47 94.8991 242.38 94.9723 242.274 95.0153C242.169 95.0583 242.053 95.0692 241.941 95.0466C241.829 95.0239 241.726 94.9687 241.646 94.8881C241.566 94.8074 241.512 94.7049 241.491 94.5936C241.469 94.4823 241.482 94.3672 241.526 94.2629C241.571 94.1586 241.646 94.0699 241.742 94.008C241.837 93.9461 241.949 93.9139 242.063 93.9153C242.215 93.9173 242.359 93.9783 242.465 94.0853C242.572 94.1922 242.631 94.3365 242.631 94.4867Z" fill="black"/>
<path d="M171.105 277.477L172.645 285.18H176.739L177.285 277.477H171.105Z" fill="#FFC3BD"/>
<path d="M176.199 284.2C176.404 283.942 176.678 283.745 176.99 283.634C177.302 283.522 177.639 283.5 177.963 283.569C178.949 283.896 180.204 285.499 180.204 285.499C180.204 285.499 185.554 287.205 186.996 287.295C188.439 287.384 189.709 288.192 190.247 291.005H172.77C172.77 291.005 172.082 284.734 171.97 283.658C171.858 282.582 173.584 283.925 173.584 283.925L176.199 284.2Z" fill="#263238"/>
<path d="M189.724 290.137H186.571L172.778 289.996C172.606 289.996 172.606 289.721 172.778 289.728H173.712C174.005 289.048 174.022 288.281 173.757 287.588C173.492 286.896 172.967 286.333 172.292 286.018C172.135 285.936 172.292 285.699 172.427 285.788C173.136 286.131 173.69 286.727 173.978 287.457C174.266 288.187 174.267 288.998 173.981 289.728C174.631 289.728 175.281 289.728 175.931 289.728L189.717 289.869C189.735 289.869 189.752 289.872 189.769 289.878C189.785 289.884 189.8 289.894 189.813 289.906C189.826 289.918 189.836 289.932 189.844 289.948C189.851 289.964 189.855 289.982 189.855 289.999C189.856 290.017 189.853 290.034 189.846 290.051C189.84 290.067 189.831 290.082 189.818 290.095C189.806 290.108 189.792 290.118 189.776 290.125C189.759 290.132 189.742 290.136 189.724 290.137Z" fill="#0278BE"/>
<path d="M179.614 286.59C179.74 286.386 179.908 286.212 180.106 286.078C180.304 285.943 180.529 285.852 180.765 285.81C181.002 285.768 181.244 285.776 181.477 285.834C181.71 285.891 181.929 285.997 182.117 286.144C182.259 286.248 182.394 286.011 182.252 285.907C182.032 285.742 181.78 285.624 181.512 285.562C181.243 285.5 180.965 285.495 180.694 285.547C180.424 285.598 180.167 285.706 179.941 285.863C179.715 286.019 179.525 286.222 179.383 286.456C179.286 286.597 179.517 286.731 179.614 286.59Z" fill="white"/>
<path d="M181.125 287.042C181.25 286.839 181.418 286.665 181.616 286.53C181.815 286.396 182.04 286.305 182.276 286.263C182.512 286.221 182.755 286.229 182.988 286.286C183.221 286.344 183.439 286.45 183.628 286.597C183.77 286.701 183.904 286.463 183.762 286.359C183.543 286.194 183.29 286.077 183.022 286.015C182.754 285.953 182.475 285.947 182.205 285.999C181.934 286.051 181.677 286.159 181.452 286.315C181.226 286.472 181.035 286.674 180.893 286.909C180.789 287.05 181.028 287.183 181.125 287.042Z" fill="white"/>
<path d="M182.684 287.495C182.809 287.291 182.976 287.115 183.175 286.98C183.373 286.845 183.598 286.754 183.835 286.712C184.071 286.669 184.314 286.678 184.548 286.736C184.781 286.794 184.999 286.901 185.187 287.05C185.322 287.153 185.456 286.916 185.322 286.812C185.102 286.647 184.849 286.529 184.58 286.467C184.311 286.405 184.032 286.4 183.761 286.451C183.489 286.503 183.232 286.611 183.006 286.768C182.779 286.924 182.588 287.127 182.445 287.361C182.348 287.502 182.58 287.636 182.684 287.495Z" fill="white"/>
<path d="M134.438 277.529L135.289 285.18H139.384L140.609 277.529H134.438Z" fill="#FFC3BD"/>
<path d="M138.844 284.2C139.049 283.942 139.323 283.745 139.635 283.634C139.946 283.522 140.283 283.5 140.607 283.569C141.594 283.896 142.849 285.499 142.849 285.499C142.849 285.499 148.199 287.205 149.641 287.295C151.083 287.384 152.346 288.192 152.891 291.005H135.414C135.414 291.005 134.727 284.734 134.615 283.658C134.503 282.582 136.229 283.925 136.229 283.925L138.844 284.2Z" fill="#263238"/>
<path d="M152.4 290.137H149.247L135.454 289.996C135.418 289.996 135.384 289.982 135.358 289.956C135.333 289.931 135.319 289.897 135.319 289.862C135.319 289.827 135.333 289.793 135.358 289.768C135.384 289.743 135.418 289.728 135.454 289.728H136.388C136.681 289.048 136.697 288.281 136.432 287.588C136.168 286.896 135.643 286.333 134.968 286.018C134.811 285.936 134.968 285.699 135.102 285.788C135.812 286.131 136.366 286.727 136.654 287.457C136.942 288.187 136.943 288.998 136.657 289.728C137.307 289.728 137.957 289.728 138.607 289.728L152.393 289.869C152.41 289.869 152.428 289.872 152.445 289.878C152.461 289.884 152.476 289.894 152.489 289.906C152.502 289.918 152.512 289.932 152.519 289.948C152.527 289.964 152.531 289.982 152.531 289.999C152.531 290.017 152.528 290.034 152.522 290.051C152.516 290.067 152.506 290.082 152.494 290.095C152.482 290.108 152.468 290.118 152.451 290.125C152.435 290.132 152.418 290.136 152.4 290.137Z" fill="#0278BE"/>
<path d="M142.259 286.59C142.385 286.386 142.552 286.212 142.75 286.078C142.949 285.943 143.174 285.852 143.41 285.81C143.646 285.768 143.889 285.776 144.122 285.834C144.355 285.891 144.573 285.997 144.762 286.144C144.904 286.248 145.038 286.011 144.896 285.907C144.677 285.742 144.425 285.624 144.156 285.562C143.888 285.5 143.609 285.495 143.339 285.547C143.068 285.598 142.812 285.706 142.586 285.863C142.36 286.019 142.169 286.222 142.027 286.456C141.93 286.597 142.162 286.731 142.259 286.59Z" fill="white"/>
<path d="M143.769 287.042C143.895 286.839 144.063 286.665 144.261 286.53C144.459 286.396 144.684 286.305 144.92 286.263C145.157 286.221 145.399 286.229 145.632 286.286C145.865 286.344 146.084 286.45 146.272 286.597C146.414 286.701 146.549 286.463 146.407 286.359C146.187 286.194 145.935 286.077 145.667 286.015C145.398 285.953 145.12 285.947 144.849 285.999C144.579 286.051 144.322 286.159 144.096 286.315C143.87 286.472 143.68 286.674 143.538 286.909C143.433 287.05 143.672 287.183 143.769 287.042Z" fill="white"/>
<path d="M145.329 287.495C145.454 287.292 145.621 287.117 145.818 286.983C146.016 286.849 146.24 286.758 146.476 286.716C146.712 286.674 146.954 286.682 147.186 286.739C147.419 286.797 147.636 286.902 147.824 287.05C147.966 287.153 148.101 286.916 147.966 286.812C147.746 286.647 147.493 286.529 147.224 286.467C146.955 286.405 146.676 286.4 146.405 286.451C146.134 286.503 145.877 286.611 145.65 286.768C145.424 286.924 145.233 287.127 145.09 287.361C144.993 287.502 145.224 287.636 145.329 287.495Z" fill="white"/>
<path d="M169.741 277.744H178.782C179.567 266.182 181.771 227.846 180.03 208.879C181.293 182.565 177.243 147.627 177.243 147.627H148.625C148.625 147.627 150.725 171.01 160.154 208.478C160.05 238.213 167.35 267.911 169.741 277.744Z" fill="#0278BE"/>
<path opacity="0.2" d="M169.741 277.744H178.782C179.567 266.182 181.771 227.846 180.03 208.879C181.293 182.565 177.243 147.627 177.243 147.627H148.625C148.625 147.627 150.725 171.01 160.154 208.478C160.05 238.213 167.35 267.911 169.741 277.744Z" fill="white"/>
<path opacity="0.2" d="M158.574 202.2C163.752 181.192 159.202 153.965 159.202 153.965L154.719 185.088L158.574 202.2Z" fill="black"/>
<path d="M168.668 277.521L169.333 280.935L179.704 280.89L179.712 277.477L168.668 277.521Z" fill="#263238"/>
<path d="M133.143 278.078H142.192C145.412 266.205 151.905 227.921 152.922 208.953C158.047 182.631 160.498 147.627 160.498 147.627H131.843C131.843 147.627 129.175 171.277 133.098 208.767C132.336 241.464 132.934 267.911 133.143 278.078Z" fill="#0278BE"/>
<path opacity="0.2" d="M133.143 278.078H142.192C145.412 266.205 151.905 227.921 152.922 208.953C158.047 182.631 160.498 147.627 160.498 147.627H131.843C131.843 147.627 129.175 171.277 133.098 208.767C132.336 241.464 132.934 267.911 133.143 278.078Z" fill="white"/>
<path d="M132.351 277.514L132.336 280.898H142.789L143.335 277.514H132.351Z" fill="#263238"/>
<path d="M180.986 151.924C161.111 159.508 128.734 154.009 128.734 154.009C128.951 148.599 129.153 140.229 129.265 131.108C129.265 128.66 129.317 126.159 129.332 123.643C129.332 118.82 129.332 113.952 129.332 109.358C129.332 108.987 129.332 108.616 129.332 108.252C129.332 106.026 129.272 103.8 129.228 101.752C129.228 101.499 129.228 101.247 129.228 101.01C129.138 96.9505 128.988 93.3588 128.802 90.4869C128.435 85.0771 131.402 80.0384 136.789 79.1405C138.426 78.8659 140.197 78.621 142.02 78.3984C142.453 78.3465 142.901 78.3094 143.35 78.2648C148.606 77.752 153.888 77.5612 159.168 77.6934H159.915H160.319H160.984C163.225 77.7825 165.422 77.9532 167.357 78.2055C171.751 78.7694 175.651 82.2127 175.726 86.6207C175.793 90.6576 176.189 99.1841 176.765 108.802C176.989 112.438 177.235 116.222 177.512 120.014C178.513 134.967 179.866 149.327 180.986 151.924Z" fill="#263238"/>
<path opacity="0.2" d="M140.408 94.4868C140.408 94.4868 139.982 115.443 141.387 117.989C142.792 120.534 169.938 128.229 169.938 128.229C156.346 126.396 143.203 124.341 136.246 119.198L140.408 94.4868Z" fill="black"/>
<path opacity="0.2" d="M170.833 134.389C155.014 138.099 136.514 133.335 129.266 131.109C129.266 128.66 129.318 126.159 129.333 123.643C140.474 131.828 170.833 134.389 170.833 134.389Z" fill="black"/>
<path d="M157.394 90.5315L154.727 119.881L160.062 130.537L164.224 118.886L159.912 90.5315H157.394Z" fill="#0278BE"/>
<path d="M158.029 84.2239L155.152 88.4612L158.537 92.3423L161.915 87.3406L158.029 84.2239Z" fill="#0278BE"/>
<path d="M163.877 49.0565C162.343 48.4967 160.71 48.2566 159.078 48.3511C157.447 48.4456 155.853 48.8726 154.395 49.6057C152.482 50.5926 150.823 52.1065 150.868 54.3772C150.958 59.6683 152.445 68.5213 152.445 68.5213L170.437 60.4475C170.437 60.4475 171.745 55.995 169.638 53.1825C168.199 51.2433 166.184 49.8005 163.877 49.0565Z" fill="#263238"/>
<path d="M157.161 48.6112C157.161 48.6112 154.725 47.268 152.289 49.7689C150.249 51.8541 151.138 58.6738 151.138 58.6738L157.161 48.6112Z" fill="#263238"/>
<path d="M155.355 49.1679C155.355 49.1679 156.058 45.1309 163.478 46.3405C170.897 47.5501 176.785 53.6352 174.08 56.8187C171.376 60.0022 163.478 54.778 163.478 54.778L155.355 49.1679Z" fill="#263238"/>
<path d="M160.305 75.1036C160.308 75.1233 160.308 75.1433 160.305 75.163L159.177 78.0868C159.045 78.6872 158.968 79.2981 158.945 79.9123C158.934 80.4079 158.956 80.9038 159.013 81.3964C159.58 82.376 159.67 84.4687 157.301 84.2238C154.313 83.9195 149.232 79.2518 149.172 77.9161C151.003 74.0053 152.744 69.115 152.908 65.2042L155.897 69.2411L160.305 75.1036Z" fill="#FFC3BD"/>
<path d="M158.027 84.2238C158.737 82.6654 158.73 80.7954 158.976 79.1183C159.042 78.4724 159.211 77.8411 159.477 77.2482C159.477 77.2482 161.524 76.7733 162.727 77.8493C163.16 81.1013 162.864 84.4082 161.861 87.5335L158.027 84.2238Z" fill="#263238"/>
<path d="M146.672 77.9977C146.672 77.9977 148.331 74.829 150.602 74.4431C150.879 78.2648 152.448 81.2999 158.029 84.2237L154.727 89.0844C150.124 85.3517 147.554 81.6636 146.672 77.9977Z" fill="#263238"/>
<g opacity="0.2">
<path d="M160.277 75.1704L159.149 78.0942C157.363 77.0479 155.607 75.0072 155.376 72.9739C155.219 71.4897 156.011 70.2504 156.601 70.2356L160.277 75.1704Z" fill="black"/>
</g>
<path d="M168.547 69.6642C168.293 70.3024 168.024 70.9257 167.748 71.5417C165.245 76.9589 158.199 76.7362 154.298 72.1056C153.945 71.6885 153.625 71.2443 153.342 70.7773C150.973 66.874 151.967 64.1728 153.073 57.9244C153.314 56.4696 153.926 55.1003 154.85 53.9462C155.774 52.7922 156.98 51.8918 158.353 51.3305C159.725 50.7693 161.22 50.5657 162.694 50.7392C164.169 50.9126 165.574 51.4574 166.777 52.3217C171.79 55.8466 171.043 63.312 168.547 69.6642Z" fill="#FFC3BD"/>
<path d="M156.705 60.3139C156.705 60.3139 156.668 65.5085 158.722 66.2505C160.777 66.9926 162.309 65.2636 164.565 67.423C165.019 67.2067 165.523 67.116 166.024 67.1604C166.525 67.2048 167.005 67.3827 167.412 67.6753C168.772 68.692 168.548 69.3005 168.548 69.3005C168.548 69.3005 168.025 77.0849 160.852 76.1796C153.679 75.2743 152.812 68.2913 153.305 64.5809L154.725 59.9725L156.705 60.3139Z" fill="#263238"/>
<path d="M161.366 67.5938C162.826 68.0914 164.31 68.5149 165.812 68.8627C165.685 69.1505 165.5 69.4094 165.268 69.6234C165.037 69.8374 164.763 70.002 164.465 70.107C164.167 70.212 163.85 70.2552 163.534 70.2339C163.218 70.2126 162.911 70.1273 162.629 69.9832C161.187 69.3673 161.366 67.5938 161.366 67.5938Z" fill="white"/>
<path d="M167.306 51.7281C164.504 49.3831 158.481 48.3219 155.709 50.986C152.937 53.65 152.922 58.4513 152.922 58.4513C152.889 58.9697 153.054 59.4814 153.385 59.8835C153.455 59.9551 153.515 60.0349 153.565 60.121L156.688 60.6256C156.935 59.3492 157.435 57.0265 158.324 56.9152C159.968 56.6926 158.848 54.8967 159.206 53.8875C160.349 50.6075 169.323 52.8486 170.354 57.8651C170.369 57.8873 170.123 54.0805 167.306 51.7281Z" fill="#263238"/>
<path d="M149.417 61.3825C149.502 62.9757 150.216 64.4712 151.404 65.5456C152.996 66.9481 154.722 65.7608 155.058 63.7868C155.364 62.0133 154.909 59.1414 152.936 58.4884C150.963 57.8353 149.342 59.4308 149.417 61.3825Z" fill="#FFC3BD"/>
<path d="M162.277 61.7461C162.158 62.2285 162.322 62.6737 162.636 62.7554C162.95 62.837 163.301 62.5031 163.421 62.0133C163.54 61.5235 163.368 61.0857 163.054 61.0115C162.741 60.9373 162.389 61.2638 162.307 61.7536" fill="#263238"/>
<path d="M167.375 62.9408C167.255 63.4232 167.42 63.8684 167.734 63.9501C168.048 64.0317 168.399 63.6978 168.518 63.208C168.638 62.7182 168.466 62.2804 168.152 62.2062C167.838 62.132 167.487 62.4585 167.405 62.9483" fill="#263238"/>
<path d="M169.548 61.5012C169.505 61.4897 169.466 61.4672 169.435 61.436C169.403 61.4047 169.38 61.3658 169.369 61.3231C169.331 61.1495 169.258 60.9855 169.154 60.8412C169.05 60.6969 168.917 60.5755 168.764 60.4845C168.441 60.328 168.07 60.2962 167.725 60.3955C167.661 60.4145 167.591 60.4081 167.531 60.3777C167.472 60.3473 167.426 60.2952 167.404 60.2322C167.386 60.1683 167.394 60.1002 167.424 60.0412C167.454 59.9823 167.506 59.9366 167.568 59.9131C168.046 59.7812 168.556 59.8261 169.003 60.0393C169.215 60.1625 169.4 60.3273 169.547 60.5238C169.693 60.7202 169.798 60.9442 169.855 61.1821C169.873 61.2461 169.865 61.3147 169.833 61.3731C169.801 61.4315 169.747 61.4748 169.683 61.4938C169.639 61.5072 169.593 61.5098 169.548 61.5012Z" fill="#263238"/>
<path d="M161.239 59.5199C161.198 59.5118 161.159 59.4939 161.127 59.468C161.076 59.4166 161.047 59.3473 161.047 59.275C161.047 59.2028 161.076 59.1335 161.127 59.0821C161.477 58.6744 161.967 58.41 162.502 58.34C162.768 58.3256 163.035 58.3656 163.286 58.4575C163.536 58.5494 163.765 58.6912 163.959 58.8743C164.01 58.9257 164.038 58.995 164.038 59.0673C164.038 59.1395 164.01 59.2088 163.959 59.2602C163.934 59.286 163.905 59.3066 163.872 59.3207C163.839 59.3347 163.804 59.342 163.768 59.342C163.732 59.342 163.697 59.3347 163.664 59.3207C163.631 59.3066 163.602 59.286 163.577 59.2602C163.439 59.1252 163.274 59.0194 163.093 58.9493C162.912 58.8791 162.718 58.8461 162.524 58.852C162.138 58.9027 161.784 59.093 161.53 59.3863C161.501 59.4352 161.457 59.4741 161.405 59.4979C161.353 59.5218 161.295 59.5294 161.239 59.5199Z" fill="#263238"/>
<path d="M165.635 61.8798C165.785 63.168 166.099 64.4322 166.569 65.6421C167.249 67.1857 164.566 66.6068 164.566 66.6068L165.635 61.8798Z" fill="#ED847E"/>
<path d="M185.76 133.016C184.759 131.294 181.105 129.721 181.105 129.721C180.117 129.559 179.112 129.531 178.116 129.639H178.258C178.258 129.639 180.649 128.274 180.051 127.947C179.454 127.621 177.989 128.148 176.532 128.452C175.4 128.787 174.346 129.342 173.431 130.084C172.363 130.73 171.743 132.726 172.497 135.368C172.497 135.368 175.546 138.247 177.728 138.648C179.872 139.168 184.251 139.435 185.2 138.106C187.247 135.316 183.474 133.357 183.474 133.357C183.474 133.357 186.731 134.737 185.76 133.016Z" fill="#FFC3BD"/>
<path d="M172.239 128.816L171.387 134.626C165.177 134.292 159.05 133.736 152.886 132.919C149.8 132.519 146.722 132.029 143.606 131.435C142.044 131.146 140.482 130.812 138.883 130.418C137.184 130.031 135.512 129.535 133.877 128.934C133.421 128.756 132.943 128.556 132.42 128.304C131.785 127.991 131.182 127.618 130.619 127.19C130.152 126.838 129.726 126.435 129.349 125.988C129.062 125.635 128.812 125.255 128.602 124.853C128.46 124.584 128.335 124.306 128.228 124.022L128.071 123.532L128.034 123.369C127.874 122.727 127.759 122.075 127.69 121.417C127.481 119.465 127.444 117.914 127.406 116.297C127.406 113.113 127.406 110.033 127.548 106.946C127.757 100.78 128.206 94.7095 128.833 88.5873L140.744 89.6188C140.572 92.5871 140.296 95.6222 140.101 98.6202L139.399 107.607C139.175 110.575 138.928 113.544 138.801 116.467C138.749 117.484 138.704 118.53 138.697 119.436C139.608 119.859 140.707 120.274 141.805 120.653C143.15 121.113 144.547 121.543 145.959 121.974C148.784 122.827 151.69 123.599 154.605 124.37C160.418 125.862 166.351 127.346 172.239 128.816Z" fill="#263238"/>
<path d="M224.713 90.1011C220.701 93.8634 216.531 97.3958 212.22 100.802C210.076 102.524 207.864 104.164 205.585 105.818C204.427 106.62 203.261 107.421 201.939 108.23C201.602 108.431 201.259 108.631 200.877 108.839C200.429 109.093 199.965 109.318 199.488 109.514C199.05 109.69 198.597 109.829 198.135 109.93L197.829 109.981L197.425 110.026C196.998 110.072 196.567 110.072 196.14 110.026H195.923L195.617 109.967C195.42 109.921 195.225 109.864 195.034 109.796H194.93L194.72 109.722C194.466 109.625 194.13 109.507 193.936 109.417L193.293 109.135C191.702 108.393 190.461 107.703 189.191 106.983C187.921 106.264 186.725 105.544 185.545 104.757C183.184 103.273 180.867 101.789 178.611 100.179L178.252 99.9337L176.167 98.4495C172.499 95.8522 168.934 93.1733 165.438 90.3237L172.745 80.929C177.101 84.016 181.413 87.2738 185.679 90.4796C187.824 92.0602 189.938 93.6853 192.068 95.2215C193.136 95.9635 194.182 96.765 195.221 97.4922C195.968 98.0117 196.716 98.5386 197.463 98.9764C198.412 98.5386 199.42 98.0191 200.452 97.4922C202.79 96.3123 205.137 95.0063 207.513 93.7373C212.25 91.1771 217.04 88.5427 221.911 86.1384L224.713 90.1011Z" fill="#263238"/>
<path opacity="0.2" d="M178.255 99.8669L176.17 98.3827L175.527 88.2533L178.255 99.8669Z" fill="black"/>
<path d="M224.238 90.1901C224.657 90.1596 225.064 90.0421 225.433 89.8452C225.802 89.6483 226.126 89.3765 226.383 89.0472C227.623 87.0362 229.581 86.6652 230.365 86.2348C231.15 85.8043 230.253 84.4834 228.266 84.9064C228.266 84.9064 229.118 82.1533 229.805 81.4854C230.492 80.8175 234.109 79.3928 234.042 78.8807C233.974 78.3687 231.172 79.1998 229.558 79.9345C227.944 80.6691 224.612 84.7432 221.623 86.2051C221.601 86.2051 220.42 89.2921 224.238 90.1901Z" fill="#FFC3BD"/>
<path d="M82.0287 86.9768C82.6787 91.8671 83.1644 96.7797 83.5978 101.692C83.8294 104.141 84.0013 106.605 84.2105 109.046L84.487 112.712L84.756 115.977C84.7938 116.358 84.874 116.734 84.9951 117.098C85.1296 117.588 85.294 118.137 85.4733 118.679C85.8245 119.769 86.2205 120.905 86.6315 122.025C87.4235 124.304 88.3052 126.582 89.1421 128.89C90.8606 133.483 92.6016 138.121 94.2231 142.796L88.9179 145.408C86.1383 141.223 83.5679 136.956 81.0947 132.585C79.8468 130.411 78.6737 128.192 77.5006 125.906C76.9178 124.771 76.3574 123.613 75.8044 122.411C75.528 121.803 75.2515 121.194 74.9825 120.519C74.6449 119.73 74.3701 118.916 74.1606 118.085L74.056 117.64L74.0112 117.365L73.914 116.86L73.7422 115.888L73.4283 114.018L72.8306 110.308C72.4719 107.844 72.0834 105.395 71.777 102.939C71.1195 98.0264 70.5366 93.1212 70.1406 88.1864L82.0287 86.9768Z" fill="#0278BE"/>
<path d="M88.8883 115.825L103.552 133.015C103.728 133.222 103.815 133.491 103.793 133.761C103.77 134.032 103.64 134.283 103.431 134.458L79.053 154.969C78.8444 155.145 78.574 155.231 78.3015 155.208C78.0289 155.186 77.7765 155.057 77.5997 154.85L62.9362 137.66C62.7608 137.454 62.6747 137.187 62.6971 136.919C62.7195 136.65 62.8485 136.401 63.0556 136.227L87.4398 115.711C87.6469 115.537 87.9153 115.451 88.1859 115.474C88.4565 115.496 88.7071 115.624 88.8825 115.83L88.8883 115.825Z" fill="#263238"/>
<path opacity="0.2" d="M88.8883 115.825L103.552 133.015C103.728 133.222 103.815 133.491 103.793 133.761C103.77 134.032 103.64 134.283 103.431 134.458L79.053 154.969C78.8444 155.145 78.574 155.231 78.3015 155.208C78.0289 155.186 77.7765 155.057 77.5997 154.85L62.9362 137.66C62.7608 137.454 62.6747 137.187 62.6971 136.919C62.7195 136.65 62.8485 136.401 63.0556 136.227L87.4398 115.711C87.6469 115.537 87.9153 115.451 88.1859 115.474C88.4565 115.496 88.7071 115.624 88.8825 115.83L88.8883 115.825Z" fill="white"/>
<path d="M86.4604 135.324C86.4619 135.956 86.2743 136.576 85.9213 137.102C85.5684 137.629 85.0659 138.041 84.4776 138.284C83.8892 138.527 83.2415 138.591 82.6163 138.469C81.9911 138.346 81.4166 138.042 80.9654 137.595C80.5143 137.148 80.2068 136.578 80.082 135.958C79.9571 135.337 80.0204 134.694 80.264 134.109C80.5075 133.524 80.9203 133.024 81.45 132.672C81.9798 132.32 82.6027 132.133 83.24 132.133C84.0928 132.133 84.9108 132.469 85.5146 133.067C86.1183 133.665 86.4585 134.477 86.4604 135.324Z" fill="#263238"/>
<path d="M67.0239 49.2939C67.0239 49.2939 61.3676 49.2271 59.9927 55.5645C58.5655 62.169 58.1471 59.5717 55.106 62.7182C52.0648 65.8646 55.3899 70.139 50.1445 72.4988C50.1445 72.4988 54.5157 76.7138 63.0189 75.059C71.5221 73.4041 70.334 79.415 81.3105 77.827C80.8304 76.8691 80.6384 75.794 80.7577 74.7306C80.877 73.6672 81.3024 72.6604 81.983 71.8309C84.374 68.9962 82.5957 66.9258 82.6928 63.9129C82.7899 60.9001 83.5745 54.3475 79.4051 51.5276C75.2357 48.7077 71.5595 49.9395 71.5595 49.9395C70.1173 49.3822 68.5656 49.1613 67.0239 49.2939Z" fill="#263238"/>
<path d="M81.7969 276.015L83.9339 284.771H88.5815L88.7907 276.015H81.7969Z" fill="#FF8B7B"/>
<path d="M102.06 290.968C101.813 288.111 100.565 287.257 98.9885 287.168C97.4119 287.079 91.5837 285.142 91.5837 285.142C91.5837 285.142 90.3732 283.324 89.3421 282.961C88.3109 282.597 87.2499 283.666 87.2499 283.666L84.3358 283.317C84.3358 283.317 83.4616 282.011 82.8414 283.154C81.9149 284.92 82.0269 289.832 82.0942 290.968H102.06Z" fill="#0278BE"/>
<path d="M101.686 290.218H98.062L82.2213 290.137C82.0195 290.137 82.0643 289.832 82.2586 289.84H83.3346V289.803C83.5623 289.464 83.716 289.082 83.7858 288.68C83.8557 288.279 83.8402 287.868 83.7402 287.473C83.6402 287.078 83.4581 286.708 83.2055 286.387C82.9529 286.066 82.6354 285.801 82.2736 285.61C82.1092 285.521 82.2736 285.254 82.4604 285.35C82.8416 285.556 83.1767 285.837 83.445 286.176C83.7134 286.515 83.9095 286.905 84.0213 287.321C84.1332 287.738 84.1584 288.173 84.0956 288.599C84.0328 289.026 83.8832 289.435 83.6559 289.803H85.8975L101.731 289.884C101.925 289.921 101.888 290.226 101.686 290.218Z" fill="black"/>
<path d="M90.712 286.352C91.534 285.387 92.737 285.12 93.6112 285.84C93.7532 285.959 93.9474 285.699 93.8055 285.58C92.7967 284.749 91.3995 285.113 90.4655 286.196C90.331 286.359 90.5701 286.508 90.712 286.352Z" fill="white"/>
<path d="M92.348 286.886C93.1699 285.922 94.3729 285.654 95.2472 286.374C95.3891 286.493 95.5834 286.226 95.4414 286.114C94.4327 285.283 93.0354 285.64 92.1014 286.73C91.9669 286.894 92.2135 287.042 92.348 286.886Z" fill="white"/>
<path d="M94.0357 287.398C94.8651 286.434 96.0681 286.159 96.9423 286.886C97.0843 287.005 97.2711 286.738 97.1366 286.626C96.1279 285.795 94.7306 286.152 93.7966 287.242C93.6546 287.398 93.9012 287.554 94.0357 287.398Z" fill="white"/>
<path d="M62.585 161.296C63.9543 173.051 66.0126 184.717 68.7494 196.233C69.7457 200.503 70.8541 205.054 72.0745 209.888C68.6598 237.924 82.0347 278.419 82.0347 278.419L89.2005 278.263C89.2005 278.263 90.0971 232.996 89.2527 209.309C87.8779 170.491 83.1107 133.483 83.1107 133.483L63.6012 133.409C63.6012 133.409 60.2313 139.271 62.585 161.296Z" fill="#263238"/>
<path opacity="0.2" d="M62.5859 161.296C63.9553 173.051 66.0136 184.717 68.7504 196.234C72.8525 180.702 65.4253 147.568 65.4253 147.568L62.5859 161.296Z" fill="black"/>
<path d="M90.024 279.94L90.2482 276.89H80.6914L81.2369 279.94H90.024Z" fill="#263238"/>
<path d="M52.0859 276.015L54.2304 284.771H58.8706L59.0873 276.015H52.0859Z" fill="#FF8B7B"/>
<path d="M60.4928 279.94L60.7169 276.89H51.1602L51.6981 279.94H60.4928Z" fill="#263238"/>
<path d="M72.3604 290.968C72.1063 288.111 70.866 287.257 69.2894 287.168C67.7128 287.079 61.8771 285.142 61.8771 285.142C61.8771 285.142 60.6666 283.324 59.6355 282.961C58.6043 282.597 57.5358 283.666 57.5358 283.666L54.6217 283.317C54.6217 283.317 53.7475 282.011 53.1273 283.154C52.1933 284.92 52.3054 289.832 52.3801 290.968H72.3604Z" fill="#0278BE"/>
<path d="M71.977 290.218H68.3605L52.5198 290.137C52.3106 290.137 52.3554 289.832 52.5571 289.84H53.6256V289.803C53.8449 289.464 53.9912 289.084 54.0553 288.687C54.1194 288.289 54.0999 287.883 53.9982 287.493C53.8964 287.103 53.7145 286.739 53.4639 286.422C53.2133 286.106 52.8995 285.845 52.5422 285.654C52.3778 285.565 52.5422 285.298 52.7365 285.395C53.1179 285.601 53.453 285.882 53.7212 286.221C53.9894 286.56 54.1852 286.95 54.2964 287.367C54.4076 287.784 54.432 288.219 54.368 288.645C54.3041 289.072 54.1532 289.481 53.9245 289.847H56.1661L72.0069 289.929C72.2236 289.921 72.1788 290.226 71.977 290.218Z" fill="black"/>
<path d="M61.0044 286.352C61.8264 285.387 63.0294 285.12 63.9111 285.84C64.053 285.959 64.2398 285.699 64.0979 285.58C63.0966 284.749 61.6919 285.113 60.7653 286.196C60.6234 286.359 60.8699 286.508 61.0044 286.352Z" fill="white"/>
<path d="M62.6412 286.886C63.4631 285.922 64.6661 285.654 65.5478 286.374C65.6898 286.493 65.8766 286.226 65.7346 286.114C64.7333 285.283 63.3286 285.64 62.402 286.73C62.2601 286.894 62.5067 287.042 62.6412 286.886Z" fill="white"/>
<path d="M64.3363 287.398C65.1582 286.434 66.3612 286.159 67.2354 286.886C67.3774 287.005 67.5717 286.738 67.4297 286.626C66.421 285.795 65.0237 286.152 64.0897 287.242C63.9552 287.398 64.2018 287.554 64.3363 287.398Z" fill="white"/>
<path d="M69.3052 135.004C69.3052 135.004 65.6887 188.59 64.4633 209.918C63.1034 234.25 60.0324 275.725 59.6214 278.441H52.239C53.0834 279.265 42.7346 242.035 46.9114 211.728C42.9961 182.735 38.2364 161.512 44.3709 134.21L69.3052 135.004Z" fill="#263238"/>
<path d="M42.1211 136.296C57.6854 141.401 83.8376 139.724 83.8376 136.184C83.8376 126.218 80.2809 115.005 81.2373 108.512C88.5973 103.399 82.8438 98.7759 83.4789 91.1992C83.6995 88.4035 82.8587 85.627 81.1219 83.416C79.3851 81.205 76.8781 79.7194 74.094 79.2517C72.7715 79.0291 71.3891 78.8064 70.0367 78.6358C69.7602 78.5912 69.4838 78.5615 69.2148 78.5319C65.6037 78.1234 61.9693 77.9523 58.3355 78.0198C57.0054 78.0198 55.6306 78.0198 54.1885 78.0644C52.7464 78.1089 51.3566 78.146 50.0265 78.2425C48.8562 78.3244 47.7163 78.6498 46.6809 79.1975C45.6454 79.7453 44.7374 80.5031 44.0159 81.4219C43.2944 82.3407 42.7755 83.3999 42.4928 84.5307C42.2102 85.6615 42.1701 86.8388 42.3751 87.986C43.5565 94.6372 44.3053 101.357 44.6168 108.104C44.6765 109.499 44.7288 110.842 44.7438 112.163C44.8392 116.783 44.6271 121.404 44.1087 125.995C44.1087 126.077 44.1087 126.166 44.1087 126.248C43.8845 128.073 43.613 129.758 43.2942 131.301C43.1971 131.791 43.0925 132.251 42.9804 132.704C42.7562 133.661 42.3826 135.346 42.1211 136.296Z" fill="#0278BE"/>
<path opacity="0.2" d="M83.8379 136.184C83.8379 139.724 57.6857 141.379 42.1289 136.296C42.383 135.346 42.7566 133.661 42.9807 132.704C43.0928 132.251 43.1974 131.791 43.2945 131.301C43.6134 129.758 43.8848 128.073 44.109 126.248C44.109 126.166 44.109 126.077 44.109 125.995C44.6309 121.404 44.8505 116.783 44.7665 112.163C44.7665 110.842 44.7068 109.499 44.6395 108.104C44.5499 106.063 44.4154 103.963 44.2136 101.796C44.0941 100.401 43.9521 98.9762 43.7802 97.5366C43.4216 94.4495 42.9583 91.2586 42.3755 87.986C42.1704 86.8388 42.2105 85.6615 42.4932 84.5307C42.7758 83.3999 43.2948 82.3407 44.0163 81.4219C44.7378 80.5031 45.6457 79.7453 46.6812 79.1975C47.7167 78.6498 48.8566 78.3244 50.0269 78.2425C51.3569 78.146 52.7542 78.0866 54.1888 78.0644C55.6234 78.0421 57.0058 78.0198 58.3358 78.0198C61.9696 77.9523 65.604 78.1234 69.2151 78.5319C69.4916 78.5319 69.7606 78.5912 70.037 78.6358C71.3895 78.8064 72.7718 79.0291 74.1018 79.2517C76.8831 79.7193 79.388 81.2026 81.1244 83.4105C82.8608 85.6183 83.7034 88.3911 83.4868 91.1844C82.8516 98.761 88.5976 103.384 81.2451 108.497C80.2887 115.005 83.8379 126.218 83.8379 136.184Z" fill="white"/>
<path opacity="0.2" d="M51.9859 90.1826L44.2224 101.796C44.1029 100.401 43.9609 98.9763 43.7891 97.5367L51.9859 90.1826Z" fill="black"/>
<path d="M70.043 91.2809C70.043 91.4127 70.0957 91.5392 70.1896 91.6324C70.2835 91.7257 70.4108 91.7781 70.5436 91.7781C70.6764 91.7781 70.8037 91.7257 70.8976 91.6324C70.9915 91.5392 71.0442 91.4127 71.0442 91.2809C71.0442 91.149 70.9915 91.0226 70.8976 90.9293C70.8037 90.8361 70.6764 90.7837 70.5436 90.7837C70.4108 90.7837 70.2835 90.8361 70.1896 90.9293C70.0957 91.0226 70.043 91.149 70.043 91.2809Z" fill="#0278BE"/>
<path d="M70.8483 96.2306C71.1248 96.2306 71.3489 96.008 71.3489 95.7334C71.3489 95.4588 71.1248 95.2362 70.8483 95.2362C70.5718 95.2362 70.3477 95.4588 70.3477 95.7334C70.3477 96.008 70.5718 96.2306 70.8483 96.2306Z" fill="#0278BE"/>
<path d="M70.8483 100.765C71.1248 100.765 71.3489 100.542 71.3489 100.268C71.3489 99.993 71.1248 99.7704 70.8483 99.7704C70.5718 99.7704 70.3477 99.993 70.3477 100.268C70.3477 100.542 70.5718 100.765 70.8483 100.765Z" fill="#0278BE"/>
<path d="M58.3438 78.0199C62.0275 84.4538 70.6951 88.3052 70.6951 88.3052C71.8682 85.4185 71.502 80.8027 70.045 78.6581C69.7685 78.6136 69.4921 78.5839 69.2231 78.5542C65.6124 78.1383 61.9781 77.9598 58.3438 78.0199Z" fill="#FF8B7B"/>
<path d="M70.1722 80.5504C70.2072 80.6524 70.2549 80.7496 70.3142 80.8398C71.562 82.8064 70.2021 84.5948 68.0725 84.4464C67.8664 84.4318 67.6616 84.402 67.4598 84.3573C66.6817 84.2022 65.9715 83.8106 65.4274 83.2368C63.7692 81.469 61.9756 79.8315 60.0625 78.339C63.3054 76.61 64.4934 70.4804 64.7923 66.6512L69.821 73.0183L70.7625 74.406C70.3021 75.1789 69.9359 76.0035 69.6716 76.8623C69.4478 77.4713 69.3765 78.1252 69.4637 78.7677C69.5509 79.4102 69.794 80.022 70.1722 80.5504Z" fill="#FF8B7B"/>
<path d="M60.4928 78.0199C60.4928 78.0199 57.504 77.2778 55.1055 78.0199L59.9922 86.3609C62.5701 84.4983 65.514 86.9174 70.6922 88.3051C66.4079 85.8694 62.8797 82.3115 60.4928 78.0199Z" fill="#0278BE"/>
<path d="M60.4928 78.0199C60.4928 78.0199 57.504 77.2778 55.1055 78.0199L59.9922 86.3609C62.5701 84.4983 65.514 86.9174 70.6922 88.3051C66.4079 85.8694 62.8797 82.3115 60.4928 78.0199Z" fill="#0278BE"/>
<path d="M69.4219 78.3983C69.4219 78.3983 72.4107 77.8566 74.1367 79.2517C74.7643 81.4042 75.2338 83.5991 75.5415 85.8191C75.5415 85.8191 72.6647 84.3943 70.7295 88.3051C70.6921 88.3051 71.6635 82.079 69.4219 78.3983Z" fill="#0278BE"/>
<path d="M69.4219 78.3983C69.4219 78.3983 72.4107 77.8566 74.1367 79.2517C74.7643 81.4042 75.2338 83.5991 75.5415 85.8191C75.5415 85.8191 72.6647 84.3943 70.7295 88.3051C70.6921 88.3051 71.6635 82.079 69.4219 78.3983Z" fill="#0278BE"/>
<g opacity="0.2">
<path d="M69.6046 76.8549C69.869 75.9961 70.2352 75.1715 70.6956 74.3986L69.7541 73.0109L66.5859 73.0851C67.1452 74.6384 68.2067 75.964 69.6046 76.8549Z" fill="black"/>
</g>
<path d="M63.8006 59.824C63.2999 66.1169 62.9562 68.729 65.6088 72.4023C69.6064 77.8715 77.3549 77.0775 79.7011 71.0592C81.8157 65.642 82.2864 56.2621 76.6077 52.9375C70.9289 49.613 64.3087 53.5312 63.8006 59.824Z" fill="#FF8B7B"/>
<path d="M65.1929 63.9426C62.0172 63.104 63.2651 59.8463 63.2651 59.8463L67.9426 60.5884C67.9426 60.5884 68.3685 64.7737 65.1929 63.9426Z" fill="#263238"/>
<path d="M78.0138 53.5237C78.0138 53.5237 77.9316 57.0041 73.6351 57.1896C69.3387 57.3751 69.7123 63.6828 64.9003 62.681C60.0883 61.6792 62.4719 55.75 64.5267 54.1693C66.5815 52.5887 71.6625 47.8617 78.0138 53.5237Z" fill="#263238"/>
<path d="M77.0588 69.523C77.0588 69.523 73.9729 68.1353 73.3228 66.7996C73.3228 66.7996 72.8745 69.1891 74.4884 70.0647C74.9078 70.3088 75.4038 70.3885 75.8793 70.2883C76.3548 70.1881 76.7754 69.9152 77.0588 69.523Z" fill="white"/>
<path d="M74.2196 62.6291C74.1523 63.1411 74.3616 63.5864 74.6978 63.6309C75.034 63.6754 75.3628 63.3044 75.445 62.7997C75.5272 62.2951 75.3105 61.8425 74.9743 61.7979C74.638 61.7534 74.3092 62.1245 74.2271 62.6291" fill="#263238"/>
<path d="M79.421 63.4677C79.3463 63.9797 79.563 64.425 79.8918 64.4769C80.2205 64.5289 80.5568 64.143 80.639 63.6384C80.7212 63.1338 80.497 62.6811 80.1607 62.6366C79.8245 62.592 79.4957 62.9631 79.4135 63.4677" fill="#263238"/>
<path d="M80.0039 62.644L81.2816 62.4585C81.2816 62.4585 80.5344 63.3267 80.0039 62.644Z" fill="#263238"/>
<path d="M77.5164 63.3638C77.5164 63.3638 78.2038 64.8479 79.0108 66.1317C79.0783 66.2288 79.1215 66.3405 79.1368 66.4574C79.1521 66.5744 79.1392 66.6933 79.099 66.8043C79.0588 66.9153 78.9926 67.0152 78.9058 67.0956C78.819 67.1761 78.7141 67.2349 78.5999 67.2671C78.0583 67.4356 77.4994 67.5426 76.9336 67.5862L77.5164 63.3638Z" fill="#FF5652"/>
<path d="M60.9587 63.8312C61.1154 64.3837 61.3891 64.8967 61.7615 65.3356C62.1339 65.7746 62.5964 66.1295 63.1182 66.3765C64.4631 66.9628 65.3598 65.538 65.1954 63.9425C65.0385 62.5029 64.1568 60.4621 62.7147 60.5735C61.2726 60.6848 60.4731 62.3767 60.9587 63.8312Z" fill="#FF8B7B"/>
<path d="M72.822 60.5958C72.8624 60.5971 72.9027 60.5899 72.94 60.5745C72.9774 60.5592 73.011 60.536 73.0387 60.5067C73.2934 60.2243 73.6114 60.0053 73.9671 59.8674C74.3227 59.7294 74.706 59.6764 75.086 59.7127C75.1599 59.7153 75.2322 59.6912 75.2897 59.645C75.3471 59.5987 75.3857 59.5334 75.3985 59.4611C75.4112 59.3888 75.3972 59.3143 75.359 59.2514C75.3208 59.1886 75.261 59.1415 75.1906 59.119C74.7115 59.0611 74.2255 59.1193 73.7739 59.2886C73.3224 59.4579 72.9189 59.7333 72.5978 60.0912C72.5426 60.1479 72.5117 60.2237 72.5117 60.3027C72.5117 60.3816 72.5426 60.4574 72.5978 60.5141C72.6253 60.5412 72.658 60.5624 72.694 60.5764C72.7299 60.5904 72.7684 60.597 72.8071 60.5958" fill="#263238"/>
<path d="M81.8048 61.5011C81.8818 61.5073 81.9585 61.4862 82.0215 61.4418C82.0836 61.3898 82.123 61.3158 82.1314 61.2356C82.1397 61.1553 82.1164 61.0749 82.0663 61.0114C81.7744 60.6314 81.3944 60.327 80.9585 60.1242C80.5227 59.9213 80.0441 59.826 79.5632 59.8463C79.5232 59.8491 79.4842 59.8598 79.4485 59.8779C79.4128 59.8959 79.3811 59.9209 79.3553 59.9514C79.3295 59.9818 79.3101 60.0171 79.2984 60.0552C79.2866 60.0932 79.2826 60.1332 79.2867 60.1728C79.2905 60.2129 79.3022 60.2517 79.3211 60.2873C79.3401 60.3228 79.3659 60.3542 79.3972 60.3797C79.4285 60.4053 79.4645 60.4244 79.5033 60.436C79.542 60.4476 79.5827 60.4515 79.623 60.4474C80.0037 60.4365 80.3814 60.5164 80.7247 60.6804C81.0679 60.8444 81.3665 61.0877 81.5956 61.3898C81.6206 61.4219 81.6522 61.4484 81.6883 61.4676C81.7243 61.4868 81.764 61.4982 81.8048 61.5011Z" fill="#263238"/>
<path d="M74.8086 61.8054L76.0863 61.6199C76.0863 61.6199 75.3391 62.4881 74.8086 61.8054Z" fill="#263238"/>
<path d="M35.9636 117.395C38.5713 121.55 41.4779 125.728 44.3248 129.847L39.9238 133.78C35.9904 130.296 32.2936 126.558 28.8576 122.589C27.0402 120.521 25.3675 118.332 23.8514 116.037C23.4553 115.421 23.0668 114.783 22.6932 114.07C22.2644 113.287 21.8996 112.47 21.6023 111.629C21.4128 111.078 21.2703 110.512 21.1764 109.937C21.0298 109.08 21.0298 108.204 21.1764 107.347C21.3111 106.58 21.5394 105.833 21.8563 105.121C22.0614 104.652 22.2909 104.193 22.5437 103.748C23.3305 102.409 24.2145 101.13 25.1889 99.9187C26.0706 98.7982 26.9523 97.7519 27.8414 96.7352C29.6497 94.7316 31.4579 92.8096 33.3334 90.9692C37.0694 87.2588 40.8652 83.8007 44.9524 80.4762L52.7159 89.5073L41.5078 99.4957C39.6772 101.18 37.8391 102.828 36.1279 104.527C35.2612 105.358 34.4168 106.197 33.6398 107.028C32.9506 107.749 32.3021 108.507 31.697 109.299V109.336C31.7493 109.477 31.8016 109.633 31.8614 109.788C32.0333 110.226 32.2425 110.709 32.4666 111.206C33.521 113.329 34.6883 115.395 35.9636 117.395Z" fill="#0278BE"/>
<path opacity="0.2" d="M35.9636 117.395C38.5713 121.55 41.4779 125.728 44.3248 129.847L39.9238 133.78C35.9904 130.296 32.2936 126.558 28.8576 122.589C27.0402 120.521 25.3675 118.332 23.8514 116.037C23.4553 115.421 23.0668 114.783 22.6932 114.07C22.2644 113.287 21.8996 112.47 21.6023 111.629C21.4128 111.078 21.2703 110.512 21.1764 109.937C21.0298 109.08 21.0298 108.204 21.1764 107.347C21.3111 106.58 21.5394 105.833 21.8563 105.121C22.0614 104.652 22.2909 104.193 22.5437 103.748C23.3305 102.409 24.2145 101.13 25.1889 99.9187C26.0706 98.7982 26.9523 97.7519 27.8414 96.7352C29.6497 94.7316 31.4579 92.8096 33.3334 90.9692C37.0694 87.2588 40.8652 83.8007 44.9524 80.4762L52.7159 89.5073L41.5078 99.4957C39.6772 101.18 37.8391 102.828 36.1279 104.527C35.2612 105.358 34.4168 106.197 33.6398 107.028C32.9506 107.749 32.3021 108.507 31.697 109.299V109.336C31.7493 109.477 31.8016 109.633 31.8614 109.788C32.0333 110.226 32.2425 110.709 32.4666 111.206C33.521 113.329 34.6883 115.395 35.9636 117.395Z" fill="white"/>
<path d="M44.0168 128.006C44.0168 128.006 48.9782 129.832 49.7404 130.797C50.5025 131.761 45.6382 137.208 43.7627 137.965C41.8873 138.722 42.8512 136.481 42.8512 136.481C42.8512 136.481 40.4078 137.052 39.2646 135.205C38.1213 133.357 39.4663 128.288 44.0168 128.006Z" fill="#FF8B7B"/>
<path d="M96.8698 142.121C96.8698 142.121 97.3256 142.017 98.1923 140.837C98.7274 140.045 99.0135 139.112 99.0143 138.158L95.876 140.8C95.876 140.8 93.0889 139.739 91.3927 140.993C87.9257 143.523 88.9046 146.373 89.3081 147.197C89.7115 148.02 92.5733 147.516 94.5385 145.876C95.7156 144.918 96.5362 143.596 96.8698 142.121Z" fill="#FF8B7B"/>
</g>
<defs>
<clipPath id="clip0_3565_4045">
<rect width="336" height="309" fill="white"/>
</clipPath>
</defs>
</svg>
