<svg width="36" height="36" viewBox="0 0 36 36" fill="none" xmlns="http://www.w3.org/2000/svg">
<circle cx="18" cy="18" r="18" fill="#E8F7FF"/>
<path d="M25.7384 23.0301C25.7386 22.4942 25.5798 21.9703 25.2822 21.5246C24.9845 21.079 24.5614 20.7316 24.0664 20.5265C23.5713 20.3213 23.0265 20.2676 22.5009 20.3721C21.9753 20.4766 21.4925 20.7346 21.1136 21.1136C20.7346 21.4925 20.4766 21.9753 20.3721 22.5009C20.2676 23.0265 20.3213 23.5713 20.5265 24.0664C20.7316 24.5614 21.079 24.9845 21.5246 25.2822C21.9703 25.5798 22.4942 25.7386 23.0301 25.7384C23.7482 25.738 24.4368 25.4525 24.9447 24.9447C25.4525 24.4368 25.738 23.7482 25.7384 23.0301ZM24.4884 23.0301C24.4884 23.8342 23.8342 24.4884 23.0301 24.4884C22.7416 24.4884 22.4597 24.4029 22.2199 24.2426C21.98 24.0824 21.7931 23.8546 21.6827 23.5881C21.5724 23.3217 21.5435 23.0285 21.5998 22.7456C21.656 22.4627 21.7949 22.2028 21.9989 21.9989C22.2028 21.7949 22.4627 21.656 22.7456 21.5998C23.0285 21.5435 23.3217 21.5724 23.5881 21.6827C23.8546 21.7931 24.0824 21.98 24.2426 22.2199C24.4029 22.4597 24.4884 22.7416 24.4884 23.0301Z" fill="#02457C"/>
<path d="M19.6667 23.6551H20.8867C21.0525 23.6551 21.2115 23.5892 21.3287 23.472C21.4459 23.3548 21.5117 23.1958 21.5117 23.0301C21.5117 22.8643 21.4459 22.7054 21.3287 22.5881C21.2115 22.4709 21.0525 22.4051 20.8867 22.4051H19.6667C19.501 22.4051 19.342 22.4709 19.2248 22.5881C19.1076 22.7054 19.0417 22.8643 19.0417 23.0301C19.0417 23.1958 19.1076 23.3548 19.2248 23.472C19.342 23.5892 19.501 23.6551 19.6667 23.6551ZM21.1059 25.8201L21.9692 24.9567C22.083 24.8388 22.146 24.6809 22.1445 24.517C22.143 24.3532 22.0772 24.1964 21.9612 24.0806C21.8453 23.9648 21.6885 23.8991 21.5246 23.8978C21.3608 23.8964 21.2029 23.9595 21.0851 24.0734L20.2217 24.9359C20.1637 24.994 20.1176 25.0629 20.0862 25.1387C20.0548 25.2146 20.0386 25.2959 20.0386 25.378C20.0386 25.4601 20.0548 25.5414 20.0862 25.6173C20.1176 25.6931 20.1637 25.762 20.2217 25.8201C20.2798 25.8781 20.3487 25.9242 20.4246 25.9556C20.5004 25.987 20.5817 26.0032 20.6638 26.0032C20.7459 26.0032 20.8272 25.987 20.9031 25.9556C20.9789 25.9242 21.0479 25.8781 21.1059 25.8201ZM23.6551 26.3334V25.1134C23.6551 24.9477 23.5892 24.7887 23.472 24.6715C23.3548 24.5543 23.1958 24.4884 23.0301 24.4884C22.8643 24.4884 22.7054 24.5543 22.5881 24.6715C22.4709 24.7887 22.4051 24.9477 22.4051 25.1134V26.3334C22.4051 26.4992 22.4709 26.6581 22.5881 26.7754C22.7054 26.8926 22.8643 26.9584 23.0301 26.9584C23.1958 26.9584 23.3548 26.8926 23.472 26.7754C23.5892 26.6581 23.6551 26.4992 23.6551 26.3334ZM25.8201 24.8942L24.9567 24.0309C24.8388 23.9171 24.6809 23.8542 24.517 23.8557C24.3532 23.8572 24.1964 23.923 24.0806 24.0389C23.9648 24.1549 23.8991 24.3117 23.8978 24.4755C23.8964 24.6394 23.9595 24.7973 24.0734 24.9151L24.9359 25.7784C24.994 25.8365 25.0629 25.8825 25.1387 25.9139C25.2146 25.9454 25.2959 25.9615 25.378 25.9615C25.4601 25.9615 25.5414 25.9454 25.6173 25.9139C25.6931 25.8825 25.762 25.8365 25.8201 25.7784C25.8781 25.7204 25.9242 25.6514 25.9556 25.5756C25.987 25.4997 26.0032 25.4184 26.0032 25.3363C26.0032 25.2542 25.987 25.1729 25.9556 25.0971C25.9242 25.0212 25.8781 24.9523 25.8201 24.8942ZM26.3334 22.4051H25.1134C24.9477 22.4051 24.7887 22.4709 24.6715 22.5881C24.5543 22.7054 24.4884 22.8643 24.4884 23.0301C24.4884 23.1958 24.5543 23.3548 24.6715 23.472C24.7887 23.5892 24.9477 23.6551 25.1134 23.6551H26.3334C26.4992 23.6551 26.6581 23.5892 26.7754 23.472C26.8926 23.3548 26.9584 23.1958 26.9584 23.0301C26.9584 22.8643 26.8926 22.7054 26.7754 22.5881C26.6581 22.4709 26.4992 22.4051 26.3334 22.4051ZM24.9359 20.2217L24.0734 21.0851C23.9595 21.2029 23.8964 21.3608 23.8978 21.5246C23.8991 21.6885 23.9648 21.8453 24.0806 21.9612C24.1964 22.0772 24.3532 22.143 24.517 22.1445C24.6809 22.146 24.8388 22.083 24.9567 21.9692L25.8201 21.1059C25.8781 21.0479 25.9242 20.9789 25.9556 20.9031C25.987 20.8272 26.0032 20.7459 26.0032 20.6638C26.0032 20.5817 25.987 20.5004 25.9556 20.4246C25.9242 20.3487 25.8781 20.2798 25.8201 20.2217C25.762 20.1637 25.6931 20.1176 25.6173 20.0862C25.5414 20.0548 25.4601 20.0386 25.378 20.0386C25.2959 20.0386 25.2146 20.0548 25.1387 20.0862C25.0629 20.1176 24.994 20.1637 24.9359 20.2217ZM22.4051 19.6667V20.8867C22.4051 21.0525 22.4709 21.2115 22.5881 21.3287C22.7054 21.4459 22.8643 21.5117 23.0301 21.5117C23.1958 21.5117 23.3548 21.4459 23.472 21.3287C23.5892 21.2115 23.6551 21.0525 23.6551 20.8867V19.6667C23.6551 19.501 23.5892 19.342 23.472 19.2248C23.3548 19.1076 23.1958 19.0417 23.0301 19.0417C22.8643 19.0417 22.7054 19.1076 22.5881 19.2248C22.4709 19.342 22.4051 19.501 22.4051 19.6667ZM20.2217 21.0642L21.0851 21.9267C21.2029 22.0407 21.3608 22.1037 21.5246 22.1024C21.6885 22.101 21.8453 22.0354 21.9612 21.9196C22.0772 21.8037 22.143 21.647 22.1445 21.4831C22.146 21.3193 22.083 21.1613 21.9692 21.0434L21.1059 20.1801C20.9887 20.0628 20.8296 19.997 20.6638 19.997C20.498 19.997 20.339 20.0628 20.2217 20.1801C20.1045 20.2973 20.0386 20.4564 20.0386 20.6222C20.0386 20.788 20.1045 20.947 20.2217 21.0642Z" fill="#02457C"/>
<path d="M9.04175 14.4584V23.8334C9.04175 24.6622 9.37099 25.4571 9.95704 26.0431C10.5431 26.6292 11.3379 26.9584 12.1667 26.9584H21.7117C21.6449 26.8171 21.601 26.666 21.5817 26.5109C21.3033 26.7358 20.952 26.8504 20.5946 26.833C20.2371 26.8156 19.8986 26.6674 19.6433 26.4166C19.3881 26.1657 19.234 25.8298 19.2103 25.4728C19.1867 25.1157 19.2951 24.7624 19.5151 24.4801C19.1525 24.4424 18.8172 24.2702 18.5752 23.9976C18.3332 23.7249 18.2021 23.3715 18.2078 23.007C18.2134 22.6425 18.3554 22.2933 18.6057 22.0283C18.856 21.7632 19.1965 21.6015 19.5601 21.5751C19.3198 21.2962 19.1937 20.9367 19.2071 20.5688C19.2206 20.2008 19.3725 19.8516 19.6326 19.5909C19.8876 19.3363 20.2278 19.185 20.5877 19.1662C20.9475 19.1474 21.3016 19.2625 21.5817 19.4892C21.6249 19.1333 21.7978 18.8057 22.0672 18.5691C22.3367 18.3325 22.6839 18.2034 23.0425 18.2066C23.401 18.2098 23.7459 18.345 24.0111 18.5864C24.2763 18.8278 24.4432 19.1584 24.4801 19.5151C24.7624 19.2951 25.1157 19.1867 25.4728 19.2103C25.8298 19.234 26.1657 19.3881 26.4166 19.6433C26.6674 19.8986 26.8156 20.2371 26.833 20.5946C26.8504 20.952 26.7358 21.3033 26.5109 21.5817C26.6692 21.6017 26.8201 21.6459 26.9584 21.7117V14.4584H9.04175ZM14.7101 16.1359L13.4376 19.9542C13.4104 20.0324 13.399 20.1152 13.4041 20.1978C13.4091 20.2805 13.4305 20.3613 13.4671 20.4355C13.5036 20.5098 13.5546 20.5761 13.6169 20.6305C13.6793 20.6849 13.7518 20.7264 13.8304 20.7526C13.9089 20.7787 13.9918 20.789 14.0744 20.7829C14.1569 20.7767 14.2374 20.7542 14.3112 20.7167C14.385 20.6792 14.4506 20.6274 14.5042 20.5643C14.5578 20.5012 14.5983 20.4281 14.6234 20.3492L15.8959 16.5309C15.9231 16.4527 15.9345 16.3699 15.9294 16.2873C15.9244 16.2047 15.903 16.1239 15.8664 16.0496C15.8299 15.9754 15.7789 15.9091 15.7166 15.8547C15.6542 15.8002 15.5817 15.7587 15.5031 15.7326C15.4246 15.7064 15.3417 15.6961 15.2591 15.7023C15.1766 15.7084 15.0961 15.7309 15.0223 15.7685C14.9485 15.806 14.8829 15.8578 14.8293 15.9209C14.7757 15.9839 14.7352 16.057 14.7101 16.1359ZM12.1642 16.5276L10.8917 17.8009C10.8337 17.8589 10.7876 17.9277 10.7562 18.0035C10.7248 18.0793 10.7086 18.1605 10.7086 18.2426C10.7086 18.3246 10.7248 18.4059 10.7562 18.4816C10.7876 18.5574 10.8337 18.6263 10.8917 18.6842L12.1642 19.9576C12.2817 20.0745 12.4406 20.1401 12.6063 20.1401C12.772 20.1401 12.931 20.0745 13.0484 19.9576C13.1653 19.8401 13.2309 19.6812 13.2309 19.5155C13.2309 19.3498 13.1653 19.1909 13.0484 19.0734L12.2176 18.2426L13.0484 17.4117C13.1653 17.2943 13.2309 17.1354 13.2309 16.9697C13.2309 16.804 13.1653 16.645 13.0484 16.5276C12.931 16.4107 12.772 16.3451 12.6063 16.3451C12.4406 16.3451 12.2817 16.4107 12.1642 16.5276ZM16.2851 17.4117L17.1159 18.2426L16.2851 19.0734C16.1682 19.1909 16.1026 19.3498 16.1026 19.5155C16.1026 19.6812 16.1682 19.8401 16.2851 19.9576C16.4025 20.0745 16.5615 20.1401 16.7272 20.1401C16.8929 20.1401 17.0518 20.0745 17.1692 19.9576L18.4417 18.6842C18.4998 18.6263 18.5459 18.5574 18.5773 18.4816C18.6087 18.4059 18.6249 18.3246 18.6249 18.2426C18.6249 18.1605 18.6087 18.0793 18.5773 18.0035C18.5459 17.9277 18.4998 17.8589 18.4417 17.8009L17.1692 16.5276C17.0518 16.4107 16.8929 16.3451 16.7272 16.3451C16.5615 16.3451 16.4025 16.4107 16.2851 16.5276C16.1682 16.645 16.1026 16.804 16.1026 16.9697C16.1026 17.1354 16.1682 17.2943 16.2851 17.4117ZM9.04175 13.2084H26.9584V12.1667C26.9584 11.3379 26.6292 10.5431 26.0431 9.95704C25.4571 9.37099 24.6622 9.04175 23.8334 9.04175H12.1667C11.3379 9.04175 10.5431 9.37099 9.95704 9.95704C9.37099 10.5431 9.04175 11.3379 9.04175 12.1667V13.2084ZM18.6251 10.7084C18.7908 10.7084 18.9498 10.7743 19.067 10.8915C19.1842 11.0087 19.2501 11.1677 19.2501 11.3334C19.2501 11.4992 19.1842 11.6581 19.067 11.7754C18.9498 11.8926 18.7908 11.9584 18.6251 11.9584C18.4593 11.9584 18.3004 11.8926 18.1831 11.7754C18.0659 11.6581 18.0001 11.4992 18.0001 11.3334C18.0001 11.1677 18.0659 11.0087 18.1831 10.8915C18.3004 10.7743 18.4593 10.7084 18.6251 10.7084ZM20.9167 10.7084C21.0825 10.7084 21.2415 10.7743 21.3587 10.8915C21.4759 11.0087 21.5417 11.1677 21.5417 11.3334C21.5417 11.4992 21.4759 11.6581 21.3587 11.7754C21.2415 11.8926 21.0825 11.9584 20.9167 11.9584C20.751 11.9584 20.592 11.8926 20.4748 11.7754C20.3576 11.6581 20.2917 11.4992 20.2917 11.3334C20.2917 11.1677 20.3576 11.0087 20.4748 10.8915C20.592 10.7743 20.751 10.7084 20.9167 10.7084ZM23.2084 10.7084C23.3742 10.7084 23.5331 10.7743 23.6504 10.8915C23.7676 11.0087 23.8334 11.1677 23.8334 11.3334C23.8334 11.4992 23.7676 11.6581 23.6504 11.7754C23.5331 11.8926 23.3742 11.9584 23.2084 11.9584C23.0427 11.9584 22.8837 11.8926 22.7665 11.7754C22.6493 11.6581 22.5834 11.4992 22.5834 11.3334C22.5834 11.1677 22.6493 11.0087 22.7665 10.8915C22.8837 10.7743 23.0427 10.7084 23.2084 10.7084Z" fill="#02457C"/>
</svg>
