<svg width="36" height="36" viewBox="0 0 36 36" fill="none" xmlns="http://www.w3.org/2000/svg">
<circle cx="18" cy="18" r="18" fill="#E8F7FF"/>
<g clip-path="url(#clip0_1059_1702)">
<path d="M27.65 19.4869C27.9425 19.7794 28.1244 20.1844 28.1244 20.6312C28.1244 21.0788 27.9425 21.4829 27.65 21.7763C27.3565 22.0688 26.9525 22.2493 26.5058 22.2493C26.0581 22.2493 25.654 22.0688 25.3606 21.7763C25.0681 21.4829 24.8876 21.0788 24.8876 20.6312C24.8876 20.1849 25.0686 19.7794 25.3606 19.4869C25.654 19.1944 26.0581 19.0126 26.5058 19.0126C26.9525 19.0126 27.3565 19.1944 27.65 19.4869ZM32.0005 20.2908V20.9724C32.0005 21.1759 31.8744 21.3498 31.6803 21.4121L31.1965 21.5687C31.0451 21.6179 30.9373 21.7294 30.8951 21.8823C30.799 22.2191 30.6643 22.5437 30.4939 22.8498C30.417 22.988 30.4142 23.1432 30.4859 23.2843L30.717 23.7385C30.8098 23.919 30.7756 24.1304 30.6322 24.2752L30.1498 24.7576C30.0064 24.901 29.795 24.9343 29.6131 24.8424L29.1589 24.6113C29.0183 24.5382 28.8626 24.541 28.7244 24.6193C28.4186 24.79 28.0939 24.9242 27.7569 25.0191C27.604 25.0632 27.4925 25.1705 27.4447 25.3219L27.2867 25.8057C27.2244 25.9998 27.0514 26.1244 26.847 26.1244H26.1654C25.962 26.1244 25.7881 25.9993 25.7258 25.8057L25.5692 25.3219C25.52 25.1705 25.4084 25.0627 25.2556 25.0191C24.9186 24.9241 24.5939 24.7899 24.2881 24.6193C24.1498 24.5424 23.9947 24.5382 23.8536 24.6113L23.3994 24.8424C23.2184 24.9343 23.0075 24.901 22.8626 24.7576L22.3803 24.2752C22.2369 24.1304 22.2036 23.919 22.2955 23.7385L22.5265 23.2843C22.5997 23.1437 22.5969 22.988 22.5186 22.8498C22.3479 22.544 22.2137 22.2193 22.1187 21.8823C22.0747 21.7294 21.9673 21.6179 21.8159 21.5687L21.3322 21.4121C21.1381 21.3498 21.0134 21.1754 21.0134 20.9724V20.2908C21.0134 20.086 21.1381 19.9135 21.3322 19.8512L21.8173 19.6932C21.9673 19.644 22.0751 19.5338 22.1187 19.381C22.2144 19.0442 22.3486 18.7196 22.5186 18.4135C22.5969 18.2752 22.5997 18.1201 22.5265 17.979L22.2955 17.5248C22.2036 17.3429 22.2369 17.1315 22.3803 16.988L22.8626 16.5057C23.0075 16.3623 23.2189 16.3276 23.3994 16.4208L23.8536 16.6519C23.9942 16.7237 24.1498 16.7209 24.2881 16.644C24.5909 16.4752 24.9153 16.3398 25.2556 16.2427C25.4084 16.2001 25.52 16.0927 25.5692 15.9413L25.7258 15.4576C25.7881 15.2635 25.9625 15.1374 26.1654 15.1374H26.847C27.0519 15.1374 27.2244 15.2635 27.2867 15.4576L27.4447 15.9413C27.4925 16.0927 27.604 16.2005 27.7569 16.2427C28.0937 16.3389 28.4183 16.4735 28.7244 16.644C28.8626 16.7209 29.0178 16.7237 29.1589 16.6519L29.6131 16.4208C29.795 16.328 30.0064 16.3623 30.1498 16.5057L30.6322 16.988C30.7756 17.1315 30.8103 17.3429 30.717 17.5248L30.4859 17.979C30.4142 18.1196 30.417 18.2752 30.4939 18.4135C30.6626 18.7163 30.7981 19.0407 30.8951 19.381C30.9378 19.5338 31.0451 19.6454 31.1965 19.6932L31.6803 19.8512C31.8744 19.9135 32.0005 20.086 32.0005 20.2908ZM28.8978 20.6312C28.8978 19.9707 28.6306 19.373 28.1975 18.9399C27.7644 18.5068 27.1662 18.2382 26.5058 18.2382C25.8439 18.2382 25.2462 18.5068 24.8131 18.9399C24.38 19.373 24.1128 19.9712 24.1128 20.6312C24.1128 21.293 24.38 21.8907 24.8131 22.3238C25.2462 22.7569 25.8444 23.0241 26.5058 23.0241C27.1662 23.0241 27.7639 22.7569 28.1975 22.3238C28.6306 21.8907 28.8978 21.2926 28.8978 20.6312ZM21.304 25.7494H19.6123L19.0967 24.3118H15.4067L14.8925 25.7494H13.2008C12.987 25.7494 12.8126 25.9224 12.8126 26.1362C12.8126 26.3499 12.9865 26.5243 13.2008 26.5243H21.3036C21.5173 26.5243 21.6917 26.3504 21.6917 26.1362C21.6922 25.9219 21.5183 25.7494 21.304 25.7494ZM20.2545 20.078H7.99951V10.688C7.99951 10.021 8.54561 9.47632 9.21264 9.47632H25.2931C25.9601 9.47632 26.5062 10.021 26.5062 10.688V14.3621H26.165C25.6254 14.3621 25.1553 14.7048 24.9889 15.218L24.8811 15.5462C24.5979 15.6366 24.3228 15.751 24.0584 15.8879L23.75 15.7308C23.2704 15.4862 22.6948 15.5766 22.3137 15.9582L21.8314 16.4405C21.4498 16.8207 21.3598 17.3958 21.604 17.8768L21.7606 18.1852C21.6251 18.4496 21.5108 18.7248 21.4203 19.0079L21.0908 19.1143C20.6478 19.2582 20.3314 19.6304 20.2545 20.078ZM12.8731 14.9705L15.4376 13.538C15.6237 13.4344 15.6912 13.1991 15.5876 13.013C15.484 12.8269 15.2487 12.7594 15.0626 12.863L11.8976 14.6302C11.8331 14.6659 11.7797 14.7188 11.7434 14.783C11.6398 14.9691 11.7073 15.2044 11.8934 15.308L15.0626 17.078C15.2487 17.1816 15.484 17.1151 15.5876 16.928C15.6912 16.7419 15.6237 16.5066 15.4376 16.403L12.8731 14.9705ZM18.0008 11.7085C17.7922 11.6607 17.585 11.791 17.5372 11.9996L16.2153 17.7704C16.1675 17.9776 16.2978 18.1848 16.505 18.2326C16.7136 18.2804 16.9208 18.1501 16.9686 17.9415L18.2904 12.1721C18.3383 11.9635 18.2079 11.7563 18.0008 11.7085ZM19.4426 17.078L22.6119 15.308C22.7979 15.2044 22.8654 14.9691 22.7619 14.783C22.7257 14.7187 22.6723 14.6658 22.6076 14.6302L19.4426 12.863C19.2565 12.7594 19.0212 12.8269 18.9176 13.013C18.814 13.1991 18.8815 13.4344 19.0676 13.538L21.6322 14.9705L19.0676 16.403C18.8815 16.5066 18.814 16.7419 18.9176 16.928C19.0212 17.1151 19.2565 17.1816 19.4426 17.078ZM21.0917 22.1485C20.5789 21.9826 20.2372 21.5119 20.2372 20.9724V20.8529H7.99951V22.3252C7.99951 22.9909 8.54561 23.5369 9.21264 23.5369H21.5394C21.5581 23.4863 21.5792 23.4362 21.6045 23.3869L21.7611 23.0785C21.6254 22.8138 21.5112 22.5387 21.4194 22.2559L21.0917 22.1485Z" fill="#02457C"/>
</g>
<defs>
<clipPath id="clip0_1059_1702">
<rect width="24" height="24" fill="white" transform="translate(8 6)"/>
</clipPath>
</defs>
</svg>
