<svg width="52" height="52" viewBox="0 0 52 52" fill="none" xmlns="http://www.w3.org/2000/svg">
<rect width="52" height="52" rx="6" fill="#F4F4F4"/>
<path d="M22.7379 27.5115C21.9504 27.9052 21.2941 28.4899 20.8049 29.2177C20.5305 29.6353 20.5305 30.1603 20.8049 30.578C21.2941 31.3058 21.9504 31.8905 22.7379 32.2842" stroke="#141414" stroke-width="1.5" stroke-linecap="round" stroke-linejoin="round"/>
<path d="M30.1479 27.5115C30.9354 27.9052 31.5917 28.4899 32.0809 29.2177C32.3553 29.6353 32.3553 30.1603 32.0809 30.578C31.5917 31.3058 30.9354 31.8905 30.1479 32.2842" stroke="#141414" stroke-width="1.5" stroke-linecap="round" stroke-linejoin="round"/>
<path d="M22.738 38.2499H29.8971C35.863 38.2499 38.2494 35.8635 38.2494 29.8976V22.7385C38.2494 16.7726 35.863 14.3862 29.8971 14.3862H22.738C16.7721 14.3862 14.3857 16.7726 14.3857 22.7385V29.8976C14.3857 35.8635 16.7721 38.2499 22.738 38.2499Z" stroke="#141414" stroke-width="1.5" stroke-linecap="round" stroke-linejoin="round"/>
<path d="M14.6602 21.5573L37.5931 21.5454" stroke="#141414" stroke-width="1.5" stroke-linecap="round" stroke-linejoin="round"/>
</svg>
