<svg width="36" height="36" viewBox="0 0 36 36" fill="none" xmlns="http://www.w3.org/2000/svg">
<circle cx="18" cy="18" r="18" fill="#E8F7FF"/>
<path d="M23.1777 25.7693H19.939V24.8992H16.061V25.7693H12.8223C12.4663 25.7693 12.1777 26.0579 12.1777 26.4138C12.1777 26.7698 12.4663 27.0583 12.8223 27.0583H23.1777C23.5337 27.0583 23.8223 26.7698 23.8223 26.4138C23.8223 26.0579 23.5337 25.7693 23.1777 25.7693Z" fill="#02457C"/>
<path d="M14.7639 16.0638C15.4803 16.0638 16.0611 15.483 16.0611 14.7666C16.0611 14.0502 15.4803 13.4695 14.7639 13.4695C14.0475 13.4695 13.4668 14.0502 13.4668 14.7666C13.4668 15.483 14.0475 16.0638 14.7639 16.0638Z" fill="#02457C"/>
<path d="M28.3555 8.94165H7.64453C7.28858 8.94165 7 9.23023 7 9.58618V20.5916H29V9.58618C29 9.23019 28.7114 8.94165 28.3555 8.94165ZM18 15.4111H17.2688C17.2079 15.6465 17.114 15.872 16.9898 16.081L17.5079 16.5991C17.7596 16.8508 17.7596 17.2589 17.5079 17.5106C17.382 17.6364 17.2171 17.6994 17.0522 17.6994C16.8872 17.6994 16.7222 17.6365 16.5964 17.5106L16.0784 16.9925C15.8694 17.1167 15.6438 17.2106 15.4085 17.2714V18.0027C15.4085 18.3586 15.1199 18.6472 14.7639 18.6472C14.408 18.6472 14.1194 18.3586 14.1194 18.0027V17.2714C13.884 17.2106 13.6585 17.1167 13.4495 16.9925L12.9314 17.5106C12.8056 17.6364 12.6406 17.6994 12.4757 17.6994C12.3108 17.6994 12.1458 17.6365 12.02 17.5106C11.7682 17.2589 11.7682 16.8508 12.02 16.5991L12.538 16.081C12.4138 15.872 12.3199 15.6465 12.2591 15.4111H11.5278C11.1719 15.4111 10.8833 15.1225 10.8833 14.7666C10.8833 14.4106 11.1719 14.122 11.5278 14.122H12.2591C12.3199 13.8867 12.4138 13.6611 12.538 13.4521L12.02 12.9341C11.7682 12.6824 11.7682 12.2743 12.02 12.0226C12.2716 11.7709 12.6797 11.7709 12.9314 12.0226L13.4495 12.5406C13.6585 12.4164 13.884 12.3225 14.1194 12.2617V11.5305C14.1194 11.1745 14.408 10.8859 14.7639 10.8859C15.1199 10.8859 15.4085 11.1745 15.4085 11.5305V12.2617C15.6438 12.3225 15.8694 12.4164 16.0784 12.5406L16.5964 12.0226C16.8481 11.7709 17.2562 11.7709 17.5079 12.0226C17.7596 12.2743 17.7596 12.6824 17.5079 12.9341L16.9899 13.4521C17.1141 13.6611 17.208 13.8867 17.2688 14.122H18C18.356 14.122 18.6445 14.4106 18.6445 14.7666C18.6445 15.1225 18.356 15.4111 18 15.4111ZM24.4722 18H20.5889C20.2329 18 19.9443 17.7114 19.9443 17.3554C19.9443 16.9995 20.2329 16.7109 20.5889 16.7109H24.4722C24.8281 16.7109 25.1167 16.9995 25.1167 17.3554C25.1167 17.7114 24.8281 18 24.4722 18ZM24.4722 15.4111H20.5889C20.2329 15.4111 19.9443 15.1225 19.9443 14.7666C19.9443 14.4106 20.2329 14.122 20.5889 14.122H24.4722C24.8281 14.122 25.1167 14.4106 25.1167 14.7666C25.1167 15.1225 24.8281 15.4111 24.4722 15.4111ZM24.4722 12.8222H20.5889C20.2329 12.8222 19.9443 12.5337 19.9443 12.1777C19.9443 11.8218 20.2329 11.5332 20.5889 11.5332H24.4722C24.8281 11.5332 25.1167 11.8218 25.1167 12.1777C25.1167 12.5337 24.8281 12.8222 24.4722 12.8222ZM7 22.9655C7 23.3215 7.28858 23.6101 7.64453 23.6101H28.3555C28.7114 23.6101 29 23.3215 29 22.9655V21.8806H7V22.9655Z" fill="#02457C"/>
</svg>
