<svg width="52" height="52" viewBox="0 0 52 52" fill="none" xmlns="http://www.w3.org/2000/svg">
<rect width="52" height="52" rx="6" fill="#F4F4F4"/>
<path d="M23.4337 32.3528H18.5698C14.245 32.3528 13.167 31.2748 13.167 26.95V19.25C13.167 14.9252 14.245 13.8472 18.5698 13.8472H32.0833C36.4082 13.8472 37.4862 14.9252 37.4862 19.25" stroke="#141414" stroke-width="1.5" stroke-linecap="round" stroke-linejoin="round"/>
<path d="M23.4321 38.1534V32.3528" stroke="#141414" stroke-width="1.5" stroke-linecap="round" stroke-linejoin="round"/>
<path d="M13.167 27.2192H23.4337" stroke="#141414" stroke-width="1.5" stroke-linecap="round" stroke-linejoin="round"/>
<path d="M19.2485 38.1533H23.4322" stroke="#141414" stroke-width="1.5" stroke-linecap="round" stroke-linejoin="round"/>
<path d="M38.8324 27.0272V34.355C38.8324 37.3965 38.0752 38.1537 35.0337 38.1537H30.4779C27.4364 38.1537 26.6792 37.3965 26.6792 34.355V27.0272C26.6792 23.9857 27.4364 23.2285 30.4779 23.2285H35.0337C38.0752 23.2285 38.8324 23.9857 38.8324 27.0272Z" stroke="#141414" stroke-width="1.5" stroke-linecap="round" stroke-linejoin="round"/>
<path d="M32.7293 34.0213H32.7409" stroke="#141414" stroke-width="1.5" stroke-linecap="round" stroke-linejoin="round"/>
</svg>
