<svg width="52" height="52" viewBox="0 0 52 52" fill="none" xmlns="http://www.w3.org/2000/svg">
<rect width="52" height="52" rx="6" fill="#F4F4F4"/>
<path d="M23.6671 31.7755H19.2453C15.3135 31.7755 14.3335 30.7954 14.3335 26.8637V19.8635C14.3335 15.9317 15.3135 14.9517 19.2453 14.9517H31.5306C35.4624 14.9517 36.4424 15.9317 36.4424 19.8635" stroke="#141414" stroke-width="1.5" stroke-linecap="round" stroke-linejoin="round"/>
<path d="M23.6655 37.0489V31.7754" stroke="#141414" stroke-width="1.5" stroke-linecap="round" stroke-linejoin="round"/>
<path d="M14.3335 27.1084H23.6671" stroke="#141414" stroke-width="1.5" stroke-linecap="round" stroke-linejoin="round"/>
<path d="M19.8623 37.0488H23.6657" stroke="#141414" stroke-width="1.5" stroke-linecap="round" stroke-linejoin="round"/>
<path d="M37.6663 26.9339V33.5958C37.6663 36.3608 36.978 37.0492 34.2129 37.0492H30.0711C27.306 37.0492 26.6177 36.3608 26.6177 33.5958V26.9339C26.6177 24.1688 27.306 23.4805 30.0711 23.4805H34.2129C36.978 23.4805 37.6663 24.1688 37.6663 26.9339Z" stroke="#141414" stroke-width="1.5" stroke-linecap="round" stroke-linejoin="round"/>
<path d="M32.118 33.2923H32.1284" stroke="#141414" stroke-width="1.5" stroke-linecap="round" stroke-linejoin="round"/>
</svg>
