<svg width="52" height="52" viewBox="0 0 52 52" fill="none" xmlns="http://www.w3.org/2000/svg">
<rect width="52" height="52" rx="6" fill="#F4F4F4"/>
<path d="M35.9998 18.6667V32C35.9998 37.3333 34.6665 38.6667 29.3332 38.6667H21.3332C15.9998 38.6667 14.6665 37.3333 14.6665 32V18.6667C14.6665 13.3333 15.9998 12 21.3332 12H29.3332C34.6665 12 35.9998 13.3333 35.9998 18.6667Z" stroke="#141414" stroke-width="1.5" stroke-linecap="round" stroke-linejoin="round"/>
<path d="M27.9998 16.6667H22.6665" stroke="#141414" stroke-width="1.5" stroke-linecap="round" stroke-linejoin="round"/>
<path d="M25.3338 34.8001C26.4751 34.8001 27.4004 33.8748 27.4004 32.7334C27.4004 31.592 26.4751 30.6667 25.3338 30.6667C24.1924 30.6667 23.2671 31.592 23.2671 32.7334C23.2671 33.8748 24.1924 34.8001 25.3338 34.8001Z" stroke="#141414" stroke-width="1.5" stroke-linecap="round" stroke-linejoin="round"/>
</svg>
