<svg width="36" height="36" viewBox="0 0 36 36" fill="none" xmlns="http://www.w3.org/2000/svg">
<circle cx="18" cy="18" r="18" fill="#E8F7FF"/>
<path d="M18 27.2812C18.1898 27.2812 18.3438 27.1273 18.3438 26.9375C18.3438 26.7477 18.1898 26.5938 18 26.5938C17.8102 26.5938 17.6562 26.7477 17.6562 26.9375C17.6562 27.1273 17.8102 27.2812 18 27.2812Z" fill="#02457C"/>
<path d="M11.4688 26.9375C11.4693 27.3932 11.6506 27.83 11.9728 28.1522C12.295 28.4744 12.7318 28.6557 13.1875 28.6562H22.8125C23.2682 28.6557 23.705 28.4744 24.0272 28.1522C24.3494 27.83 24.5307 27.3932 24.5312 26.9375V25.2188H11.4688V26.9375ZM20.75 26.5938H22.125C22.2162 26.5938 22.3036 26.63 22.3681 26.6944C22.4325 26.7589 22.4688 26.8463 22.4688 26.9375C22.4688 27.0287 22.4325 27.1161 22.3681 27.1806C22.3036 27.245 22.2162 27.2812 22.125 27.2812H20.75C20.6588 27.2812 20.5714 27.245 20.5069 27.1806C20.4425 27.1161 20.4062 27.0287 20.4062 26.9375C20.4062 26.8463 20.4425 26.7589 20.5069 26.6944C20.5714 26.63 20.6588 26.5938 20.75 26.5938ZM18 25.9062C18.204 25.9062 18.4033 25.9667 18.5729 26.08C18.7425 26.1934 18.8747 26.3544 18.9528 26.5429C19.0308 26.7313 19.0512 26.9386 19.0114 27.1387C18.9716 27.3387 18.8734 27.5225 18.7292 27.6667C18.585 27.8109 18.4012 27.9091 18.2012 27.9489C18.0011 27.9887 17.7938 27.9683 17.6054 27.8903C17.4169 27.8122 17.2559 27.68 17.1425 27.5104C17.0292 27.3408 16.9688 27.1415 16.9688 26.9375C16.969 26.6641 17.0778 26.4019 17.2711 26.2086C17.4644 26.0153 17.7266 25.9065 18 25.9062ZM13.875 26.5938H15.25C15.3412 26.5938 15.4286 26.63 15.4931 26.6944C15.5575 26.7589 15.5938 26.8463 15.5938 26.9375C15.5938 27.0287 15.5575 27.1161 15.4931 27.1806C15.4286 27.245 15.3412 27.2812 15.25 27.2812H13.875C13.7838 27.2812 13.6964 27.245 13.6319 27.1806C13.5675 27.1161 13.5312 27.0287 13.5312 26.9375C13.5312 26.8463 13.5675 26.7589 13.6319 26.6944C13.6964 26.63 13.7838 26.5938 13.875 26.5938ZM25.2188 11.4688H10.7812C10.6901 11.4688 10.6026 11.505 10.5382 11.5694C10.4737 11.6339 10.4375 11.7213 10.4375 11.8125V13.875H25.5625V11.8125C25.5625 11.7213 25.5263 11.6339 25.4618 11.5694C25.3974 11.505 25.3099 11.4688 25.2188 11.4688ZM21.4375 13.0156C21.3695 13.0156 21.3031 12.9955 21.2465 12.9577C21.19 12.9199 21.1459 12.8662 21.1199 12.8034C21.0939 12.7406 21.0871 12.6715 21.1004 12.6048C21.1136 12.5381 21.1464 12.4769 21.1944 12.4288C21.2425 12.3807 21.3038 12.348 21.3704 12.3347C21.4371 12.3215 21.5062 12.3283 21.569 12.3543C21.6319 12.3803 21.6855 12.4244 21.7233 12.4809C21.7611 12.5374 21.7812 12.6039 21.7812 12.6719C21.7812 12.763 21.745 12.8505 21.6806 12.9149C21.6161 12.9794 21.5287 13.0156 21.4375 13.0156ZM22.8125 13.0156C22.7445 13.0156 22.6781 12.9955 22.6215 12.9577C22.565 12.9199 22.5209 12.8662 22.4949 12.8034C22.4689 12.7406 22.4621 12.6715 22.4754 12.6048C22.4886 12.5381 22.5214 12.4769 22.5694 12.4288C22.6175 12.3807 22.6788 12.348 22.7454 12.3347C22.8121 12.3215 22.8812 12.3283 22.944 12.3543C23.0069 12.3803 23.0605 12.4244 23.0983 12.4809C23.1361 12.5374 23.1562 12.6039 23.1562 12.6719C23.1562 12.763 23.12 12.8505 23.0556 12.9149C22.9911 12.9794 22.9037 13.0156 22.8125 13.0156ZM24.1875 13.0156C24.1195 13.0156 24.0531 12.9955 23.9965 12.9577C23.94 12.9199 23.8959 12.8662 23.8699 12.8034C23.8439 12.7406 23.8371 12.6715 23.8504 12.6048C23.8636 12.5381 23.8964 12.4769 23.9444 12.4288C23.9925 12.3807 24.0538 12.348 24.1204 12.3347C24.1871 12.3215 24.2562 12.3283 24.319 12.3543C24.3819 12.3803 24.4355 12.4244 24.4733 12.4809C24.5111 12.5374 24.5312 12.6039 24.5312 12.6719C24.5312 12.763 24.495 12.8505 24.4306 12.9149C24.3661 12.9794 24.2787 13.0156 24.1875 13.0156ZM11.4688 22.8125H24.5312V24.5312H11.4688V22.8125ZM24.5312 9.0625C24.5307 8.60683 24.3494 8.16997 24.0272 7.84776C23.705 7.52555 23.2682 7.3443 22.8125 7.34375H13.1875C12.7318 7.3443 12.295 7.52555 11.9728 7.84776C11.6506 8.16997 11.4693 8.60683 11.4688 9.0625V10.7812H24.5312V9.0625ZM19.375 9.40625H16.625C16.5338 9.40625 16.4464 9.37003 16.3819 9.30557C16.3175 9.2411 16.2812 9.15367 16.2812 9.0625C16.2812 8.97133 16.3175 8.8839 16.3819 8.81943C16.4464 8.75497 16.5338 8.71875 16.625 8.71875H19.375C19.4662 8.71875 19.5536 8.75497 19.6181 8.81943C19.6825 8.8839 19.7188 8.97133 19.7188 9.0625C19.7188 9.15367 19.6825 9.2411 19.6181 9.30557C19.5536 9.37003 19.4662 9.40625 19.375 9.40625ZM20.75 9.40625C20.682 9.40625 20.6156 9.38609 20.559 9.34832C20.5025 9.31055 20.4584 9.25686 20.4324 9.19405C20.4064 9.13124 20.3996 9.06212 20.4129 8.99544C20.4261 8.92876 20.4589 8.86751 20.5069 8.81943C20.555 8.77136 20.6163 8.73862 20.6829 8.72536C20.7496 8.71209 20.8187 8.7189 20.8815 8.74492C20.9444 8.77093 20.998 8.81499 21.0358 8.87152C21.0736 8.92805 21.0938 8.99451 21.0938 9.0625C21.0938 9.15367 21.0575 9.2411 20.9931 9.30557C20.9286 9.37003 20.8412 9.40625 20.75 9.40625ZM10.4375 21.7812C10.4375 21.8724 10.4737 21.9599 10.5382 22.0243C10.6026 22.0888 10.6901 22.125 10.7812 22.125H25.2188C25.3099 22.125 25.3974 22.0888 25.4618 22.0243C25.5263 21.9599 25.5625 21.8724 25.5625 21.7812V14.5625H10.4375V21.7812ZM20.3351 16.5243C20.2725 16.4594 20.2378 16.3726 20.2386 16.2825C20.2394 16.1924 20.2755 16.1061 20.3393 16.0424C20.403 15.9787 20.4892 15.9425 20.5794 15.9417C20.6695 15.941 20.7563 15.9756 20.8212 16.0382L22.5399 17.757C22.6044 17.8214 22.6406 17.9088 22.6406 18C22.6406 18.0912 22.6044 18.1786 22.5399 18.243L20.8212 19.9618C20.7563 20.0244 20.6695 20.059 20.5794 20.0583C20.4892 20.0575 20.403 20.0213 20.3393 19.9576C20.2755 19.8939 20.2394 19.8076 20.2386 19.7175C20.2378 19.6274 20.2725 19.5406 20.3351 19.4757L21.8108 18L20.3351 16.5243ZM16.6528 20.2708L18.7153 15.4583C18.7521 15.3758 18.8199 15.3111 18.904 15.2782C18.9881 15.2452 19.0818 15.2467 19.1648 15.2823C19.2478 15.3179 19.3135 15.3847 19.3476 15.4684C19.3817 15.552 19.3816 15.6457 19.3472 15.7292L17.2847 20.5417C17.2479 20.6242 17.1801 20.6889 17.096 20.7218C17.0119 20.7548 16.9182 20.7533 16.8352 20.7177C16.7522 20.6821 16.6865 20.6153 16.6524 20.5316C16.6183 20.448 16.6184 20.3543 16.6528 20.2708ZM13.4601 17.757L15.1788 16.0382C15.2437 15.9756 15.3305 15.941 15.4206 15.9417C15.5108 15.9425 15.597 15.9787 15.6607 16.0424C15.7245 16.1061 15.7606 16.1924 15.7614 16.2825C15.7622 16.3726 15.7275 16.4594 15.6649 16.5243L14.1892 18L15.6649 19.4757C15.7275 19.5406 15.7622 19.6274 15.7614 19.7175C15.7606 19.8076 15.7245 19.8939 15.6607 19.9576C15.597 20.0213 15.5108 20.0575 15.4206 20.0583C15.3305 20.059 15.2437 20.0244 15.1788 19.9618L13.4601 18.243C13.3957 18.1786 13.3594 18.0912 13.3594 18C13.3594 17.9088 13.3957 17.8214 13.4601 17.757Z" fill="#02457C"/>
</svg>
