<svg width="36" height="36" viewBox="0 0 36 36" fill="none" xmlns="http://www.w3.org/2000/svg">
<circle cx="18" cy="18" r="18" fill="#E8F7FF"/>
<path d="M18 15.9375H15.25V14.5625H17.3125V13.1875C17.3125 13.0052 17.3849 12.8303 17.5139 12.7014C17.6428 12.5724 17.8177 12.5 18 12.5H20.75V13.875H18.6875V15.25C18.6875 15.4323 18.6151 15.6072 18.4861 15.7361C18.3572 15.8651 18.1823 15.9375 18 15.9375ZM22.8125 23.5H13.1875C12.8228 23.5 12.4731 23.6449 12.2152 23.9027C11.9574 24.1606 11.8125 24.5103 11.8125 24.875V26.25C11.8125 26.6147 11.9574 26.9644 12.2152 27.2223C12.4731 27.4801 12.8228 27.625 13.1875 27.625H22.8125C23.1772 27.625 23.5269 27.4801 23.7848 27.2223C24.0426 26.9644 24.1875 26.6147 24.1875 26.25V24.875C24.1875 24.5103 24.0426 24.1606 23.7848 23.9027C23.5269 23.6449 23.1772 23.5 22.8125 23.5ZM16.9688 25.9062H13.5312C13.4401 25.9062 13.3526 25.87 13.2882 25.8056C13.2237 25.7411 13.1875 25.6537 13.1875 25.5625C13.1875 25.4713 13.2237 25.3839 13.2882 25.3194C13.3526 25.255 13.4401 25.2188 13.5312 25.2188H16.9688C17.0599 25.2188 17.1474 25.255 17.2118 25.3194C17.2763 25.3839 17.3125 25.4713 17.3125 25.5625C17.3125 25.6537 17.2763 25.7411 17.2118 25.8056C17.1474 25.87 17.0599 25.9062 16.9688 25.9062ZM20.0625 26.25C19.8802 26.25 19.7053 26.1776 19.5764 26.0486C19.4474 25.9197 19.375 25.7448 19.375 25.5625C19.375 25.3802 19.4474 25.2053 19.5764 25.0764C19.7053 24.9474 19.8802 24.875 20.0625 24.875C20.2448 24.875 20.4197 24.9474 20.5486 25.0764C20.6776 25.2053 20.75 25.3802 20.75 25.5625C20.75 25.7448 20.6776 25.9197 20.5486 26.0486C20.4197 26.1776 20.2448 26.25 20.0625 26.25ZM22.125 26.25C21.9427 26.25 21.7678 26.1776 21.6389 26.0486C21.5099 25.9197 21.4375 25.7448 21.4375 25.5625C21.4375 25.3802 21.5099 25.2053 21.6389 25.0764C21.7678 24.9474 21.9427 24.875 22.125 24.875C22.3073 24.875 22.4822 24.9474 22.6111 25.0764C22.7401 25.2053 22.8125 25.3802 22.8125 25.5625C22.8125 25.7448 22.7401 25.9197 22.6111 26.0486C22.4822 26.1776 22.3073 26.25 22.125 26.25ZM22.8125 18.6875H13.1875C12.8228 18.6875 12.4731 18.8324 12.2152 19.0902C11.9574 19.3481 11.8125 19.6978 11.8125 20.0625V21.4375C11.8125 21.8022 11.9574 22.1519 12.2152 22.4098C12.4731 22.6676 12.8228 22.8125 13.1875 22.8125H22.8125C23.1772 22.8125 23.5269 22.6676 23.7848 22.4098C24.0426 22.1519 24.1875 21.8022 24.1875 21.4375V20.0625C24.1875 19.6978 24.0426 19.3481 23.7848 19.0902C23.5269 18.8324 23.1772 18.6875 22.8125 18.6875ZM16.9688 21.0938H13.5312C13.4401 21.0938 13.3526 21.0575 13.2882 20.9931C13.2237 20.9286 13.1875 20.8412 13.1875 20.75C13.1875 20.6588 13.2237 20.5714 13.2882 20.5069C13.3526 20.4425 13.4401 20.4062 13.5312 20.4062H16.9688C17.0599 20.4062 17.1474 20.4425 17.2118 20.5069C17.2763 20.5714 17.3125 20.6588 17.3125 20.75C17.3125 20.8412 17.2763 20.9286 17.2118 20.9931C17.1474 21.0575 17.0599 21.0938 16.9688 21.0938ZM20.0625 21.4375C19.8802 21.4375 19.7053 21.3651 19.5764 21.2361C19.4474 21.1072 19.375 20.9323 19.375 20.75C19.375 20.5677 19.4474 20.3928 19.5764 20.2639C19.7053 20.1349 19.8802 20.0625 20.0625 20.0625C20.2448 20.0625 20.4197 20.1349 20.5486 20.2639C20.6776 20.3928 20.75 20.5677 20.75 20.75C20.75 20.9323 20.6776 21.1072 20.5486 21.2361C20.4197 21.3651 20.2448 21.4375 20.0625 21.4375ZM22.125 21.4375C21.9427 21.4375 21.7678 21.3651 21.6389 21.2361C21.5099 21.1072 21.4375 20.9323 21.4375 20.75C21.4375 20.5677 21.5099 20.3928 21.6389 20.2639C21.7678 20.1349 21.9427 20.0625 22.125 20.0625C22.3073 20.0625 22.4822 20.1349 22.6111 20.2639C22.7401 20.3928 22.8125 20.5677 22.8125 20.75C22.8125 20.9323 22.7401 21.1072 22.6111 21.2361C22.4822 21.3651 22.3073 21.4375 22.125 21.4375ZM14.5625 10.4375H8.375V9.0625C8.375 8.88016 8.44743 8.7053 8.57636 8.57636C8.7053 8.44743 8.88016 8.375 9.0625 8.375H13.875C14.0573 8.375 14.2322 8.44743 14.3611 8.57636C14.4901 8.7053 14.5625 8.88016 14.5625 9.0625V10.4375ZM13.875 18H9.0625C8.88016 18 8.7053 17.9276 8.57636 17.7986C8.44743 17.6697 8.375 17.4948 8.375 17.3125V11.125H14.5625V17.3125C14.5625 17.4948 14.4901 17.6697 14.3611 17.7986C14.2322 17.9276 14.0573 18 13.875 18ZM27.625 10.4375H21.4375V9.0625C21.4375 8.88016 21.5099 8.7053 21.6389 8.57636C21.7678 8.44743 21.9427 8.375 22.125 8.375H26.9375C27.1198 8.375 27.2947 8.44743 27.4236 8.57636C27.5526 8.7053 27.625 8.88016 27.625 9.0625V10.4375ZM26.9375 18H22.125C21.9427 18 21.7678 17.9276 21.6389 17.7986C21.5099 17.6697 21.4375 17.4948 21.4375 17.3125V11.125H27.625V17.3125C27.625 17.4948 27.5526 17.6697 27.4236 17.7986C27.2947 17.9276 27.1198 18 26.9375 18Z" fill="#02457C"/>
</svg>
