<svg width="36" height="36" viewBox="0 0 36 36" fill="none" xmlns="http://www.w3.org/2000/svg">
<circle cx="18" cy="18" r="18" fill="#E8F7FF"/>
<g clipPath="url(#clip0_1059_1630)">
<path d="M18.8276 12.9784L18.1292 11.9312H19.526L18.8276 12.9784ZM28 19.138C28 20.0426 27.2666 20.776 26.3621 20.776H24.3966C23.8538 20.776 23.4138 21.216 23.4138 21.7587V26.3449H22.1034V20.4484C22.1034 19.5438 22.8368 18.8105 23.7414 18.8105H25.0517C25.5945 18.8105 26.0345 18.3704 26.0345 17.8277V14.2243C26.0345 14.1374 26 14.0541 25.9385 13.9926C25.8771 13.9312 25.7938 13.8967 25.7069 13.8967C25.62 13.8967 25.5367 13.9312 25.4753 13.9926C25.4138 14.0541 25.3793 14.1374 25.3793 14.2243V17.8277C25.3793 17.9146 25.3448 17.9979 25.2834 18.0593C25.2219 18.1208 25.1386 18.1553 25.0517 18.1553H21.1207V16.8449H24.069V13.5691C24.069 13.0264 24.509 12.5863 25.0517 12.5863H26.3621C27.2666 12.5863 28 13.3197 28 14.2243V19.138ZM9.65517 19.138V14.2243C9.65517 13.3197 10.3886 12.5863 11.2931 12.5863H12.6034C13.1462 12.5863 13.5862 13.0264 13.5862 13.5691V16.8449H16.5345V18.1553H12.6034C12.5166 18.1553 12.4332 18.1208 12.3718 18.0593C12.3104 17.9979 12.2759 17.9146 12.2759 17.8277V14.2243C12.2759 14.1374 12.2413 14.0541 12.1799 13.9926C12.1185 13.9312 12.0352 13.8967 11.9483 13.8967C11.8614 13.8967 11.7781 13.9312 11.7166 13.9926C11.6552 14.0541 11.6207 14.1374 11.6207 14.2243V17.8277C11.6207 18.3704 12.0607 18.8105 12.6034 18.8105H13.9138C14.8183 18.8105 15.5517 19.5438 15.5517 20.4484V26.3449H14.2414V21.7587C14.2414 21.216 13.8013 20.776 13.2586 20.776H11.2931C10.3886 20.776 9.65517 20.0426 9.65517 19.138Z" fill="#02457C"/>
<path d="M21.7758 16.1897H20.4654V18.1552H17.1896V16.1897H15.8792V13.569C15.8819 12.7303 16.5189 12.0299 17.3533 11.9477L18.8275 14.1585L20.3016 11.9467C21.1366 12.0289 21.7735 12.73 21.7758 13.569V16.1897ZM27.3447 21.3164H26.6896V27H27.3447V21.3164ZM10.9654 21.3164H10.3102V27H10.9654V21.3164ZM18.4999 20.7759H19.1551V26.3448H20.4654V27H17.1896V26.3448H18.4999V20.7759ZM10.9654 10.2931C10.9654 11.1977 11.6988 11.931 12.6033 11.931C13.5079 11.931 14.2413 11.1977 14.2413 10.2931C14.2413 9.38856 13.5079 8.65517 12.6033 8.65517C11.6988 8.65517 10.9654 9.38856 10.9654 10.2931ZM16.1806 20.1207C16.1089 19.6226 15.8751 19.1621 15.5153 18.8103H22.1397C21.7799 19.1621 21.5461 19.6226 21.4744 20.1207H16.1806ZM17.1896 9.63793C17.1896 10.5425 17.9229 11.2759 18.8275 11.2759C19.732 11.2759 20.4654 10.5425 20.4654 9.63793C20.4654 8.73338 19.732 8 18.8275 8C17.9229 8 17.1896 8.73338 17.1896 9.63793ZM23.4137 10.2931C23.4137 11.1977 24.1471 11.931 25.0516 11.931C25.9562 11.931 26.6896 11.1977 26.6896 10.2931C26.6896 9.38856 25.9562 8.65517 25.0516 8.65517C24.1471 8.65517 23.4137 9.38856 23.4137 10.2931Z" fill="#02457C"/>
</g>
<defs>
<clipPath id="clip0_1059_1630">
<rect width="19" height="19" fill="white" transform="matrix(-1 0 0 1 28 8)"/>
</clipPath>
</defs>
</svg>
