<svg width="36" height="36" viewBox="0 0 36 36" fill="none" xmlns="http://www.w3.org/2000/svg">
<circle cx="18" cy="18" r="18" fill="#E8F7FF"/>
<g clipPath="url(#clip0_1059_1682)">
<path d="M18 14.1429C19.1835 14.1429 20.1429 13.1835 20.1429 12C20.1429 10.8166 19.1835 9.85718 18 9.85718C16.8166 9.85718 15.8572 10.8166 15.8572 12C15.8572 13.1835 16.8166 14.1429 18 14.1429Z" fill="#02457C"/>
<path d="M23.3572 22C23.8516 22 24.335 21.8534 24.7461 21.5787C25.1572 21.304 25.4777 20.9135 25.6669 20.4567C25.8561 19.9999 25.9056 19.4972 25.8091 19.0123C25.7127 18.5273 25.4746 18.0819 25.1249 17.7322C24.7753 17.3826 24.3299 17.1445 23.8449 17.048C23.36 16.9516 22.8573 17.0011 22.4005 17.1903C21.9437 17.3795 21.5532 17.7 21.2785 18.1111C21.0038 18.5222 20.8572 19.0055 20.8572 19.5C20.8579 20.1628 21.1216 20.7983 21.5902 21.2669C22.0589 21.7356 22.6944 21.9992 23.3572 22ZM22.0332 18.6811C21.9682 18.6137 21.9322 18.5235 21.933 18.4299C21.9338 18.3362 21.9714 18.2466 22.0376 18.1804C22.1038 18.1142 22.1934 18.0766 22.287 18.0758C22.3807 18.075 22.4709 18.111 22.5382 18.1761L23.3572 18.995L24.1761 18.1761C24.2435 18.111 24.3337 18.075 24.4273 18.0758C24.521 18.0766 24.6105 18.1142 24.6768 18.1804C24.743 18.2466 24.7805 18.3362 24.7813 18.4299C24.7822 18.5235 24.7462 18.6137 24.6811 18.6811L23.8622 19.5L24.6811 20.3189C24.7152 20.3519 24.7424 20.3913 24.7611 20.4349C24.7799 20.4784 24.7897 20.5253 24.7901 20.5727C24.7905 20.6201 24.7815 20.6672 24.7635 20.7111C24.7456 20.7549 24.7191 20.7948 24.6855 20.8284C24.652 20.8619 24.6121 20.8884 24.5682 20.9064C24.5243 20.9243 24.4773 20.9334 24.4299 20.9329C24.3825 20.9325 24.3356 20.9227 24.292 20.904C24.2485 20.8852 24.2091 20.858 24.1761 20.8239L23.3572 20.005L22.5382 20.8239C22.4709 20.889 22.3807 20.925 22.287 20.9242C22.1934 20.9234 22.1038 20.8858 22.0376 20.8196C21.9714 20.7534 21.9338 20.6638 21.933 20.5701C21.9322 20.4765 21.9682 20.3863 22.0332 20.3189L22.8522 19.5L22.0332 18.6811Z" fill="#02457C"/>
<path d="M21.5715 23.4286H27.2858V10.5714C27.2858 10.2873 27.1729 10.0147 26.972 9.81381C26.771 9.61288 26.4985 9.5 26.2144 9.5H22.2004L21.8215 10.0682C21.9179 10.2575 21.9994 10.4539 22.0658 10.6554L23.1404 10.8782C23.3023 10.9107 23.4479 10.9982 23.5525 11.1258C23.6572 11.2535 23.7144 11.4135 23.7144 11.5786V12.4214C23.7143 12.5866 23.6571 12.7466 23.5524 12.8743C23.4477 13.002 23.302 13.0894 23.1401 13.1218L22.0686 13.3361C22.0032 13.5381 21.9225 13.7349 21.8272 13.9246L22.4286 14.8414C22.5201 14.9788 22.5612 15.1437 22.5449 15.308C22.5285 15.4723 22.4558 15.6258 22.339 15.7425L21.7433 16.3386C21.6265 16.4553 21.4728 16.528 21.3085 16.5442C21.1441 16.5604 20.9792 16.5192 20.8419 16.4275L19.9326 15.8204C19.7433 15.9168 19.5469 15.9982 19.3454 16.0646L19.1226 17.1393C19.0903 17.3015 19.0028 17.4474 18.875 17.5523C18.7471 17.6571 18.5869 17.7144 18.4215 17.7143H17.5786C17.4135 17.7143 17.2535 17.657 17.1258 17.5523C16.9981 17.4476 16.9106 17.3019 16.8783 17.14L16.664 16.0686C16.462 16.0032 16.2652 15.9225 16.0754 15.8271L15.1586 16.4286C15.0212 16.5201 14.8564 16.5611 14.6921 16.5448C14.5278 16.5284 14.3743 16.4557 14.2576 16.3389L13.6615 15.7432C13.5448 15.6264 13.4721 15.4728 13.4559 15.3084C13.4397 15.144 13.4809 14.9792 13.5726 14.8418L14.1797 13.9325C14.0834 13.7433 14.0017 13.547 13.9354 13.3454L12.8608 13.1225C12.6986 13.0903 12.5526 13.0027 12.4478 12.8749C12.3429 12.747 12.2857 12.5868 12.2858 12.4214V11.5786C12.2858 11.4134 12.343 11.2534 12.4477 11.1257C12.5524 10.998 12.6981 10.9106 12.8601 10.8782L13.9315 10.6639C13.9969 10.4619 14.0776 10.2651 14.1729 10.0754L13.7961 9.5H9.78578C9.50162 9.5 9.2291 9.61288 9.02817 9.81381C8.82724 10.0147 8.71436 10.2873 8.71436 10.5714V23.4286H21.5715ZM23.3572 16.2857C23.9929 16.2857 24.6144 16.4742 25.143 16.8274C25.6716 17.1806 26.0835 17.6826 26.3268 18.2699C26.5701 18.8573 26.6338 19.5036 26.5097 20.1271C26.3857 20.7506 26.0796 21.3233 25.6301 21.7728C25.1805 22.2224 24.6078 22.5285 23.9843 22.6525C23.3608 22.7765 22.7145 22.7129 22.1272 22.4696C21.5398 22.2263 21.0378 21.8143 20.6846 21.2858C20.3314 20.7572 20.1429 20.1357 20.1429 19.5C20.144 18.6478 20.4829 17.8309 21.0855 17.2283C21.6881 16.6257 22.5051 16.2868 23.3572 16.2857ZM9.42864 19.5C9.42864 18.8643 9.61716 18.2428 9.97035 17.7142C10.3235 17.1857 10.8255 16.7737 11.4129 16.5304C12.0002 16.2871 12.6465 16.2235 13.27 16.3475C13.8935 16.4715 14.4662 16.7776 14.9158 17.2272C15.3653 17.6767 15.6714 18.2494 15.7955 18.8729C15.9195 19.4964 15.8558 20.1427 15.6125 20.7301C15.3693 21.3174 14.9573 21.8194 14.4287 22.1726C13.9001 22.5258 13.2787 22.7143 12.6429 22.7143C11.7908 22.7132 10.9738 22.3743 10.3712 21.7717C9.76866 21.1691 9.42968 20.3522 9.42864 19.5Z" fill="#02457C"/>
<path d="M14.8121 10.3957C14.7339 10.5518 14.6671 10.7132 14.6125 10.8789C14.5733 11.0004 14.5025 11.1093 14.4075 11.1945C14.3124 11.2797 14.1964 11.3382 14.0714 11.3639L13 11.5782V12.4211L14.0714 12.6354C14.1962 12.6613 14.3118 12.7199 14.4066 12.8051C14.5014 12.8903 14.5719 12.9991 14.611 13.1204C14.6657 13.2861 14.7325 13.4475 14.8107 13.6032C14.9285 13.8339 14.9135 14.1104 14.7714 14.3271L14.1643 15.2368L14.7603 15.8329L15.67 15.2257C15.7864 15.1486 15.9232 15.1079 16.0628 15.1079C16.1775 15.1079 16.2907 15.135 16.3932 15.1864C16.5493 15.2646 16.7107 15.3314 16.8764 15.3861C16.9985 15.425 17.1081 15.4958 17.1938 15.5912C17.2794 15.6865 17.3382 15.803 17.3639 15.9286L17.5782 17H18.421L18.6353 15.9286C18.6613 15.8038 18.7199 15.6881 18.805 15.5933C18.8902 15.4986 18.999 15.428 19.1203 15.3889C19.286 15.3343 19.4475 15.2675 19.6032 15.1893C19.7167 15.1317 19.8433 15.105 19.9704 15.1119C20.0975 15.1188 20.2205 15.1591 20.3271 15.2286L21.2368 15.8357L21.8328 15.2396L21.2257 14.33C21.1559 14.2236 21.1156 14.1006 21.1087 13.9735C21.1018 13.8464 21.1286 13.7198 21.1864 13.6064C21.2646 13.4504 21.3314 13.2889 21.386 13.1232C21.4251 13.0012 21.4959 12.8917 21.5912 12.8061C21.6866 12.7204 21.803 12.6618 21.9285 12.6361L23 12.4218V11.5786L21.9285 11.3643C21.8038 11.3383 21.6881 11.2798 21.5933 11.1946C21.4985 11.1094 21.428 11.0006 21.3889 10.8793C21.3343 10.7137 21.2675 10.5523 21.1893 10.3964C21.1314 10.283 21.1046 10.1563 21.1115 10.0292C21.1184 9.90205 21.1588 9.77901 21.2285 9.6725L21.6725 9.00643C21.7183 8.93772 21.7389 8.85527 21.7307 8.77309C21.7226 8.69091 21.6862 8.6141 21.6278 8.55571L21.446 8.37393C21.3877 8.31553 21.3108 8.27916 21.2287 8.27102C21.1465 8.26288 21.064 8.28347 20.9953 8.32929L20.3278 8.77286C20.111 8.915 19.835 8.93 19.6043 8.81214C19.4483 8.73393 19.2868 8.66721 19.121 8.6125C18.9996 8.57329 18.8907 8.50254 18.8054 8.40748C18.7202 8.31243 18.6618 8.19646 18.636 8.07143L18.4789 7.28571C18.4624 7.20499 18.4185 7.13244 18.3547 7.08037C18.2908 7.02829 18.2109 6.9999 18.1285 7H17.8714C17.789 6.9999 17.7091 7.02829 17.6453 7.08037C17.5814 7.13244 17.5375 7.20499 17.521 7.28571L17.3639 8.07143C17.3379 8.1962 17.2794 8.31187 17.1942 8.40666C17.109 8.50145 17.0002 8.57198 16.8789 8.61107C16.7132 8.66571 16.5518 8.7325 16.396 8.81071C16.165 8.92857 15.8889 8.91321 15.6721 8.77143L15.006 8.32893C14.9373 8.28312 14.8549 8.26253 14.7727 8.27067C14.6905 8.27881 14.6137 8.31517 14.5553 8.37357L14.3735 8.55536C14.3151 8.61374 14.2788 8.69056 14.2706 8.77273C14.2625 8.85491 14.2831 8.93737 14.3289 9.00607L14.7728 9.67214C14.915 9.88893 14.93 10.165 14.8121 10.3957ZM18 9.14286C18.5651 9.14286 19.1175 9.31043 19.5873 9.62437C20.0572 9.93832 20.4234 10.3845 20.6396 10.9066C20.8559 11.4287 20.9125 12.0032 20.8022 12.5574C20.692 13.1116 20.4199 13.6207 20.0203 14.0203C19.6207 14.4199 19.1116 14.692 18.5574 14.8022C18.0031 14.9125 17.4287 14.8559 16.9066 14.6397C16.3845 14.4234 15.9383 14.0572 15.6243 13.5873C15.3104 13.1175 15.1428 12.5651 15.1428 12C15.1437 11.2425 15.445 10.5163 15.9806 9.98063C16.5162 9.445 17.2425 9.14371 18 9.14286ZM12.6428 17C12.1484 17 11.665 17.1466 11.2539 17.4213C10.8428 17.696 10.5223 18.0865 10.3331 18.5433C10.1439 19.0001 10.0944 19.5028 10.1909 19.9877C10.2873 20.4727 10.5254 20.9181 10.8751 21.2678C11.2247 21.6174 11.6701 21.8555 12.1551 21.952C12.6401 22.0484 13.1427 21.9989 13.5995 21.8097C14.0563 21.6205 14.4468 21.3 14.7215 20.8889C14.9962 20.4778 15.1428 19.9945 15.1428 19.5C15.1421 18.8372 14.8784 18.2017 14.4098 17.7331C13.9411 17.2644 13.3056 17.0008 12.6428 17ZM14.3239 18.6811L12.181 20.8239C12.1141 20.8909 12.0232 20.9285 11.9285 20.9285C11.8338 20.9285 11.743 20.8909 11.676 20.8239L10.9618 20.1096C10.8967 20.0423 10.8607 19.9521 10.8615 19.8584C10.8623 19.7648 10.8999 19.6752 10.9661 19.609C11.0323 19.5428 11.1219 19.5052 11.2155 19.5044C11.3092 19.5036 11.3994 19.5396 11.4668 19.6046L11.9285 20.0664L13.8189 18.1761C13.8863 18.111 13.9765 18.075 14.0701 18.0758C14.1638 18.0766 14.2533 18.1142 14.3195 18.1804C14.3858 18.2466 14.4233 18.3362 14.4241 18.4299C14.4249 18.5235 14.389 18.6137 14.3239 18.6811ZM15.5 25.2143H20.5C20.6894 25.2143 20.8711 25.139 21.005 25.0051C21.139 24.8711 21.2143 24.6894 21.2143 24.5V24.1429H14.7857V24.5C14.7857 24.6894 14.8609 24.8711 14.9949 25.0051C15.1288 25.139 15.3105 25.2143 15.5 25.2143Z" fill="#02457C"/>
<path d="M21.9286 24.1428V24.5C21.9286 24.8788 21.7781 25.2422 21.5102 25.5101C21.2422 25.778 20.8789 25.9285 20.5 25.9285H15.5C15.1211 25.9285 14.7578 25.778 14.4898 25.5101C14.2219 25.2422 14.0714 24.8788 14.0714 24.5V24.1428H8.35714C8.26242 24.1428 8.17158 24.1804 8.1046 24.2474C8.03763 24.3144 8 24.4052 8 24.5V25.2143C8 25.6879 8.18814 26.1421 8.52302 26.4769C8.85791 26.8118 9.31211 27 9.78571 27H26.2143C26.6879 27 27.1421 26.8118 27.477 26.4769C27.8119 26.1421 28 25.6879 28 25.2143V24.5C28 24.4052 27.9624 24.3144 27.8954 24.2474C27.8284 24.1804 27.7376 24.1428 27.6429 24.1428H21.9286ZM9.42857 25.5714C9.33385 25.5714 9.24301 25.5338 9.17603 25.4668C9.10906 25.3998 9.07143 25.309 9.07143 25.2143C9.07143 25.1195 9.10906 25.0287 9.17603 24.9617C9.24301 24.8947 9.33385 24.8571 9.42857 24.8571C9.52329 24.8571 9.61413 24.8947 9.68111 24.9617C9.74809 25.0287 9.78571 25.1195 9.78571 25.2143C9.78571 25.309 9.74809 25.3998 9.68111 25.4668C9.61413 25.5338 9.52329 25.5714 9.42857 25.5714ZM10.5 25.5714C10.4053 25.5714 10.3144 25.5338 10.2475 25.4668C10.1805 25.3998 10.1429 25.309 10.1429 25.2143C10.1429 25.1195 10.1805 25.0287 10.2475 24.9617C10.3144 24.8947 10.4053 24.8571 10.5 24.8571C10.5947 24.8571 10.6856 24.8947 10.7525 24.9617C10.8195 25.0287 10.8571 25.1195 10.8571 25.2143C10.8571 25.309 10.8195 25.3998 10.7525 25.4668C10.6856 25.5338 10.5947 25.5714 10.5 25.5714ZM12.6429 25.5714H11.5714C11.4767 25.5714 11.3859 25.5338 11.3189 25.4668C11.2519 25.3998 11.2143 25.309 11.2143 25.2143C11.2143 25.1195 11.2519 25.0287 11.3189 24.9617C11.3859 24.8947 11.4767 24.8571 11.5714 24.8571H12.6429C12.7376 24.8571 12.8284 24.8947 12.8954 24.9617C12.9624 25.0287 13 25.1195 13 25.2143C13 25.309 12.9624 25.3998 12.8954 25.4668C12.8284 25.5338 12.7376 25.5714 12.6429 25.5714Z" fill="#02457C"/>
</g>
<defs>
<clipPath id="clip0_1059_1682">
<rect width="20" height="20" fill="white" transform="translate(8 7)"/>
</clipPath>
</defs>
</svg>
