<svg width="52" height="52" viewBox="0 0 52 52" fill="none" xmlns="http://www.w3.org/2000/svg">
<rect width="52" height="52" rx="6" fill="#F4F4F4"/>
<path d="M28.9167 34.7499H23.0833M28.9167 34.7499C28.9167 33.9175 28.9167 33.5012 28.9611 33.225C29.1044 32.3344 29.1294 32.2783 29.6974 31.5775C29.8735 31.3601 30.5273 30.7747 31.8348 29.6039C33.624 28.0018 34.75 25.674 34.75 23.0833C34.75 18.2508 30.8325 14.3333 26 14.3333C21.1675 14.3333 17.25 18.2508 17.25 23.0833C17.25 25.674 18.376 28.0018 20.1652 29.6039C21.4727 30.7747 22.1265 31.3601 22.3026 31.5775C22.8706 32.2783 22.8956 32.3344 23.0389 33.225C23.0833 33.5012 23.0833 33.9175 23.0833 34.7499M28.9167 34.7499C28.9167 35.8403 28.9167 36.3855 28.6822 36.7916C28.5286 37.0576 28.3077 37.2785 28.0417 37.4321C27.6356 37.6666 27.0904 37.6666 26 37.6666C24.9096 37.6666 24.3644 37.6666 23.9583 37.4321C23.6923 37.2785 23.4714 37.0576 23.3178 36.7916C23.0833 36.3855 23.0833 35.8403 23.0833 34.7499" stroke="#141414" stroke-width="1.5"/>
<path d="M28.7778 20C27.0222 20 25.5828 21.365 25.4567 23.0889C24.8459 22.5316 24.049 22.2226 23.2222 22.2222H22C21.4477 22.2222 21 22.6699 21 23.2222V24.4444C21 26.2828 22.4956 27.7778 24.3333 27.7778H25.4444V29.5C25.4444 29.7761 25.6683 30 25.9444 30H26.0556C26.3317 30 26.5556 29.7761 26.5556 29.5V25.5556H27.6667C29.5044 25.5556 31 24.0606 31 22.2222V21C31 20.4477 30.5523 20 30 20H28.7778ZM24.3333 26.6667C23.1078 26.6667 22.1111 25.67 22.1111 24.4444V23.3333H23.2222C24.4478 23.3333 25.4444 24.33 25.4444 25.5556V25.8811L24.5241 24.9608C24.3288 24.7655 24.0123 24.7655 23.817 24.9608L23.7386 25.0392C23.5433 25.2345 23.5433 25.5511 23.7386 25.7463L24.6589 26.6667H24.3333ZM29.8889 22.2222C29.8889 23.4478 28.8922 24.4444 27.6667 24.4444H27.3411L28.2614 23.5241C28.4567 23.3288 28.4567 23.0123 28.2614 22.817L28.183 22.7386C27.9877 22.5433 27.6712 22.5433 27.4759 22.7386L26.5556 23.6589V23.3333C26.5556 22.1078 27.5522 21.1111 28.7778 21.1111H29.8889V22.2222Z" fill="#141414"/>
</svg>
