<svg width="36" height="36" viewBox="0 0 36 36" fill="none" xmlns="http://www.w3.org/2000/svg">
<circle cx="18" cy="18" r="18" fill="#E8F7FF"/>
<g clipPath="url(#clip0_1059_1739)">
<path d="M13.3398 8.36328V11.377H10.3261L13.3398 8.36328ZM17.1741 21.8194C16.3954 20.9758 15.9189 19.8492 15.9189 18.6134C15.9189 16.0044 18.0415 13.8819 20.6504 13.8819C23.2593 13.8819 25.3818 16.0044 25.3818 18.6134C25.3818 19.8492 24.9054 20.9758 24.1267 21.8194C23.9554 20.8858 23.336 20.1355 22.5118 19.7747C22.8557 19.3577 23.0625 18.8237 23.0625 18.2423C23.0625 16.9122 21.9804 15.8302 20.6504 15.8302C19.3204 15.8302 18.2383 16.9122 18.2383 18.2423C18.2383 18.8237 18.4451 19.3577 18.7889 19.7747C17.9647 20.1355 17.3454 20.8858 17.1741 21.8194Z" fill="#02457C"/>
<path d="M20.6504 19.541C19.9331 19.541 19.3516 18.9595 19.3516 18.2422C19.3516 17.5249 19.9331 16.9434 20.6504 16.9434C21.3677 16.9434 21.9492 17.5249 21.9492 18.2422C21.9492 18.9595 21.3677 19.541 20.6504 19.541Z" fill="#02457C"/>
<path d="M23.0371 22.0474L23.1356 22.6377C22.4129 23.0857 21.5614 23.3447 20.6504 23.3447C19.7394 23.3447 18.8879 23.0857 18.1651 22.6377L18.2636 22.0474C18.3983 21.2402 19.09 20.6543 19.9082 20.6543H21.3926C22.2107 20.6543 22.9024 21.2402 23.0371 22.0474Z" fill="#02457C"/>
<path d="M13.8965 12.4902C14.2039 12.4902 14.4531 12.241 14.4531 11.9336V8.03711H23.1738C23.89 8.03711 24.4727 8.61976 24.4727 9.33594V14.1951C23.4472 13.3067 22.1105 12.7686 20.6504 12.7686C19.5512 12.7686 18.5221 13.0737 17.6429 13.6035H12.7832C12.4758 13.6035 12.2266 13.8527 12.2266 14.1602C12.2266 14.4676 12.4758 14.7168 12.7832 14.7168H16.298C15.9937 15.0561 15.7298 15.4297 15.5119 15.8301H12.7832C12.4758 15.8301 12.2266 16.0793 12.2266 16.3867C12.2266 16.6941 12.4758 16.9434 12.7832 16.9434H15.0491C14.9407 17.3065 14.8681 17.6794 14.8323 18.0566H12.7832C12.4758 18.0566 12.2266 18.3059 12.2266 18.6133C12.2266 18.9207 12.4758 19.1699 12.7832 19.1699H14.8323C14.8681 19.5472 14.9407 19.9201 15.0491 20.2832H12.7832C12.4758 20.2832 12.2266 20.5324 12.2266 20.8398C12.2266 21.1473 12.4758 21.3965 12.7832 21.3965H15.5119C16.5028 23.2185 18.4346 24.458 20.6504 24.458C21.4461 24.458 22.205 24.298 22.897 24.0087L24.4727 25.5844V25.6641C24.4727 26.3802 23.89 26.9629 23.1738 26.9629H11.2988C10.5827 26.9629 10 26.3802 10 25.6641V12.4902H13.8965ZM16.123 12.4902H21.6895C21.9969 12.4902 22.2461 12.241 22.2461 11.9336C22.2461 11.6262 21.9969 11.377 21.6895 11.377H16.123C15.8156 11.377 15.5664 11.6262 15.5664 11.9336C15.5664 12.241 15.8156 12.4902 16.123 12.4902ZM12.7832 23.623H15.752C16.0594 23.623 16.3086 23.3738 16.3086 23.0664C16.3086 22.759 16.0594 22.5098 15.752 22.5098H12.7832C12.4758 22.5098 12.2266 22.759 12.2266 23.0664C12.2266 23.3738 12.4758 23.623 12.7832 23.623Z" fill="#02457C"/>
<path d="M25.4934 21.8818L28.6739 25.0623C29.1087 25.4971 29.1087 26.202 28.6739 26.6367C28.2391 27.0715 27.5343 27.0715 27.0995 26.6367L23.919 23.4562C24.5391 23.0363 25.0735 22.5019 25.4934 21.8818Z" fill="#02457C"/>
</g>
<defs>
<clipPath id="clip0_1059_1739">
<rect width="19" height="19" fill="white" transform="matrix(-1 0 0 1 29 8)"/>
</clipPath>
</defs>
</svg>
