<svg width="36" height="36" viewBox="0 0 36 36" fill="none" xmlns="http://www.w3.org/2000/svg">
<circle cx="18" cy="18" r="18" fill="#E8F7FF"/>
<path d="M18 16.5C17.7 16.5 17.5 16.4 17.3 16.2L13.8 12.7C13.4 12.3 13.4 11.7 13.8 11.3L17.3 7.8C17.7 7.4 18.3 7.4 18.7 7.8L22.2 11.3C22.6 11.7 22.6 12.3 22.2 12.7L18.7 16.2C18.5 16.4 18.3 16.5 18 16.5ZM15.9 12L18 14.1L20.1 12L18 9.9L15.9 12ZM18 28.5C17.7 28.5 17.5 28.4 17.3 28.2L13.8 24.7C13.4 24.3 13.4 23.7 13.8 23.3L17.3 19.8C17.7 19.4 18.3 19.4 18.7 19.8L22.2 23.3C22.6 23.7 22.6 24.3 22.2 24.7L18.7 28.2C18.5 28.4 18.3 28.5 18 28.5ZM15.9 24L18 26.1L20.1 24L18 21.9L15.9 24ZM24 22.5C23.7 22.5 23.5 22.4 23.3 22.2L19.8 18.7C19.4 18.3 19.4 17.7 19.8 17.3L23.3 13.8C23.7 13.4 24.3 13.4 24.7 13.8L28.2 17.3C28.6 17.7 28.6 18.3 28.2 18.7L24.7 22.2C24.5 22.4 24.3 22.5 24 22.5ZM21.9 18L24 20.1L26.1 18L24 15.9L21.9 18ZM12 22.5C11.7 22.5 11.5 22.4 11.3 22.2L7.8 18.7C7.4 18.3 7.4 17.7 7.8 17.3L11.3 13.8C11.7 13.4 12.3 13.4 12.7 13.8L16.2 17.3C16.6 17.7 16.6 18.3 16.2 18.7L12.7 22.2C12.5 22.4 12.3 22.5 12 22.5ZM9.9 18L12 20.1L14.1 18L12 15.9L9.9 18Z" fill="#02457C"/>
</svg>
