<svg width="36" height="36" viewBox="0 0 36 36" fill="none" xmlns="http://www.w3.org/2000/svg">
<circle cx="18" cy="18" r="18" fill="#E8F7FF"/>
<path d="M20.1822 22.0843C20.3466 22.0843 20.48 21.951 20.48 21.7865C20.48 21.6221 20.3466 21.4888 20.1822 21.4888C20.0177 21.4888 19.8844 21.6221 19.8844 21.7865C19.8844 21.951 20.0177 22.0843 20.1822 22.0843Z" fill="#02457C"/>
<path d="M26.6045 9.08887H9.39557C8.87112 9.08887 8.44446 9.51553 8.44446 10.04V19.9022H27.5556V10.04C27.5556 9.51553 27.1289 9.08887 26.6045 9.08887ZM13.9733 15.2622C13.9733 15.96 13.3733 16.5289 12.6356 16.5289C11.8978 16.5289 11.2978 15.96 11.2978 15.2622V12.7155C11.2978 12.5911 11.4 12.4889 11.5245 12.4889C11.6489 12.4889 11.7511 12.5911 11.7511 12.7155V15.2622C11.7511 15.7111 12.1467 16.0755 12.6356 16.0755C13.1245 16.0755 13.52 15.7111 13.52 15.2622V12.7155C13.52 12.5911 13.6222 12.4889 13.7467 12.4889C13.8711 12.4889 13.9733 12.5911 13.9733 12.7155V15.2622ZM16.9689 16.1955C17.0267 16.3066 16.9867 16.4444 16.8756 16.5022C16.84 16.52 16.8045 16.5289 16.7689 16.5289C16.6889 16.5289 16.6089 16.4844 16.5689 16.4089L15.7956 14.9733L15.0222 16.4089C14.9822 16.4844 14.9022 16.5289 14.8222 16.5289C14.7867 16.5289 14.7511 16.52 14.7156 16.5022C14.6045 16.4444 14.5645 16.3066 14.6222 16.1955L15.5378 14.4978L14.6222 12.7955C14.5645 12.6844 14.6045 12.5466 14.7156 12.4889C14.8267 12.4311 14.9645 12.4711 15.0222 12.5822L15.7956 14.0178L16.5689 12.5822C16.6267 12.4711 16.7645 12.4311 16.8756 12.4889C16.9867 12.5466 17.0267 12.6844 16.9689 12.7955L16.0533 14.4933L16.9689 16.1955ZM20.0667 11.6933L17.9289 17.4578C17.8933 17.5466 17.8089 17.6044 17.7156 17.6044C17.6889 17.6044 17.6622 17.6 17.6356 17.5911C17.52 17.5466 17.4578 17.4178 17.5022 17.2978L19.64 11.5333C19.6845 11.4178 19.8133 11.3555 19.9333 11.4C20.0489 11.4444 20.1111 11.5733 20.0667 11.6933ZM23.2533 15.2622C23.2533 15.96 22.6533 16.5289 21.9156 16.5289C21.1778 16.5289 20.5778 15.96 20.5778 15.2622V12.7155C20.5778 12.5911 20.68 12.4889 20.8045 12.4889C20.9289 12.4889 21.0311 12.5911 21.0311 12.7155V15.2622C21.0311 15.7111 21.4267 16.0755 21.9156 16.0755C22.4045 16.0755 22.8 15.7111 22.8 15.2622V12.7155C22.8 12.5911 22.9022 12.4889 23.0267 12.4889C23.1511 12.4889 23.2533 12.5911 23.2533 12.7155V15.2622ZM24.4756 16.7733C24.3511 16.7733 24.2489 16.6711 24.2489 16.5466V12.4444C24.2489 12.32 24.3511 12.2178 24.4756 12.2178C24.5378 12.2178 24.5956 12.2444 24.6356 12.2844C24.6756 12.3244 24.7022 12.3822 24.7022 12.4444V16.5466C24.7022 16.6711 24.6 16.7733 24.4756 16.7733ZM8.44446 20.3555V22.2622C8.44446 22.7866 8.87112 23.2133 9.39557 23.2133H26.6C27.1245 23.2133 27.5511 22.7866 27.5511 22.2622V20.3555H8.44446ZM15.8178 22.5333C15.4045 22.5333 15.0667 22.1955 15.0667 21.7822C15.0667 21.3689 15.4045 21.0311 15.8178 21.0311C16.2311 21.0311 16.5689 21.3689 16.5689 21.7822C16.5689 22.1955 16.2267 22.5333 15.8178 22.5333ZM18 22.5333C17.5867 22.5333 17.2489 22.1955 17.2489 21.7822C17.2489 21.3689 17.5867 21.0311 18 21.0311C18.4133 21.0311 18.7511 21.3689 18.7511 21.7822C18.7511 22.1955 18.4133 22.5333 18 22.5333ZM20.1822 22.5333C19.7689 22.5333 19.4311 22.1955 19.4311 21.7822C19.4311 21.3689 19.7689 21.0311 20.1822 21.0311C20.5956 21.0311 20.9333 21.3689 20.9333 21.7822C20.9333 22.1955 20.5956 22.5333 20.1822 22.5333Z" fill="#02457C"/>
<path d="M18.2071 21.9913C18.3234 21.875 18.3234 21.6865 18.2071 21.5702C18.0908 21.4539 17.9023 21.4539 17.786 21.5702C17.6697 21.6865 17.6697 21.875 17.786 21.9913C17.9023 22.1076 18.0908 22.1076 18.2071 21.9913Z" fill="#02457C"/>
<path d="M16.0228 21.9935C16.1391 21.8772 16.1391 21.6887 16.0228 21.5724C15.9065 21.4561 15.718 21.4561 15.6017 21.5724C15.4854 21.6887 15.4854 21.8772 15.6017 21.9935C15.718 22.1098 15.9065 22.1098 16.0228 21.9935Z" fill="#02457C"/>
<path d="M14.7156 23.6667H21.3911V25.3067H14.7156V23.6667ZM23.4267 26.3334C23.4267 26.6534 23.1689 26.9112 22.8489 26.9112H13.1511C12.8311 26.9112 12.5734 26.6534 12.5734 26.3334C12.5734 26.0134 12.8311 25.7556 13.1511 25.7556H22.8534C23.1689 25.7556 23.4267 26.0179 23.4267 26.3334Z" fill="#02457C"/>
</svg>
