<svg width="36" height="36" viewBox="0 0 36 36" fill="none" xmlns="http://www.w3.org/2000/svg">
<circle cx="18" cy="18" r="18" fill="#E8F7FF"/>
<g clipPath="url(#clip0_1059_1645)">
<path d="M12.3335 17.6698C12.3335 17.8518 12.4816 18.0001 12.6639 18.0001H23.3367C23.5186 18.0001 23.667 17.8521 23.667 17.6698V12.667H12.3338V17.6698H12.3335ZM21.3335 17.0001H20C19.8162 17.0001 19.6668 16.8509 19.6668 16.6669C19.6668 16.4828 19.8162 16.3335 20 16.3335H21.3335C21.5173 16.3335 21.6667 16.4828 21.6667 16.6668C21.6667 16.8509 21.5173 17.0001 21.3335 17.0001ZM22.3333 15.6668H16.6668C16.5784 15.6668 16.4937 15.6317 16.4312 15.5692C16.3687 15.5067 16.3336 15.4219 16.3336 15.3335C16.3336 15.1496 16.4828 15.0002 16.6668 15.0002H22.3333C22.5174 15.0002 22.6668 15.1495 22.6668 15.3335C22.6668 15.5176 22.5174 15.6668 22.3333 15.6668ZM20 13.6669H22.3333C22.5174 13.6669 22.6668 13.8163 22.6668 14.0003C22.6668 14.1843 22.5174 14.3335 22.3333 14.3335H20C19.8162 14.3335 19.6668 14.1843 19.6668 14.0003C19.6668 13.8163 19.8162 13.6669 20 13.6669ZM13.6668 13.6669H18.3335C18.5175 13.6669 18.6667 13.8163 18.6667 14.0003C18.6667 14.1843 18.5175 14.3335 18.3335 14.3335H13.6668C13.5784 14.3335 13.4937 14.2984 13.4312 14.2359C13.3687 14.1734 13.3336 14.0886 13.3336 14.0003C13.3336 13.8163 13.4828 13.6669 13.6668 13.6669ZM13.6668 15.0002H15.0001C15.1841 15.0002 15.3335 15.1495 15.3335 15.3335C15.3335 15.5176 15.1841 15.6668 15.0001 15.6668H13.6668C13.5784 15.6668 13.4937 15.6317 13.4312 15.5692C13.3687 15.5067 13.3336 15.4219 13.3336 15.3335C13.3336 15.1496 13.4828 15.0002 13.6668 15.0002ZM13.6668 16.3335H18.6667C18.8508 16.3335 19.0001 16.4828 19.0001 16.6668C19.0001 16.8509 18.8508 17.0001 18.6667 17.0001H13.6668C13.5785 17.0001 13.4937 16.965 13.4312 16.9025C13.3687 16.84 13.3336 16.7553 13.3336 16.6669C13.3336 16.4828 13.4828 16.3335 13.6668 16.3335ZM23.3363 10.0002H12.6636C12.4816 10.0002 12.3333 10.1483 12.3333 10.3306V12.0002H23.6663V10.3306C23.6666 10.1482 23.5183 10.0002 23.3363 10.0002ZM13.6668 11.3335H13.3336C13.1496 11.3335 13.0002 11.1843 13.0002 11.0003C13.0002 10.8163 13.1496 10.6669 13.3336 10.6669H13.6668C13.8508 10.6669 14.0002 10.8163 14.0002 11.0003C14.0002 11.1843 13.8508 11.3335 13.6668 11.3335ZM15.3335 11.3335H15.0001C14.8163 11.3335 14.6669 11.1843 14.6669 11.0003C14.6669 10.8163 14.8163 10.6669 15.0001 10.6669H15.3335C15.5175 10.6669 15.6667 10.8163 15.6667 11.0003C15.6667 11.1843 15.5175 11.3335 15.3336 11.3335L15.3335 11.3335ZM17.0002 11.3335H16.6668C16.5784 11.3335 16.4937 11.2984 16.4312 11.2359C16.3687 11.1734 16.3336 11.0887 16.3336 11.0003C16.3336 10.8163 16.4828 10.6669 16.6668 10.6669H17.0002C17.1841 10.6669 17.3334 10.8163 17.3334 11.0003C17.3334 11.1843 17.1841 11.3335 17.0002 11.3335L17.0002 11.3335Z" fill="#02457C"/>
<path d="M26.6081 8.00049H9.39205C8.62436 8.00049 8 8.62485 8 9.3925V19.6669H27.9996V9.39257C28 8.62485 27.3757 8.00049 26.6081 8.00049ZM24.3333 12.3337V17.67C24.3333 18.2197 23.8864 18.6669 23.3363 18.6669H12.6636C12.114 18.6669 11.6666 18.2197 11.6666 17.67V10.3308C11.6663 9.78116 12.1136 9.33379 12.6636 9.33379H23.3363C23.8861 9.33379 24.3333 9.78116 24.3333 10.3308V12.3337ZM8.00031 22.9416C8.00031 23.0376 8.01008 23.1313 8.02867 23.2219C8.15871 23.8556 8.72065 24.3335 9.39232 24.3335H15.9892C15.9146 25.5106 15.4199 26.0002 14.334 26.0002H13.6665C13.1156 26.0002 12.6673 26.4485 12.6673 26.9995V27.6669C12.6673 27.8508 12.8167 28.0001 13.0005 28.0001H23.0004C23.1843 28.0001 23.3338 27.8508 23.3338 27.6669V26.9995C23.3338 26.4485 22.8854 26.0002 22.3345 26.0002H21.6671C20.5811 26.0002 20.0864 25.5106 20.0118 24.3335H26.6084C27.2801 24.3335 27.8417 23.8556 27.9716 23.2219C27.9903 23.1313 28 23.0376 28 22.9416V20.3336H8.00031V22.9416ZM19.9221 26.0002H16.0779C16.4186 25.6122 16.6125 25.0559 16.6564 24.3335H19.3432C19.3877 25.0559 19.5811 25.6122 19.9221 26.0002V26.0002ZM17.0003 21.3335C17.0003 21.1497 17.1495 21.0003 17.3335 21.0003H18.6668C18.8508 21.0003 19.0002 21.1497 19.0002 21.3335V22.667C19.0002 22.8509 18.8508 23.0002 18.6668 23.0002H17.3335C17.1495 23.0002 17.0003 22.8509 17.0003 22.667V21.3335Z" fill="#02457C"/>
<path d="M17.667 21.6667H18.3336V22.3334H17.667V21.6667Z" fill="#02457C"/>
</g>
<defs>
<clipPath id="clip0_1059_1645">
<rect width="20" height="20" fill="white" transform="translate(8 8)"/>
</clipPath>
</defs>
</svg>
