<svg width="36" height="36" viewBox="0 0 36 36" fill="none" xmlns="http://www.w3.org/2000/svg">
<circle cx="18" cy="18" r="18" fill="#E8F7FF"/>
<path d="M21.7722 25.4088H21.0233V23.6377H15.9794V25.4088H15.2305C14.8581 25.4088 14.5569 25.706 14.5569 26.0784C14.5569 26.4469 14.8581 26.748 15.2305 26.748H21.7722C22.1407 26.748 22.4418 26.4469 22.4418 26.0784C22.4418 25.706 22.1407 25.4088 21.7722 25.4088ZM22.3356 15.616C22.3422 15.7228 22.3892 15.823 22.4671 15.8962C22.545 15.9695 22.6479 16.0103 22.7548 16.0103C22.8618 16.0103 22.9647 15.9695 23.0426 15.8962C23.1205 15.823 23.1675 15.7228 23.1741 15.616C23.1675 15.5093 23.1205 15.4091 23.0426 15.3359C22.9647 15.2626 22.8618 15.2218 22.7548 15.2218C22.6479 15.2218 22.545 15.2626 22.4671 15.3359C22.3892 15.4091 22.3422 15.5093 22.3356 15.616ZM18.543 10.2361C18.4357 10.2418 18.3347 10.2884 18.2608 10.3664C18.1869 10.4443 18.1457 10.5477 18.1457 10.6551C18.1457 10.7625 18.1869 10.8658 18.2608 10.9438C18.3347 11.0217 18.4357 11.0684 18.543 11.0741C18.774 11.0741 18.9618 10.8863 18.9618 10.6553C18.9618 10.4243 18.774 10.2361 18.543 10.2361ZM23.3333 10.2361C23.1035 10.2361 22.9173 10.4223 22.9149 10.6513L22.9153 10.6537L22.9145 10.6573C22.9157 10.8871 23.1031 11.0741 23.3333 11.0741C23.5643 11.0741 23.7521 10.8863 23.7521 10.6553C23.7521 10.4243 23.5643 10.2361 23.3333 10.2361ZM18.0643 15.3442C18.0693 15.4678 18.122 15.5846 18.2112 15.6703C18.3004 15.756 18.4193 15.8038 18.543 15.8038C18.6666 15.8038 18.7855 15.756 18.8747 15.6703C18.9639 15.5846 19.0166 15.4678 19.0216 15.3442C19.0216 15.0803 18.8068 14.8656 18.543 14.8656C18.2791 14.8656 18.0643 15.0803 18.0643 15.3442ZM13.9119 15.616C13.9166 15.7241 13.9628 15.8261 14.0409 15.9009C14.119 15.9757 14.2229 16.0174 14.3311 16.0174C14.4392 16.0174 14.5432 15.9757 14.6213 15.9009C14.6994 15.8261 14.7456 15.7241 14.7503 15.616C14.7437 15.5093 14.6967 15.4091 14.6188 15.3359C14.5409 15.2626 14.438 15.2218 14.3311 15.2218C14.2241 15.2218 14.1212 15.2626 14.0433 15.3359C13.9655 15.4091 13.9184 15.5093 13.9119 15.616Z" fill="#02457C"/>
<path d="M18.7409 14.4939C18.933 14.5385 19.1044 14.6469 19.2273 14.8012C19.3501 14.9556 19.4172 15.1469 19.4176 15.3442C19.4176 15.826 19.0254 16.2187 18.5428 16.2187C18.0602 16.2187 17.6679 15.8264 17.6679 15.3442C17.6679 14.9297 17.9575 14.5842 18.3446 14.4939V12.9133L16.043 16.807C16.7086 17.0579 17.0074 17.5678 16.9166 18.3008H20.1685C20.0781 17.5678 20.3769 17.0579 21.0422 16.807L18.7409 12.9133V14.4939Z" fill="#02457C"/>
<path d="M13.6668 11.0745C13.8983 11.0745 14.086 10.8868 14.086 10.6553C14.086 10.4238 13.8983 10.2361 13.6668 10.2361C13.4352 10.2361 13.2476 10.4238 13.2476 10.6553C13.2476 10.8868 13.4352 11.0745 13.6668 11.0745Z" fill="#02457C"/>
<path d="M26.1413 8.2522H10.8588C10.3983 8.2522 9.95671 8.43512 9.6311 8.76074C9.30549 9.08635 9.12256 9.52798 9.12256 9.98846V19.9849H27.8775V9.98846C27.8775 9.52798 27.6946 9.08635 27.369 8.76074C27.0434 8.43512 26.6018 8.2522 26.1413 8.2522ZM21.5233 16.9977C21.5113 17.0261 21.4929 17.0514 21.4695 17.0716C21.4462 17.0917 21.4184 17.1062 21.3885 17.1138C20.6753 17.2937 20.4313 17.7073 20.5977 18.4562C20.6041 18.4852 20.6039 18.5152 20.5972 18.544C20.5904 18.5729 20.5773 18.5999 20.5587 18.623C20.5402 18.6461 20.5167 18.6648 20.4899 18.6776C20.4632 18.6904 20.434 18.6971 20.4043 18.6971H16.6814C16.6517 18.6972 16.6224 18.6905 16.5956 18.6777C16.5688 18.6649 16.5453 18.6463 16.5267 18.6232C16.5081 18.6 16.4949 18.573 16.4881 18.5441C16.4814 18.5152 16.4812 18.4852 16.4876 18.4562C16.6544 17.7073 16.4104 17.2937 15.6967 17.1138C15.6669 17.1062 15.6392 17.0917 15.6159 17.0716C15.5926 17.0514 15.5743 17.0262 15.5624 16.9977C15.5506 16.9693 15.5454 16.9385 15.5475 16.9078C15.5496 16.877 15.5587 16.8472 15.5743 16.8206L18.3721 12.0881C18.3748 12.0837 18.38 12.0821 18.3832 12.0782C18.4188 12.0266 18.4755 11.991 18.5428 11.991C18.6102 11.991 18.6669 12.0266 18.7025 12.0782C18.7057 12.0821 18.7104 12.0837 18.7136 12.0881L21.511 16.8206C21.5427 16.8745 21.5474 16.9403 21.5233 16.9977ZM23.3332 11.4703C23.1517 11.4699 22.9755 11.4087 22.8326 11.2967C22.6898 11.1846 22.5884 11.0281 22.5447 10.8518H20.3631C21.8874 11.5504 22.937 13.0917 22.9528 14.8276C23.1288 14.8716 23.2851 14.973 23.3969 15.1158C23.5087 15.2586 23.5697 15.4347 23.5702 15.6161C23.5702 16.0658 23.2048 16.4315 22.7551 16.4315C22.3054 16.4315 21.9393 16.0658 21.9393 15.6161C21.9393 15.2353 22.2032 14.9171 22.5566 14.8276C22.5376 12.9296 21.1595 11.2901 19.3076 10.9287C19.1946 11.2433 18.8959 11.4703 18.5428 11.4703C18.1898 11.4703 17.891 11.2433 17.7781 10.9287C15.9262 11.2901 14.5481 12.9296 14.5291 14.8276C14.705 14.8716 14.8612 14.9731 14.973 15.1159C15.0848 15.2587 15.1458 15.4347 15.1464 15.6161C15.1371 15.8261 15.0472 16.0245 14.8953 16.1698C14.7433 16.3152 14.5412 16.3963 14.331 16.3963C14.1207 16.3963 13.9186 16.3152 13.7667 16.1698C13.6147 16.0245 13.5248 15.8261 13.5155 15.6161C13.5155 15.2349 13.779 14.9167 14.1328 14.8276C14.1487 13.0917 15.1983 11.5508 16.7226 10.8518H14.4558C14.4121 11.0281 14.3107 11.1846 14.1679 11.2967C14.025 11.4087 13.8488 11.4699 13.6673 11.4703C13.2172 11.4703 12.8518 11.1046 12.8518 10.6553C12.8518 10.206 13.2172 9.83988 13.6669 9.83988C14.0473 9.83988 14.365 10.1026 14.4546 10.4556H17.7551C17.8447 10.103 18.1625 9.83988 18.5428 9.83988C18.9232 9.83988 19.241 10.1026 19.3305 10.4556H22.5455C22.5897 10.28 22.6912 10.1242 22.8338 10.0127C22.9764 9.90119 23.1522 9.84039 23.3332 9.83988C23.7825 9.83988 24.1483 10.2056 24.1483 10.6553C24.1483 11.105 23.7825 11.4703 23.3332 11.4703ZM9.12256 21.504C9.12251 21.732 9.16738 21.9579 9.25461 22.1686C9.34184 22.3792 9.46973 22.5707 9.63096 22.732C9.79219 22.8932 9.98361 23.0212 10.1943 23.1084C10.405 23.1957 10.6308 23.2406 10.8588 23.2406H26.1413C26.3693 23.2406 26.5951 23.1957 26.8058 23.1084C27.0165 23.0212 27.2079 22.8932 27.3691 22.732C27.5304 22.5707 27.6583 22.3792 27.7455 22.1686C27.8327 21.9579 27.8776 21.732 27.8775 21.504V20.3811H9.12256V21.504ZM17.5317 21.5135H19.4344C19.4869 21.5135 19.5373 21.5344 19.5744 21.5715C19.6116 21.6087 19.6325 21.6591 19.6325 21.7116C19.6325 21.7642 19.6116 21.8145 19.5744 21.8517C19.5373 21.8889 19.4869 21.9097 19.4344 21.9097H17.5317C17.4791 21.9097 17.4287 21.8889 17.3916 21.8517C17.3544 21.8145 17.3336 21.7642 17.3336 21.7116C17.3336 21.6591 17.3544 21.6087 17.3916 21.5715C17.4287 21.5344 17.4791 21.5135 17.5317 21.5135Z" fill="#02457C"/>
</svg>
