<svg width="169" height="47" viewBox="0 0 169 47" fill="none" xmlns="http://www.w3.org/2000/svg">
<g clip-path="url(#clip0_12028_90354)">
<path fill-rule="evenodd" clip-rule="evenodd" d="M51.2656 34.5272V13.8441H53.9249L66.5646 30.489V13.8441H69.0925V34.5272H66.4332L53.7936 17.718V34.5272H51.2656ZM89.6771 33.7064C88.0028 34.3302 86.1971 34.6585 84.2929 34.6585C76.8076 34.6585 73.065 31.08 73.065 23.8901C73.065 17.0943 76.6763 13.6799 83.899 13.6799C85.9673 13.6799 87.9043 13.9754 89.6771 14.5335V16.8316C87.9043 16.1422 86.0658 15.8139 84.1944 15.8139C78.5476 15.8139 75.7242 18.506 75.7242 23.8245C75.7242 29.5698 78.5148 32.426 84.0631 32.426C84.9495 32.426 85.9345 32.2947 87.0179 32.0649V25.1377H89.6771V33.7064ZM93.9451 26.5494V13.8441H96.6043V26.5494C96.6043 30.5219 98.5741 32.5245 102.547 32.5245C106.486 32.5245 108.489 30.5219 108.489 26.5494V13.8441H111.148V26.5494C111.148 31.9664 108.292 34.6913 102.547 34.6913C96.8013 34.6913 93.9451 31.9664 93.9451 26.5494ZM118.568 13.8441V32.3604H129.402V34.5272H115.909V13.8441H118.568ZM133.243 34.5272H130.452L140.728 11.1191L151.004 34.5272H148.049L145.39 28.0268H138.561L139.284 25.86H144.504L140.63 16.5033L133.243 34.5272ZM153.86 34.5272V13.8441H162.692C166.631 13.8441 168.601 15.4856 168.601 18.8014C168.601 21.4935 166.664 23.4962 162.823 24.7766L169.914 34.5272H166.402L159.836 25.2362V23.4962C163.775 22.8724 165.778 21.3622 165.778 18.9328C165.778 17.0286 164.694 16.0765 162.495 16.0765H156.585V34.5272H153.86Z" fill="white"/>
<path fill-rule="evenodd" clip-rule="evenodd" d="M0.171875 8.32637L21.3474 0.775391L43.0811 8.19504L39.5683 36.1993L21.3474 46.2782L3.42208 36.3306L0.171875 8.32637Z" fill="white"/>
<path fill-rule="evenodd" clip-rule="evenodd" d="M43.0852 8.19504L21.3516 0.775391V46.2782L39.5724 36.1993L43.0852 8.19504Z" fill="#D1D1D1"/>
<path fill-rule="evenodd" clip-rule="evenodd" d="M21.3775 6.0957L8.17969 35.446L13.1042 35.3475L15.7635 28.7158H27.5496L30.4387 35.4132L35.1334 35.5117L21.3775 6.0957ZM21.4103 15.518L25.8752 24.8418H17.5035L21.4103 15.518Z" fill="#DD0031"/>
</g>
<defs>
<clipPath id="clip0_12028_90354">
<rect width="168.091" height="45.6536" fill="white" transform="translate(0.15625 0.761719)"/>
</clipPath>
</defs>
</svg>
