<svg width="68" height="69" viewBox="0 0 68 69" fill="none" xmlns="http://www.w3.org/2000/svg">
<path d="M29.3038 25.0099C30.767 22.5289 33.9432 21.7389 36.3982 23.2455C38.8531 24.7521 39.6571 27.9848 38.1939 30.4658L30.2034 44.0151C28.7403 46.4961 25.564 47.2861 23.1091 45.7795C20.6541 44.2729 19.8502 41.0403 21.3133 38.5592L29.3038 25.0099Z" fill="url(#paint0_linear_11917_77155)"/>
<rect width="10.3293" height="10.4252" rx="5.16466" transform="matrix(-0.850863 0.525388 0.510292 0.860001 51.6328 20.4727)" fill="white"/>
<rect width="10.3293" height="26.2896" rx="5.16466" transform="matrix(-0.850863 0.525388 0.510292 0.860001 19.4375 20.4727)" fill="white"/>
<path fill-rule="evenodd" clip-rule="evenodd" d="M31.0675 23.1878C33.4945 21.6892 36.6419 22.463 38.0975 24.916L44.915 36.4058C46.796 38.9592 49.1294 38.4752 49.9365 37.7623L46.3856 43.736C45.9634 44.5588 45.3209 45.2795 44.4829 45.7969C42.0559 47.2955 38.9085 46.5218 37.453 44.0687L29.3086 30.3429C27.8531 27.8899 28.6406 24.6864 31.0675 23.1878Z" fill="white"/>
<path d="M58.3157 10.6735C52.8007 4.77524 45.3997 1.07479 37.455 0.199528C29.5104 -0.675668 21.5185 1.3465 14.8959 5.90763C8.27334 10.4688 3.44793 17.2742 1.27472 25.1179C-0.898369 32.9614 -0.278657 41.3365 3.02387 48.7587C6.32639 56.1807 12.0985 62.1704 19.3172 65.6661C26.5359 69.1617 34.7347 69.9375 42.4607 67.856C50.1865 65.7745 56.9403 60.9701 61.5251 54.2943C66.1098 47.6185 68.2233 39.5707 67.5019 31.4532C67.3399 29.7522 66.0023 28.414 64.2942 28.292C62.387 28.1557 60.7315 29.6387 60.598 31.5843C60.5816 31.8223 60.6041 32.0593 60.6175 32.2836C61.1174 38.643 59.4404 45.0089 55.849 50.2384C52.2037 55.5463 46.8336 59.3663 40.6907 61.0213C34.5479 62.6764 28.029 62.0595 22.2895 59.2801C16.5499 56.5007 11.9605 51.7383 9.33463 45.837C6.7088 39.9357 6.21604 33.2767 7.94397 27.0403C9.67178 20.8038 13.5086 15.3928 18.7742 11.7662C24.0398 8.13966 30.394 6.53185 36.7108 7.22774C43.0276 7.92362 48.9337 10.8602 53.3187 15.5499L53.3187 15.55C53.8984 16.2258 54.7307 16.6756 55.6774 16.7432C57.5811 16.8792 59.2326 15.413 59.3661 13.4683C59.4407 12.3819 59.0286 11.3736 58.3159 10.6736L58.3157 10.6735Z" fill="white"/>
<defs>
<linearGradient id="paint0_linear_11917_77155" x1="36.3982" y1="23.2455" x2="22.7167" y2="45.5387" gradientUnits="userSpaceOnUse">
<stop stop-color="white"/>
<stop offset="1" stop-color="#141414" stop-opacity="0.5"/>
</linearGradient>
</defs>
</svg>
