<svg width="32" height="33" viewBox="0 0 32 33" fill="none" xmlns="http://www.w3.org/2000/svg">
<path d="M21.3346 22.3553H10.668C10.1213 22.3553 9.66797 21.902 9.66797 21.3553V10.6887C9.66797 10.142 10.1213 9.68866 10.668 9.68866H21.3346C21.8813 9.68866 22.3346 10.142 22.3346 10.6887V21.3553C22.3346 21.902 21.8813 22.3553 21.3346 22.3553ZM11.668 20.3553H20.3346V11.6887H11.668V20.3553Z" fill="white"/>
<path d="M6.66797 30.3553C3.90797 30.3553 1.66797 28.1153 1.66797 25.3553C1.66797 22.5953 3.90797 20.3553 6.66797 20.3553H10.668C11.2146 20.3553 11.668 20.8086 11.668 21.3553V25.3553C11.668 28.1153 9.42797 30.3553 6.66797 30.3553ZM6.66797 22.3553C5.01464 22.3553 3.66797 23.702 3.66797 25.3553C3.66797 27.0086 5.01464 28.3553 6.66797 28.3553C8.3213 28.3553 9.66797 27.0086 9.66797 25.3553V22.3553H6.66797Z" fill="white"/>
<path d="M10.668 11.6887H6.66797C3.90797 11.6887 1.66797 9.44866 1.66797 6.68866C1.66797 3.92866 3.90797 1.68866 6.66797 1.68866C9.42797 1.68866 11.668 3.92866 11.668 6.68866V10.6887C11.668 11.2353 11.2146 11.6887 10.668 11.6887ZM6.66797 3.68866C5.01464 3.68866 3.66797 5.03533 3.66797 6.68866C3.66797 8.34199 5.01464 9.68866 6.66797 9.68866H9.66797V6.68866C9.66797 5.03533 8.3213 3.68866 6.66797 3.68866Z" fill="white"/>
<path d="M25.332 11.6887H21.332C20.7854 11.6887 20.332 11.2353 20.332 10.6887V6.68866C20.332 3.92866 22.572 1.68866 25.332 1.68866C28.092 1.68866 30.332 3.92866 30.332 6.68866C30.332 9.44866 28.092 11.6887 25.332 11.6887ZM22.332 9.68866H25.332C26.9854 9.68866 28.332 8.34199 28.332 6.68866C28.332 5.03533 26.9854 3.68866 25.332 3.68866C23.6787 3.68866 22.332 5.03533 22.332 6.68866V9.68866Z" fill="white"/>
<path d="M25.332 30.3553C22.572 30.3553 20.332 28.1153 20.332 25.3553V21.3553C20.332 20.8086 20.7854 20.3553 21.332 20.3553H25.332C28.092 20.3553 30.332 22.5953 30.332 25.3553C30.332 28.1153 28.092 30.3553 25.332 30.3553ZM22.332 22.3553V25.3553C22.332 27.0086 23.6787 28.3553 25.332 28.3553C26.9854 28.3553 28.332 27.0086 28.332 25.3553C28.332 23.702 26.9854 22.3553 25.332 22.3553H22.332Z" fill="white"/>
</svg>
