<svg width="32" height="33" viewBox="0 0 32 33" fill="none" xmlns="http://www.w3.org/2000/svg">
<g clip-path="url(#clip0_9761_40102)">
<path d="M17.3359 12.0234H25.3359C26.0432 12.0234 26.7215 12.3044 27.2216 12.8045C27.7217 13.3046 28.0026 13.9829 28.0026 14.6901V22.6901M25.3359 25.3568H12.0026C11.2954 25.3568 10.6171 25.0758 10.117 24.5757C9.61689 24.0756 9.33594 23.3973 9.33594 22.6901V14.6901C9.33594 13.9829 9.61689 13.3046 10.117 12.8045C10.6171 12.3044 11.2954 12.0234 12.0026 12.0234" stroke="#141414" strokeWidth="2" strokeLinecap="round" strokeLinejoin="round"/>
<path d="M16.7785 16.8086C16.2931 17.3119 16.0248 17.9857 16.0314 18.6849C16.0379 19.3841 16.3189 20.0527 16.8136 20.5468C17.3084 21.0409 17.9774 21.3208 18.6767 21.3264C19.3759 21.332 20.0493 21.0627 20.5519 20.5766" stroke="#141414" strokeWidth="2" strokeLinecap="round" strokeLinejoin="round"/>
<path d="M22.6667 12.0247V9.35807C22.6667 8.65083 22.3857 7.97255 21.8856 7.47245C21.3855 6.97236 20.7072 6.69141 20 6.69141H12M6.66667 6.69141C5.95942 6.69141 5.28115 6.97236 4.78105 7.47245C4.28095 7.97255 4 8.65083 4 9.35807V17.3581C4 18.0653 4.28095 18.7436 4.78105 19.2437C5.28115 19.7438 5.95942 20.0247 6.66667 20.0247H9.33333" stroke="#141414" strokeWidth="2" strokeLinecap="round" strokeLinejoin="round"/>
<path d="M4 4.02344L28 28.0234" stroke="#141414" strokeWidth="2" strokeLinecap="round" strokeLinejoin="round"/>
</g>
<defs>
<clipPath id="clip0_9761_40102">
<rect width="32" height="32" fill="white" transform="translate(0 0.0234375)"/>
</clipPath>
</defs>
</svg>
