<svg width="28" height="28" viewBox="0 0 28 28" fill="none" xmlns="http://www.w3.org/2000/svg">
<path d="M23.3335 3.5H10.5002C9.85583 3.5 9.3335 4.02233 9.3335 4.66667V10.5C9.3335 11.1443 9.85583 11.6667 10.5002 11.6667H23.3335C23.9778 11.6667 24.5002 11.1443 24.5002 10.5V4.66667C24.5002 4.02233 23.9778 3.5 23.3335 3.5Z" stroke="#141414" strokeWidth="1.5" strokeLinecap="round" strokeLinejoin="round"/>
<path d="M2.3335 10.5L5.8335 14L2.3335 17.5" stroke="#141414" strokeWidth="1.5" strokeLinecap="round" strokeLinejoin="round"/>
<path d="M23.3335 16.334H10.5002C9.85583 16.334 9.3335 16.8563 9.3335 17.5007V23.334C9.3335 23.9783 9.85583 24.5007 10.5002 24.5007H23.3335C23.9778 24.5007 24.5002 23.9783 24.5002 23.334V17.5007C24.5002 16.8563 23.9778 16.334 23.3335 16.334Z" stroke="#141414" strokeWidth="1.5" strokeLinecap="round" strokeLinejoin="round"/>
</svg>
