<svg width="32" height="33" viewBox="0 0 32 33" fill="none" xmlns="http://www.w3.org/2000/svg">
<g clip-path="url(#clip0_9824_49541)">
<path d="M8 26.6901V24.0234C8 21.9017 8.84286 19.8669 10.3431 18.3666C11.8434 16.8663 13.8783 16.0234 16 16.0234C18.1217 16.0234 20.1566 16.8663 21.6569 18.3666C23.1571 19.8669 24 21.9017 24 24.0234V26.6901C24 27.0437 23.8595 27.3829 23.6095 27.6329C23.3594 27.883 23.0203 28.0234 22.6667 28.0234H9.33333C8.97971 28.0234 8.64057 27.883 8.39052 27.6329C8.14048 27.3829 8 27.0437 8 26.6901Z" stroke="#141414" stroke-width="2" stroke-linecap="round" stroke-linejoin="round"/>
<path d="M8 5.35677V8.02344C8 10.1452 8.84286 12.18 10.3431 13.6803C11.8434 15.1806 13.8783 16.0234 16 16.0234C18.1217 16.0234 20.1566 15.1806 21.6569 13.6803C23.1571 12.18 24 10.1452 24 8.02344V5.35677C24 5.00315 23.8595 4.66401 23.6095 4.41396C23.3594 4.16391 23.0203 4.02344 22.6667 4.02344H9.33333C8.97971 4.02344 8.64057 4.16391 8.39052 4.41396C8.14048 4.66401 8 5.00315 8 5.35677Z" stroke="#141414" stroke-width="2" stroke-linecap="round" stroke-linejoin="round"/>
</g>
<defs>
<clipPath id="clip0_9824_49541">
<rect width="32" height="32" fill="white" transform="translate(0 0.0234375)"/>
</clipPath>
</defs>
</svg>
