<svg width="99" height="40" viewBox="0 0 99 40" fill="none" xmlns="http://www.w3.org/2000/svg">
<path d="M0 37.071H19.2302V39.8234H0V37.071ZM0 31.7886H19.2302V34.5493H0V31.7886ZM5.4802 26.5185H13.7335V29.2833H5.4802V26.5185ZM5.4802 21.2526H13.7335V24.0133H5.4802V21.2526ZM5.4802 15.9784H13.7335V18.7432H5.4802V15.9784ZM5.4802 10.7001H13.7335V13.4649H5.4802V10.7001ZM0 5.43413H19.2302V8.19483H0V5.43413ZM0 0.164066H19.2302V2.92477H0V0.164066ZM21.9703 34.5493H51.5428C52.0372 33.7004 52.4163 32.7651 52.6429 31.7886H21.9744V34.5493H21.9703ZM49.2394 21.2526H27.4711V24.0133H51.5469C50.9369 22.9733 50.1602 22.0406 49.2477 21.2526H49.2394ZM27.4669 15.9784V18.7432H49.2435C50.1624 17.9686 50.9329 17.0373 51.5469 15.9784H27.4669ZM51.5428 5.43413H21.9703V8.19483H52.6388C52.3901 7.23247 52.0219 6.30503 51.5428 5.43413ZM42.453 0.164066H21.9703V2.92477H49.5155C47.5931 1.14782 45.0709 0.161881 42.453 0.164066ZM27.4669 10.7001H35.7079V13.4649H27.4669V10.7001ZM43.9529 13.4649H52.5729C52.816 12.5831 52.9437 11.6519 52.9437 10.7001H43.9529V13.4649ZM27.4669 26.5185H35.7037V29.2833H27.4628L27.4669 26.5185ZM43.9529 26.5185V29.2833H52.9437C52.9437 28.3356 52.816 27.4003 52.5729 26.5185H43.9529ZM21.9703 39.8028L42.4489 39.8317C45.1973 39.8317 47.6737 38.7727 49.5237 37.071H21.9703V39.8028ZM54.9421 37.071H68.6715V39.8234H54.9421V37.071ZM54.9421 31.7886H68.6715V34.5493H54.9421V31.7886ZM60.4265 26.5185H68.6674V29.2833H60.4265V26.5185ZM60.4265 21.2526H68.6674V24.0133H60.4265V21.2526ZM72.4953 5.43413H54.9421V8.19483H73.443L72.4953 5.43413ZM70.674 0.164066H54.9421V2.92065H71.6217L70.674 0.164066ZM85.1492 37.071H98.8909V39.8234H85.1492V37.071ZM85.1492 31.7886H98.8909V34.5493H85.1492V31.7886ZM85.1492 26.5185H93.3901V29.2833H85.1492V26.5185ZM85.1492 21.2526H93.3901V24.0133H85.1492V21.2526ZM85.1492 18.7432H93.3901V15.9784H77.687L76.9124 18.2117L76.1378 15.9784H60.4265V18.7432H68.6674V16.205L69.545 18.7432H84.2757L85.1492 16.205V18.7432ZM93.3942 10.7001H79.5083L78.5606 13.4649H93.3942V10.7001ZM83.1631 0.164066L82.2113 2.92065H98.8909V0.164066H83.1631ZM76.9124 39.8028L77.8601 37.071H75.9606L76.9124 39.8028ZM75.0912 34.5493H78.7336L79.7143 31.7886H74.1229L75.0912 34.5493ZM73.2411 29.2833H80.5837L81.552 26.5185H72.2686L73.2411 29.2833ZM71.3951 24.0133H82.4338L83.3774 21.2526H70.4474L71.3951 24.0133ZM60.4265 13.4649H75.2683L74.3165 10.7001H60.4265V13.4649ZM80.3901 8.19483H98.8909V5.43413H81.3295L80.3901 8.19483Z" fill="black"/>
</svg>
