<svg width="100" height="43" viewBox="0 0 100 43" fill="none" xmlns="http://www.w3.org/2000/svg">
<g clip-path="url(#clip0_8342_38033)">
<path d="M0.648438 38.0929H19.8786V40.8454H0.648438V38.0929ZM0.648438 32.8105H19.8786V35.5712H0.648438V32.8105ZM6.12864 27.5405H14.3819V30.3053H6.12864V27.5405ZM6.12864 22.2745H14.3819V25.0352H6.12864V22.2745ZM6.12864 17.0003H14.3819V19.7652H6.12864V17.0003ZM6.12864 11.722H14.3819V14.4869H6.12864V11.722ZM0.648438 6.4561H19.8786V9.2168H0.648438V6.4561ZM0.648438 1.18604H19.8786V3.94674H0.648438V1.18604ZM22.6187 35.5712H52.1912C52.6857 34.7224 53.0647 33.7871 53.2914 32.8105H22.6228V35.5712H22.6187ZM49.8879 22.2745H28.1195V25.0352H52.1953C51.5854 23.9952 50.8086 23.0626 49.8961 22.2745H49.8879ZM28.1154 17.0003V19.7652H49.892C50.8108 18.9905 51.5814 18.0593 52.1953 17.0003H28.1154ZM52.1912 6.4561H22.6187V9.2168H53.2872C53.0385 8.25444 52.6703 7.327 52.1912 6.4561ZM43.1015 1.18604H22.6187V3.94674H50.1639C48.2416 2.16979 45.7193 1.18385 43.1015 1.18604ZM28.1154 11.722H36.3563V14.4869H28.1154V11.722ZM44.6013 14.4869H53.2213C53.4644 13.6051 53.5922 12.6739 53.5922 11.722H44.6013V14.4869ZM28.1154 27.5405H36.3522V30.3053H28.1113L28.1154 27.5405ZM44.6013 27.5405V30.3053H53.5922C53.5922 29.3576 53.4644 28.4222 53.2213 27.5405H44.6013ZM22.6187 40.8248L43.0974 40.8536C45.8457 40.8536 48.3221 39.7947 50.1722 38.0929H22.6187V40.8248ZM55.5906 38.0929H69.3199V40.8454H55.5906V38.0929ZM55.5906 32.8105H69.3199V35.5712H55.5906V32.8105ZM61.0749 27.5405H69.3158V30.3053H61.0749V27.5405ZM61.0749 22.2745H69.3158V25.0352H61.0749V22.2745ZM73.1437 6.4561H55.5906V9.2168H74.0914L73.1437 6.4561ZM71.3225 1.18604H55.5906V3.94262H72.2702L71.3225 1.18604ZM85.7976 38.0929H99.5393V40.8454H85.7976V38.0929ZM85.7976 32.8105H99.5393V35.5712H85.7976V32.8105ZM85.7976 27.5405H94.0385V30.3053H85.7976V27.5405ZM85.7976 22.2745H94.0385V25.0352H85.7976V22.2745ZM85.7976 19.7652H94.0385V17.0003H78.3355L77.5608 19.2336L76.7862 17.0003H61.0749V19.7652H69.3158V17.227L70.1935 19.7652H84.9241L85.7976 17.227V19.7652ZM94.0427 11.722H80.1567L79.209 14.4869H94.0427V11.722ZM83.8116 1.18604L82.8597 3.94262H99.5393V1.18604H83.8116ZM77.5608 40.8248L78.5085 38.0929H76.609L77.5608 40.8248ZM75.7396 35.5712H79.3821L80.3627 32.8105H74.7713L75.7396 35.5712ZM73.8895 30.3053H81.2322L82.2005 27.5405H72.9171L73.8895 30.3053ZM72.0435 25.0352H83.0822L84.0258 22.2745H71.0958L72.0435 25.0352ZM61.0749 14.4869H75.9168L74.965 11.722H61.0749V14.4869ZM81.0385 9.2168H99.5393V6.4561H81.978L81.0385 9.2168Z" fill="#606060"/>
</g>
<defs>
<clipPath id="clip0_8342_38033">
<rect width="98.7" height="42" fill="white" transform="translate(0.648438 0.0219727)"/>
</clipPath>
</defs>
</svg>
