<svg width="295" height="173" viewBox="0 0 295 173" fill="none" xmlns="http://www.w3.org/2000/svg">
<path d="M290.007 0.015763L2.00875 2.3025C1.06217 2.31002 0.588886 2.31377 0.298076 2.61054C0.00726514 2.90731 0.0131041 3.38058 0.0247822 4.32712L2.07816 170.759C2.08974 171.698 2.09553 172.167 2.39023 172.456C2.68494 172.745 3.15417 172.742 4.09263 172.735L292.591 170.627C293.541 170.62 294.016 170.616 294.307 170.318C294.598 170.021 294.591 169.546 294.576 168.596L292.022 1.98505C292.008 1.0487 292.001 0.58052 291.706 0.292565C291.411 0.0046098 290.943 0.00832752 290.007 0.015763Z" fill="#DD0031"/>
<rect x="94.625" y="12.8008" width="107.438" height="108.461" rx="53.7189" fill="white" fill-opacity="0.3"/>
<rect x="101.094" y="19.332" width="94.5038" height="95.4038" rx="45.3662" fill="white"/>
</svg>
