<svg width="196" height="43" viewBox="0 0 196 43" fill="none" xmlns="http://www.w3.org/2000/svg">
<g clip-path="url(#clip0_8342_38022)">
<path d="M195.745 18.9046V15.4663H191.475V10.1216L191.332 10.1655L187.321 11.3927L187.243 11.4167V15.4663H180.913V13.2105C180.913 12.1601 181.148 11.356 181.611 10.8203C182.071 10.2904 182.729 10.0212 183.567 10.0212C184.17 10.0212 184.794 10.1632 185.423 10.4431L185.58 10.5134V6.89295L185.506 6.86623C184.92 6.65508 184.123 6.54932 183.135 6.54932C181.889 6.54932 180.758 6.82003 179.771 7.35724C178.798 7.88028 177.997 8.67245 177.463 9.63899C176.921 10.6142 176.646 11.7401 176.646 12.9864V15.4667H173.673V18.905H176.646V33.3885H180.913V18.9046H187.243V28.1087C187.243 31.8994 189.03 33.8207 192.557 33.8207C193.166 33.8171 193.774 33.7496 194.369 33.6191C195.003 33.4828 195.434 33.3465 195.689 33.201L195.745 33.1678V29.6978L195.571 29.8127C195.34 29.9674 195.051 30.0934 194.713 30.1869C194.373 30.2824 194.089 30.3305 193.87 30.3305C193.044 30.3305 192.433 30.1079 192.053 29.6684C191.67 29.2255 191.475 28.45 191.475 27.3657V18.9046H195.745ZM164.142 30.3309C162.593 30.3309 161.372 29.8169 160.511 28.8055C159.646 27.7883 159.207 26.339 159.207 24.4967C159.207 22.5964 159.646 21.1092 160.512 20.0741C161.373 19.0462 162.583 18.5243 164.108 18.5243C165.587 18.5243 166.765 19.0226 167.609 20.0065C168.457 20.995 168.887 22.4704 168.887 24.3928C168.887 26.339 168.482 27.8342 167.684 28.8341C166.892 29.8269 165.701 30.3309 164.142 30.3309ZM164.333 15.0345C161.377 15.0345 159.03 15.9004 157.357 17.6083C155.684 19.3166 154.836 21.68 154.836 24.6345C154.836 27.4405 155.664 29.6974 157.296 31.3419C158.929 32.9868 161.151 33.8199 163.9 33.8199C166.765 33.8199 169.065 32.9421 170.738 31.2106C172.411 29.4809 173.258 27.1396 173.258 24.2538C173.258 21.4043 172.463 19.1306 170.894 17.4972C169.324 15.863 167.116 15.0345 164.333 15.0345ZM147.955 15.0345C145.945 15.0345 144.282 15.5488 143.011 16.5625C141.734 17.5823 141.086 18.9202 141.086 20.5388C141.086 21.3799 141.225 22.1271 141.501 22.7609C141.778 23.397 142.207 23.9568 142.776 24.4268C143.341 24.893 144.214 25.3814 145.37 25.8777C146.342 26.2779 147.067 26.6165 147.528 26.883C147.978 27.1446 148.297 27.4073 148.478 27.6631C148.653 27.9132 148.742 28.2561 148.742 28.6787C148.742 29.883 147.84 30.4687 145.985 30.4687C145.297 30.4687 144.512 30.3251 143.652 30.0418C142.798 29.7627 141.992 29.3541 141.263 28.8303L141.086 28.7036V32.8119L141.15 32.8425C141.754 33.1212 142.516 33.356 143.413 33.5412C144.309 33.726 145.122 33.8203 145.829 33.8203C148.011 33.8203 149.767 33.3037 151.049 32.2839C152.339 31.2568 152.993 29.888 152.993 28.2129C152.993 27.0052 152.641 25.969 151.947 25.1336C151.258 24.305 150.062 23.544 148.395 22.8717C147.066 22.3383 146.214 21.8957 145.864 21.5559C145.525 21.2276 145.353 20.7633 145.353 20.1756C145.353 19.6541 145.565 19.2368 146.001 18.8985C146.44 18.5586 147.051 18.3857 147.817 18.3857C148.528 18.3857 149.256 18.4979 149.979 18.7179C150.702 18.9382 151.337 19.2333 151.867 19.5938L152.041 19.7129V15.8153L151.975 15.7866C151.486 15.5766 150.841 15.3972 150.058 15.2521C149.277 15.1078 148.57 15.0345 147.955 15.0345ZM129.96 30.3309C128.411 30.3309 127.19 29.8169 126.329 28.8055C125.463 27.7883 125.025 26.339 125.025 24.4967C125.025 22.5964 125.463 21.1092 126.33 20.0741C127.19 19.0462 128.4 18.5243 129.925 18.5243C131.405 18.5243 132.583 19.0226 133.427 20.0065C134.275 20.995 134.705 22.4704 134.705 24.3928C134.705 26.339 134.3 27.8342 133.502 28.8341C132.71 29.8269 131.518 30.3309 129.96 30.3309ZM130.15 15.0345C127.194 15.0345 124.847 15.9004 123.174 17.6083C121.502 19.3166 120.653 21.68 120.653 24.6345C120.653 27.4416 121.482 29.6974 123.114 31.3419C124.747 32.9868 126.969 33.8199 129.718 33.8199C132.582 33.8199 134.883 32.9421 136.556 31.2106C138.228 29.4809 139.076 27.1396 139.076 24.2538C139.076 21.4043 138.281 19.1306 136.711 17.4972C135.141 15.863 132.933 15.0345 130.15 15.0345ZM114.175 18.5701V15.4663H109.959V33.3877H114.175V24.2199C114.175 22.6609 114.528 21.3803 115.226 20.4131C115.914 19.4574 116.832 18.9729 117.952 18.9729C118.332 18.9729 118.758 19.0355 119.22 19.1596C119.677 19.2826 120.008 19.4162 120.203 19.5567L120.38 19.6854V15.4358L120.311 15.4064C119.919 15.2395 119.363 15.1555 118.661 15.1555C117.601 15.1555 116.653 15.4957 115.842 16.1658C115.129 16.7549 114.613 17.5629 114.22 18.5701H114.175ZM102.41 15.0345C100.476 15.0345 98.7506 15.4495 97.2833 16.267C95.8133 17.086 94.6759 18.2562 93.9023 19.7434C93.1322 21.2276 92.7412 22.961 92.7412 24.8942C92.7412 26.5871 93.1204 28.1411 93.8695 29.5103C94.6194 30.8822 95.6808 31.9555 97.0241 32.7C98.3658 33.4434 99.9163 33.8203 101.633 33.8203C103.636 33.8203 105.347 33.4198 106.718 32.6302L106.773 32.5981V28.736L106.597 28.8654C105.966 29.3228 105.271 29.6845 104.534 29.9391C103.789 30.1991 103.11 30.3305 102.514 30.3305C100.86 30.3305 99.5322 29.8131 98.5681 28.7929C97.6021 27.7708 97.1123 26.3363 97.1123 24.5307C97.1123 22.714 97.6231 21.2424 98.6296 20.1562C99.6334 19.0737 100.964 18.5247 102.584 18.5247C103.969 18.5247 105.319 18.9939 106.597 19.9206L106.773 20.0489V15.9795L106.717 15.9474C106.235 15.6782 105.58 15.456 104.766 15.2876C103.956 15.1196 103.163 15.0345 102.41 15.0345ZM89.8379 15.4663H85.6218V33.3877H89.8379V15.4663ZM87.773 7.83184C87.0792 7.83184 86.474 8.06819 85.9769 8.53592C85.4775 9.00555 85.224 9.59661 85.224 10.2938C85.224 10.9803 85.4744 11.5603 85.9685 12.0173C86.4599 12.4728 87.067 12.7038 87.773 12.7038C88.4786 12.7038 89.088 12.4728 89.5851 12.0181C90.0853 11.5603 90.3392 10.9803 90.3392 10.2938C90.3392 9.62104 90.0922 9.03572 89.6057 8.55501C89.1197 8.07506 88.5026 7.83184 87.773 7.83184ZM77.2547 14.1444V33.3873H81.557V8.38052H75.6025L68.0338 26.9548L60.6891 8.38052H54.4922V33.3877H58.5353V14.1425H58.6742L66.4301 33.3877H69.4808L77.1157 14.1441L77.2547 14.1444Z" fill="#606060"/>
<path d="M20.0852 19.8532H0.253906V0.0219727H20.0852V19.8532Z" fill="#DADADA"/>
<path d="M41.9797 19.8532H22.1484V0.0219727H41.9797V19.8532Z" fill="#DADADA"/>
<path d="M20.0848 41.7595H0.253906V21.9282H20.0848V41.7595Z" fill="#DADADA"/>
<path d="M41.9836 41.7595H22.1523V21.9282H41.9836V41.7595Z" fill="#DADADA"/>
</g>
<defs>
<clipPath id="clip0_8342_38022">
<rect width="195.491" height="42" fill="white" transform="translate(0.253906 0.0219727)"/>
</clipPath>
</defs>
</svg>
