<svg width="32" height="33" viewBox="0 0 32 33" fill="none" xmlns="http://www.w3.org/2000/svg">
<g clip-path="url(#clip0_9824_49415)">
<path d="M4 17.3568C4 17.0031 4.14048 16.664 4.39052 16.414C4.64057 16.1639 4.97971 16.0234 5.33333 16.0234H10.6667C11.0203 16.0234 11.3594 16.1639 11.6095 16.414C11.8595 16.664 12 17.0031 12 17.3568V25.3568C12 25.7104 11.8595 26.0495 11.6095 26.2996C11.3594 26.5496 11.0203 26.6901 10.6667 26.6901H5.33333C4.97971 26.6901 4.64057 26.5496 4.39052 26.2996C4.14048 26.0495 4 25.7104 4 25.3568V17.3568Z" stroke="#141414" strokeWidth="2" strokeLinecap="round" strokeLinejoin="round"/>
<path d="M20 12.0228C20 11.6692 20.1405 11.33 20.3905 11.08C20.6406 10.8299 20.9797 10.6895 21.3333 10.6895H26.6667C27.0203 10.6895 27.3594 10.8299 27.6095 11.08C27.8595 11.33 28 11.6692 28 12.0228V25.3561C28 25.7097 27.8595 26.0489 27.6095 26.2989C27.3594 26.549 27.0203 26.6895 26.6667 26.6895H21.3333C20.9797 26.6895 20.6406 26.549 20.3905 26.2989C20.1405 26.0489 20 25.7097 20 25.3561V12.0228Z" stroke="#141414" strokeWidth="2" strokeLinecap="round" strokeLinejoin="round"/>
<path d="M12 6.69076C12 6.33713 12.1405 5.99799 12.3905 5.74795C12.6406 5.4979 12.9797 5.35742 13.3333 5.35742H18.6667C19.0203 5.35742 19.3594 5.4979 19.6095 5.74795C19.8595 5.99799 20 6.33713 20 6.69076V25.3574C20 25.711 19.8595 26.0502 19.6095 26.3002C19.3594 26.5503 19.0203 26.6908 18.6667 26.6908H13.3333C12.9797 26.6908 12.6406 26.5503 12.3905 26.3002C12.1405 26.0502 12 25.711 12 25.3574V6.69076Z" stroke="#141414" strokeWidth="2" strokeLinecap="round" strokeLinejoin="round"/>
<path d="M5.33594 26.6895H24.0026" stroke="#141414" strokeWidth="2" strokeLinecap="round" strokeLinejoin="round"/>
</g>
<defs>
<clipPath id="clip0_9824_49415">
<rect width="32" height="32" fill="white" transform="translate(0 0.0234375)"/>
</clipPath>
</defs>
</svg>
