<svg width="157" height="42" viewBox="0 0 157 42" fill="none" xmlns="http://www.w3.org/2000/svg">
<path fill-rule="evenodd" clip-rule="evenodd" d="M19.9253 0.453125C25.012 0.453125 29.7055 3.21245 29.0634 10.0893C28.285 18.2622 23.9067 22.7846 16.9986 22.804H10.9624C10.0945 22.804 9.67418 23.5123 9.44845 24.964L8.2809 32.3857C8.10577 33.5066 7.52977 34.0592 6.68134 34.0592H1.06541C0.170283 34.0592 -0.141064 33.4871 0.0574204 32.2067L4.69261 2.46132C4.92223 0.997985 5.47099 0.453125 6.47119 0.453125H19.9136H19.9253ZM10.7795 16.3786H15.3524C18.2129 16.2696 20.1121 14.2886 20.3028 10.7159C20.4196 8.50925 18.929 6.92915 16.5589 6.94083L12.2545 6.9603L10.7795 16.3786ZM44.3311 31.7825C44.8448 31.3155 45.3663 31.0742 45.2924 31.6502L45.1095 33.0279C45.0161 33.7479 45.3002 34.1293 45.9696 34.1293H50.9589C51.7996 34.1293 52.2082 33.7907 52.4145 32.4908L55.489 13.195C55.6447 12.226 55.4073 11.7512 54.6717 11.7512H49.1842C48.69 11.7512 48.4487 12.0275 48.3202 12.7825L48.1179 13.9695C48.0128 14.5883 47.7287 14.6973 47.464 14.0746C46.5339 11.8718 44.1599 10.8833 40.8479 10.9611C33.1537 11.1207 27.9659 16.9623 27.4093 24.4503C26.9812 30.2413 31.1299 34.7909 36.6019 34.7909C40.5716 34.7909 42.3463 33.6234 44.3467 31.7942L44.3311 31.7825ZM40.1512 28.813C36.8393 28.813 34.5314 26.1705 35.0101 22.9324C35.4888 19.6944 38.5867 17.0519 41.8987 17.0519C45.2107 17.0519 47.5185 19.6944 47.0398 22.9324C46.5611 26.1705 43.4671 28.813 40.1512 28.813ZM65.2537 11.6889H60.1943C59.1512 11.6889 58.727 12.4673 59.0578 13.4247L65.3393 31.8175L59.1785 40.5703C58.6609 41.302 59.0617 41.9675 59.7895 41.9675H65.4755C65.8069 42.0058 66.1423 41.948 66.4418 41.801C66.7412 41.6541 66.9921 41.4241 67.1646 41.1385L86.4837 13.4285C87.0792 12.5762 86.799 11.6811 85.8221 11.6811H80.4397C79.5173 11.6811 79.1476 12.0469 78.6183 12.8136L70.5622 24.4892L66.9622 12.7864C66.752 12.0781 66.2266 11.6889 65.2576 11.6889H65.2537Z" fill="#003087"/>
<path fill-rule="evenodd" clip-rule="evenodd" d="M106.578 0.449198C111.664 0.449198 116.358 3.20852 115.716 10.0854C114.937 18.2583 110.559 22.7806 103.651 22.8001H97.6186C96.7508 22.8001 96.3304 23.5084 96.1047 24.9601L94.9372 32.3818C94.762 33.5027 94.186 34.0553 93.3376 34.0553H87.7216C86.8265 34.0553 86.5152 33.4832 86.7137 32.2028L91.3566 2.4496C91.5863 0.986267 92.135 0.441406 93.1352 0.441406H106.578V0.449198ZM97.4318 16.3746H102.005C104.865 16.2657 106.764 14.2847 106.955 10.712C107.072 8.50532 105.581 6.92523 103.211 6.9369L98.9068 6.95637L97.4318 16.3746ZM130.983 31.7786C131.497 31.3116 132.019 31.0703 131.945 31.6463L131.762 33.024C131.668 33.744 131.953 34.1254 132.622 34.1254H137.611C138.452 34.1254 138.861 33.7868 139.067 32.4869L142.141 13.1911C142.297 12.222 142.06 11.7472 141.324 11.7472H135.844C135.35 11.7472 135.109 12.0236 134.98 12.7786L134.778 13.9656C134.673 14.5844 134.389 14.6934 134.124 14.0707C133.194 11.8679 130.82 10.8794 127.508 10.9572C119.814 11.1168 114.626 16.9584 114.069 24.4463C113.641 30.2374 117.79 34.787 123.262 34.787C127.232 34.787 129.006 33.6194 131.007 31.7903L130.983 31.7786ZM126.808 28.8091C123.496 28.8091 121.188 26.1665 121.666 22.9285C122.145 19.6905 125.243 17.0479 128.555 17.0479C131.867 17.0479 134.175 19.6905 133.696 22.9285C133.217 26.1665 130.119 28.8091 126.808 28.8091ZM149.82 34.1565H144.06C143.96 34.161 143.86 34.1433 143.767 34.1047C143.675 34.066 143.592 34.0075 143.525 33.9331C143.457 33.8588 143.407 33.7705 143.378 33.6745C143.349 33.5786 143.341 33.4774 143.356 33.3781L148.415 1.32486C148.463 1.10611 148.584 0.91013 148.758 0.768807C148.932 0.627484 149.148 0.549131 149.372 0.546494H155.132C155.233 0.542012 155.332 0.559709 155.425 0.598325C155.518 0.636941 155.6 0.695518 155.668 0.769876C155.735 0.844234 155.785 0.932536 155.814 1.02847C155.844 1.12441 155.851 1.22562 155.837 1.32486L150.777 33.3781C150.731 33.5983 150.61 33.7961 150.436 33.9389C150.262 34.0818 150.045 34.1613 149.82 34.1643V34.1565Z" fill="#009CDE"/>
</svg>
