<svg width="158" height="43" viewBox="0 0 158 43" fill="none" xmlns="http://www.w3.org/2000/svg">
<g clip-path="url(#clip0_8342_38037)">
<path fill-rule="evenodd" clip-rule="evenodd" d="M20.6519 0.475098C25.7385 0.475098 30.4321 3.23442 29.7899 10.1113C29.0116 18.2842 24.6332 22.8065 17.7252 22.826H11.6889C10.8211 22.826 10.4007 23.5343 10.175 24.986L9.00746 32.4077C8.83233 33.5286 8.25633 34.0812 7.40791 34.0812H1.79197C0.896845 34.0812 0.585499 33.5091 0.783983 32.2287L5.41918 2.48329C5.6488 1.01996 6.19755 0.475098 7.19775 0.475098H20.6402H20.6519ZM11.506 16.4005H16.079C18.9395 16.2916 20.8387 14.3106 21.0294 10.7379C21.1461 8.53122 19.6556 6.95113 17.2854 6.9628L12.981 6.98227L11.506 16.4005ZM45.0577 31.8045C45.5714 31.3375 46.0929 31.0962 46.0189 31.6722L45.836 33.0499C45.7426 33.7699 46.0267 34.1513 46.6961 34.1513H51.6855C52.5261 34.1513 52.9348 33.8127 53.141 32.5128L56.2156 13.217C56.3713 12.2479 56.1339 11.7731 55.3983 11.7731H49.9108C49.4165 11.7731 49.1752 12.0495 49.0468 12.8045L48.8444 13.9915C48.7393 14.6103 48.4552 14.7193 48.1906 14.0966C47.2604 11.8938 44.8864 10.9053 41.5744 10.9831C33.8803 11.1427 28.6924 16.9843 28.1359 24.4722C27.7078 30.2633 31.8565 34.8129 37.3284 34.8129C41.2981 34.8129 43.0728 33.6453 45.0732 31.8162L45.0577 31.8045ZM40.8778 28.835C37.5658 28.835 35.258 26.1924 35.7367 22.9544C36.2154 19.7164 39.3133 17.0738 42.6253 17.0738C45.9372 17.0738 48.2451 19.7164 47.7664 22.9544C47.2877 26.1924 44.1937 28.835 40.8778 28.835ZM65.9802 11.7109H60.9208C59.8778 11.7109 59.4536 12.4892 59.7844 13.4466L66.0658 31.8395L59.9051 40.5923C59.3874 41.3239 59.7883 41.9894 60.5161 41.9894H66.2021C66.5335 42.0278 66.8689 41.97 67.1683 41.823C67.4678 41.676 67.7187 41.4461 67.8911 41.1605L87.2103 13.4505C87.8057 12.5982 87.5255 11.7031 86.5487 11.7031H81.1662C80.2439 11.7031 79.8741 12.0689 79.3448 12.8356L71.2887 24.5112L67.6888 12.8084C67.4786 12.1001 66.9532 11.7109 65.9841 11.7109H65.9802Z" fill="#DADADA"/>
<path fill-rule="evenodd" clip-rule="evenodd" d="M107.308 0.47117C112.395 0.47117 117.088 3.23049 116.446 10.1074C115.668 18.2803 111.29 22.8026 104.381 22.8221H98.3491C97.4812 22.8221 97.0609 23.5304 96.8352 24.982L95.6676 32.4038C95.4925 33.5246 94.9165 34.0773 94.0681 34.0773H88.4521C87.557 34.0773 87.2457 33.5052 87.4441 32.2248L92.0871 2.47157C92.3167 1.00824 92.8655 0.463379 93.8657 0.463379H107.308V0.47117ZM98.1623 16.3966H102.735C105.596 16.2876 107.495 14.3067 107.686 10.734C107.802 8.5273 106.312 6.9472 103.942 6.95888L99.6373 6.97834L98.1623 16.3966ZM131.714 31.8006C132.228 31.3335 132.749 31.0922 132.675 31.6682L132.492 33.0459C132.399 33.7659 132.683 34.1473 133.352 34.1473H138.342C139.182 34.1473 139.591 33.8088 139.797 32.5089L142.872 13.2131C143.028 12.244 142.79 11.7692 142.055 11.7692H136.575C136.081 11.7692 135.839 12.0455 135.711 12.8005L135.508 13.9876C135.403 14.6064 135.119 14.7153 134.855 14.0926C133.924 11.8899 131.55 10.9013 128.239 10.9792C120.544 11.1387 115.356 16.9804 114.8 24.4683C114.372 30.2594 118.521 34.8089 123.992 34.8089C127.962 34.8089 129.737 33.6414 131.737 31.8122L131.714 31.8006ZM127.538 28.8311C124.226 28.8311 121.918 26.1885 122.397 22.9505C122.876 19.7125 125.973 17.0699 129.285 17.0699C132.597 17.0699 134.905 19.7125 134.427 22.9505C133.948 26.1885 130.85 28.8311 127.538 28.8311ZM150.55 34.1785H144.791C144.69 34.1829 144.59 34.1653 144.498 34.1266C144.405 34.088 144.322 34.0294 144.255 33.9551C144.188 33.8807 144.138 33.7924 144.109 33.6965C144.079 33.6006 144.072 33.4993 144.086 33.4001L149.145 1.34684C149.194 1.12808 149.315 0.932102 149.489 0.79078C149.662 0.649457 149.879 0.571104 150.103 0.568466H155.863C155.963 0.563985 156.063 0.581682 156.156 0.620298C156.248 0.658913 156.331 0.717491 156.398 0.791849C156.466 0.866206 156.516 0.954509 156.545 1.05045C156.574 1.14638 156.582 1.24759 156.567 1.34684L151.508 33.4001C151.461 33.6203 151.341 33.8181 151.167 33.9609C150.993 34.1038 150.776 34.1832 150.55 34.1863V34.1785Z" fill="#606060"/>
</g>
<defs>
<clipPath id="clip0_8342_38037">
<rect width="156.545" height="42" fill="white" transform="translate(0.726562 0.0219727)"/>
</clipPath>
</defs>
</svg>
