<svg width="32" height="33" viewBox="0 0 32 33" fill="none" xmlns="http://www.w3.org/2000/svg">
<g clip-path="url(#clip0_9824_49498)">
<path d="M13.3359 17.3561C13.3359 18.0634 13.6169 18.7416 14.117 19.2417C14.6171 19.7418 15.2954 20.0228 16.0026 20.0228C16.7098 20.0228 17.3881 19.7418 17.8882 19.2417C18.3883 18.7416 18.6693 18.0634 18.6693 17.3561C18.6693 16.6489 18.3883 15.9706 17.8882 15.4705C17.3881 14.9704 16.7098 14.6895 16.0026 14.6895C15.2954 14.6895 14.6171 14.9704 14.117 15.4705C13.6169 15.9706 13.3359 16.6489 13.3359 17.3561Z" stroke="#141414" stroke-width="2" stroke-linecap="round" stroke-linejoin="round"/>
<path d="M10.6641 28.0234V26.6901C10.6641 25.9829 10.945 25.3046 11.4451 24.8045C11.9452 24.3044 12.6235 24.0234 13.3307 24.0234H18.6641C19.3713 24.0234 20.0496 24.3044 20.5497 24.8045C21.0498 25.3046 21.3307 25.9829 21.3307 26.6901V28.0234" stroke="#141414" stroke-width="2" stroke-linecap="round" stroke-linejoin="round"/>
<path d="M20 6.6901C20 7.39735 20.281 8.07563 20.781 8.57572C21.2811 9.07582 21.9594 9.35677 22.6667 9.35677C23.3739 9.35677 24.0522 9.07582 24.5523 8.57572C25.0524 8.07563 25.3333 7.39735 25.3333 6.6901C25.3333 5.98286 25.0524 5.30458 24.5523 4.80449C24.0522 4.30439 23.3739 4.02344 22.6667 4.02344C21.9594 4.02344 21.2811 4.30439 20.781 4.80449C20.281 5.30458 20 5.98286 20 6.6901Z" stroke="#141414" stroke-width="2" stroke-linecap="round" stroke-linejoin="round"/>
<path d="M22.6641 13.3574H25.3307C26.038 13.3574 26.7162 13.6384 27.2163 14.1385C27.7164 14.6386 27.9974 15.3168 27.9974 16.0241V17.3574" stroke="#141414" stroke-width="2" stroke-linecap="round" stroke-linejoin="round"/>
<path d="M6.66406 6.6901C6.66406 7.39735 6.94501 8.07563 7.44511 8.57572C7.94521 9.07582 8.62349 9.35677 9.33073 9.35677C10.038 9.35677 10.7162 9.07582 11.2163 8.57572C11.7164 8.07563 11.9974 7.39735 11.9974 6.6901C11.9974 5.98286 11.7164 5.30458 11.2163 4.80449C10.7162 4.30439 10.038 4.02344 9.33073 4.02344C8.62349 4.02344 7.94521 4.30439 7.44511 4.80449C6.94501 5.30458 6.66406 5.98286 6.66406 6.6901Z" stroke="#141414" stroke-width="2" stroke-linecap="round" stroke-linejoin="round"/>
<path d="M4 17.3574V16.0241C4 15.3168 4.28095 14.6386 4.78105 14.1385C5.28115 13.6384 5.95942 13.3574 6.66667 13.3574H9.33333" stroke="#141414" stroke-width="2" stroke-linecap="round" stroke-linejoin="round"/>
</g>
<defs>
<clipPath id="clip0_9824_49498">
<rect width="32" height="32" fill="white" transform="translate(0 0.0234375)"/>
</clipPath>
</defs>
</svg>
