<svg width="32" height="33" viewBox="0 0 32 33" fill="none" xmlns="http://www.w3.org/2000/svg">
<g clip-path="url(#clip0_9761_40241)">
<path d="M14.6667 25.3555H6.66667C5.95942 25.3555 5.28115 25.0745 4.78105 24.5744C4.28095 24.0743 4 23.396 4 22.6888V8.02214C4 7.31489 4.28095 6.63661 4.78105 6.13652C5.28115 5.63642 5.95942 5.35547 6.66667 5.35547H12L16 9.35547H25.3333C26.0406 9.35547 26.7189 9.63642 27.219 10.1365C27.719 10.6366 28 11.3149 28 12.0221V17.3555" stroke="#141414" stroke-width="2" stroke-linecap="round" stroke-linejoin="round"/>
<path d="M26.6641 28.0247L29.3307 25.3581L26.6641 22.6914" stroke="#141414" stroke-width="2" stroke-linecap="round" stroke-linejoin="round"/>
<path d="M22.6667 22.6914L20 25.3581L22.6667 28.0247" stroke="#141414" stroke-width="2" stroke-linecap="round" stroke-linejoin="round"/>
</g>
<defs>
<clipPath id="clip0_9761_40241">
<rect width="32" height="32" fill="white" transform="translate(0 0.0234375)"/>
</clipPath>
</defs>
</svg>
