<svg width="32" height="33" viewBox="0 0 32 33" fill="none" xmlns="http://www.w3.org/2000/svg">
<g clip-path="url(#clip0_9824_49560)">
<path d="M18.6641 4.02344V9.35677C18.6641 9.71039 18.8045 10.0495 19.0546 10.2996C19.3046 10.5496 19.6438 10.6901 19.9974 10.6901H25.3307" stroke="#141414" strokeWidth="2" strokeLinecap="round" strokeLinejoin="round"/>
<path d="M6.66406 10.6901V6.6901C6.66406 5.98286 6.94501 5.30458 7.44511 4.80449C7.94521 4.30439 8.62349 4.02344 9.33073 4.02344H18.6641L25.3307 10.6901V25.3568C25.3307 26.064 25.0498 26.7423 24.5497 27.2424C24.0496 27.7425 23.3713 28.0234 22.6641 28.0234H15.9974" stroke="#141414" strokeWidth="2" strokeLinecap="round" strokeLinejoin="round"/>
<path d="M4 18.6895C4 19.7503 4.42143 20.7677 5.17157 21.5179C5.92172 22.268 6.93913 22.6895 8 22.6895C9.06087 22.6895 10.0783 22.268 10.8284 21.5179C11.5786 20.7677 12 19.7503 12 18.6895C12 17.6286 11.5786 16.6112 10.8284 15.861C10.0783 15.1109 9.06087 14.6895 8 14.6895C6.93913 14.6895 5.92172 15.1109 5.17157 15.861C4.42143 16.6112 4 17.6286 4 18.6895Z" stroke="#141414" strokeWidth="2" strokeLinecap="round" strokeLinejoin="round"/>
<path d="M6 22.6895L4 29.3561L8 27.3561L12 29.3561L10 22.6895" stroke="#141414" strokeWidth="2" strokeLinecap="round" strokeLinejoin="round"/>
</g>
<defs>
<clipPath id="clip0_9824_49560">
<rect width="32" height="32" fill="white" transform="translate(0 0.0234375)"/>
</clipPath>
</defs>
</svg>
