<svg width="32" height="33" viewBox="0 0 32 33" fill="none" xmlns="http://www.w3.org/2000/svg">
<g clip-path="url(#clip0_9824_49436)">
<path d="M12 18.6895C12 20.8988 15.5813 22.6895 20 22.6895C24.4187 22.6895 28 20.8988 28 18.6895C28 16.4801 24.4187 14.6895 20 14.6895C15.5813 14.6895 12 16.4801 12 18.6895Z" stroke="#141414" stroke-width="2" stroke-linecap="round" stroke-linejoin="round"/>
<path d="M12 18.6895V24.0228C12 26.2308 15.5813 28.0228 20 28.0228C24.4187 28.0228 28 26.2308 28 24.0228V18.6895" stroke="#141414" stroke-width="2" stroke-linecap="round" stroke-linejoin="round"/>
<path d="M4 8.02344C4 9.45277 5.52533 10.7728 8 11.4874C10.4747 12.2021 13.5253 12.2021 16 11.4874C18.4747 10.7728 20 9.45277 20 8.02344C20 6.5941 18.4747 5.2741 16 4.55944C13.5253 3.84477 10.4747 3.84477 8 4.55944C5.52533 5.2741 4 6.5941 4 8.02344Z" stroke="#141414" stroke-width="2" stroke-linecap="round" stroke-linejoin="round"/>
<path d="M4 8.02344V21.3568C4 22.5408 5.02933 23.2901 6.66667 24.0234" stroke="#141414" stroke-width="2" stroke-linecap="round" stroke-linejoin="round"/>
<path d="M4 14.6895C4 15.8735 5.02933 16.6228 6.66667 17.3561" stroke="#141414" stroke-width="2" stroke-linecap="round" stroke-linejoin="round"/>
</g>
<defs>
<clipPath id="clip0_9824_49436">
<rect width="32" height="32" fill="white" transform="translate(0 0.0234375)"/>
</clipPath>
</defs>
</svg>
