<svg width="32" height="33" viewBox="0 0 32 33" fill="none" xmlns="http://www.w3.org/2000/svg">
<path d="M11.9973 27.3368C9.65828 26.5092 7.63327 24.9769 6.20106 22.9508C4.76886 20.9248 3.99988 18.5046 4 16.0234C4 14.4476 4.31039 12.8871 4.91345 11.4312C5.5165 9.97533 6.40042 8.65246 7.51472 7.53816C8.62902 6.42385 9.95189 5.53994 11.4078 4.93688C12.8637 4.33383 14.4241 4.02344 16 4.02344C17.5759 4.02344 19.1363 4.33383 20.5922 4.93688C22.0481 5.53994 23.371 6.42385 24.4853 7.53816C25.5996 8.65246 26.4835 9.97533 27.0866 11.4312C27.6896 12.8871 28 14.4476 28 16.0234" stroke="#141414" strokeWidth="2" strokeLinecap="round" strokeLinejoin="round"/>
<path d="M16 9.35547V16.0221" stroke="#141414" strokeWidth="2" strokeLinecap="round" strokeLinejoin="round"/>
<path d="M16 20.0234H18.6667C19.0203 20.0234 19.3594 20.1639 19.6095 20.414C19.8595 20.664 20 21.0031 20 21.3568V22.6901C20 23.0437 19.8595 23.3829 19.6095 23.6329C19.3594 23.883 19.0203 24.0234 18.6667 24.0234H17.3333C16.9797 24.0234 16.6406 24.1639 16.3905 24.414C16.1405 24.664 16 25.0031 16 25.3568V26.6901C16 27.0437 16.1405 27.3829 16.3905 27.6329C16.6406 27.883 16.9797 28.0234 17.3333 28.0234H20" stroke="#141414" strokeWidth="2" strokeLinecap="round" strokeLinejoin="round"/>
<path d="M24 20.0234V22.6901C24 23.0437 24.1405 23.3829 24.3905 23.6329C24.6406 23.883 24.9797 24.0234 25.3333 24.0234H26.6667" stroke="#141414" strokeWidth="2" strokeLinecap="round" strokeLinejoin="round"/>
<path d="M28 20.0234V28.0234" stroke="#141414" strokeWidth="2" strokeLinecap="round" strokeLinejoin="round"/>
</svg>
