<svg width="28" height="28" viewBox="0 0 28 28" fill="none" xmlns="http://www.w3.org/2000/svg">
<path d="M12.8335 19.8327L15.1668 22.166C15.3966 22.3958 15.6695 22.5781 15.9697 22.7025C16.27 22.8269 16.5918 22.8909 16.9168 22.8909C17.2418 22.8909 17.5637 22.8269 17.8639 22.7025C18.1642 22.5781 18.437 22.3958 18.6668 22.166C18.8966 21.9362 19.0789 21.6634 19.2033 21.3631C19.3277 21.0628 19.3917 20.741 19.3917 20.416C19.3917 20.091 19.3277 19.7692 19.2033 19.4689C19.0789 19.1687 18.8966 18.8958 18.6668 18.666" stroke="#141414" stroke-width="1.5" stroke-linecap="round" stroke-linejoin="round"/>
<path d="M16.3331 16.3339L19.2498 19.2506C19.7139 19.7147 20.3434 19.9755 20.9998 19.9755C21.6562 19.9755 22.2856 19.7147 22.7498 19.2506C23.2139 18.7865 23.4747 18.157 23.4747 17.5006C23.4747 16.8442 23.2139 16.2147 22.7498 15.7506L18.2231 11.2239C17.5669 10.5685 16.6773 10.2003 15.7498 10.2003C14.8223 10.2003 13.9327 10.5685 13.2764 11.2239L12.2498 12.2506C11.7856 12.7147 11.1562 12.9755 10.4998 12.9755C9.8434 12.9755 9.2139 12.7147 8.74978 12.2506C8.28565 11.7865 8.0249 11.157 8.0249 10.5006C8.0249 9.84421 8.28565 9.21472 8.74978 8.75059L12.0281 5.47225C13.0924 4.41076 14.4803 3.73456 15.9722 3.55072C17.4641 3.36688 18.9746 3.68589 20.2648 4.45725L20.8131 4.78392C21.3099 5.08374 21.9005 5.18772 22.4698 5.07559L24.4998 4.66725" stroke="#141414" stroke-width="1.5" stroke-linecap="round" stroke-linejoin="round"/>
<path d="M24.5002 3.5L25.6668 16.3333H23.3335" stroke="#141414" stroke-width="1.5" stroke-linecap="round" stroke-linejoin="round"/>
<path d="M3.50016 3.5L2.3335 16.3333L9.91683 23.9167C10.381 24.3808 11.0105 24.6415 11.6668 24.6415C12.3232 24.6415 12.9527 24.3808 13.4168 23.9167C13.881 23.4525 14.1417 22.823 14.1417 22.1667C14.1417 21.5103 13.881 20.8808 13.4168 20.4167" stroke="#141414" stroke-width="1.5" stroke-linecap="round" stroke-linejoin="round"/>
<path d="M3.5 4.66602H12.8333" stroke="#141414" stroke-width="1.5" stroke-linecap="round" stroke-linejoin="round"/>
</svg>
