<svg width="28" height="28" viewBox="0 0 28 28" fill="none" xmlns="http://www.w3.org/2000/svg">
<path d="M23.3332 15.1659C23.3332 20.9992 19.2498 23.9159 14.3965 25.6076C14.1424 25.6937 13.8663 25.6896 13.6148 25.5959C8.74984 23.9159 4.6665 20.9992 4.6665 15.1659V6.99922C4.6665 6.6898 4.78942 6.39306 5.00821 6.17426C5.22701 5.95547 5.52375 5.83256 5.83317 5.83256C8.1665 5.83256 11.0832 4.43256 13.1132 2.65922C13.3603 2.44805 13.6747 2.33203 13.9998 2.33203C14.3249 2.33203 14.6393 2.44805 14.8865 2.65922C16.9282 4.44422 19.8332 5.83256 22.1665 5.83256C22.4759 5.83256 22.7727 5.95547 22.9915 6.17426C23.2103 6.39306 23.3332 6.6898 23.3332 6.99922V15.1659Z" stroke="#141414" stroke-width="1.5" stroke-linecap="round" stroke-linejoin="round"/>
<path d="M10.5 13.9993L12.8333 16.3327L17.5 11.666" stroke="#141414" stroke-width="1.5" stroke-linecap="round" stroke-linejoin="round"/>
</svg>
